<?xml version="1.0" encoding="UTF-8"?>
<svg width="21px" height="23px" viewBox="0 0 21 23" version="1.1" xmlns="http://www.w3.org/2000/svg" xmlns:xlink="http://www.w3.org/1999/xlink">
    <!-- Generator: Sketch 61.2 (89653) - https://sketch.com -->
    <title>interface</title>
    <desc>Created with Sketch.</desc>
    <g id="Welcome" stroke="none" stroke-width="1" fill="none" fill-rule="evenodd">
        <g id="Poisk24_home-page-другие-категории" transform="translate(-430.000000, -982.000000)" fill="#FF9419" fill-rule="nonzero">
            <g id="Актуальные-находки" transform="translate(385.000000, 881.000000)">
                <g id="Group-8">
                    <g id="menu-2" transform="translate(0.000000, 90.000000)">
                        <g id="Group-51" transform="translate(45.000000, 11.000000)">
                            <g id="interface" transform="translate(0.000000, 0.000000)">
                                <path d="M17.6010599,0.0132971996 C19.1646688,0.0132971996 20.4377958,1.28528959 20.4377958,2.85003312 L20.4377958,2.85003312 L20.4377958,19.8704487 C20.4377958,21.4351922 19.1646688,22.7071846 17.6010599,22.7071846 L17.6010599,22.7071846 L2.85003312,22.7071846 C1.28642428,22.7071846 0.0132971996,21.4351922 0.0132971996,19.8704487 L0.0132971996,19.8704487 L0.0132971996,2.85003312 C0.0132971996,1.28528959 1.28642428,0.0132971996 2.85003312,0.0132971996 L2.85003312,0.0132971996 Z M17.6010599,1.14799157 L2.85003312,1.14799157 C1.91164088,1.14799157 1.14799157,1.91164088 1.14799157,2.85003312 L1.14799157,2.85003312 L1.14799157,19.8704487 C1.14799157,20.8088409 1.91164088,21.5724902 2.85003312,21.5724902 L2.85003312,21.5724902 L17.6010599,21.5724902 C18.5394522,21.5724902 19.3031015,20.8088409 19.3031015,19.8704487 L19.3031015,19.8704487 L19.3031015,2.85003312 C19.3031015,1.91164088 18.5394522,1.14799157 17.6010599,1.14799157 L17.6010599,1.14799157 Z M6.25411623,14.764324 C6.56729188,14.764324 6.82146341,15.0184955 6.82146341,15.3316712 C6.82146341,15.6448468 6.56729188,15.8990184 6.25411623,15.8990184 L6.25411623,15.8990184 L5.11942186,15.8990184 C4.80624621,15.8990184 4.55207468,15.6448468 4.55207468,15.3316712 C4.55207468,15.0184955 4.80624621,14.764324 5.11942186,14.764324 L5.11942186,14.764324 Z M15.3316712,14.764324 C15.6448468,14.764324 15.8990184,15.0184955 15.8990184,15.3316712 C15.8990184,15.6448468 15.6448468,15.8990184 15.3316712,15.8990184 L15.3316712,15.8990184 L8.52350497,15.8990184 C8.21032932,15.8990184 7.95615778,15.6448468 7.95615778,15.3316712 C7.95615778,15.0184955 8.21032932,14.764324 8.52350497,14.764324 L8.52350497,14.764324 Z M6.25411623,10.2255465 C6.56729188,10.2255465 6.82146341,10.4797181 6.82146341,10.7928937 C6.82146341,11.1060694 6.56729188,11.3602409 6.25411623,11.3602409 L6.25411623,11.3602409 L5.11942186,11.3602409 C4.80624621,11.3602409 4.55207468,11.1060694 4.55207468,10.7928937 C4.55207468,10.4797181 4.80624621,10.2255465 5.11942186,10.2255465 L5.11942186,10.2255465 Z M15.3316712,10.2255465 C15.6448468,10.2255465 15.8990184,10.4797181 15.8990184,10.7928937 C15.8990184,11.1060694 15.6448468,11.3602409 15.3316712,11.3602409 L15.3316712,11.3602409 L8.52350497,11.3602409 C8.21032932,11.3602409 7.95615778,11.1060694 7.95615778,10.7928937 C7.95615778,10.4797181 8.21032932,10.2255465 8.52350497,10.2255465 L8.52350497,10.2255465 Z M6.25411623,5.68676905 C6.56729188,5.68676905 6.82146341,5.94094058 6.82146341,6.25411623 C6.82146341,6.56729188 6.56729188,6.82146341 6.25411623,6.82146341 L6.25411623,6.82146341 L5.11942186,6.82146341 C4.80624621,6.82146341 4.55207468,6.56729188 4.55207468,6.25411623 C4.55207468,5.94094058 4.80624621,5.68676905 5.11942186,5.68676905 L5.11942186,5.68676905 Z M15.3316712,5.68676905 C15.6448468,5.68676905 15.8990184,5.94094058 15.8990184,6.25411623 C15.8990184,6.56729188 15.6448468,6.82146341 15.3316712,6.82146341 L15.3316712,6.82146341 L8.52350497,6.82146341 C8.21032932,6.82146341 7.95615778,6.56729188 7.95615778,6.25411623 C7.95615778,5.94094058 8.21032932,5.68676905 8.52350497,5.68676905 L8.52350497,5.68676905 Z" id="Combined-Shape"></path>
                            </g>
                        </g>
                    </g>
                </g>
            </g>
        </g>
    </g>
</svg>