<?xml version="1.0" encoding="UTF-8"?>
<svg width="26px" height="26px" viewBox="0 0 26 26" version="1.1" xmlns="http://www.w3.org/2000/svg" xmlns:xlink="http://www.w3.org/1999/xlink">
    <!-- Generator: Sketch 61.2 (89653) - https://sketch.com -->
    <title>question</title>
    <desc>Created with Sketch.</desc>
    <g id="Welcome" stroke="none" stroke-width="1" fill="none" fill-rule="evenodd">
        <g id="Poisk24_home-page-другие-категории" transform="translate(-1225.000000, -981.000000)" fill="#444E5B">
            <g id="question" transform="translate(1225.000000, 981.000000)">
                <path d="M2.49508594,2.49300391 C5.81653516,-0.828394531 11.2208789,-0.828394531 14.5423281,2.49300391 C16.2819922,4.23261719 17.1842227,6.63924219 17.0178125,9.09578516 C17.003543,9.30566406 16.8214922,9.46410156 16.6120703,9.45003516 C16.4021914,9.43586719 16.2436016,9.25422266 16.2578203,9.04434375 C16.4093516,6.80727734 15.5877617,4.61571094 14.0036914,3.03169141 C10.9792617,0.0072109375 6.05810156,0.0072109375 3.03367187,3.03169141 C1.56858203,4.49678125 0.76171875,6.44475 0.76171875,8.51667578 C0.76171875,10.5886523 1.56863281,12.5366211 3.03377344,14.0018633 C6.05825391,17.026293 10.9793633,17.026293 14.0038437,14.0018633 C14.9799102,13.0257969 15.6786094,11.8081133 16.0245312,10.4803359 C16.0775469,10.2768047 16.2856992,10.1549297 16.4890781,10.207793 C16.6926602,10.2608086 16.8146367,10.4688086 16.7616211,10.6723398 C16.4745547,11.7743438 15.9660312,12.8070313 15.2725625,13.7083984 L15.2725625,13.7083984 L16.1364531,14.5722891 C16.3522227,14.4378711 16.6015586,14.3656602 16.8620664,14.3656602 C17.2297734,14.3656602 17.5753906,14.5088633 17.8353906,14.7688633 L17.8353906,14.7688633 L25.5975078,22.5308789 C26.1341641,23.0676367 26.1341641,23.9408711 25.5975586,24.4775273 L25.5975586,24.4775273 L24.4796094,25.5954766 C24.2112305,25.8637539 23.8587578,25.9979688 23.5062852,25.9979688 C23.1538125,25.9979688 22.8013398,25.8638047 22.5329609,25.5954766 L22.5329609,25.5954766 L17.5328359,20.5953516 C17.3840977,20.4466133 17.3840977,20.2055039 17.5328359,20.0567148 C17.6815234,19.9080273 17.9226836,19.9080273 18.0714219,20.0567148 L18.0714219,20.0567148 L19.1958711,21.1811641 L21.1831445,19.1938398 L17.2967031,15.3074492 C17.1805664,15.1913125 17.0261914,15.1273281 16.8620156,15.1273281 C16.6978398,15.1273281 16.5434648,15.1913125 16.4273281,15.3073984 L16.4273281,15.3073984 L15.3093789,16.4253984 C15.0696914,16.6650859 15.0696914,17.0550352 15.3093789,17.2947734 L15.3093789,17.2947734 L17.0762109,19.0615039 C17.2249492,19.2102422 17.2249492,19.4513516 17.0762109,19.6000898 C16.9275234,19.7488789 16.6863633,19.7488281 16.537625,19.6001406 L16.537625,19.6001406 L14.770793,17.8333594 C14.3106133,17.3730781 14.2454102,16.6654414 14.5745234,16.1347266 L14.5745234,16.1347266 L13.7104805,15.2709883 C12.1860273,16.4444922 10.352418,17.0314219 8.51870703,17.0314219 C6.33724609,17.0314219 4.15583594,16.2010469 2.49508594,14.5403477 C0.886082031,12.9313945 -4.84945417e-12,10.7921328 -4.84945417e-12,8.51667578 C-4.84945417e-12,6.24132031 0.886082031,4.10205859 2.49508594,2.49300391 Z M23.6641133,21.6748086 L21.6768398,23.6621328 L23.0715977,25.0568906 C23.3112852,25.2966289 23.7012852,25.2966289 23.9409727,25.0568906 L23.9409727,25.0568906 L25.0589219,23.9389414 C25.2985586,23.6992539 25.2985586,23.3092539 25.0589219,23.0696172 L25.0589219,23.0696172 L23.6641133,21.6748086 Z M22.6328984,20.6436445 L20.645625,22.630918 L21.1381016,23.1234453 L23.125375,21.1361211 L22.6328984,20.6436445 Z M21.721832,19.7325273 L19.7345078,21.7198516 L20.1069883,22.092332 L22.0943125,20.1050078 L21.721832,19.7325273 Z M14.7794258,14.2925352 C14.7019844,14.3764766 14.6233242,14.4594531 14.5423789,14.5403984 C14.4610781,14.6216992 14.3782031,14.7004102 14.2944648,14.77775 L14.2944648,14.77775 L15.0873125,15.5702422 L15.5722227,15.085332 Z M3.81996875,3.81798828 C6.41098047,1.22717969 10.6266367,1.22717969 13.2174961,3.81798828 C14.4725547,5.07309766 15.1637383,6.74182031 15.1637383,8.51677734 C15.1637383,10.2917344 14.4725547,11.9604063 13.2174453,13.2155156 C11.9623867,14.470625 10.2936641,15.1618086 8.51870703,15.1618086 C6.74375,15.1618086 5.07507812,14.470625 3.81996875,13.2155156 C2.33151953,11.7271172 1.64571875,9.67651953 1.93832031,7.58951172 C1.96751953,7.38115625 2.16003125,7.23663281 2.36838672,7.26517188 C2.57669141,7.29437109 2.721875,7.48693359 2.69272656,7.69528906 C2.43364062,9.54337109 3.04083203,11.3591055 4.35865625,12.6768789 C5.46980078,13.7881758 6.94728125,14.4001406 8.51875781,14.4001406 C10.0902344,14.4001406 11.5676133,13.7881758 12.6788594,12.6768789 C13.7901055,11.5657344 14.4020703,10.0882539 14.4020703,8.51677734 C14.4020703,6.94530078 13.7901055,5.46792188 12.6788594,4.35667578 C10.3848672,2.06273438 6.65244531,2.06268359 4.35860547,4.35667578 C3.79686328,4.91831641 3.36202344,5.57308984 3.06617187,6.30266406 C2.98705469,6.49761328 2.76498828,6.59145703 2.57008984,6.51249219 C2.37514062,6.43342578 2.28119531,6.21130859 2.36026172,6.01641016 C2.69460547,5.191875 3.18576172,4.45214453 3.81996875,3.81798828 Z M8.51870703,10.8567773 C9.21877734,10.8567773 9.78828906,11.4262891 9.78828906,12.1263594 L9.78828906,12.1263594 L9.78828906,12.1844023 C9.78828906,12.8844727 9.21872656,13.4539844 8.51870703,13.4539844 C7.81863672,13.4539844 7.249125,12.8844219 7.249125,12.1844023 L7.249125,12.1844023 L7.249125,12.1263594 C7.249125,11.4262891 7.8186875,10.8567773 8.51870703,10.8567773 Z M8.51870703,11.6184961 C8.23869922,11.6184961 8.01089453,11.8463008 8.01089453,12.1263086 L8.01089453,12.1263086 L8.01089453,12.1843516 C8.01089453,12.4643594 8.23869922,12.6921641 8.51870703,12.6921641 C8.79871484,12.6921641 9.02651953,12.4643594 9.02651953,12.1843516 L9.02651953,12.1843516 L9.02651953,12.1263086 C9.02651953,11.8463008 8.79871484,11.6184961 8.51870703,11.6184961 Z M8.49933016,3.68658674 L8.70974609,3.69260938 C10.2297812,3.78696094 11.4473125,5.00439063 11.5416133,6.52457813 C11.6197148,7.78263281 10.9330508,8.93541797 9.79174219,9.46425391 C9.79026953,9.46785938 9.78833984,9.47425781 9.78823828,9.48360156 C9.78823828,10.1836719 9.21867578,10.7531836 8.51865625,10.7531836 C7.81858594,10.7531836 7.24907422,10.1836211 7.24907422,9.48360156 C7.24907422,8.48402344 7.82737109,7.57244922 8.72223828,7.16127344 C8.90814844,7.07591016 9.02001953,6.88771484 9.00727344,6.68184766 C8.99264844,6.44571484 8.78850781,6.24157422 8.55232422,6.22689844 C8.41176172,6.21796094 8.28455469,6.26346094 8.18360156,6.35842188 C8.08249609,6.45348438 8.02902344,6.57693359 8.02902344,6.71551563 C8.02902344,7.41558594 7.45951172,7.98509766 6.75944141,7.98509766 C6.05937109,7.98509766 5.48985937,7.41553516 5.48985937,6.71551563 C5.48985937,5.88300781 5.83791406,5.07842969 6.44464844,4.50820703 C7.06026953,3.92955469 7.86428906,3.64015234 8.70974609,3.69260938 Z M8.66246875,4.45280469 C8.02958203,4.41395703 7.42711328,4.63018359 6.966375,5.06319531 C6.5121875,5.49011328 6.25167969,6.09232813 6.25167969,6.71546484 C6.25167969,6.99547266 6.47948437,7.22327734 6.75949219,7.22327734 C7.0395,7.22327734 7.26730469,6.99547266 7.26730469,6.71546484 C7.26730469,6.36644531 7.40746094,6.04251172 7.66192578,5.80333203 C7.89643359,5.58283984 8.19766797,5.46396094 8.51748828,5.46396094 C8.54491016,5.46396094 8.57243359,5.464875 8.60010937,5.46660156 C9.21633984,5.50483984 9.72938281,6.01793359 9.76767187,6.63467188 C9.80012109,7.15726172 9.51462891,7.63567188 9.04038281,7.85352344 C8.41501172,8.14084375 8.01094531,8.78073828 8.01094531,9.48370313 C8.01094531,9.76371094 8.23875,9.99151563 8.51875781,9.99151563 C8.79876562,9.99151563 9.02657031,9.76371094 9.02657031,9.48370313 C9.02657031,9.17632422 9.19841406,8.89870313 9.46425391,8.77647266 C10.3229648,8.38200391 10.839918,7.51658984 10.7813672,6.57175391 C10.7107812,5.43430469 9.79986719,4.52344141 8.66246875,4.45280469 Z" id="Combined-Shape"></path>
            </g>
        </g>
    </g>
</svg>