<?xml version="1.0" encoding="UTF-8"?>
<svg width="23px" height="26px" viewBox="0 0 23 26" version="1.1" xmlns="http://www.w3.org/2000/svg" xmlns:xlink="http://www.w3.org/1999/xlink">
    <!-- Generator: Sketch 61.2 (89653) - https://sketch.com -->
    <title>refresh</title>
    <desc>Created with Sketch.</desc>
    <g id="Welcome" stroke="none" stroke-width="1" fill="none" fill-rule="evenodd">
        <g id="Poisk24_home-page-другие-категории" transform="translate(-1391.000000, -981.000000)" fill="#FF9419">
            <g id="refresh" transform="translate(1391.000000, 981.000000)">
                <path d="M16.3191406,4.5141754 C16.2939453,3.56063845 17.3669922,2.96356201 18.1404297,3.51541135 C21.1742188,5.67916873 22.9853516,9.21580507 22.9853516,12.9757996 C22.9853516,19.2032471 18.1464844,24.2676849 12.0822266,24.5176239 L12.0822266,24.5176239 L12.0822266,25.3477783 C12.0822266,25.7072144 11.7941406,25.9996033 11.4400391,25.9996033 C11.1703125,25.9996033 11.3449219,26.0704193 8.1972656,23.8836517 C7.8251953,23.6249848 7.825,23.0665894 8.19746095,22.8083191 L8.19746095,22.8083191 L11.078711,20.8066254 C11.5046875,20.5106659 12.0822266,20.8228912 12.0822266,21.3441925 L12.0822266,21.3441925 L12.0822266,22.1594696 C16.8494141,21.9091339 20.6666016,17.8680572 20.6666016,12.9757996 C20.6666016,9.98406982 19.2259766,7.16947938 16.8128906,5.44648741 C16.5091797,5.22947694 16.3291016,4.88967893 16.3191406,4.5141754 Z M11.33125,21.5552521 L8.7535156,23.3460846 L11.33125,25.1367188 L11.33125,21.5552521 Z M17.7089844,4.13946533 C17.4439453,3.9502258 17.0609375,4.16148378 17.0699219,4.49354552 C17.0732422,4.62565614 17.1371094,4.7456665 17.2449219,4.82263184 C19.8576172,6.68824767 21.4175781,9.73611448 21.4175781,12.9757996 C21.4175781,18.3185425 17.2845703,22.675415 12.0828125,22.9239654 L12.0828125,22.9239654 L12.0828125,23.7549133 C17.7144531,23.502594 22.234375,18.7456207 22.2345703,12.9757996 C22.2345703,9.46395877 20.5427735,6.16079709 17.7089844,4.13946533 Z M11.5671875,5.34350342e-13 C11.6958985,5.34350342e-13 11.8208985,0.0394745 11.9285156,0.114257813 L11.9285156,0.114257813 L14.809961,2.1161499 C15.1820313,2.37461854 15.1820313,2.93321229 14.8097656,3.19148253 L14.8097656,3.19148253 L11.9285156,5.19317627 C11.5023438,5.48913574 10.925,5.17691038 10.925,4.65560916 L10.925,4.65560916 L10.925,3.84013368 C6.1578125,4.09046935 2.340625,8.13174436 2.340625,13.0240021 C2.340625,16.0155334 3.78125,18.8303223 6.19433595,20.5533142 C6.82734375,21.0053863 6.85839845,21.9472198 6.25,22.4334106 C5.8279297,22.7730103 5.27089845,22.7730103 4.86660155,22.4843902 C-1.2160156,18.1459656 -1.6636719,9.09480284 4.0703125,4.186676 C4.22890625,4.0507965 4.4658203,4.07142638 4.59941405,4.23249816 C4.7330078,4.39356993 4.7128906,4.63418577 4.5542969,4.76986697 C-0.7982422,9.35148622 -0.3875,17.8047791 5.2982422,21.8603363 C5.7207031,22.1616516 6.21191405,21.4981232 5.7623047,21.1771698 C3.1496094,19.3115539 1.58964845,16.2636871 1.58964845,13.0240021 C1.58964845,7.68125917 5.72246095,3.32438661 10.9246094,3.0756378 L10.9246094,3.0756378 L10.9246094,2.24488829 C9.07558595,2.32740782 7.2847656,2.89631652 5.7230469,3.90003966 C5.5480469,4.01271056 5.3158203,3.95994569 5.2050781,3.78181456 C5.0941406,3.60388184 5.14628905,3.3682251 5.3214844,3.2555542 C7.0033203,2.17446897 8.93339845,1.56469727 10.925,1.48158263 L10.925,1.48158263 L10.925,0.651824977 C10.925,0.292388891 11.213086,5.34350342e-13 11.5671875,5.34350342e-13 Z M14.5576172,9.50819396 C15.2482422,8.92658995 16.2761719,9.02418517 16.8488281,9.72540283 C17.4228516,10.4286041 17.3271485,11.4694214 16.6347656,12.052414 L16.6347656,12.052414 L10.7242188,17.030365 C9.87402345,17.74646 8.60546875,17.5925293 7.94433595,16.6973114 L7.94433595,16.6973114 L6.109375,14.2124023 C5.8486328,13.8591156 5.7386719,13.4241028 5.8001953,12.9871063 C6.00410155,11.5396424 7.84316405,11.0516662 8.7126953,12.2293549 L8.7126953,12.2293549 L9.71503905,13.5865631 Z M16.2707031,10.2121887 C15.9623047,9.83450315 15.4087891,9.78213498 15.0369141,10.0953522 L15.0369141,10.0953522 L9.8910156,14.4294129 C9.7248047,14.569458 9.47871095,14.5379181 9.35078125,14.3647461 L9.35078125,14.3647461 L8.11191405,12.6869812 C7.6457031,12.0557861 6.65410155,12.3096924 6.54375,13.0950165 C6.5105469,13.3302765 6.56972655,13.5645447 6.71015625,13.754776 L6.71015625,13.754776 L8.5451172,16.2396851 C8.9498047,16.7875672 9.7261719,16.8800049 10.2449219,16.4432068 L10.2449219,16.4432068 L16.1554688,11.4652558 C16.5283203,11.1512451 16.5796875,10.5906678 16.2707031,10.2121887 Z M11.6759766,0.862884547 L11.6759766,4.44454959 L14.253711,2.65371702 L11.6759766,0.862884547 Z" id="Combined-Shape"></path>
            </g>
        </g>
    </g>
</svg>