<svg xmlns="http://www.w3.org/2000/svg" width="70" height="66" viewBox="0 0 70 66"><g><g><g opacity=".26"><path fill="#4a90e2" d="M12.524 46.4v.714h44.892v-.713c0-3.364 2.736-6.1 6.1-6.1h.713V24.993h-.714a6.107 6.107 0 0 1-6.1-6.1v-.713H12.525v.714c0 3.363-2.737 6.1-6.1 6.1H5.71V40.3h.714c3.363 0 6.1 2.736 6.1 6.1z"/></g><g><path fill="#4a90e2" d="M23.643 8.567h-1.865V7.139h1.865V5.275h1.427v1.864h1.865v1.428H25.07v1.864h-1.427zm25.638-5.155h-1.865V1.985h1.865V.12h1.428v1.865h1.864v1.427h-1.864v1.864H49.28zM8.087 9.117h1.427v1.427H8.087zm5.709 0h1.427v1.427h-1.427zm-2.855 0h1.427v1.427h-1.427zM35.78 1.27h1.426v1.427H35.78zm-2.856 0h1.427v1.427h-1.427zm-2.854 0h1.427v1.427h-1.427zm28.058 7.846h1.427v1.427H58.13zm2.854 0h1.427v1.427h-1.427zm-5.708 0h1.427v1.427h-1.427zM46.294 55.76v1.865h1.864v1.427h-1.864v1.865h-1.428v-1.865h-1.864v-1.427h1.864V55.76zm-25.639 5.155v1.865h1.865v1.427h-1.865v1.864h-1.427v-1.864h-1.864V62.78h1.864v-1.865zm39.768-5.267h1.427v1.427h-1.427zm-2.854 0h1.427v1.427h-1.427zm-2.855 0h1.427v1.427h-1.427zm-16.275 7.846h1.427v1.427h-1.427zm-5.71 0h1.427v1.427H32.73zm2.855 0h1.427v1.427h-1.427zm-22.35-7.846h1.428v1.427h-1.427zm-2.853 0h1.427v1.427H10.38zm-2.855 0h1.427v1.427H7.526zm3.848-21.523h1.527v1.427h-1.527zm3.34 0h6.89v1.427h-6.89zm-3.34-4.383h6.991v1.427h-6.99zm8.61 0h1.62v1.427h-1.62zm28.349 4.383h10.23v1.427h-10.23zm0-4.383h10.23v1.427h-10.23zM6.423 40.3h-.715V24.993h.714c3.363 0 6.1-2.736 6.1-6.1v-.713h44.892v.713c0 3.364 2.737 6.1 6.1 6.1h.714v15.308h-.714a6.107 6.107 0 0 0-6.1 6.1v.713H12.522V46.4c0-3.363-2.737-6.1-6.1-6.1zM56.02 19.607H39.528c3.564 2.333 6.038 7.293 6.038 13.04 0 5.747-2.474 10.707-6.039 13.04h16.494a7.54 7.54 0 0 1 6.78-6.78v-12.52a7.54 7.54 0 0 1-6.78-6.78zm-11.882 13.04c0-7.19-4.114-13.04-9.171-13.04-5.056 0-9.17 5.85-9.17 13.04 0 7.19 4.114 13.04 9.17 13.04 5.057 0 9.17-5.85 9.17-13.04zm-37.003-6.26v12.52a7.541 7.541 0 0 1 6.78 6.78H30.41c-3.565-2.333-6.038-7.293-6.038-13.04 0-5.747 2.473-10.707 6.038-13.04H13.916a7.541 7.541 0 0 1-6.78 6.78zm62.801 26.436H0V12.471h69.937zM68.51 13.898H1.427v37.498H68.51z"/></g></g></g></svg>