<svg xmlns="http://www.w3.org/2000/svg" width="70" height="67" viewBox="0 0 70 67"><g><g><g><path fill="#cddff5" d="M51.993 12.972c-.584.166-1.872.836-4.04.836-4.99 0-10.326-3.616-13.855-7.198-3.51 3.614-8.857 7.299-13.878 7.299-2.12 0-3.383-.643-3.97-.806C14.585 38.67 34.193 48.93 34.254 49.001c.202-.242 19.655-9.626 17.74-36.029z"/></g><g><path fill="#4a90e2" d="M41.267 3.523h2.954V4.98h-2.954zm5.524 0h8.432V4.98H46.79zm-36.642 46.4h4.158v1.458H8.692v-8.37h1.457zm5.997 0h1.84v1.458h-1.84zm14.168-11.118h8.377v1.457h-8.377zm5.97-9.25c0 1.15-.772 2.115-1.821 2.43v2.052h-1.457v-2.051a2.545 2.545 0 0 1-1.822-2.431 2.553 2.553 0 0 1 2.55-2.55 2.553 2.553 0 0 1 2.55 2.55zm-1.457 0a1.094 1.094 0 0 0-2.186 0 1.094 1.094 0 0 0 2.186 0zM15.679 65.364h5.761v1.457h-5.76zm8.774 0h28.476v1.457H24.453zm-13.037-3.717h32.046v1.457H11.416zm35.716 0h10.06v1.457h-10.06zM7.239 57.93h6.727v1.457H7.239zm8.761 0h12.97v1.457H16zm16.21 0h29.16v1.457H32.21zM2.767 22.424h1.457v6.094H2.766zm64.652 5.481a2.553 2.553 0 0 1-2.55 2.55 2.553 2.553 0 0 1-2.55-2.55 2.553 2.553 0 0 1 2.55-2.55 2.553 2.553 0 0 1 2.55 2.55zm-1.457 0a1.094 1.094 0 0 0-2.185 0 1.094 1.094 0 0 0 2.185 0zm3.976-24.452V50.9a3.457 3.457 0 0 1-3.453 3.453H3.453A3.457 3.457 0 0 1 0 50.9V3.453A3.457 3.457 0 0 1 3.453 0h63.031a3.457 3.457 0 0 1 3.453 3.453zM3.453 52.896h2.08V1.457h-2.08c-1.1 0-1.996.896-1.996 1.996V50.9c0 1.1.895 1.996 1.996 1.996zm56.346 0V1.457H6.989v51.439zM68.48 3.453c0-1.1-.895-1.996-1.996-1.996h-5.228v51.439h5.228c1.101 0 1.996-.895 1.996-1.996zm-28.25 20.56a1.911 1.911 0 0 1 1.766 1.9v9.943c0 1.056-.86 1.915-1.915 1.915H27.387a1.917 1.917 0 0 1-1.915-1.915v-9.942c0-1 .772-1.813 1.75-1.899l-.015-2.807a6.512 6.512 0 0 1 6.48-6.528c3.597 0 6.515 2.906 6.528 6.48zm-10.1-6.385a5.014 5.014 0 0 0-1.466 3.574l.015 2.797h10.094l-.015-2.833a5.057 5.057 0 0 0-5.046-5.03 5.026 5.026 0 0 0-3.583 1.492zm10.409 8.286a.459.459 0 0 0-.458-.458H27.387a.459.459 0 0 0-.458.458v9.942c0 .253.206.458.458.458h12.694a.459.459 0 0 0 .458-.458zM34.258 49c-.062-.072-19.67-10.332-18.003-35.898.586.163 1.849.806 3.97.806 5.02 0 10.368-3.685 13.877-7.299 3.53 3.582 8.866 7.198 13.855 7.198 2.168 0 3.457-.67 4.04-.836 1.916 26.403-17.537 35.787-17.74 36.03zm16.4-34.063c-.869.217-1.774.327-2.7.327-6.295 0-12.098-4.949-13.848-6.588-1.746 1.66-7.558 6.689-13.885 6.689a11.11 11.11 0 0 1-2.616-.307c-.05 4.268.711 22.53 16.642 32.242 15.878-9.84 16.492-28.098 16.407-32.363zm-.297 17.494a41.48 41.48 0 0 0 1.065-2.929l1.387.447a43.09 43.09 0 0 1-1.103 3.032zm-8.798 12.935a35.752 35.752 0 0 0 7.071-9.252l1.285.687a37.199 37.199 0 0 1-7.36 9.628zM29.067 9.049c-2.21 1.553-5.536 3.403-8.842 3.403v-1.457c2.924 0 5.967-1.706 8.003-3.138zm3.461-2.904c-.3.314-.959.964-1.998 1.802l-.915-1.135a20.845 20.845 0 0 0 1.862-1.675z"/></g></g></g></svg>