<svg xmlns="http://www.w3.org/2000/svg" width="59" height="59" viewBox="0 0 59 59"><g><g><g><path fill="#cddff5" d="M44.694 56.912H1.23V15.227h13.904V1.24h29.56v23.834c-3.996-2.389-9.213-1.789-12.572 1.591-4.02 4.045-4.02 10.64 0 14.702 2.664 2.68 6.498 3.603 9.967 2.68l2.572 2.588.033-.033v10.31z"/></g><g><path fill="#4a90e2" d="M48.528 2.52h1.23v2.731h-1.23zm0 6.295h1.23v14.293h-1.23zm2.315 35.875l1.091 1.07-.858.886-1.091-1.07zm2.053 2.01l3.396 3.332-.858.885-3.396-3.331zM32.329 34.013c0-4.016 3.247-7.283 7.239-7.282v1.236c-3.314 0-6.01 2.712-6.01 6.046zM7.46 21.547h7.13v1.237h-7.13zm11.44 0h19.567v1.237H18.9zM7.46 28.454h20.799v1.237h-20.8zm0 6.907h5.914v1.237H7.459zm9.966 0h10.233v1.237H17.425zM7.46 42.268h21.519v1.237H7.458zm0 6.907h5.25v1.237H7.46zm9.008 0h22v1.237h-22zm29.455 8.97H0V14.347L14.26 0h31.662v25.94c.278.225.55.463.807.722a10.416 10.416 0 0 1 2.658 10.079l2.552 2.567-1.332 1.34 7.437 7.481a3.295 3.295 0 0 1 0 4.642 3.247 3.247 0 0 1-4.615 0l-7.436-7.48-.07.07zm3.816-16.623l-2.876 2.894 7.436 7.481c.768.772 2.108.773 2.876 0 .795-.8.795-2.094 0-2.894zM45.86 27.536c-3.578-3.604-9.361-3.53-12.87 0-3.541 3.564-3.54 9.375.001 12.954 3.207 3.226 8.342 3.575 11.944.81.002 0 0 0 .003-.002 4.355-3.306 4.846-9.814.922-13.762zM2.096 13.987h11.808V2.107zm42.597 42.921v-10.31l-.033.033-2.572-2.588c-3.468.923-7.303 0-9.967-2.68-4.02-4.062-4.02-10.657 0-14.701 3.36-3.38 8.576-3.98 12.572-1.592V1.237h-29.56v13.987H1.229v41.684zm.431-12.492l-.001-.001 4.614-4.642h.001l.463-.465-1.254-1.262a10.284 10.284 0 0 1-3.267 4.237v.001l-.002.002c-.717.549-1.488.983-2.29 1.317l1.272 1.28zm8.948-1.838l-1.204-1.21.87-.875 1.203 1.21zm1.526-.241l2.53 2.544-.87.875-2.529-2.545z"/></g></g></g></svg>