<svg xmlns="http://www.w3.org/2000/svg" width="64" height="64" viewBox="0 0 64 64"><g><g><g><path fill="#4a90e2" d="M51.15 38.094c7.054 0 12.793 5.738 12.793 12.792 0 7.054-5.738 12.792-12.792 12.792-7.054 0-12.792-5.738-12.792-12.792 0-.571.05-1.13.124-1.681-.681.392-1.382.744-2.098 1.054v13.419H19.34v-13.7a20.698 20.698 0 0 1-2.293-1.267v14.967H0V39.416h9.152A20.394 20.394 0 0 1 7.48 31.26c0-7.3 3.804-13.725 9.53-17.41l-2.117-3.666-1.744 1.007-.666-1.154 4.641-2.68.666 1.154-1.743 1.007 2.105 3.646a20.535 20.535 0 0 1 7.2-2.4v-6.06H22.47V0h11.413v4.704H31v6.06a20.535 20.535 0 0 1 7.196 2.4L40.3 9.518 38.557 8.51l.666-1.154 4.641 2.68-.666 1.154-1.744-1.007-2.116 3.667c5.725 3.685 9.528 10.11 9.528 17.41 0 2.552-.461 5.023-1.361 7.37a12.74 12.74 0 0 1 3.646-.537zM32.55 3.372v-2.04H23.8v2.04h8.749zm-5.866 1.332v5.922c.492-.035.988-.06 1.489-.06.503 0 1 .025 1.494.06V4.705zm-10.97 54.388H1.332v3.254h14.382zm0-4.586H1.332v3.254h14.382zm0-4.586H1.332v3.254h14.382zm0-4.586H1.332v3.254h14.382zm0-4.586H1.332v3.254h14.382zm19.34 18.344H20.671v3.254h14.381zm0-4.586H20.671v3.254h14.381zm0-4.586H20.671v3.254h14.381zm1.331-1.115c.851-.4 1.675-.868 2.466-1.392a12.704 12.704 0 0 1 1.378-3.152L38.6 42.633l.942-.942 1.45 1.451a12.85 12.85 0 0 1 4.794-3.853 19.113 19.113 0 0 0 1.73-7.36h-3.931v-1.331h3.931A19.284 19.284 0 0 0 42.32 18.06l-2.776 2.776-.942-.942 2.776-2.776a19.285 19.285 0 0 0-12.538-5.202v3.935h-1.332v-3.935a19.285 19.285 0 0 0-12.538 5.202l2.777 2.776-.942.942-2.776-2.777a19.284 19.284 0 0 0-5.2 12.539h3.932v1.332H8.83c.087 2.626.687 5.139 1.788 7.486h6.428v7.689a19.37 19.37 0 0 0 2.475 1.483h7.986v-1.912h1.332v1.912h7.546zm26.226 2.081c0-6.319-5.141-11.46-11.46-11.46-6.32 0-11.46 5.141-11.46 11.46 0 6.319 5.14 11.46 11.46 11.46 6.319 0 11.46-5.141 11.46-11.46zm-9.285-13.882a14.145 14.145 0 0 0-2.175-.168v-1.332c.797 0 1.598.062 2.38.184zm7.755 3.952a14.08 14.08 0 0 0-6.167-3.608l.358-1.283a15.414 15.414 0 0 1 6.75 3.95zm-29.8-7.327l3.455 3.717-.975.907-3.453-3.715a3.887 3.887 0 0 1-2.135.637 3.916 3.916 0 0 1-3.912-3.911 3.915 3.915 0 0 1 3.248-3.851v-7.048h1.332v7.048a3.915 3.915 0 0 1 3.244 3.85c0 .89-.302 1.708-.803 2.366zm-.528-2.365a2.582 2.582 0 0 0-2.58-2.58 2.582 2.582 0 0 0-2.58 2.58 2.582 2.582 0 0 0 2.58 2.579 2.582 2.582 0 0 0 2.58-2.58zM4.888 31.26c0-1.343.116-2.69.344-4.002l1.313.229a22.07 22.07 0 0 0-.325 3.773zm7.23-14.956a22.093 22.093 0 0 0-4.9 8.405l-1.27-.398a23.431 23.431 0 0 1 5.196-8.916zm31.546-2.414a23.686 23.686 0 0 1 1.677 1.656l-.982.9c-.5-.545-1.032-1.07-1.582-1.562zm2.113 4.27l1.068-.797a23.075 23.075 0 0 1 4.612 13.897h-1.333c0-4.758-1.503-9.288-4.347-13.1z"/></g><g opacity=".27"><path fill="#4a90e2" d="M36.387 48.592h-7.546v-1.911H27.51v1.911h-7.986a19.37 19.37 0 0 1-2.475-1.483V39.42h-6.427a18.978 18.978 0 0 1-1.79-7.486h3.931v-1.332H8.83a19.284 19.284 0 0 1 5.2-12.538l2.776 2.776.942-.941-2.777-2.777A19.285 19.285 0 0 1 27.51 11.92v3.935h1.332V11.92a19.285 19.285 0 0 1 12.538 5.202L38.603 19.9l.942.941 2.776-2.776a19.284 19.284 0 0 1 5.198 12.538h-3.931v1.332h3.93a19.113 19.113 0 0 1-1.73 7.36 12.85 12.85 0 0 0-4.793 3.852l-1.45-1.45-.942.941 1.628 1.629c-.594.974-1.061 2.03-1.378 3.152a19.33 19.33 0 0 1-2.466 1.392z"/></g></g></g></svg>