<svg xmlns="http://www.w3.org/2000/svg" width="58" height="60" viewBox="0 0 58 60"><g><g><g><path fill="#ccdef5" d="M9 1h44v59H9z"/></g><g><path fill="#4a90e2" d="M56.467 9.181h1.259v4.932h-1.26zm0 7.853h1.259v31.83h-1.26zM38.029 6.722h3.079v1.249h-3.079zm4.182 0h4.676v1.249H42.21zm.415 15.873l4.882 9.935v.145c0 3.231-2.627 5.86-5.855 5.86a5.867 5.867 0 0 1-5.86-5.86v-.145l4.887-9.934a1.859 1.859 0 0 1-.891-1.583c0-.063.012-.122.018-.183l-7.937-3.756.84 2.318V44.56h3.696a2.257 2.257 0 0 1 2.255 2.254v1.427h3.07v4.47H19.478v-4.47h3.07v-1.427a2.257 2.257 0 0 1 2.255-2.254H28.5V19.372l1.04-2.392-8.139 3.85c.006.061.019.12.019.183 0 .668-.357 1.25-.887 1.58l4.883 9.937v.145c0 3.231-2.626 5.86-5.854 5.86a5.867 5.867 0 0 1-5.86-5.86v-.145l4.886-9.932a1.858 1.858 0 0 1-.856-1.966l-2.405-1.463.649-1.068 2.414 1.47a1.845 1.845 0 0 1 2.484.126l9.106-4.307v-2.473c-.102-.026-.205-.05-.304-.09A2.482 2.482 0 0 1 28.3 9.596c.829-2.057 3.727-2.07 4.59-.045.259.61.266 1.285.018 1.9a2.467 2.467 0 0 1-1.679 1.472v2.38l.038.105 9.067 4.29a1.846 1.846 0 0 1 2.484-.126l2.415-1.47.649 1.067-2.405 1.463a1.858 1.858 0 0 1-.851 1.963zM18.94 21.013c0 .34.277.615.62.615.341 0 .619-.276.619-.615a.618.618 0 0 0-.62-.614.618.618 0 0 0-.62.614zm5.191 12.285h-9.138a4.62 4.62 0 0 0 4.572 3.988c2.33 0 4.26-1.739 4.566-3.988zm-4.566-9.85L15.33 32.05h8.467zm10.577-11.78a1.256 1.256 0 0 0 1.611-.684 1.22 1.22 0 0 0-.009-.944c-.433-1.014-1.878-.995-2.29.023a1.231 1.231 0 0 0 .688 1.606zm-.398 7.964v24.926h1.721V19.612l-.778-2.138-.943 2.158zM20.725 49.49v1.972h19.759V49.49zm4.075-3.682c-.555 0-1.007.452-1.007 1.006v1.427h13.622v-1.427c0-.554-.451-1.006-1.006-1.006zm16.23-24.794c0 .34.277.615.62.615.341 0 .62-.276.62-.615a.618.618 0 0 0-.62-.614.618.618 0 0 0-.62.614zm5.186 12.285h-9.138a4.62 4.62 0 0 0 4.572 3.988 4.616 4.616 0 0 0 4.566-3.988zm-4.566-9.85l-4.236 8.602h8.467zM6.266 47.078h1.258v5.418H6.266zM5.236 0H54.27v59.946H5.236A5.222 5.222 0 0 1 .02 54.731V5.215A5.221 5.221 0 0 1 5.236 0zm5.463 58.697H53.02V1.25H10.699zM6.272 41.402V1.25H5.24a3.973 3.973 0 0 0-3.971 3.966v49.516a3.973 3.973 0 0 0 3.97 3.966H9.46V1.25H7.522v40.153z"/></g></g></g></svg>