<svg xmlns="http://www.w3.org/2000/svg" width="66" height="70" viewBox="0 0 66 70"><g><g><g><path fill="#cddff5" d="M52.671 54.654c0 7.32-5.956 13.276-13.277 13.276a13.333 13.333 0 0 1-12.006-7.609l-7.202-15.257-.04-.074c-.378-.602-1.142-2.115-.101-3.156a2.148 2.148 0 0 1 3.033 0l8.164 8.164V31.283c0-1.182.961-2.143 2.143-2.143 1.181 0 2.142.961 2.142 2.143v10.946h-.01v8.235h1.429v-8.13h.01c0-1.182.962-2.143 2.143-2.143 1.182 0 2.143.961 2.143 2.143v7.678h1.428v-5.487h.001c0-1.182.961-2.143 2.143-2.143 1.181 0 2.143.961 2.143 2.143v5.939h1.429v-4.402c0-1.181.96-2.143 2.142-2.143s2.143.962 2.143 2.143v8.592z"/></g><g><path fill="#4a90e2" d="M.11 9.322h6.173v1.43H.11zm59.344-5.438h6.173v1.43h-6.173zM5.627 62.097h8.43v1.43h-8.43zm7.542-6.124h1.429v1.43h-1.43zm-2.858 0h1.429v1.43h-1.43zm8.574 0h1.429v1.43h-1.43zm-2.858 0h1.429v1.43h-1.43zm43.853 4.532h1.429v1.429h-1.43zm-2.858 0h1.429v1.429h-1.43zm5.716 0h1.429v1.429h-1.43zm-8.574 0h1.429v1.429h-1.43zm0 3.445h11.463v1.429H54.164zM28.84 5.328h10.337v1.43H28.841zm-2.314 3.128h3.503v1.429h-3.503zm5.257 0h9.707v1.429h-9.707zm27.931 9.56a27.545 27.545 0 0 0-2.731-4.842l1.167-.824a28.97 28.97 0 0 1 2.874 5.094zM27.488 2.401l-.365-1.382A28.898 28.898 0 0 1 32.901.11l.079 1.427a27.453 27.453 0 0 0-5.492.864zm34.515 26.437a27.56 27.56 0 0 0-.59-5.528l1.398-.295a28.98 28.98 0 0 1 .621 5.816zM22.286 4.36a27.672 27.672 0 0 0-4.702 2.968l-.88-1.126a29.09 29.09 0 0 1 4.945-3.121zm31.05 4.615a27.758 27.758 0 0 0-4.412-3.386l.752-1.215a29.184 29.184 0 0 1 4.64 3.561zM5.706 26.177c.188-1.945.576-3.874 1.154-5.735l1.365.424a27.375 27.375 0 0 0-1.098 5.45zM59.84 39.69a27.29 27.29 0 0 0 1.636-5.314l1.402.279a28.764 28.764 0 0 1-1.722 5.593zm-47.224 8.214a29.174 29.174 0 0 1-3.363-4.787l1.246-.7a27.697 27.697 0 0 0 3.198 4.552zm45.724-2.528a29.218 29.218 0 0 1-1.863 2.421l-1.085-.93a27.624 27.624 0 0 0 1.77-2.302zM10.404 15.75l-1.251-.69a29.126 29.126 0 0 1 3.329-4.81l1.087.927a27.694 27.694 0 0 0-3.165 4.573zM7.147 31.877a27.39 27.39 0 0 0 1.136 5.441l-1.362.434a28.845 28.845 0 0 1-1.196-5.727zm36.776-28.72a27.334 27.334 0 0 0-5.388-1.367l.208-1.413c1.932.285 3.84.77 5.671 1.44zM18.2 26.398h1.429v1.554h-1.43zm0-8.36h1.429v6.835h-1.43zm29.029 0h1.429v1.553h-1.43zm0 3.079h1.429v6.835h-1.43zM32.322 62.748a10.775 10.775 0 0 0 7.073 2.663v1.43c-2.934 0-5.78-1.071-8.011-3.016zm-2.65-3.5c.322.683.72 1.335 1.184 1.94l-1.134.87a12.097 12.097 0 0 1-1.343-2.2zm24.43-13.181v8.591c0 8.109-6.598 14.706-14.707 14.706-5.661 0-10.881-3.308-13.298-8.428l-7.185-15.22c-1.139-1.846-1.094-3.67.123-4.888a3.577 3.577 0 0 1 5.052-.001l5.727 5.726V35.14H15.363V11.734h36.035v23.399l-.714.007H36.957v4.342a3.553 3.553 0 0 1 2.143-.715 3.578 3.578 0 0 1 3.518 2.948 3.554 3.554 0 0 1 2.197-.757 3.578 3.578 0 0 1 3.378 2.41 3.556 3.556 0 0 1 2.336-.873 3.576 3.576 0 0 1 3.572 3.572zm-37.31-32.121v18.98l11.77-9.488zm16.587 11.54l15.282-12.324H18.097zm4.817-2.049l11.773 9.49V13.943zm-20.1 10.274h11.718v-2.424a3.576 3.576 0 0 1 3.572-3.571 3.576 3.576 0 0 1 3.571 3.571v2.424h11.707l-11.606-9.356-3.679 2.967-3.678-2.966-11.606 9.355zm34.576 20.947v-8.591a2.145 2.145 0 0 0-2.143-2.143 2.145 2.145 0 0 0-2.143 2.143v4.402h-1.428V44.53a2.145 2.145 0 0 0-2.143-2.143 2.145 2.145 0 0 0-2.143 2.143v5.486h-1.43v-6h.001v-1.678a2.145 2.145 0 0 0-2.143-2.142 2.145 2.145 0 0 0-2.143 2.142h-.01v8.13h-1.43v-8.235h.011V31.287a2.145 2.145 0 0 0-2.142-2.142 2.145 2.145 0 0 0-2.143 2.142v18.715l-8.164-8.163a2.148 2.148 0 0 0-3.033 0c-1.04 1.04-.277 2.553.1 3.155l.04.074 7.203 15.258a13.333 13.333 0 0 0 12.006 7.609c7.321 0 13.277-5.956 13.277-13.277z"/></g></g></g></svg>