<svg xmlns="http://www.w3.org/2000/svg" width="15.556" height="15.556" viewBox="0 0 15.556 15.556">
  <g id="Path" transform="translate(7.778) rotate(-45)" fill="none" stroke-miterlimit="10">
    <path d="M-10,9a1,1,0,0,0-1,1,1,1,0,0,0,1,1H0V1A1,1,0,0,0-1,0,1,1,0,0,0-2,1V9Z" stroke="none"/>
    <path d="M 8.881784197001252e-16 11 L -10.00002002716064 11 C -10.55226993560791 11 -11 10.55204963684082 -11 10.00002002716064 C -11 9.447549819946289 -10.55226993560791 9.000040054321289 -10.00002002716064 9.000040054321289 L -1.999959945678711 9.000040054321289 L -1.999959945678711 0.9999799728393555 C -1.999959945678711 0.4475100040435791 -1.552230000495911 -8.881784197001252e-16 -0.9999799728393555 -8.881784197001252e-16 C -0.4477300047874451 -8.881784197001252e-16 8.881784197001252e-16 0.4475100040435791 8.881784197001252e-16 0.9999799728393555 L 8.881784197001252e-16 11 Z" stroke="none" fill="#fff"/>
  </g>
</svg>
