<svg xmlns="http://www.w3.org/2000/svg" width="13" height="13" viewBox="0 0 13 13">
  <path id="s" d="M.882,13A.883.883,0,0,1,0,12.118V1.695A.883.883,0,0,1,.882.813H2.844V.406a.406.406,0,1,1,.812,0V.813H6.094V.406a.406.406,0,0,1,.813,0V.813H9.344V.406a.406.406,0,0,1,.813,0V.813h1.961A.883.883,0,0,1,13,1.695V12.118a.883.883,0,0,1-.882.882ZM.813,1.695V12.118a.07.07,0,0,0,.069.07H12.118a.07.07,0,0,0,.07-.07V1.695a.07.07,0,0,0-.07-.069H10.156v.406a.406.406,0,0,1-.813,0V1.625H6.907v.406a.406.406,0,0,1-.813,0V1.625H3.656v.406a.406.406,0,0,1-.812,0V1.625H.882A.07.07,0,0,0,.813,1.695Zm9.01,8.417a.367.367,0,1,1,0-.723h1.3a.367.367,0,1,1,0,.723Zm-3.612,0a.367.367,0,1,1,0-.723h1.3a.367.367,0,1,1,0,.723Zm-4.334,0a.367.367,0,1,1,0-.723h1.3a.367.367,0,1,1,0,.723ZM9.823,8.667a.367.367,0,1,1,0-.723h1.3a.367.367,0,1,1,0,.723Zm-3.612,0a.367.367,0,1,1,0-.723h1.3a.367.367,0,1,1,0,.723Zm-4.334,0a.367.367,0,1,1,0-.723h1.3a.367.367,0,1,1,0,.723ZM9.823,7.223a.4.4,0,0,1-.434-.362A.4.4,0,0,1,9.823,6.5h1.3a.4.4,0,0,1,.434.361.4.4,0,0,1-.434.362Zm-3.612,0a.4.4,0,0,1-.433-.362A.4.4,0,0,1,6.211,6.5h1.3a.4.4,0,0,1,.433.361.4.4,0,0,1-.433.362Zm-4.334,0a.4.4,0,0,1-.433-.362A.4.4,0,0,1,1.877,6.5h1.3a.4.4,0,0,1,.433.361.4.4,0,0,1-.433.362Zm.7-2.889a.39.39,0,0,1-.413-.361.39.39,0,0,1,.413-.362H10.42a.39.39,0,0,1,.413.362.39.39,0,0,1-.413.361Z" fill="#fff"/>
</svg>
