<svg xmlns="http://www.w3.org/2000/svg" width="18" height="18" viewBox="0 0 18 18">
  <path id="Combined_Shape" data-name="Combined Shape" d="M1.221,18A1.223,1.223,0,0,1,0,16.779V2.346A1.223,1.223,0,0,1,1.221,1.125H3.938V.563a.563.563,0,0,1,1.125,0v.563H8.438V.563a.563.563,0,0,1,1.125,0v.563h3.375V.563a.563.563,0,0,1,1.125,0v.563h2.716A1.223,1.223,0,0,1,18,2.346V16.779A1.223,1.223,0,0,1,16.779,18Zm-.1-15.654V16.779a.1.1,0,0,0,.1.1H16.779a.1.1,0,0,0,.1-.1V2.346a.1.1,0,0,0-.1-.1H14.063v.563a.563.563,0,0,1-1.125,0V2.25H9.563v.563a.563.563,0,0,1-1.125,0V2.25H5.063v.563a.563.563,0,0,1-1.125,0V2.25H1.221A.1.1,0,0,0,1.125,2.346ZM13.218,14.063a.563.563,0,0,1,0-1.125h1.688a.563.563,0,1,1,0,1.125Zm-5.063,0a.563.563,0,0,1,0-1.125H9.843a.562.562,0,0,1,0,1.125Zm-5.062,0a.563.563,0,0,1,0-1.125H4.781a.563.563,0,1,1,0,1.125Zm10.125-2.25a.563.563,0,0,1,0-1.125h1.688a.563.563,0,1,1,0,1.125Zm-5.063,0a.563.563,0,0,1,0-1.125H9.843a.562.562,0,0,1,0,1.125Zm-5.062,0a.563.563,0,0,1,0-1.125H4.781a.563.563,0,1,1,0,1.125Zm10.125-2.25a.563.563,0,0,1,0-1.125h1.688a.563.563,0,1,1,0,1.125Zm-5.063,0a.563.563,0,0,1,0-1.125H9.843a.562.562,0,0,1,0,1.125Zm-5.062,0a.563.563,0,0,1,0-1.125H4.781a.563.563,0,1,1,0,1.125Zm.563-3.657a.563.563,0,1,1,0-1.125H14.343a.562.562,0,0,1,0,1.125Z" fill="#85878a"/>
</svg>
