<svg xmlns="http://www.w3.org/2000/svg" width="21.951" height="22.528" viewBox="0 0 21.951 22.528">
  <g id="construction" transform="translate(-0.024)">
    <path id="Combined_Shape" data-name="Combined Shape" d="M4.687,20.439l-1.03-6.183,1.389-.231,1.031,6.182a1.092,1.092,0,0,0,2.112.166l.455-1.364h6.24a2.807,2.807,0,1,1,0,1.408H9.66l-.135.4a2.5,2.5,0,0,1-4.838-.379Zm11.5-.727A1.408,1.408,0,1,0,17.6,18.3,1.409,1.409,0,0,0,16.192,19.712ZM7.14,17.6,5.515,7.04H21.951l-1.545,9.268-1.388-.232,1.271-7.627H7.157l1.192,7.744H14.08V17.6ZM3.2,11.481l1.389-.232.232,1.389-1.39.232ZM2.731,8.7l1.39-.23.23,1.389-1.389.231ZM1.516,1.408H0V0H2.708l1.18,7.081L2.5,7.313Z" transform="translate(0.024 0)" fill="#fff"/>
  </g>
</svg>
