<svg id="key-to-success" xmlns="http://www.w3.org/2000/svg" width="422.004" height="420" viewBox="0 0 422.004 420">
  <g id="Combined_Shape" data-name="Combined Shape" transform="translate(0 0)" fill="none" stroke-miterlimit="10">
    <path d="M137.6,420h-.006a82.789,82.789,0,0,1-38.506-9.5,82.024,82.024,0,0,1-40.037-48.03,82.717,82.717,0,0,1-3.67-21.629,99.885,99.885,0,0,1-20.893-20,128.974,128.974,0,0,1-16.347-27.035,130.3,130.3,0,0,1-7.8-22.746,116.872,116.872,0,0,1-3.38-24.345,79.3,79.3,0,0,1,2.557-23.249,50.226,50.226,0,0,1,10.011-19.46A57.456,57.456,0,0,1,0,160.957v-4.391H43.585v4.391A13.871,13.871,0,1,0,57.458,147.1,57.367,57.367,0,0,1,35.665,36.631V0H79.25V36.633a57.428,57.428,0,0,1,35.664,53.077V94.1H71.328V89.709a13.871,13.871,0,1,0-13.87,13.856A57.366,57.366,0,0,1,88.169,209.421a112.744,112.744,0,0,1,17.78,20.841,134.252,134.252,0,0,1,13.91,27.161A82.292,82.292,0,0,1,193.871,277.8l109.4-71.887-24.428-37.084L307.187,150.2l24.429,37.085,17.418-11.446-39.94-60.636,28.345-18.629,39.941,60.638,14.9-9.793a19.167,19.167,0,1,1,21.087,32.013L214.9,309.855A82.208,82.208,0,0,1,137.6,420ZM76.1,378.123a73.555,73.555,0,1,0-12.02-42.113,52.236,52.236,0,0,0,14.459,6.246,24.2,24.2,0,1,1,1.579,9.362A54.951,54.951,0,0,1,64.595,346.4,72.44,72.44,0,0,0,76.1,378.123Zm26.221-29.1a36.33,36.33,0,0,1-11.965,3.045,15.258,15.258,0,0,0,12.353,6.3,15.458,15.458,0,0,0,15.072-12.285,15.26,15.26,0,0,0-.87-9.008A37.249,37.249,0,0,1,102.322,349.022ZM87.6,339.863a15.409,15.409,0,0,0-.278,3.494,28,28,0,0,0,11.39-2.341,29.022,29.022,0,0,0,12.269-10.9A15.255,15.255,0,0,0,87.6,339.863ZM15.793,247.7A119.7,119.7,0,0,0,26.154,290.2c7.368,16.316,17.568,30.1,29.495,39.859A82.857,82.857,0,0,1,66.7,295.9a81.575,81.575,0,0,1,25.587-26.849,82.677,82.677,0,0,1,19.088-9.233c-7.116-18.521-18.332-34.853-31.581-45.986-.086.037-.17.077-.252.116s-.191.091-.291.132v37.047H35.665V214.086a57.6,57.6,0,0,1-9.054-4.743C18.847,218.115,15.106,231.38,15.793,247.7Zm381.323-92.947c-22.487,14.837-82.888,54.506-136.18,89.505-22.548,14.808-43.845,28.8-60.876,39.985a82.947,82.947,0,0,1,6.256,8.31,81.065,81.065,0,0,1,5.1,9.071L408.534,172.1a10.731,10.731,0,0,0,4.484-6.686,10.022,10.022,0,0,0-1.515-7.687,10.407,10.407,0,0,0-14.387-2.967ZM36.024,202.235a16.486,16.486,0,0,0-1.593.862l-.005,0c-.191.112-.389.229-.584.34a55.242,55.242,0,0,0,9.606,4.149c.432.146.773.261,1.01.352v34.407h26V207.944l2.942-1.029a48.621,48.621,0,0,0-15.943-94.568A22.619,22.619,0,1,1,79.692,85.319h26.231C103.307,56.492,80.587,46.09,70.94,42.955a4.642,4.642,0,0,1-.481-.167V8.781h-26V42.791a4.823,4.823,0,0,1-.5.186c-8.249,2.91-35.167,14.88-35.167,46.733a48.693,48.693,0,0,0,48.666,48.609,22.62,22.62,0,1,1-22.237,27.029H8.992a48.4,48.4,0,0,0,17.036,32.706,35.5,35.5,0,0,1,6.382-3.823,36.557,36.557,0,0,1,15.116-3.187,43.066,43.066,0,0,1,6.415.494l-1.319,8.682a34.289,34.289,0,0,0-5.075-.39A27.83,27.83,0,0,0,36.024,202.235Zm255-30.9,19.594,29.749,13.655-8.973-19.593-29.748Zm30.252-53.625,35.106,53.3,13.655-8.972-35.105-53.3ZM206,396.383A88.52,88.52,0,0,0,215.514,383L223,387.3A96.838,96.838,0,0,1,212.554,402Zm-39-14.688a53.484,53.484,0,0,0,23.513-53.3l8.681-1.4a62.226,62.226,0,0,1-27.36,62Zm56-13.588a89.955,89.955,0,0,0,3.377-11.867q.447-2.115.792-4.239L236,353.362q-.375,2.319-.866,4.637a98.543,98.543,0,0,1-3.7,13Zm3-49.3L234.763,317A92.42,92.42,0,0,1,237,334.769l-8.96.23A84.312,84.312,0,0,0,226,318.811Zm20.03-16.467,22.056-14.512,4.836,7.333-22.056,14.511ZM279.861,280.1,353.1,231.917l4.835,7.332L284.7,287.43Zm-62.272-40.639L253.976,214.3l5,7.218-36.387,25.159ZM261.374,209l13.442-9.294,5,7.219-13.441,9.293ZM110,200.483c.837-1.139,1.645-2.3,2.415-3.483L120,202.08q-1.3,2-2.716,3.92Zm7-10.219A63.983,63.983,0,0,0,120.062,183L128,185.783A72.892,72.892,0,0,1,124.536,194Zm5-15.13A66.339,66.339,0,0,0,123.242,167l8.758.784A75.339,75.339,0,0,1,130.59,177Zm1-24.709L132.079,149A79.1,79.1,0,0,1,133,158.7l-9.186.305A70.343,70.343,0,0,0,123,150.426ZM119,134.4,126.923,131A73.544,73.544,0,0,1,130,139.614L121.715,142A65.235,65.235,0,0,0,119,134.4ZM257,118v-9h12v9Zm-35,0v-9h18v9Zm-35,0v-9h18v9ZM394,54V45h12v9Zm-36,0V45h18v9Zm-35,0V45h18v9ZM224,32V23h12v9Zm-35,0V23h18v9Zm-35,0V23h18v9Z" stroke="none"/>
    <path d="M 137.6009826660156 419.0003051757813 C 153.4779815673828 419.0003051757813 168.9133148193359 414.3733215332031 182.2380981445313 405.6196594238281 C 190.0640411376953 400.4761657714844 196.8636474609375 394.107666015625 202.4480895996094 386.6911010742188 C 207.8431549072266 379.5249328613281 211.9900360107422 371.5415954589844 214.7734222412109 362.9628601074219 C 217.5306549072266 354.4662170410156 218.872314453125 345.6321105957031 218.7611541748047 336.7060546875 C 218.6482543945313 327.6252136230469 217.0319213867188 318.7054443359375 213.9569854736328 310.1944885253906 L 213.6888732910156 309.4523315429688 L 214.3483123779297 309.0189819335938 L 412.8198852539063 178.5991516113281 C 416.869384765625 175.9375915527344 419.6402587890625 171.8527679443359 420.6221008300781 167.0970458984375 C 421.6038208007813 162.3410339355469 420.67724609375 157.4934844970703 418.0132751464844 153.4475402832031 C 414.6365356445313 148.3219909667969 408.948486328125 145.2619323730469 402.7976989746094 145.2619323730469 C 399.2551574707031 145.2619323730469 395.8089904785156 146.2976531982422 392.8312683105469 148.2575378417969 L 377.9291076660156 158.0504302978516 L 377.0943298339844 158.5989837646484 L 376.5448303222656 157.7647705078125 L 337.1532287597656 97.96063995361328 L 310.4790649414063 115.491325378418 L 349.86865234375 175.2910461425781 L 350.4193115234375 176.1270446777344 L 349.5827026367188 176.6768188476563 L 332.1649780273438 188.123046875 L 331.3302001953125 188.6716003417969 L 330.7807006835938 187.8374328613281 L 306.9014892578125 151.5862579345703 L 280.2273864746094 169.1168518066406 L 304.1045532226563 205.3644866943359 L 304.6552734375 206.2005462646484 L 303.818603515625 206.7503204345703 L 194.4199829101563 278.6378173828125 L 193.760986328125 279.0708618164063 L 193.1862030029297 278.5309753417969 C 185.5899810791016 271.3963317871094 176.8279876708984 265.8623046875 167.1434783935547 262.082763671875 C 157.6691436767578 258.3849182128906 147.7002563476563 256.5099792480469 137.5137023925781 256.5099792480469 C 131.6540985107422 256.5099792480469 125.7864837646484 257.1459350585938 120.0737609863281 258.400146484375 L 119.2293701171875 258.5855407714844 L 118.9238739013672 257.7768249511719 C 115.2872085571289 248.1505432128906 110.6421508789063 239.0803680419922 105.1176528930664 230.8182067871094 C 99.85626220703125 222.9506530761719 93.92759704589844 216.0007019042969 87.49626159667969 210.1613159179688 L 86.52536773681641 209.2798156738281 L 87.63242340087891 208.5768127441406 C 95.59109497070313 203.5228729248047 102.2221527099609 196.4997711181641 106.808708190918 188.2667694091797 C 109.1040344238281 184.1465454101563 110.8745346069336 179.7533721923828 112.0712051391602 175.2092590332031 C 113.2944793701172 170.5654907226563 113.9147033691406 165.7699890136719 113.9147033691406 160.9559783935547 C 113.9147033691406 129.8622589111328 88.5882568359375 104.5657043457031 57.45781707763672 104.5657043457031 C 49.25703811645508 104.5657043457031 42.585205078125 97.90115356445313 42.585205078125 89.70932006835938 C 42.585205078125 81.51892852783203 49.25703811645508 74.85559844970703 57.45781707763672 74.85559844970703 C 65.65709686279297 74.85559844970703 72.32770538330078 81.51892852783203 72.32770538330078 89.70932006835938 L 72.32770538330078 93.10043334960938 L 113.9147033691406 93.10043334960938 L 113.9147033691406 89.70932006835938 C 113.9147033691406 78.4775390625 110.5898742675781 67.60615539550781 104.2995910644531 58.270263671875 C 101.220817565918 53.69987487792969 97.50037384033203 49.61281967163086 93.24164581298828 46.12270736694336 C 88.90264892578125 42.56737518310547 84.06787109375 39.68581771850586 78.87148284912109 37.55815124511719 L 78.25042724609375 37.30381774902344 L 78.25042724609375 36.63270950317383 L 78.25042724609375 0.999985933303833 L 36.66520309448242 0.999985933303833 L 36.66520309448242 36.63093185424805 L 36.66520309448242 37.30259704589844 L 36.04348373413086 37.5566520690918 C 30.8449821472168 39.68082046508789 26.01003837585449 42.55892944335938 21.67281532287598 46.11126327514648 C 17.41492652893066 49.59720993041992 13.69453811645508 53.68265151977539 10.61503791809082 58.25415420532227 C 4.32481575012207 67.5908203125 0.9999826550483704 78.46815490722656 0.9999826550483704 89.710205078125 C 0.9999826550483704 120.8039321899414 26.32687187194824 146.1004791259766 57.45781707763672 146.1004791259766 C 65.65709686279297 146.1004791259766 72.32770538330078 152.7650451660156 72.32770538330078 160.9569244384766 C 72.32770538330078 169.1472625732422 65.65709686279297 175.8105926513672 57.45781707763672 175.8105926513672 C 49.25703811645508 175.8105926513672 42.585205078125 169.1472625732422 42.585205078125 160.9569244384766 L 42.585205078125 157.5658264160156 L 0.9999826550483704 157.5658264160156 L 0.9999826550483704 160.9569244384766 C 0.9999826550483704 177.0890350341797 7.993649482727051 192.5066528320313 20.18770408630371 203.2564849853516 L 20.92637062072754 203.9076538085938 L 20.28664970397949 204.6562042236328 C 15.8420934677124 209.8575897216797 12.54248237609863 216.2759857177734 10.47953796386719 223.7328796386719 C 8.578038215637207 230.6092071533203 7.72987174987793 238.3323822021484 7.958426952362061 246.6878204345703 C 8.170649528503418 254.4397125244141 9.298260688781738 262.5601501464844 11.30992698669434 270.8235473632813 C 13.21526050567627 278.6460266113281 15.81970500946045 286.2399291992188 19.05081558227539 293.3943176269531 C 23.48320579528809 303.2076416015625 28.94009399414063 312.2330932617188 35.26998138427734 320.2199401855469 C 41.57237243652344 328.1732788085938 48.5308723449707 334.8337707519531 55.9522590637207 340.0164184570313 L 56.36114883422852 340.3019714355469 L 56.3790397644043 340.8003845214844 C 56.64137268066406 348.0984191894531 57.8612060546875 355.2874450683594 60.0046501159668 362.1676635742188 C 62.23376083374023 369.3209228515625 65.45925903320313 376.128662109375 69.59153747558594 382.4017639160156 C 73.42803955078125 388.226318359375 77.97431945800781 393.523193359375 83.10387420654297 398.1451416015625 C 88.078369140625 402.6263122558594 93.61264801025391 406.4838256835938 99.55298614501953 409.6104736328125 C 105.3863143920898 412.6800537109375 111.6002578735352 415.0390319824219 118.0222015380859 416.6218872070313 C 124.4240417480469 418.19921875 131.0089263916016 418.9994201660156 137.5938110351563 419.0003051757813 L 137.60009765625 419.0003051757813 L 137.6009826660156 419.0003051757813 M 63.38609313964844 344.6721496582031 L 65.04325866699219 345.5036010742188 C 70.16715240478516 348.0744323730469 75.29498291015625 349.7998046875 80.28431701660156 350.6319274902344 L 80.84720611572266 350.725830078125 L 81.05270385742188 351.2581481933594 C 82.80353546142578 355.7933044433594 85.81814575195313 359.5894775390625 89.77070617675781 362.2362670898438 C 93.59581756591797 364.797607421875 98.06948089599609 366.1514282226563 102.7079849243164 366.1514282226563 C 107.9478149414063 366.1514282226563 113.0996475219727 364.3401489257813 117.2142639160156 361.0514831542969 C 119.2743148803711 359.4039306640625 121.0203704833984 357.43994140625 122.4039840698242 355.2140502929688 C 123.8410415649414 352.90283203125 124.8525390625 350.3604736328125 125.4104232788086 347.6574401855469 C 126.8252639770508 340.8128051757813 125.1025390625 333.7756652832031 120.6841506958008 328.3503723144531 C 116.2574844360352 322.9158325195313 109.6913146972656 319.7989196777344 102.669319152832 319.7989196777344 C 97.44520568847656 319.7989196777344 92.30370330810547 321.6013793945313 88.19214630126953 324.8739929199219 C 86.12603759765625 326.5198059082031 84.37509155273438 328.4825439453125 82.98798370361328 330.7076416015625 C 81.54315185546875 333.0244750976563 80.52614593505859 335.5755920410156 79.96526336669922 338.28955078125 C 79.72486877441406 339.4560546875 79.58998107910156 340.7265930175781 79.54070281982422 342.2880554199219 L 79.50164794921875 343.5253295898438 L 78.30026245117188 343.22705078125 C 73.48842620849609 342.0323791503906 68.52959442138672 339.8916931152344 63.56148147583008 336.8644409179688 L 63.06753921508789 336.5634155273438 L 63.08214950561523 335.9851989746094 C 63.70059204101563 311.5195007324219 76.21931457519531 288.9288330078125 96.56986999511719 275.5552062988281 C 108.7814788818359 267.5315551757813 122.9303131103516 263.2904357910156 137.4867095947266 263.2904357910156 C 162.6750946044922 263.2904357910156 185.9721527099609 275.8308715820313 199.8061981201172 296.8360290527344 C 210.7277679443359 313.4167785644531 214.527587890625 333.2824401855469 210.5057067871094 352.7734375 C 206.4819793701172 372.2800903320313 195.1163787841797 389.035888671875 178.5025329589844 399.9541931152344 C 166.2909240722656 407.9779357910156 152.1437072753906 412.2190551757813 137.5857086181641 412.2190551757813 C 112.3973159790039 412.2190551757813 89.10031890869141 399.6785888671875 75.26620483398438 378.6734313964844 C 68.89070129394531 368.9946594238281 64.96614837646484 358.1745300292969 63.60159301757813 346.5136413574219 L 63.38609313964844 344.6721496582031 M 117.1574859619141 335.0748291015625 L 117.8334808349609 336.691162109375 C 119.1070404052734 339.7361450195313 119.4276504516602 343.0543823242188 118.7604293823242 346.2877502441406 C 117.1914825439453 353.8681945800781 110.4408721923828 359.3700866699219 102.7089233398438 359.3700866699219 C 97.50020599365234 359.3700866699219 92.70481872558594 356.9247131347656 89.5523681640625 352.6609802246094 L 88.48570251464844 351.2183227539063 L 90.27370452880859 351.0699157714844 C 94.39936828613281 350.7274169921875 98.31470489501953 349.7316589355469 101.911262512207 348.1100463867188 C 107.4261474609375 345.6261596679688 112.2030944824219 341.7128295898438 116.1095352172852 336.4788818359375 L 117.1574859619141 335.0748291015625 M 102.6702041625977 326.5802001953125 C 105.7190933227539 326.5802001953125 108.7783126831055 327.5108642578125 111.5170974731445 329.2716674804688 L 112.3664245605469 329.8177185058594 L 111.8122024536133 330.6617126464844 C 108.3787078857422 335.890380859375 104.1078186035156 339.6809387207031 99.11820220947266 341.9281005859375 C 95.60198211669922 343.5119934082031 91.63370513916016 344.3292541503906 87.32359313964844 344.3572082519531 L 86.34059143066406 344.3635559082031 L 86.31737518310547 343.3808288574219 C 86.28504180908203 342.010986328125 86.38265228271484 340.7944946289063 86.61598205566406 339.6607055664063 C 88.18498229980469 332.0813598632813 94.93675994873047 326.5802001953125 102.6702041625977 326.5802001953125 M 26.4288158416748 208.0399322509766 L 27.14925956726074 208.4997711181641 C 30.08587074279785 210.374267578125 33.07887268066406 211.9424285888672 36.04515075683594 213.1607055664063 L 36.66520309448242 213.4153747558594 L 36.66520309448242 214.0857086181641 L 36.66520309448242 250.1305999755859 L 78.25042724609375 250.1305999755859 L 78.25042724609375 214.0839233398438 L 78.25042724609375 213.4161529541016 L 78.86720275878906 213.1602630615234 C 78.93247985839844 213.1332092285156 79.01009368896484 213.0977630615234 79.10448455810547 213.0519256591797 L 79.10926055908203 213.0495910644531 L 79.11408996582031 213.0473175048828 L 79.15376281738281 213.0285339355469 C 79.22703552246094 212.9938201904297 79.31015014648438 212.9544372558594 79.39987182617188 212.9160461425781 L 79.96548461914063 212.6741485595703 L 80.43642425537109 213.0698699951172 C 93.81287384033203 224.3101043701172 105.131591796875 240.7859344482422 112.3075408935547 259.4623718261719 L 112.6819839477539 260.4368286132813 L 111.6923141479492 260.76904296875 C 104.9433135986328 263.0346984863281 98.59881591796875 266.1033630371094 92.83515167236328 269.8898315429688 C 87.58625793457031 273.3389892578125 82.75254058837891 277.3824157714844 78.46831512451172 281.90771484375 C 74.30754089355469 286.3040466308594 70.63770294189453 291.1833801269531 67.56076049804688 296.4102172851563 C 64.53987121582031 301.5414428710938 62.07742691040039 307.0281066894531 60.24187088012695 312.7178344726563 C 58.41820526123047 318.3695373535156 57.20775985717773 324.2345275878906 56.64431762695313 330.1500549316406 L 56.46653747558594 332.0165405273438 L 55.01548385620117 330.8291015625 C 42.96870422363281 320.9704284667969 32.67342758178711 307.0621032714844 25.24264907836914 290.6076049804688 C 19.18364906311035 277.1899719238281 15.37526035308838 261.5676574707031 14.79409408569336 247.7464294433594 C 14.09542751312256 231.1592712402344 17.92276000976563 217.6503143310547 25.86237144470215 208.679931640625 L 26.4288158416748 208.0399322509766 M 402.8035888671875 152.054931640625 L 402.8038024902344 152.054931640625 L 402.8040466308594 152.054931640625 C 406.6625366210938 152.054931640625 410.2268676757813 153.9689331054688 412.3386535644531 157.175048828125 C 414.4786376953125 160.425048828125 414.4219360351563 163.5580902099609 413.9974365234375 165.6141510009766 C 413.38525390625 168.5785980224609 411.5482177734375 171.3149261474609 409.08349609375 172.9337005615234 L 211.9663696289063 302.4644165039063 L 211.0187072753906 303.087158203125 L 210.5193786621094 302.0690307617188 C 208.7988739013672 298.5612182617188 207.1978759765625 295.7136535644531 205.4807586669922 293.1075439453125 C 203.6042633056641 290.2575378417969 201.5249328613281 287.49560546875 199.3005981445313 284.8983764648438 L 198.5618133544922 284.0357666015625 L 199.510986328125 283.4121398925781 C 217.4815368652344 271.6049194335938 240.3687591552734 256.573486328125 260.3871459960938 243.4268798828125 C 313.63037109375 208.4594879150391 373.9775390625 168.82666015625 396.5667724609375 153.9220428466797 C 398.4237060546875 152.7015380859375 400.5803833007813 152.0559234619141 402.8035888671875 152.054931640625 M 43.45731735229492 208.6493835449219 C 43.35288238525391 208.6138916015625 43.24226760864258 208.5765686035156 43.12709426879883 208.5377044677734 L 43.11886978149414 208.5349273681641 C 41.17331695556641 207.8769378662109 37.55198287963867 206.652099609375 33.35531616210938 204.3150939941406 L 31.80676078796387 203.4527587890625 L 33.3455924987793 202.5732116699219 C 33.53436279296875 202.46533203125 33.72849655151367 202.3514862060547 33.89617919921875 202.252685546875 L 33.90237045288086 202.2485961914063 L 33.92715072631836 202.2339935302734 C 34.4608154296875 201.9192657470703 35.01264953613281 201.5937652587891 35.61326217651367 201.3237609863281 C 39.28331756591797 199.6688232421875 43.29842758178711 198.8297119140625 47.54698181152344 198.8297119140625 C 48.9267463684082 198.8297119140625 50.34696197509766 198.9189147949219 51.78133773803711 199.0953369140625 L 52.80000686645508 192.3873901367188 C 51.01602172851563 192.1586761474609 49.24615859985352 192.0429840087891 47.52542877197266 192.0429840087891 C 42.33436965942383 192.0429840087891 37.38687133789063 193.0855407714844 32.82059478759766 195.1417083740234 C 30.84998321533203 196.0293121337891 28.87887191772461 197.2111511230469 26.6173152923584 198.8609924316406 L 25.98153877258301 199.3248138427734 L 25.38125991821289 198.8158264160156 C 15.35148239135742 190.3114929199219 9.177315711975098 178.4574890136719 7.99603796005249 165.4374237060547 L 7.897093772888184 164.3470916748047 L 8.991927146911621 164.3470916748047 L 35.2205924987793 164.3470916748047 L 36.0423698425293 164.3470916748047 L 36.2016487121582 165.1533203125 C 37.15814971923828 169.9959259033203 39.79437255859375 174.4145965576172 43.62475967407227 177.5954895019531 C 45.52920532226563 179.1773681640625 47.66709518432617 180.4113159179688 49.97892761230469 181.2630462646484 C 52.37226104736328 182.1448211669922 54.8885383605957 182.5919342041016 57.45781707763672 182.5919342041016 C 69.40225982666016 182.5919342041016 79.11981964111328 172.8860931396484 79.11981964111328 160.9559783935547 C 79.11981964111328 149.0249328613281 69.40225982666016 139.3183135986328 57.45781707763672 139.3183135986328 C 30.0720386505127 139.3183135986328 7.792093753814697 117.0638198852539 7.792093753814697 89.70932006835938 C 7.792093753814697 57.41769790649414 34.85344314575195 45.16326522827148 43.45642852783203 42.09394836425781 L 43.45642852783203 8.781319618225098 L 43.45642852783203 7.781319141387939 L 44.45642852783203 7.781319141387939 L 70.45831298828125 7.781319141387939 L 71.45831298828125 7.781319141387939 L 71.45831298828125 8.781319618225098 L 71.45831298828125 42.07267379760742 C 81.40909576416016 45.35014343261719 104.2683334350586 56.01631164550781 106.9195938110352 85.22870635986328 L 107.0185928344727 86.31909942626953 L 105.9237060546875 86.31909942626953 L 79.69231414794922 86.31909942626953 L 78.8704833984375 86.31909942626953 L 78.71125793457031 85.51287841796875 C 77.75481414794922 80.67026519775391 75.11859130859375 76.25159454345703 71.28814697265625 73.07070922851563 C 69.38198089599609 71.4874267578125 67.24448394775391 70.25320434570313 64.93503570556641 69.40232086181641 C 62.5418701171875 68.52115631103516 60.02620315551758 68.07431793212891 57.45781707763672 68.07431793212891 C 45.51187133789063 68.07431793212891 35.79309463500977 77.77976226806641 35.79309463500977 89.70932006835938 C 35.79309463500977 101.6403732299805 45.51187133789063 111.3469848632813 57.45781707763672 111.3469848632813 C 84.84353637695313 111.3469848632813 107.1234817504883 133.6014862060547 107.1234817504883 160.9559783935547 C 107.1234817504883 182.02392578125 93.70426177978516 200.8729248046875 73.73136901855469 207.859375 L 71.45920562744141 208.65380859375 L 71.45920562744141 242.3493194580078 L 71.45920562744141 243.3493194580078 L 70.45920562744141 243.3493194580078 L 44.45731735229492 243.3493194580078 L 43.45731735229492 243.3493194580078 L 43.45731735229492 242.3493194580078 L 43.45731735229492 208.6493835449219 M 304.9618225097656 160.9821014404297 L 305.5111999511719 161.8162689208984 L 325.1042175292969 191.5639343261719 L 325.6548767089844 192.3999328613281 L 324.8182678222656 192.94970703125 L 311.1634826660156 201.9227142333984 L 310.3286437988281 202.4712677001953 L 309.7792053222656 201.6370391845703 L 290.185302734375 171.8884887695313 L 289.6345825195313 171.0524291992188 L 290.4713134765625 170.5026550292969 L 304.1269836425781 161.5305480957031 L 304.9618225097656 160.9821014404297 M 335.2134704589844 107.3564300537109 L 335.7629699707031 108.1906509399414 L 370.8683776855469 161.4922637939453 L 371.4189758300781 162.3283233642578 L 370.5823059082031 162.8780364990234 L 356.9275512695313 171.8501586914063 L 356.0927734375 172.3987121582031 L 355.5433044433594 171.5644836425781 L 320.4369812011719 118.2637634277344 L 319.8863220214844 117.4277114868164 L 320.7229309082031 116.8779830932617 L 334.378662109375 107.9049835205078 L 335.2134704589844 107.3564300537109 M 212.4436187744141 400.5887145996094 C 215.8486633300781 396.5536804199219 218.9324798583984 392.2155151367188 221.6278228759766 387.668701171875 L 215.8749542236328 384.3614196777344 C 213.3886871337891 388.5457153320313 210.5461578369141 392.544189453125 207.4076690673828 396.2720336914063 L 212.4436187744141 400.5887145996094 M 172.1148223876953 387.6116027832031 C 191.5300750732422 374.4539489746094 201.7438201904297 351.3121948242188 198.3596496582031 328.1468505859375 L 191.6518402099609 329.2261352539063 C 194.6102752685547 349.7701110839844 185.5640563964844 370.2753601074219 168.3839111328125 381.9732666015625 L 172.1148223876953 387.6116027832031 M 230.8227844238281 369.7328796386719 C 232.1800537109375 365.8466186523438 233.3000335693359 361.8345642089844 234.1554260253906 357.7925415039063 C 234.4113159179688 356.5762023925781 234.6428527832031 355.3703918457031 234.8462066650391 354.195556640625 L 227.9917602539063 353.1386413574219 C 227.8010101318359 354.2373046875 227.5876922607422 355.3459167480469 227.3552551269531 356.4463195800781 C 226.5591278076172 360.2016296386719 225.5259552001953 363.911376953125 224.2804412841797 367.4883117675781 L 230.8227844238281 369.7328796386719 M 229.0057067871094 333.9746704101563 L 235.9666900634766 333.795654296875 C 235.7629852294922 328.560791015625 235.1022796630859 323.31689453125 233.9990539550781 318.1788635253906 L 227.1941833496094 319.5849609375 C 228.2035217285156 324.3089294433594 228.811767578125 329.1405334472656 229.0057067871094 333.9746704101563 M 251.15087890625 308.2911682128906 L 271.536376953125 294.8796997070313 L 267.8016967773438 289.2161865234375 L 247.416259765625 302.6284790039063 L 251.15087890625 308.2911682128906 M 284.9819030761719 286.0459289550781 L 356.5459289550781 238.9636077880859 L 352.8121032714844 233.3009338378906 L 281.2472534179688 280.3831481933594 L 284.9819030761719 286.0459289550781 M 222.8445587158203 245.2866973876953 L 257.58642578125 221.2656097412109 L 253.7234802246094 215.6914672851563 L 218.9815368652344 239.7117614746094 L 222.8445587158203 245.2866973876953 M 266.6294555664063 214.8227233886719 L 278.4259948730469 206.6666564941406 L 274.5629577636719 201.0916748046875 L 262.7657165527344 209.2484893798828 L 266.6294555664063 214.8227233886719 M 117.0746078491211 204.5873870849609 C 117.5973281860352 203.8589630126953 118.1134033203125 203.1136474609375 118.6182098388672 202.3580932617188 L 112.6941909790039 198.3909301757813 C 112.2767715454102 199.0128021240234 111.8391876220703 199.6432495117188 111.3846817016602 200.2775573730469 L 117.0746078491211 204.5873870849609 M 124.0777969360352 192.6572723388672 C 125.0522537231445 190.6208038330078 125.9373550415039 188.5208740234375 126.7182006835938 186.3928375244141 L 120.6674041748047 184.2716522216797 C 119.975471496582 186.1516876220703 119.1933898925781 188.0075378417969 118.333610534668 189.8095092773438 L 124.0777969360352 192.6572723388672 M 129.8185882568359 175.8094329833984 C 130.2945709228516 173.4667663574219 130.6596984863281 171.0802154541016 130.9077758789063 168.6905059814453 L 124.1417388916016 168.0848541259766 C 123.9212036132813 170.1911468505859 123.5997695922852 172.2967224121094 123.1825256347656 174.3680267333984 L 129.8185882568359 175.8094329833984 M 124.7734146118164 157.9679107666016 L 131.9612426757813 157.7291717529297 C 131.844482421875 155.1924896240234 131.602783203125 152.6494750976563 131.2403411865234 150.1442565917969 L 124.136344909668 151.2598419189453 C 124.4547271728516 153.4912719726563 124.6682281494141 155.739501953125 124.7734146118164 157.9679107666016 M 122.391716003418 140.7647094726563 L 128.7548675537109 138.9321594238281 C 128.0745544433594 136.6907501220703 127.2823486328125 134.4729461669922 126.3914947509766 132.3158264160156 L 120.3059387207031 134.9234619140625 C 121.0921020507813 136.8375854492188 121.7910995483398 138.7951049804688 122.391716003418 140.7647094726563 M 268.0000915527344 116.9999313354492 L 268.0000915527344 109.9999313354492 L 258.0003662109375 109.9999313354492 L 258.0003662109375 116.9999313354492 L 268.0000915527344 116.9999313354492 M 239.0003204345703 116.9999313354492 L 239.0003204345703 109.9999313354492 L 223.0003204345703 109.9999313354492 L 223.0003204345703 116.9999313354492 L 239.0003204345703 116.9999313354492 M 204.0001983642578 116.9999313354492 L 204.0001983642578 109.9999313354492 L 188.0001983642578 109.9999313354492 L 188.0001983642578 116.9999313354492 L 204.0001983642578 116.9999313354492 M 404.9999389648438 52.99998474121094 L 404.9999389648438 45.99998474121094 L 395.0002136230469 45.99998474121094 L 395.0002136230469 52.99998474121094 L 404.9999389648438 52.99998474121094 M 375.0002136230469 52.99998474121094 L 375.0002136230469 45.99998474121094 L 359.0002136230469 45.99998474121094 L 359.0002136230469 52.99998474121094 L 375.0002136230469 52.99998474121094 M 340.0001525878906 52.99998474121094 L 340.0001525878906 45.99998474121094 L 324.0001525878906 45.99998474121094 L 324.0001525878906 52.99998474121094 L 340.0001525878906 52.99998474121094 M 234.9998168945313 31.00043106079102 L 234.9998168945313 24.00043106079102 L 225.0000915527344 24.00043106079102 L 225.0000915527344 31.00043106079102 L 234.9998168945313 31.00043106079102 M 205.9999847412109 31.00043106079102 L 205.9999847412109 24.00043106079102 L 189.9999847412109 24.00043106079102 L 189.9999847412109 31.00043106079102 L 205.9999847412109 31.00043106079102 M 170.9999237060547 31.00043106079102 L 170.9999237060547 24.00043106079102 L 154.9999237060547 24.00043106079102 L 154.9999237060547 31.00043106079102 L 170.9999237060547 31.00043106079102 M 137.6009826660156 420.0003051757813 L 137.60009765625 420.0003051757813 L 137.5938110351563 420.0003051757813 C 130.9284210205078 419.9994201660156 124.2629852294922 419.1894226074219 117.7829818725586 417.5928344726563 C 111.283203125 415.9908142089844 104.9930953979492 413.6031494140625 99.08731842041016 410.4954223632813 C 93.0753173828125 407.3310546875 87.471923828125 403.4259338378906 82.43459320068359 398.8881530761719 C 77.24159240722656 394.2090454101563 72.63993072509766 388.8477172851563 68.75642395019531 382.9518127441406 C 64.57142639160156 376.5986938476563 61.30620574951172 369.7055969238281 59.0499267578125 362.4651489257813 C 56.88003921508789 355.5 55.64520645141602 348.2225952148438 55.37970352172852 340.8363342285156 C 47.87909317016602 335.5983276367188 40.84920501708984 328.8708190917969 34.4862060546875 320.8409729003906 C 28.10520553588867 312.7896118164063 22.60531616210938 303.6933288574219 18.13948249816895 293.8059387207031 C 14.88242721557617 286.5942077636719 12.25798225402832 278.9414978027344 10.33831596374512 271.0602111816406 C 8.310593605041504 262.730712890625 7.173038005828857 254.5398254394531 6.958816051483154 246.7152099609375 C 6.727482795715332 238.2597045898438 7.587926864624023 230.4378204345703 9.515705108642578 223.4663696289063 C 11.61809349060059 215.8668212890625 14.98592662811279 209.3202056884766 19.52642631530762 204.006591796875 C 7.117204666137695 193.0670928955078 -1.737467391649261e-05 177.3755950927734 -1.737467391649261e-05 160.9569244384766 L -1.737467391649261e-05 156.5658264160156 L 43.585205078125 156.5658264160156 L 43.585205078125 160.9569244384766 C 43.585205078125 168.5960998535156 49.8087043762207 174.8105926513672 57.45781707763672 174.8105926513672 C 65.10597991943359 174.8105926513672 71.32770538330078 168.5960998535156 71.32770538330078 160.9569244384766 C 71.32770538330078 153.3168182373047 65.10597991943359 147.1004791259766 57.45781707763672 147.1004791259766 C 25.77509307861328 147.1004791259766 -1.737467391649261e-05 121.355094909668 -1.737467391649261e-05 89.710205078125 C -1.737467391649261e-05 78.26848602294922 3.38398265838623 67.19759368896484 9.785704612731934 57.69543075561523 C 12.91948223114014 53.04331970214844 16.7058162689209 48.88531875610352 21.03931617736816 45.33748626708984 C 25.45559310913086 41.72042846679688 30.37681579589844 38.79182052612305 35.66520309448242 36.63093185424805 L 35.66520309448242 -1.407877607562114e-05 L 79.25042724609375 -1.407877607562114e-05 L 79.25042724609375 36.63270950317383 C 84.538818359375 38.798095703125 89.45998382568359 41.73120880126953 93.87542724609375 45.34920883178711 C 98.20892333984375 48.90059661865234 101.9952011108398 53.05953979492188 105.1289825439453 57.71159744262695 C 111.5307083129883 67.21287536621094 114.9147033691406 78.27748870849609 114.9147033691406 89.70932006835938 L 114.9147033691406 94.10043334960938 L 71.32770538330078 94.10043334960938 L 71.32770538330078 89.70932006835938 C 71.32770538330078 82.07009887695313 65.10597991943359 75.85559844970703 57.45781707763672 75.85559844970703 C 49.8087043762207 75.85559844970703 43.585205078125 82.07009887695313 43.585205078125 89.70932006835938 C 43.585205078125 97.34943389892578 49.8087043762207 103.5657043457031 57.45781707763672 103.5657043457031 C 89.13959503173828 103.5657043457031 114.9147033691406 129.3110961914063 114.9147033691406 160.9559783935547 C 114.9147033691406 165.8538208007813 114.2838134765625 170.7353820800781 113.0382080078125 175.4639892578125 C 111.8204803466797 180.0882110595703 110.0187072753906 184.5594329833984 107.6823196411133 188.7534332275391 C 103.0149307250977 197.1314849853516 96.26670837402344 204.2784271240234 88.16847991943359 209.4209899902344 C 94.66109466552734 215.3159790039063 100.643424987793 222.3288116455078 105.9489288330078 230.2623138427734 C 111.5154266357422 238.5873260498047 116.195426940918 247.7249908447266 119.8593139648438 257.4234313964844 C 125.6435928344727 256.1534729003906 131.5844879150391 255.5099792480469 137.5137023925781 255.5099792480469 C 147.8249816894531 255.5099792480469 157.9167022705078 257.4081115722656 167.5070953369141 261.1512145996094 C 177.3125915527344 264.9779968261719 186.1820983886719 270.5804748535156 193.8708190917969 277.8020935058594 L 303.2694396972656 205.9145965576172 L 278.8415832519531 168.8309783935547 L 307.1871032714844 150.2019348144531 L 331.6158142089844 187.2873229980469 L 349.0335388183594 175.8410949707031 L 309.0933227539063 115.2054290771484 L 337.4388122558594 96.57631683349609 L 377.3799133300781 157.2147064208984 L 392.2821044921875 147.4218139648438 C 395.423095703125 145.3544921875 399.05908203125 144.2619323730469 402.7976989746094 144.2619323730469 C 409.284912109375 144.2619323730469 415.2861022949219 147.4902038574219 418.8483276367188 152.8973693847656 C 421.6589965820313 157.1660919189453 422.6373291015625 162.2808227539063 421.6014404296875 167.2992095947266 C 420.5655517578125 172.3167114257813 417.6414184570313 176.6268157958984 413.3690795898438 179.434814453125 L 214.8974761962891 309.8547058105469 C 218.0105895996094 318.4713134765625 219.6468200683594 327.5010375976563 219.7610931396484 336.693603515625 C 219.8735961914063 345.7286987304688 218.5154876708984 354.6711120605469 215.7245941162109 363.2715454101563 C 212.9067077636719 371.95654296875 208.7082061767578 380.0385437011719 203.2469787597656 387.2925415039063 C 197.5932006835938 394.8012084960938 190.7090911865234 401.2488098144531 182.7873229980469 406.455322265625 C 169.2999267578125 415.3158264160156 153.6749877929688 420.0003051757813 137.6009826660156 420.0003051757813 Z M 64.59481811523438 346.3974304199219 C 65.94120788574219 357.9030456542969 69.81304168701172 368.5769958496094 76.101318359375 378.1233215332031 C 89.74981689453125 398.8467102050781 112.7349243164063 411.2190551757813 137.5857086181641 411.2190551757813 C 137.5865783691406 411.2190551757813 137.5894012451172 411.2190551757813 137.5902862548828 411.2190551757813 C 151.9497375488281 411.2190551757813 165.9058227539063 407.0344543457031 177.9534301757813 399.1184997558594 C 194.3433227539063 388.3473205566406 205.5564270019531 371.8170471191406 209.5263214111328 352.5714416503906 C 213.4944305419922 333.3410949707031 209.7450408935547 313.7427062988281 198.9710998535156 297.3861083984375 C 185.3226013183594 276.6627197265625 162.3375396728516 264.2904357910156 137.4867095947266 264.2904357910156 C 123.1263122558594 264.2904357910156 109.1673126220703 268.4745483398438 97.11898040771484 276.3909301757813 C 77.04181671142578 289.5849304199219 64.69198608398438 311.8724975585938 64.08181762695313 336.010498046875 C 68.96342468261719 338.9850463867188 73.82881927490234 341.0865478515625 78.54120635986328 342.2565002441406 C 78.59248352050781 340.631103515625 78.73470306396484 339.3063049316406 78.98581695556641 338.0877075195313 C 79.57081604003906 335.2572021484375 80.63192749023438 332.5959167480469 82.13942718505859 330.1784973144531 C 83.58748626708984 327.8556518554688 85.41453552246094 325.80810546875 87.569091796875 324.0918273925781 C 91.85670471191406 320.6790466308594 97.21892547607422 318.7989196777344 102.669319152832 318.7989196777344 C 109.9934844970703 318.7989196777344 116.8424835205078 322.0505981445313 121.4594802856445 327.7188110351563 C 126.0684280395508 333.3780517578125 127.8657073974609 340.7193298339844 126.3897018432617 347.85986328125 C 125.8083190917969 350.6769409179688 124.7534790039063 353.3291931152344 123.2532043457031 355.7420959472656 C 121.808708190918 358.06591796875 119.9870910644531 360.1143188476563 117.8388137817383 361.8324279785156 C 113.5475921630859 365.2623291015625 108.1745910644531 367.1514282226563 102.7079849243164 367.1514282226563 C 97.8704833984375 367.1514282226563 93.20492553710938 365.7393188476563 89.21431732177734 363.0671997070313 C 85.08959197998047 360.3050842285156 81.94498443603516 356.3460388183594 80.11981964111328 351.6183166503906 C 75.03120422363281 350.7696533203125 69.80759429931641 349.0128173828125 64.59481811523438 346.3974304199219 Z M 116.9109268188477 337.0769958496094 C 112.9014282226563 342.4490966796875 107.9928131103516 346.4676513671875 102.3219299316406 349.0218200683594 C 98.62109375 350.6904296875 94.59542846679688 351.714599609375 90.35643005371094 352.0664978027344 C 93.31831359863281 356.0724182128906 97.82009124755859 358.3700866699219 102.7089233398438 358.3700866699219 C 109.9692077636719 358.3700866699219 116.3079299926758 353.2032165527344 117.7812042236328 346.0850830078125 C 118.4075927734375 343.0494384765625 118.1060943603516 339.9345397949219 116.9109268188477 337.0769958496094 Z M 102.6702041625977 327.5802001953125 C 95.40809631347656 327.5802001953125 89.06853485107422 332.7462158203125 87.59520721435547 339.8634338378906 C 87.37831878662109 340.9173278808594 87.28648376464844 342.0603332519531 87.31709289550781 343.3572082519531 C 91.48681640625 343.3302001953125 95.31898498535156 342.5426940917969 98.70748138427734 341.0163269042969 C 103.5215911865234 338.8482055664063 107.6489791870117 335.1798095703125 110.976318359375 330.1128234863281 C 108.4004821777344 328.4568176269531 105.527702331543 327.5802001953125 102.6702041625977 327.5802001953125 Z M 26.61120414733887 209.3427124023438 C 18.84692764282227 218.114990234375 15.10559368133545 231.3800964355469 15.79320526123047 247.7043151855469 C 16.36920547485352 261.4023132324219 20.14559364318848 276.8904418945313 26.15403747558594 290.196044921875 C 33.52231597900391 306.5120849609375 43.72198104858398 320.2947082519531 55.6488151550293 330.0552062988281 C 56.21942520141602 324.0648193359375 57.44520568847656 318.12841796875 59.29020309448242 312.4107055664063 C 61.14870452880859 306.6498107910156 63.64170455932617 301.0959167480469 66.69903564453125 295.9028625488281 C 69.8148193359375 290.6100463867188 73.52998352050781 285.6708068847656 77.74203491210938 281.2203063964844 C 82.07731628417969 276.6410827636719 86.97059631347656 272.5469970703125 92.28598022460938 269.0541076660156 C 98.12070465087891 265.2209777832031 104.5430908203125 262.1141967773438 111.3740921020508 259.821044921875 C 104.2578125 241.2999267578125 93.04198455810547 224.9684906005859 79.7930908203125 213.8354797363281 C 79.70670318603516 213.8724365234375 79.62298583984375 213.9129333496094 79.54109191894531 213.9515991210938 C 79.45204162597656 213.9948120117188 79.35031890869141 214.04248046875 79.25042724609375 214.0839233398438 L 79.25042724609375 251.1305999755859 L 35.66520309448242 251.1305999755859 L 35.66520309448242 214.0857086181641 C 32.64120483398438 212.8437042236328 29.59470558166504 211.2471008300781 26.61120414733887 209.3427124023438 Z M 402.8040466308594 153.054931640625 C 400.7763061523438 153.0558166503906 398.809814453125 153.6444244384766 397.1159973144531 154.7577056884766 C 374.6286010742188 169.5950927734375 314.2278137207031 209.2634887695313 260.9360961914063 244.2627105712891 C 238.388427734375 259.0704345703125 217.0908203125 273.0581970214844 200.0600891113281 284.2478637695313 C 202.3154754638672 286.8813171386719 204.4197082519531 289.6775817871094 206.3159790039063 292.5575866699219 C 208.0575408935547 295.2008666992188 209.6784210205078 298.0835876464844 211.4172058105469 301.6287231445313 L 408.5343017578125 172.0979919433594 C 410.7816467285156 170.6219787597656 412.4583129882813 168.1227111816406 413.0180969238281 165.4119262695313 C 413.4042053222656 163.5417022705078 413.4555358886719 160.6895904541016 411.50341796875 157.7249908447266 C 409.5774230957031 154.8009338378906 406.3248291015625 153.054931640625 402.8040466308594 153.054931640625 Z M 47.54698181152344 199.8297119140625 C 43.44209289550781 199.8297119140625 39.56492614746094 200.6388244628906 36.02431488037109 202.2353820800781 C 35.47170639038086 202.4838256835938 34.94253921508789 202.7960968017578 34.43131637573242 203.0975952148438 L 34.42592620849609 203.1012115478516 C 34.23509216308594 203.2137145996094 34.03709411621094 203.3298187255859 33.84181594848633 203.4414367675781 C 37.96470642089844 205.7373199462891 41.53142547607422 206.9423675537109 43.44748306274414 207.5904235839844 C 43.87948226928711 207.7362060546875 44.2205924987793 207.8514251708984 44.45731735229492 207.9423217773438 L 44.45731735229492 242.3493194580078 L 70.45920562744141 242.3493194580078 L 70.45920562744141 207.944091796875 L 73.40131378173828 206.9154357910156 C 92.97359466552734 200.069091796875 106.1234817504883 181.6002044677734 106.1234817504883 160.9559783935547 C 106.1234817504883 134.1530914306641 84.29220581054688 112.3469848632813 57.45781707763672 112.3469848632813 C 44.96042633056641 112.3469848632813 34.79309463500977 102.1914291381836 34.79309463500977 89.70932006835938 C 34.79309463500977 77.22809600830078 44.96042633056641 67.07431793212891 57.45781707763672 67.07431793212891 C 60.14520645141602 67.07431793212891 62.77770614624023 67.54232025146484 65.28059387207031 68.46392822265625 C 67.69892883300781 69.35492706298828 69.93448638916016 70.64637756347656 71.92709350585938 72.30148315429688 C 75.93392944335938 75.62882232666016 78.69153594970703 80.25209808349609 79.69231414794922 85.31909942626953 L 105.9237060546875 85.31909942626953 C 103.3074264526367 56.49209594726563 80.58692932128906 46.08993148803711 70.9398193359375 42.95520782470703 C 70.65809631347656 42.86343002319336 70.48709106445313 42.80848693847656 70.45831298828125 42.78781890869141 L 70.45831298828125 8.781319618225098 L 44.45642852783203 8.781319618225098 L 44.45642852783203 42.79048538208008 C 44.42759323120117 42.81209564208984 44.25120544433594 42.87420654296875 43.95870590209961 42.9768180847168 C 35.70931625366211 45.8864860534668 8.792093276977539 57.85648727416992 8.792093276977539 89.70932006835938 C 8.792093276977539 116.51220703125 30.62342643737793 138.3183135986328 57.45781707763672 138.3183135986328 C 69.95343017578125 138.3183135986328 80.11981964111328 148.4739379882813 80.11981964111328 160.9559783935547 C 80.11981964111328 173.4372100830078 69.95343017578125 183.5919342041016 57.45781707763672 183.5919342041016 C 54.76948165893555 183.5919342041016 52.13703918457031 183.1238708496094 49.63320541381836 182.2013702392578 C 47.21492767333984 181.3104248046875 44.97842788696289 180.0198211669922 42.98581695556641 178.3647155761719 C 38.97903823852539 175.0373687744141 36.22142791748047 170.4140930175781 35.2205924987793 165.3470916748047 L 8.991927146911621 165.3470916748047 C 10.14931583404541 178.1037139892578 16.19909286499023 189.7191009521484 26.02798271179199 198.0531005859375 C 28.34731674194336 196.3610992431641 30.37592697143555 195.1461029052734 32.40992736816406 194.2299346923828 C 37.10703659057617 192.1148681640625 42.19292831420898 191.0429840087891 47.52542877197266 191.0429840087891 C 49.61609268188477 191.0429840087891 51.77431488037109 191.2094879150391 53.94059371948242 191.5370941162109 L 52.62209320068359 200.2194366455078 C 50.90309524536133 199.9610900878906 49.19581604003906 199.8297119140625 47.54698181152344 199.8297119140625 Z M 304.6760864257813 162.3663177490234 L 291.0204162597656 171.3384246826172 L 310.6143188476563 201.0869903564453 L 324.2691040039063 192.1139831542969 L 304.6760864257813 162.3663177490234 Z M 334.9278259277344 108.7407073974609 L 321.2720947265625 117.7137069702148 L 356.37841796875 171.0144348144531 L 370.033203125 162.0423126220703 L 334.9278259277344 108.7407073974609 Z M 212.5539245605469 402.0003051757813 L 206.0000915527344 396.3825378417969 C 209.5739898681641 392.2335510253906 212.7743682861328 387.7317199707031 215.5139770507813 383.0004272460938 L 223.0001983642578 387.30419921875 C 219.9933166503906 392.5008239746094 216.4805908203125 397.4454345703125 212.5539245605469 402.0003051757813 Z M 171.8343200683594 388.9998168945313 L 167.0003662109375 381.6945495605469 C 184.6737060546875 370.1313171386719 193.9023132324219 349.2117004394531 190.5129241943359 328.3965454101563 L 199.1943206787109 326.9996948242188 C 203.1354217529297 351.209716796875 192.3957061767578 375.5457153320313 171.8343200683594 388.9998168945313 Z M 231.4340972900391 370.9998168945313 L 223.0001983642578 368.1063232421875 C 224.3861999511719 364.2696533203125 225.5210876464844 360.2763061523438 226.3769836425781 356.2389221191406 C 226.6749267578125 354.8285827636719 226.9394836425781 353.4147033691406 227.1689758300781 351.9999389648438 L 235.9998168945313 353.3616027832031 C 235.7495880126953 354.9078063964844 235.4589233398438 356.4540405273438 235.1339874267578 357.9984436035156 C 234.1980438232422 362.4210510253906 232.9514770507813 366.7950439453125 231.4340972900391 370.9998168945313 Z M 228.0402069091797 334.9998168945313 C 227.8863220214844 329.5655822753906 227.2014312744141 324.1188049316406 225.9999237060547 318.8106079101563 L 234.7631988525391 316.9998168945313 C 236.080810546875 322.8291015625 236.8340911865234 328.8069152832031 236.9997100830078 334.7694396972656 L 228.0402069091797 334.9998168945313 Z M 250.8660430908203 309.6755981445313 L 246.0303192138672 302.3433227539063 L 268.0866088867188 287.8316955566406 L 272.9223022460938 295.1649169921875 L 250.8660430908203 309.6755981445313 Z M 284.6970520019531 287.4303283691406 L 279.861328125 280.0979919433594 L 353.0970458984375 231.9164886474609 L 357.9318237304688 239.2488250732422 L 284.6970520019531 287.4303283691406 Z M 222.5915985107422 246.6773681640625 L 217.5894317626953 239.4584808349609 L 253.9764251708984 214.3008117675781 L 258.9786071777344 221.5188140869141 L 222.5915985107422 246.6773681640625 Z M 266.3765869140625 216.2133178710938 L 261.3734741210938 208.9953155517578 L 274.81591796875 199.7009887695313 L 279.8180847167969 206.9199371337891 L 266.3765869140625 216.2133178710938 Z M 117.2834854125977 206.0000915527344 L 109.9998168945313 200.4830932617188 C 110.8368148803711 199.3446044921875 111.6449813842773 198.1844787597656 112.4144821166992 197.0000915527344 L 119.9997024536133 202.0797119140625 C 119.1320953369141 203.41259765625 118.2267074584961 204.7212066650391 117.2834854125977 206.0000915527344 Z M 124.5357055664063 194.0004272460938 L 116.9999847412109 190.2644805908203 C 118.163703918457 187.9208679199219 119.1933135986328 185.4774322509766 120.0618133544922 182.9997100830078 L 127.9998168945313 185.7824859619141 C 127.0160903930664 188.5842132568359 125.8514862060547 191.3480987548828 124.5357055664063 194.0004272460938 Z M 130.5899810791016 177.0003204345703 L 122.0004272460938 175.1345977783203 C 122.5790939331055 172.4705963134766 122.9975967407227 169.7337036132813 123.2424240112305 167.0003814697266 L 132.0003204345703 167.7843170166016 C 131.7213134765625 170.8794250488281 131.2470397949219 173.9799346923828 130.5899810791016 177.0003204345703 Z M 123.8139266967773 159.0003204345703 C 123.7203140258789 156.1383209228516 123.4439849853516 153.2528686523438 123.0003128051758 150.4259796142578 L 132.0785980224609 149.0003814697266 C 132.5834808349609 152.1954345703125 132.8930969238281 155.4579315185547 133.0001983642578 158.6952056884766 L 123.8139266967773 159.0003204345703 Z M 121.7150955200195 142.0002136230469 C 120.9744262695313 139.4298248291016 120.0609283447266 136.87109375 118.9998168945313 134.3952026367188 L 126.9224853515625 131.0003814697266 C 128.126708984375 133.8039245605469 129.1599273681641 136.7028198242188 129.9995880126953 139.6143188476563 L 121.7150955200195 142.0002136230469 Z M 269.0000915527344 117.9999313354492 L 257.0003662109375 117.9999313354492 L 257.0003662109375 108.9999313354492 L 269.0000915527344 108.9999313354492 L 269.0000915527344 117.9999313354492 Z M 240.0003204345703 117.9999313354492 L 222.0003204345703 117.9999313354492 L 222.0003204345703 108.9999313354492 L 240.0003204345703 108.9999313354492 L 240.0003204345703 117.9999313354492 Z M 205.0001983642578 117.9999313354492 L 187.0001983642578 117.9999313354492 L 187.0001983642578 108.9999313354492 L 205.0001983642578 108.9999313354492 L 205.0001983642578 117.9999313354492 Z M 405.9999389648438 53.99998474121094 L 394.0002136230469 53.99998474121094 L 394.0002136230469 44.99998474121094 L 405.9999389648438 44.99998474121094 L 405.9999389648438 53.99998474121094 Z M 376.0002136230469 53.99998474121094 L 358.0002136230469 53.99998474121094 L 358.0002136230469 44.99998474121094 L 376.0002136230469 44.99998474121094 L 376.0002136230469 53.99998474121094 Z M 341.0001525878906 53.99998474121094 L 323.0001525878906 53.99998474121094 L 323.0001525878906 44.99998474121094 L 341.0001525878906 44.99998474121094 L 341.0001525878906 53.99998474121094 Z M 235.9998168945313 32.00043106079102 L 224.0000915527344 32.00043106079102 L 224.0000915527344 23.00043106079102 L 235.9998168945313 23.00043106079102 L 235.9998168945313 32.00043106079102 Z M 206.9999847412109 32.00043106079102 L 188.9999847412109 32.00043106079102 L 188.9999847412109 23.00043106079102 L 206.9999847412109 23.00043106079102 L 206.9999847412109 32.00043106079102 Z M 171.9999237060547 32.00043106079102 L 153.9999237060547 32.00043106079102 L 153.9999237060547 23.00043106079102 L 171.9999237060547 23.00043106079102 L 171.9999237060547 32.00043106079102 Z" stroke="none" fill="#ff9419"/>
  </g>
  <path id="Path_Copy_6" data-name="Path Copy 6" d="M134.889,33.1A73.511,73.511,0,1,1,.513,82.107a54.827,54.827,0,0,0,15.525,5.221,25.159,25.159,0,1,0-1.578-9.362A52.176,52.176,0,0,1,0,71.721,73.5,73.5,0,0,1,134.889,33.1Z" transform="translate(64.082 264.29)" fill="#ff9419" opacity="0.446"/>
</svg>
