<svg xmlns="http://www.w3.org/2000/svg" width="385" height="410.001" viewBox="0 0 385 410.001">
  <g id="customer-support" transform="translate(385)">
    <g id="Combined_Shape" data-name="Combined Shape" fill="none" stroke-miterlimit="10">
      <path d="M-283.531,410h174.914v-4.271c0-46.724,18.211-92.17,51.276-127.965A155.5,155.5,0,0,0-16,172.113a156.693,156.693,0,0,0-8.733-51.82A154.17,154.17,0,0,0-49.221,75.645a154.874,154.874,0,0,0-37.68-34.3A158.213,158.213,0,0,0-135.209,20.57V12.812A12.844,12.844,0,0,0-148.055,0h-20.638a12.844,12.844,0,0,0-12.846,12.812V16.37a157.386,157.386,0,0,0-16.887,1.8,155.873,155.873,0,0,0-51.811,18.391,157.184,157.184,0,0,0-22.235,15.356,157.3,157.3,0,0,0-19.193,18.857,155.159,155.159,0,0,0-27.474,46.4,155.356,155.356,0,0,0-9.952,54.947c0,15.532-5.685,25.121-16.007,42.529-4.657,7.852-10.452,17.626-16.995,30.2A18.64,18.64,0,0,0-365,254.73a19.813,19.813,0,0,0,2.47,9.639,19.655,19.655,0,0,0,6.837,7.246,19.237,19.237,0,0,0,10.289,2.872h16.314v40.189a32.067,32.067,0,0,0,32.114,31.946h13.445V410h0ZM-24.564,172.113a146.992,146.992,0,0,1-39.078,99.866,208.819,208.819,0,0,0-22.346,28.877,201.094,201.094,0,0,0-16.564,31.707,194.762,194.762,0,0,0-10.481,33.784,190.291,190.291,0,0,0-4.1,35.111H-274.967V346.7a114.942,114.942,0,0,0,26.64-3.163,54.484,54.484,0,0,0,14.518-5.81,26.807,26.807,0,0,0,10.23-10.348l-7.593-3.946c-2.791,5.341-9.327,9.348-19.428,11.91a107.029,107.029,0,0,1-24.367,2.837v-.1h-22.009a23.5,23.5,0,0,1-23.55-23.4v-48.73H-345.4a10.829,10.829,0,0,1-9.612-5.667,10.864,10.864,0,0,1,.348-11.189c6.385-12.244,11.917-21.6,16.8-29.849,5.5-9.3,9.84-16.637,12.8-23.867a58.656,58.656,0,0,0,4.544-23.259A147.112,147.112,0,0,1-197.019,26.59a149.053,149.053,0,0,1,15.483-1.666V155.1a49.847,49.847,0,0,0-15.968,12.96,49.632,49.632,0,0,0-9.092,17.38,50.155,50.155,0,0,0-1.72,19.8,49.6,49.6,0,0,0,6.384,19.386,49.758,49.758,0,0,0,10.751,12.884,50.881,50.881,0,0,0,14.2,8.574l-2.267,7.369a26.748,26.748,0,0,1-20.91,18.618l-35.925,6.451a18.516,18.516,0,0,0-7.648-6.069,27.47,27.47,0,0,0-11.191-2.273c-1.06,0-2.142.054-3.217.162a27.406,27.406,0,0,0-15.7,6.514c-3.944,3.584-5.863,8.082-5.4,12.667.447,4.443,2.931,8.224,7.185,10.931a26.894,26.894,0,0,0,14.295,3.846c1.008,0,2.025-.05,3.022-.15a29.218,29.218,0,0,0,14.22-5.329c3.041-2.272,6.714-6.21,6.941-12.067l34.955-6.277a35.267,35.267,0,0,0,27.574-24.534l2.286-7.428a52,52,0,0,0,10.854,1.167,48.917,48.917,0,0,0,24.667-6.663,50.273,50.273,0,0,0,18.445-68.55,50.434,50.434,0,0,0-20.4-19.283V29.366A147.655,147.655,0,0,1-24.564,172.113Zm-217.6,113.713a5.7,5.7,0,0,1-1.438,4.248c-2.565,3.136-7.978,5.182-12,5.583-.747.074-1.5.112-2.249.112-6.822,0-12.479-3.114-12.878-7.089-.2-2.005,1.043-4.225,3.415-6.092a19.457,19.457,0,0,1,10.025-3.739c.658-.065,1.345-.1,2.043-.1C-249.1,278.751-242.631,281.182-242.165,285.827Zm119.946-107.073a41.714,41.714,0,0,1-15.316,56.878,41.7,41.7,0,0,1-20.742,5.557,42.018,42.018,0,0,1-36.242-20.83,41.061,41.061,0,0,1,.03-41.49,41.293,41.293,0,0,1,36.105-20.915A42.018,42.018,0,0,1-122.219,178.754ZM-143.772,12.812V151.677a50.072,50.072,0,0,0-14.612-2.264,50.352,50.352,0,0,0-14.589,2.262V12.812a4.231,4.231,0,0,1,4.282-4.27h20.638A4.23,4.23,0,0,1-143.772,12.812Zm65.414,330.924a177.7,177.7,0,0,1,34.643-54q1.9-2.043,3.716-4.134L-46.553,280q-1.727,1.986-3.525,3.926a186.253,186.253,0,0,0-36.3,56.593A172.574,172.574,0,0,0-99,396.544l8.64.456A164,164,0,0,1-78.359,343.736ZM-167,392v-9h-87v9Zm25,0v-9h-16v9Zm91-9v-9h-9v9Zm17,0v-9h-9v9Zm17,0v-9h-9v9Zm17,0v-9H-9v9Zm-324-11v-9h-54v9Zm177-96.8-1.21-9.055A67.559,67.559,0,0,1-168.67,266l-1.33,9.038a75.575,75.575,0,0,0,12.017.962A75.948,75.948,0,0,0-147,275.2Zm132-29.512L-22.608,242A169.947,169.947,0,0,1-36,266.072L-29.085,271A178.43,178.43,0,0,0-15,245.687Zm-92,11.423L-112.842,251A70.85,70.85,0,0,1-130,261.572l3.7,7.429A79.809,79.809,0,0,0-107,257.109Zm-92-2.056A68.828,68.828,0,0,1-213.253,241L-220,246.208A77.332,77.332,0,0,0-203.981,262Zm115-36.895L-92.214,216A68.775,68.775,0,0,1-100,234.514L-92.764,239A77.317,77.317,0,0,0-84,218.159Zm-139,4.793A73.774,73.774,0,0,1-226.937,203l-8.063.54A82.96,82.96,0,0,0-230.566,226Zm77.508-2.308a25.2,25.2,0,0,0,12.185-25.636l-8.386,1.337a16.645,16.645,0,0,1-8.048,16.936,16.508,16.508,0,0,1-22.551-6.05,16.545,16.545,0,0,1,6.041-22.576,16.68,16.68,0,0,1,17.471.61l4.736-7.059a25.313,25.313,0,0,0-26.456-.915,25.056,25.056,0,0,0-9.148,34.191A25,25,0,0,0-157.962,224,24.842,24.842,0,0,0-145.492,220.644ZM-82,195.655A81.342,81.342,0,0,0-86.1,173l-7.9,2.873A72.329,72.329,0,0,1-90.358,196Zm-135-31.338L-224.509,160A76.177,76.177,0,0,0-233,181.031l8.456,1.969A67.707,67.707,0,0,1-217,164.317ZM-96,154a77.311,77.311,0,0,0-15.818-16L-117,144.767A68.767,68.767,0,0,1-102.93,159Zm-235-36.26L-339.041,115A177.875,177.875,0,0,0-347,152.084l8.43.916A169.222,169.222,0,0,1-331,117.736Zm142,19.9L-192.728,130A76.1,76.1,0,0,0-211,142.775l5.752,6.225A67.624,67.624,0,0,1-189,137.639ZM-200,8.433-201.4,0A174.5,174.5,0,0,0-327,91.018L-319.453,95A166.024,166.024,0,0,1-200,8.433ZM-376,54V45h-9v9Zm17,0V45h-9v9Zm17,0V45h-9v9ZM-75.89,40V31h-2.22v9ZM-58,40V31h-9v9Zm17,0V31h-9v9Zm17,0V31h-9v9Zm17,0V31h-9v9Zm0-18V13H-78v9Z" stroke="none"/>
      <path d="M -109.6164779663086 409.0003967285156 L -109.6164779663086 405.7290344238281 C -109.6164779663086 358.7528076171875 -91.31215667724609 313.0664367675781 -58.07605361938477 277.0865478515625 C -31.5878963470459 248.3511352539063 -17.00021171569824 211.0709228515625 -17.00021171569824 172.11328125 C -17.00021171569824 154.4241790771484 -19.91947555541992 137.1003875732422 -25.67694854736328 120.622917175293 C -31.28936958312988 104.558235168457 -39.47505569458008 89.63365936279297 -50.0065803527832 76.26381683349609 C -60.52668762207031 62.90755081176758 -73.12252807617188 51.44144439697266 -87.44416046142578 42.18402481079102 C -102.1079483032227 32.70539474487305 -118.2584762573242 25.76028823852539 -135.4471588134766 21.54155158996582 L -136.2087860107422 21.35465621948242 L -136.2087860107422 20.57039260864258 L -136.2087860107422 12.81239318847656 C -136.2087860107422 6.29902458190918 -141.5227966308594 1.000024557113647 -148.0545349121094 1.000024557113647 L -168.6924285888672 1.000024557113647 C -175.2241668701172 1.000024557113647 -180.5381011962891 6.29902458190918 -180.5381011962891 12.81239318847656 L -180.5381011962891 16.37013053894043 L -180.5381011962891 17.31455039978027 L -181.4810028076172 17.36849784851074 C -187.6881561279297 17.72355079650879 -193.1768951416016 18.30697250366211 -198.2610015869141 19.15207672119141 C -216.4424285888672 22.17118263244629 -233.7627410888672 28.31907653808594 -249.7408447265625 37.42497253417969 C -257.5021057128906 41.84828948974609 -264.9354858398438 46.98176193237305 -271.8343200683594 52.68281555175781 C -278.6990966796875 58.35707855224609 -285.1152038574219 64.66097259521484 -290.9044799804688 71.41939544677734 C -302.6736755371094 85.15776062011719 -311.8580627441406 100.6678695678711 -318.2023620605469 117.5189208984375 C -324.7635803222656 134.9422302246094 -328.0903625488281 153.3104400634766 -328.0903625488281 172.11328125 C -328.0903625488281 187.9197082519531 -333.8257446289063 197.5927124023438 -344.2376403808594 215.1528625488281 C -348.886474609375 222.9922943115234 -354.6721496582031 232.7487640380859 -361.2053833007813 245.3065490722656 L -361.2251586914063 245.3446502685547 L -361.2481994628906 245.3809204101563 C -363.0276794433594 248.1842803955078 -363.9790649414063 251.419189453125 -363.9995422363281 254.7359161376953 C -364.0191650390625 257.8951416015625 -363.2079467773438 261.0595397949219 -361.6534729003906 263.8871765136719 C -360.096435546875 266.7210388183594 -357.8529968261719 269.0991821289063 -355.166015625 270.7644348144531 C -352.2498474121094 272.5706481933594 -348.96533203125 273.4865112304688 -345.4037780761719 273.4865112304688 L -329.0894775390625 273.4865112304688 L -328.0894775390625 273.4865112304688 L -328.0894775390625 274.4865112304688 L -328.0894775390625 314.6751403808594 C -328.0894775390625 331.739013671875 -314.1318969726563 345.6215515136719 -296.9756774902344 345.6215515136719 L -283.5305786132813 345.6215515136719 L -282.5305786132813 345.6215515136719 L -282.5305786132813 346.6215515136719 L -282.5305786132813 409.0003967285156 L -109.6164779663086 409.0003967285156 M -224.9508819580078 327.7917785644531 L -230.777587890625 324.76416015625 C -233.9320220947266 329.9332580566406 -240.5108795166016 333.8150634765625 -250.3546905517578 336.3111267089844 C -260.4405822753906 338.8692321777344 -270.925048828125 339.1686096191406 -274.9646301269531 339.1785888671875 L -275.9671020507813 339.1810913085938 L -275.9671020507813 339.07958984375 L -296.9756774902344 339.07958984375 C -310.5127868652344 339.07958984375 -321.5260009765625 328.1318054199219 -321.5260009765625 314.6751403808594 L -321.5260009765625 266.9446105957031 L -345.4037780761719 266.9446105957031 C -349.8367309570313 266.9446105957031 -353.7574157714844 264.6325988769531 -355.8916931152344 260.7598266601563 C -358.0237426757813 256.8892517089844 -357.8896484375 252.3429260253906 -355.5353393554688 248.5899505615234 C -349.1470642089844 236.341796875 -343.6144409179688 226.9874725341797 -338.7306213378906 218.7300720214844 C -333.2543640136719 209.4709167480469 -328.9288940429688 202.1574401855469 -325.9955749511719 194.9931793212891 C -322.9044799804688 187.4424438476563 -321.5260009765625 180.3860321044922 -321.5260009765625 172.11328125 C -321.5260009765625 99.18234252929688 -269.2321166992188 37.56628799438477 -197.18310546875 25.60407638549805 C -192.5163116455078 24.82776069641113 -187.4179534912109 24.27897262573242 -181.5967864990234 23.92644500732422 L -180.5363159179688 23.8621826171875 L -180.5363159179688 24.92460441589355 L -180.5363159179688 155.1006011962891 L -180.5363159179688 155.7093353271484 L -181.0770568847656 155.9889221191406 C -187.2022705078125 159.1556549072266 -192.4676361083984 163.4288635253906 -196.7268981933594 168.6898651123047 C -200.8042144775391 173.7258605957031 -203.8017425537109 179.4561309814453 -205.6361541748047 185.7214965820313 C -207.4913635253906 192.0581817626953 -208.0586395263672 198.5892333984375 -207.3220520019531 205.1332397460938 C -206.5645751953125 211.8667144775391 -204.4598388671875 218.2583465576172 -201.0672149658203 224.1290740966797 C -198.2983245849609 228.9002838134766 -194.7534790039063 233.1482849121094 -190.5310516357422 236.755126953125 C -186.3839416503906 240.2985992431641 -181.7005767822266 243.1268157958984 -176.6111602783203 245.1611328125 L -175.7555847167969 245.5031280517578 L -176.0265350341797 246.3837585449219 L -178.29248046875 253.7492828369141 C -181.3377380371094 263.7859802246094 -189.6481018066406 271.1858520507813 -199.9823760986328 273.0614929199219 L -235.9076843261719 279.5126647949219 L -236.5359497070313 279.6254577636719 L -236.9027862548828 279.1030883789063 C -238.5654296875 276.7354431152344 -241.0688934326172 274.7535400390625 -244.1428985595703 273.3716430664063 C -247.3205871582031 271.9419860839844 -251.0486907958984 271.186279296875 -254.9241027832031 271.186279296875 C -255.9553680419922 271.186279296875 -257.0042724609375 271.2391357421875 -258.0422058105469 271.3433532714844 C -264.0148315429688 271.9396667480469 -269.388427734375 274.1625366210938 -273.1731567382813 277.6025390625 C -276.876953125 280.9682312011719 -278.6817321777344 285.1688232421875 -278.2552795410156 289.4298706054688 C -277.8395690917969 293.5585021972656 -275.5135803222656 297.0814514160156 -271.5284118652344 299.6178588867188 C -267.7919921875 301.9968566894531 -262.9060668945313 303.3070678710938 -257.7707824707031 303.3070678710938 C -256.7938842773438 303.3070678710938 -255.8106384277344 303.2581787109375 -254.8481597900391 303.1617736816406 C -249.8233642578125 302.6591186523438 -244.8222045898438 300.7875061035156 -241.1272125244141 298.02685546875 C -238.2603759765625 295.8846130371094 -234.7985229492188 292.1843872070313 -234.5870513916016 286.7220153808594 L -234.5559539794922 285.9185485839844 L -233.7645263671875 285.7764587402344 L -198.8114166259766 279.4993286132813 C -186.0411071777344 277.1798095703125 -175.7734680175781 268.0446472167969 -172.0142059326172 255.655029296875 L -169.728271484375 248.2273406982422 L -169.4588928222656 247.3520202636719 L -168.5633239746094 247.5436553955078 C -165.0117950439453 248.3034973144531 -161.4303741455078 248.6888122558594 -157.9184722900391 248.6888122558594 C -149.4150543212891 248.6888122558594 -141.2835845947266 246.4919738769531 -133.7513732910156 242.1601257324219 C -110.2457885742188 228.5879669189453 -102.1358413696289 198.4490203857422 -115.6705780029297 174.9794464111328 C -120.3216857910156 167.0010223388672 -127.2371597290039 160.4655456542969 -135.6693725585938 156.0795440673828 L -136.2079010009766 155.7994384765625 L -136.2079010009766 155.1923980712891 L -136.2079010009766 29.36612892150879 L -136.2079010009766 28.07281494140625 L -134.9562072753906 28.39834022521973 C -69.36994934082031 45.4536018371582 -23.56368637084961 104.5513381958008 -23.56368637084961 172.11328125 C -23.56368637084961 209.4254913330078 -37.53584289550781 245.1325531005859 -62.90710830688477 272.6575927734375 C -71.17552947998047 281.608642578125 -78.65773773193359 291.2774353027344 -85.14600372314453 301.3953857421875 C -91.58426666259766 311.4356689453125 -97.12963104248047 322.0502319335938 -101.6279983520508 332.9442443847656 C -106.1231079101563 343.8306579589844 -109.6314239501953 355.1388244628906 -112.0554733276367 366.554443359375 C -114.4952621459961 378.0476989746094 -115.8666839599609 389.7984313964844 -116.1316833496094 401.4802856445313 L -116.1538467407227 402.4576110839844 L -117.1314239501953 402.4576110839844 L -274.9671020507813 402.4576110839844 L -275.9671020507813 402.4576110839844 L -275.9671020507813 401.4576110839844 L -275.9671020507813 346.6998291015625 L -275.9671020507813 345.7057189941406 L -274.9729919433594 345.6998291015625 C -269.5227355957031 345.6677551269531 -258.8460998535156 345.2181701660156 -248.5770568847656 342.5680847167969 C -242.9906921386719 341.1258544921875 -238.1960601806641 339.2088012695313 -234.3265838623047 336.8701171875 C -230.1520538330078 334.3465270996094 -227.0025024414063 331.2957458496094 -224.9508819580078 327.7917785644531 M -255.2463226318359 277.7507019042969 C -251.8876800537109 277.7507019042969 -248.6527862548828 278.4243469238281 -246.1375732421875 279.6474304199219 C -243.1405334472656 281.10498046875 -241.4226837158203 283.2070922851563 -241.1698455810547 285.7259826660156 C -240.9937896728516 287.4689331054688 -241.5518951416016 289.1448669433594 -242.8289947509766 290.7076416015625 C -245.5666351318359 294.0543518066406 -251.2769012451172 296.2313842773438 -255.50341796875 296.65234375 C -256.2853088378906 296.7296142578125 -257.0751037597656 296.768798828125 -257.8508911132813 296.768798828125 C -261.3160400390625 296.768798828125 -264.6294250488281 295.9953308105469 -267.1806335449219 294.5909118652344 C -269.8833312988281 293.1030883789063 -271.4968566894531 291.0392456054688 -271.7240600585938 288.7791442871094 C -271.9595336914063 286.4265441894531 -270.5777282714844 283.8833923339844 -267.9330139160156 281.8016967773438 C -265.2160034179688 279.6623840332031 -261.4712219238281 278.2602844238281 -257.3873291015625 277.8536071777344 C -256.69384765625 277.7853393554688 -255.9735260009766 277.7507019042969 -255.2463226318359 277.7507019042969 M -158.3846893310547 156.9535980224609 C -143.2035827636719 156.9535980224609 -129.0147399902344 165.1138153076172 -121.3528442382813 178.2539215087891 C -109.6184768676758 198.6019744873047 -116.6535797119141 224.7300720214844 -137.0370483398438 236.4987030029297 C -143.5136871337891 240.2208709716797 -150.8585815429688 242.1882934570313 -158.277587890625 242.1882934570313 C -173.5285797119141 242.1882934570313 -187.7471618652344 234.0160827636719 -195.3855285644531 220.8590240478516 C -203.0580596923828 207.5805511474609 -203.0470581054688 191.6963958740234 -195.3561096191406 178.3688659667969 C -187.6174163818359 164.9592895507813 -173.7963104248047 156.9535980224609 -158.3846893310547 156.9535980224609 M -158.3846893310547 150.41259765625 C -163.0182189941406 150.41259765625 -167.8289947509766 151.1590728759766 -172.6834716796875 152.6312408447266 L -173.9736785888672 153.0225524902344 L -173.9736785888672 151.6742858886719 L -173.9736785888672 12.81239318847656 C -173.9736785888672 9.856971740722656 -171.6534729003906 7.541919231414795 -168.6914825439453 7.541919231414795 L -148.0535736083984 7.541919231414795 C -145.0921020507813 7.541919231414795 -142.7723236083984 9.856971740722656 -142.7723236083984 12.81239318847656 L -142.7723236083984 151.6770172119141 L -142.7723236083984 153.0281372070313 L -144.0644683837891 152.6333923339844 C -148.8885345458984 151.1597595214844 -153.7065277099609 150.41259765625 -158.3846893310547 150.41259765625 M -91.30205535888672 395.9487609863281 C -90.22834014892578 377.9692993164063 -86.18688201904297 360.2821960449219 -79.284423828125 343.3584899902344 C -71.17189788818359 323.4650268554688 -59.45126342773438 305.1957092285156 -44.44868469238281 289.05859375 C -43.42330169677734 287.9535827636719 -42.40699005126953 286.8296203613281 -41.41837310791016 285.7074279785156 L -46.45094299316406 281.4026489257813 C -47.40426635742188 282.4858703613281 -48.3748893737793 283.5603332519531 -49.34542083740234 284.6065979003906 C -64.89295196533203 301.3294982910156 -77.04199981689453 320.26806640625 -85.45510864257813 340.8961181640625 C -92.63121032714844 358.4967041015625 -96.83161926269531 376.8961181640625 -97.94490051269531 395.597900390625 L -91.30205535888672 395.9487609863281 M -143.0002136230469 391.0003967285156 L -143.0002136230469 384.0003967285156 L -157.0003662109375 384.0003967285156 L -157.0003662109375 391.0003967285156 L -143.0002136230469 391.0003967285156 M -168.0003662109375 391.0003967285156 L -168.0003662109375 384.0003967285156 L -252.9997863769531 384.0003967285156 L -252.9997863769531 391.0003967285156 L -168.0003662109375 391.0003967285156 M -1.000001549720764 382.0003967285156 L -1.000001549720764 375.0003967285156 L -8.000001907348633 375.0003967285156 L -8.000001907348633 382.0003967285156 L -1.000001549720764 382.0003967285156 M -18.00010681152344 382.0003967285156 L -18.00010681152344 375.0003967285156 L -25.00010681152344 375.0003967285156 L -25.00010681152344 382.0003967285156 L -18.00010681152344 382.0003967285156 M -35.00021362304688 382.0003967285156 L -35.00021362304688 375.0003967285156 L -42.00021362304688 375.0003967285156 L -42.00021362304688 382.0003967285156 L -35.00021362304688 382.0003967285156 M -52.00031661987305 382.0003967285156 L -52.00031661987305 375.0003967285156 L -59.00031661987305 375.0003967285156 L -59.00031661987305 382.0003967285156 L -52.00031661987305 382.0003967285156 M -325 370.9996948242188 L -325 363.9996948242188 L -377 363.9996948242188 L -377 370.9996948242188 L -325 370.9996948242188 M -157.9833221435547 275.0002746582031 C -154.7007751464844 275.0002746582031 -151.3883972167969 274.7802124023438 -148.12255859375 274.3456726074219 L -149.0681457519531 267.2725524902344 C -151.9974975585938 267.6575622558594 -154.9882507324219 267.8525695800781 -157.9732055664063 267.8526000976563 C -161.2816162109375 267.8526611328125 -164.5915069580078 267.6136474609375 -167.8271179199219 267.1416625976563 L -168.8662414550781 274.2017211914063 C -165.278564453125 274.7318420410156 -161.6226654052734 275.0002746582031 -157.9833221435547 275.0002746582031 M -29.3464527130127 269.5858764648438 C -24.43384552001953 262.1437072753906 -20.05545997619629 254.27197265625 -16.31658554077148 246.1598815917969 L -22.12431335449219 243.3456878662109 C -25.71792030334473 251.1304016113281 -29.92041206359863 258.6818237304688 -34.63161087036133 265.8196716308594 L -29.3464527130127 269.5858764648438 M -125.8289413452148 267.698974609375 C -119.5647583007813 264.8821411132813 -113.7323379516602 261.2952575683594 -108.4673080444336 257.0219116210938 L -112.922966003418 252.3623809814453 C -117.6980056762695 256.2430725097656 -122.9761734008789 259.5007019042969 -128.6381225585938 262.0614929199219 L -125.8289413452148 267.698974609375 M -204.2014923095703 260.5908813476563 L -200.3853302001953 255.2696380615234 C -205.2786865234375 251.5767059326172 -209.6620483398438 247.2558135986328 -213.4364013671875 242.4048767089844 L -218.6001129150391 246.3906707763672 C -214.4405517578125 251.7527770996094 -209.6033935546875 256.5232543945313 -204.2014923095703 260.5908813476563 M -93.10142517089844 237.614501953125 C -89.64659118652344 231.7369995117188 -86.999755859375 225.4413909912109 -85.22176361083984 218.8718872070313 L -91.50273895263672 217.220947265625 C -93.12137603759766 223.163330078125 -95.517822265625 228.8599700927734 -98.63795471191406 234.1817474365234 L -93.10142517089844 237.614501953125 M -229.9589538574219 224.6774597167969 L -224.2511596679688 222.3783111572266 C -226.2123413085938 216.4771575927734 -227.4280242919922 210.3260955810547 -227.8706512451172 204.0652008056641 L -233.9389038085938 204.4716033935547 C -233.4597015380859 211.3846893310547 -232.1226654052734 218.1722717285156 -229.9589538574219 224.6774597167969 M -157.9623107910156 223.0000762939453 C -153.7753753662109 222.9998168945313 -149.6364288330078 221.8857574462891 -145.9926300048828 219.7782287597656 C -137.7282104492188 215.0014190673828 -133.0601196289063 205.6063842773438 -134.1583099365234 196.1566619873047 L -140.5772705078125 197.1796569824219 C -139.8948516845703 203.9853363037109 -143.2900390625 210.7088165283203 -149.2402648925781 214.1466522216797 C -151.9031066894531 215.6875 -154.9184722900391 216.5020751953125 -157.9604187011719 216.5022888183594 C -164.2175750732422 216.5028076171875 -170.0413208007813 213.1416625976563 -173.1584777832031 207.7311859130859 C -177.9889526367188 199.3627624511719 -175.1150054931641 188.6227111816406 -166.7527313232422 183.7903442382813 C -164.1404724121094 182.2774963378906 -161.1261138916016 181.4778137207031 -158.0354156494141 181.4778137207031 C -154.8351135253906 181.4778137207031 -151.7562408447266 182.3129730224609 -149.0696258544922 183.9015350341797 L -145.4438323974609 178.4972534179688 C -147.1752166748047 177.438232421875 -149.0523376464844 176.6048278808594 -151.0366821289063 176.0151824951172 C -153.3042144775391 175.3413391113281 -155.6620025634766 174.9997100830078 -158.0445861816406 174.9997100830078 C -162.2950592041016 174.9997100830078 -166.4294281005859 176.0916595458984 -170.0010528564453 178.1577606201172 C -172.8062133789063 179.7787628173828 -175.2099456787109 181.9021301269531 -177.1455230712891 184.4689178466797 C -179.0151062011719 186.9481353759766 -180.3719940185547 189.7347106933594 -181.1785278320313 192.7512817382813 C -181.9848937988281 195.767333984375 -182.2001647949219 198.8600311279297 -181.8183135986328 201.9434967041016 C -181.4231109619141 205.1348114013672 -180.402099609375 208.1762847900391 -178.7835845947266 210.9834442138672 C -176.6401519775391 214.7010192871094 -173.5420074462891 217.7768707275391 -169.8241119384766 219.8785552978516 C -166.2109985351563 221.9209747314453 -162.1092681884766 223.0003356933594 -157.9623107910156 223.0000762939453 M -89.40371704101563 194.9598541259766 L -83.04286193847656 194.6968536376953 C -83.3912353515625 187.7322235107422 -84.62966156005859 180.8782043457031 -86.72959136962891 174.2930297851563 L -92.74945831298828 176.4820709228516 C -90.85183715820313 182.4452667236328 -89.72801208496094 188.6518402099609 -89.40371704101563 194.9598541259766 M -225.2795715332031 181.8017578125 C -223.7622985839844 175.8245697021484 -221.4411315917969 170.0753173828125 -218.3682556152344 164.6834411621094 L -224.1437683105469 161.3633422851563 C -227.5498504638672 167.3177185058594 -230.1174774169922 173.6742553710938 -231.7877197265625 180.2860717773438 L -225.2795715332031 181.8017578125 M -102.7172241210938 157.6129608154297 L -97.40866088867188 153.7797698974609 C -101.4895172119141 148.3775634765625 -106.2668991088867 143.5475616455078 -111.6315231323242 139.4002227783203 L -115.5976028442383 144.5801544189453 C -110.741584777832 148.3475799560547 -106.4153213500977 152.7249755859375 -102.7172241210938 157.6129608154297 M -339.45654296875 151.8977813720703 C -338.1859436035156 140.4796142578125 -335.7661743164063 129.2080383300781 -332.2576599121094 118.3646697998047 L -338.4047546386719 116.2729644775391 C -342.0621032714844 127.5726623535156 -344.5808715820313 139.3111267089844 -345.8988037109375 151.1976318359375 L -339.45654296875 151.8977813720703 M -205.1942749023438 147.5846405029297 C -200.7039031982422 143.466064453125 -195.7117004394531 139.9759063720703 -190.3302612304688 137.1929321289063 L -193.1809997558594 131.3510284423828 C -199.1284027099609 134.4200286865234 -204.6406097412109 138.2755432128906 -209.5894012451172 142.8278045654297 L -205.1942749023438 147.5846405029297 M -319.8700256347656 93.64969635009766 C -295.7584228515625 48.39839172363281 -251.5061645507813 16.32907295227051 -201.1493988037109 7.614055156707764 L -202.2215118408203 1.153934240341187 C -215.3798980712891 3.427303791046143 -228.2518920898438 7.223860263824463 -240.4984741210938 12.44439315795898 C -252.7257385253906 17.65670967102051 -264.3735656738281 24.30539321899414 -275.1185913085938 32.20576095581055 C -285.7109069824219 39.99386596679688 -295.433837890625 49.00276184082031 -304.0174255371094 58.98223495483398 C -312.3758239746094 68.69995880126953 -319.649658203125 79.33296203613281 -325.6479187011719 90.60054779052734 L -319.8700256347656 93.64969635009766 M -343 53.00002288818359 L -343 46.00002288818359 L -350 46.00002288818359 L -350 53.00002288818359 L -343 53.00002288818359 M -360.0001220703125 53.00002288818359 L -360.0001220703125 46.00002288818359 L -367.0001220703125 46.00002288818359 L -367.0001220703125 53.00002288818359 L -360.0001220703125 53.00002288818359 M -377.0002136230469 53.00002288818359 L -377.0002136230469 46.00002288818359 L -384.0002136230469 46.00002288818359 L -384.0002136230469 53.00002288818359 L -377.0002136230469 53.00002288818359 M -8.000211715698242 38.99960327148438 L -8.000211715698242 31.99960327148438 L -15.00021171569824 31.99960327148438 L -15.00021171569824 38.99960327148438 L -8.000211715698242 38.99960327148438 M -25.00031661987305 38.99960327148438 L -25.00031661987305 31.99960327148438 L -32.00031661987305 31.99960327148438 L -32.00031661987305 38.99960327148438 L -25.00031661987305 38.99960327148438 M -42.00037002563477 38.99960327148438 L -42.00037002563477 31.99960327148438 L -49.00037002563477 31.99960327148438 L -49.00037002563477 38.99960327148438 L -42.00037002563477 38.99960327148438 M -58.99958038330078 38.99960327148438 L -58.99958038330078 31.99960327148438 L -65.99958038330078 31.99960327148438 L -65.99958038330078 38.99960327148438 L -58.99958038330078 38.99960327148438 M -76.88979339599609 38.99960327148438 L -76.88979339599609 31.99960327148438 L -77.110107421875 31.99960327148438 L -77.110107421875 38.99960327148438 L -76.88979339599609 38.99960327148438 M -8.000211715698242 20.99960327148438 L -8.000211715698242 13.99960327148438 L -77.00032043457031 13.99960327148438 L -77.00032043457031 20.99960327148438 L -8.000211715698242 20.99960327148438 M -283.5305786132813 410.0013427734375 L -283.5305786132813 410.0003967285156 L -283.5305786132813 410.0013427734375 Z M -108.6164779663086 410.0003967285156 L -283.5305786132813 410.0003967285156 L -283.5305786132813 346.6215515136719 L -296.9756774902344 346.6215515136719 C -314.6831970214844 346.6215515136719 -329.0894775390625 332.2908020019531 -329.0894775390625 314.6751403808594 L -329.0894775390625 274.4865112304688 L -345.4037780761719 274.4865112304688 C -349.1549987792969 274.4865112304688 -352.6163635253906 273.5199279785156 -355.6925659179688 271.6145935058594 C -358.5257873535156 269.8587036132813 -360.8901062011719 267.3531188964844 -362.5299072265625 264.3687133789063 C -364.1661071777344 261.3923950195313 -365.0202026367188 258.0597229003906 -364.9995422363281 254.7297058105469 C -364.9779052734375 251.2251281738281 -363.9725952148438 247.8069152832031 -362.0924682617188 244.8450317382813 C -355.5494689941406 232.2683868408203 -349.7543640136719 222.4952850341797 -345.0977783203125 214.6428070068359 C -334.7756958007813 197.2340698242188 -329.0903625488281 187.6454925537109 -329.0903625488281 172.11328125 C -329.0903625488281 153.1908111572266 -325.7423706054688 134.7039184570313 -319.1382141113281 117.1664962768555 C -312.752685546875 100.2060241699219 -303.5087890625 84.59549713134766 -291.6639099121094 70.76881408691406 C -285.8363647460938 63.9657096862793 -279.37890625 57.62160491943359 -272.471435546875 51.91202545166016 C -265.5305786132813 46.17628860473633 -258.0498046875 41.00939178466797 -250.2360076904297 36.55618286132813 C -234.15478515625 27.39149856567383 -216.7226867675781 21.20402526855469 -198.4247894287109 18.16560363769531 C -193.3083190917969 17.31507682800293 -187.7841033935547 16.72739219665527 -181.5381011962891 16.37013053894043 L -181.5381011962891 12.81239318847656 C -181.5381011962891 5.747393131256104 -175.7754211425781 2.454898276482709e-05 -168.6924285888672 2.454898276482709e-05 L -148.0545349121094 2.454898276482709e-05 C -140.9714813232422 2.454898276482709e-05 -135.2087860107422 5.747393131256104 -135.2087860107422 12.81239318847656 L -135.2087860107422 20.57039260864258 C -117.9116821289063 24.81570816040039 -101.658576965332 31.80513000488281 -86.90131378173828 41.34418106079102 C -72.48779296875 50.66102600097656 -59.81042098999023 62.20081329345703 -49.22100067138672 75.64502716064453 C -38.62168502807617 89.10092163085938 -30.38221168518066 104.1228103637695 -24.73289680480957 120.2931289672852 C -18.93779182434082 136.8782806396484 -16.00021171569824 154.3122406005859 -16.00021171569824 172.11328125 C -16.00021171569824 211.3227081298828 -30.6818962097168 248.8437042236328 -57.34078979492188 277.7643432617188 C -90.40589904785156 313.5591430664063 -108.6164779663086 359.0046081542969 -108.6164779663086 405.7290344238281 L -108.6164779663086 410.0003967285156 Z M -231.1722106933594 323.43212890625 L -223.5789031982422 327.3777160644531 C -225.6885223388672 331.4151306152344 -229.1301116943359 334.8972473144531 -233.8092193603516 337.7259216308594 C -237.7628936767578 340.1154479980469 -242.6481018066406 342.0702209472656 -248.3271026611328 343.5363464355469 C -258.6986999511719 346.2129211425781 -269.4699096679688 346.6674499511719 -274.9671020507813 346.6998291015625 L -274.9671020507813 401.4576110839844 L -117.1314239501953 401.4576110839844 C -116.8649978637695 389.7126159667969 -115.486213684082 377.9001159667969 -113.0336837768555 366.3468017578125 C -110.5974197387695 354.8735961914063 -107.0712127685547 343.506591796875 -102.5523147583008 332.5625915527344 C -98.03068542480469 321.6122741699219 -92.45789337158203 310.9454956054688 -85.98779296875 300.8555908203125 C -79.46731567382813 290.6873779296875 -71.94868469238281 280.971923828125 -63.64168548583984 271.9790649414063 C -38.44168472290039 244.6398162841797 -24.56368637084961 209.1734924316406 -24.56368637084961 172.11328125 C -24.56368637084961 105.0066070556641 -70.06231689453125 46.30681228637695 -135.2079010009766 29.36612892150879 L -135.2079010009766 155.1923980712891 C -126.6084213256836 159.6653900146484 -119.5533142089844 166.33349609375 -114.8066864013672 174.4758148193359 C -100.9944229125977 198.4266052246094 -109.2690048217773 229.1787109375 -133.2513122558594 243.026123046875 C -140.9382171630859 247.4469146728516 -149.2371063232422 249.6888122558594 -157.9184722900391 249.6888122558594 C -161.4986877441406 249.6888122558594 -165.1508941650391 249.29638671875 -168.7725219726563 248.5214996337891 L -171.0584716796875 255.9491882324219 C -174.9257965087891 268.6950378417969 -185.4917907714844 278.0964050292969 -198.6326904296875 280.4832458496094 L -233.5877838134766 286.7607116699219 C -233.8145751953125 292.617919921875 -237.4874725341797 296.5554504394531 -240.5286407470703 298.8279113769531 C -244.3653106689453 301.6943969726563 -249.5484161376953 303.6365966796875 -254.7486267089844 304.1567993164063 C -255.7457885742188 304.2567138671875 -256.7627868652344 304.3070678710938 -257.7707824707031 304.3070678710938 C -263.0943298339844 304.3070678710938 -268.1712036132813 302.94091796875 -272.0655212402344 300.4613952636719 C -276.3189086914063 297.7542419433594 -278.8028869628906 293.9732971191406 -279.2502136230469 289.530029296875 C -279.7091979980469 284.9444885253906 -277.7895202636719 280.4463500976563 -273.8456726074219 276.8624877929688 C -269.9028015136719 273.2787170410156 -264.3254699707031 270.9656982421875 -258.1415710449219 270.3482971191406 C -257.0661010742188 270.2402954101563 -255.9843139648438 270.186279296875 -254.9241027832031 270.186279296875 C -250.9092102050781 270.186279296875 -247.0392150878906 270.9720153808594 -243.7325744628906 272.459716796875 C -240.4953155517578 273.9150390625 -237.8502044677734 276.0138244628906 -236.0844268798828 278.5283813476563 L -200.1591033935547 272.0772399902344 C -190.1970062255859 270.2691345214844 -182.1852111816406 263.1348266601563 -179.2494201660156 253.4589233398438 L -176.9823150634766 246.0897064208984 C -182.1744232177734 244.0143432617188 -186.9515838623047 241.1289215087891 -191.1806793212891 237.5153961181641 C -195.4898986816406 233.8343963623047 -199.1069946289063 229.4990844726563 -201.9321136474609 224.6310272216797 C -205.3944244384766 218.6397094726563 -207.5426788330078 212.1173858642578 -208.3157958984375 205.2450256347656 C -209.0673217773438 198.5679168701172 -208.4885864257813 191.9051818847656 -206.5959014892578 185.4404907226563 C -204.7238922119141 179.0469207763672 -201.664794921875 173.1996002197266 -197.5041046142578 168.0606079101563 C -193.1571044921875 162.6912384033203 -187.7841033935547 158.3307037353516 -181.5363159179688 155.1006011962891 L -181.5363159179688 24.92460441589355 C -187.3170013427734 25.27470970153809 -192.3822174072266 25.81918334960938 -197.0189971923828 26.59049797058105 C -268.5834350585938 38.47228622436523 -320.5260009765625 99.67317962646484 -320.5260009765625 172.11328125 C -320.5260009765625 180.5220184326172 -321.9273071289063 187.6950225830078 -325.0700988769531 195.3720245361328 C -328.0302124023438 202.6017150878906 -332.3717956542969 209.9430236816406 -337.8699035644531 219.2391357421875 C -342.7505798339844 227.4912414550781 -348.2828979492188 236.8449249267578 -354.6675415039063 249.0885009765625 C -356.846435546875 252.5363922119141 -356.9760131835938 256.7187194824219 -355.0157775878906 260.27734375 C -353.0601196289063 263.8260192871094 -349.4673156738281 265.9446105957031 -345.4037780761719 265.9446105957031 L -320.5260009765625 265.9446105957031 L -320.5260009765625 314.6751403808594 C -320.5260009765625 327.5801696777344 -309.9609069824219 338.07958984375 -296.9756774902344 338.07958984375 L -274.9671020507813 338.07958984375 L -274.9671020507813 338.1785888671875 C -270.9638977050781 338.168701171875 -260.5752258300781 337.8717041015625 -250.6005249023438 335.3418273925781 C -240.4989013671875 332.7803955078125 -233.9631042480469 328.772705078125 -231.1722106933594 323.43212890625 Z M -255.2463226318359 278.7507019042969 C -255.9446868896484 278.7507019042969 -256.6314086914063 278.7840270996094 -257.289306640625 278.8488159179688 C -261.1845397949219 279.2366943359375 -264.7449035644531 280.5642395019531 -267.3143615722656 282.58740234375 C -269.6858825683594 284.4540100097656 -270.9297485351563 286.6743469238281 -270.72900390625 288.6795043945313 C -270.3294372558594 292.6548156738281 -264.6728820800781 295.768798828125 -257.8508911132813 295.768798828125 C -257.1056823730469 295.768798828125 -256.3487854003906 295.7310180664063 -255.6017913818359 295.6571960449219 C -251.5806274414063 295.2567138671875 -246.1679992675781 293.2101440429688 -243.6029968261719 290.0744934082031 C -242.5005340576172 288.7254028320313 -242.0163116455078 287.2961730957031 -242.164794921875 285.8265075683594 C -242.6309967041016 281.1816101074219 -249.0984191894531 278.7507019042969 -255.2463226318359 278.7507019042969 Z M -158.3846893310547 157.9535980224609 C -173.4345245361328 157.9535980224609 -186.9317932128906 165.7719268798828 -194.4900054931641 178.8687133789063 C -202.0005340576172 191.8836059570313 -202.0113220214844 207.3932952880859 -194.5196838378906 220.3587036132813 C -187.0604705810547 233.2071228027344 -173.1735229492188 241.1882934570313 -158.277587890625 241.1882934570313 C -151.0335235595703 241.1882934570313 -143.8605346679688 239.2668151855469 -137.5353240966797 235.6317138671875 C -117.6308975219727 224.1396026611328 -110.7603149414063 198.6237030029297 -122.219108581543 178.7534942626953 C -129.6998901367188 165.9240264892578 -143.55810546875 157.9535980224609 -158.3846893310547 157.9535980224609 Z M -158.3846893310547 149.41259765625 C -153.6093139648438 149.41259765625 -148.6925811767578 150.1740264892578 -143.7723236083984 151.6770172119141 L -143.7723236083984 12.81239318847656 C -143.7723236083984 10.41749858856201 -145.6524200439453 8.541919708251953 -148.0535736083984 8.541919708251953 L -168.6914825439453 8.541919708251953 C -171.0926818847656 8.541919708251953 -172.9736785888672 10.41749858856201 -172.9736785888672 12.81239318847656 L -172.9736785888672 151.6742858886719 C -168.023681640625 150.1731262207031 -163.1159973144531 149.41259765625 -158.3846893310547 149.41259765625 Z M -90.36000061035156 396.9999084472656 L -99 396.5436096191406 C -97.97310638427734 377.388916015625 -93.72779083251953 358.5375061035156 -86.381103515625 340.5186157226563 C -77.92289733886719 319.7799072265625 -65.70899963378906 300.7386169433594 -50.07778930664063 283.9257202148438 C -48.87810516357422 282.6323852539063 -47.70357894897461 281.3238220214844 -46.55247497558594 279.9999084472656 L -39.99958038330078 285.6051330566406 C -41.21458053588867 287.0010375976563 -42.45210647583008 288.3771362304688 -43.7156867980957 289.7388000488281 C -58.63947677612305 305.7911682128906 -70.2935791015625 323.9595031738281 -78.35847473144531 343.7361450195313 C -85.34789276123047 360.8730163574219 -89.38436889648438 378.7947082519531 -90.36000061035156 396.9999084472656 Z M -142.0002136230469 392.0003967285156 L -158.0003662109375 392.0003967285156 L -158.0003662109375 383.0003967285156 L -142.0002136230469 383.0003967285156 L -142.0002136230469 392.0003967285156 Z M -167.0003662109375 392.0003967285156 L -253.9997863769531 392.0003967285156 L -253.9997863769531 383.0003967285156 L -167.0003662109375 383.0003967285156 L -167.0003662109375 392.0003967285156 Z M -1.548365503367677e-06 383.0003967285156 L -9.000001907348633 383.0003967285156 L -9.000001907348633 374.0003967285156 L -1.548365503367677e-06 374.0003967285156 L -1.548365503367677e-06 383.0003967285156 Z M -17.00010681152344 383.0003967285156 L -26.00010681152344 383.0003967285156 L -26.00010681152344 374.0003967285156 L -17.00010681152344 374.0003967285156 L -17.00010681152344 383.0003967285156 Z M -34.00021362304688 383.0003967285156 L -43.00021362304688 383.0003967285156 L -43.00021362304688 374.0003967285156 L -34.00021362304688 374.0003967285156 L -34.00021362304688 383.0003967285156 Z M -51.00031661987305 383.0003967285156 L -60.00031661987305 383.0003967285156 L -60.00031661987305 374.0003967285156 L -51.00031661987305 374.0003967285156 L -51.00031661987305 383.0003967285156 Z M -324 371.9996948242188 L -378 371.9996948242188 L -378 362.9996948242188 L -324 362.9996948242188 L -324 371.9996948242188 Z M -157.9833221435547 276.0002746582031 C -162.0072174072266 276.0002746582031 -166.0509033203125 275.6763000488281 -170.0001068115234 275.0382385253906 L -168.6698913574219 266.0003967285156 C -165.1564788818359 266.5680847167969 -161.5663604736328 266.8526611328125 -157.9732360839844 266.8526000976563 C -154.7018737792969 266.8525695800781 -151.4278564453125 266.6165771484375 -148.210205078125 266.1434936523438 L -146.9996795654297 275.1983947753906 C -150.6213226318359 275.7294006347656 -154.3148956298828 276.0002746582031 -157.9833221435547 276.0002746582031 Z M -29.08526420593262 270.9999084472656 L -36 266.0724487304688 C -30.91047477722168 258.4574890136719 -26.40510749816895 250.3583984375 -22.60800170898438 242.0001373291016 L -15.00031757354736 245.6864929199219 C -18.99268531799316 254.476806640625 -23.73210716247559 262.9934997558594 -29.08526420593262 270.9999084472656 Z M -126.2978973388672 269.0000915527344 L -129.9995880126953 261.5715026855469 C -123.7644195556641 258.8589172363281 -117.9926834106445 255.30029296875 -112.8420028686523 251.0001373291016 L -107.0001068115234 257.1093444824219 C -112.7934188842773 261.9459228515625 -119.2851104736328 265.9454956054688 -126.2978973388672 269.0000915527344 Z M -203.9814300537109 261.9999084472656 C -210.0555267333984 257.5512390136719 -215.4455871582031 252.2367095947266 -219.9995880126953 246.2076110839844 L -213.2532196044922 241.0001831054688 C -209.201416015625 246.3651275634766 -204.4062194824219 251.0928192138672 -198.9998931884766 255.0537109375 L -203.9814300537109 261.9999084472656 Z M -92.76389312744141 239.0003967285156 L -99.99989318847656 234.513916015625 C -96.50789642333984 228.7458190917969 -93.88889312744141 222.5178070068359 -92.21400451660156 216.0000305175781 L -83.99968719482422 218.1591339111328 C -85.8834228515625 225.4968109130859 -88.83268737792969 232.5095977783203 -92.76389312744141 239.0003967285156 Z M -230.5656280517578 225.9999237060547 C -233.0666809082031 218.7953948974609 -234.5579986572266 211.2390289306641 -234.9998931884766 203.5403900146484 L -226.9367980957031 203.0003967285156 C -226.5444183349609 209.8431243896484 -225.2186889648438 216.5543975830078 -223.0002136230469 222.9524993896484 L -230.5656280517578 225.9999237060547 Z M -157.9622650146484 224.0000762939453 C -166.6130523681641 224.0006561279297 -175.0260467529297 219.5026092529297 -179.64990234375 211.4829254150391 C -186.5456848144531 199.5228118896484 -182.4561004638672 184.2002868652344 -170.5014190673828 177.2919158935547 C -166.691650390625 175.0880737304688 -162.3665771484375 173.9997100830078 -158.0446014404297 173.9997100830078 C -153.1162567138672 173.9997100830078 -148.1921844482422 175.4155426025391 -144.0449981689453 178.2071838378906 L -148.7807922363281 185.2659149169922 C -151.528076171875 183.4180603027344 -154.7793273925781 182.4777984619141 -158.0354309082031 182.4777984619141 C -160.8818206787109 182.4777984619141 -163.7320251464844 183.1965179443359 -166.2515869140625 184.6557159423828 C -174.1383209228516 189.2132873535156 -176.8500061035156 199.3356018066406 -172.2924194335938 207.2312927246094 C -169.2872924804688 212.4472808837891 -163.7323913574219 215.5027618408203 -157.9605407714844 215.5022888183594 C -155.1844329833984 215.5020751953125 -152.3571166992188 214.7948913574219 -149.7411041259766 213.2811279296875 C -143.8560028076172 209.8809204101563 -140.6232147216797 203.0751342773438 -141.6933135986328 196.3449249267578 L -133.3071136474609 195.0083923339844 C -131.6862182617188 205.1928100585938 -136.5839996337891 215.4950714111328 -145.4922180175781 220.6440277099609 C -149.42626953125 222.9194488525391 -153.7234191894531 223.9998168945313 -157.9622650146484 224.0000762939453 Z M -90.35821533203125 196.0001831054688 C -90.61920928955078 189.117919921875 -91.84320831298828 182.3462829589844 -93.99958038330078 175.8726043701172 L -86.09942626953125 172.9998168945313 C -83.67031860351563 180.2898101806641 -82.29241943359375 187.9119262695313 -81.99989318847656 195.6546020507813 L -90.35821533203125 196.0001831054688 Z M -224.5445861816406 182.9997100830078 L -233.0001068115234 181.0305023193359 C -231.2414703369141 173.6522827148438 -228.3840026855469 166.5756072998047 -224.5085754394531 160.0001831054688 L -216.9998931884766 164.3166046142578 C -220.4424285888672 170.1584930419922 -222.9822082519531 176.4459228515625 -224.5445861816406 182.9997100830078 Z M -102.9303207397461 159.0002899169922 C -106.8974761962891 153.5984954833984 -111.6305770874023 148.8105010986328 -117 144.7668151855469 L -111.8186874389648 137.9997100830078 C -105.7824249267578 142.5429229736328 -100.4606857299805 147.9267120361328 -96.00032043457031 153.9962921142578 L -102.9303207397461 159.0002899169922 Z M -338.5700988769531 153.0000305175781 L -347.0003662109375 152.0838165283203 C -345.6711120605469 139.4469146728516 -342.9917907714844 126.9692840576172 -339.0408020019531 115.0002365112305 L -331.0002136230469 117.7362365722656 C -334.7568054199219 129.1149139404297 -337.3038024902344 140.9787139892578 -338.5700988769531 153.0000305175781 Z M -205.2476806640625 149.0003967285156 L -210.9995880126953 142.7751312255859 C -205.5446929931641 137.6243896484375 -199.3950042724609 133.3269195556641 -192.7277984619141 129.9996032714844 L -189 137.6388092041016 C -194.9264678955078 140.5952911376953 -200.3948974609375 144.4176025390625 -205.2476806640625 149.0003967285156 Z M -319.4532165527344 95.00039672851563 L -326.9996948242188 91.01792144775391 C -302.4098815917969 44.17202377319336 -256.6863098144531 9.222288131713867 -201.3993225097656 2.454898276482709e-05 L -199.9997863769531 8.433024406433105 C -252.4374237060547 17.17828750610352 -296.0082092285156 50.34870910644531 -319.4532165527344 95.00039672851563 Z M -342 54.00002288818359 L -351 54.00002288818359 L -351 45.00002288818359 L -342 45.00002288818359 L -342 54.00002288818359 Z M -359.0001220703125 54.00002288818359 L -368.0001220703125 54.00002288818359 L -368.0001220703125 45.00002288818359 L -359.0001220703125 45.00002288818359 L -359.0001220703125 54.00002288818359 Z M -376.0002136230469 54.00002288818359 L -385.0002136230469 54.00002288818359 L -385.0002136230469 45.00002288818359 L -376.0002136230469 45.00002288818359 L -376.0002136230469 54.00002288818359 Z M -7.0002121925354 39.99960327148438 L -16.00021171569824 39.99960327148438 L -16.00021171569824 30.99960327148438 L -7.0002121925354 30.99960327148438 L -7.0002121925354 39.99960327148438 Z M -24.00031661987305 39.99960327148438 L -33.00031661987305 39.99960327148438 L -33.00031661987305 30.99960327148438 L -24.00031661987305 30.99960327148438 L -24.00031661987305 39.99960327148438 Z M -41.00037002563477 39.99960327148438 L -50.00037002563477 39.99960327148438 L -50.00037002563477 30.99960327148438 L -41.00037002563477 30.99960327148438 L -41.00037002563477 39.99960327148438 Z M -57.99958038330078 39.99960327148438 L -66.99958038330078 39.99960327148438 L -66.99958038330078 30.99960327148438 L -57.99958038330078 30.99960327148438 L -57.99958038330078 39.99960327148438 Z M -75.88979339599609 39.99960327148438 L -78.110107421875 39.99960327148438 L -78.110107421875 30.99960327148438 L -75.88979339599609 30.99960327148438 L -75.88979339599609 39.99960327148438 Z M -7.0002121925354 21.99960327148438 L -78.00032043457031 21.99960327148438 L -78.00032043457031 12.99960327148438 L -7.0002121925354 12.99960327148438 L -7.0002121925354 21.99960327148438 Z" stroke="none" fill="#444e5b"/>
    </g>
    <path id="Path_Copy_11" data-name="Path Copy 11" d="M-20.861,77.678A41.722,41.722,0,0,0-5.544,20.8,42.017,42.017,0,0,0-41.71,0C-73.586,0-93.883,34.65-77.844,62.4A41.846,41.846,0,0,0-20.861,77.678Z" transform="translate(-116.675 157.954)" fill="#444e5b" opacity="0.45"/>
  </g>
</svg>
