<svg xmlns="http://www.w3.org/2000/svg" width="411" height="411" viewBox="0 0 411 411">
  <g id="seo-and-web" transform="translate(0 0)">
    <g id="Combined_Shape" data-name="Combined Shape" transform="translate(0 0)" fill="none" stroke-miterlimit="10">
      <path d="M0,205.5C0,92.187,92.187,0,205.5,0S411,92.187,411,205.5,318.813,411,205.5,411,0,318.813,0,205.5ZM294.521,341.559a161.708,161.708,0,0,1-84.74,26.519v34.25a196.242,196.242,0,0,0,131.81-54.684l-24.207-24.206A164.12,164.12,0,0,1,294.521,341.559ZM69.408,347.645a196.243,196.243,0,0,0,131.81,54.684v-34.25a161.693,161.693,0,0,1-84.74-26.52,164.178,164.178,0,0,1-22.864-18.121ZM51.375,205.5c0,84.985,69.14,154.125,154.125,154.125S359.625,290.485,359.625,205.5,290.485,51.375,205.5,51.375,51.375,120.515,51.375,205.5Zm304.02,63.111a163.1,163.1,0,0,1-31.956,48.774l24.206,24.206a196.239,196.239,0,0,0,54.684-131.81h-34.25A161.314,161.314,0,0,1,355.395,268.61ZM63.354,341.591l24.207-24.207A163.106,163.106,0,0,1,55.6,268.609a161.324,161.324,0,0,1-12.684-58.828H8.672A196.24,196.24,0,0,0,63.354,341.591ZM323.438,93.614a163.085,163.085,0,0,1,31.957,48.774,161.323,161.323,0,0,1,12.684,58.83h34.25A196.245,196.245,0,0,0,347.644,69.407ZM8.672,201.218h34.25A161.708,161.708,0,0,1,69.44,116.479,164.173,164.173,0,0,1,87.561,93.615L63.355,69.409A196.241,196.241,0,0,0,8.672,201.218Zm201.11-158.3A161.708,161.708,0,0,1,294.52,69.44a164.171,164.171,0,0,1,22.864,18.121l24.207-24.208A196.251,196.251,0,0,0,209.781,8.671ZM69.409,63.355,93.615,87.561A163.105,163.105,0,0,1,142.389,55.6a161.315,161.315,0,0,1,58.829-12.684V8.671A196.242,196.242,0,0,0,69.409,63.355ZM192.271,341.869l.82-8.525c4.092.4,8.269.594,12.408.594V342.5C201.087,342.5,196.637,342.287,192.271,341.869Zm-25.98-5.086,2.454-8.2c3.949,1.182,8,2.183,12.056,2.975l-1.643,8.4C174.833,339.111,170.506,338.043,166.291,336.783Zm-24.5-10.018,3.992-7.575c3.663,1.931,7.448,3.7,11.255,5.255l-3.24,7.927C149.736,330.71,145.695,328.822,141.79,326.765Zm-22.113-14.549,5.377-6.664c3.207,2.586,6.583,5.05,10.036,7.321l-4.708,7.153C126.7,317.6,123.1,314.975,119.677,312.215Zm-18.923-18.5,6.542-5.523c2.663,3.156,5.511,6.222,8.463,9.1l-5.987,6.125C106.626,300.344,103.593,297.078,100.754,293.715Zm185.491-1.478a24.02,24.02,0,0,1-14.844-5.126l-49.9-37.989-6.917,8.851-21.524-16.821a74.209,74.209,0,1,1,43.467-55.687l21.556,16.847-6.852,8.768,49.855,37.963a24.147,24.147,0,0,1-4.41,40.834,24.357,24.357,0,0,1-10.433,2.361Zm-59.46-49.857,49.847,37.955a15.577,15.577,0,1,0,19.226-24.513l-49.889-37.987ZM221.6,219.125a73.778,73.778,0,0,1-20.156,17.708l11.669,9.119,32.953-42.166-11.744-9.178h0A73.916,73.916,0,0,1,221.6,219.125Zm-109.906-86.4a65.62,65.62,0,0,0,51.651,106.027c34.4,0,54.517-22.832,61.876-44.2,9.294-26.987.887-55.689-21.42-73.123a65.607,65.607,0,0,0-92.107,11.3Zm100.254,159.5v-8.563h10.9v8.563Zm-48.6,0v-8.563h35.093v8.563Zm-77.632-20.3,7.484-4.164c2,3.6,4.208,7.15,6.559,10.548l-7.044,4.871C90.2,279.563,87.847,275.777,85.711,271.937ZM75.139,247.668l8.144-2.642c1.272,3.919,2.754,7.829,4.4,11.615l-7.852,3.42C78.076,256.02,76.5,251.85,75.139,247.668Zm-5.674-25.852,8.5-1.016c.49,4.106,1.185,8.224,2.067,12.246l-8.366,1.831C70.733,230.589,69.99,226.193,69.466,221.816Zm58.791-3.725A57.123,57.123,0,0,1,118.437,138a56.375,56.375,0,0,1,31.479-20.327L151.924,126a47.917,47.917,0,0,0-26.741,17.275,48.55,48.55,0,0,0,8.345,68.067,48,48,0,0,0,29.817,10.289c46.22,0,65.92-58.561,29.911-86.705a47.884,47.884,0,0,0-20.2-9.338l1.689-8.4a56.378,56.378,0,0,1,23.781,10.985c42.383,33.129,19.173,102.016-35.184,102.016A56.484,56.484,0,0,1,128.256,218.091ZM138.8,204.6A40,40,0,0,1,127,189.549l7.809-3.507a31.357,31.357,0,0,0,28.537,18.465v8.563A39.523,39.523,0,0,1,138.8,204.6Zm-70.3.895,8.563.016q0,1.453.029,2.9l-8.558.2Q68.5,207.049,68.5,205.492Zm265.438,0q0-1.453-.03-2.9l8.558-.2q.038,1.553.034,3.11Zm-2.974-27.538,8.365-1.831c.939,4.288,1.681,8.684,2.205,13.061l-8.5,1.016C332.541,186.094,331.845,181.976,330.963,177.953Zm-207.2-9.653,8.5,1.029a31.531,31.531,0,0,0,.648,11.164l-8.324,2A39.987,39.987,0,0,1,123.765,168.3Zm199.548-13.941,7.853-3.42c1.758,4.041,3.338,8.212,4.694,12.392l-8.144,2.642C326.445,162.054,324.963,158.144,323.313,154.359Zm-46.826,4.663V150.46h35.094v8.562Zm-24.412,0V150.46h10.9v8.562Zm59.17-26.343,7.045-4.871c2.507,3.629,4.863,7.415,7,11.255l-7.484,4.164C315.8,139.628,313.6,136.078,311.245,132.679Zm-16-18.975,5.987-6.125c3.146,3.077,6.179,6.342,9.018,9.706l-6.542,5.523C301.04,119.651,298.193,116.587,295.241,113.7ZM275.91,98.128l4.708-7.153c3.682,2.423,7.284,5.05,10.706,7.809l-5.377,6.664C282.74,102.863,279.364,100.4,275.91,98.128ZM253.963,86.555l3.24-7.927c4.062,1.662,8.1,3.55,12.008,5.607l-3.992,7.575C261.555,89.879,257.77,88.113,253.963,86.555ZM230.2,79.446l1.643-8.4c4.325.847,8.653,1.915,12.866,3.176l-2.454,8.2C238.306,81.239,234.25,80.238,230.2,79.446Zm-24.7-2.383V68.5c4.413,0,8.864.213,13.228.631l-.819,8.525C213.816,77.261,209.639,77.063,205.5,77.063Zm-152.42-39.6V28.9H67.228v8.563Zm-36.661,0V28.9H44.076v8.563Z" stroke="none"/>
      <path d="M 205.4997253417969 1 C 92.73822021484375 1 1 92.73822021484375 1 205.4997253417969 C 1 318.26171875 92.73822021484375 410.0003051757813 205.4997253417969 410.0003051757813 C 318.26171875 410.0003051757813 410.0003051757813 318.26171875 410.0003051757813 205.4997253417969 C 410.0003051757813 92.73822021484375 318.26171875 1 205.4997253417969 1 M 93.59710693359375 88.95700073242188 L 92.908203125 88.26809692382813 L 68.7017822265625 64.06173706054688 L 67.979248046875 63.33920288085938 L 68.71719360351563 62.63247680664063 C 104.607421875 28.25640869140625 151.6563110351563 8.7373046875 201.1968841552734 7.6707763671875 L 202.2184143066406 7.648834228515625 L 202.2184143066406 8.670562744140625 L 202.2184143066406 42.92098999023438 L 202.2184143066406 43.89532470703125 L 201.2444152832031 43.92068481445313 C 180.9995727539063 44.44747924804688 161.3286743164063 48.6884765625 142.7781066894531 56.52587890625 C 133.8365173339844 60.30282592773438 125.1728515625 64.92913818359375 117.0276184082031 70.27642822265625 C 108.9631652832031 75.56979370117188 101.3177185058594 81.62921142578125 94.30374145507813 88.28631591796875 L 93.59710693359375 88.95700073242188 M 317.4014282226563 88.95700073242188 L 316.6947937011719 88.28631591796875 C 309.6817932128906 81.6302490234375 302.036376953125 75.57083129882813 293.9707946777344 70.2763671875 C 285.8256225585938 64.92913818359375 277.1619262695313 60.30282592773438 268.2202758789063 56.52584838867188 C 249.6716766357422 48.6884765625 230.0010986328125 44.447509765625 209.7549896240234 43.92068481445313 L 208.7809906005859 43.89532470703125 L 208.7809906005859 42.92098999023438 L 208.7809906005859 8.670562744140625 L 208.7809906005859 7.648834228515625 L 209.8025207519531 7.6707763671875 C 259.3424072265625 8.7373046875 306.3912658691406 28.2557373046875 342.2821960449219 62.63058471679688 L 343.0201416015625 63.33737182617188 L 342.297607421875 64.05987548828125 L 318.0903015136719 88.26809692382813 L 317.4014282226563 88.95700073242188 M 205.4997253417969 360.6246948242188 C 119.9634704589844 360.6246948242188 50.37466430664063 291.0359497070313 50.37466430664063 205.4997253417969 C 50.37466430664063 119.9634704589844 119.9634704589844 50.37466430664063 205.4997253417969 50.37466430664063 C 291.0359497070313 50.37466430664063 360.6246948242188 119.9634704589844 360.6246948242188 205.4997253417969 C 360.6246948242188 291.0359497070313 291.0359497070313 360.6246948242188 205.4997253417969 360.6246948242188 M 403.3505249023438 202.2184143066406 L 402.3287963867188 202.2184143066406 L 368.0784301757813 202.2184143066406 L 367.1040954589844 202.2184143066406 L 367.0787353515625 201.2444152832031 C 366.5519409179688 180.9998931884766 362.3109436035156 161.3286743164063 354.4735717773438 142.7773132324219 C 350.6941528320313 133.8320007324219 346.0677795410156 125.1682434082031 340.7230529785156 117.0267944335938 C 335.427978515625 108.9611511230469 329.3682556152344 101.3157348632813 322.712158203125 94.30282592773438 L 322.0414733886719 93.59619140625 L 322.7303466796875 92.90731811523438 L 346.936767578125 68.69998168945313 L 347.6592407226563 67.97747802734375 L 348.3660583496094 68.71542358398438 C 382.7426147460938 104.6061401367188 402.2620544433594 151.6556701660156 403.3285827636719 201.1968841552734 L 403.3505249023438 202.2184143066406 M 43.89532470703125 202.2184143066406 L 42.92098999023438 202.2184143066406 L 8.6715087890625 202.2184143066406 L 7.6497802734375 202.2184143066406 L 7.671722412109375 201.1968841552734 C 8.7373046875 151.6575622558594 28.25604248046875 104.6086730957031 62.63241577148438 68.71719360351563 L 63.33920288085938 67.979248046875 L 64.06173706054688 68.7017822265625 L 88.26809692382813 92.908203125 L 88.95700073242188 93.59710693359375 L 88.28631591796875 94.30374145507813 C 81.63015747070313 101.3167724609375 75.57073974609375 108.9622497558594 70.2763671875 117.0276794433594 C 64.93167114257813 125.1690063476563 60.3052978515625 133.8327331542969 56.52584838867188 142.7781982421875 C 48.6884765625 161.3277282714844 44.44747924804688 180.9986267089844 43.92068481445313 201.2444152832031 L 43.89532470703125 202.2184143066406 M 63.3382568359375 343.0201416015625 L 62.6314697265625 342.2821960449219 C 28.2557373046875 306.3912963867188 8.7373046875 259.3424072265625 7.671722412109375 209.8025207519531 L 7.6497802734375 208.7809906005859 L 8.6715087890625 208.7809906005859 L 42.92098999023438 208.7809906005859 L 43.895263671875 208.7809906005859 L 43.92068481445313 209.7549438476563 C 44.44842529296875 230.0023651123047 48.68942260742188 249.6729431152344 56.52584838867188 268.2202758789063 C 60.3052978515625 277.1657104492188 64.93167114257813 285.8294677734375 70.27642822265625 293.9708251953125 C 75.56979370117188 302.0352478027344 81.629150390625 309.6807250976563 88.28631591796875 316.6947937011719 L 88.95700073242188 317.4014282226563 L 88.26809692382813 318.0903015136719 L 64.060791015625 342.297607421875 L 63.3382568359375 343.0201416015625 M 347.66015625 343.0201416015625 L 346.9376831054688 342.297607421875 L 322.7313232421875 318.0911865234375 L 322.0424194335938 317.4023132324219 L 322.7131042480469 316.6956787109375 C 329.3711547851563 309.6806335449219 335.4305725097656 302.0352172851563 340.7230529785156 293.9717407226563 C 346.0702514648438 285.8265686035156 350.6965637207031 277.1629028320313 354.4735717773438 268.2212524414063 C 362.3109436035156 249.6707305908203 366.5519409179688 229.9998321533203 367.0787353515625 209.7549896240234 L 367.1040954589844 208.7809906005859 L 368.0784301757813 208.7809906005859 L 402.3287963867188 208.7809906005859 L 403.3505249023438 208.7809906005859 L 403.3285827636719 209.8025207519531 C 402.2620544433594 259.3440551757813 382.7429504394531 306.3928833007813 348.366943359375 342.2822570800781 L 347.66015625 343.0201416015625 M 202.2184143066406 403.3505249023438 L 201.1968841552734 403.3285827636719 C 151.6556701660156 402.2620544433594 104.6065063476563 382.7429809570313 68.71630859375 348.366943359375 L 67.97842407226563 347.6602172851563 L 68.70083618164063 346.9376831054688 L 92.90725708007813 322.7295227050781 L 93.59616088867188 322.0406188964844 L 94.30282592773438 322.7113037109375 C 101.3179321289063 329.3693542480469 108.9633483886719 335.4291076660156 117.0268249511719 340.7221984863281 C 125.1654052734375 346.0659484863281 133.8291625976563 350.6925659179688 142.7772521972656 354.4735717773438 C 161.3277893066406 362.3109436035156 180.9989471435547 366.5519409179688 201.2444152832031 367.0787353515625 L 202.2184143066406 367.1040954589844 L 202.2184143066406 368.0784301757813 L 202.2184143066406 402.3287963867188 L 202.2184143066406 403.3505249023438 M 208.7809906005859 403.3505249023438 L 208.7809906005859 402.3287963867188 L 208.7809906005859 368.0784301757813 L 208.7809906005859 367.1040954589844 L 209.7549896240234 367.0787353515625 C 229.9998321533203 366.5519409179688 249.6707305908203 362.3109436035156 268.2213134765625 354.4735107421875 C 277.1629028320313 350.6965637207031 285.8265686035156 346.0702514648438 293.9718017578125 340.7229919433594 C 302.0352172851563 335.4305725097656 309.6806335449219 329.3711547851563 316.6956787109375 322.7131042480469 L 317.4023132324219 322.0424194335938 L 318.0911865234375 322.7313232421875 L 342.2985229492188 346.9376831054688 L 343.0210571289063 347.66015625 L 342.2830810546875 348.366943359375 C 306.3929443359375 382.7429504394531 259.3437805175781 402.2620544433594 209.8025207519531 403.3285827636719 L 208.7809906005859 403.3505249023438 M 17.41867065429688 29.89810180664063 L 17.41867065429688 36.460693359375 L 43.07574462890625 36.460693359375 L 43.07574462890625 29.89810180664063 L 17.41867065429688 29.89810180664063 M 54.07925415039063 29.89810180664063 L 54.07925415039063 36.460693359375 L 66.22821044921875 36.460693359375 L 66.22821044921875 29.89810180664063 L 54.07925415039063 29.89810180664063 M 206.4997253417969 69.50357055664063 L 206.4997253417969 76.0662841796875 C 210.0194854736328 76.09310913085938 213.5455474853516 76.261474609375 217.0087585449219 76.56808471679688 L 217.6364440917969 70.03463745117188 C 213.9465484619141 69.708984375 210.2091522216797 69.53076171875 206.4997253417969 69.50357055664063 M 232.6305694580078 72.21875 L 231.3710021972656 78.66000366210938 C 234.7989654541016 79.35821533203125 238.2246398925781 80.20343017578125 241.5813903808594 81.17922973632813 L 243.4624328613281 74.89254760742188 C 239.9031066894531 73.85653686523438 236.2681884765625 72.95925903320313 232.6305694580078 72.21875 M 257.7486267089844 79.93548583984375 L 255.2652587890625 86.011474609375 C 258.4929809570313 87.36184692382813 261.69140625 88.85519409179688 264.7981262207031 90.4622802734375 L 267.8579711914063 84.65640258789063 C 264.5534057617188 82.94625854492188 261.1607055664063 81.36187744140625 257.7486267089844 79.93548583984375 M 280.9017944335938 92.36279296875 L 277.29345703125 97.84530639648438 C 280.1994018554688 99.78897094726563 283.0518798828125 101.8695068359375 285.7940673828125 104.0455017089844 L 289.9150085449219 98.93746948242188 C 287.0148620605469 96.63427734375 283.990234375 94.42800903320313 280.9017944335938 92.36279296875 M 163.4408874511719 99.951416015625 C 140.73193359375 99.951416015625 119.6983642578125 110.2012634277344 105.7333068847656 128.0729370117188 C 99.6600341796875 135.8429565429688 95.29104614257813 144.5793151855469 92.74761962890625 154.0393676757813 C 91.52548217773438 158.5852508544922 90.74099731445313 163.2796325683594 90.41604614257813 167.9920501708984 C 90.09414672851563 172.6598358154297 90.22021484375 177.3853149414063 90.79061889648438 182.0373077392578 C 91.36105346679688 186.6892547607422 92.38046264648438 191.3053131103516 93.82058715820313 195.7571563720703 C 95.2745361328125 200.2516784667969 97.16995239257813 204.61767578125 99.45431518554688 208.73388671875 C 104.2080383300781 217.2998962402344 110.5586242675781 224.7228393554688 118.3294067382813 230.7964630126953 C 131.3248901367188 240.9514617919922 146.8908996582031 246.3191070556641 163.3446197509766 246.3191070556641 C 173.5265197753906 246.3191070556641 183.3907775878906 244.2719421386719 192.6634216308594 240.2345733642578 L 193.2092590332031 239.9968872070313 L 193.6783599853516 240.3634643554688 L 214.4148712158203 256.5687866210938 L 220.7165222167969 248.5059967041016 L 221.3245697021484 247.7279968261719 L 222.1101989746094 248.3261566162109 L 272.007080078125 286.3151550292969 L 272.01220703125 286.3190307617188 L 272.0172729492188 286.322998046875 C 274.0903930664063 287.9438781738281 276.3910522460938 289.1886901855469 278.8553466796875 290.0227661132813 C 281.2330932617188 290.8277893066406 283.7194213867188 291.2363586425781 286.2458801269531 291.2372131347656 C 289.689208984375 291.2372131347656 293.1477661132813 290.4546203613281 296.2479858398438 288.9739990234375 C 299.4921875 287.4256286621094 302.2680969238281 285.194091796875 304.4982604980469 282.3417358398438 C 306.417724609375 279.8844604492188 307.8007202148438 277.126953125 308.6087341308594 274.1455688476563 C 309.391845703125 271.2582397460938 309.6051025390625 268.283203125 309.2427368164063 265.3028869628906 C 308.4967346191406 259.1621704101563 305.3844604492188 253.6692810058594 300.4786682128906 249.8349914550781 L 250.6282653808594 211.8753051757813 L 249.8226318359375 211.2618865966797 L 250.4461517333984 210.4639892578125 L 256.6821899414063 202.4840393066406 L 235.9140930175781 186.252685546875 L 235.4456787109375 185.8866271972656 L 235.5435180664063 185.3002624511719 C 237.6771545410156 172.5103607177734 236.3826293945313 159.3307342529297 231.7998962402344 147.1862487792969 C 229.4857330322266 141.0533752441406 226.3610534667969 135.2674560546875 222.5126190185547 129.9894104003906 C 218.5416259765625 124.5438842773438 213.8125762939453 119.66015625 208.4569396972656 115.4740600585938 C 195.4626770019531 105.3190612792969 179.8964233398438 99.951416015625 163.4408874511719 99.951416015625 M 163.3446197509766 239.7565155029297 C 148.3659362792969 239.7565155029297 134.1971435546875 234.8698883056641 122.3700866699219 225.625 C 108.3712463378906 214.6845245361328 99.46820068359375 198.9214172363281 97.30093383789063 181.2395172119141 C 95.13272094726563 163.5579986572266 99.96435546875 146.1113586425781 110.9056396484375 132.1136169433594 C 123.6173706054688 115.8446655273438 142.7657165527344 106.5140075683594 163.4408874511719 106.5140075683594 C 178.419677734375 106.5140075683594 192.5887908935547 111.4009399414063 204.4163055419922 120.6464233398438 C 227.0641479492188 138.3471069335938 235.6014099121094 167.4867858886719 226.1660003662109 194.8831481933594 C 218.6943054199219 216.5763702392578 198.2674102783203 239.7565155029297 163.3446197509766 239.7565155029297 M 213.2840423583984 247.3556823730469 L 212.4961547851563 246.7399444580078 L 200.8276824951172 237.6211547851563 L 199.6793060302734 236.7237243652344 L 200.9297790527344 235.9752044677734 C 208.622314453125 231.3704681396484 215.3123626708984 225.4930419921875 220.8141021728516 218.5061492919922 C 226.4689483642578 211.324462890625 230.6909942626953 203.1868896484375 233.3629455566406 194.3193664550781 L 233.5782012939453 193.6078948974609 L 234.3213043212891 193.6078948974609 L 234.6657257080078 193.6078948974609 L 234.9371032714844 193.8199462890625 L 246.6811981201172 202.9981536865234 L 247.4691009521484 203.6139373779297 L 246.8533172607422 204.4018859863281 L 213.8997802734375 246.5677795410156 L 213.2840423583984 247.3556823730469 M 286.2792053222656 284.6736755371094 L 286.2791137695313 284.6736755371094 L 286.2789306640625 284.6736755371094 C 282.5374450683594 284.6727905273438 278.99072265625 283.4464111328125 276.0216674804688 281.1268310546875 L 226.1788940429688 243.1755218505859 L 225.3731536865234 242.5619964599609 L 225.9967803955078 241.7640991210938 L 245.1811981201172 217.2184143066406 L 245.7892608642578 216.4403686523438 L 246.5748901367188 217.03857421875 L 296.4636840820313 255.0257873535156 L 296.4686889648438 255.0295715332031 L 296.4735717773438 255.0334167480469 C 299.9642639160156 257.7608337402344 302.1836853027344 261.681396484375 302.7229919433594 266.0731506347656 C 303.2611999511719 270.4652099609375 302.0548400878906 274.8076782226563 299.3261108398438 278.3007202148438 C 296.1619262695313 282.350830078125 291.4065246582031 284.6736755371094 286.2792053222656 284.6736755371094 M 301.2415771484375 108.9957885742188 L 296.653076171875 113.6905212402344 C 299.1291198730469 116.1467895507813 301.5336303710938 118.7335205078125 303.8202819824219 121.4009094238281 L 308.8343200683594 117.1676940917969 C 306.4181213378906 114.3470458984375 303.8703002929688 111.6048889160156 301.2415771484375 108.9957885742188 M 175.5290069580078 118.3787536621094 L 174.2340087890625 124.8143615722656 C 181.3765258789063 126.4006958007813 187.9783935546875 129.5345764160156 193.8718872070313 134.1383056640625 C 210.7007293701172 147.2916870117188 217.0464630126953 168.9376831054688 210.0384216308594 189.2840423583984 C 202.9535675048828 209.8533630371094 185.0615692138672 222.6313171386719 163.3446197509766 222.6313171386719 C 152.2257385253906 222.6313171386719 141.7022705078125 219.0001525878906 132.9117431640625 212.1303558349609 C 111.4139404296875 195.3259887695313 107.5933227539063 164.1615753173828 124.3950500488281 142.6594543457031 C 131.1558227539063 134.0147094726563 140.2406616210938 128.0183410644531 150.7193298339844 125.2718200683594 L 149.1808776855469 118.8908081054688 C 137.2467651367188 121.988525390625 126.9053344726563 128.7944641113281 119.2252502441406 138.6190490722656 C 100.1943664550781 162.9710998535156 104.5219421386719 198.2684631347656 128.8720092773438 217.302734375 C 138.826416015625 225.0820007324219 150.746826171875 229.1938934326172 163.3446197509766 229.1938934326172 C 169.8062591552734 229.1938934326172 176.0300445556641 228.1982574462891 181.8430480957031 226.234619140625 C 187.3374633789063 224.3786315917969 192.4600524902344 221.6626739501953 197.0685272216797 218.1622619628906 C 201.4846801757813 214.8078918457031 205.3844146728516 210.7705688476563 208.6593627929688 206.1625213623047 C 211.8576812744141 201.6623077392578 214.4013671875 196.7036743164063 216.2198944091797 191.4243621826172 C 218.0445709228516 186.1271514892578 219.0975189208984 180.6285705566406 219.3495178222656 175.0814666748047 C 219.6071014404297 169.4120483398438 219.0208435058594 163.8067779541016 217.6070404052734 158.4214630126953 C 216.1335754394531 152.8089294433594 213.7760009765625 147.5040893554688 210.5997314453125 142.654296875 C 207.2417297363281 137.5270385742188 202.9731597900391 132.9215698242188 197.9126739501953 128.9660339355469 C 191.2081756591797 123.7283020019531 183.6826324462891 120.1693725585938 175.5290069580078 118.3787536621094 M 318.0331726074219 129.2016906738281 L 312.6334533691406 132.9348449707031 C 314.60498046875 135.8331604003906 316.4695129394531 138.831298828125 318.1898498535156 141.869384765625 L 323.9256591796875 138.6776428222656 C 322.1067810058594 135.4646606445313 320.1293029785156 132.28466796875 318.0331726074219 129.2016906738281 M 253.0756225585938 151.460205078125 L 253.0756225585938 158.0218963623047 L 261.97998046875 158.0218963623047 L 261.97998046875 151.460205078125 L 253.0756225585938 151.460205078125 M 277.4871826171875 151.460205078125 L 277.4871826171875 158.0218963623047 L 310.5808715820313 158.0218963623047 L 310.5808715820313 151.460205078125 L 277.4871826171875 151.460205078125 M 330.6444702148438 152.2568664550781 L 324.6260681152344 154.8780212402344 C 326.0003662109375 158.1003265380859 327.2515258789063 161.4008026123047 328.3551025390625 164.71484375 L 334.5968322753906 162.6896667480469 C 333.427978515625 159.1767425537109 332.1017150878906 155.6758880615234 330.6444702148438 152.2568664550781 M 124.6505126953125 169.4144134521484 C 124.2720947265625 173.3852996826172 124.5034790039063 177.3678131103516 125.3398742675781 181.2816314697266 L 131.7221069335938 179.7497406005859 C 131.0667114257813 176.5987091064453 130.8806762695313 173.3963012695313 131.16748046875 170.2031402587891 L 124.6505126953125 169.4144134521484 M 338.5621337890625 177.3142242431641 L 332.1505432128906 178.71728515625 C 332.8721008300781 182.1364593505859 333.4595336914063 185.616455078125 333.9012451171875 189.0885772705078 L 340.4183654785156 188.3097991943359 C 339.949951171875 184.6268310546875 339.3270263671875 180.9369506835938 338.5621337890625 177.3142242431641 M 134.3178100585938 187.3573760986328 L 128.331298828125 190.0460357666016 C 130.9051513671875 195.3941802978516 134.7215881347656 200.1368103027344 139.4154052734375 203.8089904785156 C 146.0684814453125 209.0066680908203 153.9761047363281 211.8476104736328 162.3436737060547 212.0571136474609 L 162.3436737060547 205.4919281005859 C 155.4527893066406 205.2839050292969 148.9425048828125 202.9251403808594 143.4576110839844 198.6382598876953 C 139.5393981933594 195.5730590820313 136.4681701660156 191.7813262939453 134.3178100585938 187.3573760986328 M 341.4862976074219 203.4201354980469 L 334.9256286621094 203.5705108642578 C 334.9299926757813 203.8815765380859 334.9332275390625 204.1895751953125 334.9352722167969 204.4935150146484 L 341.4981079101563 204.5059356689453 C 341.4957580566406 204.1413421630859 341.4918212890625 203.7790222167969 341.4862976074219 203.4201354980469 M 69.50216674804688 206.4935302734375 C 69.50442504882813 206.8569946289063 69.50827026367188 207.2192687988281 69.51370239257813 207.5792541503906 L 76.0743408203125 207.4288330078125 C 76.07003784179688 207.1155090332031 76.06689453125 206.8084411621094 76.06488037109375 206.5059509277344 L 69.50216674804688 206.4935302734375 M 77.09906005859375 221.9108276367188 L 70.58123779296875 222.6896057128906 C 71.05038452148438 226.3735656738281 71.6734619140625 230.0636291503906 72.43820190429688 233.6859893798828 L 78.84979248046875 232.2822418212891 C 78.12811279296875 228.8627014160156 77.54067993164063 225.3825836181641 77.09906005859375 221.9108276367188 M 82.64447021484375 246.2845153808594 L 76.40267944335938 248.3097076416016 C 77.57461547851563 251.8309936523438 78.901123046875 255.3319549560547 80.35562133789063 258.7427062988281 L 86.37359619140625 256.1213989257813 C 84.99984741210938 252.8989868164063 83.74871826171875 249.5986785888672 82.64447021484375 246.2845153808594 M 92.81039428710938 269.1308288574219 L 87.07391357421875 272.3226013183594 C 88.8958740234375 275.5399780273438 90.87319946289063 278.71923828125 92.96697998046875 281.7977600097656 L 98.36587524414063 278.0646362304688 C 96.39724731445313 275.171142578125 94.5333251953125 272.1737670898438 92.81039428710938 269.1308288574219 M 164.3427886962891 284.6709899902344 L 164.3427886962891 291.233642578125 L 197.4356231689453 291.233642578125 L 197.4356231689453 284.6709899902344 L 164.3427886962891 284.6709899902344 M 212.9473114013672 284.6709899902344 L 212.9473114013672 291.233642578125 L 221.8516845703125 291.233642578125 L 221.8516845703125 284.6709899902344 L 212.9473114013672 284.6709899902344 M 107.179931640625 289.5986328125 L 102.1659851074219 293.8317260742188 C 104.5822448730469 296.6524658203125 107.1300659179688 299.3946228027344 109.7587280273438 302.0036010742188 L 114.3471374511719 297.3089904785156 C 111.8706970214844 294.8529663085938 109.4659729003906 292.2659301757813 107.179931640625 289.5986328125 M 125.2062377929688 306.953857421875 L 121.0852966308594 312.0619506835938 C 123.988525390625 314.36767578125 127.0128173828125 316.573974609375 130.0975952148438 318.6366577148438 L 133.7059631347656 313.1541137695313 C 130.8024597167969 311.2120056152344 127.9503784179688 309.1315002441406 125.2062377929688 306.953857421875 M 146.2021789550781 320.5371398925781 L 143.142333984375 326.343017578125 C 146.447021484375 328.0531921386719 149.8397521972656 329.6375732421875 153.2516784667969 331.0639038085938 L 155.7349853515625 324.9880981445313 C 152.5122985839844 323.6402587890625 149.3139343261719 322.1469421386719 146.2021789550781 320.5371398925781 M 169.4180603027344 329.8201293945313 L 167.5370178222656 336.1075134277344 C 171.0999755859375 337.1437072753906 174.7351379394531 338.040771484375 178.3697814941406 338.7806396484375 L 179.6293029785156 332.3393859863281 C 176.2026672363281 331.6414489746094 172.776123046875 330.7960815429688 169.4180603027344 329.8201293945313 M 193.9914398193359 334.4313354492188 L 193.3630676269531 340.9649658203125 C 197.0515441894531 341.2910766601563 200.7884216308594 341.4695129394531 204.4997253417969 341.4967346191406 L 204.4997253417969 334.9339599609375 C 200.9842071533203 334.9070434570313 197.4583892822266 334.7384033203125 193.9914398193359 334.4313354492188 M 205.4997253417969 0 C 318.8132934570313 0 411.0003051757813 92.18698120117188 411.0003051757813 205.4997253417969 C 411.0003051757813 318.8132934570313 318.8132934570313 411.0003051757813 205.4997253417969 411.0003051757813 C 92.18698120117188 411.0003051757813 0 318.8132934570313 0 205.4997253417969 C 0 92.18698120117188 92.18698120117188 0 205.4997253417969 0 Z M 93.61529541015625 87.56100463867188 C 100.6722106933594 80.86322021484375 108.3645324707031 74.76657104492188 116.4788818359375 69.4404296875 C 124.6715698242188 64.06198120117188 133.3890075683594 59.40631103515625 142.3890075683594 55.60467529296875 C 161.0540924072266 47.71890258789063 180.8468933105469 43.45111083984375 201.2184143066406 42.92098999023438 L 201.2184143066406 8.670562744140625 C 151.9289855957031 9.731689453125 105.1181945800781 29.15188598632813 69.40887451171875 63.3546142578125 L 93.61529541015625 87.56100463867188 Z M 317.3832092285156 87.56100463867188 L 341.5905151367188 63.352783203125 C 305.8811950683594 29.15188598632813 259.0695190429688 9.731689453125 209.7809906005859 8.670562744140625 L 209.7809906005859 42.92098999023438 C 230.1525268554688 43.45111083984375 249.9462127685547 47.71890258789063 268.6094665527344 55.60467529296875 C 277.6094665527344 59.40631103515625 286.326904296875 64.06198120117188 294.5195922851563 69.4404296875 C 302.6348876953125 74.76751708984375 310.3272094726563 80.86410522460938 317.3832092285156 87.56100463867188 Z M 205.4997253417969 359.6246948242188 C 290.4848937988281 359.6246948242188 359.6246948242188 290.4848937988281 359.6246948242188 205.4997253417969 C 359.6246948242188 120.5144653320313 290.4848937988281 51.37466430664063 205.4997253417969 51.37466430664063 C 120.5144653320313 51.37466430664063 51.37466430664063 120.5144653320313 51.37466430664063 205.4997253417969 C 51.37466430664063 290.4848937988281 120.5144653320313 359.6246948242188 205.4997253417969 359.6246948242188 Z M 402.3287963867188 201.2184143066406 C 401.2676696777344 151.9289855957031 381.8475341796875 105.1173095703125 347.6438903808594 69.4071044921875 L 323.4374694824219 93.61441040039063 C 330.1353149414063 100.6713256835938 336.2318725585938 108.3635864257813 341.5589904785156 116.4779968261719 C 346.9374084472656 124.6707458496094 351.5921936035156 133.3880920410156 355.3947448730469 142.3880920410156 C 363.280517578125 161.0540924072266 367.5483093261719 180.8468933105469 368.0784301757813 201.2184143066406 L 402.3287963867188 201.2184143066406 Z M 42.92098999023438 201.2184143066406 C 43.45111083984375 180.8468933105469 47.71890258789063 161.0532073974609 55.60467529296875 142.3890075683594 C 59.40719604492188 133.3890075683594 64.06198120117188 124.6715698242188 69.4404296875 116.4788818359375 C 74.76751708984375 108.3635864257813 80.86410522460938 100.6713256835938 87.56100463867188 93.61529541015625 L 63.3546142578125 69.40887451171875 C 29.15188598632813 105.1191101074219 9.731689453125 151.9299011230469 8.6715087890625 201.2184143066406 L 42.92098999023438 201.2184143066406 Z M 63.35366821289063 341.5905151367188 L 87.56100463867188 317.3832092285156 C 80.86322021484375 310.3262939453125 74.76657104492188 302.6340026855469 69.4404296875 294.5195922851563 C 64.06198120117188 286.326904296875 59.40719604492188 277.6094665527344 55.60467529296875 268.6094665527344 C 47.71890258789063 249.9453125 43.45199584960938 230.1525268554688 42.92098999023438 209.7809906005859 L 8.6715087890625 209.7809906005859 C 9.731689453125 259.0695190429688 29.1510009765625 305.8803100585938 63.35366821289063 341.5905151367188 Z M 347.644775390625 341.5905151367188 C 381.8475341796875 305.8821105957031 401.2676696777344 259.0712890625 402.3287963867188 209.7809906005859 L 368.0784301757813 209.7809906005859 C 367.5483093261719 230.1525268554688 363.280517578125 249.9453125 355.3947448730469 268.6104125976563 C 351.5931091308594 277.6104125976563 346.9374084472656 286.3278198242188 341.5589904785156 294.5205078125 C 336.2318725585938 302.63671875 330.1353149414063 310.3280944824219 323.4384155273438 317.3840942382813 L 347.644775390625 341.5905151367188 Z M 201.2184143066406 402.3287963867188 L 201.2184143066406 368.0784301757813 C 180.8468933105469 367.5483093261719 161.0532073974609 363.280517578125 142.3880920410156 355.3947448730469 C 133.3890075683594 351.5921936035156 124.6707458496094 346.9374084472656 116.4779968261719 341.55810546875 C 108.3626708984375 336.2309875488281 100.67041015625 330.1335144042969 93.61441040039063 323.4366149902344 L 69.40798950195313 347.644775390625 C 105.1173095703125 381.8475341796875 151.9281005859375 401.2676696777344 201.2184143066406 402.3287963867188 Z M 209.7809906005859 402.3287963867188 C 259.0704345703125 401.2676696777344 305.8811950683594 381.8484191894531 341.5914306640625 347.644775390625 L 317.3840942382813 323.4384155273438 C 310.3280944824219 330.1353149414063 302.63671875 336.2318725585938 294.5205078125 341.5589904785156 C 286.3278198242188 346.9374084472656 277.6104125976563 351.5931091308594 268.6104125976563 355.3947448730469 C 249.9453125 363.280517578125 230.1525268554688 367.5483093261719 209.7809906005859 368.0784301757813 L 209.7809906005859 402.3287963867188 Z M 16.41867065429688 28.89810180664063 L 44.07574462890625 28.89810180664063 L 44.07574462890625 37.460693359375 L 16.41867065429688 37.460693359375 L 16.41867065429688 28.89810180664063 Z M 53.07925415039063 28.89810180664063 L 67.22821044921875 28.89810180664063 L 67.22821044921875 37.460693359375 L 53.07925415039063 37.460693359375 L 53.07925415039063 28.89810180664063 Z M 205.4997253417969 68.4998779296875 C 209.9124145507813 68.4998779296875 214.3637847900391 68.71319580078125 218.7278900146484 69.13079833984375 L 217.9088897705078 77.6556396484375 C 213.815673828125 77.26046752929688 209.6387786865234 77.06246948242188 205.4997253417969 77.06246948242188 L 205.4997253417969 68.4998779296875 Z M 231.8418426513672 71.04153442382813 C 236.1672058105469 71.888427734375 240.4944152832031 72.9566650390625 244.7082061767578 74.21755981445313 L 242.2538909912109 82.42019653320313 C 238.3056335449219 81.23846435546875 234.2501983642578 80.2376708984375 230.1984100341797 79.4456787109375 L 231.8418426513672 71.04153442382813 Z M 257.202880859375 78.6275634765625 C 261.2646484375 80.28988647460938 265.3055725097656 82.17715454101563 269.210693359375 84.234619140625 L 265.2183227539063 91.80987548828125 C 261.5552978515625 89.87850952148438 257.7698974609375 88.1126708984375 253.962890625 86.55477905273438 L 257.202880859375 78.6275634765625 Z M 280.6182250976563 90.97467041015625 C 284.3001098632813 93.3974609375 287.9018859863281 96.02456665039063 291.3236694335938 98.78399658203125 L 285.9470825195313 105.4484558105469 C 282.7404174804688 102.86279296875 279.3636474609375 100.3986206054688 275.9103088378906 98.12789916992188 L 280.6182250976563 90.97467041015625 Z M 163.4408874511719 98.951416015625 C 180.1206207275391 98.951416015625 195.9003143310547 104.3918762207031 209.0727386474609 114.6860961914063 C 214.5006256103516 118.9287414550781 219.2948913574219 123.879638671875 223.3206329345703 129.4002075195313 C 227.2212066650391 134.7498474121094 230.3892059326172 140.6151123046875 232.7355194091797 146.8331909179688 C 237.3804168701172 159.1425170898438 238.692626953125 172.5003051757813 236.5298919677734 185.4647827148438 L 258.0858154296875 202.3118896484375 L 251.2341003417969 211.0797271728516 L 301.0887451171875 249.0426330566406 C 306.2078857421875 253.0413055419922 309.4568786621094 258.7734375 310.2354125976563 265.1823120117188 C 310.6134033203125 268.2908935546875 310.39111328125 271.3941040039063 309.5738830566406 274.4072875976563 C 308.7306213378906 277.5186157226563 307.2879028320313 280.3949890136719 305.2863159179688 282.9573059082031 C 302.960693359375 285.9317932128906 300.0654296875 288.2601013183594 296.6787414550781 289.87646484375 C 293.4450073242188 291.4208984375 289.8368835449219 292.2372131347656 286.2458801269531 292.2372131347656 L 286.2449951171875 292.2372131347656 C 283.6125183105469 292.236328125 281.0177917480469 291.8106079101563 278.53466796875 290.9700012207031 C 275.9634094238281 290.0996704101563 273.5631103515625 288.8009948730469 271.4013061523438 287.1107788085938 L 221.5044097900391 249.1217803955078 L 214.5869903564453 257.972412109375 L 193.0626220703125 241.1514129638672 C 183.6638946533203 245.2437286376953 173.6648864746094 247.3191070556641 163.3446197509766 247.3191070556641 C 146.6648864746094 247.3191070556641 130.8861083984375 241.877685546875 117.7136840820313 231.5844116210938 C 85.48468017578125 206.3943176269531 79.75711059570313 159.6825256347656 104.9454040527344 127.4570922851563 C 119.1015319824219 109.3410034179688 140.4224548339844 98.951416015625 163.4408874511719 98.951416015625 Z M 163.3446197509766 238.7565155029297 C 197.7416839599609 238.7565155029297 217.8612060546875 215.9244232177734 225.2205200195313 194.5575256347656 C 234.5147857666016 167.5709991455078 226.1069946289063 138.8681945800781 203.8005218505859 121.4342956542969 C 192.1499938964844 112.3272094726563 178.1946258544922 107.5140075683594 163.4408874511719 107.5140075683594 C 143.07568359375 107.5140075683594 124.2144165039063 116.7047729492188 111.6936340332031 132.7293090820313 C 100.9169921875 146.5164184570313 96.15777587890625 163.7009887695313 98.29351806640625 181.1177825927734 C 100.4282531738281 198.5346221923828 109.1978759765625 214.0614166259766 122.9859008789063 224.8370971679688 C 134.6355285644531 233.9433135986328 148.5908813476563 238.7565155029297 163.3446197509766 238.7565155029297 Z M 213.1118927001953 245.9519958496094 L 246.0654144287109 203.7861022949219 L 234.3213043212891 194.6078948974609 L 234.3204193115234 194.6078948974609 C 231.6123046875 203.5953063964844 227.3327789306641 211.8438415527344 221.5997772216797 219.1247863769531 C 216.0216217041016 226.2087249755859 209.2392120361328 232.1666717529297 201.4434204101563 236.8332061767578 L 213.1118927001953 245.9519958496094 Z M 286.2792053222656 283.6736755371094 C 291.0960083007813 283.6736755371094 295.5645141601563 281.4912109375 298.5380859375 277.6851196289063 C 301.1022033691406 274.4027709960938 302.2362060546875 270.3222045898438 301.7304077148438 266.1947631835938 C 301.2236938476563 262.0682983398438 299.138427734375 258.3846435546875 295.8578796386719 255.8214111328125 L 245.9691009521484 217.8341979980469 L 226.7846832275391 242.3798828125 L 276.632080078125 280.334716796875 C 279.4257202148438 282.5189819335938 282.7619934082031 283.6728515625 286.2792053222656 283.6736755371094 Z M 301.2282104492188 107.5787963867188 C 304.3746337890625 110.6558837890625 307.4075622558594 113.9211120605469 310.2462158203125 117.284423828125 L 303.7041015625 122.8077392578125 C 301.0401000976563 119.6514282226563 298.1934204101563 116.5868835449219 295.2414245605469 113.7041931152344 L 301.2282104492188 107.5787963867188 Z M 174.7476196289063 117.1925659179688 C 183.4307861328125 118.9385681152344 191.4317779541016 122.6340026855469 198.5283050537109 128.1780090332031 C 240.9111022949219 161.3069915771484 217.7009887695313 230.1938934326172 163.3446197509766 230.1938934326172 C 150.523193359375 230.1938934326172 138.3884582519531 226.0088958740234 128.2562561035156 218.0906829833984 C 103.47119140625 198.7164154052734 99.06655883789063 162.7902069091797 118.4373168945313 138.0032958984375 C 126.4662170410156 127.7325134277344 137.3507690429688 120.7044067382813 149.9166259765625 117.6759033203125 L 151.923583984375 126 C 141.2567749023438 128.5713195800781 132.0101928710938 134.5455322265625 125.1827697753906 143.2755126953125 C 108.7208862304688 164.3426818847656 112.4622192382813 194.8760986328125 133.527587890625 211.3425140380859 C 142.140625 218.0736236572266 152.4509887695313 221.6313171386719 163.3446197509766 221.6313171386719 C 209.5649871826172 221.6313171386719 229.2642059326172 163.0700988769531 193.256103515625 134.9262084960938 C 187.2188873291016 130.210205078125 180.4247894287109 127.0682983398438 173.0583038330078 125.5877990722656 L 174.7476196289063 117.1925659179688 Z M 318.2904052734375 127.80810546875 C 320.796875 131.4368896484375 323.1531066894531 135.2232055664063 325.288818359375 139.0635070800781 L 317.8052978515625 143.227783203125 C 315.8045654296875 139.6277770996094 313.5968933105469 136.0782165527344 311.2452087402344 132.6788940429688 L 318.2904052734375 127.80810546875 Z M 252.0756225585938 150.460205078125 L 262.97998046875 150.460205078125 L 262.97998046875 159.0218963623047 L 252.0756225585938 159.0218963623047 L 252.0756225585938 150.460205078125 Z M 276.4871826171875 150.460205078125 L 311.5808715820313 150.460205078125 L 311.5808715820313 159.0218963623047 L 276.4871826171875 159.0218963623047 L 276.4871826171875 150.460205078125 Z M 331.165771484375 150.9390563964844 C 332.9235229492188 154.97998046875 334.50390625 159.1506195068359 335.8601989746094 163.3311004638672 L 327.7160949707031 165.9735260009766 C 326.4453125 162.0540008544922 324.9630126953125 158.1444091796875 323.3132934570313 154.3590087890625 L 331.165771484375 150.9390563964844 Z M 123.7653198242188 168.2999877929688 L 132.264892578125 169.3286743164063 C 131.8140563964844 173.0646209716797 132.0327453613281 176.8194122314453 132.9129028320313 180.4923095703125 L 124.5887756347656 182.4903106689453 C 123.4683227539063 177.8247375488281 123.1902160644531 173.052001953125 123.7653198242188 168.2999877929688 Z M 339.3287963867188 176.1227874755859 C 340.2675170898438 180.4104156494141 341.010009765625 184.806884765625 341.5337829589844 189.1836242675781 L 333.0306396484375 190.1997375488281 C 332.5409851074219 186.0938873291016 331.8453063964844 181.9755249023438 330.9633178710938 177.9534149169922 L 339.3287963867188 176.1227874755859 Z M 134.8065185546875 186.0416717529297 C 136.9035339355469 190.7099914550781 140.0228881835938 194.6816864013672 144.0737915039063 197.8506317138672 C 149.644775390625 202.2047882080078 156.3093109130859 204.5069885253906 163.3436737060547 204.5069885253906 L 163.3436737060547 213.0696258544922 C 154.380615234375 213.0696258544922 145.8926696777344 210.1383056640625 138.7997741699219 204.5970001220703 C 133.7138977050781 200.6181030273438 129.63330078125 195.4152069091797 126.9971923828125 189.5489959716797 L 134.8065185546875 186.0416717529297 Z M 342.4661865234375 202.3974151611328 C 342.4913635253906 203.4324188232422 342.502197265625 204.4692077636719 342.5004272460938 205.5078430175781 L 333.9377746582031 205.4916229248047 C 333.9395751953125 204.5232086181641 333.9287719726563 203.5575256347656 333.9080810546875 202.5935668945313 L 342.4661865234375 202.3974151611328 Z M 68.4998779296875 205.4916229248047 L 77.06246948242188 205.5078430175781 C 77.0606689453125 206.4762115478516 77.071533203125 207.44189453125 77.09130859375 208.4057769775391 L 68.533203125 208.6019897460938 C 68.50888061523438 207.5670013427734 68.49810791015625 206.5302124023438 68.4998779296875 205.4916229248047 Z M 77.96966552734375 220.7996826171875 C 78.45925903320313 224.905517578125 79.15499877929688 229.0238952636719 80.0369873046875 233.0459899902344 L 71.6715087890625 234.8775177001953 C 70.7327880859375 230.5889892578125 69.99029541015625 226.1934204101563 69.46563720703125 221.8157806396484 L 77.96966552734375 220.7996826171875 Z M 83.2833251953125 245.0258941650391 C 84.55499267578125 248.9454193115234 86.03732299804688 252.8549957275391 87.68609619140625 256.6404113769531 L 79.83453369140625 260.0604248046875 C 78.07589721679688 256.0203247070313 76.49642944335938 251.8496856689453 75.13919067382813 247.6683044433594 L 83.2833251953125 245.0258941650391 Z M 93.19500732421875 267.7724609375 C 95.19573974609375 271.3724670410156 97.4024658203125 274.922119140625 99.75421142578125 278.3204650878906 L 92.70989990234375 283.1913146972656 C 90.2025146484375 279.5625 87.84719848632813 275.777099609375 85.7105712890625 271.936767578125 L 93.19500732421875 267.7724609375 Z M 163.3427886962891 283.6709899902344 L 198.4356231689453 283.6709899902344 L 198.4356231689453 292.233642578125 L 163.3427886962891 292.233642578125 L 163.3427886962891 283.6709899902344 Z M 211.9473114013672 283.6709899902344 L 222.8516845703125 283.6709899902344 L 222.8516845703125 292.233642578125 L 211.9473114013672 292.233642578125 L 211.9473114013672 283.6709899902344 Z M 107.2962036132813 288.1917419433594 C 109.9593200683594 291.3479919433594 112.806884765625 294.4134216308594 115.7588806152344 297.2951965332031 L 109.7720947265625 303.4205627441406 C 106.6256713867188 300.343505859375 103.5927429199219 297.0783081054688 100.7540893554688 293.7149963378906 L 107.2962036132813 288.1917419433594 Z M 125.0531921386719 305.5509033203125 C 128.2598876953125 308.1365661621094 131.6357727050781 310.6007690429688 135.089111328125 312.8715209960938 L 130.3811950683594 320.0247192382813 C 126.7001953125 317.602783203125 123.0983581542969 314.9747924804688 119.6766357421875 312.2154235839844 L 125.0531921386719 305.5509033203125 Z M 145.781982421875 319.1895141601563 C 149.4450073242188 321.1208801269531 153.2304077148438 322.8875732421875 157.0374145507813 324.4446411132813 L 153.7974243164063 332.3717651367188 C 149.7357177734375 330.7095336914063 145.6946716308594 328.8222045898438 141.7896118164063 326.7647705078125 L 145.781982421875 319.1895141601563 Z M 168.7455139160156 328.5792236328125 C 172.6946716308594 329.7608947753906 176.7501068115234 330.76171875 180.8018951416016 331.5536804199219 L 179.1585235595703 339.9578857421875 C 174.8330993652344 339.1109924316406 170.5058898925781 338.0426635742188 166.2911987304688 336.78271484375 L 168.7455139160156 328.5792236328125 Z M 193.0914154052734 333.3437805175781 C 197.1836853027344 333.7388916015625 201.3606262207031 333.9377746582031 205.4997253417969 333.9377746582031 L 205.4997253417969 342.5004272460938 C 201.0869903564453 342.5004272460938 196.6365203857422 342.287109375 192.2715148925781 341.8686218261719 L 193.0914154052734 333.3437805175781 Z" stroke="none" fill="#4a90e2"/>
    </g>
    <path id="Path_Copy_10" data-name="Path Copy 10" d="M25.184,117.323A65.622,65.622,0,0,1,65.639,0,64.952,64.952,0,0,1,106,13.92c48.694,38.057,22.085,117.323-40.457,117.323A64.952,64.952,0,0,1,25.184,117.323Z" transform="translate(97.801 107.514)" fill="#4a90e2" opacity="0.45"/>
  </g>
</svg>
