<svg xmlns="http://www.w3.org/2000/svg" width="100" height="106.493" viewBox="0 0 100 106.493">
  <g id="customer-support" transform="translate(100)">
    <g id="Combined_Shape" data-name="Combined Shape" fill="none" stroke-miterlimit="10">
      <path d="M-28.212,106.493v-1.109A49.025,49.025,0,0,1-14.894,72.147,40.39,40.39,0,0,0-4.156,44.7,40.708,40.708,0,0,0-6.424,31.245a40.03,40.03,0,0,0-6.36-11.6,40.225,40.225,0,0,0-9.788-8.909,41.091,41.091,0,0,0-12.548-5.4V3.328A3.336,3.336,0,0,0-38.456,0h-5.36a3.336,3.336,0,0,0-3.336,3.328v.923a41.141,41.141,0,0,0-4.387.467A40.488,40.488,0,0,0-65,9.495a40.608,40.608,0,0,0-10.76,8.887,40.3,40.3,0,0,0-7.137,12.051A40.376,40.376,0,0,0-85.478,44.7c0,4.034-1.476,6.524-4.157,11.046-1.21,2.039-2.714,4.578-4.414,7.845a4.986,4.986,0,0,0-.113,5.072A5.008,5.008,0,0,0-89.716,71.3h4.237V81.734a8.329,8.329,0,0,0,8.341,8.3h3.493v16.461h45.432ZM-6.38,44.7A38.18,38.18,0,0,1-16.53,70.644,52.931,52.931,0,0,0-26.636,86.379a49.684,49.684,0,0,0-3.788,17.9h-41V90.052c3.235-.019,11.012-.549,13.348-5.019l-1.973-1.024c-1.893,3.623-9.807,3.826-11.375,3.829v-.025h-5.717a6.1,6.1,0,0,1-6.116-6.079V69.077h-6.462a2.815,2.815,0,0,1-2.5-1.472,2.823,2.823,0,0,1,.09-2.906c1.659-3.181,3.1-5.611,4.364-7.754,2.905-4.911,4.5-7.617,4.5-12.24a38.211,38.211,0,0,1,32.08-37.8,38.877,38.877,0,0,1,4.021-.433V40.286a12.873,12.873,0,0,0-6.508,7.88,13.032,13.032,0,0,0-.447,5.144,12.886,12.886,0,0,0,1.658,5.035,13.155,13.155,0,0,0,6.48,5.573l-.589,1.914a6.944,6.944,0,0,1-5.431,4.837l-9.331,1.675a5.881,5.881,0,0,0-4.892-2.166c-.275,0-.557.014-.837.042a7.114,7.114,0,0,0-4.079,1.692,3.907,3.907,0,0,0-1.4,3.289,3.781,3.781,0,0,0,1.867,2.84,6.982,6.982,0,0,0,3.712,1A7.846,7.846,0,0,0-66.169,79a7.589,7.589,0,0,0,3.694-1.384,4.145,4.145,0,0,0,1.8-3.135l9.079-1.63a9.159,9.159,0,0,0,7.162-6.373l.594-1.93a13.51,13.51,0,0,0,2.821.3,12.7,12.7,0,0,0,6.405-1.731,13.056,13.056,0,0,0,4.791-17.8,13.091,13.091,0,0,0-5.3-5.008V7.628A38.352,38.352,0,0,1-6.38,44.7ZM-66.3,72.4c1.6,0,3.276.631,3.4,1.838a1.477,1.477,0,0,1-.374,1.1,5.046,5.046,0,0,1-3.117,1.45c-.193.019-.391.029-.584.029-1.772,0-3.241-.809-3.345-1.841a1.917,1.917,0,0,1,.887-1.582,5.055,5.055,0,0,1,2.6-.971c.163-.016.334-.025.507-.025Zm34.551-25.974A10.833,10.833,0,0,1-35.724,61.2a10.83,10.83,0,0,1-5.387,1.444,10.917,10.917,0,0,1-9.414-5.411,10.663,10.663,0,0,1,.007-10.775,10.727,10.727,0,0,1,9.379-5.433A10.914,10.914,0,0,1-31.746,46.429Zm-5.6-43.1V39.4a13.011,13.011,0,0,0-3.8-.588,13.083,13.083,0,0,0-3.79.587V3.328a1.1,1.1,0,0,1,1.112-1.11h5.36A1.1,1.1,0,0,1-37.344,3.328Zm16.991,85.954a46.144,46.144,0,0,1,9-14.025q.491-.531.965-1.074l-1.7-1.456q-.448.516-.915,1.02a48.366,48.366,0,0,0-9.43,14.7A44.821,44.821,0,0,0-25.714,103l2.244.118A42.614,42.614,0,0,1-20.353,89.282Zm-23.024,12.536V99.481h-22.6v2.337Zm6.493,0V99.481h-4.156v2.337Zm23.636-2.337V97.143h-2.337v2.337Zm4.416,0V97.143h-2.338v2.337Zm4.415,0V97.143H-6.754v2.337Zm4.415,0V97.143H-2.337v2.337Zm-84.155-2.858V94.286H-98.182v2.337ZM-38.182,71.48l-.314-2.352a17.535,17.535,0,0,1-5.314-.037l-.346,2.347a19.65,19.65,0,0,0,3.121.25A19.629,19.629,0,0,0-38.182,71.48ZM-3.9,63.815l-1.976-.958A44.175,44.175,0,0,1-9.351,69.11l1.8,1.28A46.338,46.338,0,0,0-3.9,63.815Zm-23.9,2.967L-29.309,65.2a18.409,18.409,0,0,1-4.457,2.746l.961,1.929A20.71,20.71,0,0,0-27.792,66.782Zm-23.9-.534a17.861,17.861,0,0,1-3.7-3.65l-1.752,1.353a20.1,20.1,0,0,0,4.161,4.1Zm29.87-9.583-2.134-.561a17.851,17.851,0,0,1-2.022,4.809l1.879,1.165A20.082,20.082,0,0,0-21.818,56.665Zm-36.1,1.245a19.157,19.157,0,0,1-1.022-5.182l-2.094.14A21.522,21.522,0,0,0-59.887,58.7Zm20.132-.6a6.544,6.544,0,0,0,3.164-6.659L-36.8,51a4.323,4.323,0,0,1-2.09,4.4,4.289,4.289,0,0,1-5.858-1.571,4.3,4.3,0,0,1,1.57-5.863,4.331,4.331,0,0,1,4.538.158l1.23-1.833a6.575,6.575,0,0,0-6.872-.238,6.507,6.507,0,0,0-2.376,8.88,6.5,6.5,0,0,0,5.633,3.251A6.451,6.451,0,0,0-37.79,57.31ZM-21.3,50.819a21.118,21.118,0,0,0-1.065-5.884l-2.052.746a18.815,18.815,0,0,1,.946,5.228Zm-35.065-8.14-1.95-1.121a19.79,19.79,0,0,0-2.206,5.462l2.2.512A17.57,17.57,0,0,1-56.363,42.68ZM-24.935,40a20.084,20.084,0,0,0-4.109-4.154L-30.389,37.6a17.892,17.892,0,0,1,3.654,3.7Zm-61.039-9.418-2.088-.711A46.116,46.116,0,0,0-90.13,39.5l2.19.239A43.927,43.927,0,0,1-85.974,30.581Zm36.884,5.17-.968-1.985a19.749,19.749,0,0,0-4.747,3.318l1.494,1.616A17.572,17.572,0,0,1-49.09,35.751Zm-2.858-33.56L-52.312,0A45.323,45.323,0,0,0-84.935,23.641l1.96,1.034A43.124,43.124,0,0,1-51.948,2.191ZM-97.663,14.026V11.688H-100v2.337Zm4.416,0V11.688h-2.338v2.337Zm4.415,0V11.688h-2.338v2.337Zm69.119-3.636V8.052h-.577V10.39Zm4.647,0V8.052H-17.4V10.39Zm4.415,0V8.052h-2.337V10.39Zm4.416,0V8.052H-8.572V10.39Zm4.415,0V8.052H-4.156V10.39Zm0-4.675V3.377H-20.26V5.714Z" stroke="none"/>
      <path d="M -29.21230506896973 105.493408203125 L -29.21230506896973 105.3846054077148 C -29.21230506896973 92.99617767333984 -24.38821220397949 80.95108795166016 -15.62938117980957 71.46894836425781 C -8.875642776489258 64.14199066162109 -5.156196594238281 54.63697814941406 -5.156196594238281 44.70479202270508 C -5.156196594238281 40.19408416748047 -5.900442600250244 35.7766227722168 -7.368273258209229 31.57502365112305 C -8.798766136169434 27.4792537689209 -10.88535022735596 23.67459297180176 -13.57008934020996 20.26665496826172 C -16.25133514404297 16.86245346069336 -19.4626579284668 13.93939304351807 -23.11485862731934 11.57863903045654 C -26.85408973693848 9.16160774230957 -30.97332000732422 7.390500068664551 -35.35811996459961 6.3144850730896 L -36.11979675292969 6.127577304840088 L -36.11979675292969 5.343300342559814 L -36.11979675292969 3.328207969665527 C -36.11979675292969 2.04443883895874 -37.1678581237793 1.0000079870224 -38.45610427856445 1.0000079870224 L -43.81650543212891 1.0000079870224 C -45.104736328125 1.0000079870224 -46.15279769897461 2.04443883895874 -46.15279769897461 3.328207969665527 L -46.15279769897461 4.251592636108398 L -46.15279769897461 5.19571590423584 L -47.09536743164063 5.249946594238281 C -48.67744445800781 5.340961933135986 -50.07756423950195 5.489884853363037 -51.37553405761719 5.705177307128906 C -56.01241302490234 6.475361824035645 -60.42847442626953 8.04276180267334 -64.50098419189453 10.36377716064453 C -68.48308563232422 12.63360786437988 -72.01450347900391 15.55006980895996 -74.99724578857422 19.03228569030762 C -77.99774932861328 22.53390121459961 -80.33961486816406 26.48808479309082 -81.95767211914063 30.78482246398926 C -83.63030242919922 35.22933197021484 -84.4783935546875 39.91268539428711 -84.4783935546875 44.70479202270508 C -84.4783935546875 49.01387023925781 -86.09577941894531 51.74151611328125 -88.77541351318359 56.26063919067383 C -89.97504425048828 58.28322219848633 -91.46800994873047 60.80040740966797 -93.16291809082031 64.05742645263672 L -93.18265533447266 64.09534454345703 L -93.20555114746094 64.13145446777344 C -93.96894836425781 65.33494567871094 -94.00015258789063 66.8887939453125 -93.28710174560547 68.18643951416016 C -92.56111907958984 69.50694274902344 -91.22598266601563 70.29530334472656 -89.71559906005859 70.29530334472656 L -85.4783935546875 70.29530334472656 L -84.4783935546875 70.29530334472656 L -84.4783935546875 71.29530334472656 L -84.4783935546875 81.73349761962891 C -84.4783935546875 85.75763702392578 -81.18515014648438 89.03150177001953 -77.13719940185547 89.03150177001953 L -73.64430236816406 89.03150177001953 L -72.64430236816406 89.03150177001953 L -72.64430236816406 90.03150177001953 L -72.64430236816406 105.493408203125 L -29.21230506896973 105.493408203125 M -59.51549530029297 85.41049194335938 L -59.71528625488281 85.30677032470703 C -62.38981628417969 88.54920959472656 -69.24785614013672 88.83322143554688 -71.41810607910156 88.83821105957031 L -72.42039489746094 88.84049987792969 L -72.42039489746094 88.81301116943359 L -77.13719940185547 88.81301116943359 C -81.06119537353516 88.81301116943359 -84.25359344482422 85.63714599609375 -84.25359344482422 81.73349761962891 L -84.25359344482422 70.07680511474609 L -89.71559906005859 70.07680511474609 C -91.13985443115234 70.07680511474609 -92.40048980712891 69.33314514160156 -93.08799743652344 68.08706665039063 C -93.76845550537109 66.85237121582031 -93.7314453125 65.40329742431641 -92.99117279052734 64.20196533203125 C -91.32257080078125 61.00468444824219 -89.88632202148438 58.57762908935547 -88.61879730224609 56.43568420410156 C -85.71242523193359 51.52239227294922 -84.25359344482422 49.05620956420898 -84.25359344482422 44.70479202270508 C -84.25359344482422 25.39803886413574 -70.41050720214844 9.08673095703125 -51.33792114257813 5.920131206512451 C -50.10049057006836 5.714515686035156 -48.75138092041016 5.569085121154785 -47.21350479125977 5.475546360015869 L -46.15279769897461 5.411023139953613 L -46.15279769897461 6.473700523376465 L -46.15279769897461 40.28580856323242 L -46.15279769897461 40.89451599121094 L -46.69350433349609 41.17409896850586 C -49.6405029296875 42.69785308837891 -51.77401351928711 45.28082275390625 -52.70095062255859 48.44704055786133 C -53.15538024902344 50.00009918212891 -53.29444122314453 51.59879302978516 -53.1142578125 53.19883728027344 C -52.92904281616211 54.84591674804688 -52.41430282592773 56.40937805175781 -51.58527374267578 57.84419250488281 C -50.24354934692383 60.15629959106445 -48.11762619018555 61.98390197753906 -45.59912109375 62.99029922485352 L -44.74357986450195 63.33217620849609 L -45.01436614990234 64.21279144287109 L -45.60173416137695 66.12308502197266 C -46.47236633300781 68.99739074707031 -48.8515510559082 71.11662292480469 -51.81272125244141 71.65408325195313 L -61.1439208984375 73.3289794921875 L -61.77193450927734 73.44170379638672 L -62.1387825012207 72.91965484619141 C -62.90497970581055 71.82933044433594 -64.42805480957031 71.17839050292969 -66.21299743652344 71.17839050292969 C -66.45370483398438 71.17839050292969 -66.70195007324219 71.19096374511719 -66.95072174072266 71.21575927734375 C -68.34541320800781 71.35491943359375 -69.59027099609375 71.86515808105469 -70.45632171630859 72.65282440185547 C -71.24025726318359 73.3651123046875 -71.62430572509766 74.23523712158203 -71.53781127929688 75.10218048095703 C -71.45233154296875 75.95240783691406 -70.97840881347656 76.65757751464844 -70.12893676757813 77.19828796386719 C -69.27613830566406 77.74153137207031 -68.14849090576172 78.04070281982422 -66.95370483398438 78.04070281982422 C -66.72050476074219 78.04070281982422 -66.49028778076172 78.02938079833984 -66.26833343505859 78.00694274902344 C -65.09358215332031 77.88956451416016 -63.9292106628418 77.45573425292969 -63.0738410949707 76.81671905517578 C -62.45819473266602 76.35672760009766 -61.71521377563477 75.57180786132813 -61.67185974121094 74.44467163085938 L -61.64093399047852 73.64094543457031 L -60.84928894042969 73.49884033203125 L -51.77212142944336 71.86931610107422 C -48.72932052612305 71.31657409667969 -46.28311920166016 69.14039611816406 -45.38693618774414 66.18608856201172 L -44.79293441772461 64.25648498535156 L -44.52350234985352 63.3812370300293 L -43.62797927856445 63.57282257080078 C -42.75592041015625 63.75940704345703 -41.8773193359375 63.85400772094727 -41.01659774780273 63.85400772094727 C -38.93899536132813 63.85400772094727 -36.95176696777344 63.31656265258789 -35.11125946044922 62.25725555419922 C -29.35898208618164 58.93651580810547 -27.37419700622559 51.56197738647461 -30.68465805053711 45.82196044921875 C -31.82104301452637 43.87129974365234 -33.51395034790039 42.27209854125977 -35.58036422729492 41.19726943969727 L -36.11890411376953 40.91714477539063 L -36.11890411376953 40.31010055541992 L -36.11890411376953 7.627500057220459 L -36.11890411376953 6.334208011627197 L -34.86722564697266 6.659685134887695 C -17.50565719604492 11.17439270019531 -5.380104064941406 26.81909942626953 -5.380104064941406 44.70479202270508 C -5.380104064941406 54.58197784423828 -9.078843116760254 64.03462219238281 -15.79568862915039 71.32217407226563 C -20.04538154602051 75.92345428466797 -23.38175010681152 81.11782073974609 -25.71210479736328 86.76099395751953 C -28.03894996643066 92.39551544189453 -29.28807258605957 98.29570007324219 -29.42476654052734 104.2976684570313 L -29.4470272064209 105.27490234375 L -30.42450332641602 105.27490234375 L -71.42039489746094 105.27490234375 L -72.42039489746094 105.27490234375 L -72.42039489746094 104.27490234375 L -72.42039489746094 90.05220794677734 L -72.42039489746094 89.05803680419922 L -71.42623901367188 89.05222320556641 C -70.017333984375 89.04399108886719 -67.26524353027344 88.92811584472656 -64.66335296630859 88.24463653564453 C -62.26335144042969 87.61419677734375 -60.53749847412109 86.66313171386719 -59.51549530029297 85.41049194335938 M -66.32157897949219 71.40314483642578 L -66.29670715332031 71.40319061279297 C -64.31334686279297 71.40319061279297 -62.09305953979492 72.26011657714844 -61.90521240234375 74.14008331298828 C -61.83962631225586 74.78662109375 -62.04515075683594 75.42198944091797 -62.49944305419922 75.97739410400391 C -63.37753677368164 77.05128479003906 -65.08079528808594 77.66950225830078 -66.29304504394531 77.78955841064453 C -66.52081298828125 77.81180572509766 -66.75004577636719 77.82309722900391 -66.97439575195313 77.82309722900391 C -67.99713134765625 77.82309722900391 -68.98455047607422 77.58956146240234 -69.75473785400391 77.16551208496094 C -70.67608642578125 76.65825653076172 -71.23007202148438 75.91842651367188 -71.31472015380859 75.08137512207031 C -71.40156555175781 74.21454620361328 -70.9410400390625 73.31523895263672 -70.05078125 72.61370086669922 C -69.23542785644531 71.97196197509766 -68.12631988525391 71.55278015136719 -66.92803955078125 71.433349609375 C -66.72748565673828 71.41331481933594 -66.52346038818359 71.40314483642578 -66.32157897949219 71.40314483642578 M -41.13899612426758 40.02740859985352 C -36.93385696411133 40.02740859985352 -33.0035514831543 42.28739166259766 -30.87947273254395 45.92956161499023 C -27.62678146362305 51.56865310668945 -29.57564353942871 58.80868530273438 -35.22536468505859 62.06968307495117 C -37.01978302001953 63.10111618041992 -39.05502700805664 63.64630126953125 -41.11110305786133 63.64630126953125 C -45.3341178894043 63.64630126953125 -49.27268981933594 61.38230133056641 -51.39091873168945 57.73587036132813 C -53.51778030395508 54.05568313598633 -53.51519775390625 49.65380859375 -51.38396453857422 45.96076202392578 C -49.23931884765625 42.2454833984375 -45.40942764282227 40.02740859985352 -41.13899612426758 40.02740859985352 M -41.13899612426758 39.80889892578125 C -42.27125930786133 39.80889892578125 -43.44874954223633 39.99185562133789 -44.63873672485352 40.35266876220703 L -45.92890548706055 40.74386978149414 L -45.92890548706055 39.39569854736328 L -45.92890548706055 3.328207969665527 C -45.92890548706055 2.145192623138428 -45.00102615356445 1.218500256538391 -43.81650543212891 1.218500256538391 L -38.45610427856445 1.218500256538391 C -37.27157974243164 1.218500256538391 -36.34370422363281 2.145192623138428 -36.34370422363281 3.328207969665527 L -36.34370422363281 39.3966064453125 L -36.34370422363281 40.74762344360352 L -37.63581085205078 40.35299301147461 C -38.81790542602539 39.99196243286133 -39.99653625488281 39.80889892578125 -41.13899612426758 39.80889892578125 M -24.40368843078613 102.0661773681641 C -24.05768775939941 97.56798553466797 -23.00794410705566 93.14488983154297 -21.2785816192627 88.90423583984375 C -19.13785743713379 83.654052734375 -16.04527282714844 78.83338928222656 -12.08804225921631 74.57757568359375 C -11.99764537811279 74.47998046875 -11.90652179718018 74.38069152832031 -11.81489753723145 74.27997589111328 L -11.99617099761963 74.12487030029297 C -12.08895492553711 74.22686767578125 -12.18179225921631 74.32794189453125 -12.27450466156006 74.42788696289063 C -16.25164222717285 78.70473480224609 -19.35927391052246 83.54837799072266 -21.51099586486816 88.82413482666016 C -23.24888229370117 93.08685302734375 -24.30338478088379 97.53251647949219 -24.65027618408203 102.05322265625 L -24.40368843078613 102.0661773681641 M -37.88290405273438 100.8179016113281 L -37.88290405273438 100.4806060791016 L -40.03910446166992 100.4806060791016 L -40.03910446166992 100.8179016113281 L -37.88290405273438 100.8179016113281 M -44.37639617919922 100.8179016113281 L -44.37639617919922 100.4806060791016 L -64.97359466552734 100.4806060791016 L -64.97359466552734 100.8179016113281 L -44.37639617919922 100.8179016113281 M -0.999996542930603 98.48060607910156 L -0.999996542930603 98.14330291748047 L -1.3373042345047 98.14330291748047 L -1.3373042345047 98.48060607910156 L -0.999996542930603 98.48060607910156 M -5.415396690368652 98.48060607910156 L -5.415396690368652 98.14330291748047 L -5.753596782684326 98.14330291748047 L -5.753596782684326 98.48060607910156 L -5.415396690368652 98.48060607910156 M -9.830796241760254 98.48060607910156 L -9.830796241760254 98.14330291748047 L -10.16899681091309 98.14330291748047 L -10.16899681091309 98.48060607910156 L -9.830796241760254 98.48060607910156 M -14.24710464477539 98.48060607910156 L -14.24710464477539 98.14330291748047 L -14.58439636230469 98.14330291748047 L -14.58439636230469 98.48060607910156 L -14.24710464477539 98.48060607910156 M -85.1553955078125 95.62310028076172 L -85.1553955078125 95.28580474853516 L -97.18190765380859 95.28580474853516 L -97.18190765380859 95.62310028076172 L -85.1553955078125 95.62310028076172 M -41.03459548950195 70.68859100341797 C -40.45914459228516 70.68859100341797 -39.88106155395508 70.66160583496094 -39.30690765380859 70.60811614990234 L -39.35649108886719 70.23687744140625 C -39.91180419921875 70.28719329833984 -40.47241592407227 70.31258392333984 -41.0322265625 70.31259155273438 C -41.67844009399414 70.31259918212891 -42.32510375976563 70.27884674072266 -42.96443176269531 70.21195983886719 L -43.01895523071289 70.58228302001953 C -42.35977554321289 70.65293884277344 -41.69561386108398 70.68859100341797 -41.03459548950195 70.68859100341797 M -7.823055267333984 68.9708251953125 C -6.865242481231689 67.46427917480469 -5.993083953857422 65.89445495605469 -5.219438552856445 64.28452301025391 L -5.396641731262207 64.19866943359375 C -6.168561935424805 65.79956817626953 -7.036916255950928 67.35853576660156 -7.988932609558105 68.85265350341797 L -7.823055267333984 68.9708251953125 M -32.34347915649414 68.55382537841797 C -31.26030540466309 68.02025604248047 -30.23337173461914 67.39260864257813 -29.2746524810791 66.67829895019531 L -29.4019947052002 66.54513549804688 C -30.34409523010254 67.25647735595703 -31.35190963745117 67.88131713867188 -32.41387176513672 68.41257476806641 L -32.34347915649414 68.55382537841797 M -53.19023513793945 66.62648010253906 L -53.06258392333984 66.44858551025391 C -53.96820831298828 65.70915222167969 -54.80316925048828 64.88672637939453 -55.55816268920898 63.99044036865234 L -55.72812271118164 64.12164306640625 C -54.96092987060547 65.03513336181641 -54.11160278320313 65.87338256835938 -53.19023513793945 66.62648010253906 M -24.44924736022949 60.68138122558594 C -23.88264083862305 59.62414932250977 -23.41734504699707 58.51689147949219 -23.05890464782715 57.37273406982422 L -23.25921249389648 57.32010269165039 C -23.6125316619873 58.44322204589844 -24.07057762145996 59.53095626831055 -24.62799263000488 60.57060623168945 L -24.44924736022949 60.68138122558594 M -59.26139068603516 57.37126541137695 L -59.15761184692383 57.32942962646484 C -59.49650192260742 56.17665100097656 -59.73166275024414 54.99262619018555 -59.86034393310547 53.79103851318359 L -59.96054077148438 53.79775238037109 C -59.83300018310547 55.01151657104492 -59.59902572631836 56.20730972290039 -59.26139068603516 57.37126541137695 M -41.02896499633789 57.18182373046875 C -40.07159805297852 57.18182373046875 -39.12473678588867 56.9268684387207 -38.29050445556641 56.44440841674805 C -36.62543869018555 55.48203659057617 -35.59825897216797 53.69987106323242 -35.54759216308594 51.810791015625 L -35.75424194335938 51.84375381469727 C -35.81593704223633 53.64706802368164 -36.80194473266602 55.34423065185547 -38.39276504516602 56.26330184936523 C -39.19696426391602 56.728515625 -40.10833358764648 56.97443771362305 -41.02833557128906 56.97448348999023 C -42.91739654541016 56.97454833984375 -44.67602920532227 55.9596061706543 -45.61775207519531 54.32608413696289 C -47.07590484619141 51.79899215698242 -46.2076416015625 48.55600738525391 -43.68321228027344 47.09748458862305 C -42.89187240600586 46.63912963867188 -41.98047256469727 46.39685440063477 -41.04753494262695 46.39685440063477 C -40.32370758056641 46.39685440063477 -39.61985778808594 46.53906631469727 -38.97060012817383 46.81301879882813 L -38.8548469543457 46.64053344726563 C -39.53950500488281 46.35000610351563 -40.29342269897461 46.19493103027344 -41.05109024047852 46.19493103027344 C -42.02515029907227 46.19493103027344 -42.97064208984375 46.44419097900391 -43.78608703613281 46.91620635986328 C -46.40947341918945 48.43168640136719 -47.31110382080078 51.80289840698242 -45.79598236083984 54.43111419677734 C -44.81771850585938 56.1278076171875 -42.99110412597656 57.18182373046875 -41.02896499633789 57.18182373046875 M -22.53334999084473 49.86974716186523 L -22.35956001281738 49.86254119873047 C -22.46627044677734 48.63237762451172 -22.68464660644531 47.41849517822266 -23.01211166381836 46.23518371582031 L -23.18181610107422 46.2968864440918 C -22.85749816894531 47.46130752563477 -22.6405029296875 48.65688323974609 -22.53334999084473 49.86974716186523 M -59.03947067260742 46.33882904052734 C -58.70425033569336 45.20687103271484 -58.26102066040039 44.10865783691406 -57.71468353271484 43.05634689331055 L -57.93229293823242 42.93122100830078 C -58.49149322509766 44.00394439697266 -58.94492721557617 45.12490463256836 -59.28732681274414 46.28102874755859 L -59.03947067260742 46.33882904052734 M -26.53796005249023 39.92234420776367 L -26.36008262634277 39.79391860961914 C -27.1150074005127 38.87310791015625 -27.95438957214355 38.02516555786133 -28.86832809448242 37.26011657714844 L -28.99906730651855 37.43091201782227 C -28.10243225097656 38.18423080444336 -27.27896308898926 39.01783752441406 -26.53796005249023 39.92234420776367 M -88.81830596923828 38.63881301879883 C -88.49625396728516 36.11790466308594 -87.96168518066406 33.62788391113281 -87.22389984130859 31.21198463439941 L -87.41843414306641 31.14574241638184 C -88.16022491455078 33.57572937011719 -88.69724273681641 36.08055877685547 -89.02012634277344 38.61682891845703 L -88.81830596923828 38.63881301879883 M -53.24451065063477 37.30009460449219 C -52.3614616394043 36.55239868164063 -51.41394805908203 35.89065933227539 -50.412353515625 35.3221321105957 L -50.50327301025391 35.13581085205078 C -51.52204895019531 35.71474456787109 -52.48520660400391 36.38908767700195 -53.38201904296875 37.15131759643555 L -53.24451065063477 37.30009460449219 M -83.38395690917969 23.32871437072754 C -77.06083679199219 11.93241214752197 -65.85846710205078 3.81421947479248 -53.09621429443359 1.380072951316833 L -53.13236618041992 1.162277936935425 C -56.238525390625 1.753239750862122 -59.2767333984375 2.677085638046265 -62.17702865600586 3.913454055786133 C -65.30056762695313 5.244976997375488 -68.27613830566406 6.943454265594482 -71.02107238769531 8.961700439453125 C -76.16374969482422 12.74288177490234 -80.48794555664063 17.66032218933105 -83.57542419433594 23.22770690917969 L -83.38395690917969 23.32871437072754 M -89.83090209960938 13.02560806274414 L -89.83090209960938 12.68830013275146 L -90.16910552978516 12.68830013275146 L -90.16910552978516 13.02560806274414 L -89.83090209960938 13.02560806274414 M -94.24630737304688 13.02560806274414 L -94.24630737304688 12.68830013275146 L -94.58450317382813 12.68830013275146 L -94.58450317382813 13.02560806274414 L -94.24630737304688 13.02560806274414 M -98.66259765625 13.02560806274414 L -98.66259765625 12.68830013275146 L -98.99990081787109 12.68830013275146 L -98.99990081787109 13.02560806274414 L -98.66259765625 13.02560806274414 M -2.817996501922607 9.389608383178711 L -2.817996501922607 9.052300453186035 L -3.156196594238281 9.052300453186035 L -3.156196594238281 9.389608383178711 L -2.817996501922607 9.389608383178711 M -7.233396530151367 9.389608383178711 L -7.233396530151367 9.052300453186035 L -7.571596622467041 9.052300453186035 L -7.571596622467041 9.389608383178711 L -7.233396530151367 9.389608383178711 M -11.64970397949219 9.389608383178711 L -11.64970397949219 9.052300453186035 L -11.9869966506958 9.052300453186035 L -11.9869966506958 9.389608383178711 L -11.64970397949219 9.389608383178711 M -16.06510353088379 9.389608383178711 L -16.06510353088379 9.052300453186035 L -16.40239715576172 9.052300453186035 L -16.40239715576172 9.389608383178711 L -16.06510353088379 9.389608383178711 M -2.817996501922607 4.714100360870361 L -2.817996501922607 4.376808166503906 L -19.2599048614502 4.376808166503906 L -19.2599048614502 4.714100360870361 L -2.817996501922607 4.714100360870361 M -28.21230506896973 106.493408203125 L -73.64430236816406 106.493408203125 L -73.64430236816406 106.4925003051758 L -73.64430236816406 90.03150177001953 L -77.13719940185547 90.03150177001953 C -81.73619842529297 90.03150177001953 -85.4783935546875 86.30909729003906 -85.4783935546875 81.73349761962891 L -85.4783935546875 71.29530334472656 L -89.71559906005859 71.29530334472656 C -91.59659576416016 71.29530334472656 -93.25890350341797 70.31340789794922 -94.16339874267578 68.66820526123047 C -95.05259704589844 67.05001068115234 -95.00850677490234 65.10690307617188 -94.04999542236328 63.59580612182617 C -92.34990692138672 60.32880783081055 -90.84510803222656 57.78990173339844 -89.63550567626953 55.7504997253418 C -86.95439910888672 51.22890090942383 -85.4783935546875 48.73860931396484 -85.4783935546875 44.70479202270508 C -85.4783935546875 39.78990173339844 -84.60810089111328 34.98840713500977 -82.89359283447266 30.43260765075684 C -81.23490142822266 26.02800750732422 -78.83370208740234 21.97260856628418 -75.75659942626953 18.38160705566406 C -72.69839477539063 14.81130027770996 -69.07770538330078 11.82149982452393 -64.99619293212891 9.495007514953613 C -60.81930541992188 7.114500522613525 -56.29139709472656 5.508008003234863 -51.53939819335938 4.718700408935547 C -50.21550369262695 4.499100208282471 -48.77999496459961 4.345208168029785 -47.15279769897461 4.251592636108398 L -47.15279769897461 3.328207969665527 C -47.15279769897461 1.49310028553009 -45.65610504150391 7.979172551131342e-06 -43.81650543212891 7.979172551131342e-06 L -38.45610427856445 7.979172551131342e-06 C -36.61650466918945 7.979172551131342e-06 -35.11979675292969 1.49310028553009 -35.11979675292969 3.328207969665527 L -35.11979675292969 5.343300342559814 C -30.62699699401855 6.445807933807373 -26.40510368347168 8.261099815368652 -22.57199668884277 10.73880767822266 C -18.8279972076416 13.15890026092529 -15.53490447998047 16.1559009552002 -12.78450393676758 19.64789962768555 C -10.03139686584473 23.14260864257813 -7.891196727752686 27.04500770568848 -6.424196720123291 31.24530029296875 C -4.91939640045166 35.55270004272461 -4.156196594238281 40.08150100708008 -4.156196594238281 44.70479202270508 C -4.156196594238281 54.88920974731445 -7.969504356384277 64.63439178466797 -14.89410400390625 72.14669799804688 C -23.48190498352051 81.44370269775391 -28.21230506896973 93.24720764160156 -28.21230506896973 105.3846054077148 L -28.21230506896973 106.493408203125 Z M -60.04530334472656 84.00869750976563 L -58.07250595092773 85.03289794921875 C -60.40799713134766 89.50320434570313 -68.18579864501953 90.03330230712891 -71.42039489746094 90.05220794677734 L -71.42039489746094 104.27490234375 L -30.42450332641602 104.27490234375 C -30.28499603271484 98.14949798583984 -29.01059722900391 92.12850189208984 -26.63639640808105 86.37930297851563 C -24.26039695739746 80.6256103515625 -20.86019706726074 75.33180999755859 -16.53030395507813 70.64369964599609 C -9.984596252441406 63.54180908203125 -6.380104064941406 54.33029937744141 -6.380104064941406 44.70479202270508 C -6.380104064941406 27.27449989318848 -18.19799613952637 12.02760791778564 -35.11890411376953 7.627500057220459 L -35.11890411376953 40.31010055541992 C -32.88510513305664 41.47200775146484 -31.05270385742188 43.20360946655273 -29.82059669494629 45.3185920715332 C -26.23230361938477 51.54029846191406 -28.38150405883789 59.52690124511719 -34.61130523681641 63.12329864501953 C -36.60659790039063 64.27169799804688 -38.76210403442383 64.85401153564453 -41.01659774780273 64.85401153564453 C -41.94630432128906 64.85401153564453 -42.89490509033203 64.75230407714844 -43.83719635009766 64.55069732666016 L -44.43119812011719 66.48030090332031 C -45.43559646606445 69.79140472412109 -48.17970275878906 72.23310089111328 -51.5933952331543 72.85321044921875 L -60.6725959777832 74.48310089111328 C -60.73110580444336 76.00409698486328 -61.68510437011719 77.02740478515625 -62.47530364990234 77.61780548095703 C -63.47159576416016 78.36209869384766 -64.8179931640625 78.86700439453125 -66.16890716552734 79.00199127197266 C -66.42720031738281 79.02809906005859 -66.69179534912109 79.04070281982422 -66.95370483398438 79.04070281982422 C -68.33610534667969 79.04070281982422 -69.65459442138672 78.68610382080078 -70.66619873046875 78.04170227050781 C -71.7705078125 77.33879089355469 -72.41670227050781 76.35690307617188 -72.53279876708984 75.20220947265625 C -72.65159606933594 74.01149749755859 -72.15299987792969 72.84329986572266 -71.12879943847656 71.91269683837891 C -70.10459899902344 70.98120880126953 -68.65559387207031 70.38089752197266 -67.04999542236328 70.220703125 C -66.77010345458984 70.19281005859375 -66.48839569091797 70.17839050292969 -66.21299743652344 70.17839050292969 C -64.1033935546875 70.17839050292969 -62.27370452880859 70.98841094970703 -61.32059478759766 72.34470367431641 L -51.98939514160156 70.66980743408203 C -49.40099716186523 70.20000457763672 -47.32019805908203 68.34690093994141 -46.55879592895508 65.83319091796875 L -45.97019577026367 63.91889953613281 C -48.69539642333984 62.82989883422852 -50.9967041015625 60.85080718994141 -52.4501953125 58.34609985351563 C -53.34930419921875 56.79000854492188 -53.90730285644531 55.09529876708984 -54.10799789428711 53.31059265136719 C -54.30330276489258 51.57630157470703 -54.15210342407227 49.8455924987793 -53.66070556640625 48.16620635986328 C -52.65630340576172 44.73540878295898 -50.3451042175293 41.93640899658203 -47.15279769897461 40.28580856323242 L -47.15279769897461 6.473700523376465 C -48.66210556030273 6.565500259399414 -49.97699737548828 6.707700252532959 -51.17399597167969 6.906608104705811 C -69.76170349121094 9.992700576782227 -83.25359344482422 25.88940811157227 -83.25359344482422 44.70479202270508 C -83.25359344482422 49.32810211181641 -84.8529052734375 52.03350067138672 -87.75810241699219 56.94480895996094 C -89.02619934082031 59.08769989013672 -90.4635009765625 61.5177001953125 -92.12220001220703 64.69830322265625 C -92.68739318847656 65.59381103515625 -92.72159576416016 66.68009948730469 -92.21219635009766 67.60440826416016 C -91.70370483398438 68.52600860595703 -90.77039337158203 69.07680511474609 -89.71559906005859 69.07680511474609 L -83.25359344482422 69.07680511474609 L -83.25359344482422 81.73349761962891 C -83.25359344482422 85.08599090576172 -80.50950622558594 87.81301116943359 -77.13719940185547 87.81301116943359 L -71.42039489746094 87.81301116943359 L -71.42039489746094 87.83821105957031 C -69.85260009765625 87.83460998535156 -61.93799591064453 87.63210296630859 -60.04530334472656 84.00869750976563 Z M -66.32157897949219 72.40314483642578 C -66.49482727050781 72.40314483642578 -66.66541290283203 72.41208648681641 -66.82859802246094 72.42839050292969 C -67.84019470214844 72.52920532226563 -68.76450347900391 72.8739013671875 -69.43230438232422 73.39949798583984 C -70.04790496826172 73.88460540771484 -70.37190246582031 74.46060943603516 -70.3197021484375 74.98169708251953 C -70.21530151367188 76.01400756835938 -68.74650573730469 76.82309722900391 -66.97439575195313 76.82309722900391 C -66.78090667724609 76.82309722900391 -66.58379364013672 76.81320953369141 -66.39030456542969 76.79430389404297 C -65.34539794921875 76.69081115722656 -63.93959808349609 76.15889739990234 -63.27359771728516 75.34439086914063 C -62.98650360107422 74.993408203125 -62.86139678955078 74.62260437011719 -62.90010452270508 74.24100494384766 C -63.02070236206055 73.03410339355469 -64.70010375976563 72.40319061279297 -66.29670715332031 72.40319061279297 C -66.30500030517578 72.40316009521484 -66.31328582763672 72.40314483642578 -66.32157897949219 72.40314483642578 Z M -41.13899612426758 41.02740859985352 C -45.0485954284668 41.02740859985352 -48.55410385131836 43.05870056152344 -50.51790237426758 46.46070098876953 C -52.46819686889648 49.84020614624023 -52.47090530395508 53.86860656738281 -50.52510452270508 57.23550033569336 C -48.58650588989258 60.57270050048828 -44.98019790649414 62.64630126953125 -41.11110305786133 62.64630126953125 C -39.22919845581055 62.64630126953125 -37.36619567871094 62.14680862426758 -35.72370529174805 61.20270156860352 C -30.55319595336914 58.21829986572266 -28.76850509643555 51.59070205688477 -31.74570465087891 46.42920684814453 C -33.68879699707031 43.09740829467773 -37.28790283203125 41.02740859985352 -41.13899612426758 41.02740859985352 Z M -41.13899612426758 38.80889892578125 C -39.90059661865234 38.80889892578125 -38.62259674072266 39.00600814819336 -37.34370422363281 39.3966064453125 L -37.34370422363281 3.328207969665527 C -37.34370422363281 2.706300258636475 -37.8323974609375 2.218500375747681 -38.45610427856445 2.218500375747681 L -43.81650543212891 2.218500375747681 C -44.4401969909668 2.218500375747681 -44.92890548706055 2.706300258636475 -44.92890548706055 3.328207969665527 L -44.92890548706055 39.39569854736328 C -43.64370346069336 39.00600814819336 -42.3683967590332 38.80889892578125 -41.13899612426758 38.80889892578125 Z M -23.47019577026367 103.1166076660156 L -25.71390342712402 102.9987030029297 C -25.4475040435791 98.02351379394531 -24.34499740600586 93.12660980224609 -22.43699645996094 88.44660949707031 C -20.24010467529297 83.06009674072266 -17.06759643554688 78.11370086669922 -13.00679683685303 73.74690246582031 C -12.69539642333984 73.41120910644531 -12.39030456542969 73.07099151611328 -12.09150409698486 72.72721099853516 L -10.38959693908691 74.18341064453125 C -10.70550441741943 74.54521179199219 -11.02679634094238 74.90340423583984 -11.35439682006836 75.25710296630859 C -15.23070430755615 79.4259033203125 -18.25830459594727 84.14550018310547 -20.35259628295898 89.28180694580078 C -22.16790390014648 93.73320770263672 -23.21639633178711 98.38800811767578 -23.47019577026367 103.1166076660156 Z M -36.88290405273438 101.8179016113281 L -41.03910446166992 101.8179016113281 L -41.03910446166992 99.48060607910156 L -36.88290405273438 99.48060607910156 L -36.88290405273438 101.8179016113281 Z M -43.37639617919922 101.8179016113281 L -65.97359466552734 101.8179016113281 L -65.97359466552734 99.48060607910156 L -43.37639617919922 99.48060607910156 L -43.37639617919922 101.8179016113281 Z M 3.437218310864409e-06 99.48060607910156 L -2.337304353713989 99.48060607910156 L -2.337304353713989 97.14330291748047 L 3.437218310864409e-06 97.14330291748047 L 3.437218310864409e-06 99.48060607910156 Z M -4.415396690368652 99.48060607910156 L -6.753596782684326 99.48060607910156 L -6.753596782684326 97.14330291748047 L -4.415396690368652 97.14330291748047 L -4.415396690368652 99.48060607910156 Z M -8.830796241760254 99.48060607910156 L -11.16899681091309 99.48060607910156 L -11.16899681091309 97.14330291748047 L -8.830796241760254 97.14330291748047 L -8.830796241760254 99.48060607910156 Z M -13.24710464477539 99.48060607910156 L -15.58439636230469 99.48060607910156 L -15.58439636230469 97.14330291748047 L -13.24710464477539 97.14330291748047 L -13.24710464477539 99.48060607910156 Z M -84.1553955078125 96.62310028076172 L -98.18190765380859 96.62310028076172 L -98.18190765380859 94.28580474853516 L -84.1553955078125 94.28580474853516 L -84.1553955078125 96.62310028076172 Z M -41.03459548950195 71.68859100341797 C -42.07950592041016 71.68859100341797 -43.12979507446289 71.60401153564453 -44.15579605102539 71.43840789794922 L -43.81019592285156 69.09120941162109 C -42.89779663085938 69.23863983154297 -41.9654655456543 69.31260681152344 -41.03224563598633 69.31259155273438 C -40.18238830566406 69.31257629394531 -39.33174514770508 69.25120544433594 -38.49570465087891 69.12809753417969 L -38.18159484863281 71.47980499267578 C -39.12210464477539 71.618408203125 -40.08150482177734 71.68859100341797 -41.03459548950195 71.68859100341797 Z M -7.554596424102783 70.38990020751953 L -9.350996971130371 69.11009979248047 C -8.028903961181641 67.13189697265625 -6.858889102935791 65.02770233154297 -5.872504234313965 62.85689926147461 L -3.896104335784912 63.81449890136719 C -4.932904243469238 66.09780883789063 -6.164104461669922 68.31000518798828 -7.554596424102783 70.38990020751953 Z M -32.80499649047852 69.86969757080078 L -33.76619720458984 67.94100952148438 C -32.14619827270508 67.23629760742188 -30.647705078125 66.31201171875 -29.30939674377441 65.19509887695313 L -27.79199600219727 66.78179168701172 C -29.29679679870605 68.0382080078125 -30.98339653015137 69.07680511474609 -32.80499649047852 69.86969757080078 Z M -52.98210525512695 68.05169677734375 C -54.55979537963867 66.89610290527344 -55.96019744873047 65.5155029296875 -57.14279556274414 63.95040893554688 L -55.3905029296875 62.59770202636719 C -54.33839797973633 63.99090194702148 -53.09279632568359 65.21939086914063 -51.68790435791016 66.24810028076172 L -52.98210525512695 68.05169677734375 Z M -24.09479713439941 62.07749938964844 L -25.97399711608887 60.91289901733398 C -25.06679725646973 59.41440963745117 -24.38639640808105 57.79710006713867 -23.95170402526855 56.10420608520508 L -21.81779670715332 56.66490173339844 C -22.30739593505859 58.57020950317383 -23.07330513000488 60.39179229736328 -24.09479713439941 62.07749938964844 Z M -59.88690567016602 58.70160675048828 C -60.53670501708984 56.83050155639648 -60.92459487915039 54.86759185791016 -61.03890609741211 52.8678092956543 L -58.94459533691406 52.72740936279297 C -58.84290313720703 54.50490188598633 -58.49819564819336 56.24820709228516 -57.92219543457031 57.90960693359375 L -59.88690567016602 58.70160675048828 Z M -41.02896499633789 58.18182373046875 C -43.2760124206543 58.18182373046875 -45.46149063110352 57.01328659057617 -46.66230392456055 54.93060684204102 C -48.45330429077148 51.82380676269531 -47.39130401611328 47.84400939941406 -44.28630447387695 46.05030059814453 C -43.29698944091797 45.47765350341797 -42.17362976074219 45.1949348449707 -41.05108261108398 45.1949348449707 C -39.77072525024414 45.1949348449707 -38.491455078125 45.56281661987305 -37.41390609741211 46.28789901733398 L -38.64419555664063 48.12120819091797 C -39.35771179199219 47.64105224609375 -40.20192337036133 47.3968620300293 -41.04754257202148 47.3968620300293 C -41.78694152832031 47.3968620300293 -42.5274658203125 47.58368682861328 -43.1819953918457 47.96280670166016 C -45.23039627075195 49.14630126953125 -45.93510437011719 51.77519226074219 -44.7515983581543 53.82630157470703 C -43.97069549560547 55.18088912963867 -42.52762222290039 55.97452545166016 -41.02836990356445 55.97447967529297 C -40.30727386474609 55.97445678710938 -39.57307815551758 55.79082870483398 -38.89350509643555 55.39770126342773 C -37.36530303955078 54.51480865478516 -36.52559661865234 52.7471923828125 -36.80370330810547 50.99850082397461 L -34.62570571899414 50.65110015869141 C -34.20450592041016 53.29710006713867 -35.4761962890625 55.97280883789063 -37.79010391235352 57.3101921081543 C -38.81208801269531 57.90125274658203 -39.92792129516602 58.18182373046875 -41.02896499633789 58.18182373046875 Z M -23.46930503845215 50.90940856933594 C -23.53770446777344 49.12110137939453 -23.85539627075195 47.36249923706055 -24.41519737243652 45.68130111694336 L -22.36319732666016 44.9351921081543 C -21.73230361938477 46.82880783081055 -21.37410354614258 48.80879211425781 -21.29850387573242 50.81940841674805 L -23.46930503845215 50.90940856933594 Z M -58.3235969543457 47.53260803222656 L -60.51959609985352 47.02050018310547 C -60.06239700317383 45.10440826416016 -59.32079696655273 43.26660919189453 -58.31370544433594 41.55839157104492 L -56.36339569091797 42.6798095703125 C -57.25799560546875 44.19720840454102 -57.91770553588867 45.82979202270508 -58.3235969543457 47.53260803222656 Z M -26.73539733886719 41.29830169677734 C -27.76590347290039 39.89609909057617 -28.99530410766602 38.65230178833008 -30.38939666748047 37.60200881958008 L -29.04390335083008 35.84429931640625 C -27.47610473632813 37.02420806884766 -26.09370422363281 38.42280960083008 -24.93539619445801 39.99869918823242 L -26.73539733886719 41.29830169677734 Z M -87.93990325927734 39.74040985107422 L -90.12959289550781 39.50189971923828 C -89.78490447998047 36.21960830688477 -89.08919525146484 32.97869873046875 -88.06230163574219 29.8701000213623 L -85.97430419921875 30.58110046386719 C -86.94990539550781 33.53670120239258 -87.61139678955078 36.61740875244141 -87.93990325927734 39.74040985107422 Z M -53.31150436401367 38.70090103149414 L -54.80550384521484 37.08449935913086 C -53.38799667358398 35.74620819091797 -51.79139709472656 34.63020706176758 -50.05890274047852 33.76620864868164 L -49.09050369262695 35.75070190429688 C -50.63039779663086 36.51840972900391 -52.05059814453125 37.51110076904297 -53.31150436401367 38.70090103149414 Z M -82.97459411621094 24.67530059814453 L -84.93479919433594 23.64120864868164 C -78.54839324951172 11.4732084274292 -66.6719970703125 2.395807981491089 -52.31159591674805 7.979172551131342e-06 L -51.947998046875 2.190608024597168 C -65.56770324707031 4.462207794189453 -76.88519287109375 13.07789993286133 -82.97459411621094 24.67530059814453 Z M -88.83090209960938 14.02560806274414 L -91.16910552978516 14.02560806274414 L -91.16910552978516 11.68830013275146 L -88.83090209960938 11.68830013275146 L -88.83090209960938 14.02560806274414 Z M -93.24630737304688 14.02560806274414 L -95.58450317382813 14.02560806274414 L -95.58450317382813 11.68830013275146 L -93.24630737304688 11.68830013275146 L -93.24630737304688 14.02560806274414 Z M -97.66259765625 14.02560806274414 L -99.99990081787109 14.02560806274414 L -99.99990081787109 11.68830013275146 L -97.66259765625 11.68830013275146 L -97.66259765625 14.02560806274414 Z M -1.817996621131897 10.38960838317871 L -4.156196594238281 10.38960838317871 L -4.156196594238281 8.052300453186035 L -1.817996621131897 8.052300453186035 L -1.817996621131897 10.38960838317871 Z M -6.233396530151367 10.38960838317871 L -8.571596145629883 10.38960838317871 L -8.571596145629883 8.052300453186035 L -6.233396530151367 8.052300453186035 L -6.233396530151367 10.38960838317871 Z M -10.64970397949219 10.38960838317871 L -12.9869966506958 10.38960838317871 L -12.9869966506958 8.052300453186035 L -10.64970397949219 8.052300453186035 L -10.64970397949219 10.38960838317871 Z M -15.06510448455811 10.38960838317871 L -17.40239715576172 10.38960838317871 L -17.40239715576172 8.052300453186035 L -15.06510448455811 8.052300453186035 L -15.06510448455811 10.38960838317871 Z M -19.71179580688477 10.38960838317871 L -20.28870391845703 10.38960838317871 L -20.28870391845703 8.052300453186035 L -19.71179580688477 8.052300453186035 L -19.71179580688477 10.38960838317871 Z M -1.817996621131897 5.714100360870361 L -20.2599048614502 5.714100360870361 L -20.2599048614502 3.376807928085327 L -1.817996621131897 3.376807928085327 L -1.817996621131897 5.714100360870361 Z" stroke="none" fill="#444e5b"/>
    </g>
    <path id="Path_Copy_11" data-name="Path Copy 11" d="M-5.418,20.176A10.837,10.837,0,0,0-1.44,5.4,10.914,10.914,0,0,0-10.834,0a10.827,10.827,0,0,0-9.386,16.209A10.869,10.869,0,0,0-5.418,20.176Z" transform="translate(-30.305 41.027)" fill="#444e5b" opacity="0.45"/>
  </g>
</svg>
