<svg xmlns="http://www.w3.org/2000/svg" width="100" height="100" viewBox="0 0 100 100">
  <g id="seo-and-web" transform="translate(0 0)">
    <g id="Combined_Shape" data-name="Combined Shape" transform="translate(0 0)" fill="none" stroke-miterlimit="10">
      <path d="M0,50a50,50,0,1,1,50,50A50.057,50.057,0,0,1,0,50ZM51.042,89.557V97.89A47.747,47.747,0,0,0,83.112,84.585l-5.89-5.89A39.47,39.47,0,0,1,51.042,89.557ZM16.888,84.585A47.748,47.748,0,0,0,48.958,97.89V89.557A39.473,39.473,0,0,1,22.777,78.7ZM12.5,50A37.5,37.5,0,1,0,50,12.5,37.542,37.542,0,0,0,12.5,50ZM78.7,77.223l5.891,5.89a47.751,47.751,0,0,0,13.3-32.071H89.557A39.47,39.47,0,0,1,78.7,77.223Zm-63.281,5.89L21.3,77.222a39.474,39.474,0,0,1-10.862-26.18H2.11A47.754,47.754,0,0,0,15.414,83.112ZM78.7,22.777A39.475,39.475,0,0,1,89.557,48.958H97.89A47.747,47.747,0,0,0,84.585,16.888ZM2.11,48.958h8.333A39.473,39.473,0,0,1,21.3,22.777l-5.89-5.89A47.751,47.751,0,0,0,2.11,48.958ZM16.888,15.415l5.89,5.89A39.471,39.471,0,0,1,48.958,10.443V2.11A47.751,47.751,0,0,0,16.888,15.415Zm34.154-4.972A39.473,39.473,0,0,1,77.222,21.3l5.891-5.89A47.751,47.751,0,0,0,51.042,2.11ZM46.781,83.18l.2-2.075c1,.1,2.012.145,3.02.145v2.084C48.927,83.334,47.843,83.282,46.781,83.18ZM40.46,81.942l.6-2c.961.288,1.948.531,2.933.724l-.4,2.045C42.539,82.508,41.486,82.249,40.46,81.942ZM34.5,79.505l.971-1.843c.891.47,1.813.9,2.739,1.278l-.788,1.93C36.432,80.465,35.448,80.006,34.5,79.505Zm-5.38-3.541,1.308-1.621c.78.629,1.6,1.229,2.442,1.781l-1.145,1.741C30.828,77.276,29.951,76.636,29.119,75.965Zm-4.6-4.5,1.592-1.344c.648.768,1.341,1.514,2.059,2.215l-1.457,1.49C25.943,73.076,25.205,72.282,24.514,71.464Zm45.131-.36a5.813,5.813,0,0,1-3.611-1.246L53.894,60.613l-1.683,2.154-5.237-4.092A18.059,18.059,0,1,1,57.55,45.125l5.245,4.1-1.668,2.133,12.13,9.237A5.874,5.874,0,0,1,69.646,71.1ZM55.179,58.973l12.128,9.235a3.79,3.79,0,1,0,4.677-5.964L59.846,53Zm-6.166-1.35,2.839,2.219,8.018-10.26L57.012,47.35A18,18,0,0,1,49.013,57.623ZM27.176,32.295a15.965,15.965,0,0,0,12.567,25.8A15.575,15.575,0,0,0,54.8,47.338,15.94,15.94,0,0,0,27.176,32.295ZM51.569,71.1V69.02h2.653V71.1Zm-11.826,0V69.02h8.538V71.1ZM20.854,66.164l1.822-1.013c.486.877,1.023,1.74,1.6,2.567L22.557,68.9C21.947,68.02,21.374,67.1,20.854,66.164Zm-2.572-5.9,1.982-.644c.31.954.67,1.905,1.071,2.826l-1.91.833C19,62.292,18.612,61.277,18.282,60.26ZM16.9,53.969l2.069-.247c.119,1,.288,2,.5,2.979l-2.035.445C17.21,56.1,17.03,55.035,16.9,53.969Zm14.3-.906a13.9,13.9,0,0,1-2.389-19.486,13.718,13.718,0,0,1,7.659-4.946l.489,2.025a11.656,11.656,0,0,0-6.507,4.2,11.813,11.813,0,0,0,2.03,16.561,11.678,11.678,0,0,0,7.255,2.5c11.246,0,16.039-14.249,7.278-21.1a11.65,11.65,0,0,0-4.915-2.272l.411-2.043A13.72,13.72,0,0,1,48.3,31.187c10.312,8.06,4.665,24.821-8.561,24.821A13.741,13.741,0,0,1,31.206,53.063Zm2.566-3.283A9.722,9.722,0,0,1,30.9,46.119l1.9-.853a7.626,7.626,0,0,0,6.943,4.493v2.083A9.616,9.616,0,0,1,33.772,49.78ZM16.667,50l2.083,0c0,.235,0,.471.007.7l-2.082.048Q16.666,50.377,16.667,50ZM81.25,50c0-.235,0-.471-.007-.7l2.083-.048q.008.378.008.757Zm-.724-6.7,2.035-.445c.229,1.043.41,2.112.536,3.178l-2.068.247C80.91,45.278,80.741,44.276,80.527,43.3ZM30.113,40.949l2.068.25a7.669,7.669,0,0,0,.158,2.716l-2.025.486A9.737,9.737,0,0,1,30.113,40.949Zm48.552-3.392,1.91-.832c.428.984.813,2,1.143,3.015l-1.982.643C79.427,39.429,79.067,38.478,78.665,37.557ZM67.272,38.692V36.608h8.538v2.083Zm-5.94,0V36.608h2.653v2.083Zm14.4-6.41L77.443,31.1c.609.883,1.183,1.8,1.7,2.739l-1.821,1.013C76.838,33.972,76.3,33.109,75.729,32.282Zm-3.893-4.617,1.456-1.49c.766.749,1.5,1.544,2.194,2.362L73.894,29.88C73.246,29.112,72.554,28.366,71.835,27.665Zm-4.7-3.79,1.145-1.741c.9.59,1.772,1.229,2.6,1.9l-1.308,1.621C68.793,25.027,67.972,24.428,67.132,23.875ZM61.791,21.06l.788-1.93c.988.405,1.972.864,2.921,1.364l-.971,1.843C63.639,21.868,62.717,21.439,61.791,21.06ZM56.01,19.33l.4-2.045c1.052.206,2.105.465,3.13.772l-.6,2C57.982,19.766,57,19.523,56.01,19.33ZM50,18.75V16.666c1.073,0,2.156.052,3.218.154l-.2,2.074C52.024,18.8,51.007,18.75,50,18.75ZM12.915,9.114V7.031h3.443V9.114ZM4,9.114V7.031h6.729V9.114Z" stroke="none"/>
      <path d="M 50.00039672851563 98.99990081787109 C 77.01881408691406 98.99990081787109 98.99990081787109 77.01881408691406 98.99990081787109 50.00039672851563 C 98.99990081787109 22.98148918151855 77.01881408691406 0.999996542930603 50.00039672851563 0.999996542930603 C 22.98148918151855 0.999996542930603 0.999996542930603 22.98148918151855 0.999996542930603 50.00039672851563 C 0.999996542930603 77.01881408691406 22.98148918151855 98.99990081787109 50.00039672851563 98.99990081787109 M 77.24087524414063 77.29905700683594 L 77.9298095703125 77.98799896240234 L 83.81941223144531 83.87759399414063 L 84.54190063476563 84.60009002685547 L 83.80402374267578 85.30687713623047 C 74.93454742431641 93.80242919921875 63.30698013305664 98.62636566162109 51.0632438659668 98.89007568359375 L 50.04170608520508 98.91207122802734 L 50.04170608520508 97.89030456542969 L 50.04170608520508 89.55721282958984 L 50.04170608520508 88.58293151855469 L 51.01564407348633 88.55754852294922 C 60.54044342041016 88.30928802490234 69.60311889648438 84.54916381835938 76.53424072265625 77.96982574462891 L 77.24087524414063 77.29905700683594 M 22.75898170471191 77.29910278320313 L 23.46561241149902 77.96977996826172 C 30.39762687683105 84.54914855957031 39.46031951904297 88.30928802490234 48.98425674438477 88.55754852294922 L 49.95819473266602 88.58293151855469 L 49.95819473266602 89.55721282958984 L 49.95819473266602 97.89030456542969 L 49.95819473266602 98.91207122802734 L 48.9366569519043 98.89007568359375 C 36.69299697875977 98.62639617919922 25.06542778015137 93.80244445800781 16.19587326049805 85.30687713623047 L 15.4579963684082 84.60009002685547 L 16.18048858642578 83.87759399414063 L 22.07008934020996 77.98799896240234 L 22.75898170471191 77.29910278320313 M 50.00039672851563 11.50010395050049 C 71.22904205322266 11.50010395050049 88.49979400634766 28.7712574005127 88.49979400634766 50.00039672851563 C 88.49979400634766 71.22904205322266 71.22904205322266 88.49979400634766 50.00039672851563 88.49979400634766 C 28.7712574005127 88.49979400634766 11.50010395050049 71.22904205322266 11.50010395050049 50.00039672851563 C 11.50010395050049 28.7712574005127 28.7712574005127 11.50010395050049 50.00039672851563 11.50010395050049 M 1.087827324867249 50.04170608520508 L 2.109596490859985 50.04170608520508 L 10.44270420074463 50.04170608520508 L 11.41688919067383 50.04170608520508 L 11.4423656463623 51.01554870605469 C 11.69150447845459 60.54071807861328 15.45162773132324 69.60310363769531 22.03007316589355 76.53333282470703 L 22.70084190368652 77.23996734619141 L 22.01190376281738 77.92890167236328 L 16.12141227722168 83.81941223144531 L 15.39884281158447 84.54198455810547 L 14.69205856323242 83.80394744873047 C 6.197134971618652 74.93324279785156 1.37353503704071 63.30569076538086 1.109827280044556 51.0632438659668 L 1.087827324867249 50.04170608520508 M 88.58293151855469 50.04170608520508 L 89.55721282958984 50.04170608520508 L 97.89030456542969 50.04170608520508 L 98.91207122802734 50.04170608520508 L 98.89007568359375 51.0632438659668 C 98.62638092041016 63.3066291809082 93.80276489257813 74.93418121337891 85.30780029296875 83.80397796630859 L 84.60107421875 84.54188537597656 L 83.87854766845703 83.8194580078125 L 77.98805999755859 77.92985534667969 L 77.29901123046875 77.24093627929688 L 77.96982574462891 76.53424072265625 C 84.54916381835938 69.60311889648438 88.30928802490234 60.54044342041016 88.55754852294922 51.01564407348633 L 88.58293151855469 50.04170608520508 M 84.60009002685547 15.4579963684082 L 85.30687713623047 16.19587326049805 C 93.80242919921875 25.06534957885742 98.62636566162109 36.69292068481445 98.89007568359375 48.9366569519043 L 98.91207122802734 49.95819473266602 L 97.89030456542969 49.95819473266602 L 89.55721282958984 49.95819473266602 L 88.58293151855469 49.95819473266602 L 88.55754852294922 48.98425674438477 C 88.30927276611328 39.46030426025391 84.54913330078125 30.39761161804199 77.96977996826172 23.46561241149902 L 77.29910278320313 22.75898170471191 L 77.98799896240234 22.07008934020996 L 83.87759399414063 16.18048858642578 L 84.60009002685547 15.4579963684082 M 15.39976596832275 15.45795059204102 L 16.12230491638184 16.18048858642578 L 22.01190376281738 22.07008934020996 L 22.70079612731934 22.75898170471191 L 22.03011894226074 23.46561241149902 C 15.45075035095215 30.39764213562012 11.69061183929443 39.46033477783203 11.4423656463623 48.98425674438477 L 11.4169807434082 49.95819473266602 L 10.44270420074463 49.95819473266602 L 2.109596490859985 49.95819473266602 L 1.087827324867249 49.95819473266602 L 1.109827280044556 48.9366569519043 C 1.373550415039063 36.69384384155273 6.197473526000977 25.06628799438477 14.69299697875977 16.19591903686523 L 15.39976596832275 15.45795059204102 M 49.95819473266602 1.087827324867249 L 49.95819473266602 2.109596490859985 L 49.95819473266602 10.44270420074463 L 49.95819473266602 11.4169807434082 L 48.98425674438477 11.4423656463623 C 39.45944213867188 11.6906270980835 30.39674949645996 15.45075035095215 23.46565818786621 22.03007316589355 L 22.7590274810791 22.70084190368652 L 22.07008934020996 22.01190376281738 L 16.18048858642578 16.12230491638184 L 15.45795059204102 15.39976596832275 L 16.19591903686523 14.69299697875977 C 25.06628799438477 6.197473526000977 36.69384384155273 1.373550415039063 48.9366569519043 1.109827280044556 L 49.95819473266602 1.087827324867249 M 50.04170608520508 1.087827324867249 L 51.0632438659668 1.109827280044556 C 63.3066291809082 1.37353503704071 74.93418121337891 6.197150230407715 83.80397796630859 14.69210433959961 L 84.54199981689453 15.39893531799316 L 83.81935119628906 16.12145805358887 L 77.92884063720703 22.01105880737305 L 77.23996734619141 22.69984245300293 L 76.53337860107422 22.02922821044922 C 69.60193634033203 15.45042705535889 60.53956604003906 11.69061183929443 51.01564407348633 11.4423656463623 L 50.04170608520508 11.4169807434082 L 50.04170608520508 10.44270420074463 L 50.04170608520508 2.109596490859985 L 50.04170608520508 1.087827324867249 M 49.00039672851563 82.31829833984375 L 49.00039672851563 82.23482513427734 C 48.62679290771484 82.22335052490234 48.25346755981445 82.20548248291016 47.88190841674805 82.1812744140625 L 47.87389755249023 82.26443481445313 C 48.24895095825195 82.28879547119141 48.62491607666016 82.30677795410156 49.00039672851563 82.31829833984375 M 42.80401611328125 81.525634765625 L 42.81998443603516 81.44391632080078 C 42.45589065551758 81.36083984375 42.09324264526367 81.27140045166016 41.73321151733398 81.1759033203125 L 41.70934677124023 81.2557373046875 C 42.07155609130859 81.35178375244141 42.4370002746582 81.44188690185547 42.80401611328125 81.525634765625 M 36.87897109985352 79.55025482177734 L 36.91069793701172 79.47260284423828 C 36.56943893432617 79.32049560546875 36.23066711425781 79.16244506835938 35.89571380615234 78.99906158447266 L 35.85681533813477 79.07289123535156 C 36.19441604614258 79.23768615722656 36.53559875488281 79.39702606201172 36.87897109985352 79.55025482177734 M 31.44598579406738 76.46696472167969 L 31.4916820526123 76.39748382568359 C 31.18625831604004 76.18264770507813 30.88427734375 75.96237945556641 30.58670997619629 75.73738861083984 L 30.53466987609863 75.80188751220703 C 30.83441925048828 76.02867889404297 31.13859367370605 76.25066375732422 31.44598579406738 76.46696472167969 M 26.70357131958008 72.39967346191406 L 26.76187705993652 72.34003448486328 C 26.50346946716309 72.07144165039063 26.24881172180176 71.79747009277344 25.99885940551758 71.51913452148438 L 25.93535041809082 71.57273864746094 C 26.1868724822998 71.85283660888672 26.44325828552246 72.12881469726563 26.70357131958008 72.39967346191406 M 69.64650726318359 70.10359954833984 C 71.15921020507813 70.10359954833984 72.56045532226563 69.42090606689453 73.49087524414063 68.23064422607422 C 74.29221343994141 67.20526123046875 74.64714813232422 65.93070220947266 74.49027252197266 64.64136505126953 C 74.33372497558594 63.35021209716797 73.67892456054688 62.19431686401367 72.64617919921875 61.38585662841797 L 60.52128982543945 52.1531982421875 L 59.7154426574707 51.53958129882813 L 60.33930587768555 50.74165725708008 L 61.39094924926758 49.39659118652344 L 56.93379592895508 45.91301345825195 L 56.46539688110352 45.54692077636719 L 56.56322860717773 44.96053314208984 C 57.59531784057617 38.77479553222656 55.17741012573242 32.54121017456055 50.25312042236328 28.69242668151855 C 47.22576522827148 26.32647323608398 43.59955215454102 25.07590484619141 39.76650238037109 25.07590484619141 C 34.47587203979492 25.07590484619141 29.57547378540039 27.46370506286621 26.32178115844727 31.62713432312012 C 23.52276611328125 35.2081184387207 22.28659629821777 39.67287445068359 22.84096527099609 44.19876480102539 C 23.39612007141113 48.72502899169922 25.67452049255371 52.75927352905273 29.25647354125977 55.55838012695313 C 32.28384399414063 57.92433547973633 35.91005706787109 59.17490386962891 39.74310302734375 59.17490386962891 C 42.11478042602539 59.17490386962891 44.41327285766602 58.69805908203125 46.57473373413086 57.75762557983398 L 47.1204719543457 57.52017974853516 L 47.58942794799805 57.88662719726563 L 52.03857421875 61.36322784423828 L 53.10584259033203 59.99745941162109 L 53.71389007568359 59.2193489074707 L 54.49958038330078 59.81756591796875 L 66.64059448242188 69.06147003173828 L 66.64566040039063 69.06533813476563 L 66.65068817138672 69.06925964355469 C 67.51630401611328 69.74593353271484 68.55193328857422 70.10359954833984 69.64559936523438 70.10359954833984 L 69.64650726318359 70.10359954833984 M 66.69681549072266 69.00026702880859 L 54.57319641113281 59.76901245117188 L 53.76750564575195 59.15553665161133 L 54.39107513427734 58.35762786865234 L 59.0584716796875 52.38522720336914 L 59.66654968261719 51.60713577270508 L 60.45222854614258 52.20539474487305 L 72.59053802490234 61.44839477539063 L 72.59519958496094 61.45195007324219 L 72.59981536865234 61.45555114746094 C 73.60894775390625 62.24282836914063 74.25056457519531 63.37581253051758 74.40645599365234 64.64576721191406 C 74.56216430664063 65.91424560546875 74.21379852294922 67.16909027099609 73.42490386962891 68.17994689941406 C 72.51030731201172 69.34939575195313 71.13607025146484 70.02010345458984 69.65459442138672 70.02010345458984 C 68.57553100585938 70.02010345458984 67.55288696289063 69.66746520996094 66.69681549072266 69.00026702880859 M 56.47650527954102 45.6621208190918 L 57.62802886962891 46.56195068359375 L 60.48551940917969 48.79484176635742 L 61.27352142333984 49.41059494018555 L 60.65773391723633 50.19856643676758 L 52.63964462280273 60.45856475830078 L 52.02373504638672 61.24667358398438 L 51.23576736450195 60.63058090209961 L 48.39716720581055 58.41118240356445 L 47.24939727783203 57.51379776000977 L 48.49942779541016 56.76541137695313 C 52.14319610595703 54.58390426635742 54.8264274597168 51.13761138916016 56.05484390258789 47.06136703491211 L 56.47650527954102 45.6621208190918 M 39.76650238037109 25.15939712524414 C 43.58131790161133 25.15939712524414 47.18991851806641 26.40384292602539 50.20221328735352 28.75821113586426 C 55.97052001953125 33.26665878295898 58.14573669433594 40.68751907348633 55.74376678466797 47.66393661499023 C 53.84045791625977 53.18832015991211 48.63756561279297 59.09139633178711 39.74310302734375 59.09139633178711 C 35.92636489868164 59.09139633178711 32.31765747070313 57.84688949584961 29.30738067626953 55.49259567260742 C 25.74225807189941 52.70610427856445 23.47495079040527 48.69182586669922 22.92313575744629 44.18922805786133 C 22.37142753601074 39.68681335449219 23.60211944580078 35.24388885498047 26.38833427429199 31.67910385131836 C 29.62498092651367 27.53573417663574 34.50113677978516 25.15939712524414 39.76650238037109 25.15939712524414 M 53.22230529785156 70.10270690917969 L 53.22230529785156 70.02010345458984 L 52.5691032409668 70.02010345458984 L 52.5691032409668 70.10270690917969 L 53.22230529785156 70.10270690917969 M 47.28139495849609 70.10270690917969 L 47.28139495849609 70.02010345458984 L 40.74310302734375 70.02010345458984 L 40.74310302734375 70.10270690917969 L 47.28139495849609 70.10270690917969 M 22.82388114929199 67.50267791748047 L 22.89249420166016 67.45524597167969 C 22.68922805786133 67.14088439941406 22.49177360534668 66.82337951660156 22.30078887939453 66.50379180908203 L 22.22792053222656 66.54433441162109 C 22.42067337036133 66.86652374267578 22.61957931518555 67.18637847900391 22.82388114929199 67.50267791748047 M 19.9564151763916 61.9527473449707 L 20.0327205657959 61.91948699951172 C 19.89465713500977 61.57336044311523 19.76222801208496 61.22383880615234 19.6358757019043 60.87209701538086 L 19.55651664733887 60.89786529541016 C 19.68367576599121 61.25165176391602 19.81711769104004 61.6036491394043 19.9564151763916 61.9527473449707 M 18.21660995483398 55.9532470703125 L 18.29785346984863 55.93545913696289 C 18.22949981689453 55.56884384155273 18.16744041442871 55.20075988769531 18.11185646057129 54.832275390625 L 18.02923393249512 54.84212493896484 C 18.08543586730957 55.21432113647461 18.1479663848877 55.58510971069336 18.21660995483398 55.9532470703125 M 39.74310302734375 55.00790405273438 C 42.6326904296875 55.00790405273438 45.31184387207031 54.13302612304688 47.490966796875 52.47784423828125 C 49.51447296142578 50.94085693359375 51.03667449951172 48.81436538696289 51.89301300048828 46.32824325561523 C 52.75205993652344 43.83432006835938 52.86304092407227 41.20936584472656 52.21399688720703 38.73716735839844 C 51.51712036132813 36.08273315429688 49.95207214355469 33.74430465698242 47.68832015991211 31.97487258911133 C 46.35416793823242 30.93272399902344 44.87949371337891 30.1798095703125 43.29312896728516 29.72946929931641 L 43.27653884887695 29.81187438964844 C 44.84958267211914 30.25907325744629 46.31261444091797 31.00630569458008 47.63725662231445 32.04053497314453 C 51.99013519287109 35.44314956665039 53.63184356689453 41.04095077514648 51.81972122192383 46.30159759521484 C 50.01513671875 51.54030609130859 45.27479553222656 54.9253044128418 39.74310302734375 54.9253044128418 C 36.86771774291992 54.9253044128418 34.14608764648438 53.98617935180664 31.8723201751709 52.20933532714844 C 26.3133659362793 47.86368942260742 25.3253345489502 39.80487442016602 29.67001152038574 34.24464416503906 C 31.26298713684082 32.2072639465332 33.35623550415039 30.73852348327637 35.76706695556641 29.95633125305176 L 35.74751281738281 29.87530136108398 C 33.31781387329102 30.66225814819336 31.20895004272461 32.14113235473633 29.60502815246582 34.1929817199707 C 25.2312126159668 39.78948974609375 26.22553443908691 47.90114974975586 31.8215503692627 52.27524185180664 C 34.10861206054688 54.06296539306641 36.84782791137695 55.00790405273438 39.74310302734375 55.00790405273438 M 38.74310302734375 50.78522491455078 L 38.74310302734375 50.70121765136719 C 37.17759704589844 50.52100372314453 35.70541763305664 49.91675186157227 34.43778228759766 48.92668914794922 C 33.58938217163086 48.26269912719727 32.88975524902344 47.47063827514648 32.34939956665039 46.56387710571289 L 32.27499771118164 46.5972900390625 C 32.82315063476563 47.51430511474609 33.54148483276367 48.33065414428711 34.38732147216797 48.99195098876953 C 35.66926193237305 49.99369049072266 37.15907287597656 50.60452270507813 38.74310302734375 50.78522491455078 M 81.88833618164063 45.16764068603516 L 81.9710693359375 45.15777587890625 C 81.91505432128906 44.78672027587891 81.85244750976563 44.41591262817383 81.78347778320313 44.04661560058594 L 81.70207977294922 44.06443786621094 C 81.77039337158203 44.43064880371094 81.83255004882813 44.79883193969727 81.88833618164063 45.16764068603516 M 31.10763359069824 43.18259048461914 L 31.18880271911621 43.16310882568359 C 31.14506530761719 42.80297470092773 31.12404823303223 42.44116592407227 31.12580490112305 42.07891464233398 L 31.04269409179688 42.0688591003418 C 31.04052925109863 42.44104385375977 31.06220054626465 42.81278228759766 31.10763359069824 43.18259048461914 M 80.36403656005859 39.12780380249023 L 80.44338226318359 39.1020393371582 C 80.31622314453125 38.74825286865234 80.18278503417969 38.39625930786133 80.04348754882813 38.04716110229492 L 79.96718597412109 38.08042144775391 C 80.10523223876953 38.42650604248047 80.23770904541016 38.77614212036133 80.36403656005859 39.12780380249023 M 74.81060028076172 37.6919059753418 L 74.81060028076172 37.6083984375 L 68.27230072021484 37.6083984375 L 68.27230072021484 37.6919059753418 L 74.81060028076172 37.6919059753418 M 62.98550415039063 37.6919059753418 L 62.98550415039063 37.6083984375 L 62.33230590820313 37.6083984375 L 62.33230590820313 37.6919059753418 L 62.98550415039063 37.6919059753418 M 77.69944763183594 33.49619293212891 L 77.7720947265625 33.45575714111328 C 77.57930755615234 33.13351058959961 77.38035583496094 32.81357955932617 77.17601776123047 32.49723052978516 L 77.10742950439453 32.54464721679688 C 77.31056976318359 32.85876083374023 77.50812530517578 33.17629623413086 77.69944763183594 33.49619293212891 M 74.00115966796875 28.48066520690918 L 74.06488037109375 28.42688751220703 C 73.81352233886719 28.14684104919434 73.55720520019531 27.87093544006348 73.29683685302734 27.60014915466309 L 73.23859405517578 27.65976333618164 C 73.49643707275391 27.92791175842285 73.7509765625 28.20192527770996 74.00115966796875 28.48066520690918 M 69.41320037841797 24.26251602172852 L 69.46530151367188 24.19792747497559 C 69.16506195068359 23.97068977355957 68.86090850830078 23.7486743927002 68.55403900146484 23.53274917602539 L 68.50822448730469 23.60241317749023 C 68.81364440917969 23.81724548339844 69.11562347412109 24.03751373291016 69.41320037841797 24.26251602172852 M 64.10418701171875 21.0008373260498 L 64.14308929443359 20.92700576782227 C 63.80543899536133 20.76218414306641 63.46437072753906 20.6028995513916 63.12092971801758 20.44964027404785 L 63.08919906616211 20.52730560302734 C 63.43047332763672 20.67941665649414 63.76924896240234 20.83746910095215 64.10418701171875 21.0008373260498 M 58.26668930053711 18.82400131225586 L 58.29055404663086 18.74416351318359 C 57.9283447265625 18.64811706542969 57.56290054321289 18.55801582336426 57.19588470458984 18.47426986694336 L 57.17991638183594 18.55598640441895 C 57.54401016235352 18.63906478881836 57.90665817260742 18.72850036621094 58.26668930053711 18.82400131225586 M 52.11799240112305 17.81861877441406 L 52.12600326538086 17.7354679107666 C 51.75120162963867 17.71112251281738 51.37553787231445 17.69315528869629 51.00039672851563 17.6816291809082 L 51.00039672851563 17.76509284973145 C 51.37372970581055 17.77656364440918 51.74663162231445 17.79442405700684 52.11799240112305 17.81861877441406 M 15.35750389099121 8.114304542541504 L 15.35750389099121 8.030797004699707 L 13.91499614715576 8.030797004699707 L 13.91499614715576 8.114304542541504 L 15.35750389099121 8.114304542541504 M 9.724396705627441 8.114304542541504 L 9.724396705627441 8.030797004699707 L 4.995104312896729 8.030797004699707 L 4.995104312896729 8.114304542541504 L 9.724396705627441 8.114304542541504 M 50.00039672851563 99.99990081787109 C 22.42979621887207 99.99990081787109 -3.437218310864409e-06 77.57010650634766 -3.437218310864409e-06 50.00039672851563 C -3.437218310864409e-06 22.42979621887207 22.42979621887207 -3.437218310864409e-06 50.00039672851563 -3.437218310864409e-06 C 77.57010650634766 -3.437218310864409e-06 99.99990081787109 22.42979621887207 99.99990081787109 50.00039672851563 C 99.99990081787109 77.57010650634766 77.57010650634766 99.99990081787109 50.00039672851563 99.99990081787109 Z M 77.22270202636719 78.69510650634766 C 70.11179351806641 85.44510650634766 60.81390380859375 89.30250549316406 51.04170608520508 89.55721282958984 L 51.04170608520508 97.89030456542969 C 63.03419494628906 97.63201141357422 74.4237060546875 92.90701293945313 83.1123046875 84.58470153808594 L 77.22270202636719 78.69510650634766 Z M 22.77719688415527 78.69510650634766 L 16.88759613037109 84.58470153808594 C 25.57530403137207 92.90610504150391 36.96479797363281 97.63201141357422 48.95819473266602 97.89030456542969 L 48.95819473266602 89.55721282958984 C 39.18690490722656 89.30250549316406 29.88899612426758 85.44510650634766 22.77719688415527 78.69510650634766 Z M 50.00039672851563 12.50010395050049 C 29.32290458679199 12.50010395050049 12.50010395050049 29.32290458679199 12.50010395050049 50.00039672851563 C 12.50010395050049 70.67790222167969 29.32290458679199 87.49979400634766 50.00039672851563 87.49979400634766 C 70.67790222167969 87.49979400634766 87.49979400634766 70.67790222167969 87.49979400634766 50.00039672851563 C 87.49979400634766 29.32290458679199 70.67790222167969 12.50010395050049 50.00039672851563 12.50010395050049 Z M 89.55721282958984 51.04170608520508 C 89.30250549316406 60.81390380859375 85.44510650634766 70.11179351806641 78.69510650634766 77.22270202636719 L 84.58559417724609 83.1123046875 C 92.90701293945313 74.4237060546875 97.63201141357422 63.03419494628906 97.89030456542969 51.04170608520508 L 89.55721282958984 51.04170608520508 Z M 2.109596490859985 51.04170608520508 C 2.367904186248779 63.03330612182617 7.092904090881348 74.42279815673828 15.41430377960205 83.1123046875 L 21.30479621887207 77.22179412841797 C 14.55570411682129 70.11179351806641 10.69830417633057 60.81390380859375 10.44270420074463 51.04170608520508 L 2.109596490859985 51.04170608520508 Z M 84.58470153808594 16.88759613037109 L 78.69510650634766 22.77719688415527 C 85.44510650634766 29.88899612426758 89.30250549316406 39.18779754638672 89.55721282958984 48.95819473266602 L 97.89030456542969 48.95819473266602 C 97.63201141357422 36.96570587158203 92.90701293945313 25.57619667053223 84.58470153808594 16.88759613037109 Z M 15.41519641876221 16.88759613037109 C 7.092904090881348 25.57710456848145 2.367904186248779 36.96659469604492 2.109596490859985 48.95819473266602 L 10.44270420074463 48.95819473266602 C 10.69739627838135 39.18690490722656 14.55479621887207 29.88899612426758 21.30479621887207 22.77719688415527 L 15.41519641876221 16.88759613037109 Z M 48.95819473266602 2.109596490859985 C 36.96659469604492 2.367904186248779 25.57710456848145 7.092904090881348 16.88759613037109 15.41519641876221 L 22.77719688415527 21.30479621887207 C 29.88810348510742 14.55479621887207 39.18690490722656 10.69739627838135 48.95819473266602 10.44270420074463 L 48.95819473266602 2.109596490859985 Z M 51.04170608520508 2.109596490859985 L 51.04170608520508 10.44270420074463 C 60.81299591064453 10.69739627838135 70.11090087890625 14.55479621887207 77.22179412841797 21.30390357971191 L 83.1123046875 15.41430377960205 C 74.4237060546875 7.092904090881348 63.03419494628906 2.367904186248779 51.04170608520508 2.109596490859985 Z M 50.00039672851563 83.33370208740234 C 48.92670440673828 83.33370208740234 47.84310531616211 83.28150177001953 46.78110504150391 83.17979431152344 L 46.98090362548828 81.10530090332031 C 47.97630310058594 81.20159912109375 48.99330520629883 81.25019836425781 50.00039672851563 81.25019836425781 L 50.00039672851563 83.33370208740234 Z M 43.59059524536133 82.71450805664063 C 42.53850555419922 82.50839996337891 41.48550415039063 82.24919891357422 40.46039581298828 81.94230651855469 L 41.05710601806641 79.94610595703125 C 42.01830291748047 80.23410797119141 43.00470352172852 80.47710418701172 43.99019622802734 80.66970062255859 L 43.59059524536133 82.71450805664063 Z M 37.42019653320313 80.8695068359375 C 36.4319953918457 80.46450805664063 35.44830322265625 80.00550079345703 34.49879837036133 79.50510406494141 L 35.46990585327148 77.66190338134766 C 36.36090469360352 78.13170623779297 37.28250503540039 78.56101226806641 38.20859527587891 78.93990325927734 L 37.42019653320313 80.8695068359375 Z M 31.72319602966309 77.86530303955078 C 30.82770347595215 77.27579498291016 29.95110511779785 76.63590240478516 29.11859703063965 75.96450805664063 L 30.42630386352539 74.34361267089844 C 31.20659637451172 74.97270202636719 32.02830505371094 75.57210540771484 32.86799621582031 76.12470245361328 L 31.72319602966309 77.86530303955078 Z M 26.70839691162109 73.8251953125 C 25.94339561462402 73.07639312744141 25.20539665222168 72.28170776367188 24.51419639587402 71.46360015869141 L 26.10630416870117 70.11990356445313 C 26.75430488586426 70.88761138916016 27.44730377197266 71.63370513916016 28.16550445556641 72.33479309082031 L 26.70839691162109 73.8251953125 Z M 69.64650726318359 71.10359954833984 L 69.64559936523438 71.10359954833984 C 68.32710266113281 71.10359954833984 67.07790374755859 70.67250061035156 66.03481292724609 69.85710144042969 L 53.89379501342773 60.61319732666016 L 52.21079635620117 62.76690292358398 L 46.97370529174805 58.67459487915039 C 44.68590545654297 59.66999816894531 42.25319671630859 60.17490386962891 39.74310302734375 60.17490386962891 C 35.68499755859375 60.17490386962891 31.84559631347656 58.85099792480469 28.64070510864258 56.34630584716797 C 24.84810447692871 53.38259506225586 22.43610382080078 49.11210250854492 21.84839630126953 44.32050323486328 C 21.2615966796875 39.5297966003418 22.5701961517334 34.80299758911133 25.53390502929688 31.01130485534668 C 28.97819709777832 26.60399627685547 34.16579818725586 24.07590484619141 39.76650238037109 24.07590484619141 C 43.8245964050293 24.07590484619141 47.66399765014648 25.3997974395752 50.86890411376953 27.90450477600098 C 56.08170318603516 31.97879600524902 58.64219665527344 38.57670593261719 57.54959487915039 45.12510299682617 L 62.79479598999023 49.2245979309082 L 61.12710571289063 51.35759735107422 L 73.25730133056641 60.59430313110352 C 74.50290679931641 61.56719589233398 75.29399871826172 62.96219635009766 75.48299407958984 64.52099609375 C 75.67201232910156 66.07439422607422 75.2445068359375 67.61070251464844 74.27879333496094 68.84641265869141 C 73.15739440917969 70.28099822998047 71.468994140625 71.10359954833984 69.64650726318359 71.10359954833984 Z M 59.84639739990234 53.00099563598633 L 55.17899703979492 58.97339630126953 L 67.30741119384766 68.20830535888672 C 67.98690795898438 68.73930358886719 68.7987060546875 69.02010345458984 69.65459442138672 69.02010345458984 C 70.82639312744141 69.02010345458984 71.91361236572266 68.48910522460938 72.63719940185547 67.56390380859375 C 73.26090240478516 66.76470184326172 73.53719329833984 65.77199554443359 73.41390228271484 64.76759338378906 C 73.29061126708984 63.7631950378418 72.78301239013672 62.86679840087891 71.98470306396484 62.24399566650391 L 59.84639739990234 53.00099563598633 Z M 57.01230239868164 47.34990310668945 C 55.71179580688477 51.66539764404297 52.87050247192383 55.31399536132813 49.01310348510742 57.62339782714844 L 51.85170364379883 59.84279632568359 L 59.86979675292969 49.58279800415039 L 57.01230239868164 47.34990310668945 Z M 39.76650238037109 26.15939712524414 C 34.81110382080078 26.15939712524414 30.22199630737305 28.39590454101563 27.1763973236084 32.29470443725586 C 24.5547046661377 35.64899826049805 23.39639663696289 39.82950592041016 23.91570472717285 44.06759643554688 C 24.43499565124512 48.3047981262207 26.56890487670898 52.0829963684082 29.92319679260254 54.70470428466797 C 32.75639724731445 56.92050552368164 36.15210342407227 58.09139633178711 39.74310302734375 58.09139633178711 C 48.11219787597656 58.09139633178711 53.00730514526367 52.53659820556641 54.79830551147461 47.33819580078125 C 57.05910491943359 40.77179718017578 55.01339721679688 33.78779602050781 49.58639526367188 29.54610443115234 C 46.75139617919922 27.3303050994873 43.35570526123047 26.15939712524414 39.76650238037109 26.15939712524414 Z M 54.22230529785156 71.10270690917969 L 51.5691032409668 71.10270690917969 L 51.5691032409668 69.02010345458984 L 54.22230529785156 69.02010345458984 L 54.22230529785156 71.10270690917969 Z M 48.28139495849609 71.10270690917969 L 39.74310302734375 71.10270690917969 L 39.74310302734375 69.02010345458984 L 48.28139495849609 69.02010345458984 L 48.28139495849609 71.10270690917969 Z M 22.55670356750488 68.90310668945313 C 21.94739723205566 68.02019500732422 21.37410354614258 67.09859466552734 20.85390472412109 66.16439819335938 L 22.67550468444824 65.15099334716797 C 23.1615047454834 66.02759552001953 23.69879722595215 66.89070129394531 24.27119636535645 67.71781158447266 L 22.55670356750488 68.90310668945313 Z M 19.42470359802246 63.27539825439453 C 18.99630355834961 62.29170608520508 18.61199569702148 61.27739715576172 18.28170394897461 60.26039505004883 L 20.26350402832031 59.61690521240234 C 20.57310485839844 60.57090377807617 20.93310356140137 61.52219772338867 21.33450508117676 62.44290542602539 L 19.42470359802246 63.27539825439453 Z M 17.43839645385742 57.14730453491211 C 17.20979690551758 56.10419845581055 17.0297966003418 55.03499603271484 16.90199661254883 53.96939468383789 L 18.97110366821289 53.72279739379883 C 19.08990478515625 54.72179794311523 19.25910377502441 55.72350311279297 19.47330474853516 56.70179748535156 L 17.43839645385742 57.14730453491211 Z M 39.74310302734375 56.00790405273438 C 36.62370300292969 56.00790405273438 33.67079544067383 54.98999786376953 31.20570373535156 53.06310272216797 C 25.17570495605469 48.34979629516602 24.10379600524902 39.60810470581055 28.81710433959961 33.57719802856445 C 30.77010345458984 31.07879638671875 33.41879653930664 29.36879730224609 36.47610473632813 28.63170433044434 L 36.96479797363281 30.65670394897461 C 34.36919784545898 31.28219604492188 32.11919784545898 32.73570251464844 30.45779609680176 34.860595703125 C 26.45279693603516 39.98610305786133 27.36270332336426 47.41470336914063 32.48819732666016 51.42150497436523 C 34.58430480957031 53.05950546264648 37.09259796142578 53.9253044128418 39.74310302734375 53.9253044128418 C 50.98950576782227 53.9253044128418 55.78199768066406 39.67650604248047 47.02139663696289 32.82839584350586 C 45.55170440673828 31.68090438842773 43.8993034362793 30.91679573059082 42.10650253295898 30.55679702758789 L 42.51779556274414 28.51379585266113 C 44.63010406494141 28.93859672546387 46.57679748535156 29.83770370483398 48.30390548706055 31.18679618835449 C 58.61610412597656 39.24719619750977 52.96859741210938 56.00790405273438 39.74310302734375 56.00790405273438 Z M 39.74310302734375 51.841796875 C 37.56239700317383 51.841796875 35.49690246582031 51.12810516357422 33.7715950012207 49.77990341186523 C 32.53410339355469 48.81239700317383 31.54050445556641 47.54610443115234 30.89970397949219 46.11870574951172 L 32.79959487915039 45.2655029296875 C 33.30990600585938 46.40130615234375 34.06859588623047 47.36790466308594 35.05410385131836 48.13919830322266 C 36.41039657592773 49.19850540161133 38.03130340576172 49.75830459594727 39.74310302734375 49.75830459594727 L 39.74310302734375 51.841796875 Z M 16.67519569396973 50.75459671020508 C 16.66890335083008 50.50259780883789 16.66621208190918 50.25059509277344 16.66710472106934 49.99770355224609 L 18.74970436096191 50.002197265625 C 18.74970436096191 50.23710250854492 18.75239562988281 50.47290420532227 18.75690460205078 50.70690536499023 L 16.67519569396973 50.75459671020508 Z M 83.33370208740234 50.002197265625 L 81.25019836425781 49.99770355224609 C 81.25019836425781 49.76279830932617 81.24750518798828 49.52699661254883 81.24301147460938 49.29299545288086 L 83.32559967041016 49.24530410766602 C 83.33099365234375 49.4973030090332 83.33370208740234 49.74930572509766 83.33370208740234 50.002197265625 Z M 81.02970123291016 46.27710342407227 C 80.91001129150391 45.27810287475586 80.74079895019531 44.27639770507813 80.526611328125 43.29810333251953 L 82.56150054931641 42.85259628295898 C 82.79010772705078 43.89570236206055 82.97099304199219 44.96490478515625 83.09790802001953 46.0305061340332 L 81.02970123291016 46.27710342407227 Z M 30.31379699707031 44.40150451660156 C 30.04110336303711 43.26659774780273 29.97359657287598 42.10470581054688 30.11310386657715 40.94910430908203 L 32.18130493164063 41.19930267333984 C 32.07150268554688 42.10830307006836 32.12459564208984 43.02179718017578 32.33879470825195 43.91550445556641 L 30.31379699707031 44.40150451660156 Z M 79.73641204833984 40.38299560546875 C 79.42681121826172 39.42899703979492 79.06679534912109 38.47770309448242 78.66541290283203 37.5569953918457 L 80.5751953125 36.72450256347656 C 81.00359344482422 37.70819473266602 81.38790130615234 38.72250366210938 81.71819305419922 39.73950576782227 L 79.73641204833984 40.38299560546875 Z M 75.81060028076172 38.6919059753418 L 67.27230072021484 38.6919059753418 L 67.27230072021484 36.6083984375 L 75.81060028076172 36.6083984375 L 75.81060028076172 38.6919059753418 Z M 63.98550415039063 38.6919059753418 L 61.33230590820313 38.6919059753418 L 61.33230590820313 36.6083984375 L 63.98550415039063 36.6083984375 L 63.98550415039063 38.6919059753418 Z M 77.32530212402344 34.84890365600586 C 76.83839416503906 33.97230529785156 76.30110168457031 33.10919570922852 75.72870635986328 32.2821044921875 L 77.44319915771484 31.0967960357666 C 78.05250549316406 31.97970390319824 78.62579345703125 32.90130615234375 79.14601135253906 33.83550262451172 L 77.32530212402344 34.84890365600586 Z M 73.89359283447266 29.87999725341797 C 73.24561309814453 29.1123046875 72.55350494384766 28.36619567871094 71.83530426025391 27.66510391235352 L 73.29150390625 26.17470359802246 C 74.05741119384766 26.92350387573242 74.79539489746094 27.71819686889648 75.48570251464844 28.53630447387695 L 73.89359283447266 29.87999725341797 Z M 69.57359313964844 25.65630340576172 C 68.79330444335938 25.02719688415527 67.97161102294922 24.42779731750488 67.13190460205078 23.87519645690918 L 68.27670288085938 22.13459587097168 C 69.17310333251953 22.7241039276123 70.04881286621094 23.3639965057373 70.88130187988281 24.03539657592773 L 69.57359313964844 25.65630340576172 Z M 64.52999877929688 22.33799743652344 C 63.63899612426758 21.86819648742676 62.7173957824707 21.43890380859375 61.79130554199219 21.05999565124512 L 62.57970428466797 19.13039588928223 C 63.56790542602539 19.53539657592773 64.55161285400391 19.9943962097168 65.50110626220703 20.49479675292969 L 64.52999877929688 22.33799743652344 Z M 58.94279479980469 20.05379676818848 C 57.98159790039063 19.76579666137695 56.99519729614258 19.52279663085938 56.00970458984375 19.33019638061523 L 56.40930557250977 17.28539657592773 C 57.46139526367188 17.49150466918945 58.51439666748047 17.75070381164551 59.53950500488281 18.05759620666504 L 58.94279479980469 20.05379676818848 Z M 53.01899719238281 18.89459609985352 C 52.02359771728516 18.79830360412598 51.00750350952148 18.74970436096191 50.00039672851563 18.74970436096191 L 50.00039672851563 16.66621208190918 C 51.07319641113281 16.66621208190918 52.15679550170898 16.71841239929199 53.21879577636719 16.82010459899902 L 53.01899719238281 18.89459609985352 Z M 16.35750389099121 9.114304542541504 L 12.91499614715576 9.114304542541504 L 12.91499614715576 7.030796527862549 L 16.35750389099121 7.030796527862549 L 16.35750389099121 9.114304542541504 Z M 10.72439670562744 9.114304542541504 L 3.995104312896729 9.114304542541504 L 3.995104312896729 7.030796527862549 L 10.72439670562744 7.030796527862549 L 10.72439670562744 9.114304542541504 Z" stroke="none" fill="#4a90e2"/>
    </g>
    <path id="Path_Copy_10" data-name="Path Copy 10" d="M6.128,28.546A15.966,15.966,0,0,1,15.971,0a15.8,15.8,0,0,1,9.82,3.387c11.848,9.26,5.374,28.546-9.843,28.546A15.8,15.8,0,0,1,6.128,28.546Z" transform="translate(23.796 26.159)" fill="#4a90e2" opacity="0.45"/>
  </g>
</svg>
