<svg id="chat-bubble" xmlns="http://www.w3.org/2000/svg" width="422" height="397.002" viewBox="0 0 422 397.002">
  <g id="Combined_Shape" data-name="Combined Shape" transform="translate(0)" fill="none" stroke-miterlimit="10">
    <path d="M36.24,397h0V331.984l-23.114-.125A17.121,17.121,0,0,1,0,315.213V143.34a17.192,17.192,0,0,1,17.194-17.151H155.038V91.795a15.47,15.47,0,0,1,15.457-15.449H406.544A15.47,15.47,0,0,1,422,91.795V240.472a15.382,15.382,0,0,1-11.793,14.971l-1.048.126H390.636v56.958l-67.56-56.958h-15.9v59.644a17.177,17.177,0,0,1-17.163,17.151l-173.765-.375-2.44,0h-.4L36.24,397l0,0ZM8.87,143.34V315.213a8.235,8.235,0,0,0,5.9,7.906H45.11v54.814l65.061-54.813h.955l-.031,0,.194,0h.589l1.079,0h-.014l153.112.325,23.956.05a8.3,8.3,0,0,0,8.293-8.287V143.34a8.3,8.3,0,0,0-8.293-8.286H17.194A8.314,8.314,0,0,0,8.87,143.34ZM163.907,91.795v34.394h126.1a17.177,17.177,0,0,1,17.163,17.151v81.6h0V233.8h0v12.9h19.141l55.452,46.748V246.7h26.79a6.526,6.526,0,0,0,4.574-6.233V91.795a6.593,6.593,0,0,0-6.587-6.583H170.494A6.593,6.593,0,0,0,163.907,91.795ZM119.929,385V376.3h-8.7v-8.761h8.7v-8.708h8.759v8.708H137.4V376.3h-8.708V385ZM294.4,380.64v-8.708h-8.7v-8.761h8.7v-8.707h8.759v8.707h8.707v8.761h-8.707v8.708ZM210.455,362.1v-8.725h8.723V362.1Zm-17.447,0v-8.725h8.724V362.1Zm-17.447,0v-8.725h8.724V362.1Zm211.546-7.635v-8.725h8.724v8.725Zm-18.537,0v-8.725h8.723v8.725Zm-17.447,0v-8.725h8.724v8.725Zm-74.15-43.627v-8.725H285.7v8.725Zm-18.537-.013.148-8.712,8.576.013v8.712Zm-35.985.013v-8.725h8.724v8.725Zm-18.537,0v-8.725h8.724v8.725Zm-18.537,0v-8.725H194.1v8.725Zm-17.447,0v-8.725h8.724v8.725Zm-18.537,0v-8.725h8.724v8.725Zm-18.537,0v-8.725h8.724v8.725Zm-17.447,0v-8.725h8.724v8.725Zm-18.537,0v-8.725h8.724v8.725Zm-18.537,0v-8.725h8.724v8.725Zm-18.537,0v-8.725h8.724v8.725Zm-17.447,0v-8.725H49.07v8.725Zm-18.537,0v-8.725h8.724v8.725Zm218.229-.359.151-8.861,9.109.155-.151,8.861Zm36.933-17.091v-8.726H285.7v8.726Zm-255.163,0v-8.726h8.724v8.726Zm255.163-17.451v-8.725H285.7v8.725Zm-255.163,0v-8.725h8.724v8.725Zm255.163-16.359v-8.726H285.7v8.726Zm-255.163,0v-8.726h8.724v8.726Zm175.56-34.9a26.171,26.171,0,1,1,26.17,26.176A26.2,26.2,0,0,1,197.369,224.676Zm8.855,0a17.316,17.316,0,1,0,17.315-17.319A17.337,17.337,0,0,0,206.224,224.676Zm-78.643,0a26.171,26.171,0,1,1,26.17,26.176A26.2,26.2,0,0,1,127.581,224.676Zm8.855,0a17.316,17.316,0,1,0,17.315-17.319A17.337,17.337,0,0,0,136.436,224.676Zm-78.643,0a26.171,26.171,0,1,1,26.17,26.176A26.2,26.2,0,0,1,57.794,224.676Zm8.855,0a17.316,17.316,0,1,0,17.315-17.319A17.337,17.337,0,0,0,66.649,224.676Zm210.323,17.45V233.4H285.7v8.725Zm-255.163,0V233.4h8.724v8.725ZM391.468,233.4v-8.725h8.724V233.4Zm-18.537,0v-8.725h9.814V233.4Zm-18.537,0v-8.725h9.814V233.4Zm-19.628,0v-8.725h9.814V233.4Zm-18.537,0v-8.725h9.814V233.4Zm-39.256-7.635v-8.725H285.7v8.725ZM21.809,224.676v-8.726h8.724v8.726Zm369.659-8.726v-8.725h8.724v8.725Zm-114.5-7.635V199.59H285.7v8.726Zm-255.163,0V199.59h8.724v8.726ZM391.468,197.41v-8.726h8.724v8.726Zm-114.5-6.544V182.14H285.7v8.726Zm-255.163,0V182.14h8.724v8.726ZM322.77,161.418a26.171,26.171,0,1,1,26.17,26.176A26.2,26.2,0,0,1,322.77,161.418Zm8.855,0A17.316,17.316,0,1,0,348.94,144.1,17.337,17.337,0,0,0,331.625,161.418Zm59.843,18.541v-8.725h8.724v8.725Zm-114.5-5.453V165.78H285.7v8.726Zm-255.163,0V165.78h8.724v8.726Zm369.659-13.088v-8.726h8.724v8.726Zm-114.5-4.363V148.33H285.7v8.725Zm-18.537,0V148.33h8.724v8.725Zm-17.447,0V148.33h8.724v8.725Zm-18.537,0V148.33h8.724v8.725Zm-18.537,0V148.33h8.724v8.725Zm-18.537,0V148.33H194.1v8.725Zm-17.447,0V148.33h8.724v8.725Zm-18.537,0V148.33h8.724v8.725Zm-18.537,0V148.33h8.724v8.725Zm-17.447,0V148.33h8.724v8.725Zm-18.537,0V148.33h8.724v8.725Zm-18.537,0V148.33h8.724v8.725Zm-18.537,0V148.33h8.724v8.725Zm-17.447,0V148.33H49.07v8.725Zm-18.537,0V148.33h8.724v8.725Zm369.659-14.178v-8.725h8.724v8.725Zm0-17.451V116.7h8.724v8.726Zm-214.817-5.453v-6.544h8.724v6.544Zm214.817-13.088V98.159h8.724v8.726Zm-17.447,0V98.159h8.723v8.726Zm-18.538,0V98.159h8.724v8.726Zm-17.447,0V98.159h8.724v8.726Zm-17.447,0V98.159h8.724v8.726Zm-18.537,0V98.159h8.724v8.726Zm-17.447,0V98.159h8.724v8.726Zm-18.537,0V98.159h8.724v8.726Zm-17.447,0V98.159h8.723v8.726Zm-17.447,0V98.159H239.9v8.726Zm-18.537,0V98.159h8.724v8.726Zm-17.447,0V98.159h8.724v8.726Zm-18.537,0V98.159h8.724v8.726ZM42.512,80.708V72H33.8v-8.76h8.708V54.533H51.27v8.709h8.7V72h-8.7v8.707ZM309.685,58.9V50.171h8.724V58.9Zm-17.447,0V50.171h8.723V58.9Zm-18.538,0V50.171h8.724V58.9Zm-17.447,0V50.171h8.724V58.9Zm-17.447,0V50.171h8.724V58.9Zm-92.687-3.272V46.9h8.724v8.725Zm-17.447,0V46.9h8.723v8.725Zm-17.447,0V46.9h8.724v8.725Zm261.69-22.9V24.011h-8.708V15.251h8.708V6.544h8.759v8.707h8.7v8.761h-8.7V32.72ZM53.431,15.269V6.544h8.724v8.726Zm-17.447,0V6.544h8.724v8.726Zm-18.537,0V6.544H26.17v8.726ZM232.264,8.726V0h8.723V8.726Zm-17.447,0V0h8.724V8.726Zm-17.447,0V0h8.724V8.726Z" stroke="none"/>
    <path d="M 37.24028396606445 394.8497314453125 L 112.763786315918 331.2191467285156 L 113.0430068969727 330.9839172363281 L 113.4081192016602 330.9839172363281 C 113.4717864990234 330.9839172363281 113.6009521484375 330.9839172363281 113.8080596923828 330.9848022460938 C 115.4671173095703 330.9884033203125 116.1352310180664 330.9892883300781 116.2479476928711 330.9892883300781 C 125.7717819213867 331.010009765625 163.2288970947266 331.0910339355469 290.0106201171875 331.3645629882813 C 298.9229431152344 331.3645629882813 306.1736145019531 324.119140625 306.1736145019531 315.2132873535156 L 306.1736145019531 255.5694122314453 L 306.1736145019531 254.5694122314453 L 307.1736145019531 254.5694122314453 L 323.0757141113281 254.5694122314453 L 323.4410095214844 254.5694122314453 L 323.7202758789063 254.8048553466797 L 389.6360168457031 310.3766479492188 L 389.6360168457031 255.5694122314453 L 389.6360168457031 254.5694122314453 L 390.6360168457031 254.5694122314453 L 409.0992126464844 254.5694122314453 L 410.0279846191406 254.4577941894531 C 416.4912109375 252.8589935302734 421.0001220703125 247.1162719726563 421.0001220703125 240.4719085693359 L 421.0001220703125 91.79463195800781 C 421.0001220703125 83.82769012451172 414.514892578125 77.34613037109375 406.5435180664063 77.34613037109375 L 170.4942321777344 77.34613037109375 C 162.5228424072266 77.34613037109375 156.0376129150391 83.82769012451172 156.0376129150391 91.79463195800781 L 156.0376129150391 126.1890182495117 L 156.0376129150391 127.1890182495117 L 155.0376129150391 127.1890182495117 L 17.19361686706543 127.1890182495117 C 8.264450073242188 127.1890182495117 1.000005483627319 134.4344635009766 1.000005483627319 143.3403015136719 L 1.000005483627319 315.2132873535156 C 1.000005483627319 322.6258239746094 6.032091617584229 329.0430908203125 13.25114250183105 330.8594360351563 L 36.24567031860352 330.9839172363281 L 37.24028396606445 330.9892883300781 L 37.24028396606445 331.9839172363281 L 37.24028396606445 394.8497314453125 M 44.10978317260742 324.118896484375 L 14.76811695098877 324.118896484375 L 14.61956119537354 324.118896484375 L 14.47739410400391 324.0757446289063 C 10.52500534057617 322.8749084472656 7.869505405426025 319.3133544921875 7.869505405426025 315.2132873535156 L 7.869505405426025 143.3403015136719 C 7.869505405426025 138.2198486328125 12.05228328704834 134.0540161132813 17.19361686706543 134.0540161132813 L 290.0106201171875 134.0540161132813 C 295.1350708007813 134.0540161132813 299.3041076660156 138.2198486328125 299.3041076660156 143.3403015136719 L 299.3041076660156 315.2132873535156 C 299.3041076660156 320.3342895507813 295.1350708007813 324.5005187988281 290.0085144042969 324.5005187988281 L 266.0522766113281 324.4501342773438 C 155.7968902587891 324.216064453125 121.8596725463867 324.1441345214844 112.940673828125 324.125244140625 L 112.940673828125 324.1252136230469 C 112.8777389526367 324.1250305175781 112.5714721679688 324.1241760253906 111.8761138916016 324.1234130859375 L 111.8761138916016 324.123046875 L 111.5235061645508 324.1225280761719 L 111.491340637207 324.1225280761719 L 111.2893829345703 324.1216430664063 L 111.1042861938477 324.1233520507813 L 111.1042251586914 324.12158203125 L 110.6278381347656 324.1206970214844 L 110.5350189208984 324.1205139160156 L 45.75406265258789 378.6972961425781 L 44.10978317260742 380.0825805664063 L 44.10978317260742 377.9325256347656 L 44.10978317260742 324.118896484375 M 325.9495544433594 247.7044067382813 L 307.1736145019531 247.7044067382813 L 306.1736145019531 247.7044067382813 L 306.1736145019531 246.7044067382813 L 306.1736145019531 233.8020172119141 L 306.1781311035156 232.9891815185547 L 306.1781311035156 225.9370269775391 L 306.1736145019531 225.9370269775391 L 306.1736145019531 224.9370269775391 L 306.1736145019531 143.3403015136719 C 306.1736145019531 134.4344635009766 298.9229431152344 127.1890182495117 290.0106201171875 127.1890182495117 L 163.9071197509766 127.1890182495117 L 162.9071197509766 127.1890182495117 L 162.9071197509766 126.1890182495117 L 162.9071197509766 91.79463195800781 C 162.9071197509766 87.61307525634766 166.3106689453125 84.21113586425781 170.4942321777344 84.21113586425781 L 406.5435180664063 84.21113586425781 C 410.72705078125 84.21113586425781 414.130615234375 87.61307525634766 414.130615234375 91.79463195800781 L 414.130615234375 240.4710235595703 C 414.130615234375 243.7666320800781 412.0125122070313 246.6545715332031 408.8599548339844 247.6573486328125 L 408.7120666503906 247.7044067382813 L 408.5568237304688 247.7044067382813 L 382.7665100097656 247.7044067382813 L 382.7665100097656 293.4521789550781 L 382.7665100097656 295.6031799316406 L 381.1219482421875 294.2167358398438 L 325.9495544433594 247.7044067382813 M 127.6873931884766 384.0028991699219 L 127.6873931884766 376.2962951660156 L 127.6873931884766 375.2962951660156 L 128.6873931884766 375.2962951660156 L 136.3957824707031 375.2962951660156 L 136.3957824707031 368.5356750488281 L 128.6873931884766 368.5356750488281 L 127.6873931884766 368.5356750488281 L 127.6873931884766 367.5356750488281 L 127.6873931884766 359.8273010253906 L 120.9286193847656 359.8273010253906 L 120.9286193847656 367.5356750488281 L 120.9286193847656 368.5356750488281 L 119.9286193847656 368.5356750488281 L 112.2247314453125 368.5356750488281 L 112.2247314453125 375.2962951660156 L 119.9286193847656 375.2962951660156 L 120.9286193847656 375.2962951660156 L 120.9286193847656 376.2962951660156 L 120.9286193847656 384.0028991699219 L 127.6873931884766 384.0028991699219 M 302.1577758789063 379.6397399902344 L 302.1577758789063 371.9313049316406 L 302.1577758789063 370.9313049316406 L 303.1577758789063 370.9313049316406 L 310.8652954101563 370.9313049316406 L 310.8652954101563 364.1707458496094 L 303.1577758789063 364.1707458496094 L 302.1577758789063 364.1707458496094 L 302.1577758789063 363.1707458496094 L 302.1577758789063 355.4641418457031 L 295.3990173339844 355.4641418457031 L 295.3990173339844 363.1707458496094 L 295.3990173339844 364.1707458496094 L 294.3990173339844 364.1707458496094 L 286.6951293945313 364.1707458496094 L 286.6951293945313 370.9313049316406 L 294.3990173339844 370.9313049316406 L 295.3990173339844 370.9313049316406 L 295.3990173339844 371.9313049316406 L 295.3990173339844 379.6397399902344 L 302.1577758789063 379.6397399902344 M 218.1778869628906 361.0987854003906 L 218.1778869628906 354.3733520507813 L 211.4551239013672 354.3733520507813 L 211.4551239013672 361.0987854003906 L 218.1778869628906 361.0987854003906 M 200.7313995361328 361.0987854003906 L 200.7313995361328 354.3733520507813 L 194.0077209472656 354.3733520507813 L 194.0077209472656 361.0987854003906 L 200.7313995361328 361.0987854003906 M 183.2840118408203 361.0987854003906 L 183.2840118408203 354.3733520507813 L 176.5602874755859 354.3733520507813 L 176.5602874755859 361.0987854003906 L 183.2840118408203 361.0987854003906 M 394.8298950195313 353.4641418457031 L 394.8298950195313 346.7386474609375 L 388.1062316894531 346.7386474609375 L 388.1062316894531 353.4641418457031 L 394.8298950195313 353.4641418457031 M 376.2917175292969 353.4641418457031 L 376.2917175292969 346.7386474609375 L 369.5689086914063 346.7386474609375 L 369.5689086914063 353.4641418457031 L 376.2917175292969 353.4641418457031 M 358.84521484375 353.4641418457031 L 358.84521484375 346.7386474609375 L 352.1214904785156 346.7386474609375 L 352.1214904785156 353.4641418457031 L 358.84521484375 353.4641418457031 M 284.6951293945313 309.8375244140625 L 284.6951293945313 303.1129150390625 L 277.9714050292969 303.1129150390625 L 277.9714050292969 309.8375244140625 L 284.6951293945313 309.8375244140625 M 230.1731109619141 309.8375244140625 L 230.1731109619141 303.1129150390625 L 223.4494018554688 303.1129150390625 L 223.4494018554688 309.8375244140625 L 230.1731109619141 309.8375244140625 M 211.6357879638672 309.8375244140625 L 211.6357879638672 303.1129150390625 L 204.912109375 303.1129150390625 L 204.912109375 309.8375244140625 L 211.6357879638672 309.8375244140625 M 193.0985107421875 309.8375244140625 L 193.0985107421875 303.1129150390625 L 186.3747863769531 303.1129150390625 L 186.3747863769531 309.8375244140625 L 193.0985107421875 309.8375244140625 M 175.651123046875 309.8375244140625 L 175.651123046875 303.1129150390625 L 168.9273986816406 303.1129150390625 L 168.9273986816406 309.8375244140625 L 175.651123046875 309.8375244140625 M 157.1137847900391 309.8375244140625 L 157.1137847900391 303.1129150390625 L 150.3901214599609 303.1129150390625 L 150.3901214599609 309.8375244140625 L 157.1137847900391 309.8375244140625 M 138.5765075683594 309.8375244140625 L 138.5765075683594 303.1129150390625 L 131.852783203125 303.1129150390625 L 131.852783203125 309.8375244140625 L 138.5765075683594 309.8375244140625 M 121.1291198730469 309.8375244140625 L 121.1291198730469 303.1129150390625 L 114.4053955078125 303.1129150390625 L 114.4053955078125 309.8375244140625 L 121.1291198730469 309.8375244140625 M 102.5917816162109 309.8375244140625 L 102.5917816162109 303.1129150390625 L 95.86811828613281 303.1129150390625 L 95.86811828613281 309.8375244140625 L 102.5917816162109 309.8375244140625 M 84.05450439453125 309.8375244140625 L 84.05450439453125 303.1129150390625 L 77.33084106445313 303.1129150390625 L 77.33084106445313 309.8375244140625 L 84.05450439453125 309.8375244140625 M 65.51722717285156 309.8375244140625 L 65.51722717285156 303.1129150390625 L 58.79350662231445 303.1129150390625 L 58.79350662231445 309.8375244140625 L 65.51722717285156 309.8375244140625 M 48.06978225708008 309.8375244140625 L 48.06978225708008 303.1129150390625 L 41.34611511230469 303.1129150390625 L 41.34611511230469 309.8375244140625 L 48.06978225708008 309.8375244140625 M 29.53250503540039 309.8375244140625 L 29.53250503540039 303.1129150390625 L 22.808837890625 303.1129150390625 L 22.808837890625 309.8375244140625 L 29.53250503540039 309.8375244140625 M 266.1577758789063 309.8360595703125 L 266.1577758789063 303.1240539550781 L 259.5648193359375 303.1143493652344 L 259.4511413574219 309.8263854980469 L 266.1577758789063 309.8360595703125 M 248.1642303466797 309.6163635253906 L 248.2813262939453 302.754638671875 L 241.1720581054688 302.6338500976563 L 241.0550079345703 309.4955749511719 L 248.1642303466797 309.6163635253906 M 284.6951293945313 292.3874206542969 L 284.6951293945313 285.6618957519531 L 277.9714050292969 285.6618957519531 L 277.9714050292969 292.3874206542969 L 284.6951293945313 292.3874206542969 M 29.53250503540039 292.3874206542969 L 29.53250503540039 285.6618957519531 L 22.808837890625 285.6618957519531 L 22.808837890625 292.3874206542969 L 29.53250503540039 292.3874206542969 M 284.6951293945313 274.9364013671875 L 284.6951293945313 268.2117919921875 L 277.9714050292969 268.2117919921875 L 277.9714050292969 274.9364013671875 L 284.6951293945313 274.9364013671875 M 29.53250503540039 274.9364013671875 L 29.53250503540039 268.2117919921875 L 22.808837890625 268.2117919921875 L 22.808837890625 274.9364013671875 L 29.53250503540039 274.9364013671875 M 284.6951293945313 258.5771179199219 L 284.6951293945313 251.8516387939453 L 277.9714050292969 251.8516387939453 L 277.9714050292969 258.5771179199219 L 284.6951293945313 258.5771179199219 M 29.53250503540039 258.5771179199219 L 29.53250503540039 251.8516387939453 L 22.808837890625 251.8516387939453 L 22.808837890625 258.5771179199219 L 29.53250503540039 258.5771179199219 M 223.5392761230469 249.8516387939453 C 237.4186706542969 249.8516387939453 248.7103881835938 238.5579071044922 248.7103881835938 224.676025390625 C 248.7103881835938 210.7941284179688 237.4186706542969 199.5004119873047 223.5392761230469 199.5004119873047 C 209.660400390625 199.5004119873047 198.3691101074219 210.7941284179688 198.3691101074219 224.676025390625 C 198.3691101074219 238.5579071044922 209.660400390625 249.8516387939453 223.5392761230469 249.8516387939453 M 223.5392761230469 206.3572998046875 C 233.6387786865234 206.3572998046875 241.8552856445313 214.5750274658203 241.8552856445313 224.676025390625 C 241.8552856445313 234.7774658203125 233.6387786865234 242.9956359863281 223.5392761230469 242.9956359863281 C 213.4403381347656 242.9956359863281 205.2242279052734 234.7774658203125 205.2242279052734 224.676025390625 C 205.2242279052734 214.5750274658203 213.4403381347656 206.3572998046875 223.5392761230469 206.3572998046875 M 153.7515106201172 249.8516387939453 C 167.6308898925781 249.8516387939453 178.9226226806641 238.5579071044922 178.9226226806641 224.676025390625 C 178.9226226806641 210.7941284179688 167.6308898925781 199.5004119873047 153.7515106201172 199.5004119873047 C 139.8726196289063 199.5004119873047 128.5812835693359 210.7941284179688 128.5812835693359 224.676025390625 C 128.5812835693359 238.5579071044922 139.8726196289063 249.8516387939453 153.7515106201172 249.8516387939453 M 153.7515106201172 206.3572998046875 C 163.8509979248047 206.3572998046875 172.0675048828125 214.5750274658203 172.0675048828125 224.676025390625 C 172.0675048828125 234.7774658203125 163.8509979248047 242.9956359863281 153.7515106201172 242.9956359863281 C 143.6525115966797 242.9956359863281 135.4364013671875 234.7774658203125 135.4364013671875 224.676025390625 C 135.4364013671875 214.5750274658203 143.6525115966797 206.3572998046875 153.7515106201172 206.3572998046875 M 83.96372985839844 249.8516387939453 C 97.84311676025391 249.8516387939453 109.1347808837891 238.5579071044922 109.1347808837891 224.676025390625 C 109.1347808837891 210.7941284179688 97.84311676025391 199.5004119873047 83.96372985839844 199.5004119873047 C 70.0848388671875 199.5004119873047 58.79350662231445 210.7941284179688 58.79350662231445 224.676025390625 C 58.79350662231445 238.5579071044922 70.0848388671875 249.8516387939453 83.96372985839844 249.8516387939453 M 83.96372985839844 206.3572998046875 C 94.06322479248047 206.3572998046875 102.2797241210938 214.5750274658203 102.2797241210938 224.676025390625 C 102.2797241210938 234.7774658203125 94.06322479248047 242.9956359863281 83.96372985839844 242.9956359863281 C 73.86473083496094 242.9956359863281 65.64861297607422 234.7774658203125 65.64861297607422 224.676025390625 C 65.64861297607422 214.5750274658203 73.86473083496094 206.3572998046875 83.96372985839844 206.3572998046875 M 284.6951293945313 241.1260833740234 L 284.6951293945313 234.4015197753906 L 277.9714050292969 234.4015197753906 L 277.9714050292969 241.1260833740234 L 284.6951293945313 241.1260833740234 M 29.53250503540039 241.1260833740234 L 29.53250503540039 234.4015197753906 L 22.808837890625 234.4015197753906 L 22.808837890625 241.1260833740234 L 29.53250503540039 241.1260833740234 M 399.1913452148438 232.4015197753906 L 399.1913452148438 225.676025390625 L 392.4676208496094 225.676025390625 L 392.4676208496094 232.4015197753906 L 399.1913452148438 232.4015197753906 M 381.743896484375 232.4015197753906 L 381.743896484375 225.676025390625 L 373.9302978515625 225.676025390625 L 373.9302978515625 232.4015197753906 L 381.743896484375 232.4015197753906 M 363.2066040039063 232.4015197753906 L 363.2066040039063 225.676025390625 L 355.3930053710938 225.676025390625 L 355.3930053710938 232.4015197753906 L 363.2066040039063 232.4015197753906 M 343.5784912109375 232.4015197753906 L 343.5784912109375 225.676025390625 L 335.7649536132813 225.676025390625 L 335.7649536132813 232.4015197753906 L 343.5784912109375 232.4015197753906 M 325.0412292480469 232.4015197753906 L 325.0412292480469 225.676025390625 L 317.2276306152344 225.676025390625 L 317.2276306152344 232.4015197753906 L 325.0412292480469 232.4015197753906 M 284.6951293945313 224.7667999267578 L 284.6951293945313 218.0413055419922 L 277.9714050292969 218.0413055419922 L 277.9714050292969 224.7667999267578 L 284.6951293945313 224.7667999267578 M 29.53250503540039 223.676025390625 L 29.53250503540039 216.9505157470703 L 22.808837890625 216.9505157470703 L 22.808837890625 223.676025390625 L 29.53250503540039 223.676025390625 M 399.1913452148438 214.9505157470703 L 399.1913452148438 208.2250213623047 L 392.4676208496094 208.2250213623047 L 392.4676208496094 214.9505157470703 L 399.1913452148438 214.9505157470703 M 284.6951293945313 207.3157958984375 L 284.6951293945313 200.5903015136719 L 277.9714050292969 200.5903015136719 L 277.9714050292969 207.3157958984375 L 284.6951293945313 207.3157958984375 M 29.53250503540039 207.3157958984375 L 29.53250503540039 200.5903015136719 L 22.808837890625 200.5903015136719 L 22.808837890625 207.3157958984375 L 29.53250503540039 207.3157958984375 M 399.1913452148438 196.4096374511719 L 399.1913452148438 189.68408203125 L 392.4676208496094 189.68408203125 L 392.4676208496094 196.4096374511719 L 399.1913452148438 196.4096374511719 M 284.6951293945313 189.8656921386719 L 284.6951293945313 183.1401824951172 L 277.9714050292969 183.1401824951172 L 277.9714050292969 189.8656921386719 L 284.6951293945313 189.8656921386719 M 29.53250503540039 189.8656921386719 L 29.53250503540039 183.1401824951172 L 22.808837890625 183.1401824951172 L 22.808837890625 189.8656921386719 L 29.53250503540039 189.8656921386719 M 348.9398803710938 186.5932922363281 C 362.8192749023438 186.5932922363281 374.1109924316406 175.2995758056641 374.1109924316406 161.4176940917969 C 374.1109924316406 147.5357971191406 362.8192749023438 136.2420806884766 348.9398803710938 136.2420806884766 C 335.0610046386719 136.2420806884766 323.7697143554688 147.5357971191406 323.7697143554688 161.4176940917969 C 323.7697143554688 175.2995758056641 335.0610046386719 186.5932922363281 348.9398803710938 186.5932922363281 M 348.9398803710938 143.0980834960938 C 359.0393981933594 143.0980834960938 367.2559509277344 151.3162384033203 367.2559509277344 161.4176940917969 C 367.2559509277344 171.5186920166016 359.0393981933594 179.7364044189453 348.9398803710938 179.7364044189453 C 338.8409423828125 179.7364044189453 330.6248474121094 171.5186920166016 330.6248474121094 161.4176940917969 C 330.6248474121094 151.3162384033203 338.8409423828125 143.0980834960938 348.9398803710938 143.0980834960938 M 399.1913452148438 178.9585723876953 L 399.1913452148438 172.2331390380859 L 392.4676208496094 172.2331390380859 L 392.4676208496094 178.9585723876953 L 399.1913452148438 178.9585723876953 M 284.6951293945313 173.5055236816406 L 284.6951293945313 166.7800140380859 L 277.9714050292969 166.7800140380859 L 277.9714050292969 173.5055236816406 L 284.6951293945313 173.5055236816406 M 29.53250503540039 173.5055236816406 L 29.53250503540039 166.7800140380859 L 22.808837890625 166.7800140380859 L 22.808837890625 173.5055236816406 L 29.53250503540039 173.5055236816406 M 399.1913452148438 160.4176940917969 L 399.1913452148438 153.6921844482422 L 392.4676208496094 153.6921844482422 L 392.4676208496094 160.4176940917969 L 399.1913452148438 160.4176940917969 M 284.6951293945313 156.0545196533203 L 284.6951293945313 149.3299102783203 L 277.9714050292969 149.3299102783203 L 277.9714050292969 156.0545196533203 L 284.6951293945313 156.0545196533203 M 266.1577758789063 156.0545196533203 L 266.1577758789063 149.3299102783203 L 259.4341125488281 149.3299102783203 L 259.4341125488281 156.0545196533203 L 266.1577758789063 156.0545196533203 M 248.7103881835938 156.0545196533203 L 248.7103881835938 149.3299102783203 L 241.9867248535156 149.3299102783203 L 241.9867248535156 156.0545196533203 L 248.7103881835938 156.0545196533203 M 230.1731109619141 156.0545196533203 L 230.1731109619141 149.3299102783203 L 223.4494018554688 149.3299102783203 L 223.4494018554688 156.0545196533203 L 230.1731109619141 156.0545196533203 M 211.6357879638672 156.0545196533203 L 211.6357879638672 149.3299102783203 L 204.912109375 149.3299102783203 L 204.912109375 156.0545196533203 L 211.6357879638672 156.0545196533203 M 193.0985107421875 156.0545196533203 L 193.0985107421875 149.3299102783203 L 186.3747863769531 149.3299102783203 L 186.3747863769531 156.0545196533203 L 193.0985107421875 156.0545196533203 M 175.651123046875 156.0545196533203 L 175.651123046875 149.3299102783203 L 168.9273986816406 149.3299102783203 L 168.9273986816406 156.0545196533203 L 175.651123046875 156.0545196533203 M 157.1137847900391 156.0545196533203 L 157.1137847900391 149.3299102783203 L 150.3901214599609 149.3299102783203 L 150.3901214599609 156.0545196533203 L 157.1137847900391 156.0545196533203 M 138.5765075683594 156.0545196533203 L 138.5765075683594 149.3299102783203 L 131.852783203125 149.3299102783203 L 131.852783203125 156.0545196533203 L 138.5765075683594 156.0545196533203 M 121.1291198730469 156.0545196533203 L 121.1291198730469 149.3299102783203 L 114.4053955078125 149.3299102783203 L 114.4053955078125 156.0545196533203 L 121.1291198730469 156.0545196533203 M 102.5917816162109 156.0545196533203 L 102.5917816162109 149.3299102783203 L 95.86811828613281 149.3299102783203 L 95.86811828613281 156.0545196533203 L 102.5917816162109 156.0545196533203 M 84.05450439453125 156.0545196533203 L 84.05450439453125 149.3299102783203 L 77.33084106445313 149.3299102783203 L 77.33084106445313 156.0545196533203 L 84.05450439453125 156.0545196533203 M 65.51722717285156 156.0545196533203 L 65.51722717285156 149.3299102783203 L 58.79350662231445 149.3299102783203 L 58.79350662231445 156.0545196533203 L 65.51722717285156 156.0545196533203 M 48.06978225708008 156.0545196533203 L 48.06978225708008 149.3299102783203 L 41.34611511230469 149.3299102783203 L 41.34611511230469 156.0545196533203 L 48.06978225708008 156.0545196533203 M 29.53250503540039 156.0545196533203 L 29.53250503540039 149.3299102783203 L 22.808837890625 149.3299102783203 L 22.808837890625 156.0545196533203 L 29.53250503540039 156.0545196533203 M 399.1913452148438 141.8768005371094 L 399.1913452148438 135.1513061523438 L 392.4676208496094 135.1513061523438 L 392.4676208496094 141.8768005371094 L 399.1913452148438 141.8768005371094 M 399.1913452148438 124.4257965087891 L 399.1913452148438 117.7003021240234 L 392.4676208496094 117.7003021240234 L 392.4676208496094 124.4257965087891 L 399.1913452148438 124.4257965087891 M 184.3747863769531 118.9726867675781 L 184.3747863769531 114.4288024902344 L 177.651123046875 114.4288024902344 L 177.651123046875 118.9726867675781 L 184.3747863769531 118.9726867675781 M 399.1913452148438 105.8849105834961 L 399.1913452148438 99.15940856933594 L 392.4676208496094 99.15940856933594 L 392.4676208496094 105.8849105834961 L 399.1913452148438 105.8849105834961 M 381.743896484375 105.8849105834961 L 381.743896484375 99.15940856933594 L 375.0211181640625 99.15940856933594 L 375.0211181640625 105.8849105834961 L 381.743896484375 105.8849105834961 M 363.2066040039063 105.8849105834961 L 363.2066040039063 99.15940856933594 L 356.4828796386719 99.15940856933594 L 356.4828796386719 105.8849105834961 L 363.2066040039063 105.8849105834961 M 345.7601318359375 105.8849105834961 L 345.7601318359375 99.15940856933594 L 339.0364074707031 99.15940856933594 L 339.0364074707031 105.8849105834961 L 345.7601318359375 105.8849105834961 M 328.3127136230469 105.8849105834961 L 328.3127136230469 99.15940856933594 L 321.5890197753906 99.15940856933594 L 321.5890197753906 105.8849105834961 L 328.3127136230469 105.8849105834961 M 309.7754516601563 105.8849105834961 L 309.7754516601563 99.15940856933594 L 303.0517272949219 99.15940856933594 L 303.0517272949219 105.8849105834961 L 309.7754516601563 105.8849105834961 M 292.3280029296875 105.8849105834961 L 292.3280029296875 99.15940856933594 L 285.6043395996094 99.15940856933594 L 285.6043395996094 105.8849105834961 L 292.3280029296875 105.8849105834961 M 273.7907409667969 105.8849105834961 L 273.7907409667969 99.15940856933594 L 267.0670166015625 99.15940856933594 L 267.0670166015625 105.8849105834961 L 273.7907409667969 105.8849105834961 M 256.3432922363281 105.8849105834961 L 256.3432922363281 99.15940856933594 L 249.6204986572266 99.15940856933594 L 249.6204986572266 105.8849105834961 L 256.3432922363281 105.8849105834961 M 238.8967895507813 105.8849105834961 L 238.8967895507813 99.15940856933594 L 232.1731109619141 99.15940856933594 L 232.1731109619141 105.8849105834961 L 238.8967895507813 105.8849105834961 M 220.3595123291016 105.8849105834961 L 220.3595123291016 99.15940856933594 L 213.6357879638672 99.15940856933594 L 213.6357879638672 105.8849105834961 L 220.3595123291016 105.8849105834961 M 202.912109375 105.8849105834961 L 202.912109375 99.15940856933594 L 196.1884002685547 99.15940856933594 L 196.1884002685547 105.8849105834961 L 202.912109375 105.8849105834961 M 184.3747863769531 105.8849105834961 L 184.3747863769531 99.15940856933594 L 177.651123046875 99.15940856933594 L 177.651123046875 105.8849105834961 L 184.3747863769531 105.8849105834961 M 50.27028274536133 79.70841217041016 L 50.27028274536133 72.00180053710938 L 50.27028274536133 71.00180053710938 L 51.27028274536133 71.00180053710938 L 58.97422790527344 71.00180053710938 L 58.97422790527344 64.24207305908203 L 51.27028274536133 64.24207305908203 L 50.27028274536133 64.24207305908203 L 50.27028274536133 63.2420768737793 L 50.27028274536133 55.53279876708984 L 43.51150512695313 55.53279876708984 L 43.51150512695313 63.2420768737793 L 43.51150512695313 64.24207305908203 L 42.51150512695313 64.24207305908203 L 34.80400466918945 64.24207305908203 L 34.80400466918945 71.00180053710938 L 42.51150512695313 71.00180053710938 L 43.51150512695313 71.00180053710938 L 43.51150512695313 72.00180053710938 L 43.51150512695313 79.70841217041016 L 50.27028274536133 79.70841217041016 M 317.4082946777344 57.89602279663086 L 317.4082946777344 51.1705207824707 L 310.6846313476563 51.1705207824707 L 310.6846313476563 57.89602279663086 L 317.4082946777344 57.89602279663086 M 299.9609069824219 57.89602279663086 L 299.9609069824219 51.1705207824707 L 293.2381286621094 51.1705207824707 L 293.2381286621094 57.89602279663086 L 299.9609069824219 57.89602279663086 M 281.4236145019531 57.89602279663086 L 281.4236145019531 51.1705207824707 L 274.699951171875 51.1705207824707 L 274.699951171875 57.89602279663086 L 281.4236145019531 57.89602279663086 M 263.9771118164063 57.89602279663086 L 263.9771118164063 51.1705207824707 L 257.2533874511719 51.1705207824707 L 257.2533874511719 57.89602279663086 L 263.9771118164063 57.89602279663086 M 246.5297241210938 57.89602279663086 L 246.5297241210938 51.1705207824707 L 239.8059997558594 51.1705207824707 L 239.8059997558594 57.89602279663086 L 246.5297241210938 57.89602279663086 M 153.84228515625 54.62357711791992 L 153.84228515625 47.89813232421875 L 147.1186218261719 47.89813232421875 L 147.1186218261719 54.62357711791992 L 153.84228515625 54.62357711791992 M 136.3948974609375 54.62357711791992 L 136.3948974609375 47.89813232421875 L 129.672119140625 47.89813232421875 L 129.672119140625 54.62357711791992 L 136.3948974609375 54.62357711791992 M 118.9483947753906 54.62357711791992 L 118.9483947753906 47.89813232421875 L 112.2247314453125 47.89813232421875 L 112.2247314453125 54.62357711791992 L 118.9483947753906 54.62357711791992 M 380.6737976074219 31.71952056884766 L 380.6737976074219 24.01113319396973 L 380.6737976074219 23.01113319396973 L 381.6737976074219 23.01113319396973 L 389.3767700195313 23.01113319396973 L 389.3767700195313 16.25052070617676 L 381.6737976074219 16.25052070617676 L 380.6737976074219 16.25052070617676 L 380.6737976074219 15.25052070617676 L 380.6737976074219 7.543910026550293 L 373.9150085449219 7.543910026550293 L 373.9150085449219 15.25052070617676 L 373.9150085449219 16.25052070617676 L 372.9150085449219 16.25052070617676 L 365.2066040039063 16.25052070617676 L 365.2066040039063 23.01113319396973 L 372.9150085449219 23.01113319396973 L 373.9150085449219 23.01113319396973 L 373.9150085449219 24.01113319396973 L 373.9150085449219 31.71952056884766 L 380.6737976074219 31.71952056884766 M 61.1548957824707 14.26941013336182 L 61.1548957824707 7.543910026550293 L 54.43122863769531 7.543910026550293 L 54.43122863769531 14.26941013336182 L 61.1548957824707 14.26941013336182 M 43.70839309692383 14.26941013336182 L 43.70839309692383 7.543910026550293 L 36.98472595214844 7.543910026550293 L 36.98472595214844 14.26941013336182 L 43.70839309692383 14.26941013336182 M 25.17022705078125 14.26941013336182 L 25.17022705078125 7.543910026550293 L 18.4473934173584 7.543910026550293 L 18.4473934173584 14.26941013336182 L 25.17022705078125 14.26941013336182 M 239.9867248535156 7.725521087646484 L 239.9867248535156 1.00002110004425 L 233.2639007568359 1.00002110004425 L 233.2639007568359 7.725521087646484 L 239.9867248535156 7.725521087646484 M 222.5402221679688 7.725521087646484 L 222.5402221679688 1.00002110004425 L 215.8165130615234 1.00002110004425 L 215.8165130615234 7.725521087646484 L 222.5402221679688 7.725521087646484 M 205.0927886962891 7.725521087646484 L 205.0927886962891 1.00002110004425 L 198.3691101074219 1.00002110004425 L 198.3691101074219 7.725521087646484 L 205.0927886962891 7.725521087646484 M 36.23850631713867 397.0017395019531 L 36.24028396606445 396.9981384277344 L 36.23939514160156 396.9981384277344 L 36.24028396606445 396.9972534179688 L 36.24028396606445 331.9839172363281 L 13.12650585174561 331.8587951660156 C 5.39728307723999 329.9715270996094 5.479600531543838e-06 323.1270141601563 5.479600531543838e-06 315.2132873535156 L 5.479600531543838e-06 143.3403015136719 C 5.479600531543838e-06 133.8831329345703 7.713005542755127 126.1890182495117 17.19361686706543 126.1890182495117 L 155.0376129150391 126.1890182495117 L 155.0376129150391 91.79463195800781 C 155.0376129150391 83.27607727050781 161.9712219238281 76.34613037109375 170.4942321777344 76.34613037109375 L 406.5435180664063 76.34613037109375 C 415.0664978027344 76.34613037109375 422.0001220703125 83.27607727050781 422.0001220703125 91.79463195800781 L 422.0001220703125 240.4719085693359 C 422.0001220703125 247.5980834960938 417.1509094238281 253.7550201416016 410.2073974609375 255.4434051513672 L 409.1589050292969 255.5694122314453 L 390.6360168457031 255.5694122314453 L 390.6360168457031 312.5276794433594 L 323.0757141113281 255.5694122314453 L 307.1736145019531 255.5694122314453 L 307.1736145019531 315.2132873535156 C 307.1736145019531 324.6705322265625 299.47412109375 332.3645629882813 290.0106201171875 332.3645629882813 C 163.2267303466797 332.0910339355469 125.7696151733398 332.010009765625 116.2457809448242 331.9892883300781 C 116.1351165771484 331.9892883300781 115.4663925170898 331.9884033203125 113.8058929443359 331.9848022460938 C 113.5988922119141 331.9839172363281 113.4711151123047 331.9839172363281 113.4081192016602 331.9839172363281 L 36.24028396606445 396.9999084472656 L 36.23850631713867 397.0017395019531 Z M 17.19361686706543 135.0540161132813 C 12.60361671447754 135.0540161132813 8.869505882263184 138.7710266113281 8.869505882263184 143.3403015136719 L 8.869505882263184 315.2132873535156 C 8.869505882263184 318.8700256347656 11.24011611938477 322.0470275878906 14.76811695098877 323.118896484375 L 45.10978317260742 323.118896484375 L 45.10978317260742 377.9325256347656 L 110.170783996582 323.1198120117188 L 110.6297836303711 323.1206970214844 L 111.1257247924805 323.1216430664063 L 111.0951156616211 323.1234130859375 L 111.2886199951172 323.1216430664063 L 111.4956130981445 323.1225280761719 L 111.5235061645508 323.1225280761719 L 112.1138916015625 323.1234130859375 L 111.8772277832031 323.1234130859375 C 112.66650390625 323.1242980957031 112.9553909301758 323.125244140625 112.9562835693359 323.125244140625 C 112.9553909301758 323.125244140625 112.9508972167969 323.125244140625 112.9427795410156 323.125244140625 C 121.8617858886719 323.1441345214844 155.7990112304688 323.216064453125 266.0543823242188 323.4501342773438 L 290.0106201171875 323.5005187988281 C 294.58349609375 323.5005187988281 298.3041076660156 319.7825622558594 298.3041076660156 315.2132873535156 L 298.3041076660156 143.3403015136719 C 298.3041076660156 138.7710266113281 294.58349609375 135.0540161132813 290.0106201171875 135.0540161132813 L 17.19361686706543 135.0540161132813 Z M 170.4942321777344 85.21113586425781 C 166.8617858886719 85.21113586425781 163.9071197509766 88.16490936279297 163.9071197509766 91.79463195800781 L 163.9071197509766 126.1890182495117 L 290.0106201171875 126.1890182495117 C 299.47412109375 126.1890182495117 307.1736145019531 133.8831329345703 307.1736145019531 143.3403015136719 L 307.1736145019531 224.9370269775391 L 307.1781311035156 224.9370269775391 L 307.1781311035156 233.8010711669922 L 307.1736145019531 233.8020172119141 L 307.1736145019531 246.7044067382813 L 326.3148498535156 246.7044067382813 L 381.7665100097656 293.4521789550781 L 381.7665100097656 246.7044067382813 L 408.5568237304688 246.7044067382813 C 411.2928466796875 245.8341369628906 413.130615234375 243.3294067382813 413.130615234375 240.4710235595703 L 413.130615234375 91.79463195800781 C 413.130615234375 88.16490936279297 410.1759033203125 85.21113586425781 406.5435180664063 85.21113586425781 L 170.4942321777344 85.21113586425781 Z M 128.6873931884766 385.0028991699219 L 119.9286193847656 385.0028991699219 L 119.9286193847656 376.2962951660156 L 111.2247314453125 376.2962951660156 L 111.2247314453125 367.5356750488281 L 119.9286193847656 367.5356750488281 L 119.9286193847656 358.8273010253906 L 128.6873931884766 358.8273010253906 L 128.6873931884766 367.5356750488281 L 137.3957824707031 367.5356750488281 L 137.3957824707031 376.2962951660156 L 128.6873931884766 376.2962951660156 L 128.6873931884766 385.0028991699219 Z M 303.1577758789063 380.6397399902344 L 294.3990173339844 380.6397399902344 L 294.3990173339844 371.9313049316406 L 285.6951293945313 371.9313049316406 L 285.6951293945313 363.1707458496094 L 294.3990173339844 363.1707458496094 L 294.3990173339844 354.4641418457031 L 303.1577758789063 354.4641418457031 L 303.1577758789063 363.1707458496094 L 311.8652954101563 363.1707458496094 L 311.8652954101563 371.9313049316406 L 303.1577758789063 371.9313049316406 L 303.1577758789063 380.6397399902344 Z M 219.1778869628906 362.0987854003906 L 210.4551239013672 362.0987854003906 L 210.4551239013672 353.3733520507813 L 219.1778869628906 353.3733520507813 L 219.1778869628906 362.0987854003906 Z M 201.7313995361328 362.0987854003906 L 193.0077209472656 362.0987854003906 L 193.0077209472656 353.3733520507813 L 201.7313995361328 353.3733520507813 L 201.7313995361328 362.0987854003906 Z M 184.2840118408203 362.0987854003906 L 175.5602874755859 362.0987854003906 L 175.5602874755859 353.3733520507813 L 184.2840118408203 353.3733520507813 L 184.2840118408203 362.0987854003906 Z M 395.8298950195313 354.4641418457031 L 387.1062316894531 354.4641418457031 L 387.1062316894531 345.7386474609375 L 395.8298950195313 345.7386474609375 L 395.8298950195313 354.4641418457031 Z M 377.2917175292969 354.4641418457031 L 368.5689086914063 354.4641418457031 L 368.5689086914063 345.7386474609375 L 377.2917175292969 345.7386474609375 L 377.2917175292969 354.4641418457031 Z M 359.84521484375 354.4641418457031 L 351.1214904785156 354.4641418457031 L 351.1214904785156 345.7386474609375 L 359.84521484375 345.7386474609375 L 359.84521484375 354.4641418457031 Z M 285.6951293945313 310.8375244140625 L 276.9714050292969 310.8375244140625 L 276.9714050292969 302.1129150390625 L 285.6951293945313 302.1129150390625 L 285.6951293945313 310.8375244140625 Z M 267.1577758789063 310.8375244140625 L 258.4341125488281 310.8249206542969 L 258.5816650390625 302.1129150390625 L 267.1577758789063 302.1255187988281 L 267.1577758789063 310.8375244140625 Z M 231.1731109619141 310.8375244140625 L 222.4494018554688 310.8375244140625 L 222.4494018554688 302.1129150390625 L 231.1731109619141 302.1129150390625 L 231.1731109619141 310.8375244140625 Z M 212.6357879638672 310.8375244140625 L 203.912109375 310.8375244140625 L 203.912109375 302.1129150390625 L 212.6357879638672 302.1129150390625 L 212.6357879638672 310.8375244140625 Z M 194.0985107421875 310.8375244140625 L 185.3747863769531 310.8375244140625 L 185.3747863769531 302.1129150390625 L 194.0985107421875 302.1129150390625 L 194.0985107421875 310.8375244140625 Z M 176.651123046875 310.8375244140625 L 167.9273986816406 310.8375244140625 L 167.9273986816406 302.1129150390625 L 176.651123046875 302.1129150390625 L 176.651123046875 310.8375244140625 Z M 158.1137847900391 310.8375244140625 L 149.3901214599609 310.8375244140625 L 149.3901214599609 302.1129150390625 L 158.1137847900391 302.1129150390625 L 158.1137847900391 310.8375244140625 Z M 139.5765075683594 310.8375244140625 L 130.852783203125 310.8375244140625 L 130.852783203125 302.1129150390625 L 139.5765075683594 302.1129150390625 L 139.5765075683594 310.8375244140625 Z M 122.1291198730469 310.8375244140625 L 113.4053955078125 310.8375244140625 L 113.4053955078125 302.1129150390625 L 122.1291198730469 302.1129150390625 L 122.1291198730469 310.8375244140625 Z M 103.5917816162109 310.8375244140625 L 94.86811828613281 310.8375244140625 L 94.86811828613281 302.1129150390625 L 103.5917816162109 302.1129150390625 L 103.5917816162109 310.8375244140625 Z M 85.05450439453125 310.8375244140625 L 76.33084106445313 310.8375244140625 L 76.33084106445313 302.1129150390625 L 85.05450439453125 302.1129150390625 L 85.05450439453125 310.8375244140625 Z M 66.51722717285156 310.8375244140625 L 57.79350662231445 310.8375244140625 L 57.79350662231445 302.1129150390625 L 66.51722717285156 302.1129150390625 L 66.51722717285156 310.8375244140625 Z M 49.06978225708008 310.8375244140625 L 40.34611511230469 310.8375244140625 L 40.34611511230469 302.1129150390625 L 49.06978225708008 302.1129150390625 L 49.06978225708008 310.8375244140625 Z M 30.53250503540039 310.8375244140625 L 21.808837890625 310.8375244140625 L 21.808837890625 302.1129150390625 L 30.53250503540039 302.1129150390625 L 30.53250503540039 310.8375244140625 Z M 249.1470031738281 310.6331787109375 L 240.0381164550781 310.4784240722656 L 240.1892852783203 301.6170349121094 L 249.2982330322266 301.7717895507813 L 249.1470031738281 310.6331787109375 Z M 285.6951293945313 293.3874206542969 L 276.9714050292969 293.3874206542969 L 276.9714050292969 284.6618957519531 L 285.6951293945313 284.6618957519531 L 285.6951293945313 293.3874206542969 Z M 30.53250503540039 293.3874206542969 L 21.808837890625 293.3874206542969 L 21.808837890625 284.6618957519531 L 30.53250503540039 284.6618957519531 L 30.53250503540039 293.3874206542969 Z M 285.6951293945313 275.9364013671875 L 276.9714050292969 275.9364013671875 L 276.9714050292969 267.2117919921875 L 285.6951293945313 267.2117919921875 L 285.6951293945313 275.9364013671875 Z M 30.53250503540039 275.9364013671875 L 21.808837890625 275.9364013671875 L 21.808837890625 267.2117919921875 L 30.53250503540039 267.2117919921875 L 30.53250503540039 275.9364013671875 Z M 285.6951293945313 259.5771179199219 L 276.9714050292969 259.5771179199219 L 276.9714050292969 250.8516387939453 L 285.6951293945313 250.8516387939453 L 285.6951293945313 259.5771179199219 Z M 30.53250503540039 259.5771179199219 L 21.808837890625 259.5771179199219 L 21.808837890625 250.8516387939453 L 30.53250503540039 250.8516387939453 L 30.53250503540039 259.5771179199219 Z M 223.5392761230469 250.8516387939453 C 209.109619140625 250.8516387939453 197.3691101074219 239.1092987060547 197.3691101074219 224.676025390625 C 197.3691101074219 210.2426910400391 209.109619140625 198.5004119873047 223.5392761230469 198.5004119873047 C 237.9707794189453 198.5004119873047 249.7103881835938 210.2426910400391 249.7103881835938 224.676025390625 C 249.7103881835938 239.1092987060547 237.9707794189453 250.8516387939453 223.5392761230469 250.8516387939453 Z M 223.5392761230469 207.3572998046875 C 213.9921112060547 207.3572998046875 206.2242279052734 215.1260833740234 206.2242279052734 224.676025390625 C 206.2242279052734 234.2259063720703 213.9921112060547 241.9956359863281 223.5392761230469 241.9956359863281 C 233.0873870849609 241.9956359863281 240.8552856445313 234.2259063720703 240.8552856445313 224.676025390625 C 240.8552856445313 215.1260833740234 233.0873870849609 207.3572998046875 223.5392761230469 207.3572998046875 Z M 153.7515106201172 250.8516387939453 C 139.3208923339844 250.8516387939453 127.5812835693359 239.1092987060547 127.5812835693359 224.676025390625 C 127.5812835693359 210.2426910400391 139.3208923339844 198.5004119873047 153.7515106201172 198.5004119873047 C 168.1821136474609 198.5004119873047 179.9226226806641 210.2426910400391 179.9226226806641 224.676025390625 C 179.9226226806641 239.1092987060547 168.1821136474609 250.8516387939453 153.7515106201172 250.8516387939453 Z M 153.7515106201172 207.3572998046875 C 144.2042846679688 207.3572998046875 136.4364013671875 215.1260833740234 136.4364013671875 224.676025390625 C 136.4364013671875 234.2259063720703 144.2042846679688 241.9956359863281 153.7515106201172 241.9956359863281 C 163.2996215820313 241.9956359863281 171.0675048828125 234.2259063720703 171.0675048828125 224.676025390625 C 171.0675048828125 215.1260833740234 163.2996215820313 207.3572998046875 153.7515106201172 207.3572998046875 Z M 83.96372985839844 250.8516387939453 C 69.53311920166016 250.8516387939453 57.79350662231445 239.1092987060547 57.79350662231445 224.676025390625 C 57.79350662231445 210.2426910400391 69.53311920166016 198.5004119873047 83.96372985839844 198.5004119873047 C 98.39427947998047 198.5004119873047 110.1347808837891 210.2426910400391 110.1347808837891 224.676025390625 C 110.1347808837891 239.1092987060547 98.39427947998047 250.8516387939453 83.96372985839844 250.8516387939453 Z M 83.96372985839844 207.3572998046875 C 74.41561889648438 207.3572998046875 66.64861297607422 215.1260833740234 66.64861297607422 224.676025390625 C 66.64861297607422 234.2259063720703 74.41561889648438 241.9956359863281 83.96372985839844 241.9956359863281 C 93.51177978515625 241.9956359863281 101.2797241210938 234.2259063720703 101.2797241210938 224.676025390625 C 101.2797241210938 215.1260833740234 93.51177978515625 207.3572998046875 83.96372985839844 207.3572998046875 Z M 285.6951293945313 242.1260833740234 L 276.9714050292969 242.1260833740234 L 276.9714050292969 233.4015197753906 L 285.6951293945313 233.4015197753906 L 285.6951293945313 242.1260833740234 Z M 30.53250503540039 242.1260833740234 L 21.808837890625 242.1260833740234 L 21.808837890625 233.4015197753906 L 30.53250503540039 233.4015197753906 L 30.53250503540039 242.1260833740234 Z M 400.1913452148438 233.4015197753906 L 391.4676208496094 233.4015197753906 L 391.4676208496094 224.676025390625 L 400.1913452148438 224.676025390625 L 400.1913452148438 233.4015197753906 Z M 382.743896484375 233.4015197753906 L 372.9302978515625 233.4015197753906 L 372.9302978515625 224.676025390625 L 382.743896484375 224.676025390625 L 382.743896484375 233.4015197753906 Z M 364.2066040039063 233.4015197753906 L 354.3930053710938 233.4015197753906 L 354.3930053710938 224.676025390625 L 364.2066040039063 224.676025390625 L 364.2066040039063 233.4015197753906 Z M 344.5784912109375 233.4015197753906 L 334.7649536132813 233.4015197753906 L 334.7649536132813 224.676025390625 L 344.5784912109375 224.676025390625 L 344.5784912109375 233.4015197753906 Z M 326.0412292480469 233.4015197753906 L 316.2276306152344 233.4015197753906 L 316.2276306152344 224.676025390625 L 326.0412292480469 224.676025390625 L 326.0412292480469 233.4015197753906 Z M 285.6951293945313 225.7667999267578 L 276.9714050292969 225.7667999267578 L 276.9714050292969 217.0413055419922 L 285.6951293945313 217.0413055419922 L 285.6951293945313 225.7667999267578 Z M 30.53250503540039 224.676025390625 L 21.808837890625 224.676025390625 L 21.808837890625 215.9505157470703 L 30.53250503540039 215.9505157470703 L 30.53250503540039 224.676025390625 Z M 400.1913452148438 215.9505157470703 L 391.4676208496094 215.9505157470703 L 391.4676208496094 207.2250213623047 L 400.1913452148438 207.2250213623047 L 400.1913452148438 215.9505157470703 Z M 285.6951293945313 208.3157958984375 L 276.9714050292969 208.3157958984375 L 276.9714050292969 199.5903015136719 L 285.6951293945313 199.5903015136719 L 285.6951293945313 208.3157958984375 Z M 30.53250503540039 208.3157958984375 L 21.808837890625 208.3157958984375 L 21.808837890625 199.5903015136719 L 30.53250503540039 199.5903015136719 L 30.53250503540039 208.3157958984375 Z M 400.1913452148438 197.4096374511719 L 391.4676208496094 197.4096374511719 L 391.4676208496094 188.68408203125 L 400.1913452148438 188.68408203125 L 400.1913452148438 197.4096374511719 Z M 285.6951293945313 190.8656921386719 L 276.9714050292969 190.8656921386719 L 276.9714050292969 182.1401824951172 L 285.6951293945313 182.1401824951172 L 285.6951293945313 190.8656921386719 Z M 30.53250503540039 190.8656921386719 L 21.808837890625 190.8656921386719 L 21.808837890625 182.1401824951172 L 30.53250503540039 182.1401824951172 L 30.53250503540039 190.8656921386719 Z M 348.9398803710938 187.5932922363281 C 334.5102233886719 187.5932922363281 322.7697143554688 175.8510284423828 322.7697143554688 161.4176940917969 C 322.7697143554688 146.9844055175781 334.5102233886719 135.2420806884766 348.9398803710938 135.2420806884766 C 363.3713989257813 135.2420806884766 375.1109924316406 146.9844055175781 375.1109924316406 161.4176940917969 C 375.1109924316406 175.8510284423828 363.3713989257813 187.5932922363281 348.9398803710938 187.5932922363281 Z M 348.9398803710938 144.0980834960938 C 339.3927307128906 144.0980834960938 331.6248474121094 151.8669128417969 331.6248474121094 161.4176940917969 C 331.6248474121094 170.9666900634766 339.3927307128906 178.7364044189453 348.9398803710938 178.7364044189453 C 358.4880065917969 178.7364044189453 366.2559509277344 170.9666900634766 366.2559509277344 161.4176940917969 C 366.2559509277344 151.8669128417969 358.4880065917969 144.0980834960938 348.9398803710938 144.0980834960938 Z M 400.1913452148438 179.9585723876953 L 391.4676208496094 179.9585723876953 L 391.4676208496094 171.2331390380859 L 400.1913452148438 171.2331390380859 L 400.1913452148438 179.9585723876953 Z M 285.6951293945313 174.5055236816406 L 276.9714050292969 174.5055236816406 L 276.9714050292969 165.7800140380859 L 285.6951293945313 165.7800140380859 L 285.6951293945313 174.5055236816406 Z M 30.53250503540039 174.5055236816406 L 21.808837890625 174.5055236816406 L 21.808837890625 165.7800140380859 L 30.53250503540039 165.7800140380859 L 30.53250503540039 174.5055236816406 Z M 400.1913452148438 161.4176940917969 L 391.4676208496094 161.4176940917969 L 391.4676208496094 152.6921844482422 L 400.1913452148438 152.6921844482422 L 400.1913452148438 161.4176940917969 Z M 285.6951293945313 157.0545196533203 L 276.9714050292969 157.0545196533203 L 276.9714050292969 148.3299102783203 L 285.6951293945313 148.3299102783203 L 285.6951293945313 157.0545196533203 Z M 267.1577758789063 157.0545196533203 L 258.4341125488281 157.0545196533203 L 258.4341125488281 148.3299102783203 L 267.1577758789063 148.3299102783203 L 267.1577758789063 157.0545196533203 Z M 249.7103881835938 157.0545196533203 L 240.9867248535156 157.0545196533203 L 240.9867248535156 148.3299102783203 L 249.7103881835938 148.3299102783203 L 249.7103881835938 157.0545196533203 Z M 231.1731109619141 157.0545196533203 L 222.4494018554688 157.0545196533203 L 222.4494018554688 148.3299102783203 L 231.1731109619141 148.3299102783203 L 231.1731109619141 157.0545196533203 Z M 212.6357879638672 157.0545196533203 L 203.912109375 157.0545196533203 L 203.912109375 148.3299102783203 L 212.6357879638672 148.3299102783203 L 212.6357879638672 157.0545196533203 Z M 194.0985107421875 157.0545196533203 L 185.3747863769531 157.0545196533203 L 185.3747863769531 148.3299102783203 L 194.0985107421875 148.3299102783203 L 194.0985107421875 157.0545196533203 Z M 176.651123046875 157.0545196533203 L 167.9273986816406 157.0545196533203 L 167.9273986816406 148.3299102783203 L 176.651123046875 148.3299102783203 L 176.651123046875 157.0545196533203 Z M 158.1137847900391 157.0545196533203 L 149.3901214599609 157.0545196533203 L 149.3901214599609 148.3299102783203 L 158.1137847900391 148.3299102783203 L 158.1137847900391 157.0545196533203 Z M 139.5765075683594 157.0545196533203 L 130.852783203125 157.0545196533203 L 130.852783203125 148.3299102783203 L 139.5765075683594 148.3299102783203 L 139.5765075683594 157.0545196533203 Z M 122.1291198730469 157.0545196533203 L 113.4053955078125 157.0545196533203 L 113.4053955078125 148.3299102783203 L 122.1291198730469 148.3299102783203 L 122.1291198730469 157.0545196533203 Z M 103.5917816162109 157.0545196533203 L 94.86811828613281 157.0545196533203 L 94.86811828613281 148.3299102783203 L 103.5917816162109 148.3299102783203 L 103.5917816162109 157.0545196533203 Z M 85.05450439453125 157.0545196533203 L 76.33084106445313 157.0545196533203 L 76.33084106445313 148.3299102783203 L 85.05450439453125 148.3299102783203 L 85.05450439453125 157.0545196533203 Z M 66.51722717285156 157.0545196533203 L 57.79350662231445 157.0545196533203 L 57.79350662231445 148.3299102783203 L 66.51722717285156 148.3299102783203 L 66.51722717285156 157.0545196533203 Z M 49.06978225708008 157.0545196533203 L 40.34611511230469 157.0545196533203 L 40.34611511230469 148.3299102783203 L 49.06978225708008 148.3299102783203 L 49.06978225708008 157.0545196533203 Z M 30.53250503540039 157.0545196533203 L 21.808837890625 157.0545196533203 L 21.808837890625 148.3299102783203 L 30.53250503540039 148.3299102783203 L 30.53250503540039 157.0545196533203 Z M 400.1913452148438 142.8768005371094 L 391.4676208496094 142.8768005371094 L 391.4676208496094 134.1513061523438 L 400.1913452148438 134.1513061523438 L 400.1913452148438 142.8768005371094 Z M 400.1913452148438 125.4257965087891 L 391.4676208496094 125.4257965087891 L 391.4676208496094 116.7003021240234 L 400.1913452148438 116.7003021240234 L 400.1913452148438 125.4257965087891 Z M 185.3747863769531 119.9726867675781 L 176.651123046875 119.9726867675781 L 176.651123046875 113.4288024902344 L 185.3747863769531 113.4288024902344 L 185.3747863769531 119.9726867675781 Z M 400.1913452148438 106.8849105834961 L 391.4676208496094 106.8849105834961 L 391.4676208496094 98.15940856933594 L 400.1913452148438 98.15940856933594 L 400.1913452148438 106.8849105834961 Z M 382.743896484375 106.8849105834961 L 374.0211181640625 106.8849105834961 L 374.0211181640625 98.15940856933594 L 382.743896484375 98.15940856933594 L 382.743896484375 106.8849105834961 Z M 364.2066040039063 106.8849105834961 L 355.4828796386719 106.8849105834961 L 355.4828796386719 98.15940856933594 L 364.2066040039063 98.15940856933594 L 364.2066040039063 106.8849105834961 Z M 346.7601318359375 106.8849105834961 L 338.0364074707031 106.8849105834961 L 338.0364074707031 98.15940856933594 L 346.7601318359375 98.15940856933594 L 346.7601318359375 106.8849105834961 Z M 329.3127136230469 106.8849105834961 L 320.5890197753906 106.8849105834961 L 320.5890197753906 98.15940856933594 L 329.3127136230469 98.15940856933594 L 329.3127136230469 106.8849105834961 Z M 310.7754516601563 106.8849105834961 L 302.0517272949219 106.8849105834961 L 302.0517272949219 98.15940856933594 L 310.7754516601563 98.15940856933594 L 310.7754516601563 106.8849105834961 Z M 293.3280029296875 106.8849105834961 L 284.6043395996094 106.8849105834961 L 284.6043395996094 98.15940856933594 L 293.3280029296875 98.15940856933594 L 293.3280029296875 106.8849105834961 Z M 274.7907409667969 106.8849105834961 L 266.0670166015625 106.8849105834961 L 266.0670166015625 98.15940856933594 L 274.7907409667969 98.15940856933594 L 274.7907409667969 106.8849105834961 Z M 257.3432922363281 106.8849105834961 L 248.6204986572266 106.8849105834961 L 248.6204986572266 98.15940856933594 L 257.3432922363281 98.15940856933594 L 257.3432922363281 106.8849105834961 Z M 239.8967895507813 106.8849105834961 L 231.1731109619141 106.8849105834961 L 231.1731109619141 98.15940856933594 L 239.8967895507813 98.15940856933594 L 239.8967895507813 106.8849105834961 Z M 221.3595123291016 106.8849105834961 L 212.6357879638672 106.8849105834961 L 212.6357879638672 98.15940856933594 L 221.3595123291016 98.15940856933594 L 221.3595123291016 106.8849105834961 Z M 203.912109375 106.8849105834961 L 195.1884002685547 106.8849105834961 L 195.1884002685547 98.15940856933594 L 203.912109375 98.15940856933594 L 203.912109375 106.8849105834961 Z M 185.3747863769531 106.8849105834961 L 176.651123046875 106.8849105834961 L 176.651123046875 98.15940856933594 L 185.3747863769531 98.15940856933594 L 185.3747863769531 106.8849105834961 Z M 51.27028274536133 80.70841217041016 L 42.51150512695313 80.70841217041016 L 42.51150512695313 72.00180053710938 L 33.80400466918945 72.00180053710938 L 33.80400466918945 63.2420768737793 L 42.51150512695313 63.2420768737793 L 42.51150512695313 54.53279876708984 L 51.27028274536133 54.53279876708984 L 51.27028274536133 63.2420768737793 L 59.97422790527344 63.2420768737793 L 59.97422790527344 72.00180053710938 L 51.27028274536133 72.00180053710938 L 51.27028274536133 80.70841217041016 Z M 318.4082946777344 58.89602279663086 L 309.6846313476563 58.89602279663086 L 309.6846313476563 50.1705207824707 L 318.4082946777344 50.1705207824707 L 318.4082946777344 58.89602279663086 Z M 300.9609069824219 58.89602279663086 L 292.2381286621094 58.89602279663086 L 292.2381286621094 50.1705207824707 L 300.9609069824219 50.1705207824707 L 300.9609069824219 58.89602279663086 Z M 282.4236145019531 58.89602279663086 L 273.699951171875 58.89602279663086 L 273.699951171875 50.1705207824707 L 282.4236145019531 50.1705207824707 L 282.4236145019531 58.89602279663086 Z M 264.9771118164063 58.89602279663086 L 256.2533874511719 58.89602279663086 L 256.2533874511719 50.1705207824707 L 264.9771118164063 50.1705207824707 L 264.9771118164063 58.89602279663086 Z M 247.5297241210938 58.89602279663086 L 238.8059997558594 58.89602279663086 L 238.8059997558594 50.1705207824707 L 247.5297241210938 50.1705207824707 L 247.5297241210938 58.89602279663086 Z M 154.84228515625 55.62357711791992 L 146.1186218261719 55.62357711791992 L 146.1186218261719 46.89813232421875 L 154.84228515625 46.89813232421875 L 154.84228515625 55.62357711791992 Z M 137.3948974609375 55.62357711791992 L 128.672119140625 55.62357711791992 L 128.672119140625 46.89813232421875 L 137.3948974609375 46.89813232421875 L 137.3948974609375 55.62357711791992 Z M 119.9483947753906 55.62357711791992 L 111.2247314453125 55.62357711791992 L 111.2247314453125 46.89813232421875 L 119.9483947753906 46.89813232421875 L 119.9483947753906 55.62357711791992 Z M 381.6737976074219 32.71952056884766 L 372.9150085449219 32.71952056884766 L 372.9150085449219 24.01113319396973 L 364.2066040039063 24.01113319396973 L 364.2066040039063 15.25052070617676 L 372.9150085449219 15.25052070617676 L 372.9150085449219 6.543910026550293 L 381.6737976074219 6.543910026550293 L 381.6737976074219 15.25052070617676 L 390.3767700195313 15.25052070617676 L 390.3767700195313 24.01113319396973 L 381.6737976074219 24.01113319396973 L 381.6737976074219 32.71952056884766 Z M 62.1548957824707 15.26941013336182 L 53.43122863769531 15.26941013336182 L 53.43122863769531 6.543910026550293 L 62.1548957824707 6.543910026550293 L 62.1548957824707 15.26941013336182 Z M 44.70839309692383 15.26941013336182 L 35.98472595214844 15.26941013336182 L 35.98472595214844 6.543910026550293 L 44.70839309692383 6.543910026550293 L 44.70839309692383 15.26941013336182 Z M 26.17022705078125 15.26941013336182 L 17.4473934173584 15.26941013336182 L 17.4473934173584 6.543910026550293 L 26.17022705078125 6.543910026550293 L 26.17022705078125 15.26941013336182 Z M 240.9867248535156 8.725521087646484 L 232.2639007568359 8.725521087646484 L 232.2639007568359 2.115885399689432e-05 L 240.9867248535156 2.115885399689432e-05 L 240.9867248535156 8.725521087646484 Z M 223.5402221679688 8.725521087646484 L 214.8165130615234 8.725521087646484 L 214.8165130615234 2.115885399689432e-05 L 223.5402221679688 2.115885399689432e-05 L 223.5402221679688 8.725521087646484 Z M 206.0927886962891 8.725521087646484 L 197.3691101074219 8.725521087646484 L 197.3691101074219 2.115885399689432e-05 L 206.0927886962891 2.115885399689432e-05 L 206.0927886962891 8.725521087646484 Z" stroke="none" fill="#ff9419"/>
  </g>
  <path id="Path_Copy_9" data-name="Path Copy 9" d="M17.316,34.639A17.319,17.319,0,1,1,34.632,17.319,17.338,17.338,0,0,1,17.316,34.639Z" transform="translate(66.648 207.356)" fill="#ff9419" opacity="0.45"/>
  <path id="Path_Copy_7" data-name="Path Copy 7" d="M17.316,0A17.319,17.319,0,1,1,0,17.319,17.338,17.338,0,0,1,17.316,0Z" transform="translate(136.436 207.356)" fill="#ff9419" opacity="0.45"/>
  <path id="Path_Copy_8" data-name="Path Copy 8" d="M17.316,0A17.319,17.319,0,1,1,0,17.319,17.338,17.338,0,0,1,17.316,0Z" transform="translate(206.224 207.356)" fill="#ff9419" opacity="0.45"/>
</svg>
