<svg id="chat-bubble" xmlns="http://www.w3.org/2000/svg" width="100" height="94.076" viewBox="0 0 100 94.076">
  <g id="Combined_Shape" data-name="Combined Shape" transform="translate(0)" fill="none" stroke-miterlimit="10">
    <path d="M8.588,94.073V78.67L3.11,78.639A4.055,4.055,0,0,1,0,74.7V33.967A4.074,4.074,0,0,1,4.074,29.9H36.739V21.753A3.666,3.666,0,0,1,40.4,18.092H96.337A3.666,3.666,0,0,1,100,21.753V56.984a3.646,3.646,0,0,1-2.795,3.548l-.248.03H92.568v13.5l-16.009-13.5H72.79V74.7a4.07,4.07,0,0,1-4.067,4.064l-41.849-.091L8.59,94.074l0,0ZM2.1,33.967V74.7a1.95,1.95,0,0,0,1.4,1.873h7.19v12.99L26.107,76.569h.645l3.544.007,38.426.082A1.966,1.966,0,0,0,70.688,74.7V33.967A1.966,1.966,0,0,0,68.723,32H4.074A1.97,1.97,0,0,0,2.1,33.967ZM72.79,55.4v3.058h4.536l13.14,11.077V58.461h6.349A1.548,1.548,0,0,0,97.9,56.984V21.753a1.563,1.563,0,0,0-1.562-1.561H40.4a1.563,1.563,0,0,0-1.562,1.561V29.9H68.723a4.07,4.07,0,0,1,4.067,4.064V55.4h0ZM28.419,91.233V89.169H26.357V87.094h2.063V85.03h2.075v2.064h2.064v2.075H30.495v2.064ZM69.763,90.2V88.135H67.7V86.06h2.062V84h2.075V86.06H73.9v2.075H71.838V90.2ZM49.871,85.805V83.738h2.067v2.067Zm-4.135,0V83.738H47.8v2.067Zm-4.134,0V83.738h2.066v2.067ZM91.732,84V81.929H93.8V84Zm-4.393,0V81.929h2.067V84ZM83.2,84V81.929h2.067V84ZM65.633,73.659V71.59H67.7v2.068Zm-4.393,0,.035-2.065,2.032,0v2.065Zm-8.528,0V71.59H54.78v2.068Zm-4.393,0V71.59h2.067v2.068Zm-4.393,0V71.59h2.067v2.068Zm-4.134,0V71.59h2.067v2.068Zm-4.393,0V71.59h2.067v2.068Zm-4.393,0V71.59h2.067v2.068Zm-4.135,0V71.59H28.94v2.068Zm-4.393,0V71.59h2.067v2.068Zm-4.392,0V71.59h2.066v2.068Zm-4.393,0V71.59h2.067v2.068Zm-4.135,0V71.59h2.067v2.068Zm-4.393,0V71.59H7.235v2.068Zm51.713-.085.036-2.1,2.158.036-.035,2.1Zm8.752-4.05V67.456H67.7v2.067Zm-60.466,0V67.456H7.235v2.067Zm60.466-4.135V63.32H67.7v2.067Zm-60.466,0V63.32H7.235v2.067Zm60.466-3.876V59.443H67.7v2.068Zm-60.466,0V59.443H7.235v2.068Zm41.6-8.271a6.2,6.2,0,1,1,6.2,6.2A6.209,6.209,0,0,1,46.77,53.24Zm2.1,0a4.1,4.1,0,1,0,4.1-4.1A4.108,4.108,0,0,0,48.868,53.24Zm-18.635,0a6.2,6.2,0,1,1,6.2,6.2A6.209,6.209,0,0,1,30.233,53.24Zm2.1,0a4.1,4.1,0,1,0,4.1-4.1A4.108,4.108,0,0,0,32.331,53.24Zm-18.635,0a6.2,6.2,0,1,1,6.2,6.2A6.209,6.209,0,0,1,13.7,53.24Zm2.1,0a4.1,4.1,0,1,0,4.1-4.1A4.108,4.108,0,0,0,15.793,53.24Zm49.84,4.135V55.309H67.7v2.067Zm-60.466,0V55.309H7.235v2.067Zm87.6-2.067V53.24h2.067v2.068Zm-4.393,0V53.24H90.7v2.068Zm-4.393,0V53.24H86.3v2.068Zm-4.651,0V53.24h2.326v2.068Zm-4.392,0V53.24h2.326v2.068Zm-9.3-1.809V51.431H67.7V53.5ZM5.168,53.24V51.173H7.235V53.24Zm87.6-2.067V49.106h2.067v2.067ZM65.633,49.364V47.3H67.7v2.067Zm-60.466,0V47.3H7.235v2.067Zm87.6-2.585V44.712h2.067v2.067ZM65.633,45.229V43.161H67.7v2.067Zm-60.466,0V43.161H7.235v2.067Zm71.318-6.978a6.2,6.2,0,1,1,6.2,6.2A6.209,6.209,0,0,1,76.486,38.251Zm2.1,0a4.1,4.1,0,1,0,4.1-4.1A4.109,4.109,0,0,0,78.584,38.251Zm14.181,4.394V40.576h2.067v2.068ZM65.633,41.352V39.284H67.7v2.068Zm-60.466,0V39.284H7.235v2.068Zm87.6-3.1V36.183h2.067v2.068ZM65.633,37.217V35.15H67.7v2.067Zm-4.393,0V35.15h2.067v2.067Zm-4.135,0V35.15h2.067v2.067Zm-4.393,0V35.15H54.78v2.067Zm-4.393,0V35.15h2.067v2.067Zm-4.393,0V35.15h2.067v2.067Zm-4.134,0V35.15h2.067v2.067Zm-4.393,0V35.15h2.067v2.067Zm-4.393,0V35.15h2.067v2.067Zm-4.135,0V35.15H28.94v2.067Zm-4.393,0V35.15h2.067v2.067Zm-4.392,0V35.15h2.066v2.067Zm-4.393,0V35.15h2.067v2.067Zm-4.135,0V35.15h2.067v2.067Zm-4.393,0V35.15H7.235v2.067Zm87.6-3.36V31.79h2.067v2.067Zm0-4.135V27.654h2.067v2.067Zm-50.9-1.292V26.878h2.066v1.551Zm50.9-3.1V23.26h2.067v2.067Zm-4.135,0V23.26H90.7v2.067Zm-4.393,0V23.26H86.3v2.067Zm-4.134,0V23.26h2.067v2.067Zm-4.135,0V23.26h2.067v2.067Zm-4.393,0V23.26h2.067v2.067Zm-4.135,0V23.26h2.067v2.067Zm-4.392,0V23.26h2.066v2.067Zm-4.135,0V23.26h2.067v2.067Zm-4.135,0V23.26h2.067v2.067Zm-4.393,0V23.26h2.067v2.067Zm-4.135,0V23.26H48.32v2.067Zm-4.392,0V23.26h2.066v2.067Zm-31.787-6.2V17.062H8.01V14.986h2.064V12.922h2.075v2.064h2.063v2.076H12.149v2.063Zm63.311-5.169V11.889h2.067v2.067Zm-4.135,0V11.889h2.067v2.067Zm-4.393,0V11.889h2.067v2.067Zm-4.134,0V11.889H62.79v2.067Zm-4.135,0V11.889h2.067v2.067Zm-21.964-.775V11.113h2.066v2.068Zm-4.135,0V11.113h2.067v2.068Zm-4.135,0V11.113h2.067v2.068ZM88.368,7.753V5.69H86.3V3.614h2.064V1.551h2.075V3.614h2.063V5.69H90.444V7.753ZM12.661,3.618V1.551h2.067V3.618Zm-4.134,0V1.551h2.066V3.618Zm-4.393,0V1.551H6.2V3.618Zm50.9-1.551V0h2.067V2.067Zm-4.135,0V0h2.067V2.067Zm-4.134,0V0h2.067V2.067Z" stroke="none"/>
    <path d="M 9.587796211242676 91.9256591796875 L 26.22967338562012 77.90425109863281 L 26.50888824462891 77.66900634765625 L 26.87399673461914 77.66900634765625 C 27.20218086242676 77.66900634765625 34.63372039794922 77.68514251708984 68.72310638427734 77.75989532470703 C 70.414306640625 77.75989532470703 71.79019927978516 76.38522338867188 71.79019927978516 74.69549560546875 L 71.79019927978516 60.56189727783203 L 71.79019927978516 59.56189727783203 L 72.79019927978516 59.56189727783203 L 76.55850219726563 59.56189727783203 L 76.92379760742188 59.56189727783203 L 77.20308685302734 59.79735946655273 L 91.56770324707031 71.90811920166016 L 91.56770324707031 60.56189727783203 L 91.56770324707031 59.56189727783203 L 92.56770324707031 59.56189727783203 L 96.89737701416016 59.56189727783203 L 97.02247619628906 59.54694366455078 C 98.18959045410156 59.23761749267578 98.99990081787109 58.19169616699219 98.99990081787109 56.98440551757813 L 98.99990081787109 21.75300598144531 C 98.99990081787109 20.28562164306641 97.80529022216797 19.09180450439453 96.33690643310547 19.09180450439453 L 40.40099716186523 19.09180450439453 C 38.93312072753906 19.09180450439453 37.7389030456543 20.28562164306641 37.7389030456543 21.75300598144531 L 37.7389030456543 29.90249824523926 L 37.7389030456543 30.90249824523926 L 36.7389030456543 30.90249824523926 L 4.074304103851318 30.90249824523926 C 2.379119634628296 30.90249824523926 0.999996542930603 32.27717590332031 0.999996542930603 33.96689605712891 L 0.999996542930603 74.69549560546875 C 0.999996542930603 76.07235717773438 1.916175365447998 77.26793670654297 3.241441965103149 77.64002990722656 L 8.593380928039551 77.66991424560547 L 9.587796211242676 77.67546844482422 L 9.587796211242676 78.66989898681641 L 9.587796211242676 91.9256591796875 M 9.689304351806641 77.56840515136719 L 3.499196529388428 77.56840515136719 L 3.350765705108643 77.56840515136719 L 3.20873498916626 77.52529907226563 C 1.94833505153656 77.1427001953125 1.10150420665741 76.00548553466797 1.10150420665741 74.69549560546875 L 1.10150420665741 33.96689605712891 C 1.10150420665741 32.3326530456543 2.435104370117188 31.00309753417969 4.074304103851318 31.00309753417969 L 68.72310638427734 31.00309753417969 C 70.35784149169922 31.00309753417969 71.68781280517578 32.3326530456543 71.68781280517578 33.96689605712891 L 71.68781280517578 74.69549560546875 C 71.68781280517578 76.32974243164063 70.35784149169922 77.65929412841797 68.72096252441406 77.65929412841797 L 30.29467391967773 77.57740783691406 L 26.75250434875488 77.57020568847656 L 26.73810386657715 77.57020568847656 L 26.67275047302246 77.57005310058594 C 26.62887382507324 77.56993103027344 26.56386947631836 77.56974792480469 26.47195434570313 77.56958770751953 L 11.33359622955322 90.32289886474609 L 9.689304351806641 91.7081298828125 L 9.689304351806641 89.55811309814453 L 9.689304351806641 77.56840515136719 M 76.96092987060547 59.46129608154297 L 72.79019927978516 59.46129608154297 L 71.79019927978516 59.46129608154297 L 71.79019927978516 58.46129608154297 L 71.79019927978516 55.40309906005859 L 71.79110717773438 55.40309906005859 L 71.79019927978516 53.30249786376953 L 71.79019927978516 33.96689605712891 C 71.79019927978516 32.27717590332031 70.414306640625 30.90249824523926 68.72310638427734 30.90249824523926 L 38.84039688110352 30.90249824523926 L 37.84039688110352 30.90249824523926 L 37.84039688110352 29.90249824523926 L 37.84039688110352 21.75300598144531 C 37.84039688110352 20.3410816192627 38.9894905090332 19.19240570068359 40.40190505981445 19.19240570068359 L 96.33690643310547 19.19240570068359 C 97.74932098388672 19.19240570068359 98.89839935302734 20.3410816192627 98.89839935302734 21.75300598144531 L 98.89839935302734 56.98440551757813 C 98.89839935302734 58.09757614135742 98.183349609375 59.07389831542969 97.11911773681641 59.41386795043945 L 96.97065734863281 59.46129608154297 L 96.81481170654297 59.46129608154297 L 91.46619415283203 59.46129608154297 L 91.46619415283203 69.53849792480469 L 91.46619415283203 71.68943786621094 L 89.8216552734375 70.30307006835938 L 76.96092987060547 59.46129608154297 M 29.49470520019531 90.23300170898438 L 29.49470520019531 89.1693115234375 L 29.49470520019531 88.1693115234375 L 30.49470520019531 88.1693115234375 L 31.55839729309082 88.1693115234375 L 31.55839729309082 88.09389495849609 L 30.49470520019531 88.09389495849609 L 29.49470520019531 88.09389495849609 L 29.49470520019531 87.09389495849609 L 29.49470520019531 86.03020477294922 L 29.41930389404297 86.03020477294922 L 29.41930389404297 87.09389495849609 L 29.41930389404297 88.09389495849609 L 28.41930389404297 88.09389495849609 L 27.35650444030762 88.09389495849609 L 27.35650444030762 88.1693115234375 L 28.41930389404297 88.1693115234375 L 29.41930389404297 88.1693115234375 L 29.41930389404297 89.1693115234375 L 29.41930389404297 90.23300170898438 L 29.49470520019531 90.23300170898438 M 70.8380126953125 89.19891357421875 L 70.8380126953125 88.13520812988281 L 70.8380126953125 87.13520812988281 L 71.8380126953125 87.13520812988281 L 72.90170288085938 87.13520812988281 L 72.90170288085938 87.05980682373047 L 71.8380126953125 87.05980682373047 L 70.8380126953125 87.05980682373047 L 70.8380126953125 86.05980682373047 L 70.8380126953125 84.99610137939453 L 70.76261138916016 84.99610137939453 L 70.76261138916016 86.05980682373047 L 70.76261138916016 87.05980682373047 L 69.76261138916016 87.05980682373047 L 68.70070648193359 87.05980682373047 L 68.70070648193359 87.13520812988281 L 69.76261138916016 87.13520812988281 L 70.76261138916016 87.13520812988281 L 70.76261138916016 88.13520812988281 L 70.76261138916016 89.19891357421875 L 70.8380126953125 89.19891357421875 M 52.97219467163086 58.44320678710938 C 55.84004211425781 58.44320678710938 58.17319488525391 56.10923767089844 58.17319488525391 53.24040603637695 C 58.17319488525391 50.37157440185547 55.84004211425781 48.03760528564453 52.97219467163086 48.03760528564453 C 50.10385894775391 48.03760528564453 47.77030563354492 50.37157440185547 47.77030563354492 53.24040603637695 C 47.77030563354492 56.10923767089844 50.10385894775391 58.44320678710938 52.97219467163086 58.44320678710938 M 52.97219467163086 48.13640594482422 C 55.78605651855469 48.13640594482422 58.0753059387207 50.42605209350586 58.0753059387207 53.24040603637695 C 58.0753059387207 56.05475997924805 55.78605651855469 58.34440612792969 52.97219467163086 58.34440612792969 C 50.15784454345703 58.34440612792969 47.86819839477539 56.05475997924805 47.86819839477539 53.24040603637695 C 47.86819839477539 50.42605209350586 50.15784454345703 48.13640594482422 52.97219467163086 48.13640594482422 M 36.4347038269043 58.44320678710938 C 39.30255126953125 58.44320678710938 41.63570404052734 56.10923767089844 41.63570404052734 53.24040603637695 C 41.63570404052734 50.37157440185547 39.30255126953125 48.03760528564453 36.4347038269043 48.03760528564453 C 33.56636428833008 48.03760528564453 31.23279571533203 50.37157440185547 31.23279571533203 53.24040603637695 C 31.23279571533203 56.10923767089844 33.56636428833008 58.44320678710938 36.4347038269043 58.44320678710938 M 36.4347038269043 48.13640594482422 C 39.24856567382813 48.13640594482422 41.53779602050781 50.42605209350586 41.53779602050781 53.24040603637695 C 41.53779602050781 56.05475997924805 39.24856567382813 58.34440612792969 36.4347038269043 58.34440612792969 C 33.6203498840332 58.34440612792969 31.33070373535156 56.05475997924805 31.33070373535156 53.24040603637695 C 31.33070373535156 50.42605209350586 33.6203498840332 48.13640594482422 36.4347038269043 48.13640594482422 M 19.89719581604004 58.44320678710938 C 22.76504325866699 58.44320678710938 25.09819602966309 56.10923767089844 25.09819602966309 53.24040603637695 C 25.09819602966309 50.37157440185547 22.76504325866699 48.03760528564453 19.89719581604004 48.03760528564453 C 17.02885818481445 48.03760528564453 14.69530391693115 50.37157440185547 14.69530391693115 53.24040603637695 C 14.69530391693115 56.10923767089844 17.02885818481445 58.44320678710938 19.89719581604004 58.44320678710938 M 19.89719581604004 48.13640594482422 C 22.71105766296387 48.13640594482422 25.00030517578125 50.42605209350586 25.00030517578125 53.24040603637695 C 25.00030517578125 56.05475997924805 22.71105766296387 58.34440612792969 19.89719581604004 58.34440612792969 C 17.08284187316895 58.34440612792969 14.79319667816162 56.05475997924805 14.79319667816162 53.24040603637695 C 14.79319667816162 50.42605209350586 17.08284187316895 48.13640594482422 19.89719581604004 48.13640594482422 M 82.68750762939453 43.45369720458984 C 85.55535125732422 43.45369720458984 87.88850402832031 41.11972808837891 87.88850402832031 38.25089645385742 C 87.88850402832031 35.3820686340332 85.55535125732422 33.04809951782227 82.68750762939453 33.04809951782227 C 79.81916809082031 33.04809951782227 77.48561096191406 35.3820686340332 77.48561096191406 38.25089645385742 C 77.48561096191406 41.11972808837891 79.81916809082031 43.45369720458984 82.68750762939453 43.45369720458984 M 82.68750762939453 33.14689636230469 C 85.50136566162109 33.14689636230469 87.79061126708984 35.43654251098633 87.79061126708984 38.25089645385742 C 87.79061126708984 41.06525039672852 85.50136566162109 43.35489654541016 82.68750762939453 43.35489654541016 C 79.87315368652344 43.35489654541016 77.58350372314453 41.06525039672852 77.58350372314453 38.25089645385742 C 77.58350372314453 35.43654251098633 79.87315368652344 33.14689636230469 82.68750762939453 33.14689636230469 M 11.14910411834717 18.1250057220459 L 11.14910411834717 17.06220626831055 L 11.14910411834717 16.06220626831055 L 12.14910411834717 16.06220626831055 L 13.21190452575684 16.06220626831055 L 13.21190452575684 15.9858980178833 L 12.14910411834717 15.9858980178833 L 11.14910411834717 15.9858980178833 L 11.14910411834717 14.9858980178833 L 11.14910411834717 13.92220592498779 L 11.07370471954346 13.92220592498779 L 11.07370471954346 14.9858980178833 L 11.07370471954346 15.9858980178833 L 10.07370471954346 15.9858980178833 L 9.00999641418457 15.9858980178833 L 9.00999641418457 16.06220626831055 L 10.07370471954346 16.06220626831055 L 11.07370471954346 16.06220626831055 L 11.07370471954346 17.06220626831055 L 11.07370471954346 18.1250057220459 L 11.14910411834717 18.1250057220459 M 89.44370269775391 6.75349760055542 L 89.44370269775391 5.689805507659912 L 89.44370269775391 4.689805507659912 L 90.44370269775391 4.689805507659912 L 91.50650787353516 4.689805507659912 L 91.50650787353516 4.613497734069824 L 90.44370269775391 4.613497734069824 L 89.44370269775391 4.613497734069824 L 89.44370269775391 3.613497734069824 L 89.44370269775391 2.550697803497314 L 89.36830139160156 2.550697803497314 L 89.36830139160156 3.613497734069824 L 89.36830139160156 4.613497734069824 L 88.36830139160156 4.613497734069824 L 87.30461120605469 4.613497734069824 L 87.30461120605469 4.689805507659912 L 88.36830139160156 4.689805507659912 L 89.36830139160156 4.689805507659912 L 89.36830139160156 5.689805507659912 L 89.36830139160156 6.75349760055542 L 89.44370269775391 6.75349760055542 M 8.587796211242676 94.07609558105469 L 8.587796211242676 94.07340240478516 L 8.587796211242676 78.66989898681641 L 3.11039662361145 78.63931274414063 C 1.27890419960022 78.19289398193359 -3.437218310864409e-06 76.57109832763672 -3.437218310864409e-06 74.69549560546875 L -3.437218310864409e-06 33.96689605712891 C -3.437218310864409e-06 31.72589683532715 1.827904224395752 29.90249824523926 4.074304103851318 29.90249824523926 L 36.7389030456543 29.90249824523926 L 36.7389030456543 21.75300598144531 C 36.7389030456543 19.73429870605469 38.38139724731445 18.09180450439453 40.40099716186523 18.09180450439453 L 96.33690643310547 18.09180450439453 C 98.35650634765625 18.09180450439453 99.99990081787109 19.73429870605469 99.99990081787109 21.75300598144531 L 99.99990081787109 56.98440551757813 C 99.99990081787109 58.67280578613281 98.85059356689453 60.13169860839844 97.20539855957031 60.53220367431641 L 96.95699310302734 60.56189727783203 L 92.56770324707031 60.56189727783203 L 92.56770324707031 74.0592041015625 L 76.55850219726563 60.56189727783203 L 72.79019927978516 60.56189727783203 L 72.79019927978516 74.69549560546875 C 72.79019927978516 76.93650054931641 70.96590423583984 78.75989532470703 68.72310638427734 78.75989532470703 C 34.65990447998047 78.68520355224609 27.20250511169434 78.66900634765625 26.87399673461914 78.66900634765625 L 8.589596748352051 94.07429504394531 L 8.587796211242676 94.07609558105469 Z M 4.074304103851318 32.00309753417969 C 2.986196517944336 32.00309753417969 2.101504325866699 32.88420486450195 2.101504325866699 33.96689605712891 L 2.101504325866699 74.69549560546875 C 2.101504325866699 75.56220245361328 2.663104295730591 76.31460571289063 3.499196529388428 76.56840515136719 L 10.68930435180664 76.56840515136719 L 10.68930435180664 89.55811309814453 L 26.10719680786133 76.56931304931641 C 26.51759719848633 76.56931304931641 26.69039726257324 76.57020568847656 26.73810386657715 76.57020568847656 L 26.75250434875488 76.57020568847656 L 30.29670333862305 76.57740783691406 L 68.72310638427734 76.65929412841797 C 69.80670166015625 76.65929412841797 70.68781280517578 75.77820587158203 70.68781280517578 74.69549560546875 L 70.68781280517578 33.96689605712891 C 70.68781280517578 32.88420486450195 69.80670166015625 32.00309753417969 68.72310638427734 32.00309753417969 L 4.074304103851318 32.00309753417969 Z M 72.789306640625 55.40309906005859 L 72.79019927978516 55.40309906005859 L 72.79019927978516 58.46129608154297 L 77.32619476318359 58.46129608154297 L 90.46619415283203 69.53849792480469 L 90.46619415283203 58.46129608154297 L 96.81481170654297 58.46129608154297 C 97.46279907226563 58.25429916381836 97.89839935302734 57.66120529174805 97.89839935302734 56.98440551757813 L 97.89839935302734 21.75300598144531 C 97.89839935302734 20.89260482788086 97.19821166992188 20.19240570068359 96.33690643310547 20.19240570068359 L 40.40190505981445 20.19240570068359 C 39.54059600830078 20.19240570068359 38.84039688110352 20.89260482788086 38.84039688110352 21.75300598144531 L 38.84039688110352 29.90249824523926 L 68.72310638427734 29.90249824523926 C 70.96590423583984 29.90249824523926 72.79019927978516 31.72589683532715 72.79019927978516 33.96689605712891 L 72.79019927978516 53.30249786376953 L 72.79110717773438 55.40309906005859 L 72.789306640625 55.40309906005859 Z M 30.49470520019531 91.23300170898438 L 28.41930389404297 91.23300170898438 L 28.41930389404297 89.1693115234375 L 26.35650444030762 89.1693115234375 L 26.35650444030762 87.09389495849609 L 28.41930389404297 87.09389495849609 L 28.41930389404297 85.03020477294922 L 30.49470520019531 85.03020477294922 L 30.49470520019531 87.09389495849609 L 32.55839538574219 87.09389495849609 L 32.55839538574219 89.1693115234375 L 30.49470520019531 89.1693115234375 L 30.49470520019531 91.23300170898438 Z M 71.8380126953125 90.19891357421875 L 69.76261138916016 90.19891357421875 L 69.76261138916016 88.13520812988281 L 67.70070648193359 88.13520812988281 L 67.70070648193359 86.05980682373047 L 69.76261138916016 86.05980682373047 L 69.76261138916016 83.99610137939453 L 71.8380126953125 83.99610137939453 L 71.8380126953125 86.05980682373047 L 73.90170288085938 86.05980682373047 L 73.90170288085938 88.13520812988281 L 71.8380126953125 88.13520812988281 L 71.8380126953125 90.19891357421875 Z M 51.93810272216797 85.80509948730469 L 49.87079620361328 85.80509948730469 L 49.87079620361328 83.73780822753906 L 51.93810272216797 83.73780822753906 L 51.93810272216797 85.80509948730469 Z M 47.80350494384766 85.80509948730469 L 45.73619842529297 85.80509948730469 L 45.73619842529297 83.73780822753906 L 47.80350494384766 83.73780822753906 L 47.80350494384766 85.80509948730469 Z M 43.66890335083008 85.80509948730469 L 41.60250473022461 85.80509948730469 L 41.60250473022461 83.73780822753906 L 43.66890335083008 83.73780822753906 L 43.66890335083008 85.80509948730469 Z M 93.79890441894531 83.99610137939453 L 91.73161315917969 83.99610137939453 L 91.73161315917969 81.92880249023438 L 93.79890441894531 81.92880249023438 L 93.79890441894531 83.99610137939453 Z M 89.40601348876953 83.99610137939453 L 87.33870697021484 83.99610137939453 L 87.33870697021484 81.92880249023438 L 89.40601348876953 81.92880249023438 L 89.40601348876953 83.99610137939453 Z M 85.27139282226563 83.99610137939453 L 83.2041015625 83.99610137939453 L 83.2041015625 81.92880249023438 L 85.27139282226563 81.92880249023438 L 85.27139282226563 83.99610137939453 Z M 67.70070648193359 73.65869903564453 L 65.63339996337891 73.65869903564453 L 65.63339996337891 71.59049987792969 L 67.70070648193359 71.59049987792969 L 67.70070648193359 73.65869903564453 Z M 63.30779647827148 73.65869903564453 L 61.24050521850586 73.65511322021484 L 61.27559661865234 71.59049987792969 L 63.30779647827148 71.59410095214844 L 63.30779647827148 73.65869903564453 Z M 54.78030395507813 73.65869903564453 L 52.71299743652344 73.65869903564453 L 52.71299743652344 71.59049987792969 L 54.78030395507813 71.59049987792969 L 54.78030395507813 73.65869903564453 Z M 50.38739776611328 73.65869903564453 L 48.32010269165039 73.65869903564453 L 48.32010269165039 71.59049987792969 L 50.38739776611328 71.59049987792969 L 50.38739776611328 73.65869903564453 Z M 45.99450302124023 73.65869903564453 L 43.92719650268555 73.65869903564453 L 43.92719650268555 71.59049987792969 L 45.99450302124023 71.59049987792969 L 45.99450302124023 73.65869903564453 Z M 41.86079788208008 73.65869903564453 L 39.79350280761719 73.65869903564453 L 39.79350280761719 71.59049987792969 L 41.86079788208008 71.59049987792969 L 41.86079788208008 73.65869903564453 Z M 37.46790313720703 73.65869903564453 L 35.40059661865234 73.65869903564453 L 35.40059661865234 71.59049987792969 L 37.46790313720703 71.59049987792969 L 37.46790313720703 73.65869903564453 Z M 33.07499694824219 73.65869903564453 L 31.00770378112793 73.65869903564453 L 31.00770378112793 71.59049987792969 L 33.07499694824219 71.59049987792969 L 33.07499694824219 73.65869903564453 Z M 28.94039726257324 73.65869903564453 L 26.87310409545898 73.65869903564453 L 26.87310409545898 71.59049987792969 L 28.94039726257324 71.59049987792969 L 28.94039726257324 73.65869903564453 Z M 24.54750442504883 73.65869903564453 L 22.48019599914551 73.65869903564453 L 22.48019599914551 71.59049987792969 L 24.54750442504883 71.59049987792969 L 24.54750442504883 73.65869903564453 Z M 20.15459632873535 73.65869903564453 L 18.08819580078125 73.65869903564453 L 18.08819580078125 71.59049987792969 L 20.15459632873535 71.59049987792969 L 20.15459632873535 73.65869903564453 Z M 15.76259613037109 73.65869903564453 L 13.69530391693115 73.65869903564453 L 13.69530391693115 71.59049987792969 L 15.76259613037109 71.59049987792969 L 15.76259613037109 73.65869903564453 Z M 11.62799644470215 73.65869903564453 L 9.560704231262207 73.65869903564453 L 9.560704231262207 71.59049987792969 L 11.62799644470215 71.59049987792969 L 11.62799644470215 73.65869903564453 Z M 7.235104084014893 73.65869903564453 L 5.167796611785889 73.65869903564453 L 5.167796611785889 71.59049987792969 L 7.235104084014893 71.59049987792969 L 7.235104084014893 73.65869903564453 Z M 59.03999710083008 73.61009979248047 L 56.88090515136719 73.57320404052734 L 56.91690444946289 71.47349548339844 L 59.07510375976563 71.50949859619141 L 59.03999710083008 73.61009979248047 Z M 67.70070648193359 69.52320861816406 L 65.63339996337891 69.52320861816406 L 65.63339996337891 67.45589447021484 L 67.70070648193359 67.45589447021484 L 67.70070648193359 69.52320861816406 Z M 7.235104084014893 69.52320861816406 L 5.167796611785889 69.52320861816406 L 5.167796611785889 67.45589447021484 L 7.235104084014893 67.45589447021484 L 7.235104084014893 69.52320861816406 Z M 67.70070648193359 65.3876953125 L 65.63339996337891 65.3876953125 L 65.63339996337891 63.32040405273438 L 67.70070648193359 63.32040405273438 L 67.70070648193359 65.3876953125 Z M 7.235104084014893 65.3876953125 L 5.167796611785889 65.3876953125 L 5.167796611785889 63.32040405273438 L 7.235104084014893 63.32040405273438 L 7.235104084014893 65.3876953125 Z M 67.70070648193359 61.51140594482422 L 65.63339996337891 61.51140594482422 L 65.63339996337891 59.44320678710938 L 67.70070648193359 59.44320678710938 L 67.70070648193359 61.51140594482422 Z M 7.235104084014893 61.51140594482422 L 5.167796611785889 61.51140594482422 L 5.167796611785889 59.44320678710938 L 7.235104084014893 59.44320678710938 L 7.235104084014893 61.51140594482422 Z M 52.97219467163086 59.44320678710938 C 49.55219650268555 59.44320678710938 46.77030563354492 56.66129684448242 46.77030563354492 53.24040603637695 C 46.77030563354492 49.82040405273438 49.55219650268555 47.03760528564453 52.97219467163086 47.03760528564453 C 56.39130401611328 47.03760528564453 59.17319488525391 49.82040405273438 59.17319488525391 53.24040603637695 C 59.17319488525391 56.66129684448242 56.39130401611328 59.44320678710938 52.97219467163086 59.44320678710938 Z M 52.97219467163086 49.13640594482422 C 50.70870590209961 49.13640594482422 48.86819839477539 50.97780609130859 48.86819839477539 53.24040603637695 C 48.86819839477539 55.50389862060547 50.70870590209961 57.34440612792969 52.97219467163086 57.34440612792969 C 55.23479843139648 57.34440612792969 57.0753059387207 55.50389862060547 57.0753059387207 53.24040603637695 C 57.0753059387207 50.97780609130859 55.23479843139648 49.13640594482422 52.97219467163086 49.13640594482422 Z M 36.4347038269043 59.44320678710938 C 33.01470565795898 59.44320678710938 30.23279571533203 56.66129684448242 30.23279571533203 53.24040603637695 C 30.23279571533203 49.82040405273438 33.01470565795898 47.03760528564453 36.4347038269043 47.03760528564453 C 39.85379791259766 47.03760528564453 42.63570404052734 49.82040405273438 42.63570404052734 53.24040603637695 C 42.63570404052734 56.66129684448242 39.85379791259766 59.44320678710938 36.4347038269043 59.44320678710938 Z M 36.4347038269043 49.13640594482422 C 34.17119598388672 49.13640594482422 32.33070373535156 50.97780609130859 32.33070373535156 53.24040603637695 C 32.33070373535156 55.50389862060547 34.17119598388672 57.34440612792969 36.4347038269043 57.34440612792969 C 38.69730377197266 57.34440612792969 40.53779602050781 55.50389862060547 40.53779602050781 53.24040603637695 C 40.53779602050781 50.97780609130859 38.69730377197266 49.13640594482422 36.4347038269043 49.13640594482422 Z M 19.89719581604004 59.44320678710938 C 16.47719573974609 59.44320678710938 13.69530391693115 56.66129684448242 13.69530391693115 53.24040603637695 C 13.69530391693115 49.82040405273438 16.47719573974609 47.03760528564453 19.89719581604004 47.03760528564453 C 23.31630516052246 47.03760528564453 26.09819602966309 49.82040405273438 26.09819602966309 53.24040603637695 C 26.09819602966309 56.66129684448242 23.31630516052246 59.44320678710938 19.89719581604004 59.44320678710938 Z M 19.89719581604004 49.13640594482422 C 17.63370513916016 49.13640594482422 15.79319667816162 50.97780609130859 15.79319667816162 53.24040603637695 C 15.79319667816162 55.50389862060547 17.63370513916016 57.34440612792969 19.89719581604004 57.34440612792969 C 22.1597957611084 57.34440612792969 24.00030517578125 55.50389862060547 24.00030517578125 53.24040603637695 C 24.00030517578125 50.97780609130859 22.1597957611084 49.13640594482422 19.89719581604004 49.13640594482422 Z M 67.70070648193359 57.37589645385742 L 65.63339996337891 57.37589645385742 L 65.63339996337891 55.3086051940918 L 67.70070648193359 55.3086051940918 L 67.70070648193359 57.37589645385742 Z M 7.235104084014893 57.37589645385742 L 5.167796611785889 57.37589645385742 L 5.167796611785889 55.3086051940918 L 7.235104084014893 55.3086051940918 L 7.235104084014893 57.37589645385742 Z M 94.83210754394531 55.3086051940918 L 92.76479339599609 55.3086051940918 L 92.76479339599609 53.24040603637695 L 94.83210754394531 53.24040603637695 L 94.83210754394531 55.3086051940918 Z M 90.69750213623047 55.3086051940918 L 88.37190246582031 55.3086051940918 L 88.37190246582031 53.24040603637695 L 90.69750213623047 53.24040603637695 L 90.69750213623047 55.3086051940918 Z M 86.30461120605469 55.3086051940918 L 83.97901153564453 55.3086051940918 L 83.97901153564453 53.24040603637695 L 86.30461120605469 53.24040603637695 L 86.30461120605469 55.3086051940918 Z M 81.65341186523438 55.3086051940918 L 79.32781219482422 55.3086051940918 L 79.32781219482422 53.24040603637695 L 81.65341186523438 53.24040603637695 L 81.65341186523438 55.3086051940918 Z M 77.26139831542969 55.3086051940918 L 74.93579864501953 55.3086051940918 L 74.93579864501953 53.24040603637695 L 77.26139831542969 53.24040603637695 L 77.26139831542969 55.3086051940918 Z M 67.70070648193359 53.49960708618164 L 65.63339996337891 53.49960708618164 L 65.63339996337891 51.43140411376953 L 67.70070648193359 51.43140411376953 L 67.70070648193359 53.49960708618164 Z M 7.235104084014893 53.24040603637695 L 5.167796611785889 53.24040603637695 L 5.167796611785889 51.17309951782227 L 7.235104084014893 51.17309951782227 L 7.235104084014893 53.24040603637695 Z M 94.83210754394531 51.17309951782227 L 92.76479339599609 51.17309951782227 L 92.76479339599609 49.10580444335938 L 94.83210754394531 49.10580444335938 L 94.83210754394531 51.17309951782227 Z M 67.70070648193359 49.36409759521484 L 65.63339996337891 49.36409759521484 L 65.63339996337891 47.29680633544922 L 67.70070648193359 47.29680633544922 L 67.70070648193359 49.36409759521484 Z M 7.235104084014893 49.36409759521484 L 5.167796611785889 49.36409759521484 L 5.167796611785889 47.29680633544922 L 7.235104084014893 47.29680633544922 L 7.235104084014893 49.36409759521484 Z M 94.83210754394531 46.779296875 L 92.76479339599609 46.779296875 L 92.76479339599609 44.71200561523438 L 94.83210754394531 44.71200561523438 L 94.83210754394531 46.779296875 Z M 67.70070648193359 45.22860717773438 L 65.63339996337891 45.22860717773438 L 65.63339996337891 43.16129684448242 L 67.70070648193359 43.16129684448242 L 67.70070648193359 45.22860717773438 Z M 7.235104084014893 45.22860717773438 L 5.167796611785889 45.22860717773438 L 5.167796611785889 43.16129684448242 L 7.235104084014893 43.16129684448242 L 7.235104084014893 45.22860717773438 Z M 82.68750762939453 44.45369720458984 C 79.26750183105469 44.45369720458984 76.48561096191406 41.6708984375 76.48561096191406 38.25089645385742 C 76.48561096191406 34.83000564575195 79.26750183105469 32.04809951782227 82.68750762939453 32.04809951782227 C 86.10661315917969 32.04809951782227 88.88850402832031 34.83000564575195 88.88850402832031 38.25089645385742 C 88.88850402832031 41.6708984375 86.10661315917969 44.45369720458984 82.68750762939453 44.45369720458984 Z M 82.68750762939453 34.14689636230469 C 80.42490386962891 34.14689636230469 78.58350372314453 35.98740386962891 78.58350372314453 38.25089645385742 C 78.58350372314453 40.51349639892578 80.42490386962891 42.35489654541016 82.68750762939453 42.35489654541016 C 84.95010375976563 42.35489654541016 86.79061126708984 40.51349639892578 86.79061126708984 38.25089645385742 C 86.79061126708984 35.98740386962891 84.95010375976563 34.14689636230469 82.68750762939453 34.14689636230469 Z M 94.83210754394531 42.64469909667969 L 92.76479339599609 42.64469909667969 L 92.76479339599609 40.57649612426758 L 94.83210754394531 40.57649612426758 L 94.83210754394531 42.64469909667969 Z M 67.70070648193359 41.35229873657227 L 65.63339996337891 41.35229873657227 L 65.63339996337891 39.28409957885742 L 67.70070648193359 39.28409957885742 L 67.70070648193359 41.35229873657227 Z M 7.235104084014893 41.35229873657227 L 5.167796611785889 41.35229873657227 L 5.167796611785889 39.28409957885742 L 7.235104084014893 39.28409957885742 L 7.235104084014893 41.35229873657227 Z M 94.83210754394531 38.25089645385742 L 92.76479339599609 38.25089645385742 L 92.76479339599609 36.18269729614258 L 94.83210754394531 36.18269729614258 L 94.83210754394531 38.25089645385742 Z M 67.70070648193359 37.21680450439453 L 65.63339996337891 37.21680450439453 L 65.63339996337891 35.14949798583984 L 67.70070648193359 35.14949798583984 L 67.70070648193359 37.21680450439453 Z M 63.30779647827148 37.21680450439453 L 61.24050521850586 37.21680450439453 L 61.24050521850586 35.14949798583984 L 63.30779647827148 35.14949798583984 L 63.30779647827148 37.21680450439453 Z M 59.17319488525391 37.21680450439453 L 57.10590362548828 37.21680450439453 L 57.10590362548828 35.14949798583984 L 59.17319488525391 35.14949798583984 L 59.17319488525391 37.21680450439453 Z M 54.78030395507813 37.21680450439453 L 52.71299743652344 37.21680450439453 L 52.71299743652344 35.14949798583984 L 54.78030395507813 35.14949798583984 L 54.78030395507813 37.21680450439453 Z M 50.38739776611328 37.21680450439453 L 48.32010269165039 37.21680450439453 L 48.32010269165039 35.14949798583984 L 50.38739776611328 35.14949798583984 L 50.38739776611328 37.21680450439453 Z M 45.99450302124023 37.21680450439453 L 43.92719650268555 37.21680450439453 L 43.92719650268555 35.14949798583984 L 45.99450302124023 35.14949798583984 L 45.99450302124023 37.21680450439453 Z M 41.86079788208008 37.21680450439453 L 39.79350280761719 37.21680450439453 L 39.79350280761719 35.14949798583984 L 41.86079788208008 35.14949798583984 L 41.86079788208008 37.21680450439453 Z M 37.46790313720703 37.21680450439453 L 35.40059661865234 37.21680450439453 L 35.40059661865234 35.14949798583984 L 37.46790313720703 35.14949798583984 L 37.46790313720703 37.21680450439453 Z M 33.07499694824219 37.21680450439453 L 31.00770378112793 37.21680450439453 L 31.00770378112793 35.14949798583984 L 33.07499694824219 35.14949798583984 L 33.07499694824219 37.21680450439453 Z M 28.94039726257324 37.21680450439453 L 26.87310409545898 37.21680450439453 L 26.87310409545898 35.14949798583984 L 28.94039726257324 35.14949798583984 L 28.94039726257324 37.21680450439453 Z M 24.54750442504883 37.21680450439453 L 22.48019599914551 37.21680450439453 L 22.48019599914551 35.14949798583984 L 24.54750442504883 35.14949798583984 L 24.54750442504883 37.21680450439453 Z M 20.15459632873535 37.21680450439453 L 18.08819580078125 37.21680450439453 L 18.08819580078125 35.14949798583984 L 20.15459632873535 35.14949798583984 L 20.15459632873535 37.21680450439453 Z M 15.76259613037109 37.21680450439453 L 13.69530391693115 37.21680450439453 L 13.69530391693115 35.14949798583984 L 15.76259613037109 35.14949798583984 L 15.76259613037109 37.21680450439453 Z M 11.62799644470215 37.21680450439453 L 9.560704231262207 37.21680450439453 L 9.560704231262207 35.14949798583984 L 11.62799644470215 35.14949798583984 L 11.62799644470215 37.21680450439453 Z M 7.235104084014893 37.21680450439453 L 5.167796611785889 37.21680450439453 L 5.167796611785889 35.14949798583984 L 7.235104084014893 35.14949798583984 L 7.235104084014893 37.21680450439453 Z M 94.83210754394531 33.85709762573242 L 92.76479339599609 33.85709762573242 L 92.76479339599609 31.7898063659668 L 94.83210754394531 31.7898063659668 L 94.83210754394531 33.85709762573242 Z M 94.83210754394531 29.72160530090332 L 92.76479339599609 29.72160530090332 L 92.76479339599609 27.654296875 L 94.83210754394531 27.654296875 L 94.83210754394531 29.72160530090332 Z M 43.92719650268555 28.4292049407959 L 41.86079788208008 28.4292049407959 L 41.86079788208008 26.87849807739258 L 43.92719650268555 26.87849807739258 L 43.92719650268555 28.4292049407959 Z M 94.83210754394531 25.32780456542969 L 92.76479339599609 25.32780456542969 L 92.76479339599609 23.260498046875 L 94.83210754394531 23.260498046875 L 94.83210754394531 25.32780456542969 Z M 90.69750213623047 25.32780456542969 L 88.63021087646484 25.32780456542969 L 88.63021087646484 23.260498046875 L 90.69750213623047 23.260498046875 L 90.69750213623047 25.32780456542969 Z M 86.30461120605469 25.32780456542969 L 84.2373046875 25.32780456542969 L 84.2373046875 23.260498046875 L 86.30461120605469 23.260498046875 L 86.30461120605469 25.32780456542969 Z M 82.17090606689453 25.32780456542969 L 80.10359954833984 25.32780456542969 L 80.10359954833984 23.260498046875 L 82.17090606689453 23.260498046875 L 82.17090606689453 25.32780456542969 Z M 78.03630065917969 25.32780456542969 L 75.968994140625 25.32780456542969 L 75.968994140625 23.260498046875 L 78.03630065917969 23.260498046875 L 78.03630065917969 25.32780456542969 Z M 73.64339447021484 25.32780456542969 L 71.57610321044922 25.32780456542969 L 71.57610321044922 23.260498046875 L 73.64339447021484 23.260498046875 L 73.64339447021484 25.32780456542969 Z M 69.50881195068359 25.32780456542969 L 67.44150543212891 25.32780456542969 L 67.44150543212891 23.260498046875 L 69.50881195068359 23.260498046875 L 69.50881195068359 25.32780456542969 Z M 65.11590576171875 25.32780456542969 L 63.04950332641602 25.32780456542969 L 63.04950332641602 23.260498046875 L 65.11590576171875 23.260498046875 L 65.11590576171875 25.32780456542969 Z M 60.98219680786133 25.32780456542969 L 58.9149055480957 25.32780456542969 L 58.9149055480957 23.260498046875 L 60.98219680786133 23.260498046875 L 60.98219680786133 25.32780456542969 Z M 56.84759521484375 25.32780456542969 L 54.78030395507813 25.32780456542969 L 54.78030395507813 23.260498046875 L 56.84759521484375 23.260498046875 L 56.84759521484375 25.32780456542969 Z M 52.45470428466797 25.32780456542969 L 50.38739776611328 25.32780456542969 L 50.38739776611328 23.260498046875 L 52.45470428466797 23.260498046875 L 52.45470428466797 25.32780456542969 Z M 48.32010269165039 25.32780456542969 L 46.2527961730957 25.32780456542969 L 46.2527961730957 23.260498046875 L 48.32010269165039 23.260498046875 L 48.32010269165039 25.32780456542969 Z M 43.92719650268555 25.32780456542969 L 41.86079788208008 25.32780456542969 L 41.86079788208008 23.260498046875 L 43.92719650268555 23.260498046875 L 43.92719650268555 25.32780456542969 Z M 12.14910411834717 19.1250057220459 L 10.07370471954346 19.1250057220459 L 10.07370471954346 17.06220626831055 L 8.00999641418457 17.06220626831055 L 8.00999641418457 14.9858980178833 L 10.07370471954346 14.9858980178833 L 10.07370471954346 12.92220592498779 L 12.14910411834717 12.92220592498779 L 12.14910411834717 14.9858980178833 L 14.21190452575684 14.9858980178833 L 14.21190452575684 17.06220626831055 L 12.14910411834717 17.06220626831055 L 12.14910411834717 19.1250057220459 Z M 75.45240020751953 13.95629787445068 L 73.38510131835938 13.95629787445068 L 73.38510131835938 11.88900566101074 L 75.45240020751953 11.88900566101074 L 75.45240020751953 13.95629787445068 Z M 71.31779479980469 13.95629787445068 L 69.25050354003906 13.95629787445068 L 69.25050354003906 11.88900566101074 L 71.31779479980469 11.88900566101074 L 71.31779479980469 13.95629787445068 Z M 66.92490386962891 13.95629787445068 L 64.85761260986328 13.95629787445068 L 64.85761260986328 11.88900566101074 L 66.92490386962891 11.88900566101074 L 66.92490386962891 13.95629787445068 Z M 62.79030609130859 13.95629787445068 L 60.72390365600586 13.95629787445068 L 60.72390365600586 11.88900566101074 L 62.79030609130859 11.88900566101074 L 62.79030609130859 13.95629787445068 Z M 58.65659713745117 13.95629787445068 L 56.58930587768555 13.95629787445068 L 56.58930587768555 11.88900566101074 L 58.65659713745117 11.88900566101074 L 58.65659713745117 13.95629787445068 Z M 36.69210433959961 13.18140506744385 L 34.62570571899414 13.18140506744385 L 34.62570571899414 11.113205909729 L 36.69210433959961 11.113205909729 L 36.69210433959961 13.18140506744385 Z M 32.55839538574219 13.18140506744385 L 30.49110412597656 13.18140506744385 L 30.49110412597656 11.113205909729 L 32.55839538574219 11.113205909729 L 32.55839538574219 13.18140506744385 Z M 28.42379570007324 13.18140506744385 L 26.35650444030762 13.18140506744385 L 26.35650444030762 11.113205909729 L 28.42379570007324 11.113205909729 L 28.42379570007324 13.18140506744385 Z M 90.44370269775391 7.75349760055542 L 88.36830139160156 7.75349760055542 L 88.36830139160156 5.689805507659912 L 86.30461120605469 5.689805507659912 L 86.30461120605469 3.613497734069824 L 88.36830139160156 3.613497734069824 L 88.36830139160156 1.550697803497314 L 90.44370269775391 1.550697803497314 L 90.44370269775391 3.613497734069824 L 92.50650787353516 3.613497734069824 L 92.50650787353516 5.689805507659912 L 90.44370269775391 5.689805507659912 L 90.44370269775391 7.75349760055542 Z M 14.7285041809082 3.618005514144897 L 12.6611967086792 3.618005514144897 L 12.6611967086792 1.550697803497314 L 14.7285041809082 1.550697803497314 L 14.7285041809082 3.618005514144897 Z M 10.59390449523926 3.618005514144897 L 8.527503967285156 3.618005514144897 L 8.527503967285156 1.550697803497314 L 10.59390449523926 1.550697803497314 L 10.59390449523926 3.618005514144897 Z M 6.201904296875 3.618005514144897 L 4.134596347808838 3.618005514144897 L 4.134596347808838 1.550697803497314 L 6.201904296875 1.550697803497314 L 6.201904296875 3.618005514144897 Z M 57.10590362548828 2.067297697067261 L 55.03859710693359 2.067297697067261 L 55.03859710693359 5.451378456200473e-06 L 57.10590362548828 5.451378456200473e-06 L 57.10590362548828 2.067297697067261 Z M 52.97130584716797 2.067297697067261 L 50.90399551391602 2.067297697067261 L 50.90399551391602 5.451378456200473e-06 L 52.97130584716797 5.451378456200473e-06 L 52.97130584716797 2.067297697067261 Z M 48.83759689331055 2.067297697067261 L 46.77030563354492 2.067297697067261 L 46.77030563354492 5.451378456200473e-06 L 48.83759689331055 5.451378456200473e-06 L 48.83759689331055 2.067297697067261 Z" stroke="none" fill="#ff9419"/>
  </g>
  <path id="Path_Copy_9" data-name="Path Copy 9" d="M4.1,8.208a4.1,4.1,0,1,1,4.1-4.1A4.108,4.108,0,0,1,4.1,8.208Z" transform="translate(15.793 49.137)" fill="#ff9419" opacity="0.45"/>
  <path id="Path_Copy_7" data-name="Path Copy 7" d="M4.1,0A4.1,4.1,0,1,1,0,4.1,4.108,4.108,0,0,1,4.1,0Z" transform="translate(32.331 49.137)" fill="#ff9419" opacity="0.45"/>
  <path id="Path_Copy_8" data-name="Path Copy 8" d="M4.1,0A4.1,4.1,0,1,1,0,4.1,4.108,4.108,0,0,1,4.1,0Z" transform="translate(48.868 49.137)" fill="#ff9419" opacity="0.45"/>
</svg>
