<svg xmlns="http://www.w3.org/2000/svg" width="100" height="100" viewBox="0 0 100 100">
  <g id="business-and-finance_copy" data-name="business-and-finance copy" transform="translate(0 0)">
    <circle id="Oval" cx="32.456" cy="32.456" r="32.456" transform="translate(33.083 2.256)" fill="#4a90e2" opacity="0.45"/>
    <g id="Combined_Shape" data-name="Combined Shape" transform="translate(0 0)" fill="none" stroke-miterlimit="10">
      <path d="M4.127,95.88a14.109,14.109,0,0,1-.007-19.934,155.968,155.968,0,0,1,12.4-10.115,236.021,236.021,0,0,1,19.44-13.394,34.307,34.307,0,0,1-4.213-10.6A34.694,34.694,0,0,1,34.3,19.7,34.534,34.534,0,1,1,89.9,58.948a34.549,34.549,0,0,1-42.335,5.114A235.845,235.845,0,0,1,34.172,83.491,155.848,155.848,0,0,1,24.058,95.88a14.112,14.112,0,0,1-19.931,0ZM17.851,67.425A153.865,153.865,0,0,0,5.593,77.419,12.014,12.014,0,0,0,22.585,94.406a153.6,153.6,0,0,0,9.995-12.253A232.866,232.866,0,0,0,45.821,62.919a34.293,34.293,0,0,1-8.727-8.735A233.164,233.164,0,0,0,17.851,67.425ZM42.535,11.594a32.438,32.438,0,1,0,22.946-9.51A32.22,32.22,0,0,0,42.535,11.594ZM95.064,95.9V93.82h1.841V95.9Zm-4.167,0V93.82h2.084V95.9Zm-4.168,0V93.82h2.084V95.9Zm-4.168,0V93.82h2.084V95.9ZM54.184,92.276V90.193h1.841v2.083Zm-4.168,0V90.193H52.1v2.083Zm-4.168,0V90.193h2.084v2.083Zm-4.167,0V90.193h2.083v2.083Zm-29.972-5.45L24.442,74.1l1.473,1.473L13.182,88.3Zm65.22-1.472V83.27h1.84v2.084Zm-4.168,0V83.27h2.084v2.084Zm-4.168,0V83.27h2.084v2.084Zm-4.167,0V83.27H66.51v2.084Zm1.055-12.125A38.5,38.5,0,0,0,86.34,67.144L87.465,68.9a40.577,40.577,0,0,1-21.983,6.414ZM27.819,70.721l3.839-3.839,1.473,1.473-3.839,3.839ZM89.1,65.2a39.462,39.462,0,0,0,3.751-3.3l1.473,1.473a41.516,41.516,0,0,1-3.951,3.479ZM22.288,46.232V44.149h1.84v2.083Zm-4.168,0V44.149H20.2v2.083Zm-4.168,0V44.149h2.084v2.083Zm-4.167,0V44.149h2.083v2.083Zm14.91-11.7a40.689,40.689,0,0,1,5.549-20.568l1.8,1.054a38.611,38.611,0,0,0-5.263,19.514Zm-9.581-5.656V26.795h1.841v2.084Zm-4.167,0V26.795h2.083v2.084Zm-4.168,0V26.795H8.863v2.084Zm-4.168,0V26.795H4.7v2.084Zm30.6-19.3A41.536,41.536,0,0,1,36.642,5.7l1.473,1.473a39.431,39.431,0,0,0-3.254,3.685Zm-12.707-2.1V5.4h1.841V7.479Zm-4.167,0V5.4h2.083V7.479Zm-4.168,0V5.4h2.083V7.479ZM8,7.479V5.4h2.084V7.479Z" stroke="none"/>
      <path d="M 14.09400367736816 98.99990081787109 C 17.59443473815918 98.99990081787109 20.88192749023438 97.640625 23.35078811645508 95.17259979248047 C 24.78838920593262 93.73499298095703 28.53840446472168 89.27745819091797 33.37482070922852 82.88758087158203 C 38.66909790039063 75.89487457275391 43.40478897094727 69.02576446533203 46.70955657958984 63.54559707641602 L 47.22821807861328 62.68552017211914 L 48.08603286743164 63.20793533325195 C 53.30369567871094 66.38552093505859 59.32478713989258 68.06510162353516 65.49840545654297 68.06510162353516 C 74.44181823730469 68.06510162353516 82.85706329345703 64.57616424560547 89.19398498535156 58.24099731445313 C 92.38948059082031 55.04638290405273 94.86389923095703 51.3172721862793 96.54847717285156 47.1573486328125 C 98.17512512207031 43.13924407958984 98.99989318847656 38.89241027832031 98.99989318847656 34.53479766845703 C 98.99989318847656 30.17659568786621 98.17512512207031 25.92945861816406 96.54853057861328 21.91145896911621 C 94.86389923095703 17.75142669677734 92.38948059082031 14.02231979370117 89.19398498535156 10.82770442962646 C 85.98914337158203 7.623719692230225 82.25582122802734 5.143704414367676 78.09775543212891 3.456550359725952 C 74.07991027832031 1.826504230499268 69.83481597900391 0.999996542930603 65.48040771484375 0.999996542930603 C 61.12718963623047 0.999996542930603 56.88269805908203 1.826504230499268 52.8648796081543 3.45653510093689 C 48.706787109375 5.143704414367676 44.97346496582031 7.623719692230225 41.76858901977539 10.82771968841553 C 39.04515838623047 13.55027389526367 36.83480453491211 16.67955017089844 35.19878768920898 20.12895011901855 C 33.61634063720703 23.46244239807129 32.60172653198242 27.02215003967285 32.18309783935547 30.70933532714844 C 31.76791191101074 34.36219787597656 31.94877243041992 38.03427505493164 32.72061920166016 41.62339782714844 C 33.50706481933594 45.27744293212891 34.88320541381836 48.74104309082031 36.81083297729492 51.91796493530273 L 37.33112716674805 52.77547454833984 L 36.47204971313477 53.29319763183594 C 30.99405097961426 56.59450531005859 24.12109565734863 61.3302116394043 17.11926460266113 66.62796783447266 C 10.71665000915527 71.47222900390625 6.258819580078125 75.22029113769531 4.826281070709229 76.65282440185547 C 2.357203960418701 79.12107086181641 0.9983270764350891 82.40896606445313 1.000003933906555 85.91082763671875 C 1.001680850982666 89.41288757324219 2.363142490386963 92.70211791992188 4.833357810974121 95.17234802246094 C 7.303265571594238 97.64057922363281 10.59209632873535 98.99990081787109 14.09400367736816 98.99990081787109 M 37.38118743896484 52.84341049194336 L 37.91530990600586 53.61385726928711 C 39.07789611816406 55.29079818725586 40.37429809570313 56.84754943847656 41.76849746704102 58.24087524414063 C 43.17229461669922 59.6438102722168 44.72771072387695 60.94149017333984 46.39151000976563 62.09784317016602 L 47.16054153442383 62.63232040405273 L 46.67757415771484 63.4347038269043 C 43.37994384765625 68.91326141357422 38.65626525878906 75.77538299560547 33.37672805786133 82.75695037841797 C 28.53226470947266 89.16341400146484 24.75289535522461 93.65322875976563 23.29157257080078 95.11365509033203 C 20.8377571105957 97.56647491455078 17.57068061828613 98.91730499267578 14.09220409393311 98.91730499267578 C 10.61274242401123 98.91730499267578 7.345619201660156 97.56642913818359 4.892696380615234 95.11351776123047 C 2.437665462493896 92.65848541259766 1.084557890892029 89.39060974121094 1.082603931427002 85.91158294677734 C 1.081619381904602 82.43136596679688 2.432234764099121 79.16410064697266 4.885496139526367 76.71179962158203 C 6.345065593719482 75.25224304199219 10.83614253997803 71.47398376464844 17.24763488769531 66.62753295898438 C 24.23351097106934 61.34747314453125 31.09846496582031 56.62382888793945 36.57791137695313 53.32675170898438 L 37.38118743896484 52.84341049194336 M 65.48118591308594 1.083504199981689 L 65.48124694824219 1.083504199981689 L 65.48129272460938 1.083504199981689 C 74.41097259521484 1.083504199981689 82.81124877929688 4.564965724945068 89.13477325439453 10.88664245605469 C 95.44255828857422 17.19350433349609 98.91640472412109 25.5919189453125 98.91640472412109 34.53479766845703 C 98.91640472412109 43.4776725769043 95.44255828857422 51.8760871887207 89.13471221923828 58.18301010131836 C 82.81182098388672 64.50404357910156 74.41154479980469 67.98519897460938 65.48118591308594 67.98519897460938 C 56.55010986328125 67.98427581787109 48.14986419677734 64.50312042236328 41.82783508300781 58.18294906616211 C 35.52005004882813 51.8760871887207 32.04620361328125 43.4776725769043 32.04620361328125 34.53479766845703 C 32.04620361328125 25.5919189453125 35.52005004882813 17.19350433349609 41.82783508300781 10.88664245605469 C 48.14951324462891 4.565904140472412 56.54975891113281 1.084427356719971 65.48118591308594 1.083504199981689 M 13.18218994140625 86.88420867919922 L 24.50119209289551 75.56840515136719 L 24.44212532043457 75.50933837890625 L 13.12350845336914 86.8255615234375 L 13.18218994140625 86.88420867919922 M 66.48129272460938 74.29878997802734 C 73.44672393798828 74.12718200683594 80.18140411376953 72.16320037841797 86.07640838623047 68.58495330810547 L 86.03147125244141 68.51493072509766 C 80.14887237548828 72.08484649658203 73.42940521240234 74.04444885253906 66.48129272460938 74.21615600585938 L 66.48129272460938 74.29878997802734 M 29.29238128662109 70.7802734375 L 31.7174015045166 68.35581970214844 L 31.65831756591797 68.29673004150391 L 29.23329734802246 70.72119140625 L 29.29238128662109 70.7802734375 M 90.54190826416016 65.43379974365234 C 91.35144805908203 64.77490997314453 92.13945770263672 64.0810546875 92.89790344238281 63.35931777954102 L 92.83884429931641 63.30026245117188 C 92.08209991455078 64.02050018310547 91.29698944091797 64.71211242675781 90.49125671386719 65.36825561523438 L 90.54190826416016 65.43379974365234 M 25.79106712341309 33.53390502929688 C 25.95014953613281 27.14980506896973 27.63124465942383 20.91500282287598 30.68462371826172 15.38351917266846 L 30.61248970031738 15.34122085571289 C 27.55194473266602 20.88412094116211 25.86676979064941 27.13439178466797 25.70752906799316 33.53390502929688 L 25.79106712341309 33.53390502929688 M 34.69385147094727 9.464365005493164 C 35.33220672607422 8.68409252166748 36.00641250610352 7.920829296112061 36.70943832397461 7.182553291320801 L 36.65021896362305 7.123334407806396 C 35.94766998291016 7.861081600189209 35.27133560180664 8.627005577087402 34.62808609008789 9.41334342956543 L 34.69385147094727 9.464365005493164 M 14.09400367736816 99.99990081787109 C 10.32480430603027 99.99990081787109 6.785096168518066 98.53650665283203 4.126496315002441 95.87970733642578 C 1.46700394153595 93.22019958496094 0.001803986495360732 89.68050384521484 3.986534920841223e-06 85.91130065917969 C -0.001796013442799449 82.14121246337891 1.461603999137878 78.60239410400391 4.119296073913574 75.94559478759766 C 5.577296257019043 74.48759460449219 10.07820415496826 70.70130157470703 16.51589584350586 65.83050537109375 C 23.54580307006836 60.51150512695313 30.4496955871582 55.75499725341797 35.95589447021484 52.43670272827148 C 33.96869659423828 49.16159820556641 32.55209732055664 45.59310531616211 31.74300384521484 41.83379745483398 C 30.94829559326172 38.13839721679688 30.76200485229492 34.35750579833984 31.18949699401855 30.59639739990234 C 31.62060356140137 26.7993049621582 32.66549682617188 23.13359642028809 34.29540252685547 19.70010375976563 C 35.98109817504883 16.14599609375 38.25809478759766 12.92310428619385 41.06160354614258 10.12050437927246 C 44.36100387573242 6.821996688842773 48.20580291748047 4.267796516418457 52.48889541625977 2.529904365539551 C 56.62620544433594 0.8513965606689453 60.99749755859375 -3.437218310864409e-06 65.48040771484375 -3.437218310864409e-06 C 69.96511077880859 -3.437218310864409e-06 74.33640289306641 0.8513965606689453 78.47369384765625 2.529904365539551 C 82.75680541992188 4.267796516418457 86.60160064697266 6.821996688842773 89.9010009765625 10.12050437927246 C 93.19229888916016 13.41090393066406 95.74020385742188 17.25119590759277 97.47540283203125 21.53610420227051 C 99.15029907226563 25.67339706420898 99.99989318847656 30.04739570617676 99.99989318847656 34.53479766845703 C 99.99989318847656 39.02219772338867 99.15029907226563 43.39530563354492 97.47540283203125 47.53259658813477 C 95.74020385742188 51.8175048828125 93.19229888916016 55.65779495239258 89.9010009765625 58.94819641113281 C 83.37509918212891 65.47230529785156 74.70900726318359 69.06510162353516 65.49840545654297 69.06510162353516 C 59.14169692993164 69.06510162353516 52.94069671630859 67.33530426025391 47.56589508056641 64.06201171875 C 44.24489593505859 69.56910705566406 39.4884033203125 76.46939849853516 34.17209625244141 83.4912109375 C 29.30220413208008 89.92530059814453 25.5150032043457 94.42259979248047 24.05789566040039 95.87970733642578 C 21.40020370483398 98.53650665283203 17.86140441894531 99.99990081787109 14.09400367736816 99.99990081787109 Z M 37.0934944152832 54.18359756469727 C 31.64309692382813 57.46319580078125 24.80940437316895 62.16570281982422 17.8506031036377 67.42530059814453 C 11.47949600219727 72.2412109375 7.029896259307861 75.98161315917969 5.592604160308838 77.41890716552734 C 3.328203916549683 79.68241119384766 2.081696271896362 82.69830322265625 2.082603931427002 85.91130065917969 C 2.084403991699219 89.1234130859375 3.333604097366333 92.14021301269531 5.599803924560547 94.40641021728516 C 7.864203929901123 96.67079925537109 10.88009643554688 97.91730499267578 14.09220409393311 97.91730499267578 C 17.30340385437012 97.91730499267578 20.31929588317871 96.67079925537109 22.58460426330566 94.40641021728516 C 24.02280426025391 92.96910095214844 27.76409721374512 88.52130126953125 32.57909774780273 82.15379333496094 C 37.83869552612305 75.19859313964844 42.54120254516602 68.36759948730469 45.82080459594727 62.91899490356445 C 44.10629653930664 61.72739791870117 42.50520324707031 60.39090347290039 41.06160354614258 58.94819641113281 C 39.62429809570313 57.51179504394531 38.28960418701172 55.90890502929688 37.0934944152832 54.18359756469727 Z M 65.48129272460938 2.083504199981689 C 56.81789779663086 2.084396600723267 48.66840362548828 5.461196422576904 42.53489685058594 11.5937967300415 C 36.41580581665039 17.71199607849121 33.04620361328125 25.85879707336426 33.04620361328125 34.53479766845703 C 33.04620361328125 43.20990371704102 36.41580581665039 51.35759735107422 42.53489685058594 57.47579574584961 C 48.66840362548828 63.60750579833984 56.8170051574707 66.98430633544922 65.48129272460938 66.98519897460938 C 74.14469909667969 66.98519897460938 82.29331207275391 63.6083984375 88.42771148681641 57.47579574584961 C 94.54680633544922 51.35759735107422 97.91640472412109 43.20990371704102 97.91640472412109 34.53479766845703 C 97.91640472412109 25.85879707336426 94.54680633544922 17.71199607849121 88.42771148681641 11.5937967300415 C 82.29331207275391 5.461196422576904 74.14469909667969 2.083504199981689 65.48129272460938 2.083504199981689 Z M 96.90569305419922 95.90310668945313 L 95.06429290771484 95.90310668945313 L 95.06429290771484 93.81961059570313 L 96.90569305419922 93.81961059570313 L 96.90569305419922 95.90310668945313 Z M 92.98080444335938 95.90310668945313 L 90.89729309082031 95.90310668945313 L 90.89729309082031 93.81961059570313 L 92.98080444335938 93.81961059570313 L 92.98080444335938 95.90310668945313 Z M 88.81291198730469 95.90310668945313 L 86.72940063476563 95.90310668945313 L 86.72940063476563 93.81961059570313 L 88.81291198730469 93.81961059570313 L 88.81291198730469 95.90310668945313 Z M 84.64591217041016 95.90310668945313 L 82.56149291992188 95.90310668945313 L 82.56149291992188 93.81961059570313 L 84.64591217041016 93.81961059570313 L 84.64591217041016 95.90310668945313 Z M 56.02500534057617 92.27610778808594 L 54.1836051940918 92.27610778808594 L 54.1836051940918 90.19261169433594 L 56.02500534057617 90.19261169433594 L 56.02500534057617 92.27610778808594 Z M 52.09920501708984 92.27610778808594 L 50.01569747924805 92.27610778808594 L 50.01569747924805 90.19261169433594 L 52.09920501708984 90.19261169433594 L 52.09920501708984 92.27610778808594 Z M 47.93220520019531 92.27610778808594 L 45.84780502319336 92.27610778808594 L 45.84780502319336 90.19261169433594 L 47.93220520019531 90.19261169433594 L 47.93220520019531 92.27610778808594 Z M 43.76429748535156 92.27610778808594 L 41.68080520629883 92.27610778808594 L 41.68080520629883 90.19261169433594 L 43.76429748535156 90.19261169433594 L 43.76429748535156 92.27610778808594 Z M 13.18229675292969 88.29810333251953 L 11.70900440216064 86.82570648193359 L 24.44220352172852 74.09519958496094 L 25.91549682617188 75.56850433349609 L 13.18229675292969 88.29810333251953 Z M 78.76980590820313 85.35330200195313 L 76.92929840087891 85.35330200195313 L 76.92929840087891 83.26979827880859 L 78.76980590820313 83.26979827880859 L 78.76980590820313 85.35330200195313 Z M 74.84489440917969 85.35330200195313 L 72.76140594482422 85.35330200195313 L 72.76140594482422 83.26979827880859 L 74.84489440917969 83.26979827880859 L 74.84489440917969 85.35330200195313 Z M 70.67789459228516 85.35330200195313 L 68.59349822998047 85.35330200195313 L 68.59349822998047 83.26979827880859 L 70.67789459228516 83.26979827880859 L 70.67789459228516 85.35330200195313 Z M 66.51000213623047 85.35330200195313 L 64.42649841308594 85.35330200195313 L 64.42649841308594 83.26979827880859 L 66.51000213623047 83.26979827880859 L 66.51000213623047 85.35330200195313 Z M 65.48129272460938 75.31110382080078 L 65.48129272460938 73.22850799560547 C 72.93060302734375 73.22850799560547 80.14231109619141 71.12430572509766 86.33969879150391 67.14359283447266 L 87.46469879150391 68.89681243896484 C 80.93160247802734 73.093505859375 73.3302001953125 75.31110382080078 65.48129272460938 75.31110382080078 Z M 29.29229545593262 72.19441223144531 L 27.81900405883789 70.72110748291016 L 31.65840339660645 66.88259887695313 L 33.13169479370117 68.35590362548828 L 29.29229545593262 72.19441223144531 Z M 90.36991119384766 66.84661102294922 L 89.09640502929688 65.19870758056641 C 90.40589904785156 64.18619537353516 91.66769409179688 63.07470321655273 92.84760284423828 61.89479827880859 L 94.32089996337891 63.36810302734375 C 93.07891082763672 64.610107421875 91.74960327148438 65.78010559082031 90.36991119384766 66.84661102294922 Z M 24.12809562683105 46.23210525512695 L 22.2876033782959 46.23210525512695 L 22.2876033782959 44.14859771728516 L 24.12809562683105 44.14859771728516 L 24.12809562683105 46.23210525512695 Z M 20.20320320129395 46.23210525512695 L 18.11969566345215 46.23210525512695 L 18.11969566345215 44.14859771728516 L 20.20320320129395 44.14859771728516 L 20.20320320129395 46.23210525512695 Z M 16.03620338439941 46.23210525512695 L 13.95180416107178 46.23210525512695 L 13.95180416107178 44.14859771728516 L 16.03620338439941 44.14859771728516 L 16.03620338439941 46.23210525512695 Z M 11.86829662322998 46.23210525512695 L 9.784804344177246 46.23210525512695 L 9.784804344177246 44.14859771728516 L 11.86829662322998 44.14859771728516 L 11.86829662322998 46.23210525512695 Z M 26.77860450744629 34.53390502929688 L 24.69509696960449 34.53390502929688 C 24.69509696960449 27.27179718017578 26.61389541625977 20.15910339355469 30.2444953918457 13.96619701385498 L 32.04180526733398 15.02010440826416 C 28.59929656982422 20.89350509643555 26.77860450744629 27.64170455932617 26.77860450744629 34.53390502929688 Z M 16.95600318908691 28.87830352783203 L 15.11460399627686 28.87830352783203 L 15.11460399627686 26.79479598999023 L 16.95600318908691 26.79479598999023 L 16.95600318908691 28.87830352783203 Z M 13.03109645843506 28.87830352783203 L 10.94760417938232 28.87830352783203 L 10.94760417938232 26.79479598999023 L 13.03109645843506 26.79479598999023 L 13.03109645843506 28.87830352783203 Z M 8.863204002380371 28.87830352783203 L 6.779696464538574 28.87830352783203 L 6.779696464538574 26.79479598999023 L 8.863204002380371 26.79479598999023 L 8.863204002380371 28.87830352783203 Z M 4.695296287536621 28.87830352783203 L 2.611804008483887 28.87830352783203 L 2.611804008483887 26.79479598999023 L 4.695296287536621 26.79479598999023 L 4.695296287536621 28.87830352783203 Z M 34.86060333251953 10.85939693450928 L 33.21449661254883 9.582304000854492 C 34.26480484008789 8.230504035949707 35.41769790649414 6.923704147338867 36.64169692993164 5.700596332550049 L 38.11500549316406 7.173904418945313 C 36.95309448242188 8.335796356201172 35.85689544677734 9.575996398925781 34.86060333251953 10.85939693450928 Z M 22.34880447387695 7.478996753692627 L 20.50740432739258 7.478996753692627 L 20.50740432739258 5.396396636962891 L 22.34880447387695 5.396396636962891 L 22.34880447387695 7.478996753692627 Z M 18.42389678955078 7.478996753692627 L 16.34040451049805 7.478996753692627 L 16.34040451049805 5.396396636962891 L 18.42389678955078 5.396396636962891 L 18.42389678955078 7.478996753692627 Z M 14.25600433349609 7.478996753692627 L 12.17249584197998 7.478996753692627 L 12.17249584197998 5.396396636962891 L 14.25600433349609 5.396396636962891 L 14.25600433349609 7.478996753692627 Z M 10.08900356292725 7.478996753692627 L 8.004604339599609 7.478996753692627 L 8.004604339599609 5.396396636962891 L 10.08900356292725 5.396396636962891 L 10.08900356292725 7.478996753692627 Z" stroke="none" fill="#4a90e2"/>
    </g>
  </g>
</svg>
