<svg xmlns="http://www.w3.org/2000/svg" width="399.636" height="399.642" viewBox="0 0 399.636 399.642">
  <g id="Group_27" data-name="Group 27" transform="translate(-0.003)">
    <g id="time-and-date">
      <path id="Path_Copy_14" data-name="Path Copy 14" d="M155.363,161.13a92.453,92.453,0,0,1-58.571,24.3V167.281H88.636v18.146a92.459,92.459,0,0,1-58.571-24.3l12.8-12.8L37.1,142.559l-12.8,12.8A92.452,92.452,0,0,1,0,96.793H18.148V88.636H0A92.453,92.453,0,0,1,24.3,30.065L37.1,42.871,42.871,37.1,30.065,24.3A92.455,92.455,0,0,1,88.636,0V18.146h8.156V0a92.453,92.453,0,0,1,58.572,24.3L142.558,37.1l5.767,5.767,12.806-12.806a92.455,92.455,0,0,1,24.3,58.572H167.281v8.156h18.148a92.453,92.453,0,0,1-24.3,58.571l-12.8-12.8-5.766,5.766Z" transform="translate(205.951 205.956)" fill="#ff9419" opacity="0.45"/>
      <g id="Combined_Shape" data-name="Combined Shape" transform="translate(0.003 0)" fill="none" stroke-miterlimit="10">
        <path d="M275.069,396.856a100.335,100.335,0,0,1-21.614-7.924,101.742,101.742,0,0,1-34.7-28.643H14.234A14.249,14.249,0,0,1,0,346.057V81.642A14.27,14.27,0,0,1,14.234,67.369H58.727V47H82.852a51.078,51.078,0,0,1,101.823,0H208.8V67.368h44.481a14.289,14.289,0,0,1,14.273,14.273v120.98a100.551,100.551,0,0,1,16.6-3.867v-21.28H270.208V153.005h56.927v24.468H313.19v21.282a100.023,100.023,0,0,1,34.1,11.457,101.552,101.552,0,0,1,45.7,52.431A101,101,0,0,1,275.069,396.856Zm27.671-5.473a92.814,92.814,0,0,0,58.571-24.3l-12.805-12.805,5.766-5.766,12.805,12.805a92.809,92.809,0,0,0,24.3-58.571H373.229v-8.156h18.148a92.81,92.81,0,0,0-24.3-58.572l-12.806,12.806-5.766-5.766,12.806-12.806a92.812,92.812,0,0,0-58.572-24.3V224.1h-8.156V205.956a92.81,92.81,0,0,0-58.572,24.3l12.806,12.806-5.766,5.766-12.806-12.806a92.808,92.808,0,0,0-24.3,58.572H224.1v8.156H205.948a92.806,92.806,0,0,0,24.3,58.571l12.8-12.805h0l5.765,5.766-12.805,12.805a92.823,92.823,0,0,0,58.571,24.3V373.237h8.156ZM8.156,81.641V346.057a6.084,6.084,0,0,0,6.078,6.077H213.062a100.334,100.334,0,0,1-15.374-53.464c0-3.155.161-6.429.478-9.73H102.2v-8.156h97.1A100.7,100.7,0,0,1,220.038,235.4,101.39,101.39,0,0,1,259.4,205.641v-124a6.124,6.124,0,0,0-6.116-6.116H208.8V93.813H58.727V75.524H14.234A6.1,6.1,0,0,0,8.156,81.641ZM305.034,197.918V177.474H292.311v20.443c2.412-.151,4.431-.221,6.351-.221S302.609,197.767,305.034,197.918Zm-26.671-28.6h40.615v-8.157H278.364ZM66.883,85.658H200.648V55.152H176.682V51.074a42.917,42.917,0,1,0-85.835,0v4.078H66.883ZM91.939,383.6v-8.155H196.475V383.6Zm-39.318,0v-8.155H78.935V383.6Zm256.18-68.04a20.4,20.4,0,0,1-4.791,2.115,18.992,18.992,0,0,1-5.349.771,19.778,19.778,0,0,1-4.068-39.13V245.943h8.157v33.382a19.861,19.861,0,0,1,14.5,12.578,19.633,19.633,0,0,1-2.451,18.134l25.478,27.414L334.3,343h0ZM287.038,298.67a11.625,11.625,0,1,0,11.624-11.624A11.637,11.637,0,0,0,287.038,298.67Zm-249.6,20.354v-39.5h39.5v39.5ZM166.6,317.761v-8.155h23.067v8.155Zm-64.4,0v-8.155h49.551v8.155ZM355.924,205.8l4.293-6.933a118.759,118.759,0,0,1,37.456,36.984l-6.881,4.381A110.546,110.546,0,0,0,355.924,205.8ZM37.438,240.085v-39.5h39.5v39.5Zm127.815-1.265v-8.155h17.38v8.155Zm-63.048,0v-8.155h51.241v8.155Zm0-28.82v-8.156H237.6V210Zm235.176-13.364,2.9-7.623c3.473,1.325,6.917,2.828,10.235,4.47l-3.62,7.308C343.815,199.264,340.613,197.866,337.382,196.636ZM37.438,161.144v-39.5h39.5v39.5ZM169.9,159.882v-8.156h20.777v8.156Zm-67.694,0v-8.156h55.625v8.156Zm176.675-19.966V105.364h8.155v34.553Zm-176.675-8.855v-8.155H237.6v8.155ZM278.881,95.252V81.544h8.155V95.252ZM119.519,75.524V67.369H169.9v8.156Zm-21.889,0V67.369h12.11v8.156Zm19.556-38.269a16.579,16.579,0,1,1,16.579,16.581A16.6,16.6,0,0,1,117.186,37.256Zm8.156,0a8.423,8.423,0,1,0,8.423-8.423A8.433,8.433,0,0,0,125.342,37.256Zm51.8-26.465,5.974-5.551a67.589,67.589,0,0,1,15.762,28.472l-7.88,2.1A59.419,59.419,0,0,0,177.145,10.79ZM68.647,33.711A67.4,67.4,0,0,1,87.183,2.421l5.643,5.891a59.261,59.261,0,0,0-16.3,27.5Z" stroke="none"/>
        <path d="M 298.6622619628906 398.6423034667969 C 353.7879638671875 398.6423034667969 398.6360168457031 353.7951049804688 398.6360168457031 298.67041015625 C 398.6360168457031 286.3873596191406 396.423583984375 274.3868408203125 392.0602722167969 263.0022583007813 C 387.8450622558594 252.0061492919922 381.7574157714844 241.9092559814453 373.9664306640625 232.9919891357422 C 366.2237548828125 224.1285247802734 357.0867004394531 216.7591552734375 346.8088989257813 211.0885772705078 C 336.2842102050781 205.2817840576172 324.9250183105469 201.4654693603516 313.0467834472656 199.7456817626953 L 312.1901245117188 199.6216278076172 L 312.1901245117188 198.7559967041016 L 312.1901245117188 177.4737243652344 L 312.1901245117188 176.4737243652344 L 313.1901245117188 176.4737243652344 L 326.1347045898438 176.4737243652344 L 326.1347045898438 154.0054168701172 L 271.2079162597656 154.0054168701172 L 271.2079162597656 176.4737243652344 L 284.1543273925781 176.4737243652344 L 285.1543273925781 176.4737243652344 L 285.1543273925781 177.4737243652344 L 285.1543273925781 198.7533111572266 L 285.1543273925781 199.6189880371094 L 284.2975463867188 199.7429962158203 C 278.7455444335938 200.5464630126953 273.2172241210938 201.8346252441406 267.8662109375 203.57177734375 L 266.5574340820313 203.9966278076172 L 266.5574340820313 202.6206207275391 L 266.5574340820313 81.64078521728516 C 266.5574340820313 74.32199096679688 260.6031188964844 68.36767578125 253.2843170166016 68.36767578125 L 208.8035888671875 68.36767578125 L 207.8035888671875 68.36767578125 L 207.8035888671875 67.36767578125 L 207.8035888671875 47.9962043762207 L 184.6754760742188 47.9962043762207 L 183.7516326904297 47.9962043762207 L 183.6785888671875 47.07520294189453 C 182.6878051757813 34.57646942138672 177.0504302978516 22.96588897705078 167.8050079345703 14.38225746154785 C 158.510009765625 5.752573013305664 146.4211120605469 0.9999938607215881 133.7652130126953 0.9999938607215881 C 121.107536315918 0.9999938607215881 109.017692565918 5.752573013305664 99.72269439697266 14.38225746154785 C 90.47727203369141 22.96588897705078 84.83990478515625 34.57646942138672 83.84911346435547 47.07520294189453 L 83.77606201171875 47.9962043762207 L 82.85221862792969 47.9962043762207 L 59.72679901123047 47.9962043762207 L 59.72679901123047 67.36862182617188 L 59.72679901123047 68.36862182617188 L 58.72679901123047 68.36862182617188 L 14.23353481292725 68.36862182617188 C 6.936534881591797 68.36862182617188 1.000008463859558 74.32294464111328 1.000008463859558 81.64173126220703 L 1.000008463859558 346.0571899414063 C 1.000008463859558 353.3536682128906 6.936534881591797 359.289794921875 14.23353481292725 359.289794921875 L 218.7531127929688 359.289794921875 L 219.2440643310547 359.289794921875 L 219.5442657470703 359.6781921386719 C 224.1138458251953 365.5894775390625 229.3489532470703 370.9984741210938 235.1042785644531 375.7550964355469 C 240.8952178955078 380.5425109863281 247.2203216552734 384.6754760742188 253.9040679931641 388.0390930175781 C 260.7113342285156 391.4658813476563 267.9108581542969 394.1051940917969 275.3027038574219 395.8836364746094 C 282.9125366210938 397.7141418457031 290.7718505859375 398.6423034667969 298.6622619628906 398.6423034667969 M 301.7402038574219 374.2364196777344 L 295.5844421386719 374.2370910644531 L 295.5844421386719 391.3829956054688 L 295.5844421386719 392.4274291992188 L 294.5409545898438 392.3820495605469 C 272.6043090820313 391.4277954101563 251.5789031982422 382.7059020996094 235.3376922607422 367.822998046875 L 234.5675811767578 367.1172485351563 L 235.3062133789063 366.3786315917969 L 247.4043731689453 354.2804565429688 L 243.0521850585938 349.9276123046875 L 230.9541168212891 362.0265197753906 L 230.2155914306641 362.7651062011719 L 229.5097961425781 361.9950866699219 C 214.6249084472656 345.7547912597656 205.9023284912109 324.729248046875 204.9488525390625 302.7917175292969 L 204.9034881591797 301.7483215332031 L 205.9479064941406 301.7483215332031 L 223.0954895019531 301.7483215332031 L 223.0954895019531 295.592529296875 L 205.9479064941406 295.592529296875 L 204.9034881591797 295.592529296875 L 204.9488525390625 294.5490417480469 C 205.9031677246094 272.6086120605469 214.6254272460938 251.5828399658203 229.5088958740234 235.3448333740234 L 230.2146911621094 234.5748291015625 L 230.9532165527344 235.3134155273438 L 243.0522155761719 247.4124145507813 L 247.4043273925781 243.060302734375 L 235.3053283691406 230.9613037109375 L 234.5667419433594 230.2227325439453 L 235.3367919921875 229.5169982910156 C 251.5774841308594 214.6326293945313 272.603271484375 205.9103698730469 294.541015625 204.9569396972656 L 295.5844421386719 204.9115753173828 L 295.5844421386719 205.9559936523438 L 295.5844421386719 223.1017761230469 L 301.7402038574219 223.1017761230469 L 301.7402038574219 205.9559936523438 L 301.7402038574219 204.9115753173828 L 302.78369140625 204.9569396972656 C 324.7231750488281 205.9112548828125 345.7490234375 214.6335144042969 361.9879150390625 229.5169982910156 L 362.7579040527344 230.2227325439453 L 362.0193176269531 230.9613037109375 L 349.9203186035156 243.060302734375 L 354.2724304199219 247.4124145507813 L 366.3714294433594 235.3134155273438 L 367.1100158691406 234.5748291015625 L 367.8157348632813 235.3448944091797 C 382.7001037597656 251.5855712890625 391.42236328125 272.6114196777344 392.375732421875 294.5491027832031 L 392.4211120605469 295.592529296875 L 391.3766784667969 295.592529296875 L 374.2291259765625 295.592529296875 L 374.2291259765625 301.7483215332031 L 391.3766784667969 301.7483215332031 L 392.4211120605469 301.7483215332031 L 392.375732421875 302.7917175292969 C 391.4224243164063 324.7282104492188 382.6998596191406 345.7536926269531 367.8147888183594 361.9950561523438 L 367.1090698242188 362.7651062011719 L 366.3704833984375 362.0265197753906 L 354.2724304199219 349.9284057617188 L 349.9203186035156 354.280517578125 L 362.0184326171875 366.3786315917969 L 362.7570495605469 367.1172485351563 L 361.9869689941406 367.822998046875 C 345.7459106445313 382.706787109375 324.7204284667969 391.4286804199219 302.7836303710938 392.3820495605469 L 301.7402038574219 392.4274291992188 L 301.7402038574219 391.3829956054688 L 301.7402038574219 374.2364196777344 M 14.23353481292725 74.5244140625 L 58.72679901123047 74.5244140625 L 59.72679901123047 74.5244140625 L 59.72679901123047 75.5244140625 L 59.72679901123047 92.81330871582031 L 207.8035888671875 92.81330871582031 L 207.8035888671875 75.5244140625 L 207.8035888671875 74.5244140625 L 208.8035888671875 74.5244140625 L 253.2852172851563 74.5244140625 C 257.209228515625 74.5244140625 260.4016418457031 77.71678161621094 260.4016418457031 81.64078521728516 L 260.4016418457031 205.6409912109375 L 260.4016418457031 206.3033599853516 L 259.791748046875 206.5617828369141 C 252.2059020996094 209.7755737304688 245.0160064697266 213.9389343261719 238.4218444824219 218.9362640380859 C 231.8880157470703 223.8885803222656 225.9649047851563 229.6401519775391 220.8171691894531 236.03125 C 215.6358489990234 242.4646301269531 211.2648468017578 249.5164642333984 207.8256378173828 256.9909973144531 C 204.3116455078125 264.6256103515625 201.7766418457031 272.6904296875 200.2910614013672 280.9614562988281 L 200.1431732177734 281.78466796875 L 199.3067932128906 281.78466796875 L 103.2040100097656 281.78466796875 L 103.2040100097656 287.9405212402344 L 198.1664886474609 287.9405212402344 L 199.2670593261719 287.9405212402344 L 199.1618957519531 289.0360412597656 C 198.8478546142578 292.3088989257813 198.6885833740234 295.5503540039063 198.6885833740234 298.67041015625 C 198.6885833740234 308.181640625 200.0340118408203 317.599365234375 202.6874847412109 326.6619262695313 C 205.2542724609375 335.4273681640625 209.0299530029297 343.8186645507813 213.9096984863281 351.6028442382813 L 214.8695373535156 353.1340026855469 L 213.0624237060547 353.1340026855469 L 14.23353481292725 353.1340026855469 C 10.33085060119629 353.1340026855469 7.155797958374023 349.9593505859375 7.155797958374023 346.0571899414063 L 7.155797958374023 81.64078521728516 C 7.155797958374023 77.71678161621094 10.33085060119629 74.5244140625 14.23353481292725 74.5244140625 M 298.6622619628906 198.6966705322266 C 296.7504272460938 198.6966705322266 294.7521667480469 198.7661590576172 292.3735961914063 198.9152526855469 L 291.3110046386719 198.9818420410156 L 291.3110046386719 197.9172058105469 L 291.3110046386719 177.4737243652344 L 291.3110046386719 176.4737243652344 L 292.3110046386719 176.4737243652344 L 305.0343322753906 176.4737243652344 L 306.0343322753906 176.4737243652344 L 306.0343322753906 177.4737243652344 L 306.0343322753906 197.9181060791016 L 306.0343322753906 198.9823608398438 L 304.9721069335938 198.9161529541016 C 302.5701599121094 198.7664184570313 300.5651550292969 198.6966705322266 298.6622619628906 198.6966705322266 M 277.3636779785156 160.1612091064453 L 278.3636779785156 160.1612091064453 L 318.9789123535156 160.1612091064453 L 319.9789123535156 160.1612091064453 L 319.9789123535156 161.1612091064453 L 319.9789123535156 169.3178863525391 L 319.9789123535156 170.3178863525391 L 318.9789123535156 170.3178863525391 L 313.1901245117188 170.3178863525391 L 284.1543273925781 170.3178863525391 L 278.3636779785156 170.3178863525391 L 277.3636779785156 170.3178863525391 L 277.3636779785156 169.3178863525391 L 277.3636779785156 161.1612091064453 L 277.3636779785156 160.1612091064453 M 65.88258361816406 54.15199279785156 L 66.88258361816406 54.15199279785156 L 89.84690093994141 54.15199279785156 L 89.84690093994141 51.07410049438477 C 89.84690093994141 26.85746765136719 109.548583984375 7.15583610534668 133.7652130126953 7.15583610534668 C 157.9808502197266 7.15583610534668 177.6816864013672 26.85746765136719 177.6816864013672 51.07410049438477 L 177.6816864013672 54.15199279785156 L 200.6477966308594 54.15199279785156 L 201.6477966308594 54.15199279785156 L 201.6477966308594 55.15199279785156 L 201.6477966308594 85.65751647949219 L 201.6477966308594 86.65751647949219 L 200.6477966308594 86.65751647949219 L 66.88258361816406 86.65751647949219 L 65.88258361816406 86.65751647949219 L 65.88258361816406 85.65751647949219 L 65.88258361816406 55.15199279785156 L 65.88258361816406 54.15199279785156 M 195.4753723144531 382.6025085449219 L 195.4753723144531 376.4476318359375 L 92.93948364257813 376.4476318359375 L 92.93948364257813 382.6025085449219 L 195.4753723144531 382.6025085449219 M 77.93447875976563 382.6025085449219 L 77.93447875976563 376.4476318359375 L 53.62121963500977 376.4476318359375 L 53.62121963500977 382.6025085449219 L 77.93447875976563 382.6025085449219 M 334.3550109863281 341.5893859863281 L 338.8641052246094 337.3995971679688 L 314.0668640136719 310.7182006835938 L 313.5139465332031 310.1233215332031 L 313.9827880859375 309.4601440429688 C 316.2467346191406 306.2577209472656 317.4434204101563 302.5267333984375 317.4434204101563 298.67041015625 C 317.4434204101563 296.463623046875 317.0623779296875 294.3023681640625 316.3108520507813 292.2467956542969 C 315.5841064453125 290.2598876953125 314.5310668945313 288.4197387695313 313.1806945800781 286.7773132324219 C 310.4697875976563 283.4782104492188 306.6924438476563 281.1790466308594 302.54443359375 280.3033752441406 L 301.7510070800781 280.1358947753906 L 301.7510070800781 279.324951171875 L 301.7510070800781 246.9429931640625 L 295.5943298339844 246.9429931640625 L 295.5943298339844 279.3186340332031 L 295.5943298339844 280.13037109375 L 294.7998962402344 280.2972717285156 C 290.6477355957031 281.1695861816406 286.8654174804688 283.467529296875 284.1499938964844 286.7676391601563 C 282.7980651855469 288.4118347167969 281.7437438964844 290.2535095214844 281.0164184570313 292.2415771484375 C 280.2637329101563 294.2986755371094 279.8821105957031 296.4616394042969 279.8821105957031 298.67041015625 C 279.8821105957031 309.02490234375 288.3068542480469 317.4488220214844 298.6622619628906 317.4488220214844 C 300.3720092773438 317.4488220214844 302.0768432617188 317.2029418945313 303.7301635742188 316.7177734375 C 305.300048828125 316.25830078125 306.8327331542969 315.5814819335938 308.2855224609375 314.7059936523438 L 308.9812622070313 314.2867736816406 L 309.5342102050781 314.8817749023438 L 334.3550109863281 341.5893859863281 M 298.6622619628906 286.0460510253906 C 305.6239013671875 286.0460510253906 311.28759765625 291.7093200683594 311.28759765625 298.67041015625 C 311.28759765625 305.6305236816406 305.6239013671875 311.2929992675781 298.6622619628906 311.2929992675781 C 291.701171875 311.2929992675781 286.0379028320313 305.6305236816406 286.0379028320313 298.67041015625 C 286.0379028320313 291.7093200683594 291.701171875 286.0460510253906 298.6622619628906 286.0460510253906 M 75.94190216064453 318.0248413085938 L 75.94190216064453 280.5210876464844 L 38.43821716308594 280.5210876464844 L 38.43821716308594 318.0248413085938 L 75.94190216064453 318.0248413085938 M 188.6686859130859 316.7611999511719 L 188.6686859130859 310.6063232421875 L 167.6016998291016 310.6063232421875 L 167.6016998291016 316.7611999511719 L 188.6686859130859 316.7611999511719 M 150.7571105957031 316.7611999511719 L 150.7571105957031 310.6063232421875 L 103.2057952880859 310.6063232421875 L 103.2057952880859 316.7611999511719 L 150.7571105957031 316.7611999511719 M 75.94190216064453 239.0848846435547 L 75.94190216064453 201.5820922851563 L 38.43821716308594 201.5820922851563 L 38.43821716308594 239.0848846435547 L 75.94190216064453 239.0848846435547 M 391.094482421875 238.8560943603516 L 396.2888488769531 235.5489807128906 C 387.116943359375 221.4160003662109 374.78759765625 209.2422485351563 360.5384216308594 200.2496337890625 L 357.2982177734375 205.4822082519531 C 370.7692260742188 213.9949951171875 382.4219970703125 225.5019836425781 391.094482421875 238.8560943603516 M 181.6334228515625 237.8195190429688 L 181.6334228515625 231.6646270751953 L 166.2535400390625 231.6646270751953 L 166.2535400390625 237.8195190429688 L 181.6334228515625 237.8195190429688 M 152.447265625 237.8195190429688 L 152.447265625 231.6646270751953 L 103.2057952880859 231.6646270751953 L 103.2057952880859 237.8195190429688 L 152.447265625 237.8195190429688 M 236.5973205566406 208.9997253417969 L 236.5973205566406 202.8438873291016 L 103.2057952880859 202.8438873291016 L 103.2057952880859 208.9997253417969 L 236.5973205566406 208.9997253417969 M 346.4452209472656 199.4552307128906 L 349.1774291992188 193.9392395019531 C 346.473876953125 192.6303558349609 343.6845397949219 191.4122314453125 340.8615417480469 190.3075561523438 L 338.6708374023438 196.0612182617188 C 341.3046264648438 197.0918731689453 343.9118957519531 198.2301177978516 346.4452209472656 199.4552307128906 M 75.94190216064453 160.1441040039063 L 75.94190216064453 122.642204284668 L 38.43821716308594 122.642204284668 L 38.43821716308594 160.1441040039063 L 75.94190216064453 160.1441040039063 M 189.6766967773438 158.8823089599609 L 189.6766967773438 152.7265167236328 L 170.8993225097656 152.7265167236328 L 170.8993225097656 158.8823089599609 L 189.6766967773438 158.8823089599609 M 156.8312225341797 158.8823089599609 L 156.8312225341797 152.7265167236328 L 103.2057952880859 152.7265167236328 L 103.2057952880859 158.8823089599609 L 156.8312225341797 158.8823089599609 M 286.0361022949219 138.9167327880859 L 286.0361022949219 106.3638916015625 L 279.8812255859375 106.3638916015625 L 279.8812255859375 138.9167327880859 L 286.0361022949219 138.9167327880859 M 236.5973205566406 130.0616302490234 L 236.5973205566406 123.9066772460938 L 103.2057952880859 123.9066772460938 L 103.2057952880859 130.0616302490234 L 236.5973205566406 130.0616302490234 M 286.0361022949219 94.25241851806641 L 286.0361022949219 82.54362487792969 L 279.8812255859375 82.54362487792969 L 279.8812255859375 94.25241851806641 L 286.0361022949219 94.25241851806641 M 168.8993225097656 74.5244140625 L 168.8993225097656 68.36862182617188 L 120.5191116333008 68.36862182617188 L 120.5191116333008 74.5244140625 L 168.8993225097656 74.5244140625 M 108.7405853271484 74.5244140625 L 108.7405853271484 68.36862182617188 L 98.63021850585938 68.36862182617188 L 98.63021850585938 74.5244140625 L 108.7405853271484 74.5244140625 M 133.7652130126953 52.83620452880859 C 142.3554229736328 52.83620452880859 149.3441162109375 45.84672927856445 149.3441162109375 37.25551986694336 C 149.3441162109375 28.66530990600586 142.3554229736328 21.67662620544434 133.7652130126953 21.67662620544434 C 125.1750106811523 21.67662620544434 118.1863250732422 28.66530990600586 118.1863250732422 37.25551986694336 C 118.1863250732422 45.84672927856445 125.1750106811523 52.83620452880859 133.7652130126953 52.83620452880859 M 133.7652130126953 27.8324146270752 C 138.9611206054688 27.8324146270752 143.1883239746094 32.05962371826172 143.1883239746094 37.25551986694336 C 143.1883239746094 42.45241546630859 138.9611206054688 46.68041610717773 133.7652130126953 46.68041610717773 C 128.5693206787109 46.68041610717773 124.3421173095703 42.45241546630859 124.3421173095703 37.25551986694336 C 124.3421173095703 32.05962371826172 128.5693206787109 27.8324146270752 133.7652130126953 27.8324146270752 M 75.82756805419922 34.59194564819336 C 78.65518951416016 24.66495704650879 84.02339935302734 15.60738468170166 91.41780853271484 8.287117958068848 L 87.15777587890625 3.840224266052246 C 78.94871520996094 11.94097518920898 72.99677276611328 21.98712348937988 69.87783050537109 33.00479125976563 L 75.82756805419922 34.59194564819336 M 191.7008972167969 34.59193420410156 L 197.649658203125 33.00486373901367 C 194.8943634033203 23.28217506408691 189.8718109130859 14.21080303192139 183.0620269775391 6.65725040435791 L 178.5523681640625 10.8476448059082 C 184.6805419921875 17.66715812683105 189.2053833007813 25.83831405639648 191.7008972167969 34.59193420410156 M 298.6622619628906 399.6423034667969 C 290.69189453125 399.6423034667969 282.75390625 398.7045288085938 275.0687866210938 396.8558959960938 C 267.6024169921875 395.0595092773438 260.3304443359375 392.3937377929688 253.4544219970703 388.9323120117188 C 246.7034759521484 385.5348510742188 240.3153228759766 381.3606262207031 234.4671173095703 376.5258483886719 C 228.6531066894531 371.7207336425781 223.3664855957031 366.2577209472656 218.7531127929688 360.289794921875 L 14.23353481292725 360.289794921875 C 6.385482311248779 360.289794921875 8.422851351497229e-06 353.9052124023438 8.422851351497229e-06 346.0571899414063 L 8.422851351497229e-06 81.64173126220703 C 8.422851351497229e-06 73.77120208740234 6.385482311248779 67.36862182617188 14.23353481292725 67.36862182617188 L 58.72679901123047 67.36862182617188 L 58.72679901123047 46.9962043762207 L 82.85221862792969 46.9962043762207 C 83.86289978027344 34.24678421020508 89.61300659179688 22.40373039245605 99.04232788085938 13.64941501617432 C 108.5229034423828 4.847414970397949 120.8546905517578 -6.161338205856737e-06 133.7652130126953 -6.161338205856737e-06 C 146.6748046875 -6.161338205856737e-06 159.0047912597656 4.847414970397949 168.4853820800781 13.64941501617432 C 177.9146881103516 22.40373039245605 183.664794921875 34.24678421020508 184.6754760742188 46.9962043762207 L 208.8035888671875 46.9962043762207 L 208.8035888671875 67.36767578125 L 253.2843170166016 67.36767578125 C 261.15478515625 67.36767578125 267.5574340820313 73.77030944824219 267.5574340820313 81.64078521728516 L 267.5574340820313 202.6206207275391 C 272.9664306640625 200.8646850585938 278.5509033203125 199.564208984375 284.1543273925781 198.7533111572266 L 284.1543273925781 177.4737243652344 L 270.2079162597656 177.4737243652344 L 270.2079162597656 153.0054168701172 L 327.1347045898438 153.0054168701172 L 327.1347045898438 177.4737243652344 L 313.1901245117188 177.4737243652344 L 313.1901245117188 198.7559967041016 C 325.1871032714844 200.4929962158203 336.6612243652344 204.3476715087891 347.2920227050781 210.2129974365234 C 357.6698913574219 215.9388427734375 366.8984680175781 223.3808898925781 374.7195434570313 232.3341064453125 C 382.589111328125 241.34130859375 388.7369995117188 251.5391998291016 392.9940185546875 262.6443176269531 C 397.4013366699219 274.1436157226563 399.6360168457031 286.2639465332031 399.6360168457031 298.67041015625 C 399.6360168457031 354.34619140625 354.3390197753906 399.6423034667969 298.6622619628906 399.6423034667969 Z M 302.7402038574219 373.2362976074219 L 302.7402038574219 391.3829956054688 C 324.44189453125 390.4398498535156 345.24365234375 381.8106384277344 361.3113098144531 367.0857238769531 L 348.506103515625 354.280517578125 L 354.2724304199219 348.5141906738281 L 367.0775756835938 361.3194274902344 C 381.8034362792969 345.2517395019531 390.4335327148438 324.4508972167969 391.3766784667969 302.7483215332031 L 373.2291259765625 302.7483215332031 L 373.2291259765625 294.592529296875 L 391.3766784667969 294.592529296875 C 390.4335327148438 272.889892578125 381.8043212890625 252.0882110595703 367.0785217285156 236.0205230712891 L 354.2724304199219 248.8266296386719 L 348.506103515625 243.060302734375 L 361.3122253417969 230.2542114257813 C 345.246337890625 215.5293121337891 324.4446411132813 206.9001007080078 302.7402038574219 205.9559936523438 L 302.7402038574219 224.1017761230469 L 294.5844421386719 224.1017761230469 L 294.5844421386719 205.9559936523438 C 272.8818054199219 206.8992004394531 252.0801086425781 215.5284118652344 236.0124359130859 230.2542114257813 L 248.8185272216797 243.060302734375 L 243.0522155761719 248.8266296386719 L 230.2461090087891 236.0205230712891 C 215.5212249755859 252.0855255126953 206.8920135498047 272.88720703125 205.9479064941406 294.592529296875 L 224.0954895019531 294.592529296875 L 224.0954895019531 302.7483215332031 L 205.9479064941406 302.7483215332031 C 206.89111328125 324.4499816894531 215.5203247070313 345.2517395019531 230.2470092773438 361.3194274902344 L 243.0513305664063 348.5141906738281 L 243.0522155761719 348.5133056640625 L 243.0531158447266 348.5141906738281 L 248.8185272216797 354.280517578125 L 236.0133209228516 367.0857238769531 C 252.0801086425781 381.808837890625 272.8808898925781 390.4389038085938 294.5844421386719 391.3829956054688 L 294.5844421386719 373.2372131347656 L 302.7402038574219 373.2362976074219 Z M 14.23353481292725 75.5244140625 C 10.88190269470215 75.5244140625 8.155797958374023 78.26851654052734 8.155797958374023 81.64078521728516 L 8.155797958374023 346.0571899414063 C 8.155797958374023 349.4078979492188 10.88190269470215 352.1340026855469 14.23353481292725 352.1340026855469 L 213.0624237060547 352.1340026855469 C 208.1331176757813 344.2707214355469 204.3197937011719 335.7945251464844 201.7277984619141 326.9429931640625 C 199.0475921630859 317.7890930175781 197.6885833740234 308.2770080566406 197.6885833740234 298.67041015625 C 197.6885833740234 295.5149841308594 197.8496856689453 292.2416687011719 198.1664886474609 288.9405212402344 L 102.2040100097656 288.9405212402344 L 102.2040100097656 280.78466796875 L 199.3067932128906 280.78466796875 C 200.8071136474609 272.4317932128906 203.3675842285156 264.2850036621094 206.9172210693359 256.5728759765625 C 210.3912200927734 249.0228424072266 214.8056945800781 241.9010925292969 220.038330078125 235.4039916992188 C 225.2366943359375 228.9501037597656 231.2181091308594 223.1415252685547 237.8177947998047 218.1393127441406 C 244.4777984619141 213.0921020507813 251.739013671875 208.8873138427734 259.4016418457031 205.6409912109375 L 259.4016418457031 81.64078521728516 C 259.4016418457031 78.26851654052734 256.657470703125 75.5244140625 253.2852172851563 75.5244140625 L 208.8035888671875 75.5244140625 L 208.8035888671875 93.81330871582031 L 58.72679901123047 93.81330871582031 L 58.72679901123047 75.5244140625 L 14.23353481292725 75.5244140625 Z M 298.6622619628906 197.6966705322266 C 300.5847473144531 197.6966705322266 302.6087951660156 197.7668914794922 305.0343322753906 197.9181060791016 L 305.0343322753906 177.4737243652344 L 292.3110046386719 177.4737243652344 L 292.3110046386719 197.9172058105469 C 294.7230224609375 197.7659912109375 296.74169921875 197.6966705322266 298.6622619628906 197.6966705322266 Z M 278.3636779785156 161.1612091064453 L 278.3636779785156 169.3178863525391 L 284.1543273925781 169.3178863525391 L 313.1901245117188 169.3178863525391 L 318.9789123535156 169.3178863525391 L 318.9789123535156 161.1612091064453 L 278.3636779785156 161.1612091064453 Z M 66.88258361816406 55.15199279785156 L 66.88258361816406 85.65751647949219 L 200.6477966308594 85.65751647949219 L 200.6477966308594 55.15199279785156 L 176.6816864013672 55.15199279785156 L 176.6816864013672 51.07410049438477 C 176.6816864013672 27.40862464904785 157.4297943115234 8.15583610534668 133.7652130126953 8.15583610534668 C 110.0996932983398 8.15583610534668 90.84690093994141 27.40862464904785 90.84690093994141 51.07410049438477 L 90.84690093994141 55.15199279785156 L 66.88258361816406 55.15199279785156 Z M 196.4753723144531 383.6025085449219 L 91.93948364257813 383.6025085449219 L 91.93948364257813 375.4476318359375 L 196.4753723144531 375.4476318359375 L 196.4753723144531 383.6025085449219 Z M 78.93447875976563 383.6025085449219 L 52.62121963500977 383.6025085449219 L 52.62121963500977 375.4476318359375 L 78.93447875976563 375.4476318359375 L 78.93447875976563 383.6025085449219 Z M 334.30322265625 343.0026245117188 L 308.8016967773438 315.5625305175781 C 307.2753295898438 316.4822998046875 305.6625366210938 317.1942138671875 304.0110168457031 317.6775207519531 C 302.2658996582031 318.1896362304688 300.4659118652344 318.4488220214844 298.6622619628906 318.4488220214844 C 287.7552185058594 318.4488220214844 278.8821105957031 309.5757446289063 278.8821105957031 298.67041015625 C 278.8821105957031 296.3439025878906 279.2843627929688 294.0650939941406 280.0773315429688 291.89794921875 C 280.8432312011719 289.8045349121094 281.9537963867188 287.8641052246094 283.3775939941406 286.1325073242188 C 286.2369079589844 282.6575622558594 290.2203369140625 280.2375183105469 294.5943298339844 279.3186340332031 L 294.5943298339844 245.9429931640625 L 302.7510070800781 245.9429931640625 L 302.7510070800781 279.324951171875 C 307.1205444335938 280.2474060058594 311.099365234375 282.6693115234375 313.9533386230469 286.1424255371094 C 315.376220703125 287.8731079101563 316.4850158691406 289.8117370605469 317.25 291.9033203125 C 318.0420227050781 294.0696105957031 318.4434204101563 296.3457336425781 318.4434204101563 298.67041015625 C 318.4434204101563 302.7347717285156 317.1834411621094 306.6651000976563 314.79931640625 310.0374145507813 L 340.2774353027344 337.451416015625 L 334.3041076660156 343.0017395019531 L 334.30322265625 343.0026245117188 Z M 298.6622619628906 287.0460510253906 C 292.2524719238281 287.0460510253906 287.0379028320313 292.2606201171875 287.0379028320313 298.67041015625 C 287.0379028320313 305.0783996582031 292.2524719238281 310.2929992675781 298.6622619628906 310.2929992675781 C 305.0721130371094 310.2929992675781 310.28759765625 305.0783996582031 310.28759765625 298.67041015625 C 310.28759765625 292.2606201171875 305.0721130371094 287.0460510253906 298.6622619628906 287.0460510253906 Z M 76.94190216064453 319.0248413085938 L 37.43821716308594 319.0248413085938 L 37.43821716308594 279.5210876464844 L 76.94190216064453 279.5210876464844 L 76.94190216064453 319.0248413085938 Z M 189.6686859130859 317.7611999511719 L 166.6016998291016 317.7611999511719 L 166.6016998291016 309.6063232421875 L 189.6686859130859 309.6063232421875 L 189.6686859130859 317.7611999511719 Z M 151.7571105957031 317.7611999511719 L 102.2057952880859 317.7611999511719 L 102.2057952880859 309.6063232421875 L 151.7571105957031 309.6063232421875 L 151.7571105957031 317.7611999511719 Z M 390.791748046875 240.2343139648438 C 381.9645385742188 226.363525390625 369.9053649902344 214.4583129882813 355.9238891601563 205.8020935058594 L 360.2168884277344 198.8694152832031 C 375.2361145019531 208.16552734375 388.1889038085938 220.9554138183594 397.6731262207031 235.8531036376953 L 390.791748046875 240.2343139648438 Z M 76.94190216064453 240.0848846435547 L 37.43821716308594 240.0848846435547 L 37.43821716308594 200.5820922851563 L 76.94190216064453 200.5820922851563 L 76.94190216064453 240.0848846435547 Z M 182.6334228515625 238.8195190429688 L 165.2535400390625 238.8195190429688 L 165.2535400390625 230.6646270751953 L 182.6334228515625 230.6646270751953 L 182.6334228515625 238.8195190429688 Z M 153.447265625 238.8195190429688 L 102.2057952880859 238.8195190429688 L 102.2057952880859 230.6646270751953 L 153.447265625 230.6646270751953 L 153.447265625 238.8195190429688 Z M 237.5973205566406 209.9997253417969 L 102.2057952880859 209.9997253417969 L 102.2057952880859 201.8438873291016 L 237.5973205566406 201.8438873291016 L 237.5973205566406 209.9997253417969 Z M 346.8995971679688 200.7908935546875 C 343.8153381347656 199.2636260986328 340.6131286621094 197.8658905029297 337.3821105957031 196.6356201171875 L 340.2845764160156 189.0126190185547 C 343.7577514648438 190.3374176025391 347.2019958496094 191.8404083251953 350.5194396972656 193.4828948974609 L 346.8995971679688 200.7908935546875 Z M 76.94190216064453 161.1441040039063 L 37.43821716308594 161.1441040039063 L 37.43821716308594 121.642204284668 L 76.94190216064453 121.642204284668 L 76.94190216064453 161.1441040039063 Z M 190.6766967773438 159.8823089599609 L 169.8993225097656 159.8823089599609 L 169.8993225097656 151.7265167236328 L 190.6766967773438 151.7265167236328 L 190.6766967773438 159.8823089599609 Z M 157.8312225341797 159.8823089599609 L 102.2057952880859 159.8823089599609 L 102.2057952880859 151.7265167236328 L 157.8312225341797 151.7265167236328 L 157.8312225341797 159.8823089599609 Z M 287.0361022949219 139.9167327880859 L 278.8812255859375 139.9167327880859 L 278.8812255859375 105.3638916015625 L 287.0361022949219 105.3638916015625 L 287.0361022949219 139.9167327880859 Z M 237.5973205566406 131.0616302490234 L 102.2057952880859 131.0616302490234 L 102.2057952880859 122.9066772460938 L 237.5973205566406 122.9066772460938 L 237.5973205566406 131.0616302490234 Z M 287.0361022949219 95.25241851806641 L 278.8812255859375 95.25241851806641 L 278.8812255859375 81.54362487792969 L 287.0361022949219 81.54362487792969 L 287.0361022949219 95.25241851806641 Z M 169.8993225097656 75.5244140625 L 119.5191116333008 75.5244140625 L 119.5191116333008 67.36862182617188 L 169.8993225097656 67.36862182617188 L 169.8993225097656 75.5244140625 Z M 109.7405853271484 75.5244140625 L 97.63021850585938 75.5244140625 L 97.63021850585938 67.36862182617188 L 109.7405853271484 67.36862182617188 L 109.7405853271484 75.5244140625 Z M 133.7652130126953 53.83620452880859 C 124.6239013671875 53.83620452880859 117.1863250732422 46.39773178100586 117.1863250732422 37.25551986694336 C 117.1863250732422 28.11330986022949 124.6239013671875 20.67662620544434 133.7652130126953 20.67662620544434 C 142.9065399169922 20.67662620544434 150.3441162109375 28.11330986022949 150.3441162109375 37.25551986694336 C 150.3441162109375 46.39773178100586 142.9065399169922 53.83620452880859 133.7652130126953 53.83620452880859 Z M 133.7652130126953 28.8324146270752 C 129.1203308105469 28.8324146270752 125.3421173095703 32.61062622070313 125.3421173095703 37.25551986694336 C 125.3421173095703 41.90130996704102 129.1203308105469 45.68041610717773 133.7652130126953 45.68041610717773 C 138.4101104736328 45.68041610717773 142.1883239746094 41.90130996704102 142.1883239746094 37.25551986694336 C 142.1883239746094 32.61062622070313 138.4101104736328 28.8324146270752 133.7652130126953 28.8324146270752 Z M 191.0006866455078 35.8137321472168 C 188.5247955322266 26.53288841247559 183.7323303222656 17.87941551208496 177.1452178955078 10.79009914398193 L 183.1193695068359 5.238888740539551 C 190.6119079589844 13.30109882354736 196.0623168945313 23.14620399475098 198.8811187744141 33.71131134033203 L 191.0006866455078 35.8137321472168 Z M 76.52790069580078 35.8137321472168 L 68.64658355712891 33.71131134033203 C 71.81822204589844 21.81962585449219 78.22801208496094 10.99888896942139 87.18300628662109 2.420993804931641 L 92.82601165771484 8.311520576477051 C 84.95101165771484 15.85620403289795 79.31521606445313 25.36562538146973 76.52790069580078 35.8137321472168 Z" stroke="none" fill="#ff9419"/>
      </g>
    </g>
  </g>
</svg>
