<svg xmlns="http://www.w3.org/2000/svg" width="100.001" height="99.527" viewBox="0 0 100.001 99.527">
  <g id="key-to-success" opacity="0.7">
    <path id="Path_Copy_6" data-name="Path Copy 6" d="M31.964,7.843A17.42,17.42,0,1,1,.122,19.457,12.992,12.992,0,0,0,3.8,20.694a5.962,5.962,0,1,0-.374-2.218A12.364,12.364,0,0,1,0,17,17.416,17.416,0,0,1,31.964,7.843Z" transform="translate(15.185 62.628)" fill="#ff9419" opacity="0.24"/>
    <g id="Combined_Shape" data-name="Combined Shape" fill="none" stroke-miterlimit="10">
      <path d="M32.605,99.527a19.435,19.435,0,0,1-19.482-18.76A27.331,27.331,0,0,1,4.3,69.622a29.8,29.8,0,0,1-2.65-11.159c-.115-4.206.914-7.706,2.978-10.12A13.616,13.616,0,0,1,0,38.141V37.1H10.328v1.04a3.287,3.287,0,1,0,3.287-3.283A13.594,13.594,0,0,1,8.451,8.681V0H18.779V8.681a13.612,13.612,0,0,1,8.452,12.578V22.3H16.9v-1.04a3.287,3.287,0,1,0-3.287,3.284,13.594,13.594,0,0,1,7.278,25.084,26.713,26.713,0,0,1,4.213,4.938A31.807,31.807,0,0,1,28.4,61,19.521,19.521,0,0,1,45.941,65.83L71.865,48.8l-5.789-8.788,6.717-4.415,5.789,8.788,4.127-2.713L73.245,27.3l6.717-4.414,9.465,14.369,3.532-2.32a4.542,4.542,0,1,1,5,7.585L50.924,73.426a19.616,19.616,0,0,1,.2,12.658A19.472,19.472,0,0,1,32.606,99.527ZM18.033,89.6a17.43,17.43,0,1,0-2.849-9.98,12.393,12.393,0,0,0,3.427,1.48,5.6,5.6,0,0,1,2.139-4.3,5.74,5.74,0,0,1,8.031.86,5.725,5.725,0,0,1-.859,8.083,5.731,5.731,0,0,1-8.938-2.42,13.027,13.027,0,0,1-3.678-1.237A17.174,17.174,0,0,0,18.033,89.6Zm6.214-6.9a8.609,8.609,0,0,1-2.835.722,3.614,3.614,0,0,0,2.927,1.493,3.663,3.663,0,0,0,3.571-2.911,3.614,3.614,0,0,0-.206-2.135A8.821,8.821,0,0,1,24.247,82.706Zm-3.489-2.17a3.6,3.6,0,0,0-.067.828,6.62,6.62,0,0,0,2.7-.555A6.868,6.868,0,0,0,26.3,78.226a3.615,3.615,0,0,0-5.54,2.31ZM3.742,58.7A28.378,28.378,0,0,0,6.2,68.767a25.983,25.983,0,0,0,6.989,9.445,19.4,19.4,0,0,1,13.2-16.643,26.988,26.988,0,0,0-7.484-10.9l-.056.026c-.024.012-.049.023-.073.033V59.51H8.451V50.731a13.654,13.654,0,0,1-2.145-1.124C4.467,51.686,3.58,54.829,3.742,58.7ZM94.1,36.672c-5.506,3.633-20.4,13.413-33.534,22.04l-.112.073-13.05,8.572a19.655,19.655,0,0,1,1.482,1.969,19.177,19.177,0,0,1,1.21,2.15l46.71-30.695A2.542,2.542,0,0,0,97.871,39.2a2.373,2.373,0,0,0-.359-1.822,2.466,2.466,0,0,0-3.409-.7ZM8.536,47.923a3.99,3.99,0,0,0-.373.2c-.049.028-.1.057-.145.084a13.024,13.024,0,0,0,2.281.985c.1.034.18.061.235.082v8.154H16.7V49.276l.7-.244a11.521,11.521,0,0,0-3.778-22.409,5.364,5.364,0,1,1,5.27-6.405H25.1a11.512,11.512,0,0,0-8.291-10.039,1.192,1.192,0,0,1-.113-.04V2.081H10.535V10.14a1.11,1.11,0,0,1-.118.044c-1.955.689-8.333,3.525-8.333,11.074A11.539,11.539,0,0,0,13.615,32.777a5.364,5.364,0,1,1-5.269,6.4H2.131a11.468,11.468,0,0,0,4.037,7.751,8.365,8.365,0,0,1,1.512-.906,8.668,8.668,0,0,1,3.582-.755,10.226,10.226,0,0,1,1.52.117l-.312,2.057a8.093,8.093,0,0,0-1.2-.093A6.6,6.6,0,0,0,8.536,47.923ZM68.963,40.6l4.643,7.049,3.236-2.126L72.2,38.475Zm7.169-12.707L84.45,40.525,87.685,38.4,79.367,25.768ZM48.815,93.929a20.967,20.967,0,0,0,2.255-3.171l1.774,1.02a23.014,23.014,0,0,1-2.475,3.482Zm-9.241-3.48a12.673,12.673,0,0,0,5.571-12.63l2.057-.331A14.744,14.744,0,0,1,40.719,92.18Zm13.27-3.22a21.244,21.244,0,0,0,.8-2.812q.107-.5.188-1.005l2.092.323q-.089.549-.205,1.1a23.512,23.512,0,0,1-.877,3.081Zm.711-11.681,2.076-.429a21.927,21.927,0,0,1,.53,4.211l-2.123.054A19.963,19.963,0,0,0,53.555,75.548Zm4.747-3.9,5.226-3.439,1.146,1.738-5.226,3.439Zm8.017-5.271L83.672,54.957l1.146,1.737L67.464,68.111Zm-14.757-9.63,8.623-5.962,1.185,1.71-8.622,5.962Zm10.376-7.219,3.185-2.2,1.185,1.71-3.185,2.2Zm-35.87-2.017c.2-.27.39-.545.572-.826l1.8,1.2q-.309.474-.644.929Zm1.659-2.422a15.3,15.3,0,0,0,.725-1.722l1.881.66a17.373,17.373,0,0,1-.821,1.948ZM28.91,41.5a15.531,15.531,0,0,0,.294-1.927l2.075.185a17.754,17.754,0,0,1-.334,2.183Zm.237-5.854,2.152-.338a18.69,18.69,0,0,1,.218,2.3l-2.176.072A16.7,16.7,0,0,0,29.147,35.646Zm-.948-3.8,1.877-.8a17.558,17.558,0,0,1,.73,2.041l-1.964.565A15.342,15.342,0,0,0,28.2,31.847Zm32.7-3.885V25.829h2.844v2.133Zm-8.294,0V25.829h4.265v2.133Zm-8.294,0V25.829h4.266v2.133ZM93.365,12.8V10.663h2.843V12.8Zm-8.531,0V10.663H89.1V12.8Zm-8.293,0V10.663h4.265V12.8ZM53.08,7.582V5.45h2.844V7.582Zm-8.293,0V5.45h4.265V7.582Zm-8.293,0V5.45h4.265V7.582Z" stroke="none"/>
      <path d="M 32.60610580444336 98.52651214599609 C 36.2191047668457 98.52651214599609 39.73207473754883 97.47320556640625 42.76507186889648 95.48052978515625 C 44.54628753662109 94.30986785888672 46.09347152709961 92.86072540283203 47.36385726928711 91.17312622070313 C 48.59067153930664 89.54446411132813 49.53410339355469 87.72814178466797 50.16793441772461 85.77454376220703 C 51.43537902832031 81.86885070800781 51.36979675292969 77.60389709472656 49.98327255249023 73.76532745361328 L 49.7152099609375 73.02322387695313 L 50.37462615966797 72.58989715576172 L 97.40607452392578 41.68380737304688 C 98.19532012939453 41.16535949707031 98.73509216308594 40.36934280395508 98.92610168457031 39.44171524047852 C 99.11763000488281 38.51496124267578 98.93705749511719 37.57009887695313 98.41798400878906 36.78166580200195 C 97.75919342041016 35.78226852416992 96.64949035644531 35.18560791015625 95.44950103759766 35.18560791015625 C 94.76033782958984 35.18560791015625 94.08892059326172 35.38763809204102 93.50737762451172 35.77017593383789 L 89.97578430175781 38.09037399291992 L 89.14102935791016 38.63879013061523 L 88.59159851074219 37.8046989440918 L 79.67581176757813 24.26954078674316 L 74.63044738769531 27.5855712890625 L 83.54421234130859 41.11812973022461 L 84.09485626220703 41.95409774780273 L 83.25831604003906 42.50388336181641 L 79.13092041015625 45.21648406982422 L 78.29613494873047 45.76511383056641 L 77.74661254882813 44.93091201782227 L 72.50734710693359 36.97752380371094 L 67.46197509765625 40.29354858398438 L 72.70010375976563 48.24518966674805 L 73.2508544921875 49.08125305175781 L 72.41414642333984 49.63103866577148 L 46.48964309692383 66.66534423828125 L 45.83058166503906 67.098388671875 L 45.25580978393555 66.55843353271484 C 41.8161506652832 63.32708358764648 37.31701278686523 61.5474967956543 32.58719635009766 61.5474967956543 C 31.25221252441406 61.5474967956543 29.91670417785645 61.69226837158203 28.61779594421387 61.97777557373047 L 27.77327346801758 62.16342163085938 L 27.4676570892334 61.35454559326172 C 26.62576484680176 59.12639236450195 25.5516414642334 57.02885055541992 24.27508926391602 55.12009811401367 C 23.06418037414551 53.30894470214844 21.70025825500488 51.70952987670898 20.2211971282959 50.36628341674805 L 19.25058174133301 49.48477554321289 L 20.35739707946777 48.78185272216797 C 22.13642692565918 47.65202331542969 23.61876487731934 46.08198928833008 24.64401245117188 44.24172973632813 C 25.68242645263672 42.37674331665039 26.23130416870117 40.26717376708984 26.23130416870117 38.14109802246094 C 26.23130416870117 31.19399070739746 20.57173538208008 25.54209899902344 13.61519622802734 25.54209899902344 C 11.25144195556641 25.54209899902344 9.328395843505859 23.62026786804199 9.328395843505859 21.25800704956055 C 9.328395843505859 18.89623641967773 11.25144195556641 16.97480583190918 13.61519622802734 16.97480583190918 C 15.97895050048828 16.97480583190918 17.90199661254883 18.89623641967773 17.90199661254883 21.25800704956055 L 17.90199661254883 21.29840660095215 L 26.23130416870117 21.29840660095215 L 26.23130416870117 21.25800704956055 C 26.23130416870117 18.74874496459961 25.48836517333984 16.32036018371582 24.08261108398438 14.23508262634277 C 22.68185806274414 12.15562152862549 20.71694946289063 10.5548677444458 18.40032005310059 9.605867385864258 L 17.77939605712891 9.351498603820801 L 17.77939605712891 8.680498123168945 L 17.77939605712891 1.000006079673767 L 9.450996398925781 1.000006079673767 L 9.450996398925781 8.680498123168945 L 9.450996398925781 9.352175712585449 L 8.829211235046387 9.606221199035645 C 6.512734889984131 10.55266761779785 4.54811954498291 12.1517448425293 3.147842407226563 14.23049831390381 C 1.742703914642334 16.31692886352539 0.9999962449073792 18.74700546264648 0.9999962449073792 21.25800704956055 C 0.9999962449073792 28.20560646057129 6.659150123596191 33.8578987121582 13.61519622802734 33.8578987121582 C 15.97895050048828 33.8578987121582 17.90199661254883 35.77932739257813 17.90199661254883 38.14109802246094 C 17.90199661254883 40.50286865234375 15.97895050048828 42.42429733276367 13.61519622802734 42.42429733276367 C 11.25144195556641 42.42429733276367 9.328395843505859 40.50286865234375 9.328395843505859 38.14109802246094 L 9.328395843505859 38.1006965637207 L 0.9999962449073792 38.1006965637207 L 0.9999962449073792 38.14109802246094 C 0.9999962449073792 41.74520492553711 2.562980890274048 45.19008255004883 5.288180828094482 47.59246826171875 L 5.976505756378174 48.19925308227539 L 6.060627937316895 48.15251922607422 L 5.521042346954346 47.69508361816406 C 2.991334676742554 45.55049896240234 1.433780789375305 42.55909729003906 1.135288596153259 39.27193069458008 L 1.036273121833801 38.18149948120117 L 2.131196260452271 38.18149948120117 L 8.345704078674316 38.18149948120117 L 9.167181015014648 38.18149948120117 L 9.32667350769043 38.98734283447266 C 9.730103492736816 41.02566909790039 11.53368854522705 42.50510025024414 13.61519622802734 42.50510025024414 C 16.02499580383301 42.50510025024414 17.98550415039063 40.54742050170898 17.98550415039063 38.14109802246094 C 17.98550415039063 35.73477554321289 16.02499580383301 33.777099609375 13.61519622802734 33.777099609375 C 6.705196380615234 33.777099609375 1.08350396156311 28.16105270385742 1.08350396156311 21.25800704956055 C 1.08350396156311 13.66866588592529 6.977890491485596 10.47501277923584 9.534503936767578 9.448816299438477 L 9.534503936767578 2.080806016921997 L 9.534503936767578 1.080806136131287 L 10.53450393676758 1.080806136131287 L 16.69590377807617 1.080806136131287 L 17.69590377807617 1.080806136131287 L 17.69590377807617 2.080806016921997 L 17.69590377807617 9.429266929626465 C 20.39849853515625 10.43587303161621 25.47004508972168 13.22990989685059 26.09601211547852 20.12722206115723 L 26.19496536254883 21.21760559082031 L 25.1001033782959 21.21760559082031 L 18.88470458984375 21.21760559082031 L 18.0632266998291 21.21760559082031 L 17.90373420715332 20.4117603302002 C 17.50030326843262 18.37343597412109 15.6967191696167 16.89400672912598 13.61519622802734 16.89400672912598 C 11.20541191101074 16.89400672912598 9.244903564453125 18.85168266296387 9.244903564453125 21.25800704956055 C 9.244903564453125 23.66482162475586 11.20541191101074 25.62289810180664 13.61519622802734 25.62289810180664 C 20.52568817138672 25.62289810180664 26.14779663085938 31.23854446411133 26.14779663085938 38.14109802246094 C 26.14779663085938 43.45816040039063 22.76230430603027 48.2142219543457 17.72384262084961 49.97583770751953 L 17.69679641723633 49.98530578613281 L 17.69679641723633 57.42900466918945 L 17.69679641723633 58.42900466918945 L 16.69679641723633 58.42900466918945 L 10.53450393676758 58.42900466918945 L 9.534503936767578 58.42900466918945 L 9.534503936767578 57.42900466918945 L 9.534503936767578 49.98680877685547 C 9.02829647064209 49.80507278442383 8.326267242431641 49.52422714233398 7.532457828521729 49.08216094970703 L 6.026873588562012 48.24371719360352 L 5.387104034423828 48.9922981262207 C 3.487119197845459 51.21541976928711 2.540088653564453 54.48091506958008 2.648411512374878 58.43560791015625 C 2.744780778884888 61.94011306762695 3.654427051544189 65.76676177978516 5.209750175476074 69.21057891845703 C 7.256473064422607 73.74203491210938 10.27008819580078 77.55497741699219 13.69544219970703 79.947021484375 L 13.91742706298828 80.10204315185547 L 12.55342674255371 78.98564910888672 C 9.608073234558105 76.57497406005859 7.095057964324951 73.183837890625 5.285980701446533 69.17869567871094 C 3.811919212341309 65.91378784179688 2.885073184967041 62.10873031616211 2.743073225021362 58.73894500732422 C 2.57005786895752 54.60758972167969 3.543226957321167 51.2207145690918 5.557396411895752 48.94441986083984 L 6.123950004577637 48.30414581298828 L 6.844503879547119 48.7642822265625 C 7.501888751983643 49.18406677246094 8.170304298400879 49.53465270996094 8.831165313720703 49.80628204345703 L 9.450996398925781 50.06105041503906 L 9.450996398925781 50.73120498657227 L 9.450996398925781 58.50980758666992 L 17.77939605712891 58.50980758666992 L 17.77939605712891 50.73120498657227 L 17.77939605712891 50.05892944335938 L 18.39687919616699 49.80724334716797 C 18.40408515930176 49.80392456054688 18.41159057617188 49.80021667480469 18.42222785949707 49.79509735107422 L 18.43178176879883 49.79051208496094 C 18.4593505859375 49.7772216796875 18.48654937744141 49.76448440551758 18.5146427154541 49.75246810913086 L 19.08025741577148 49.51039123535156 L 19.55131912231445 49.9061279296875 C 22.81704330444336 52.64955902099609 25.57779693603516 56.66411209106445 27.32502746582031 61.21025085449219 L 27.69973564147949 62.18520736694336 L 26.70941162109375 62.51715850830078 C 25.17482757568359 63.03152847290039 23.73073387145996 63.72985076904297 22.41741180419922 64.59257507324219 C 17.71933555603027 67.68022155761719 14.71775054931641 72.67875671386719 14.18230438232422 78.30652618408203 L 14.00560855865479 80.16362762451172 L 14.10431957244873 80.23255920410156 L 14.10906410217285 80.36438751220703 L 15.75571918487549 81.19072723388672 C 16.90114974975586 81.76554107666016 18.04324150085449 82.1507568359375 19.1502571105957 82.33567047119141 L 19.71302795410156 82.42966461181641 L 19.76406860351563 82.56193542480469 L 21.32893562316895 82.43165588378906 C 22.22021102905273 82.35745239257813 23.06359672546387 82.14320373535156 23.83645820617676 81.79451751708984 C 25.02321243286133 81.26036071777344 26.05473518371582 80.41361999511719 26.90236473083496 79.27780914306641 L 27.80903434753418 78.06290435791016 C 27.76873207092285 78.019287109375 27.72773170471191 77.97655487060547 27.68600463867188 77.93465423583984 L 27.13378143310547 78.77525329589844 C 26.2379035949707 80.13900756835938 25.11618041992188 81.13023376464844 23.80184173583984 81.72051239013672 C 22.87199592590332 82.140625 21.8275032043457 82.35728454589844 20.69736480712891 82.36448669433594 L 19.71419715881348 82.37074279785156 L 19.6912727355957 81.38782501220703 C 19.68222618103027 81.00040435791016 19.71091842651367 80.65467071533203 19.77836608886719 80.33376312255859 C 20.22319602966309 78.18527984619141 22.13730430603027 76.62590026855469 24.32970428466797 76.62590026855469 C 25.20001220703125 76.62590026855469 26.06787300109863 76.88855743408203 26.83944320678711 77.38546752929688 L 27.67484474182129 77.92348480224609 C 26.79132652282715 77.04209899902344 25.59719085693359 76.54509735107422 24.32970428466797 76.54509735107422 C 23.26301193237305 76.54509735107422 22.21336555480957 76.91305541992188 21.37388801574707 77.58135986328125 C 20.50321197509766 78.27404022216797 19.92324256896973 79.22019195556641 19.69668769836426 80.31729888916016 C 19.64838027954102 80.55149841308594 19.62131881713867 80.81095886230469 19.61153411865234 81.13380432128906 L 19.57396507263184 82.37258911132813 L 18.37111854553223 82.07405090332031 C 17.15728759765625 81.77278900146484 15.91028881072998 81.23551177978516 14.66473484039307 80.47714233398438 L 14.17045783996582 80.17619323730469 L 14.18511962890625 79.59768676757813 C 14.33831977844238 73.55072784423828 17.4334888458252 67.96656036376953 22.46493530273438 64.65985107421875 C 25.48455047607422 62.67658996582031 28.98227310180664 61.62829971313477 32.57999801635742 61.62829971313477 C 38.80682754516602 61.62829971313477 44.56548690795898 64.72836303710938 47.98430252075195 69.92082214355469 C 50.68439483642578 74.01997375488281 51.62419509887695 78.93122100830078 50.63055038452148 83.75008392333984 C 49.63493347167969 88.57300567626953 46.82477951049805 92.71533203125 42.71768951416016 95.41405487060547 C 39.69893646240234 97.39737701416016 36.20147323608398 98.44570159912109 32.60339736938477 98.44570159912109 C 26.3775806427002 98.44570159912109 20.61862754821777 95.34569549560547 17.19799613952637 90.15288543701172 C 15.62108898162842 87.75704956054688 14.65076541900635 85.08152770996094 14.31396579742432 82.20062255859375 L 14.11341571807861 80.48526763916016 L 14.12225818634033 80.73092651367188 C 14.24433422088623 84.12281799316406 15.28367328643799 87.39615631103516 17.12782669067383 90.19696044921875 C 20.56254959106445 95.41178894042969 26.34853553771973 98.52565002441406 32.60519790649414 98.52651214599609 L 32.60610580444336 98.52651214599609 M 95.45039367675781 35.26910018920898 C 96.62250518798828 35.26910018920898 97.70553588867188 35.85117721557617 98.34730529785156 36.82585144042969 C 98.99899291992188 37.8148078918457 98.98073577880859 38.771728515625 98.85079956054688 39.39960479736328 C 98.66606140136719 40.29574584960938 98.10821533203125 41.12482070922852 97.35858154296875 41.61740493774414 L 50.64856719970703 72.31191253662109 L 49.70127487182617 72.93440246582031 L 49.20173645019531 71.91690063476563 C 48.80602645874023 71.11088562011719 48.44170379638672 70.46265411376953 48.05451965332031 69.87593078613281 C 47.62765884399414 69.22748565673828 47.15441131591797 68.59879302978516 46.64793395996094 68.00733184814453 L 45.9092903137207 67.14474487304688 L 46.85839462280273 66.52114105224609 C 50.53224182128906 64.10731506347656 55.07910537719727 61.1210823059082 59.9106559753418 57.94806671142578 L 60.02017974853516 57.87652969360352 C 71.76165771484375 50.16577529907227 87.84217834472656 39.60552978515625 93.55403900146484 35.83651351928711 C 94.11910247802734 35.46531295776367 94.77485656738281 35.26910018920898 95.45039367675781 35.26910018920898 M 72.48359680175781 37.09060668945313 L 73.03313446044922 37.92496109008789 L 77.67623901367188 44.97465133666992 L 78.22690582275391 45.81072998046875 L 77.39021301269531 46.36045074462891 L 74.15470123291016 48.48625183105469 L 73.31993103027344 49.03471374511719 L 72.77048492431641 48.20059204101563 L 68.12739562988281 41.15179061889648 L 67.57676696777344 40.31586837768555 L 68.41322326660156 39.76605224609375 L 71.64871978759766 37.63935852050781 L 72.48359680175781 37.09060668945313 M 79.65210723876953 24.38348388671875 L 80.20164489746094 25.21786689758301 L 88.52034759521484 37.84846878051758 L 89.07089233398438 38.68437576293945 L 88.23448944091797 39.23414611816406 L 84.99897766113281 41.3608512878418 L 84.16408538818359 41.90962219238281 L 83.61456298828125 41.07523727416992 L 75.29587554931641 28.44463729858398 L 74.74533843994141 27.60874366760254 L 75.58173370361328 27.0589599609375 L 78.81723022460938 24.93225288391113 L 79.65210723876953 24.38348388671875 M 50.24453735351563 93.83735656738281 C 50.67451477050781 93.28956604003906 51.07914733886719 92.72041320800781 51.45553207397461 92.13399505615234 L 51.41563415527344 92.11106109619141 C 51.04092025756836 92.69486999511719 50.63799285888672 93.26169586181641 50.209716796875 93.80751800537109 L 50.24453735351563 93.83735656738281 M 40.98401260375977 90.76830291748047 C 44.72922897338867 87.91175079345703 46.7556037902832 83.32295989990234 46.33982849121094 78.63992309570313 L 46.25668334960938 78.65331268310547 C 46.66732406616211 83.30561065673828 44.65703582763672 87.8636474609375 40.94203186035156 90.704833984375 L 40.98401260375977 90.76830291748047 M 54.21472930908203 86.64214324951172 C 54.42045593261719 85.98055267333984 54.59658813476563 85.30594635009766 54.74059677124023 84.62726593017578 C 54.74489593505859 84.60691833496094 54.74916839599609 84.58656311035156 54.75341415405273 84.56617736816406 L 54.63792037963867 84.54834747314453 C 54.63261413574219 84.57379150390625 54.62728118896484 84.59913635253906 54.62191772460938 84.6243896484375 C 54.48052978515625 85.29241180419922 54.30809020996094 85.95539855957031 54.10692977905273 86.60516357421875 L 54.21472930908203 86.64214324951172 M 24.33870315551758 86.00300598144531 C 25.40848922729492 86.00300598144531 26.45958137512207 85.63313293457031 27.29928779602051 84.96076202392578 C 28.15504264831543 84.27720642089844 28.7486572265625 83.30711364746094 28.97093391418457 82.22837829589844 C 29.2288875579834 80.98173522949219 28.97657585144043 79.70435333251953 28.27755355834961 78.65736389160156 L 28.62613487243652 79.48953247070313 C 28.98785781860352 80.35303497314453 29.07884216308594 81.29477691650391 28.88913536071777 82.21343994140625 C 28.44430351257324 84.36191558837891 26.53058052062988 85.92129516601563 24.33870315551758 85.92129516601563 C 22.85942649841309 85.92129516601563 21.49953460693359 85.22924041748047 20.60770416259766 84.02257537841797 L 20.0461483001709 83.26276397705078 C 20.8242359161377 84.93791961669922 22.47559547424316 86.00300598144531 24.33870315551758 86.00300598144531 M 54.98551940917969 78.35917663574219 L 55.10896682739258 78.35604095458984 C 55.05635452270508 77.66780853271484 54.96957015991211 76.98131561279297 54.84919357299805 76.30126190185547 L 54.73027038574219 76.32585144042969 C 54.84840774536133 76.99910736083984 54.93369293212891 77.67845153808594 54.98551940917969 78.35917663574219 M 59.73177337646484 71.99871063232422 L 63.28732299804688 69.65917205810547 L 63.24242401123047 69.591064453125 L 59.68688201904297 71.93061828613281 L 59.73177337646484 71.99871063232422 M 67.74881744384766 66.72670745849609 L 83.43180084228516 56.4085693359375 L 83.38729858398438 56.34109115600586 L 67.70431518554688 66.65922546386719 L 67.74881744384766 66.72670745849609 M 52.99974822998047 57.06371307373047 L 59.97699737548828 52.23936080932617 L 59.93103790283203 52.17305374145508 L 52.95352554321289 56.99707794189453 L 52.99974822998047 57.06371307373047 M 63.37524032592773 49.84461975097656 L 64.91529083251953 48.77976608276367 L 64.86935424804688 48.7134895324707 L 63.32930374145508 49.77834320068359 L 63.37524032592773 49.84461975097656 M 6.612453937530518 47.84595108032227 L 7.533349990844727 47.33434295654297 C 7.556934833526611 47.32123565673828 7.580226898193359 47.30751419067383 7.603611469268799 47.29383850097656 C 7.62302303314209 47.28247833251953 7.642463207244873 47.2711067199707 7.662028789520264 47.25985717773438 L 7.669180870056152 47.25566864013672 C 7.801257610321045 47.17817687988281 7.950980663299561 47.0903434753418 8.12565803527832 47.01149749755859 C 9.095842361450195 46.57429885864258 10.15278053283691 46.35260772705078 11.26710414886475 46.35260772705078 C 11.38467121124268 46.35260772705078 11.5032958984375 46.35510635375977 11.62277126312256 46.36008453369141 L 11.63506412506104 46.27909469604492 C 11.5095043182373 46.27363967895508 11.38493824005127 46.27089691162109 11.26170349121094 46.27089691162109 C 10.14088821411133 46.27089691162109 9.07378101348877 46.49533081054688 8.090688705444336 46.93765258789063 C 7.670165538787842 47.12722015380859 7.246734619140625 47.38199234008789 6.7580885887146 47.73942184448242 L 6.612453937530518 47.84595108032227 M 62.74430465698242 26.96209907531738 L 62.74430465698242 26.82909774780273 L 61.90030288696289 26.82909774780273 L 61.90030288696289 26.96209907531738 L 62.74430465698242 26.96209907531738 M 55.87190246582031 26.96209907531738 L 55.87190246582031 26.82909774780273 L 53.60679626464844 26.82909774780273 L 53.60679626464844 26.96209907531738 L 55.87190246582031 26.96209907531738 M 47.57839584350586 26.96209907531738 L 47.57839584350586 26.82909774780273 L 45.31239700317383 26.82909774780273 L 45.31239700317383 26.96209907531738 L 47.57839584350586 26.96209907531738 M 95.20819854736328 11.7962064743042 L 95.20819854736328 11.66320610046387 L 94.36510467529297 11.66320610046387 L 94.36510467529297 11.7962064743042 L 95.20819854736328 11.7962064743042 M 88.09910583496094 11.7962064743042 L 88.09910583496094 11.66320610046387 L 85.83399963378906 11.66320610046387 L 85.83399963378906 11.7962064743042 L 88.09910583496094 11.7962064743042 M 79.80561065673828 11.7962064743042 L 79.80561065673828 11.66320610046387 L 77.54050445556641 11.66320610046387 L 77.54050445556641 11.7962064743042 L 79.80561065673828 11.7962064743042 M 54.9241943359375 6.582498550415039 L 54.9241943359375 6.450406074523926 L 54.08019638061523 6.450406074523926 L 54.08019638061523 6.582498550415039 L 54.9241943359375 6.582498550415039 M 48.05179595947266 6.582498550415039 L 48.05179595947266 6.450406074523926 L 45.78670501708984 6.450406074523926 L 45.78670501708984 6.582498550415039 L 48.05179595947266 6.582498550415039 M 39.75830459594727 6.582498550415039 L 39.75830459594727 6.450406074523926 L 37.49319458007813 6.450406074523926 L 37.49319458007813 6.582498550415039 L 39.75830459594727 6.582498550415039 M 32.60610580444336 99.52651214599609 L 32.60519790649414 99.52651214599609 C 26.01090431213379 99.52560424804688 19.91339683532715 96.24420928955078 16.29270362854004 90.74700927734375 C 14.34779644012451 87.79320526123047 13.25159645080566 84.34260559082031 13.12290382385254 80.76689910888672 C 9.551703453063965 78.27300262451172 6.417903900146484 74.31480407714844 4.298396110534668 69.62220764160156 C 2.689196348190308 66.05909729003906 1.748703956604004 62.09640502929688 1.648796200752258 58.46309661865234 C 1.533596277236938 54.25740432739258 2.563196182250977 50.75729751586914 4.626904010772705 48.34260559082031 C 1.686596274375916 45.75060653686523 -3.766808049476822e-06 42.03180694580078 -3.766808049476822e-06 38.14109802246094 L -3.766808049476822e-06 37.1006965637207 L 10.32839584350586 37.1006965637207 L 10.32839584350586 38.14109802246094 C 10.32839584350586 39.95189666748047 11.80259609222412 41.42429733276367 13.61519622802734 41.42429733276367 C 15.42779636383057 41.42429733276367 16.90199661254883 39.95189666748047 16.90199661254883 38.14109802246094 C 16.90199661254883 36.33029937744141 15.42779636383057 34.8578987121582 13.61519622802734 34.8578987121582 C 6.107396125793457 34.8578987121582 -3.766808049476822e-06 28.75680541992188 -3.766808049476822e-06 21.25800704956055 C -3.766808049476822e-06 18.54720687866211 0.8019039034843445 15.92369842529297 2.318396329879761 13.67189884185791 C 3.830396175384521 11.4272985458374 5.950796127319336 9.702006340026855 8.450996398925781 8.680498123168945 L 8.450996398925781 6.104454769229051e-06 L 18.77939605712891 6.104454769229051e-06 L 18.77939605712891 8.680498123168945 C 21.27959632873535 9.70469856262207 23.39999580383301 11.43180656433105 24.91199684143066 13.67640590667725 C 26.42939567565918 15.9272985458374 27.23130416870117 18.54989814758301 27.23130416870117 21.25800704956055 L 27.23130416870117 22.29840660095215 L 16.90199661254883 22.29840660095215 L 16.90199661254883 21.25800704956055 C 16.90199661254883 19.44720649719238 15.42779636383057 17.97480583190918 13.61519622802734 17.97480583190918 C 11.80259609222412 17.97480583190918 10.32839584350586 19.44720649719238 10.32839584350586 21.25800704956055 C 10.32839584350586 23.06880569458008 11.80259609222412 24.54209899902344 13.61519622802734 24.54209899902344 C 21.12299537658691 24.54209899902344 27.23130416870117 30.64229774475098 27.23130416870117 38.14109802246094 C 27.23130416870117 40.43789672851563 26.63819694519043 42.71580505371094 25.51770401000977 44.72820663452148 C 24.41159629821777 46.71360778808594 22.81230354309082 48.40740585327148 20.89350318908691 49.62600708007813 C 22.43250465393066 51.02369689941406 23.84999656677246 52.68509674072266 25.10639572143555 54.56429672241211 C 26.42579650878906 56.5370979309082 27.53459548950195 58.70249938964844 28.40310478210449 61.0010986328125 C 29.77470397949219 60.69960784912109 31.18319702148438 60.5474967956543 32.58719635009766 60.5474967956543 C 37.57139587402344 60.5474967956543 42.31439590454102 62.42309951782227 45.94050216674805 65.82960510253906 L 71.86501312255859 48.7952995300293 L 66.07619476318359 40.00769805908203 L 72.79290771484375 35.59320449829102 L 78.58170318603516 44.38080596923828 L 82.7091064453125 41.66820526123047 L 73.24470520019531 27.29969787597656 L 79.96139526367188 22.88520622253418 L 89.42670440673828 37.25460433959961 L 92.95830535888672 34.93440628051758 C 93.70259857177734 34.44480514526367 94.56390380859375 34.18560791015625 95.44950103759766 34.18560791015625 C 96.98670196533203 34.18560791015625 98.40870666503906 34.95060729980469 99.25290679931641 36.23129653930664 C 99.91890716552734 37.24289703369141 100.1511001586914 38.45520782470703 99.90541076660156 39.64410018920898 C 99.66059875488281 40.8330078125 98.96761322021484 41.85449981689453 97.95510101318359 42.51960754394531 L 50.92379760742188 73.42560577392578 C 52.38539505004883 77.47200775146484 52.45470428466797 81.96749877929688 51.11910247802734 86.08320617675781 C 50.4513053894043 88.14149475097656 49.45679473876953 90.05670166015625 48.16259765625 91.77480316162109 C 46.82250213623047 93.55500793457031 45.19170379638672 95.08231353759766 43.31430435180664 96.31620788574219 C 40.1183967590332 98.41590118408203 36.4149055480957 99.52651214599609 32.60610580444336 99.52651214599609 Z M 15.30719661712646 82.08449554443359 C 15.6257963180542 84.80970001220703 16.54290390014648 87.33869934082031 18.03330421447754 89.60309600830078 C 21.26790428161621 94.51349639892578 26.7147045135498 97.44570159912109 32.60339736938477 97.44570159912109 C 36.00630569458008 97.44570159912109 39.31379699707031 96.45389556884766 42.16859436035156 94.57830047607422 C 46.05299758911133 92.02590179443359 48.70979690551758 88.10820770263672 49.65119552612305 83.54791259765625 C 50.59079742431641 78.99120330810547 49.7025032043457 74.34720611572266 47.14919662475586 70.47090148925781 C 43.91550445556641 65.55960845947266 38.46870422363281 62.62829971313477 32.57999801635742 62.62829971313477 C 29.17710304260254 62.62829971313477 25.86959648132324 63.62009811401367 23.0139045715332 65.49569702148438 C 18.25650405883789 68.62229919433594 15.32970428466797 73.90349578857422 15.18479633331299 79.62300872802734 C 16.34219551086426 80.32771301269531 17.49510383605957 80.82630157470703 18.61199569702148 81.10350036621094 C 18.62370300292969 80.7174072265625 18.65790367126465 80.40329742431641 18.71730422973633 80.11529541015625 C 18.99179649353027 78.78600311279297 19.69470405578613 77.639404296875 20.75130462646484 76.79880523681641 C 21.76650428771973 75.99060821533203 23.0381965637207 75.54509735107422 24.32970428466797 75.54509735107422 C 26.06490325927734 75.54509735107422 27.68850326538086 76.31549835205078 28.78199577331543 77.65920257568359 C 29.87459564208984 78.99931335449219 30.3003044128418 80.73900604248047 29.9501953125 82.43100738525391 C 29.68110466003418 83.73690032958984 28.96110343933105 84.9132080078125 27.92339706420898 85.74209594726563 C 26.90730476379395 86.55570220947266 25.63379669189453 87.00300598144531 24.33870315551758 87.00300598144531 C 21.95010375976563 87.00300598144531 19.84859657287598 85.55850219726563 18.98550415039063 83.32200622558594 C 17.77859687805176 83.12040710449219 16.54110336303711 82.70371246337891 15.30719661712646 82.08449554443359 Z M 27.70379638671875 79.87590026855469 C 26.75339698791504 81.14940643310547 25.59059715270996 82.10160827636719 24.24690437316895 82.70640563964844 C 23.37119674682617 83.10150146484375 22.41719627380371 83.34451293945313 21.41190338134766 83.42820739746094 C 22.11299705505371 84.37680816650391 23.17950439453125 84.92129516601563 24.33870315551758 84.92129516601563 C 26.05859565734863 84.92129516601563 27.56070327758789 83.69729614257813 27.90990447998047 82.01069641113281 C 28.05839538574219 81.29160308837891 27.9873046875 80.55269622802734 27.70379638671875 79.87590026855469 Z M 24.32970428466797 77.62590026855469 C 22.6089038848877 77.62590026855469 21.10679626464844 78.84989929199219 20.75759696960449 80.5364990234375 C 20.70539665222168 80.78489685058594 20.68379592895508 81.05580902099609 20.69099617004395 81.364501953125 C 21.67830467224121 81.35820770263672 22.58730316162109 81.17191314697266 23.39010429382324 80.8092041015625 C 24.5303955078125 80.29709625244141 25.50870323181152 79.42769622802734 26.29799652099609 78.22620391845703 C 25.6887035369873 77.83380889892578 25.00830459594727 77.62590026855469 24.32970428466797 77.62590026855469 Z M 6.306303977966309 49.60709762573242 C 4.46670389175415 51.68610000610352 3.580196142196655 54.82889938354492 3.742196321487427 58.69709777832031 C 3.878996133804321 61.94340515136719 4.773596286773682 65.61360931396484 6.197396278381348 68.76720428466797 C 7.943396091461182 72.63269805908203 10.36079597473145 75.8988037109375 13.18679618835449 78.21180725097656 C 13.7511043548584 72.28080749511719 16.91639709472656 67.01129913330078 21.86819648742676 63.75689697265625 C 23.25330352783203 62.84700775146484 24.77519607543945 62.11080551147461 26.3915958404541 61.56900787353516 C 24.70499610900879 57.18060684204102 22.04819679260254 53.30970001220703 18.90810394287109 50.67180633544922 C 18.88919639587402 50.67989730834961 18.87119674682617 50.68889999389648 18.85230445861816 50.69789886474609 C 18.82799530029297 50.7096061706543 18.80370330810547 50.72129821777344 18.77939605712891 50.73120498657227 L 18.77939605712891 59.50980758666992 L 8.450996398925781 59.50980758666992 L 8.450996398925781 50.73120498657227 C 7.732796192169189 50.43600463867188 7.010996341705322 50.05709838867188 6.306303977966309 49.60709762573242 Z M 95.45039367675781 36.26910018920898 C 94.970703125 36.26910018920898 94.50450134277344 36.40860748291016 94.10310363769531 36.67229843139648 C 88.59690093994141 40.30560684204102 73.70639801025391 50.08500671386719 60.5691032409668 58.71240615844727 L 60.45750427246094 58.78529739379883 C 55.62810516357422 61.9568977355957 51.08130264282227 64.94309997558594 47.40750503540039 67.35689544677734 C 47.94390487670898 67.98329925537109 48.4425048828125 68.6466064453125 48.88979721069336 69.32609558105469 C 49.30019760131836 69.94800567626953 49.68450546264648 70.63109588623047 50.09939575195313 71.47620391845703 L 96.80941009521484 40.78170013427734 C 97.34219360351563 40.43160629272461 97.73910522460938 39.83940505981445 97.87139892578125 39.19769668579102 C 97.96321105957031 38.75400543212891 97.97490692138672 38.07809829711914 97.51230621337891 37.3760986328125 C 97.05599975585938 36.68309783935547 96.28470611572266 36.26910018920898 95.45039367675781 36.26910018920898 Z M 11.26710414886475 47.35260772705078 C 10.29419612884521 47.35260772705078 9.375304222106934 47.54520797729492 8.536503791809082 47.9232063293457 C 8.406904220581055 47.98169708251953 8.283596038818359 48.05460739135742 8.163904190063477 48.12480545043945 C 8.115303993225098 48.1526985168457 8.067596435546875 48.18149948120117 8.018996238708496 48.20849990844727 C 8.999996185302734 48.75480651855469 9.845104217529297 49.04010009765625 10.29961204528809 49.19309997558594 C 10.39950370788574 49.22729873657227 10.47959613800049 49.25429916381836 10.53450393676758 49.27500534057617 L 10.53450393676758 57.42900466918945 L 16.69679641723633 57.42900466918945 L 16.69679641723633 49.27589797973633 L 17.39339637756348 49.03200531005859 C 22.03199577331543 47.41020584106445 25.14779663085938 43.03349685668945 25.14779663085938 38.14109802246094 C 25.14779663085938 31.7898063659668 19.97459602355957 26.62289810180664 13.61519622802734 26.62289810180664 C 10.65419578552246 26.62289810180664 8.244903564453125 24.21629905700684 8.244903564453125 21.25800704956055 C 8.244903564453125 18.30060577392578 10.65419578552246 15.89400577545166 13.61519622802734 15.89400577545166 C 16.17299652099609 15.89400577545166 18.38879585266113 17.71200561523438 18.88470458984375 20.21760559082031 L 25.1001033782959 20.21760559082031 C 24.47999572753906 13.38480567932129 19.09530448913574 10.92060565948486 16.80930328369141 10.17900657653809 C 16.74270439147949 10.15740585327148 16.70310401916504 10.14389801025391 16.69590377807617 10.13940620422363 L 16.69590377807617 2.080806016921997 L 10.53450393676758 2.080806016921997 L 10.53450393676758 10.14029884338379 C 10.52730369567871 10.14569854736328 10.4859037399292 10.1600980758667 10.41659641265869 10.18440628051758 C 8.461795806884766 10.87380599975586 2.08350396156311 13.70969867706299 2.08350396156311 21.25800704956055 C 2.08350396156311 27.60929870605469 7.256703853607178 32.777099609375 13.61519622802734 32.777099609375 C 16.57619667053223 32.777099609375 18.98550415039063 35.18369674682617 18.98550415039063 38.14109802246094 C 18.98550415039063 41.0984992980957 16.57619667053223 43.50510025024414 13.61519622802734 43.50510025024414 C 11.05739593505859 43.50510025024414 8.841611862182617 41.68709945678711 8.345704078674316 39.18149948120117 L 2.131196260452271 39.18149948120117 C 2.405704021453857 42.20460510253906 3.838503837585449 44.95769882202148 6.167704105377197 46.93229675292969 C 6.713996410369873 46.53269958496094 7.194596290588379 46.24469757080078 7.679703712463379 46.02600479125977 C 8.793904304504395 45.52470016479492 9.998995780944824 45.27089691162109 11.26170349121094 45.27089691162109 C 11.75759601593018 45.27089691162109 12.26881122589111 45.31049728393555 12.7817964553833 45.38789749145508 L 12.46950435638428 47.44529724121094 C 12.06361198425293 47.38409805297852 11.65950393676758 47.35260772705078 11.26710414886475 47.35260772705078 Z M 72.197998046875 38.47500610351563 L 68.96250152587891 40.60169982910156 L 73.60559844970703 47.65049743652344 L 76.84110260009766 45.52470016479492 L 72.197998046875 38.47500610351563 Z M 79.36650085449219 25.76789855957031 L 76.13101196289063 27.89460563659668 L 84.44970703125 40.52520751953125 L 87.68521118164063 38.39849853515625 L 79.36650085449219 25.76789855957031 Z M 50.36850357055664 95.26051330566406 L 48.81510543823242 93.92940521240234 C 49.66199493408203 92.94660949707031 50.42070388793945 91.87920379638672 51.06959533691406 90.75871276855469 L 52.84350204467773 91.77840423583984 C 52.13070297241211 93.00960540771484 51.29819488525391 94.18140411376953 50.36850357055664 95.26051330566406 Z M 40.71870422363281 92.1798095703125 L 39.57390213012695 90.44911193847656 C 43.7615966796875 87.70860290527344 45.9485969543457 82.75140380859375 45.14490509033203 77.81940460205078 L 47.20230484008789 77.48820495605469 C 48.13650512695313 83.22480773925781 45.59130477905273 88.99200439453125 40.71870422363281 92.1798095703125 Z M 54.8423957824707 87.91469573974609 L 52.84350204467773 87.22891235351563 C 53.1719970703125 86.31990051269531 53.44110488891602 85.37400817871094 53.64359664916992 84.41731262207031 C 53.71470260620117 84.08251190185547 53.77679443359375 83.74769592285156 53.83170318603516 83.41200256347656 L 55.9241943359375 83.73509979248047 C 55.86479568481445 84.10140991210938 55.79639434814453 84.46771240234375 55.71899795532227 84.83400726318359 C 55.4967041015625 85.88160705566406 55.20150375366211 86.91840362548828 54.8423957824707 87.91469573974609 Z M 54.03779602050781 79.38360595703125 C 54.00179672241211 78.09660339355469 53.83890533447266 76.80509948730469 53.55450439453125 75.54780578613281 L 55.63079452514648 75.11849975585938 C 55.9431037902832 76.50000762939453 56.12130355834961 77.91660308837891 56.16090393066406 79.32960510253906 L 54.03779602050781 79.38360595703125 Z M 59.44679641723633 73.38330078125 L 58.30110549926758 71.64540863037109 L 63.52739715576172 68.20649719238281 L 64.67310333251953 69.94440460205078 L 59.44679641723633 73.38330078125 Z M 67.46401214599609 68.11109924316406 L 66.31830596923828 66.37409973144531 L 83.67210388183594 54.95669937133789 L 84.81781005859375 56.69369888305664 L 67.46401214599609 68.11109924316406 Z M 52.74719619750977 58.45409774780273 L 51.56099700927734 56.74409866333008 L 60.18390274047852 50.78249740600586 L 61.36919784545898 52.49250030517578 L 52.74719619750977 58.45409774780273 Z M 63.12239456176758 51.23520660400391 L 61.93710327148438 49.52520751953125 L 65.12220001220703 47.32289886474609 L 66.30750274658203 49.03289794921875 L 63.12239456176758 51.23520660400391 Z M 27.79199600219727 48.81509780883789 L 26.06670379638672 47.50829696655273 C 26.26470375061035 47.23829650878906 26.45639610290527 46.96289825439453 26.63819694519043 46.68209838867188 L 28.4363956451416 47.88629913330078 C 28.23030471801758 48.20220565795898 28.01610374450684 48.51180648803711 27.79199600219727 48.81509780883789 Z M 29.51099586486816 45.97200775146484 L 27.72539710998535 45.08640670776367 C 28.00079536437988 44.53109741210938 28.24470329284668 43.95149993896484 28.45079612731934 43.36470031738281 L 30.33179664611816 44.02440643310547 C 30.09870338439941 44.68860626220703 29.82239532470703 45.34289932250977 29.51099586486816 45.97200775146484 Z M 30.94559669494629 41.94269943237305 L 28.9097957611084 41.50080490112305 C 29.04750442504883 40.86989974975586 29.14650344848633 40.22100448608398 29.20410346984863 39.57389831542969 L 31.27950477600098 39.75930023193359 C 31.21379661560059 40.49280548095703 31.10130310058594 41.22720718383789 30.94559669494629 41.94269943237305 Z M 29.33999633789063 37.67760467529297 C 29.31750297546387 36.99989700317383 29.25179672241211 36.31589889526367 29.14650344848633 35.64629745483398 L 31.29839706420898 35.30789947509766 C 31.41810417175293 36.0648078918457 31.49099540710449 36.83789825439453 31.51619529724121 37.60560607910156 L 29.33999633789063 37.67760467529297 Z M 28.84230422973633 33.64920425415039 C 28.66679573059082 33.03989791870117 28.45079612731934 32.43420791625977 28.19879531860352 31.8474063873291 L 30.07619667053223 31.04280662536621 C 30.36150360107422 31.70700645446777 30.60630416870117 32.39369964599609 30.80610466003418 33.08400726318359 L 28.84230422973633 33.64920425415039 Z M 63.74430465698242 27.96209907531738 L 60.90030288696289 27.96209907531738 L 60.90030288696289 25.82909774780273 L 63.74430465698242 25.82909774780273 L 63.74430465698242 27.96209907531738 Z M 56.87190246582031 27.96209907531738 L 52.60679626464844 27.96209907531738 L 52.60679626464844 25.82909774780273 L 56.87190246582031 25.82909774780273 L 56.87190246582031 27.96209907531738 Z M 48.57839584350586 27.96209907531738 L 44.31239700317383 27.96209907531738 L 44.31239700317383 25.82909774780273 L 48.57839584350586 25.82909774780273 L 48.57839584350586 27.96209907531738 Z M 96.20819854736328 12.7962064743042 L 93.36510467529297 12.7962064743042 L 93.36510467529297 10.66320610046387 L 96.20819854736328 10.66320610046387 L 96.20819854736328 12.7962064743042 Z M 89.09910583496094 12.7962064743042 L 84.83399963378906 12.7962064743042 L 84.83399963378906 10.66320610046387 L 89.09910583496094 10.66320610046387 L 89.09910583496094 12.7962064743042 Z M 80.80561065673828 12.7962064743042 L 76.54050445556641 12.7962064743042 L 76.54050445556641 10.66320610046387 L 80.80561065673828 10.66320610046387 L 80.80561065673828 12.7962064743042 Z M 55.9241943359375 7.582498550415039 L 53.08019638061523 7.582498550415039 L 53.08019638061523 5.450406074523926 L 55.9241943359375 5.450406074523926 L 55.9241943359375 7.582498550415039 Z M 49.05179595947266 7.582498550415039 L 44.78670501708984 7.582498550415039 L 44.78670501708984 5.450406074523926 L 49.05179595947266 5.450406074523926 L 49.05179595947266 7.582498550415039 Z M 40.75830459594727 7.582498550415039 L 36.49319458007813 7.582498550415039 L 36.49319458007813 5.450406074523926 L 40.75830459594727 5.450406074523926 L 40.75830459594727 7.582498550415039 Z" stroke="none" fill="#ff9419"/>
    </g>
  </g>
</svg>
