<svg xmlns="http://www.w3.org/2000/svg" width="99.909" height="99.911" viewBox="0 0 99.909 99.911">
  <g id="Group_27" data-name="Group 27" transform="translate(-0.001 0)">
    <g id="time-and-date">
      <path id="Path_Copy_14" data-name="Path Copy 14" d="M38.841,40.282A23.113,23.113,0,0,1,24.2,46.357V41.82H22.159v4.536A23.115,23.115,0,0,1,7.516,40.282l3.2-3.2L9.276,35.64l-3.2,3.2A23.113,23.113,0,0,1,0,24.2H4.537V22.159H0A23.113,23.113,0,0,1,6.075,7.516l3.2,3.2,1.442-1.442-3.2-3.2A23.114,23.114,0,0,1,22.159,0V4.536H24.2V0A23.113,23.113,0,0,1,38.841,6.075l-3.2,3.2,1.442,1.442,3.2-3.2a23.114,23.114,0,0,1,6.075,14.643H41.82V24.2h4.537a23.113,23.113,0,0,1-6.075,14.643l-3.2-3.2L35.64,37.081Z" transform="translate(51.488 51.489)" fill="#ff9419" opacity="0.45"/>
      <g id="Combined_Shape" data-name="Combined Shape" transform="translate(0.001 0)" fill="none" stroke-miterlimit="10">
        <path d="M63.364,97.233a25.557,25.557,0,0,1-8.675-7.16H3.559A3.563,3.563,0,0,1,0,86.514V20.41a3.568,3.568,0,0,1,3.559-3.569H14.682V11.75h6.031a12.77,12.77,0,0,1,25.457,0H52.2v5.093h11.12A3.573,3.573,0,0,1,66.89,20.41V50.655a25.161,25.161,0,0,1,4.149-.967v-5.32H67.552V38.252H81.784v6.116H78.3v5.321a25.242,25.242,0,0,1-3.632,50.222A24.908,24.908,0,0,1,63.364,97.233Zm12.322.612a23.2,23.2,0,0,0,14.642-6.074l-3.2-3.2,1.442-1.441,3.2,3.2a23.2,23.2,0,0,0,6.075-14.642H93.308V73.648h4.537A23.205,23.205,0,0,0,91.769,59l-3.2,3.2-1.442-1.441,3.2-3.2a23.2,23.2,0,0,0-14.642-6.074v4.536H73.646V51.489A23.207,23.207,0,0,0,59,57.563l3.2,3.2-1.442,1.441-3.2-3.2a23.208,23.208,0,0,0-6.074,14.643h4.537v2.039H51.487a23.2,23.2,0,0,0,6.074,14.642l3.2-3.2h0L62.2,88.57l-3.2,3.2a23.208,23.208,0,0,0,14.643,6.074V93.31h2.039ZM2.039,20.41v66.1a1.521,1.521,0,0,0,1.519,1.519H53.266a25.138,25.138,0,0,1-3.844-13.366c0-.782.041-1.6.12-2.433H25.551V70.2H49.827A25.324,25.324,0,0,1,64.85,51.411v-31a1.531,1.531,0,0,0-1.529-1.529H52.2v4.572H14.682V18.881H3.559A1.526,1.526,0,0,0,2.039,20.41ZM76.259,49.479V44.368H73.077v5.111c.614-.038,1.119-.055,1.589-.055S75.649,49.442,76.259,49.479Zm-6.668-7.15H79.744V40.29H69.591ZM16.721,21.415h33.44V13.788H44.17v-1.02a10.729,10.729,0,0,0-21.459,0v1.02h-5.99ZM22.985,95.9V93.862H49.118V95.9Zm-9.83,0V93.862h6.578V95.9ZM83.576,85.75h0L77.2,78.89a4.916,4.916,0,0,1-7.48-4.224,4.967,4.967,0,0,1,3.929-4.838V61.485h2.038v8.346a4.967,4.967,0,0,1,3.923,4.836,4.9,4.9,0,0,1-.911,2.842l6.369,6.854L83.577,85.75ZM71.76,74.668a2.906,2.906,0,1,0,2.906-2.906A2.909,2.909,0,0,0,71.76,74.668ZM9.36,79.756V69.881h9.876v9.876Zm32.29-.316V77.4h5.767V79.44Zm-16.1,0V77.4H37.94V79.44Zm63.43-27.99,1.073-1.733a29.7,29.7,0,0,1,9.365,9.247l-1.721,1.1A27.639,27.639,0,0,0,88.981,51.45ZM9.36,60.021V50.145h9.876v9.876Zm31.954-.316V57.666h4.345v2.039Zm-15.763,0V57.666H38.362v2.039Zm0-7.205V50.461H59.4V52.5Zm58.794-3.341.726-1.905c.868.33,1.729.707,2.559,1.117L86.725,50.2C85.954,49.816,85.154,49.467,84.345,49.159ZM9.36,40.286V30.411h9.876v9.875Zm33.115-.315V37.931h5.195v2.039Zm-16.924,0V37.931H39.458v2.039ZM69.72,34.979V26.341h2.039v8.638ZM25.551,32.765V30.727H59.4v2.038ZM69.72,23.813V20.386h2.039v3.427ZM29.88,18.881V16.843H42.475v2.038Zm-5.472,0V16.843h3.027v2.038ZM29.3,9.313a4.145,4.145,0,1,1,4.144,4.145A4.149,4.149,0,0,1,29.3,9.313Zm2.039,0a2.106,2.106,0,1,0,2.105-2.105A2.108,2.108,0,0,0,31.336,9.313ZM44.286,2.7l1.493-1.388a16.893,16.893,0,0,1,3.941,7.118l-1.97.526A14.854,14.854,0,0,0,44.286,2.7ZM17.162,8.428A16.848,16.848,0,0,1,21.8.606l1.411,1.472a14.806,14.806,0,0,0-4.074,6.875Z" stroke="none"/>
        <path d="M 74.66580963134766 98.91080474853516 C 88.03354644775391 98.91080474853516 98.90901184082031 88.03533935546875 98.90901184082031 74.6676025390625 C 98.90901184082031 71.68946075439453 98.37261199951172 68.77969360351563 97.31470489501953 66.01908111572266 C 96.293212890625 63.35303497314453 94.81699371337891 60.9044189453125 92.92704010009766 58.74124908447266 C 89.10639190673828 54.36826324462891 83.85990142822266 51.50492477416992 78.15399169921875 50.67868041992188 L 77.29730224609375 50.55463409423828 L 77.29730224609375 49.68900299072266 L 77.29730224609375 44.36820220947266 L 77.29730224609375 43.36820220947266 L 78.29730224609375 43.36820220947266 L 80.78390502929688 43.36820220947266 L 80.78390502929688 39.25180053710938 L 68.55219268798828 39.25180053710938 L 68.55219268798828 43.36820220947266 L 71.03881072998047 43.36820220947266 L 72.03881072998047 43.36820220947266 L 72.03881072998047 44.36820220947266 L 72.03881072998047 49.6881103515625 L 72.03881072998047 50.55398559570313 L 71.18182373046875 50.67783355712891 C 69.83957672119141 50.87178802490234 68.49932098388672 51.18404769897461 67.1982421875 51.60594177246094 L 65.88979339599609 52.03021621704102 L 65.88979339599609 50.65469360351563 L 65.88979339599609 20.41020202636719 C 65.88979339599609 18.99392509460449 64.73757934570313 17.84170913696289 63.3213005065918 17.84170913696289 L 52.20090103149414 17.84170913696289 L 51.20090103149414 17.84170913696289 L 51.20090103149414 16.84170913696289 L 51.20090103149414 12.74860191345215 L 46.16910171508789 12.74860191345215 L 45.24531936645508 12.74860191345215 L 45.1722412109375 11.82771015167236 C 44.93919372558594 8.89094066619873 43.61419296264648 6.162386894226074 41.44147109985352 4.144802570343018 C 39.25676345825195 2.116848468780518 36.41558074951172 1.000002384185791 33.44130325317383 1.000002384185791 C 30.46682548522949 1.000002384185791 27.62568664550781 2.117125511169434 25.44111824035645 4.145725250244141 C 23.26773262023926 6.163079261779785 21.94247055053711 8.891571998596191 21.7094554901123 11.82858657836914 L 21.63639450073242 12.7494945526123 L 20.71259498596191 12.7494945526123 L 15.68170166015625 12.7494945526123 L 15.68170166015625 16.84170913696289 L 15.68170166015625 17.84170913696289 L 14.68170166015625 17.84170913696289 L 3.5586097240448 17.84170913696289 C 2.147778987884521 17.84170913696289 0.9999943971633911 18.99392509460449 0.9999943971633911 20.41020202636719 L 0.9999943971633911 86.51431274414063 C 0.9999943971633911 87.92512512207031 2.147778987884521 89.07289123535156 3.5586097240448 89.07289123535156 L 54.68850326538086 89.07289123535156 L 55.17948532104492 89.07289123535156 L 55.47973251342773 89.46137237548828 C 57.70093154907227 92.33535766601563 60.58261108398438 94.71397399902344 63.81328582763672 96.34011077880859 C 67.20149993896484 98.0458984375 70.85280609130859 98.91080474853516 74.66580963134766 98.91080474853516 M 74.68550109863281 94.30974578857422 L 74.64610290527344 94.30976867675781 L 74.64610290527344 97.84529113769531 L 74.64610290527344 98.88969421386719 L 73.60268402099609 98.84435272216797 C 67.94338226318359 98.59843444824219 62.51856231689453 96.34832763671875 58.32756423950195 92.50852203369141 L 57.55728530883789 91.80280303955078 L 58.29599380493164 91.06409454345703 L 60.79041290283203 88.56968688964844 L 60.76317596435547 88.54243469238281 L 58.26831817626953 91.03660583496094 L 57.52968597412109 91.77501678466797 L 56.82405471801758 91.00503540039063 C 52.98427200317383 86.8150634765625 50.73413467407227 81.39054107666016 50.48813247680664 75.73072814941406 L 50.44277954101563 74.68730926513672 L 51.4871940612793 74.68730926513672 L 55.02410125732422 74.68730926513672 L 55.02410125732422 74.64791107177734 L 51.4871940612793 74.64791107177734 L 50.44279479980469 74.64791107177734 L 50.48813247680664 73.6044921875 C 50.73406982421875 67.9451904296875 52.98418045043945 62.52037048339844 56.82397842407227 58.3293571472168 L 57.52970123291016 57.55907821655273 L 58.26840972900391 58.29778671264648 L 60.76282501220703 60.79221725463867 L 60.79007720947266 60.76498413085938 L 58.29590225219727 58.27012634277344 L 57.55741119384766 57.53141784667969 L 58.32756423950195 56.82578659057617 C 62.51842498779297 52.98603439331055 67.9432373046875 50.73592376708984 73.60268402099609 50.48994064331055 L 74.64610290527344 50.44458770751953 L 74.64610290527344 51.4890022277832 L 74.64610290527344 55.02500152587891 L 74.68550109863281 55.02500152587891 L 74.68550109863281 51.4890022277832 L 74.68550109863281 50.44460296630859 L 75.72891998291016 50.48994064331055 C 81.38954925537109 50.73589324951172 86.81410217285156 52.98606491088867 91.00330352783203 56.8259391784668 L 91.77313232421875 57.53157043457031 L 91.03479766845703 58.27012634277344 L 88.54063415527344 60.76497650146484 L 88.56788635253906 60.79220581054688 L 91.06230163574219 58.29778671264648 L 91.80091857910156 57.55916976928711 L 92.50663757324219 58.32926559448242 C 96.34696197509766 62.51975631713867 98.59742736816406 67.94458770751953 98.84346771240234 73.60447692871094 L 98.88882446289063 74.64791107177734 L 97.84440612792969 74.64791107177734 L 94.30750274658203 74.64791107177734 L 94.30750274658203 74.68730926513672 L 97.84440612792969 74.68730926513672 L 98.88880920410156 74.68730926513672 L 98.84346771240234 75.73072814941406 C 98.59750366210938 81.39083099365234 96.34700775146484 86.81536865234375 92.50657653808594 91.00511169433594 L 91.80093383789063 91.77494049072266 L 91.06240844726563 91.03660583496094 L 88.5679931640625 88.54289245605469 L 88.54073333740234 88.57012939453125 L 91.03469848632813 91.06409454345703 L 91.7733154296875 91.80271148681641 L 91.00322723388672 92.50844573974609 C 86.81325531005859 96.34823608398438 81.38874816894531 98.59837341308594 75.72891998291016 98.84435272216797 L 74.68550109863281 98.88969421386719 L 74.68550109863281 97.84529113769531 L 74.68550109863281 94.30974578857422 M 3.5586097240448 17.88109397888184 L 14.68170166015625 17.88109397888184 L 15.68170166015625 17.88109397888184 L 15.68170166015625 18.88109397888184 L 15.68170166015625 22.45309448242188 L 51.20090103149414 22.45309448242188 L 51.20090103149414 18.88109397888184 L 51.20090103149414 17.88109397888184 L 52.20090103149414 17.88109397888184 L 63.3213005065918 17.88109397888184 C 64.71585845947266 17.88109397888184 65.85041046142578 19.01564788818359 65.85041046142578 20.41020202636719 L 65.85041046142578 51.41069412231445 L 65.85041046142578 52.07304763793945 L 65.24053192138672 52.33146286010742 C 61.56953430175781 53.88683319091797 58.30113220214844 56.35813903808594 55.78851699829102 59.47837066650391 C 53.24541091918945 62.63501739501953 51.52419281005859 66.40238952636719 50.81094741821289 70.37319946289063 L 50.6630859375 71.19640350341797 L 49.82670211791992 71.19640350341797 L 26.55099487304688 71.19640350341797 L 26.55099487304688 71.23490905761719 L 49.5413932800293 71.23490905761719 L 50.64116287231445 71.23490905761719 L 50.53688812255859 72.32972717285156 C 50.46045684814453 73.13226318359375 50.42170333862305 73.91884613037109 50.42170333862305 74.6676025390625 C 50.42170333862305 79.21209716796875 51.69810104370117 83.65029144287109 54.11288833618164 87.50237274169922 L 55.07273101806641 89.03350830078125 L 53.26560974121094 89.03350830078125 L 3.5586097240448 89.03350830078125 C 2.169517517089844 89.03350830078125 1.039409756660461 87.90340423583984 1.039409756660461 86.51431274414063 L 1.039409756660461 20.41020202636719 C 1.039409756660461 19.01564788818359 2.169517517089844 17.88109397888184 3.5586097240448 17.88109397888184 M 74.66580963134766 50.42440414428711 C 74.21116638183594 50.42440414428711 73.72592926025391 50.44124984741211 73.13876342773438 50.47740173339844 L 72.07730102539063 50.54277038574219 L 72.07730102539063 49.47929382324219 L 72.07730102539063 44.36820220947266 L 72.07730102539063 43.36820220947266 L 73.07730102539063 43.36820220947266 L 76.25881195068359 43.36820220947266 L 77.25881195068359 43.36820220947266 L 77.25881195068359 44.36820220947266 L 77.25881195068359 49.47929382324219 L 77.25881195068359 50.54315567016602 L 76.19697570800781 50.47738647460938 C 75.61350250244141 50.44123458862305 75.12696075439453 50.42440414428711 74.66580963134766 50.42440414428711 M 68.59070587158203 39.29030990600586 L 69.59070587158203 39.29030990600586 L 79.74449920654297 39.29030990600586 L 80.74449920654297 39.29030990600586 L 80.74449920654297 40.29030990600586 L 80.74449920654297 42.32969284057617 L 80.74449920654297 43.32969284057617 L 79.74449920654297 43.32969284057617 L 78.29730224609375 43.32969284057617 L 71.03881072998047 43.32969284057617 L 69.59070587158203 43.32969284057617 L 68.59070587158203 43.32969284057617 L 68.59070587158203 42.32969284057617 L 68.59070587158203 40.29030990600586 L 68.59070587158203 39.29030990600586 M 15.72110176086426 12.78800201416016 L 16.72110176086426 12.78800201416016 L 21.71150207519531 12.78800201416016 L 21.71150207519531 12.76829433441162 C 21.71150207519531 6.300956249237061 26.97347068786621 1.039402365684509 33.44130325317383 1.039402365684509 C 39.90864181518555 1.039402365684509 45.17019271850586 6.300956249237061 45.17019271850586 12.76829433441162 L 45.17019271850586 12.78800201416016 L 50.16150283813477 12.78800201416016 L 51.16150283813477 12.78800201416016 L 51.16150283813477 13.78800201416016 L 51.16150283813477 21.41460227966309 L 51.16150283813477 22.41460227966309 L 50.16150283813477 22.41460227966309 L 16.72110176086426 22.41460227966309 L 15.72110176086426 22.41460227966309 L 15.72110176086426 21.41460227966309 L 15.72110176086426 13.78800201416016 L 15.72110176086426 12.78800201416016 M 48.11839294433594 94.90040588378906 L 48.11839294433594 94.86189270019531 L 23.9851016998291 94.86189270019531 L 23.9851016998291 94.90040588378906 L 48.11839294433594 94.90040588378906 M 18.73339462280273 94.90040588378906 L 18.73339462280273 94.86189270019531 L 14.15530204772949 94.86189270019531 L 14.15530204772949 94.90040588378906 L 18.73339462280273 94.90040588378906 M 83.62726593017578 84.33753204345703 L 83.6558837890625 84.3109130859375 L 77.96708679199219 78.18966674804688 L 77.41410064697266 77.59465026855469 L 77.88316345214844 76.93146514892578 C 78.35893249511719 76.25880432128906 78.61041259765625 75.47564697265625 78.61041259765625 74.66670989990234 C 78.61041259765625 72.81501770019531 77.29409027099609 71.19277191162109 75.48046875 70.80937194824219 L 74.68730163574219 70.64169311523438 L 74.68730163574219 69.83100128173828 L 74.68730163574219 62.48530960083008 L 74.64881134033203 62.48530960083008 L 74.64881134033203 69.82920074462891 L 74.64881134033203 70.64072418212891 L 73.85465240478516 70.80778503417969 C 72.03849029541016 71.18983459472656 70.72029876708984 72.812744140625 70.72029876708984 74.66670989990234 C 70.72029876708984 76.84226226806641 72.49025726318359 78.61220550537109 74.66580963134766 78.61220550537109 C 75.35919189453125 78.61220550537109 76.05691528320313 78.41233825683594 76.68356323242188 78.03420257568359 L 77.37945556640625 77.61428070068359 L 77.93274688720703 78.20966339111328 L 83.62726593017578 84.33753204345703 M 74.66580963134766 70.76151275634766 C 76.81964111328125 70.76151275634766 78.5718994140625 72.51377105712891 78.5718994140625 74.6676025390625 C 78.5718994140625 76.82093811035156 76.81964111328125 78.57279968261719 74.66580963134766 78.57279968261719 C 72.51197814941406 78.57279968261719 70.75970458984375 76.82093811035156 70.75970458984375 74.6676025390625 C 70.75970458984375 72.51377105712891 72.51197814941406 70.76151275634766 74.66580963134766 70.76151275634766 M 18.23570251464844 78.75620269775391 L 18.23570251464844 70.8804931640625 L 10.36001014709473 70.8804931640625 L 10.36001014709473 78.75620269775391 L 18.23570251464844 78.75620269775391 M 46.41739273071289 78.44029235839844 L 46.41739273071289 78.40180206298828 L 42.65019607543945 78.40180206298828 L 42.65019607543945 78.44029235839844 L 46.41739273071289 78.44029235839844 M 36.93950271606445 78.44029235839844 L 36.93950271606445 78.40180206298828 L 26.55099487304688 78.40180206298828 L 26.55099487304688 78.44029235839844 L 36.93950271606445 78.44029235839844 M 18.23570251464844 59.02100372314453 L 18.23570251464844 51.14529418945313 L 10.36001014709473 51.14529418945313 L 10.36001014709473 59.02100372314453 L 18.23570251464844 59.02100372314453 M 44.65880966186523 58.70509338378906 L 44.65880966186523 58.66571044921875 L 42.3136100769043 58.66571044921875 L 42.3136100769043 58.70509338378906 L 44.65880966186523 58.70509338378906 M 37.36161041259766 58.70509338378906 L 37.36161041259766 58.66571044921875 L 26.55099487304688 58.66571044921875 L 26.55099487304688 58.70509338378906 L 37.36161041259766 58.70509338378906 M 97.98928070068359 58.68782043457031 L 98.02276611328125 58.66651153564453 C 95.98140716552734 55.6995964050293 93.36232757568359 53.11361694335938 90.36856842041016 51.10882568359375 L 90.34825897216797 51.14164352416992 C 93.33708953857422 53.14352416992188 95.95158386230469 55.72555541992188 97.98928070068359 58.68782043457031 M 58.39910125732422 51.49971008300781 L 58.39910125732422 51.46120071411133 L 26.55099487304688 51.46120071411133 L 26.55099487304688 51.49971008300781 L 58.39910125732422 51.49971008300781 M 86.26466369628906 48.87412261962891 L 86.28199005126953 48.83915328979492 C 86.07036590576172 48.74367141723633 85.85740661621094 48.65071105957031 85.64361572265625 48.56048965454102 L 85.62969970703125 48.59700775146484 C 85.84256744384766 48.68684005737305 86.05430603027344 48.77924346923828 86.26466369628906 48.87412261962891 M 18.23570251464844 39.28580093383789 L 18.23570251464844 31.41100311279297 L 10.36001014709473 31.41100311279297 L 10.36001014709473 39.28580093383789 L 18.23570251464844 39.28580093383789 M 46.66939544677734 38.97080230712891 L 46.66939544677734 38.93140411376953 L 43.47459411621094 38.93140411376953 L 43.47459411621094 38.97080230712891 L 46.66939544677734 38.97080230712891 M 38.45780944824219 38.97080230712891 L 38.45780944824219 38.93140411376953 L 26.55099487304688 38.93140411376953 L 26.55099487304688 38.97080230712891 L 38.45780944824219 38.97080230712891 M 70.75881195068359 33.97940063476563 L 70.75881195068359 27.34120178222656 L 70.72029876708984 27.34120178222656 L 70.72029876708984 33.97940063476563 L 70.75881195068359 33.97940063476563 M 58.39910125732422 31.76540184020996 L 58.39910125732422 31.72689437866211 L 26.55099487304688 31.72689437866211 L 26.55099487304688 31.76540184020996 L 58.39910125732422 31.76540184020996 M 70.75881195068359 22.81309509277344 L 70.75881195068359 21.38589477539063 L 70.72029876708984 21.38589477539063 L 70.72029876708984 22.81309509277344 L 70.75881195068359 22.81309509277344 M 41.47459411621094 17.88109397888184 L 41.47459411621094 17.84260177612305 L 30.87999534606934 17.84260177612305 L 30.87999534606934 17.88109397888184 L 41.47459411621094 17.88109397888184 M 26.43470191955566 17.88109397888184 L 26.43470191955566 17.84260177612305 L 25.40799522399902 17.84260177612305 L 25.40799522399902 17.88109397888184 L 26.43470191955566 17.88109397888184 M 33.44130325317383 12.45860195159912 C 35.17568588256836 12.45860195159912 36.58670043945313 11.04758739471436 36.58670043945313 9.313201904296875 C 36.58670043945313 7.579325675964355 35.17568588256836 6.168710231781006 33.44130325317383 6.168710231781006 C 31.7074089050293 6.168710231781006 30.29679489135742 7.579325675964355 30.29679489135742 9.313201904296875 C 30.29679489135742 11.04758739471436 31.7074089050293 12.45860195159912 33.44130325317383 12.45860195159912 M 33.44130325317383 6.208094596862793 C 35.15396499633789 6.208094596862793 36.54730224609375 7.601033210754395 36.54730224609375 9.313201904296875 C 36.54730224609375 11.02635669708252 35.15396499633789 12.42010974884033 33.44130325317383 12.42010974884033 C 31.72913360595703 12.42010974884033 30.33619499206543 11.02635669708252 30.33619499206543 9.313201904296875 C 30.33619499206543 7.601033210754395 31.72913360595703 6.208094596862793 33.44130325317383 6.208094596862793 M 48.42752456665039 7.737583160400391 L 48.46533584594727 7.727495193481445 C 47.85679626464844 5.922176361083984 46.91768264770508 4.227162837982178 45.70456695556641 2.744305610656738 L 45.67630004882813 2.770576953887939 C 46.88478469848633 4.248414039611816 47.82051086425781 5.93782377243042 48.42752456665039 7.737583160400391 M 18.45457077026367 7.737449169158936 C 19.16060638427734 5.638839244842529 20.30498886108398 3.70827054977417 21.81394958496094 2.070374727249146 L 21.78664779663086 2.041889667510986 C 20.27273178100586 3.684942960739136 19.12478256225586 5.621779918670654 18.41680908203125 7.727375030517578 L 18.45457077026367 7.737449169158936 M 74.66580963134766 99.91080474853516 C 70.69499206542969 99.91080474853516 66.89250183105469 99.00991058349609 63.36360931396484 97.23329162597656 C 60.00030136108398 95.5404052734375 57.0006103515625 93.06449127197266 54.68850326538086 90.07289123535156 L 3.5586097240448 90.07289123535156 C 1.596594452857971 90.07289123535156 -5.586594852502458e-06 88.47631072998047 -5.586594852502458e-06 86.51431274414063 L -5.586594852502458e-06 20.41020202636719 C -5.586594852502458e-06 18.44280242919922 1.596594452857971 16.84170913696289 3.5586097240448 16.84170913696289 L 14.68170166015625 16.84170913696289 L 14.68170166015625 11.7494945526123 L 20.71259498596191 11.7494945526123 C 20.96550178527832 8.561695098876953 22.40370178222656 5.60069465637207 24.76080894470215 3.412802457809448 C 27.13050270080566 1.212294697761536 30.21390151977539 2.374267523919116e-06 33.44130325317383 2.374267523919116e-06 C 36.668701171875 2.374267523919116e-06 39.7512092590332 1.211402416229248 42.12179565429688 3.411894798278809 C 44.47890090942383 5.60069465637207 45.91621017456055 8.561695098876953 46.16910171508789 11.74860191345215 L 52.20090103149414 11.74860191345215 L 52.20090103149414 16.84170913696289 L 63.3213005065918 16.84170913696289 C 65.28870391845703 16.84170913696289 66.88979339599609 18.44280242919922 66.88979339599609 20.41020202636719 L 66.88979339599609 50.65469360351563 C 68.24700927734375 50.21460342407227 69.64379119873047 49.88969421386719 71.03881072998047 49.6881103515625 L 71.03881072998047 44.36820220947266 L 67.55219268798828 44.36820220947266 L 67.55219268798828 38.25180053710938 L 81.78390502929688 38.25180053710938 L 81.78390502929688 44.36820220947266 L 78.29730224609375 44.36820220947266 L 78.29730224609375 49.68900299072266 C 84.23910522460938 50.54940414428711 89.70210266113281 53.53020095825195 93.68009948730469 58.08329391479492 C 95.64749908447266 60.33510971069336 97.18470001220703 62.88480377197266 98.24850463867188 65.66129302978516 C 99.35010528564453 68.53591156005859 99.90901184082031 71.56620025634766 99.90901184082031 74.6676025390625 C 99.90901184082031 88.58700561523438 88.58521270751953 99.91080474853516 74.66580963134766 99.91080474853516 Z M 75.68550109863281 93.30931091308594 L 75.68550109863281 97.84529113769531 C 81.11070251464844 97.60951232910156 86.31090545654297 95.45220184326172 90.32759094238281 91.77120208740234 L 87.12630462646484 88.56990814208984 L 88.56809997558594 87.12900543212891 L 91.7694091796875 90.32939910888672 C 95.45040893554688 86.3135986328125 97.60861206054688 81.1134033203125 97.84440612792969 75.68730926513672 L 93.30750274658203 75.68730926513672 L 93.30750274658203 73.64791107177734 L 97.84440612792969 73.64791107177734 C 97.60861206054688 68.22360229492188 95.45130157470703 63.02251052856445 91.7694091796875 59.0048942565918 L 88.56809997558594 62.20620346069336 L 87.12630462646484 60.76529312133789 L 90.32759094238281 57.5631103515625 C 86.31269836425781 53.88300323486328 81.11250305175781 51.72480392456055 75.68550109863281 51.4890022277832 L 75.68550109863281 56.02500152587891 L 73.64610290527344 56.02500152587891 L 73.64610290527344 51.4890022277832 C 68.22090148925781 51.72480392456055 63.02070236206055 53.88211059570313 59.00310134887695 57.5631103515625 L 62.20441055297852 60.76529312133789 L 60.76259613037109 62.20620346069336 L 57.56130218505859 59.0048942565918 C 53.88121032714844 63.02160263061523 51.72299575805664 68.2218017578125 51.4871940612793 73.64791107177734 L 56.02410125732422 73.64791107177734 L 56.02410125732422 75.68730926513672 L 51.4871940612793 75.68730926513672 C 51.72299575805664 81.11251068115234 53.88030242919922 86.31269836425781 57.56130218505859 90.32939910888672 L 60.76259613037109 87.12900543212891 L 60.76350021362305 87.12811279296875 L 60.7643928527832 87.12900543212891 L 62.20441055297852 88.56990814208984 L 59.00310134887695 91.77120208740234 C 63.01980972290039 95.45130920410156 68.22000885009766 97.60951232910156 73.64610290527344 97.84529113769531 L 73.64610290527344 93.31020355224609 L 75.68550109863281 93.30931091308594 Z M 3.5586097240448 18.88109397888184 C 2.720702171325684 18.88109397888184 2.039409875869751 19.56689453125 2.039409875869751 20.41020202636719 L 2.039409875869751 86.51431274414063 C 2.039409875869751 87.35220336914063 2.720702171325684 88.03350830078125 3.5586097240448 88.03350830078125 L 53.26560974121094 88.03350830078125 C 50.75099563598633 84.02220153808594 49.42170333862305 79.39980316162109 49.42170333862305 74.6676025390625 C 49.42170333862305 73.885498046875 49.46219253540039 73.06651306152344 49.5413932800293 72.23490905761719 L 25.55099487304688 72.23490905761719 L 25.55099487304688 70.19640350341797 L 49.82670211791992 70.19640350341797 C 50.56921005249023 66.06269836425781 52.36110305786133 62.13871002197266 55.00979614257813 58.85100173950195 C 57.62610244750977 55.60200119018555 61.02901077270508 53.02980422973633 64.85041046142578 51.41069412231445 L 64.85041046142578 20.41020202636719 C 64.85041046142578 19.56689453125 64.16461181640625 18.88109397888184 63.3213005065918 18.88109397888184 L 52.20090103149414 18.88109397888184 L 52.20090103149414 23.45309448242188 L 14.68170166015625 23.45309448242188 L 14.68170166015625 18.88109397888184 L 3.5586097240448 18.88109397888184 Z M 74.66580963134766 49.42440414428711 C 75.14279174804688 49.42440414428711 75.64861297607422 49.44149398803711 76.25881195068359 49.47929382324219 L 76.25881195068359 44.36820220947266 L 73.07730102539063 44.36820220947266 L 73.07730102539063 49.47929382324219 C 73.69110107421875 49.44149398803711 74.19599151611328 49.42440414428711 74.66580963134766 49.42440414428711 Z M 69.59070587158203 40.29030990600586 L 69.59070587158203 42.32969284057617 L 71.03881072998047 42.32969284057617 L 78.29730224609375 42.32969284057617 L 79.74449920654297 42.32969284057617 L 79.74449920654297 40.29030990600586 L 69.59070587158203 40.29030990600586 Z M 16.72110176086426 13.78800201416016 L 16.72110176086426 21.41460227966309 L 50.16150283813477 21.41460227966309 L 50.16150283813477 13.78800201416016 L 44.17019271850586 13.78800201416016 L 44.17019271850586 12.76829433441162 C 44.17019271850586 6.852602481842041 39.35700988769531 2.039402484893799 33.44130325317383 2.039402484893799 C 27.52470207214355 2.039402484893799 22.71150207519531 6.852602481842041 22.71150207519531 12.76829433441162 L 22.71150207519531 13.78800201416016 L 16.72110176086426 13.78800201416016 Z M 49.11839294433594 95.90040588378906 L 22.9851016998291 95.90040588378906 L 22.9851016998291 93.86189270019531 L 49.11839294433594 93.86189270019531 L 49.11839294433594 95.90040588378906 Z M 19.73339462280273 95.90040588378906 L 13.15530204772949 95.90040588378906 L 13.15530204772949 93.86189270019531 L 19.73339462280273 93.86189270019531 L 19.73339462280273 95.90040588378906 Z M 83.57669830322266 85.75020599365234 L 83.57581329345703 85.75020599365234 L 83.57490539550781 85.75020599365234 L 77.20021057128906 78.89040374755859 C 76.41719818115234 79.36289215087891 75.54061126708984 79.61220550537109 74.66580963134766 79.61220550537109 C 71.93881225585938 79.61220550537109 69.72029876708984 77.39369201660156 69.72029876708984 74.66670989990234 C 69.72029876708984 72.34200286865234 71.37270355224609 70.30799865722656 73.64881134033203 69.82920074462891 L 73.64881134033203 61.48530960083008 L 75.68730163574219 61.48530960083008 L 75.68730163574219 69.83100128173828 C 77.96070098876953 70.31159973144531 79.61041259765625 72.34560394287109 79.61041259765625 74.66670989990234 C 79.61041259765625 75.68369293212891 79.29541015625 76.66651153564453 78.69959259033203 77.5089111328125 L 85.06890106201172 84.36240386962891 L 83.57669830322266 85.75020599365234 Z M 74.66580963134766 71.76151275634766 C 73.06381225585938 71.76151275634766 71.75970458984375 73.06560516357422 71.75970458984375 74.6676025390625 C 71.75970458984375 76.26959991455078 73.06381225585938 77.57279968261719 74.66580963134766 77.57279968261719 C 76.26869964599609 77.57279968261719 77.5718994140625 76.26959991455078 77.5718994140625 74.6676025390625 C 77.5718994140625 73.06560516357422 76.26869964599609 71.76151275634766 74.66580963134766 71.76151275634766 Z M 19.23570251464844 79.75620269775391 L 9.360010147094727 79.75620269775391 L 9.360010147094727 69.8804931640625 L 19.23570251464844 69.8804931640625 L 19.23570251464844 79.75620269775391 Z M 47.41739273071289 79.44029235839844 L 41.65019607543945 79.44029235839844 L 41.65019607543945 77.40180206298828 L 47.41739273071289 77.40180206298828 L 47.41739273071289 79.44029235839844 Z M 37.93950271606445 79.44029235839844 L 25.55099487304688 79.44029235839844 L 25.55099487304688 77.40180206298828 L 37.93950271606445 77.40180206298828 L 37.93950271606445 79.44029235839844 Z M 97.69770050048828 60.05880355834961 C 95.49090576171875 56.59111022949219 92.47679138183594 53.61480331420898 88.98120880126953 51.45029449462891 L 90.05400848388672 49.71689605712891 C 93.80879211425781 52.04160308837891 97.04701232910156 55.2384033203125 99.41850280761719 58.96349334716797 L 97.69770050048828 60.05880355834961 Z M 19.23570251464844 60.02100372314453 L 9.360010147094727 60.02100372314453 L 9.360010147094727 50.14529418945313 L 19.23570251464844 50.14529418945313 L 19.23570251464844 60.02100372314453 Z M 45.65880966186523 59.70509338378906 L 41.3136100769043 59.70509338378906 L 41.3136100769043 57.66571044921875 L 45.65880966186523 57.66571044921875 L 45.65880966186523 59.70509338378906 Z M 38.36161041259766 59.70509338378906 L 25.55099487304688 59.70509338378906 L 25.55099487304688 57.66571044921875 L 38.36161041259766 57.66571044921875 L 38.36161041259766 59.70509338378906 Z M 59.39910125732422 52.49971008300781 L 25.55099487304688 52.49971008300781 L 25.55099487304688 50.46120071411133 L 59.39910125732422 50.46120071411133 L 59.39910125732422 52.49971008300781 Z M 86.72489929199219 50.19749450683594 C 85.95361328125 49.81591033935547 85.15350341796875 49.46669387817383 84.34529876708984 49.15889358520508 L 85.07160949707031 47.25360107421875 C 85.939208984375 47.58389282226563 86.80049896240234 47.9600944519043 87.63030242919922 48.37051010131836 L 86.72489929199219 50.19749450683594 Z M 19.23570251464844 40.28580093383789 L 9.360010147094727 40.28580093383789 L 9.360010147094727 30.41100311279297 L 19.23570251464844 30.41100311279297 L 19.23570251464844 40.28580093383789 Z M 47.66939544677734 39.97080230712891 L 42.47459411621094 39.97080230712891 L 42.47459411621094 37.93140411376953 L 47.66939544677734 37.93140411376953 L 47.66939544677734 39.97080230712891 Z M 39.45780944824219 39.97080230712891 L 25.55099487304688 39.97080230712891 L 25.55099487304688 37.93140411376953 L 39.45780944824219 37.93140411376953 L 39.45780944824219 39.97080230712891 Z M 71.75881195068359 34.97940063476563 L 69.72029876708984 34.97940063476563 L 69.72029876708984 26.34120178222656 L 71.75881195068359 26.34120178222656 L 71.75881195068359 34.97940063476563 Z M 59.39910125732422 32.76540374755859 L 25.55099487304688 32.76540374755859 L 25.55099487304688 30.72689437866211 L 59.39910125732422 30.72689437866211 L 59.39910125732422 32.76540374755859 Z M 71.75881195068359 23.81309509277344 L 69.72029876708984 23.81309509277344 L 69.72029876708984 20.38589477539063 L 71.75881195068359 20.38589477539063 L 71.75881195068359 23.81309509277344 Z M 42.47459411621094 18.88109397888184 L 29.87999534606934 18.88109397888184 L 29.87999534606934 16.84260177612305 L 42.47459411621094 16.84260177612305 L 42.47459411621094 18.88109397888184 Z M 27.43470191955566 18.88109397888184 L 24.40799522399902 18.88109397888184 L 24.40799522399902 16.84260177612305 L 27.43470191955566 16.84260177612305 L 27.43470191955566 18.88109397888184 Z M 33.44130325317383 13.45860195159912 C 31.15619468688965 13.45860195159912 29.29679489135742 11.59920215606689 29.29679489135742 9.313201904296875 C 29.29679489135742 7.02809476852417 31.15619468688965 5.168710231781006 33.44130325317383 5.168710231781006 C 35.72730255126953 5.168710231781006 37.58670043945313 7.02809476852417 37.58670043945313 9.313201904296875 C 37.58670043945313 11.59920215606689 35.72730255126953 13.45860195159912 33.44130325317383 13.45860195159912 Z M 33.44130325317383 7.208094596862793 C 32.28030395507813 7.208094596862793 31.33619499206543 8.153094291687012 31.33619499206543 9.313201904296875 C 31.33619499206543 10.47511005401611 32.28030395507813 11.42010974884033 33.44130325317383 11.42010974884033 C 34.60230255126953 11.42010974884033 35.54730224609375 10.47511005401611 35.54730224609375 9.313201904296875 C 35.54730224609375 8.153094291687012 34.60230255126953 7.208094596862793 33.44130325317383 7.208094596862793 Z M 47.75039291381836 8.953202247619629 C 47.13121032714844 6.633002281188965 45.93330383300781 4.469402313232422 44.28630065917969 2.69729471206665 L 45.77939605712891 1.309510111808777 C 47.6532096862793 3.325510025024414 49.01579284667969 5.786094665527344 49.72050094604492 8.427602767944336 L 47.75039291381836 8.953202247619629 Z M 19.13219451904297 8.953202247619629 L 17.16210174560547 8.427602767944336 C 17.95499420166016 5.454894542694092 19.55699348449707 2.749494791030884 21.79530143737793 0.6057100892066956 L 23.20650291442871 2.078094720840454 C 21.23730278015137 3.963602304458618 19.82879447937012 6.341402530670166 19.13219451904297 8.953202247619629 Z" stroke="none" fill="#ff9419"/>
      </g>
    </g>
  </g>
</svg>
