<svg id="business-and-finance" xmlns="http://www.w3.org/2000/svg" width="399" height="399" viewBox="0 0 399 399">
  <circle id="Oval" cx="129.5" cy="129.5" r="129.5" transform="translate(132 9)" fill="#4a90e2" opacity="0.45"/>
  <g id="Combined_Shape" data-name="Combined Shape" transform="translate(0 0)" fill="none" stroke-miterlimit="10">
    <path d="M56.233,399a56.22,56.22,0,0,1-39.8-95.976c5.819-5.817,23.777-20.928,49.46-40.36,12.963-9.807,25.838-19.156,38.269-27.787,14.278-9.913,27.5-18.544,39.3-25.654a136.879,136.879,0,0,1-16.808-42.3A138.418,138.418,0,0,1,136.836,78.6a136.978,136.978,0,0,1,27-38.221,139.028,139.028,0,0,1,21.627-17.667A137.619,137.619,0,0,1,261.269,0a137.9,137.9,0,0,1,51.842,10.1,137.159,137.159,0,0,1,23.967,12.619,139.006,139.006,0,0,1,39.256,39.257,137.029,137.029,0,0,1,20.147,49.5,138.445,138.445,0,0,1-7.556,78.19A137,137,0,0,1,358.7,235.205a139.379,139.379,0,0,1-21.744,17.755A136.659,136.659,0,0,1,287.5,273.079a138.306,138.306,0,0,1-97.71-17.472c-7.115,11.8-15.746,25.013-25.656,39.279-8.629,12.423-17.978,25.291-27.784,38.245-19.429,25.667-34.538,43.616-40.355,49.43A56.056,56.056,0,0,1,56.234,399ZM71.224,269.028c-25.418,19.211-43.17,34.136-48.909,39.873a47.935,47.935,0,0,0,67.8,67.782c5.739-5.737,20.666-23.482,39.876-48.887,20.986-27.752,39.749-55.008,52.834-76.748A139.906,139.906,0,0,1,163.835,235.2,138.487,138.487,0,0,1,148,216.194C126.257,229.279,98.99,248.042,71.224,269.028Zm98.49-222.769a129.479,129.479,0,0,0,91.555,221.013h.009A129.507,129.507,0,0,0,352.826,46.259a129.429,129.429,0,0,0-183.112,0ZM379.308,382.652V374.34h7.346v8.312Zm-16.628,0V374.34h8.314v8.312Zm-16.629,0V374.34h8.314v8.312Zm-16.628,0V374.34h8.314v8.312ZM216.191,368.18v-8.312h7.35v8.312Zm-16.628,0v-8.312h8.314v8.312Zm-16.629,0v-8.312h8.315v8.312Zm-16.628,0v-8.312h8.314v8.312ZM46.718,346.434,97.524,295.64l5.879,5.877L52.6,352.311Zm260.23-5.876v-8.312h7.346v8.312Zm-16.629,0v-8.312h8.314v8.312Zm-16.628,0v-8.312H282v8.312Zm-16.629,0v-8.312h8.314v8.312Zm4.209-48.379A153.629,153.629,0,0,0,344.5,267.9l4.49,6.994a161.914,161.914,0,0,1-87.716,25.594ZM111,282.178l15.319-15.315,5.879,5.877-15.319,15.315Zm244.5-22.036a157.912,157.912,0,0,0,14.969-13.181l5.879,5.877a165.433,165.433,0,0,1-15.764,13.879ZM88.926,184.467v-8.312h7.346v8.312Zm-16.628,0v-8.312h8.314v8.312Zm-16.629,0v-8.312h8.314v8.312Zm-16.628,0v-8.312h8.314v8.312Zm59.494-46.676a162.351,162.351,0,0,1,22.142-82.065l7.169,4.2a154.061,154.061,0,0,0-21,77.86ZM60.308,115.224v-8.312h7.346v8.312Zm-16.628,0v-8.312h8.314v8.312Zm-16.629,0v-8.312h8.314v8.312Zm-16.628,0v-8.312h8.314v8.312Zm122.1-76.991A165.41,165.41,0,0,1,146.2,22.746l5.878,5.878A157.174,157.174,0,0,0,139.1,43.331Zm-50.7-8.39V21.531h7.346v8.312Zm-16.629,0V21.531h8.314v8.312Zm-16.628,0V21.531h8.314v8.312Zm-16.629,0V21.531h8.314v8.312Z" stroke="none"/>
    <path d="M 56.23382186889648 397.9996948242188 C 63.41324234008789 397.9996948242188 70.40860748291016 396.6416931152344 77.02571868896484 393.96337890625 C 83.87813568115234 391.1895446777344 90.02150726318359 387.114990234375 95.28524017333984 381.8530578613281 C 101.0762405395508 376.0647888183594 116.1465072631836 358.1600646972656 135.5499725341797 332.5268859863281 C 145.3453979492188 319.5878601074219 154.6851959228516 306.7316284179688 163.3099212646484 294.3153686523438 C 173.2095642089844 280.064208984375 181.8298187255859 266.8671569824219 188.9311370849609 255.0907897949219 L 189.4498138427734 254.2307434082031 L 190.3076171875 254.7531127929688 C 211.5968780517578 267.717529296875 236.1582946777344 274.5700988769531 261.3366088867188 274.5700988769531 C 270.0397644042969 274.5700988769531 278.7781372070313 273.7380065917969 287.3088073730469 272.0968933105469 C 295.9557189941406 270.4326477050781 304.4616088867188 267.92236328125 312.5905151367188 264.6358337402344 C 320.900146484375 261.2780151367188 328.9143371582031 257.0689392089844 336.410400390625 252.1255340576172 C 344.1190795898438 247.041748046875 351.3822021484375 241.1109466552734 357.9979248046875 234.4978942871094 C 364.5491333007813 227.948486328125 370.4375 220.7371673583984 375.4993896484375 213.0643157958984 C 380.431396484375 205.5881042480469 384.6368713378906 197.5864715576172 387.9990844726563 189.2816314697266 C 391.3003845214844 181.1293182373047 393.823974609375 172.5996856689453 395.4996643066406 163.9297485351563 C 397.1585693359375 155.3476409912109 397.9997253417969 146.5542144775391 397.9997253417969 137.7936401367188 C 397.9997253417969 129.0333251953125 397.1585693359375 120.2395858764648 395.4996643066406 111.6565856933594 C 393.8242797851563 102.9882125854492 391.3007202148438 94.45863342285156 387.9990844726563 86.30458068847656 C 384.6377563476563 78.00200653076172 380.4322509765625 70.00037384033203 375.4994506835938 62.52205657958984 C 370.4369201660156 54.84921646118164 364.5485534667969 47.63816452026367 357.9979248046875 41.08932113647461 C 351.4282836914063 34.52148056030273 344.2044067382813 28.61995315551758 336.5267639160156 23.54863739013672 C 329.0459899902344 18.60732078552246 321.0412292480469 14.39274215698242 312.7349243164063 11.02195262908936 C 304.5817565917969 7.713479042053223 296.0545959472656 5.184531688690186 287.3904418945313 3.50537371635437 C 278.8076477050781 1.842952728271484 270.0191345214844 1.00000536441803 261.2690734863281 1.00000536441803 C 252.5193481445313 1.00000536441803 243.7318267822266 1.843215823173523 235.1505584716797 3.506268501281738 C 226.4853973388672 5.185689449310303 217.9585571289063 7.71463680267334 209.8069305419922 11.02284717559814 C 201.5047149658203 14.3915843963623 193.4992980957031 18.60616302490234 186.01318359375 23.54953193664551 C 178.3329772949219 28.6220588684082 171.1090850830078 34.52326965332031 164.5420837402344 41.08932113647461 C 153.4370880126953 52.19163513183594 144.4193420410156 64.95748138427734 137.7393951416016 79.03205871582031 C 131.2851409912109 92.63311004638672 127.1465072631836 107.1546859741211 125.4384536743164 122.1933212280273 C 123.7467651367188 137.0927429199219 124.4853439331055 152.0696868896484 127.6337127685547 166.7081604003906 C 130.8382873535156 181.6050109863281 136.4521942138672 195.7345275878906 144.3195037841797 208.7043762207031 L 144.8396606445313 209.5619049072266 L 143.9806060791016 210.0795288085938 C 132.1958160400391 217.1809539794922 118.9920806884766 225.8005828857422 104.7362976074219 235.6988983154297 C 92.31108093261719 244.3260650634766 79.44666290283203 253.666748046875 66.50045013427734 263.4615783691406 C 40.85929489135742 282.861572265625 22.94113540649414 297.9352722167969 17.14366340637207 303.73095703125 C 11.87961006164551 308.9923095703125 7.804609775543213 315.1347045898438 5.031925678253174 321.9873657226563 C 2.353873014450073 328.6069641113281 0.9973467588424683 335.6037902832031 1.000030994415283 342.7835388183594 C 1.002662539482117 349.9647521972656 2.364241361618042 356.9628601074219 5.04697847366333 363.5835876464844 C 7.824767589569092 370.4391174316406 11.90439891815186 376.5858459472656 17.1723461151123 381.8529663085938 C 22.43734741210938 387.1143798828125 28.58224105834961 391.1885986328125 35.43639755249023 393.9624328613281 C 42.05676651000977 396.6413879394531 49.05376815795898 397.9996948242188 56.23292541503906 397.9996948242188 L 56.23382186889648 397.9996948242188 M 148.2900238037109 214.8542633056641 L 148.8241424560547 215.6246948242188 C 153.5580291748047 222.4534301757813 158.8462982177734 228.8029479980469 164.5420837402344 234.4970092773438 C 170.2518157958984 240.2048950195313 176.5946655273438 245.4972229003906 183.394287109375 250.2268524169922 L 184.1628265380859 250.7614288330078 L 183.6800842285156 251.5634765625 C 170.5792388916016 273.3305969238281 151.794921875 300.6177978515625 130.787353515625 328.3984680175781 C 111.547607421875 353.8422546386719 96.58271789550781 371.6300048828125 90.82039642333984 377.3896484375 C 81.59476470947266 386.6125183105469 69.3094482421875 391.6918029785156 56.22745132446289 391.6918029785156 C 43.1440315246582 391.6908874511719 30.85929489135742 386.611572265625 21.6363468170166 377.3895874023438 C 12.40339946746826 368.1584777832031 7.316083431243896 355.8690490722656 7.31150484085083 342.7852783203125 C 7.306030750274658 329.7016296386719 12.38345241546631 317.4166870117188 21.60850524902344 308.1934814453125 C 27.37213706970215 302.4317016601563 45.16829299926758 287.4682006835938 70.62129211425781 268.2302551269531 C 98.41534423828125 247.2226867675781 125.7133483886719 228.4383697509766 147.4867095947266 215.3375854492188 L 148.2900238037109 214.8542633056641 M 261.2709350585938 7.314215660095215 L 261.2709350585938 8.314215660095215 L 261.2709350585938 7.314215660095215 C 296.1028137207031 7.313321113586426 328.8688354492188 20.89305877685547 353.533203125 45.55189895629883 C 378.1383972167969 70.15168762207031 391.6891479492188 102.9104766845703 391.6891479492188 137.7936401367188 C 391.6891479492188 172.6761627197266 378.1383972167969 205.4345855712891 353.5331420898438 230.034423828125 C 328.8688354492188 254.6923675537109 296.1053466796875 268.2721252441406 261.2781372070313 268.2721252441406 L 261.26904296875 268.2721252441406 C 226.4345092773438 268.2694396972656 193.6685028076172 254.6896362304688 169.0068206787109 230.0343780517578 C 144.401611328125 205.4345245361328 130.8509216308594 172.6761627197266 130.8509216308594 137.7936401367188 C 130.8509216308594 102.9104766845703 144.401611328125 70.15174102783203 169.0068206787109 45.55189895629883 C 193.6693420410156 20.89484786987305 226.43603515625 7.315110683441162 261.2709350585938 7.314215660095215 M 385.6535034179688 381.652099609375 L 385.6535034179688 375.3397521972656 L 380.3077087402344 375.3397521972656 L 380.3077087402344 381.652099609375 L 385.6535034179688 381.652099609375 M 369.9934997558594 381.652099609375 L 369.9934997558594 375.3397521972656 L 363.6793518066406 375.3397521972656 L 363.6793518066406 381.652099609375 L 369.9934997558594 381.652099609375 M 353.3641967773438 381.652099609375 L 353.3641967773438 375.3397521972656 L 347.0500183105469 375.3397521972656 L 347.0500183105469 381.652099609375 L 353.3641967773438 381.652099609375 M 336.7358093261719 381.652099609375 L 336.7358093261719 375.3397521972656 L 330.4216003417969 375.3397521972656 L 330.4216003417969 381.652099609375 L 336.7358093261719 381.652099609375 M 222.5410766601563 367.1801147460938 L 222.5410766601563 360.86767578125 L 217.1908264160156 360.86767578125 L 217.1908264160156 367.1801147460938 L 222.5410766601563 367.1801147460938 M 206.8766174316406 367.1801147460938 L 206.8766174316406 360.86767578125 L 200.5623931884766 360.86767578125 L 200.5623931884766 367.1801147460938 L 206.8766174316406 367.1801147460938 M 190.2481842041016 367.1801147460938 L 190.2481842041016 360.86767578125 L 183.9330902099609 360.86767578125 L 183.9330902099609 367.1801147460938 L 190.2481842041016 367.1801147460938 M 173.6189270019531 367.1801147460938 L 173.6189270019531 360.86767578125 L 167.3047180175781 360.86767578125 L 167.3047180175781 367.1801147460938 L 173.6189270019531 367.1801147460938 M 52.59606552124023 350.8972473144531 L 101.988410949707 301.5171203613281 L 97.52405548095703 297.0541381835938 L 48.13248062133789 346.4343566894531 L 52.59606552124023 350.8972473144531 M 313.2935180664063 339.5582275390625 L 313.2935180664063 333.245849609375 L 307.9477233886719 333.245849609375 L 307.9477233886719 339.5582275390625 L 313.2935180664063 339.5582275390625 M 297.6325988769531 339.5582275390625 L 297.6325988769531 333.245849609375 L 291.3183898925781 333.245849609375 L 291.3183898925781 339.5582275390625 L 297.6325988769531 339.5582275390625 M 281.0041809082031 339.5582275390625 L 281.0041809082031 333.245849609375 L 274.6900329589844 333.245849609375 L 274.6900329589844 339.5582275390625 L 281.0041809082031 339.5582275390625 M 264.3749389648438 339.5582275390625 L 264.3749389648438 333.245849609375 L 258.0607299804688 333.245849609375 L 258.0607299804688 339.5582275390625 L 264.3749389648438 339.5582275390625 M 262.27001953125 299.4889831542969 C 292.7040100097656 299.30419921875 322.1663513183594 290.7097473144531 347.6024780273438 274.5941162109375 L 344.1927795410156 269.2830810546875 C 319.7746887207031 284.7426147460938 291.4899291992188 292.9920349121094 262.27001953125 293.1764221191406 L 262.27001953125 299.4889831542969 M 116.8757934570313 286.640869140625 L 130.7803039550781 272.7396240234375 L 126.3159561157227 268.2766418457031 L 112.4114303588867 282.1778869628906 L 116.8757934570313 286.640869140625 M 360.7537841796875 265.3118286132813 C 365.676513671875 261.458984375 370.4359436035156 257.2685852050781 374.9239196777344 252.8357849121094 L 370.4592895507813 248.3725738525391 C 366.1622619628906 252.6133117675781 361.6059265136719 256.6257934570313 356.8935546875 260.3191223144531 L 360.7537841796875 265.3118286132813 M 95.27208709716797 183.4666900634766 L 95.27208709716797 177.1543273925781 L 89.92629241943359 177.1543273925781 L 89.92629241943359 183.4666900634766 L 95.27208709716797 183.4666900634766 M 79.61208343505859 183.4666900634766 L 79.61208343505859 177.1543273925781 L 73.29792785644531 177.1543273925781 L 73.29792785644531 183.4666900634766 L 79.61208343505859 183.4666900634766 M 62.98281860351563 183.4666900634766 L 62.98281860351563 177.1543273925781 L 56.66860961914063 177.1543273925781 L 56.66860961914063 183.4666900634766 L 62.98281860351563 183.4666900634766 M 46.35440063476563 183.4666900634766 L 46.35440063476563 177.1543273925781 L 40.04018783569336 177.1543273925781 L 40.04018783569336 183.4666900634766 L 46.35440063476563 183.4666900634766 M 105.8511657714844 136.7908935546875 C 106.0225372314453 109.7988815307617 113.1438598632813 83.39155578613281 126.479606628418 60.28950881958008 L 121.0352172851563 57.09640502929688 C 107.1308898925781 81.16358947753906 99.70913696289063 108.6766662597656 99.53688049316406 136.7908935546875 L 105.8511657714844 136.7908935546875 M 66.65392303466797 114.2243194580078 L 66.65392303466797 107.9119033813477 L 61.30813598632813 107.9119033813477 L 61.30813598632813 114.2243194580078 L 66.65392303466797 114.2243194580078 M 50.99392700195313 114.2243194580078 L 50.99392700195313 107.9119033813477 L 44.67971420288086 107.9119033813477 L 44.67971420288086 114.2243194580078 L 50.99392700195313 114.2243194580078 M 34.36460876464844 114.2243194580078 L 34.36460876464844 107.9119033813477 L 28.05039978027344 107.9119033813477 L 28.05039978027344 114.2243194580078 L 34.36460876464844 114.2243194580078 M 17.7361888885498 114.2243194580078 L 17.7361888885498 107.9119033813477 L 11.42197799682617 107.9119033813477 L 11.42197799682617 114.2243194580078 L 17.7361888885498 114.2243194580078 M 138.9206085205078 41.9294319152832 C 142.5388946533203 37.32949447631836 146.4830780029297 32.86186981201172 150.6655731201172 28.62586975097656 L 146.2015228271484 24.16180801391602 C 141.8512115478516 28.56238174438477 137.7304229736328 33.22946166992188 133.9317932128906 38.05808258056641 L 138.9206085205078 41.9294319152832 M 88.17202758789063 28.84311103820801 L 88.17202758789063 22.53068923950195 L 82.82618713378906 22.53068923950195 L 82.82618713378906 28.84311103820801 L 88.17202758789063 28.84311103820801 M 72.51108551025391 28.84311103820801 L 72.51108551025391 22.53068923950195 L 66.19692230224609 22.53068923950195 L 66.19692230224609 28.84311103820801 L 72.51108551025391 28.84311103820801 M 55.88271331787109 28.84311103820801 L 55.88271331787109 22.53068923950195 L 49.56850433349609 22.53068923950195 L 49.56850433349609 28.84311103820801 L 55.88271331787109 28.84311103820801 M 39.25339889526367 28.84311103820801 L 39.25339889526367 22.53068923950195 L 32.93924331665039 22.53068923950195 L 32.93924331665039 28.84311103820801 L 39.25339889526367 28.84311103820801 M 56.23382186889648 398.9996948242188 L 56.23292541503906 398.9996948242188 C 48.92397689819336 398.9996948242188 41.80050277709961 397.6164245605469 35.06129455566406 394.8894348144531 C 28.08271598815918 392.0652160644531 21.82592582702637 387.9171142578125 16.46550369262695 382.5603332519531 C 11.1023998260498 377.1981201171875 6.948925495147705 370.9404296875 4.12018871307373 363.9591064453125 C 1.388715147972107 357.2181091308594 0.002715165028348565 350.09375 3.095446299994364e-05 342.7839050292969 C -0.002705887658521533 335.47412109375 1.378820419311523 328.3506469726563 4.104925632476807 321.6123352050781 C 6.928188800811768 314.6346435546875 11.07718849182129 308.3804931640625 16.43671607971191 303.023681640625 C 22.25518798828125 297.2070007324219 40.21382141113281 282.0960083007813 65.89708709716797 262.6641235351563 C 78.85981750488281 252.8567962646484 91.73519134521484 243.5084838867188 104.1659774780273 234.8774719238281 C 118.4436111450195 224.9640045166016 131.6655120849609 216.3330078125 143.4645080566406 209.2230072021484 C 135.5381927490234 196.1558990478516 129.8834991455078 181.9215240478516 126.6560821533203 166.9184722900391 C 123.484504699707 152.1720123291016 122.741081237793 137.0862121582031 124.44482421875 122.0805282592773 C 126.1656112670898 106.9299011230469 130.3352966308594 92.30221557617188 136.8359832763672 78.60332489013672 C 143.5652923583984 64.42469024658203 152.6489715576172 51.56553268432617 163.8350830078125 40.38211059570313 C 170.4510345458984 33.76710891723633 177.7275085449219 27.82353210449219 185.4620819091797 22.71511077880859 C 193.0005035400391 17.73721504211426 201.0644989013672 13.49100494384766 209.4309234619141 10.09621620178223 C 217.6451873779297 6.762584209442139 226.2348175048828 4.215636730194092 234.9602966308594 2.524531602859497 C 243.60302734375 0.8495842814445496 252.4544982910156 5.306846105668228e-06 261.2690734863281 5.306846105668228e-06 C 270.0855102539063 5.306846105668228e-06 278.9379272460938 0.8495842814445496 287.5805969238281 2.523636817932129 C 296.3061218261719 4.2146897315979 304.8957214355469 6.76168966293335 313.1109313964844 10.09532070159912 C 321.4764099121094 13.49011039733887 329.5404052734375 17.73542594909668 337.0779113769531 22.7142162322998 C 344.8116149902344 27.82258415222168 352.088134765625 33.76710891723633 358.7049255371094 40.38211059570313 C 365.3045959472656 46.98000717163086 371.235595703125 54.24390029907227 376.3341369628906 61.97132110595703 C 381.3011779785156 69.5015869140625 385.5384521484375 77.56200408935547 388.9259643554688 85.9293212890625 C 392.2524108886719 94.14447784423828 394.7940368652344 102.7359008789063 396.4815063476563 111.466796875 C 398.15283203125 120.1140060424805 398.9997253417969 128.9709014892578 398.9997253417969 137.7936401367188 C 398.9997253417969 146.6154327392578 398.15283203125 155.4732208251953 396.4815063476563 164.1195373535156 C 394.7940368652344 172.8504333496094 392.2524108886719 181.4426879882813 388.9259643554688 189.6569976806641 C 385.5384521484375 198.0243225097656 381.3011779785156 206.0855865478516 376.3341369628906 213.6150054931641 C 371.235595703125 221.3433227539063 365.3045959472656 228.6072082519531 358.7049255371094 235.2051086425781 C 352.0440368652344 241.8633270263672 344.7288208007813 247.8375244140625 336.9609375 252.9603271484375 C 329.41259765625 257.9382019042969 321.339599609375 262.1790161132813 312.9651489257813 265.5630187988281 C 304.7732849121094 268.875 296.2044067382813 271.4031066894531 287.4978332519531 273.0788879394531 C 278.908203125 274.7313232421875 270.1071472167969 275.5700988769531 261.3366088867188 275.5700988769531 C 235.974609375 275.5700988769531 211.2336120605469 268.6671142578125 189.7875061035156 255.6072082519531 C 182.6730346679688 267.4053344726563 174.0410766601563 280.6199951171875 164.1311950683594 294.8858947753906 C 155.5019836425781 307.30859375 146.1537170410156 320.1768493652344 136.3472900390625 333.1304931640625 C 116.918083190918 358.7976379394531 101.8089294433594 376.7463073730469 95.9921875 382.5603332519531 C 90.63271331787109 387.9179992675781 84.37771606445313 392.0661010742188 77.40092468261719 394.8903198242188 C 70.66350555419922 397.6173095703125 63.54182052612305 398.9996948242188 56.23382186889648 398.9996948242188 Z M 148.0022888183594 216.1944274902344 C 126.2565078735352 229.2786407470703 98.99008178710938 248.0417938232422 71.2242431640625 269.0280151367188 C 45.80640029907227 288.2394409179688 28.05392646789551 303.1641235351563 22.31550407409668 308.9006958007813 C 13.27950477600098 317.9349060058594 8.306136131286621 329.9678955078125 8.311504364013672 342.7848510742188 C 8.315978050231934 355.6017456054688 13.29929447174072 367.6401062011719 22.34339904785156 376.6824340820313 C 31.37760925292969 385.7156982421875 43.41150283813477 390.6908874511719 56.22750473022461 390.6918029785156 C 69.04171752929688 390.6918029785156 81.07650756835938 385.7166442871094 90.11339569091797 376.6824340820313 C 95.85271453857422 370.94580078125 110.7791900634766 353.2005310058594 129.9897155761719 327.7953186035156 C 150.9759216308594 300.0429077148438 169.7390899658203 272.7873229980469 182.8232879638672 251.0477905273438 C 175.9734039306641 246.2832183837891 169.5851898193359 240.9524841308594 163.8350830078125 235.2042083740234 C 158.0958251953125 229.4666900634766 152.7696075439453 223.0713195800781 148.0022888183594 216.1944274902344 Z M 261.2709350585938 8.314215660095215 C 226.7028198242188 8.315110206604004 194.1876068115234 21.79079437255859 169.7138671875 46.25910949707031 C 145.2978210449219 70.66979217529297 131.8509216308594 103.1777954101563 131.8509216308594 137.7936401367188 C 131.8509216308594 172.4085388183594 145.2978210449219 204.9164733886719 169.7138671875 229.3272094726563 C 194.1867218017578 253.7936859130859 226.7019195556641 267.2694396972656 261.2690734863281 267.2721252441406 L 261.2781372070313 267.2721252441406 C 295.8390197753906 267.2721252441406 328.3506164550781 253.7964324951172 352.8261413574219 229.3272094726563 C 377.2422485351563 204.9164733886719 390.6891479492188 172.4085388183594 390.6891479492188 137.7936401367188 C 390.6891479492188 103.1777954101563 377.2422485351563 70.66979217529297 352.8261413574219 46.25910949707031 C 328.3506164550781 21.78900527954102 295.8353881835938 8.313321113586426 261.2709350585938 8.314215660095215 Z M 386.6535034179688 382.652099609375 L 379.3077087402344 382.652099609375 L 379.3077087402344 374.3397521972656 L 386.6535034179688 374.3397521972656 L 386.6535034179688 382.652099609375 Z M 370.9934997558594 382.652099609375 L 362.6793518066406 382.652099609375 L 362.6793518066406 374.3397521972656 L 370.9934997558594 374.3397521972656 L 370.9934997558594 382.652099609375 Z M 354.3641967773438 382.652099609375 L 346.0500183105469 382.652099609375 L 346.0500183105469 374.3397521972656 L 354.3641967773438 374.3397521972656 L 354.3641967773438 382.652099609375 Z M 337.7358093261719 382.652099609375 L 329.4216003417969 382.652099609375 L 329.4216003417969 374.3397521972656 L 337.7358093261719 374.3397521972656 L 337.7358093261719 382.652099609375 Z M 223.5410766601563 368.1801147460938 L 216.1908264160156 368.1801147460938 L 216.1908264160156 359.86767578125 L 223.5410766601563 359.86767578125 L 223.5410766601563 368.1801147460938 Z M 207.8766174316406 368.1801147460938 L 199.5623931884766 368.1801147460938 L 199.5623931884766 359.86767578125 L 207.8766174316406 359.86767578125 L 207.8766174316406 368.1801147460938 Z M 191.2481842041016 368.1801147460938 L 182.9330902099609 368.1801147460938 L 182.9330902099609 359.86767578125 L 191.2481842041016 359.86767578125 L 191.2481842041016 368.1801147460938 Z M 174.6189270019531 368.1801147460938 L 166.3047180175781 368.1801147460938 L 166.3047180175781 359.86767578125 L 174.6189270019531 359.86767578125 L 174.6189270019531 368.1801147460938 Z M 52.59603118896484 352.3113098144531 L 46.71813583374023 346.434326171875 L 97.52403259277344 295.6401062011719 L 103.4028167724609 301.5171203613281 L 52.59603118896484 352.3113098144531 Z M 314.2935180664063 340.5582275390625 L 306.9477233886719 340.5582275390625 L 306.9477233886719 332.245849609375 L 314.2935180664063 332.245849609375 L 314.2935180664063 340.5582275390625 Z M 298.6325988769531 340.5582275390625 L 290.3183898925781 340.5582275390625 L 290.3183898925781 332.245849609375 L 298.6325988769531 332.245849609375 L 298.6325988769531 340.5582275390625 Z M 282.0041809082031 340.5582275390625 L 273.6900329589844 340.5582275390625 L 273.6900329589844 332.245849609375 L 282.0041809082031 332.245849609375 L 282.0041809082031 340.5582275390625 Z M 265.3749389648438 340.5582275390625 L 257.0607299804688 340.5582275390625 L 257.0607299804688 332.245849609375 L 265.3749389648438 332.245849609375 L 265.3749389648438 340.5582275390625 Z M 261.27001953125 300.4920043945313 L 261.27001953125 292.1795959472656 C 290.9916076660156 292.1795959472656 319.7682495117188 283.7862243652344 344.4957275390625 267.9039001464844 L 348.9858093261719 274.8977966308594 C 322.9182434082031 291.642333984375 292.5872802734375 300.4920043945313 261.27001953125 300.4920043945313 Z M 116.8758239746094 288.0549011230469 L 110.9970321655273 282.1778869628906 L 126.3159255981445 266.8626403808594 L 132.1947174072266 272.7395935058594 L 116.8758239746094 288.0549011230469 Z M 360.5760192871094 266.716796875 L 355.4928283691406 260.142333984375 C 360.7182006835938 256.101318359375 365.7528076171875 251.6670074462891 370.4616088867188 246.9609069824219 L 376.3404541015625 252.8379058837891 C 371.3832397460938 257.7942199707031 366.081298828125 262.4634399414063 360.5760192871094 266.716796875 Z M 96.27208709716797 184.4666900634766 L 88.92629241943359 184.4666900634766 L 88.92629241943359 176.1543273925781 L 96.27208709716797 176.1543273925781 L 96.27208709716797 184.4666900634766 Z M 80.61208343505859 184.4666900634766 L 72.29792785644531 184.4666900634766 L 72.29792785644531 176.1543273925781 L 80.61208343505859 176.1543273925781 L 80.61208343505859 184.4666900634766 Z M 63.98281860351563 184.4666900634766 L 55.66860961914063 184.4666900634766 L 55.66860961914063 176.1543273925781 L 63.98281860351563 176.1543273925781 L 63.98281860351563 184.4666900634766 Z M 47.35440063476563 184.4666900634766 L 39.04018783569336 184.4666900634766 L 39.04018783569336 176.1543273925781 L 47.35440063476563 176.1543273925781 L 47.35440063476563 184.4666900634766 Z M 106.8479766845703 137.7908935546875 L 98.53382110595703 137.7908935546875 C 98.53382110595703 108.8135833740234 106.1900863647461 80.43658447265625 120.6756134033203 55.72621536254883 L 127.8449783325195 59.93100357055664 C 114.1109771728516 83.36431884765625 106.8479766845703 110.288688659668 106.8479766845703 137.7908935546875 Z M 67.65392303466797 115.2243194580078 L 60.30813598632813 115.2243194580078 L 60.30813598632813 106.9119033813477 L 67.65392303466797 106.9119033813477 L 67.65392303466797 115.2243194580078 Z M 51.99392700195313 115.2243194580078 L 43.67971420288086 115.2243194580078 L 43.67971420288086 106.9119033813477 L 51.99392700195313 106.9119033813477 L 51.99392700195313 115.2243194580078 Z M 35.36460876464844 115.2243194580078 L 27.05039978027344 115.2243194580078 L 27.05039978027344 106.9119033813477 L 35.36460876464844 106.9119033813477 L 35.36460876464844 115.2243194580078 Z M 18.7361888885498 115.2243194580078 L 10.42197799682617 115.2243194580078 L 10.42197799682617 106.9119033813477 L 18.7361888885498 106.9119033813477 L 18.7361888885498 115.2243194580078 Z M 139.094970703125 43.33053207397461 L 132.5259246826172 38.2328987121582 C 136.7153930664063 32.83832168579102 141.3152923583984 27.62642669677734 146.1996154785156 22.74568939208984 L 152.0774993896484 28.62358474731445 C 147.4416046142578 33.26042556762695 143.0693969726563 38.20858383178711 139.094970703125 43.33053207397461 Z M 89.17202758789063 29.84311103820801 L 81.82618713378906 29.84311103820801 L 81.82618713378906 21.53068923950195 L 89.17202758789063 21.53068923950195 L 89.17202758789063 29.84311103820801 Z M 73.51108551025391 29.84311103820801 L 65.19692230224609 29.84311103820801 L 65.19692230224609 21.53068923950195 L 73.51108551025391 21.53068923950195 L 73.51108551025391 29.84311103820801 Z M 56.88271331787109 29.84311103820801 L 48.56850433349609 29.84311103820801 L 48.56850433349609 21.53068923950195 L 56.88271331787109 21.53068923950195 L 56.88271331787109 29.84311103820801 Z M 40.25339889526367 29.84311103820801 L 31.93924140930176 29.84311103820801 L 31.93924140930176 21.53068923950195 L 40.25339889526367 21.53068923950195 L 40.25339889526367 29.84311103820801 Z" stroke="none" fill="#4a90e2"/>
  </g>
</svg>
