<svg xmlns="http://www.w3.org/2000/svg" width="16" height="27.555" viewBox="0 0 16 27.555">
  <g id="app" transform="translate(0 0)">
    <path id="Combined_Shape" data-name="Combined Shape" d="M3.556,27.555A3.564,3.564,0,0,1,0,24V3.556A3.564,3.564,0,0,1,3.556,0h8.888A3.565,3.565,0,0,1,16,3.556V24a3.565,3.565,0,0,1-3.556,3.555ZM.889,24a2.673,2.673,0,0,0,2.667,2.667h8.888A2.674,2.674,0,0,0,15.111,24V22.222H.889Zm0-2.667H15.111V4.444H.889Zm0-17.778H15.111A2.674,2.674,0,0,0,12.444.889H3.556A2.672,2.672,0,0,0,.889,3.556ZM6.666,24.444A1.333,1.333,0,1,1,8,25.778,1.335,1.335,0,0,1,6.666,24.444Zm.889,0A.444.444,0,1,0,8,24,.445.445,0,0,0,7.556,24.444ZM6.666,2.667a.445.445,0,0,1,0-.889H9.333a.445.445,0,1,1,0,.889Z" transform="translate(0 0)" fill="#444e5b"/>
  </g>
</svg>
