<?xml version="1.0" encoding="UTF-8"?>
<svg width="26px" height="26px" viewBox="0 0 26 26" version="1.1" xmlns="http://www.w3.org/2000/svg" xmlns:xlink="http://www.w3.org/1999/xlink">
    <!-- Generator: Sketch 61.2 (89653) - https://sketch.com -->
    <title>dog</title>
    <desc>Created with Sketch.</desc>
    <g id="Welcome" stroke="none" stroke-width="1" fill="none" fill-rule="evenodd">
        <g id="Poisk24_home-page-другие-категории" transform="translate(-583.000000, -981.000000)" fill="#444E5B">
            <g id="dog" transform="translate(583.000000, 981.000000)">
                <path d="M18.3536877,-7.33635375e-13 C19.6901186,-7.33635375e-13 20.969,0.629027344 21.7747431,1.68263672 L21.7747431,1.68263672 L22.6928617,2.88330859 L25.0098419,3.83738672 L25.0098419,3.83738672 L25.7305968,4.13415234 C25.8742134,4.19326172 25.9677312,4.33199609 25.9677312,4.48571094 C25.9677312,4.61210547 25.9611028,4.73865234 25.9487708,4.86448828 C25.9483597,4.86875391 25.9478972,4.87301953 25.9474348,4.87723437 C25.873751,5.60259375 25.5928379,6.24619531 25.1078814,6.794125 C24.4289012,7.56122656 23.429083,8.00114453 22.3647787,8.00114453 L22.3647787,8.00114453 L20.9080079,8.00114453 L20.9080079,13.4811016 C20.9080079,14.4220273 20.5442648,15.2804336 19.9486285,15.9265742 L19.9486285,15.9265742 L19.9486285,18.6383945 C19.9486285,18.8487305 19.7761344,19.0192539 19.563253,19.0192539 C19.3503715,19.0192539 19.1778775,18.8487305 19.1778775,18.6383945 L19.1778775,18.6383945 L19.1778775,16.5627617 C18.715581,16.849168 18.1847905,17.0372109 17.6155652,17.0960664 L17.6155652,17.0960664 L17.6155652,23.4566719 C18.5118972,23.5625 19.0064111,24.0353242 19.2790514,24.5083516 L19.2790514,24.5083516 L21.0994111,24.5083516 C20.9649921,24.0866641 20.5928735,23.488918 19.563253,23.488918 C19.3503715,23.488918 19.1778775,23.3184453 19.1778775,23.1080586 L19.1778775,23.1080586 L19.1778775,20.1617305 C19.1778775,19.9513437 19.3503715,19.7808711 19.563253,19.7808711 C19.7761344,19.7808711 19.9486285,19.9513437 19.9486285,20.1617305 L19.9486285,20.1617305 L19.9486285,22.7490352 C21.8530514,22.9738437 21.9443083,24.8554414 21.9450277,24.8756016 C21.9526838,25.0880195 21.775,25.2700703 21.5599091,25.2700703 L21.5599091,25.2700703 L19.5665929,25.2700703 C19.605747,25.4549648 19.6117589,25.5782109 19.611913,25.5832891 C19.6195692,25.795707 19.441834,25.977707 19.2267945,25.977707 L19.2267945,25.977707 L16.0376838,25.977707 C14.9394664,25.977707 14.0459605,25.0946719 14.0459605,24.0093242 L14.0459605,24.0093242 L14.0459605,16.9944023 L13.0560593,16.9944023 C11.6699921,18.5354102 9.60905534,19.3809687 8.87329644,19.6473164 L8.87329644,19.6473164 L8.87329644,22.7490352 C10.7777194,22.9738437 10.8690277,24.8554414 10.869747,24.8756016 C10.8774032,25.0880703 10.6997708,25.2700703 10.4846285,25.2700703 L10.4846285,25.2700703 L7.29551779,25.2700703 C6.1973004,25.2700703 5.30379447,24.3870352 5.30379447,23.3016367 L5.30379447,23.3016367 L5.30379447,19.576375 C4.57456126,19.9734336 3.92959684,20.229168 3.58106324,20.3551562 L3.58106324,20.3551562 L3.58106324,23.4566719 C5.48553755,23.6814805 5.57679447,25.5630781 5.57751383,25.5832891 C5.58516996,25.795707 5.40743478,25.977707 5.19239526,25.977707 L5.19239526,25.977707 L2.00333597,25.977707 C0.905118577,25.977707 0.0116126482,25.0946719 0.0116126482,24.0093242 L0.0116126482,24.0093242 L0.0116126482,19.9735352 C0.0116126482,19.0932422 0.289699605,18.2464141 0.815762846,17.524457 C0.992264822,17.2821797 1.16357708,17.0212148 1.32497233,16.7489258 C1.43251779,16.5673828 1.66872727,16.5063437 1.85226877,16.6127305 C2.03591304,16.7190156 2.09767589,16.9523555 1.99007905,17.1338477 C1.81655731,17.4267539 1.63188538,17.7079297 1.44120158,17.9696055 C1.01019763,18.5611562 0.782363636,19.2540664 0.782363636,19.9735859 L0.782363636,19.9735859 L0.782363636,24.009375 C0.782363636,24.6747617 1.33005929,25.2160391 2.00333597,25.2160391 L2.00333597,25.2160391 L4.72588538,25.2160391 C4.69104743,25.1091445 4.6416166,24.9905195 4.57142688,24.8737734 C4.3014585,24.4244102 3.83859684,24.1966055 3.19573913,24.1966055 C2.98290909,24.1966055 2.81036364,24.026082 2.81036364,23.8157461 L2.81036364,23.8157461 L2.81036364,20.0841367 C2.81036364,19.9179805 2.91939921,19.7709687 3.07971542,19.7209492 C3.11285771,19.7105898 6.42739526,18.6513945 7.76845059,16.4192539 C7.83786957,16.3037266 7.96386166,16.2328359 8.09982213,16.2328359 L8.09982213,16.2328359 L14.4314387,16.2328359 C14.6443202,16.2328359 14.8168142,16.4033086 14.8168142,16.6136953 L14.8168142,16.6136953 L14.8168142,24.0094766 C14.8168142,24.6748633 15.3645099,25.2161406 16.0377866,25.2161406 L16.0377866,25.2161406 L18.7603874,25.2161406 C18.7255494,25.1092461 18.6761186,24.9906211 18.6059289,24.873875 C18.3359605,24.4245117 17.8730988,24.196707 17.2302925,24.196707 C17.0174625,24.196707 16.844917,24.0261836 16.844917,23.8158477 L16.844917,23.8158477 L16.844917,16.7350625 C16.844917,16.5247266 17.0174625,16.3542031 17.2302925,16.3542031 C18.833249,16.3542031 20.1373597,15.065375 20.1373597,13.4812031 L20.1373597,13.4812031 L20.1373597,11.5031211 L12.8644506,8.8595 L7.32218577,8.8595 C6.48417391,8.8595 5.67370356,9.10116797 4.9783834,9.55830078 C4.85603953,9.63873828 4.69808696,9.64341016 4.57111858,9.57038672 C3.3896087,8.89098437 2.55236759,7.98001953 2.08262055,6.86278125 C1.79086561,6.16875391 1.63743478,5.38829687 1.62649012,4.54304297 C1.62371542,4.33270703 1.79405138,4.16005078 2.00688142,4.15735937 L2.00688142,4.15735937 C2.22248617,4.15730859 2.3944664,4.32463281 2.39713834,4.53329297 C2.40679842,5.28099609 2.54044664,5.96644141 2.79433202,6.57048437 C3.1716917,7.46794141 3.83279051,8.21488281 4.76092885,8.79353516 C5.53445455,8.33762109 6.41475494,8.09773047 7.32218577,8.09773047 L7.32218577,8.09773047 L12.6767984,8.09773047 L12.8496522,7.69041406 L5.90611067,0.682804687 C5.7571502,0.532542969 5.75971937,0.291382812 5.91181423,0.14421875 C6.06380632,-0.00299609375 6.30782609,-0.000558593751 6.45673518,0.149855469 L6.45673518,0.149855469 L13.1730593,6.9281875 L15.2462767,2.04226953 C15.772751,0.801632812 16.9924901,-7.33635375e-13 18.3536877,-7.33635375e-13 Z M11.9693004,16.9944531 L8.31383399,16.9944531 C7.72950198,17.8819062 6.89513834,18.5841602 6.07459684,19.1177187 L6.07459684,19.1177187 L6.07459684,23.3016875 C6.07459684,23.9670742 6.62234387,24.5084023 7.29556917,24.5084023 L7.29556917,24.5084023 L10.0241818,24.5084023 C9.88976285,24.0867148 9.51759289,23.4889687 8.48802372,23.4889687 C8.27514229,23.4889687 8.10264822,23.3184961 8.10264822,23.1081094 L8.10264822,23.1081094 L8.10264822,19.3764492 C8.10264822,19.210293 8.21163241,19.0632812 8.372,19.0132617 C8.3952253,19.006 10.441004,18.3534102 11.9693004,16.9944531 L11.9693004,16.9944531 Z M1.02432806,0.632226562 C1.25591304,0.102273437 1.88150593,-0.143152344 2.41856522,0.0860742187 C2.95490514,0.314996094 3.20334387,0.932648437 2.97237549,1.46295703 C2.97032016,1.46783203 2.68832806,2.1344375 2.52004743,3.08917578 C2.48351383,3.29641406 2.28368379,3.43514844 2.07424506,3.39904297 C1.86454941,3.3629375 1.72416996,3.16570312 1.76070356,2.95846484 C1.94583794,1.90835937 2.26061265,1.17050781 2.26379842,1.16314453 C2.32751383,1.01684375 2.25958498,0.847945312 2.11293676,0.785382812 C1.966083,0.722464844 1.79502767,0.789800781 1.73162055,0.934832031 C1.72905138,0.940824219 1.72406719,0.951792969 1.71671937,0.967738281 C1.43955731,1.56868359 0.113043478,4.70016016 1.21706719,7.33926172 C1.58065613,8.20838281 2.28532806,9.44795312 3.57772332,10.4174687 C3.73351779,10.5343164 3.77606324,10.7479531 3.67663636,10.9143633 C3.25606324,11.6186992 3.06096047,12.4230234 3.11244664,13.2403984 C3.11516996,13.284375 3.11840711,13.328707 3.12210672,13.373293 C3.17852569,14.055793 3.03429249,14.841582 2.69336364,15.7089258 C2.63411858,15.8596953 2.48839526,15.9519648 2.33403953,15.9519648 C2.28764032,15.9519648 2.24047036,15.9436367 2.19458498,15.9260156 C1.99619368,15.8498437 1.89784585,15.6291484 1.97492095,15.433082 C2.27330435,14.6741055 2.40078656,14.0019648 2.35397628,13.4354492 C2.34986561,13.3858359 2.34626877,13.3364766 2.34318577,13.2875742 C2.28913043,12.4291172 2.46434783,11.5827461 2.85147036,10.8198594 C1.84142688,9.99100781 1.03378261,8.89469141 0.504841897,7.63023828 C-0.0376126482,6.33364062 -0.13483004,4.81167578 0.215810277,3.10664453 C0.448679842,1.97427344 0.816687747,1.08255469 1.01533597,0.651828125 L1.01533597,0.651828125 Z M13.8262451,7.35835547 L13.4442609,8.25860547 L20.1373083,10.6914844 L20.1373083,9.70231641 L13.8262451,7.35835547 Z M18.3536877,0.76171875 C17.3038221,0.76171875 16.3630949,1.37998047 15.9570119,2.33680078 L15.9570119,2.33680078 L14.1245257,6.65539062 L20.1372569,8.88859766 L20.1372569,7.62033594 C20.1372569,7.40994922 20.309751,7.23947656 20.5226324,7.23947656 L20.5226324,7.23947656 L22.3647787,7.23947656 C23.2067984,7.23947656 23.9951739,6.89436719 24.5277628,6.29266016 C24.7827787,6.00452734 24.965087,5.68120312 25.0745336,5.32624219 C24.8050791,5.10209375 24.6117233,4.79898047 24.523087,4.46214844 L24.523087,4.46214844 L22.3001897,3.54676562 C22.2370909,3.52081641 22.1821621,3.47876953 22.1409526,3.42489062 L22.1409526,3.42489062 L21.1598379,2.14195312 C20.4989447,1.27765625 19.4499012,0.76171875 18.3536877,0.76171875 Z M19.0032253,3.21039062 C19.2062411,3.14757422 19.4224625,3.25949609 19.4859723,3.46028516 C19.4937826,3.48486328 19.6771186,4.07235156 19.6991107,4.83407031 C19.7292727,5.87493359 19.4416285,6.74913281 18.8672648,7.36216406 C18.7933241,7.44107812 18.6903518,7.48424219 18.584502,7.48424219 C18.5504862,7.48424219 18.5162134,7.47977344 18.4824545,7.47063281 C18.3971067,7.44747656 16.3865257,6.87725391 15.9724783,4.62657812 C15.9344032,4.41964453 16.0732925,4.22134375 16.2826798,4.18371484 C16.4923241,4.14583203 16.6927708,4.28334766 16.7307945,4.49028125 C16.9842688,5.86812891 18.0024822,6.45444922 18.4609763,6.65219141 C19.3064901,5.49280469 18.7563281,3.70642187 18.7503676,3.68748047 C18.6868577,3.48674219 18.8000553,3.27310547 19.0032253,3.21039062 Z M20.7718419,3.14589844 C21.0764941,3.14589844 21.324419,3.39086719 21.324419,3.692 C21.324419,3.99318359 21.0765455,4.23815234 20.7718419,4.23815234 C20.467087,4.23815234 20.2192134,3.99318359 20.2192134,3.692 C20.2192134,3.39086719 20.467087,3.14589844 20.7718419,3.14589844 Z" id="Combined-Shape"></path>
            </g>
        </g>
    </g>
</svg>