<svg xmlns="http://www.w3.org/2000/svg" width="24" height="19.034" viewBox="0 0 24 19.034">
  <g id="money_2_" data-name="money (2)" transform="translate(0 0)">
    <path id="Shape" d="M21.931,19.034H2.069a.414.414,0,0,1-.414-.413V14.069H1.241A1.243,1.243,0,0,1,0,12.828V9.517A1.243,1.243,0,0,1,1.241,8.275h.414V3.724a.414.414,0,0,1,.414-.414H3.31V.414A.414.414,0,0,1,3.724,0H21.931A2.076,2.076,0,0,1,24,2.069v14.9A2.074,2.074,0,0,1,21.931,19.034ZM2.483,14.069v4.138H21.931a1.243,1.243,0,0,0,1.241-1.241V13.644a2.056,2.056,0,0,1-1.241.425H16.966A2.074,2.074,0,0,1,14.9,12V10.345a2.075,2.075,0,0,1,2.069-2.069h4.965a1.243,1.243,0,0,0,1.241-1.241V3.724a2.076,2.076,0,0,1-1.241.414H2.483V8.275H7.034A2.076,2.076,0,0,1,9.1,10.345V12a2.075,2.075,0,0,1-2.069,2.069ZM16.966,9.1a1.243,1.243,0,0,0-1.242,1.241V12a1.243,1.243,0,0,0,1.242,1.242h4.965A1.243,1.243,0,0,0,23.172,12V8.679a2.061,2.061,0,0,1-1.241.425ZM1.241,9.1a.414.414,0,0,0-.413.414v3.31a.414.414,0,0,0,.413.414H7.034A1.243,1.243,0,0,0,8.276,12V10.345A1.243,1.243,0,0,0,7.034,9.1ZM4.138.828V3.31H21.931a1.241,1.241,0,1,0,0-2.482Z" transform="translate(0 0)" fill="#444e5b"/>
    <path id="Path" d="M0,0H16.552V.828H0Z" transform="translate(5.379 1.655)" fill="#444e5b"/>
    <path id="Shape-2" data-name="Shape" d="M1.241,2.483A1.242,1.242,0,1,1,2.483,1.241,1.243,1.243,0,0,1,1.241,2.483Zm0-1.655a.414.414,0,1,0,.414.413A.414.414,0,0,0,1.241.828Z" transform="translate(4.966 9.931)" fill="#444e5b"/>
  </g>
</svg>
