<svg xmlns="http://www.w3.org/2000/svg" width="22" height="20.777" viewBox="0 0 22 20.777">
  <path id="Combined_Shape" data-name="Combined Shape" d="M17.365,20.777a.513.513,0,0,1-.4-.2l-.725-.925a.507.507,0,0,1-.107-.31V17.7H13.745a.515.515,0,0,1-.389-.177.506.506,0,0,1-.118-.4l.266-1.84-1.858.263a.51.51,0,0,1-.433-.142.5.5,0,0,1-.151-.359V12.876l-1.507.491a.5.5,0,0,1-.159.025.515.515,0,0,1-.363-.149l-1.3-1.285a6.279,6.279,0,0,1-2.361.159,6.586,6.586,0,0,1-1,1.477,2.428,2.428,0,0,1-1.672.91,1.36,1.36,0,0,1-.428-.069A2.061,2.061,0,0,1,1.051,12.59a6.578,6.578,0,0,1,.282-2.723A5.966,5.966,0,0,1,0,6.083,6.156,6.156,0,0,1,11.045,2.416a5.991,5.991,0,0,1,1.032,5.243l9.774,9.721a.5.5,0,0,1,.149.358v2.533a.51.51,0,0,1-.511.507Zm-2.87-6.422a.5.5,0,0,1,.119.4l-.279,1.931H16.64a.51.51,0,0,1,.512.508v1.977l.463.591h3.361V17.947L11.138,8.161a.5.5,0,0,1-.125-.514A4.982,4.982,0,0,0,10.3,3.128,5.129,5.129,0,0,0,1.023,6.083a5.086,5.086,0,0,0,3.746,4.885A8.113,8.113,0,0,0,5.187,9.5a3.6,3.6,0,0,1-1.578-.911,3.522,3.522,0,0,1,0-5.018,3.606,3.606,0,0,1,5.068,0,3.522,3.522,0,0,1,0,5.018A3.582,3.582,0,0,1,6.2,9.63,9.059,9.059,0,0,1,5.8,11.14c.111.007.229.012.35.012a5.176,5.176,0,0,0,1.577-.246.523.523,0,0,1,.157-.024.511.511,0,0,1,.362.148l1.291,1.278,1.88-.612a.516.516,0,0,1,.161-.026.51.51,0,0,1,.51.508V14.46l1.95-.276a.509.509,0,0,1,.46.172Zm-12.43-1.9c.077.547.281.94.534,1.022a.354.354,0,0,0,.109.016c.361,0,1.024-.5,1.629-1.59a6.091,6.091,0,0,1-2.17-1.18A5.06,5.06,0,0,0,2.065,12.451ZM5.125,5.99A2.031,2.031,0,0,1,6.293,7.912a5.412,5.412,0,0,1,.021.7,2.535,2.535,0,1,0-2.068-4.23,2.5,2.5,0,0,0-.652,1.927,2.36,2.36,0,0,1,1.155-.375A1.181,1.181,0,0,1,5.125,5.99ZM3.908,7.32A2.559,2.559,0,0,0,5.292,8.474a3.975,3.975,0,0,0-.018-.464c-.056-.574-.238-.98-.474-1.058a.2.2,0,0,0-.057-.007A1.722,1.722,0,0,0,3.908,7.32ZM2.444,18.333a1.222,1.222,0,1,1,1.222,1.222A1.224,1.224,0,0,1,2.444,18.333Zm.815,0a.408.408,0,1,0,.408-.408A.408.408,0,0,0,3.259,18.333ZM17.45,16.96l-6.3-6.3a.517.517,0,0,1,.732-.732l6.3,6.3a.518.518,0,1,1-.732.733ZM17.111,3.667a1.222,1.222,0,1,1,1.222,1.222A1.224,1.224,0,0,1,17.111,3.667Zm.815,0a.408.408,0,1,0,.408-.408A.408.408,0,0,0,17.925,3.667Z" fill="#fff"/>
</svg>
