<svg xmlns="http://www.w3.org/2000/svg" width="17.96" height="26" viewBox="0 0 17.96 26">
  <path id="Combined-Shape" d="M6.727.029A18.039,18.039,0,0,1,9.622,0h1.556a.362.362,0,0,1,.139.028h0l1.475.612c.09.037.054.015,1.417,1.368a1.062,1.062,0,0,1,.066,1.421h0l-3.54,4.251a9.17,9.17,0,0,1,7.245,8.148.378.378,0,0,1-.332.417.374.374,0,0,1-.406-.341A8.293,8.293,0,0,0,8.067,8.331h0l-.25.034A8.426,8.426,0,0,0,.762,16.756a8.383,8.383,0,0,0,8.26,8.482,8.316,8.316,0,0,0,8.218-7.631.374.374,0,0,1,.406-.341.378.378,0,0,1,.332.417A9.108,9.108,0,0,1,9.022,26a9.135,9.135,0,0,1-9-9.244,9.2,9.2,0,0,1,7.29-9.075h0L3.769,3.43A1.061,1.061,0,0,1,3.633,2.3a.135.135,0,0,1,.011-.022,1.028,1.028,0,0,1,.191-.264c.03-.03,1.3-1.295,1.335-1.321A14.867,14.867,0,0,1,6.727.029ZM8.222,9.768a.374.374,0,0,1,.411.334.379.379,0,0,1-.325.422A6.286,6.286,0,0,0,9.022,23.03a6.2,6.2,0,0,0,6.11-6.274,6.263,6.263,0,0,0-5.191-6.2.38.38,0,0,1-.311-.434.373.373,0,0,1,.422-.32A7.052,7.052,0,0,1,9.022,23.792a7.049,7.049,0,0,1-.8-14.024Zm2.8-5.623h-4L8.65,7.521c.267-.011.488-.011.743,0h0l1.626-3.375Zm2.475-.951-1.6.851L10.673,6.581Zm-8.946,0L7.37,6.581,6.148,4.045ZM11,2.307H7.041L6.774,3.383h4.5Zm1.607-.826-.894.612.26,1.051,1.5-.8Zm-7.176,0-.869.863,1.5.8.26-1.051ZM11.106.763H6.938l-.757.314.684.468h4.314l.684-.468Z" transform="translate(-0.02 0)" fill="#fff" fill-rule="evenodd"/>
</svg>
