<svg xmlns="http://www.w3.org/2000/svg" width="20.425" height="22.694" viewBox="0 0 20.425 22.694">
  <g id="interface" transform="translate(-0.013 -0.013)">
    <path id="Combined_Shape" data-name="Combined Shape" d="M2.837,22.694A2.84,2.84,0,0,1,0,19.858V2.837A2.84,2.84,0,0,1,2.837,0H17.588a2.84,2.84,0,0,1,2.837,2.837V19.858a2.84,2.84,0,0,1-2.837,2.836ZM1.135,2.837V19.858a1.7,1.7,0,0,0,1.7,1.7H17.588a1.7,1.7,0,0,0,1.7-1.7V2.837a1.7,1.7,0,0,0-1.7-1.7H2.837A1.7,1.7,0,0,0,1.135,2.837ZM8.51,15.886a.567.567,0,1,1,0-1.135h6.808a.567.567,0,1,1,0,1.135Zm-3.4,0a.567.567,0,0,1,0-1.135H6.241a.567.567,0,1,1,0,1.135Zm3.4-4.539a.567.567,0,1,1,0-1.135h6.808a.567.567,0,1,1,0,1.135Zm-3.4,0a.567.567,0,0,1,0-1.135H6.241a.567.567,0,1,1,0,1.135Zm3.4-4.539a.567.567,0,1,1,0-1.135h6.808a.567.567,0,1,1,0,1.135Zm-3.4,0a.567.567,0,0,1,0-1.135H6.241a.567.567,0,1,1,0,1.135Z" transform="translate(0.013 0.013)" fill="#fff"/>
  </g>
</svg>
