<?xml version="1.0" encoding="UTF-8"?>
<svg width="20px" height="26px" viewBox="0 0 20 26" version="1.1" xmlns="http://www.w3.org/2000/svg" xmlns:xlink="http://www.w3.org/1999/xlink">
    <!-- Generator: Sketch 61.2 (89653) - https://sketch.com -->
    <title>passport</title>
    <desc>Created with Sketch.</desc>
    <g id="Welcome" stroke="none" stroke-width="1" fill="none" fill-rule="evenodd">
        <g id="Poisk24_home-page-другие-категории" transform="translate(-1036.000000, -982.000000)" fill="#444E5B">
            <g id="passport" transform="translate(1036.000000, 982.000000)">
                <path d="M17.0303077,0 C18.6398974,0 19.9492821,1.29669922 19.9492821,2.89046875 L19.9492821,2.89046875 L19.9492821,23.1095312 C19.9492821,24.7033008 18.6398462,26 17.0302564,26 L17.0302564,26 L16.2384615,26 C16.0260513,26 15.8538462,25.8294766 15.8538462,25.6191406 C15.8538462,25.4088047 16.0260513,25.2382812 16.2384615,25.2382812 L16.2384615,25.2382812 L17.0302564,25.2382812 C18.215641,25.2382812 19.1800513,24.2832891 19.1800513,23.1095312 L19.1800513,23.1095312 L19.1800513,2.89051953 C19.1800513,1.71671094 18.215641,0.761769531 17.0302564,0.761769531 L17.0302564,0.761769531 L3.46241026,0.761769531 L3.46241026,3.62964062 C3.46241026,3.83997656 3.29020513,4.0105 3.07779487,4.0105 C2.86538462,4.0105 2.69317949,3.83997656 2.69317949,3.62964062 L2.69317949,3.62964062 L2.69317949,0.761769531 L1.45702564,0.761769531 C1.10569231,0.761769531 0.819897436,1.04482422 0.819897436,1.39267578 L0.819897436,1.39267578 L0.819897436,24.6073242 C0.819897436,24.9552266 1.10574359,25.2382305 1.45702564,25.2382305 L1.45702564,25.2382305 L2.69323077,25.2382305 L2.69323077,5.40708594 C2.69323077,5.19675 2.8654359,5.02622656 3.07784615,5.02622656 C3.29025641,5.02622656 3.46246154,5.19675 3.46246154,5.40708594 L3.46246154,5.40708594 L3.46246154,25.2382812 L14.4435385,25.2382812 C14.6559487,25.2382812 14.8281538,25.4088047 14.8281538,25.6191406 C14.8281538,25.8294766 14.6559487,26 14.4435385,26 L14.4435385,26 L1.45702564,26 C0.681538462,26 0.0506153846,25.3752383 0.0506153846,24.607375 L0.0506153846,24.607375 L0.0506153846,1.39267578 C0.0506153846,0.624761719 0.681538462,0 1.45702564,0 L1.45702564,0 Z M12.1553333,20.9189297 C12.3677436,20.9189297 12.5399487,21.0894531 12.5399487,21.2997891 C12.5399487,21.510125 12.3677436,21.6806484 12.1553333,21.6806484 L12.1553333,21.6806484 L6.30697436,21.6806484 C6.0945641,21.6806484 5.92235897,21.510125 5.92235897,21.2997891 C5.92235897,21.0894531 6.0945641,20.9189297 6.30697436,20.9189297 L6.30697436,20.9189297 Z M15.3410256,19.4267227 C15.5534872,19.4267227 15.725641,19.5972461 15.725641,19.807582 C15.725641,20.017918 15.5534359,20.1884414 15.3410256,20.1884414 L15.3410256,20.1884414 L6.30697436,20.1884414 C6.0945641,20.1884414 5.92235897,20.017918 5.92235897,19.807582 C5.92235897,19.5972461 6.0945641,19.4267227 6.30697436,19.4267227 L6.30697436,19.4267227 Z M15.3410256,17.9345664 C15.5534872,17.9345664 15.725641,18.1051406 15.725641,18.3154258 C15.725641,18.5257617 15.5534359,18.6962852 15.3410256,18.6962852 L15.3410256,18.6962852 L6.30697436,18.6962852 C6.0945641,18.6962852 5.92235897,18.5257617 5.92235897,18.3154258 C5.92235897,18.1050898 6.0945641,17.9345664 6.30697436,17.9345664 L6.30697436,17.9345664 Z M10.824,6.04403516 C13.2559487,6.04403516 15.2345128,8.00327734 15.2345128,10.4114766 C15.2345128,12.8196758 13.2559487,14.778918 10.824,14.778918 C8.38974359,14.778918 6.41348718,12.8173906 6.41348718,10.4114766 C6.41348718,8.00327734 8.392,6.04403516 10.824,6.04403516 Z M10.4393846,10.7923867 L9.10312821,10.7923867 C9.16184615,11.9129258 9.56902564,13.4638867 10.4393846,13.9165508 L10.4393846,13.9165508 L10.4393846,10.7923867 Z M12.5448718,10.7923867 L11.2086154,10.7923867 L11.2086154,13.9165508 C11.9694872,13.5207109 12.4731795,12.1612969 12.5448718,10.7923867 L12.5448718,10.7923867 Z M8.33348718,10.7923867 L7.20323077,10.7923867 C7.33153846,11.996918 8.06102564,13.0266602 9.08846154,13.580582 C8.6634359,12.8711172 8.38574359,11.8964219 8.33348718,10.7923867 L8.33348718,10.7923867 Z M14.4447692,10.7923867 L13.3145128,10.7923867 C13.2622051,11.8964219 12.9845128,12.8711172 12.5595385,13.580582 C13.5869744,13.0266602 14.3164103,11.996918 14.4447692,10.7923867 L14.4447692,10.7923867 Z M9.08841026,7.24242187 C8.06102564,7.79634375 7.33153846,8.82608594 7.20323077,10.0306172 L7.20323077,10.0306172 L8.3334359,10.0306172 C8.38574359,8.92658203 8.66338462,7.95188672 9.08841026,7.24242187 Z M10.4393846,6.90645312 C10.1604615,7.05148437 9.89184615,7.34896094 9.66861538,7.76973437 C9.34482051,8.37982031 9.14810256,9.17170312 9.10312821,10.0306172 L9.10312821,10.0306172 L10.4393846,10.0306172 Z M12.5595385,7.24242187 C12.9845641,7.95188672 13.2622564,8.92658203 13.3145128,10.0306172 L13.3145128,10.0306172 L14.4447692,10.0306172 C14.3164103,8.82608594 13.5869744,7.79634375 12.5595385,7.24242187 Z M11.2086154,6.90645312 L11.2086154,10.0306172 L12.5448718,10.0306172 C12.4998974,9.17170312 12.3030769,8.37982031 11.9793846,7.76973437 C11.7561026,7.34901172 11.4874872,7.05153516 11.2086154,6.90645312 L11.2086154,6.90645312 Z M16.5376923,2.31242578 C16.7501026,2.31242578 16.9223077,2.48294922 16.9223077,2.69328516 C16.9223077,2.90362109 16.7501026,3.07414453 16.5376923,3.07414453 L16.5376923,3.07414453 L14.4802564,3.07414453 C14.2678462,3.07414453 14.095641,2.90362109 14.095641,2.69328516 C14.095641,2.48294922 14.2678462,2.31242578 14.4802564,2.31242578 L14.4802564,2.31242578 Z" id="Combined-Shape"></path>
            </g>
        </g>
    </g>
</svg>