<svg xmlns="http://www.w3.org/2000/svg" width="19.899" height="26" viewBox="0 0 19.899 26">
  <path id="Combined-Shape" d="M17.03,0a2.908,2.908,0,0,1,2.919,2.89h0V23.11A2.908,2.908,0,0,1,17.03,26h-.792a.381.381,0,1,1,0-.762h.792a2.142,2.142,0,0,0,2.15-2.129h0V2.891A2.142,2.142,0,0,0,17.03.762H3.462V3.63a.385.385,0,0,1-.769,0h0V.762H1.457a.635.635,0,0,0-.637.631h0V24.607a.635.635,0,0,0,.637.631H2.693V5.407a.385.385,0,0,1,.769,0h0V25.238H14.443a.381.381,0,1,1,0,.762H1.457A1.4,1.4,0,0,1,.051,24.607h0V1.393A1.4,1.4,0,0,1,1.457,0H17.03ZM12.155,20.919a.381.381,0,1,1,0,.762H6.307a.381.381,0,1,1,0-.762h5.848Zm3.186-1.492a.381.381,0,1,1,0,.762H6.307a.381.381,0,1,1,0-.762h9.034Zm0-1.492a.381.381,0,1,1,0,.762H6.307a.381.381,0,1,1,0-.762h9.034ZM10.824,6.044a4.368,4.368,0,1,1-4.411,4.367A4.394,4.394,0,0,1,10.824,6.044Zm-.385,4.748H9.1c.059,1.12.466,2.671,1.336,3.124h0Zm2.106,0H11.209v3.124c.761-.4,1.265-1.755,1.336-3.124Zm-4.211,0H7.2a3.612,3.612,0,0,0,1.885,2.788,6.063,6.063,0,0,1-.755-2.788Zm6.111,0h-1.13a6.064,6.064,0,0,1-.755,2.788,3.612,3.612,0,0,0,1.885-2.788ZM9.088,7.242A3.612,3.612,0,0,0,7.2,10.031h1.13A6.064,6.064,0,0,1,9.088,7.242Zm1.351-.336a2,2,0,0,0-.771.863A5.517,5.517,0,0,0,9.1,10.031h1.336Zm2.12.336a6.062,6.062,0,0,1,.755,2.788h1.13A3.612,3.612,0,0,0,12.559,7.242Zm-1.351-.336v3.124h1.336a5.519,5.519,0,0,0-.566-2.261,2,2,0,0,0-.771-.863Zm5.329-4.594a.381.381,0,1,1,0,.762H14.48a.381.381,0,1,1,0-.762h2.057Z" transform="translate(-0.051)" fill="#fff" fill-rule="evenodd"/>
</svg>
