<svg xmlns="http://www.w3.org/2000/svg" width="25.958" height="25.978" viewBox="0 0 25.958 25.978">
  <path id="Combined-Shape" d="M18.354,0a4.328,4.328,0,0,1,3.421,1.683h0l.918,1.2,2.317.954h0l.721.3a.381.381,0,0,1,.237.352c0,.126-.007.253-.019.379v.013a3.343,3.343,0,0,1-.839,1.917A3.652,3.652,0,0,1,22.365,8H20.908v5.48a3.6,3.6,0,0,1-.959,2.446h0v2.712a.385.385,0,0,1-.771,0h0V16.563a3.682,3.682,0,0,1-1.562.533h0v6.361a2.1,2.1,0,0,1,1.663,1.052H21.1a1.452,1.452,0,0,0-1.536-1.02.383.383,0,0,1-.385-.381h0V20.162a.385.385,0,0,1,.771,0h0v2.587a2.256,2.256,0,0,1,2,2.127.387.387,0,0,1-.385.394H19.567a2.108,2.108,0,0,1,.045.313.387.387,0,0,1-.385.394H16.038a1.982,1.982,0,0,1-1.992-1.968h0V16.994h-.99a10.987,10.987,0,0,1-4.183,2.653h0v3.1a2.256,2.256,0,0,1,2,2.127.387.387,0,0,1-.385.394H7.3A1.982,1.982,0,0,1,5.3,23.3h0V19.576a12.8,12.8,0,0,1-1.723.779h0v3.1a2.256,2.256,0,0,1,2,2.127.387.387,0,0,1-.385.394H2A1.982,1.982,0,0,1,.012,24.009h0V19.973a4.135,4.135,0,0,1,.8-2.449c.177-.242.348-.5.509-.776a.388.388,0,0,1,.527-.136.378.378,0,0,1,.138.521c-.174.293-.358.574-.549.836a3.385,3.385,0,0,0-.659,2h0v4.036A1.215,1.215,0,0,0,2,25.216H4.726a1.669,1.669,0,0,0-.154-.342A1.481,1.481,0,0,0,3.2,24.2a.383.383,0,0,1-.385-.381h0V20.084a.382.382,0,0,1,.269-.363c.033-.01,3.348-1.069,4.689-3.3a.386.386,0,0,1,.331-.187h6.332a.383.383,0,0,1,.385.381h0v7.4a1.215,1.215,0,0,0,1.221,1.207H18.76a1.672,1.672,0,0,0-.155-.342A1.481,1.481,0,0,0,17.23,24.2a.383.383,0,0,1-.385-.381h0V16.735a.383.383,0,0,1,.385-.381,2.894,2.894,0,0,0,2.907-2.873h0V11.5L12.865,8.859H7.322a4.254,4.254,0,0,0-2.344.7.389.389,0,0,1-.407.012A5.644,5.644,0,0,1,2.083,6.863a6.166,6.166,0,0,1-.456-2.32.383.383,0,0,1,.38-.386h0a.384.384,0,0,1,.39.376,5.418,5.418,0,0,0,.4,2.037A4.82,4.82,0,0,0,4.761,8.794a5.031,5.031,0,0,1,2.561-.7h5.355l.173-.407L5.906.683A.378.378,0,0,1,5.912.144.388.388,0,0,1,6.457.15h0l6.716,6.778,2.073-4.886A3.363,3.363,0,0,1,18.354,0ZM11.969,16.994H8.314a7.646,7.646,0,0,1-2.239,2.123h0V23.3A1.215,1.215,0,0,0,7.3,24.508h2.729a1.452,1.452,0,0,0-1.536-1.019.383.383,0,0,1-.385-.381h0V19.376a.381.381,0,0,1,.269-.363,11.284,11.284,0,0,0,3.6-2.019ZM1.024.632A1.067,1.067,0,0,1,2.419.086a1.045,1.045,0,0,1,.554,1.377A8.257,8.257,0,0,0,2.52,3.089a.385.385,0,0,1-.759-.131,8.985,8.985,0,0,1,.5-1.8A.286.286,0,0,0,2.113.785a.292.292,0,0,0-.381.149L1.717.968c-.277.6-1.6,3.732-.5,6.372a7.437,7.437,0,0,0,2.361,3.078.378.378,0,0,1,.1.5,4.025,4.025,0,0,0-.564,2.326q0,.066.01.133a5.293,5.293,0,0,1-.429,2.336.387.387,0,0,1-.5.217.379.379,0,0,1-.22-.493,4.562,4.562,0,0,0,.379-2q-.006-.074-.011-.148a4.772,4.772,0,0,1,.508-2.468A8.215,8.215,0,0,1,.5,7.63,7.614,7.614,0,0,1,.216,3.107a11.6,11.6,0,0,1,.8-2.455h0Zm12.8,6.726-.382.9,6.693,2.433V9.7Zm4.528-6.6a2.594,2.594,0,0,0-2.4,1.575h0L14.125,6.655l6.013,2.233V7.62a.383.383,0,0,1,.385-.381h1.842a2.878,2.878,0,0,0,2.163-.947,2.6,2.6,0,0,0,.547-.966,1.684,1.684,0,0,1-.551-.864h0L22.3,3.547a.384.384,0,0,1-.159-.122h0L21.16,2.142A3.55,3.55,0,0,0,18.354.762ZM19,3.21a.386.386,0,0,1,.483.25A5.524,5.524,0,0,1,19.7,4.834a3.456,3.456,0,0,1-.832,2.528.389.389,0,0,1-.385.108,3.662,3.662,0,0,1-2.51-2.844.385.385,0,0,1,.758-.136,2.9,2.9,0,0,0,1.73,2.162,3.8,3.8,0,0,0,.289-2.965A.38.38,0,0,1,19,3.21Zm1.769-.064a.546.546,0,1,1-.553.546A.55.55,0,0,1,20.772,3.146Z" transform="translate(-0.01 0)" fill="#fff" fill-rule="evenodd"/>
</svg>
