<?xml version="1.0" encoding="UTF-8"?>
<svg width="18px" height="26px" viewBox="0 0 18 26" version="1.1" xmlns="http://www.w3.org/2000/svg" xmlns:xlink="http://www.w3.org/1999/xlink">
    <!-- Generator: Sketch 61.2 (89653) - https://sketch.com -->
    <title>engagement-ring</title>
    <desc>Created with Sketch.</desc>
    <g id="Welcome" stroke="none" stroke-width="1" fill="none" fill-rule="evenodd">
        <g id="Poisk24_home-page-другие-категории" transform="translate(-777.000000, -981.000000)" fill="#444E5B">
            <g id="engagement-ring" transform="translate(777.000000, 981.000000)">
                <path d="M6.72675824,0.0291484375 C6.80807283,-0.00460704787 6.58171824,-0.00056928333 9.62181546,0.00101174731 L11.1775549,0.001421875 C11.2251758,0.001421875 11.2723022,0.0108164063 11.3164615,0.0291484375 L11.3164615,0.0291484375 L12.7915714,0.640910156 C12.8818681,0.678386719 12.8455714,0.655789063 14.2083297,2.0093125 C14.5857363,2.38417969 14.623467,3.01005859 14.2738022,3.42996875 L14.2738022,3.42996875 L10.7334396,7.68117188 C14.6193626,8.45396094 17.5831813,11.7740391 17.9781923,15.829582 C17.9985659,16.0388516 17.8498681,16.2254727 17.646033,16.2464453 C17.4424451,16.2675195 17.260467,16.114668 17.2400934,15.9053984 C16.7770879,11.1514102 12.6431209,7.78776172 8.06662088,8.33107031 L8.06662088,8.33107031 L7.81632346,8.36479152 C3.83112484,8.9657507 0.761785714,12.4995166 0.761785714,16.7561875 C0.761785714,21.4332422 4.46706593,25.2382813 9.02160989,25.2382813 C13.2831593,25.2382813 16.8163516,21.9575078 17.240044,17.6069258 C17.2603681,17.3976563 17.4424451,17.2446523 17.6459835,17.2658789 C17.8498681,17.2868008 17.9985165,17.4734727 17.978044,17.6827422 C17.5221099,22.3640117 13.6642747,26 9.02151099,26 C4.05806044,26 0.0199285714,21.8533047 0.0199285714,16.7561367 C0.0199285714,12.2602188 3.16201648,8.50428516 7.30943407,7.68076563 L7.30943407,7.68076563 L3.76941758,3.42996875 C3.50006044,3.10659375 3.45857143,2.65789063 3.63293407,2.29516016 C3.64252747,2.27413672 3.63243956,2.29414453 3.64376374,2.27301953 C3.69247253,2.1775 3.75562088,2.08802344 3.83484066,2.00936328 C3.86515385,1.97930078 5.13578571,0.714492188 5.16956044,0.688695313 C5.22548901,0.645988281 5.15042308,0.68290625 6.72675824,0.0291484375 Z M8.2216978,9.76838281 C8.42434615,9.74416016 8.60929121,9.89355859 8.63307692,10.1024727 C8.65686264,10.3113867 8.51118132,10.5005469 8.30779121,10.5249727 C5.23152198,10.8941523 2.91174725,13.5730156 2.9117967,16.7561367 C2.9117967,20.2158125 5.65264286,23.0304141 9.02165934,23.0304141 C12.3906758,23.0304141 15.131522,20.2157617 15.131522,16.7561367 C15.131522,13.6795547 12.8996703,11.0126758 9.94005495,10.5526992 C9.73750549,10.5212148 9.5982033,10.3270781 9.62881319,10.1191289 C9.65947253,9.91112891 9.84891758,9.76792578 10.051022,9.7995625 C13.3784505,10.316668 15.8732802,13.2745234 15.8732802,16.7561367 C15.8732802,20.6358242 12.7996813,23.7921328 9.02165934,23.7921328 C5.24363736,23.7921328 2.17003846,20.6357734 2.17003846,16.7561367 C2.17003846,13.1865195 4.77168132,10.1824023 8.2216978,9.76838281 Z M11.019511,4.14512109 L7.02375824,4.14512109 L8.65013736,7.52080469 C8.91677473,7.50937891 9.13776923,7.50978516 9.39323077,7.52060156 L9.39323077,7.52060156 L11.019511,4.14512109 L11.019511,4.14512109 Z M13.4943626,3.19383594 L11.8953791,4.04492969 L10.6733571,6.58130078 L13.4943626,3.19383594 Z M4.54885714,3.19388672 L7.36986264,6.58130078 L6.14784066,4.04498047 L4.54885714,3.19388672 Z M11.0026484,2.30714453 L7.04062088,2.30714453 L6.77398352,3.38340234 L6.77398352,3.38340234 L11.2692857,3.38340234 L11.0026484,2.30714453 Z M12.6096429,1.48123828 L11.7151813,2.09360938 L11.975489,3.144375 L13.4786374,2.34431641 L12.6096429,1.48123828 Z M5.43362637,1.4811875 L4.56463187,2.34426563 L6.06778022,3.14432422 L6.32808791,2.09355859 L5.43362637,1.4811875 Z M11.1055055,0.763140625 L6.93776374,0.763140625 L6.18062637,1.07717188 L6.86452747,1.545375 L11.1787418,1.545375 L11.8626429,1.07717188 L11.1055055,0.763140625 Z" id="Combined-Shape"></path>
            </g>
        </g>
    </g>
</svg>