<svg xmlns="http://www.w3.org/2000/svg" width="24" height="24" viewBox="0 0 24 24">
  <path id="Combined_Shape" data-name="Combined Shape" d="M2.5,24A2.507,2.507,0,0,1,0,21.5v-5A2.506,2.506,0,0,1,2.5,14H4V8.5A4.514,4.514,0,0,1,8.5,4H9V2.5A2.507,2.507,0,0,1,11.5,0h1A2.507,2.507,0,0,1,15,2.5V4h.5A4.513,4.513,0,0,1,20,8.5V14h1.5A2.506,2.506,0,0,1,24,16.5v5A2.507,2.507,0,0,1,21.5,24ZM20,23h1.5A1.5,1.5,0,0,0,23,21.5v-5A1.5,1.5,0,0,0,21.5,15H20ZM5,23H19V17H5ZM1,16.5v5A1.5,1.5,0,0,0,2.5,23H4V15H2.5A1.5,1.5,0,0,0,1,16.5Zm4-2V16H19V10H16.5a.5.5,0,0,1-.5-.5v-1a.5.5,0,0,0-1,0v2a.5.5,0,0,0,.75.434.5.5,0,1,1,.5.866A1.5,1.5,0,0,1,14,10.5V10H9.5A.5.5,0,0,1,9,9.5v-1a.5.5,0,0,0-1,0v2a.5.5,0,0,0,.75.434.5.5,0,1,1,.5.866A1.5,1.5,0,0,1,7,10.5V10H5Zm12-6V9h2V8.5A3.508,3.508,0,0,0,15.5,5h-1a.5.5,0,0,1-.5-.5v-2A1.5,1.5,0,0,0,12.5,1h-1A1.5,1.5,0,0,0,10,2.5V4h2.5a.5.5,0,0,1,0,1h-4A3.508,3.508,0,0,0,5,8.5V9H7V8.5a1.5,1.5,0,0,1,3,0V9h4V8.5a1.5,1.5,0,0,1,3,0ZM7,20.5V19H6.5a.5.5,0,0,1,0-1h11a.5.5,0,1,1,0,1H8v1.5a.5.5,0,0,1-1,0Z" fill="#fff"/>
</svg>
