<svg xmlns="http://www.w3.org/2000/svg" width="21.958" height="21.956" viewBox="0 0 21.958 21.956">
  <g id="interface_1_" data-name="interface (1)" transform="translate(-8.019 256.983)">
    <path id="Combined_Shape" data-name="Combined Shape" d="M19.061,21.444l-5.724-5.723a.441.441,0,0,1,0-.623l.57-.57-.7-.7a7.935,7.935,0,1,1,.623-.623l.7.7.57-.57a.441.441,0,0,1,.623,0l5.723,5.724a1.685,1.685,0,1,1-2.383,2.383Zm-4.414-6.41-.375.375,5.413,5.412a.805.805,0,1,0,1.138-1.139L15.41,14.271ZM.88,7.925a7.041,7.041,0,0,0,11.962,5.039.44.44,0,0,1,.122-.122A7.043,7.043,0,1,0,.88,7.925Zm.881,0a6.164,6.164,0,1,1,6.164,6.163A6.164,6.164,0,0,1,1.761,7.925Zm.88,0A5.283,5.283,0,1,0,7.925,2.641,5.283,5.283,0,0,0,2.641,7.925Z" transform="translate(8.038 -256.962)" fill="#444e5b"/>
  </g>
</svg>
