<svg xmlns="http://www.w3.org/2000/svg" width="12" height="16" viewBox="0 0 12 16"><g><g><g><path fill="#fff" d="M10.997 5.474c0 2.502-3.807 8.909-4.995 9.44-.088-.04-.426-.235-1.112-1.121-1.669-2.158-3.884-6.458-3.884-8.319 0-2.565 2.63-4.482 4.98-4.482 2.366 0 5.011 1.917 5.011 4.482zm-3.223 9.089c1.726-2.159 4.22-6.844 4.22-9.089 0-4.27-5.944-7.553-10.107-3.895C.677 2.642.01 4.026.01 5.474c0 2.234 2.484 6.917 4.219 9.089.96 1.2 1.451 1.354 1.773 1.354.321 0 .813-.154 1.772-1.354z"/></g><g><path fill="#fff" d="M8.238 5.707a2.244 2.244 0 0 1-2.24 2.241 2.244 2.244 0 0 1-2.242-2.24 2.244 2.244 0 0 1 2.241-2.242 2.244 2.244 0 0 1 2.241 2.241zm.996 0A3.24 3.24 0 0 0 5.997 2.47 3.24 3.24 0 0 0 2.76 5.707a3.24 3.24 0 0 0 3.237 3.237 3.24 3.24 0 0 0 3.237-3.237z"/></g></g></g></svg>