<svg xmlns="http://www.w3.org/2000/svg" width="501.572" height="497.477" viewBox="0 0 501.572 497.477">
  <g id="Combined_Shape" data-name="Combined Shape" fill="none" stroke-miterlimit="10" opacity="0.476">
    <path d="M43.906,497.477A43.933,43.933,0,0,1,.021,453.595V98.747c0-.066-.005-.132-.01-.191v-.005c0-.067-.01-.137-.01-.207A44.644,44.644,0,0,1,43.123,53.771V27.013A27.043,27.043,0,0,1,70.135,0H290.452a27.042,27.042,0,0,1,27.01,27.013v7.515h68.383a16.5,16.5,0,0,1,16.477,16.48v2.7h4.584A24.478,24.478,0,0,1,431.354,78.16v54.382h44.2a25.809,25.809,0,0,1,16.379,5.842,26.078,26.078,0,0,1,8.983,14.589h.653V453.541a43.985,43.985,0,0,1-43.934,43.936ZM10.47,453.595a33.473,33.473,0,0,0,33.436,33.433H457.637a33.379,33.379,0,0,0,31.008-20.9H484.4V455.681h6.614l.022-.331.011-.156c.038-.542.076-1.1.076-1.653V376.028H412.188a61.519,61.519,0,0,1,0-123.038h78.934V179.939H491.1v-1.26H475.429V168.23H491.1v-9.691a15.564,15.564,0,0,0-15.546-15.547l-432.434,0v-.079a44.547,44.547,0,0,1-32.653-15.9ZM361.12,314.51a51.127,51.127,0,0,0,51.069,51.069H491.1V263.439H470.533v15.674H460.085V263.439h-47.9A51.128,51.128,0,0,0,361.12,314.51Zm41.2-181.967h18.584V78.16a14.018,14.018,0,0,0-14-14h-4.584ZM197.553,51.007v81.535h194.32V51.007a6.037,6.037,0,0,0-6.028-6.031H203.584A6.038,6.038,0,0,0,197.553,51.007ZM53.572,27.013v105.53H187.1V51.007a16.5,16.5,0,0,1,16.48-16.479H307.013V27.013a16.581,16.581,0,0,0-16.561-16.564H70.135A16.582,16.582,0,0,0,53.572,27.013ZM10.45,98.326h.02v.421a34.178,34.178,0,0,0,32.653,33.719V64.22A34.114,34.114,0,0,0,10.45,98.326ZM442.6,466.13V455.681h20.9V466.13Zm-41.8,0V455.681h20.9V466.13Zm-41.8,0V455.681h20.9V466.13Zm-41.8,0V455.681h20.9V466.13Zm-41.8,0V455.681h20.9V466.13Zm-41.8,0V455.681h20.9V466.13Zm-41.8,0V455.681h20.9V466.13Zm-41.8,0V455.681h20.9V466.13Zm-41.8,0V455.681h20.9V466.13Zm-40.444,0c-.526,0-1.044-.013-1.559-.033l.418-10.438,1.14.022H87.339V466.13ZM32,436.52l10.265-1.944a26.068,26.068,0,0,0,8.536,14.783l-6.842,7.9A36.555,36.555,0,0,1,32,436.52Zm-.637-21.83v-20.9H41.817v20.9Zm0-41.8V352H41.817v20.9Zm428.716-10.188v-20.9h10.449v20.9Zm-71.505-48.2A26.122,26.122,0,1,1,414.7,340.633,26.152,26.152,0,0,1,388.579,314.51Zm10.449,0A15.673,15.673,0,1,0,414.7,298.837,15.691,15.691,0,0,0,399.028,314.51ZM31.368,331.1V310.2H41.817v20.9Zm428.716-10.188v-20.9h10.449v20.9ZM31.368,289.3V268.4H41.817v20.9Zm0-41.8v-20.9H41.817v20.9Zm0-41.8v-5.8A31.591,31.591,0,0,1,36.38,182.8l8.791,5.648a21.155,21.155,0,0,0-3.354,11.46v5.8Zm25.055-36.786a31.932,31.932,0,0,1,6.623-.694H78.367v10.449H63.046a21.308,21.308,0,0,0-4.444.464Zm377.209,9.755V168.229h20.9v10.449Zm-41.8,0V168.229h20.9v10.449Zm-41.8,0V168.229h20.9v10.449Zm-41.8,0V168.229h20.9v10.449Zm-41.8,0V168.229h20.9v10.449Zm-41.8,0V168.229h20.9v10.449Zm-41.8,0V168.229h20.9v10.449Zm-41.8,0V168.229h20.9v10.449Zm-41.8,0V168.229h20.9v10.449Zm119.186-72.257V65.875H247.1V76.324H228.9v30.1ZM74.47,80.033V31.347h31.468V41.8H84.919V80.033Zm181.66-3.707V65.876h14.394V76.325ZM119.462,41.8V31.348H137.22V41.8Z" stroke="none"/>
    <path d="M 457.637451171875 496.476806640625 C 481.3115844726563 496.476806640625 500.5718383789063 477.2157287597656 500.5718383789063 453.5405883789063 L 500.5718383789063 153.9739379882813 L 500.1141052246094 153.9739379882813 L 499.9417114257813 153.1883392333984 C 499.3349609375 150.4241333007813 498.2688293457031 147.7999420166016 496.7728271484375 145.3883972167969 C 495.3038330078125 143.0201416015625 493.4635009765625 140.9244079589844 491.3028259277344 139.1593322753906 C 489.1236267089844 137.3789367675781 486.6857604980469 135.9914093017578 484.0567626953125 135.0352020263672 C 481.3372497558594 134.0450744628906 478.477294921875 133.5429992675781 475.5564270019531 133.5429992675781 L 431.3538513183594 133.5429992675781 L 430.3538513183594 133.5429992675781 L 430.3538513183594 132.5429992675781 L 430.3538513183594 78.16046905517578 C 430.3538513183594 65.22893524169922 419.8348388671875 54.70840454101563 406.9053039550781 54.70840454101563 L 402.3216247558594 54.70840454101563 L 401.3216247558594 54.70840454101563 L 401.3216247558594 53.70840454101563 L 401.3216247558594 51.00753784179688 C 401.3216247558594 42.47187042236328 394.3785705566406 35.52760314941406 385.8444519042969 35.52760314941406 L 317.4615173339844 35.52760314941406 L 316.4615173339844 35.52760314941406 L 316.4615173339844 34.52760314941406 L 316.4615173339844 27.01260375976563 C 316.4615173339844 12.66920375823975 304.7935180664063 1.000003337860107 290.4515686035156 1.000003337860107 L 70.13523864746094 1.000003337860107 C 55.79183578491211 1.000003337860107 44.12263870239258 12.66920375823975 44.12263870239258 27.01260375976563 L 44.12263870239258 53.77140426635742 L 44.12263870239258 54.73800277709961 L 43.15663909912109 54.77080154418945 C 37.43643569946289 54.96527099609375 31.9029712677002 56.25373840332031 26.70990371704102 58.60040283203125 C 21.6797046661377 60.87393569946289 17.17203712463379 64.04320526123047 13.31223773956299 68.02007293701172 C 5.372570514678955 76.2008056640625 1.000037312507629 86.97000122070313 1.000037312507629 98.34393310546875 C 1.000037312507629 98.36594390869141 1.001862049102783 98.3973388671875 1.004143357276917 98.43186950683594 L 1.004303932189941 98.43280029296875 L 1.007903933525085 98.48013305664063 C 1.013503909111023 98.55319976806641 1.019370555877686 98.64053344726563 1.020637273788452 98.73394012451172 L 1.020703911781311 98.74053955078125 L 1.020703911781311 98.74713897705078 L 1.020703911781311 453.5946044921875 C 1.020703911781311 477.2399291992188 20.25876998901367 496.476806640625 43.90557098388672 496.476806640625 L 457.637451171875 496.476806640625 M 9.469703674316406 124.2721328735352 L 11.23537063598633 126.3737335205078 C 15.13803768157959 131.0189361572266 19.86676979064941 134.7365417480469 25.29030418395996 137.4232025146484 C 30.87730407714844 140.1916046142578 36.88843536376953 141.7032775878906 43.15657043457031 141.9160766601563 L 44.12263870239258 141.9488677978516 L 44.12263870239258 141.9947357177734 C 138.9973754882813 141.9947204589844 376.1195068359375 141.9929351806641 475.5564270019531 141.9920043945313 C 484.6797790527344 141.9920043945313 492.1021118164063 149.4148101806641 492.1021118164063 158.5386047363281 L 492.1021118164063 168.2297973632813 L 492.1021118164063 169.2297973632813 L 491.1021118164063 169.2297973632813 L 476.4286499023438 169.2297973632813 L 476.4286499023438 177.6788024902344 L 491.1021118164063 177.6788024902344 L 492.1021118164063 177.6788024902344 L 492.1021118164063 178.6788024902344 L 492.1021118164063 178.9387969970703 L 492.1228332519531 178.9387969970703 L 492.1228332519531 179.9387969970703 L 492.1228332519531 252.9900054931641 L 492.1228332519531 253.9900054931641 L 491.1228332519531 253.9900054931641 L 412.1882934570313 253.9900054931641 C 378.8187561035156 253.9900054931641 351.6706237792969 281.1393432617188 351.6706237792969 314.5104064941406 C 351.6706237792969 347.8800048828125 378.8187561035156 375.0281372070313 412.1882934570313 375.0281372070313 L 491.1228332519531 375.0281372070313 L 492.1228332519531 375.0281372070313 L 492.1228332519531 376.0281372070313 L 492.1228332519531 453.5405883789063 C 492.1228332519531 454.1318054199219 492.0827026367188 454.7071228027344 492.0439147949219 455.2631225585938 L 492.0333557128906 455.4146728515625 L 492.0117797851563 455.7458801269531 L 491.9508361816406 456.6808166503906 L 491.013916015625 456.6808166503906 L 485.3998413085938 456.6808166503906 L 485.3998413085938 465.1297912597656 L 488.6451110839844 465.1297912597656 L 490.1322937011719 465.1297912597656 L 489.5711669921875 466.5071411132813 C 484.2449645996094 479.5804138183594 471.7102355957031 488.0278015136719 457.637451171875 488.0278015136719 L 43.90557098388672 488.0278015136719 C 24.91757011413574 488.0278015136719 9.469703674316406 472.5811462402344 9.469703674316406 453.5946044921875 L 9.469703674316406 127.0170059204102 L 9.469703674316406 124.2721328735352 M 412.1882934570313 262.4389953613281 L 460.0845031738281 262.4389953613281 L 461.0845031738281 262.4389953613281 L 461.0845031738281 263.4389953613281 L 461.0845031738281 278.112548828125 L 469.5326232910156 278.112548828125 L 469.5326232910156 263.4389953613281 L 469.5326232910156 262.4389953613281 L 470.5326232910156 262.4389953613281 L 491.1012268066406 262.4389953613281 L 492.1012268066406 262.4389953613281 L 492.1012268066406 263.4389953613281 L 492.1012268066406 365.5791320800781 L 492.1012268066406 366.5791320800781 L 491.1012268066406 366.5791320800781 L 412.1882934570313 366.5791320800781 C 383.4775085449219 366.5791320800781 360.1195678710938 343.22119140625 360.1195678710938 314.5104064941406 C 360.1195678710938 285.7981262207031 383.4775085449219 262.4389953613281 412.1882934570313 262.4389953613281 M 401.3216247558594 63.15740203857422 L 402.3216247558594 63.15740203857422 L 406.9053039550781 63.15740203857422 C 415.1765747070313 63.15740203857422 421.9057006835938 69.88773345947266 421.9057006835938 78.16046905517578 L 421.9057006835938 132.5429992675781 L 421.9057006835938 133.5429992675781 L 420.9057006835938 133.5429992675781 L 402.3216247558594 133.5429992675781 L 401.3216247558594 133.5429992675781 L 401.3216247558594 132.5429992675781 L 401.3216247558594 64.15740203857422 L 401.3216247558594 63.15740203857422 M 203.5836334228516 43.97660446166992 L 385.8444519042969 43.97660446166992 C 389.7197570800781 43.97660446166992 392.8726501464844 47.13066864013672 392.8726501464844 51.00753784179688 L 392.8726501464844 132.5429992675781 L 392.8726501464844 133.5429992675781 L 391.8726501464844 133.5429992675781 L 197.5527038574219 133.5429992675781 L 196.5527038574219 133.5429992675781 L 196.5527038574219 132.5429992675781 L 196.5527038574219 51.00753784179688 C 196.5527038574219 47.13066864013672 199.7067718505859 43.97660446166992 203.5836334228516 43.97660446166992 M 70.13523864746094 9.449003219604492 L 290.4515686035156 9.449003219604492 C 300.1347045898438 9.449003219604492 308.0125122070313 17.3280029296875 308.0125122070313 27.01260375976563 L 308.0125122070313 34.52853775024414 L 308.0125122070313 35.52853775024414 L 307.0125122070313 35.52853775024414 L 203.5836334228516 35.52853775024414 C 195.0479736328125 35.52853775024414 188.1036987304688 42.47240447998047 188.1036987304688 51.00753784179688 L 188.1036987304688 132.5429992675781 L 188.1036987304688 133.5429992675781 L 187.1036987304688 133.5429992675781 L 53.57163619995117 133.5429992675781 L 52.57163619995117 133.5429992675781 L 52.57163619995117 132.5429992675781 L 52.57163619995117 27.01260375976563 C 52.57163619995117 17.3280029296875 60.45063781738281 9.449003219604492 70.13523864746094 9.449003219604492 M 9.480908393859863 99.32593536376953 L 9.449437141418457 99.32593536376953 L 9.44990348815918 98.32546997070313 C 9.459170341491699 79.47873687744141 24.23050308227539 64.05879974365234 43.0782356262207 63.22053527832031 L 44.12263870239258 63.17406845092773 L 44.12263870239258 64.21953582763672 L 44.12263870239258 132.4656066894531 L 44.12263870239258 133.5110015869141 L 43.07830429077148 133.464599609375 C 24.63997840881348 132.6457672119141 9.988810539245605 117.7004165649414 9.480908393859863 99.32593536376953 M 462.5009155273438 465.1297912597656 L 462.5009155273438 456.6808166503906 L 443.6029052734375 456.6808166503906 L 443.6029052734375 465.1297912597656 L 462.5009155273438 465.1297912597656 M 420.7048950195313 465.1297912597656 L 420.7048950195313 456.6808166503906 L 401.8069152832031 456.6808166503906 L 401.8069152832031 465.1297912597656 L 420.7048950195313 465.1297912597656 M 378.9089050292969 465.1297912597656 L 378.9089050292969 456.6808166503906 L 360.0108947753906 456.6808166503906 L 360.0108947753906 465.1297912597656 L 378.9089050292969 465.1297912597656 M 337.1129150390625 465.1297912597656 L 337.1129150390625 456.6808166503906 L 318.2149047851563 456.6808166503906 L 318.2149047851563 465.1297912597656 L 337.1129150390625 465.1297912597656 M 295.31689453125 465.1297912597656 L 295.31689453125 456.6808166503906 L 276.4189147949219 456.6808166503906 L 276.4189147949219 465.1297912597656 L 295.31689453125 465.1297912597656 M 253.5209045410156 465.1297912597656 L 253.5209045410156 456.6808166503906 L 234.6229095458984 456.6808166503906 L 234.6229095458984 465.1297912597656 L 253.5209045410156 465.1297912597656 M 211.7248992919922 465.1297912597656 L 211.7248992919922 456.6808166503906 L 192.826904296875 456.6808166503906 L 192.826904296875 465.1297912597656 L 211.7248992919922 465.1297912597656 M 169.9289093017578 465.1297912597656 L 169.9289093017578 456.6808166503906 L 151.0308990478516 456.6808166503906 L 151.0308990478516 465.1297912597656 L 169.9289093017578 465.1297912597656 M 128.1329040527344 465.1297912597656 L 128.1329040527344 456.6808166503906 L 109.2349014282227 456.6808166503906 L 109.2349014282227 465.1297912597656 L 128.1329040527344 465.1297912597656 M 86.33870697021484 465.1297912597656 L 86.33870697021484 456.6808166503906 L 67.79070281982422 456.6808166503906 L 67.78083801269531 456.6808166503906 L 67.77103424072266 456.6806030273438 L 67.61038208007813 456.6774291992188 L 67.27163696289063 465.125732421875 C 67.44792938232422 465.1284484863281 67.62051391601563 465.1297912597656 67.79070281982422 465.1297912597656 L 86.33870697021484 465.1297912597656 M 43.87226486206055 455.8363037109375 L 49.40723419189453 449.446533203125 C 45.46466827392578 445.7685546875 42.69026565551758 440.964111328125 41.49277114868164 435.7408142089844 L 33.18753051757813 437.3135986328125 C 34.74013519287109 444.3941955566406 38.49647903442383 450.9064025878906 43.87226486206055 455.8363037109375 M 40.81670379638672 413.6893920898438 L 40.81670379638672 394.7914123535156 L 32.36770248413086 394.7914123535156 L 32.36770248413086 413.6893920898438 L 40.81670379638672 413.6893920898438 M 40.81670379638672 371.8934020996094 L 40.81670379638672 352.9953918457031 L 32.36770248413086 352.9953918457031 L 32.36770248413086 371.8934020996094 L 40.81670379638672 371.8934020996094 M 469.5326232910156 361.7054138183594 L 469.5326232910156 342.8074035644531 L 461.0836486816406 342.8074035644531 L 461.0836486816406 361.7054138183594 L 469.5326232910156 361.7054138183594 M 414.7011108398438 339.6329345703125 C 428.5537109375 339.6329345703125 439.8236389160156 328.3630065917969 439.8236389160156 314.5104064941406 C 439.8236389160156 300.6578063964844 428.5537109375 289.387939453125 414.7011108398438 289.387939453125 C 400.8485107421875 289.387939453125 389.5786437988281 300.6578063964844 389.5786437988281 314.5104064941406 C 389.5786437988281 328.3630065917969 400.8485107421875 339.6329345703125 414.7011108398438 339.6329345703125 M 414.7011108398438 297.8369445800781 C 423.8948974609375 297.8369445800781 431.3746337890625 305.3165893554688 431.3746337890625 314.5104064941406 C 431.3746337890625 323.7041931152344 423.8948974609375 331.1838684082031 414.7011108398438 331.1838684082031 C 405.5072937011719 331.1838684082031 398.0276489257813 323.7041931152344 398.0276489257813 314.5104064941406 C 398.0276489257813 305.3165893554688 405.5072937011719 297.8369445800781 414.7011108398438 297.8369445800781 M 40.81670379638672 330.097412109375 L 40.81670379638672 311.1994018554688 L 32.36770248413086 311.1994018554688 L 32.36770248413086 330.097412109375 L 40.81670379638672 330.097412109375 M 469.5326232910156 319.9093933105469 L 469.5326232910156 301.0114135742188 L 461.0836486816406 301.0114135742188 L 461.0836486816406 319.9093933105469 L 469.5326232910156 319.9093933105469 M 40.81670379638672 288.3013916015625 L 40.81670379638672 269.4034118652344 L 32.36770248413086 269.4034118652344 L 32.36770248413086 288.3013916015625 L 40.81670379638672 288.3013916015625 M 40.81670379638672 246.5054016113281 L 40.81670379638672 227.6074066162109 L 32.36770248413086 227.6074066162109 L 32.36770248413086 246.5054016113281 L 40.81670379638672 246.5054016113281 M 40.81670379638672 204.7085418701172 L 40.81670379638672 199.9053344726563 C 40.81670379638672 195.9677429199219 41.84809112548828 192.13525390625 43.80817794799805 188.7585906982422 L 36.69442749023438 184.1879577636719 C 33.86065673828125 188.9326629638672 32.36770248413086 194.3449401855469 32.36770248413086 199.9053344726563 L 32.36770248413086 204.7085418701172 L 40.81670379638672 204.7085418701172 M 59.37591171264648 177.9779510498047 C 60.57747650146484 177.7786712646484 61.80783081054688 177.6779327392578 63.04590225219727 177.6779327392578 L 77.36656951904297 177.6779327392578 L 77.36656951904297 169.2288665771484 L 63.04590225219727 169.2288665771484 C 61.22367858886719 169.2288665771484 59.40057754516602 169.3902282714844 57.61294555664063 169.7091217041016 L 59.37591171264648 177.9779510498047 M 453.5296936035156 177.6779327392578 L 453.5296936035156 169.2288665771484 L 434.6317138671875 169.2288665771484 L 434.6317138671875 177.6779327392578 L 453.5296936035156 177.6779327392578 M 411.7346496582031 177.6779327392578 L 411.7346496582031 169.2288665771484 L 392.8366394042969 169.2288665771484 L 392.8366394042969 177.6779327392578 L 411.7346496582031 177.6779327392578 M 369.9385681152344 177.6779327392578 L 369.9385681152344 169.2288665771484 L 351.0406494140625 169.2288665771484 L 351.0406494140625 177.6779327392578 L 369.9385681152344 177.6779327392578 M 328.1426391601563 177.6779327392578 L 328.1426391601563 169.2288665771484 L 309.2445678710938 169.2288665771484 L 309.2445678710938 177.6779327392578 L 328.1426391601563 177.6779327392578 M 286.3466491699219 177.6779327392578 L 286.3466491699219 169.2288665771484 L 267.4486389160156 169.2288665771484 L 267.4486389160156 177.6779327392578 L 286.3466491699219 177.6779327392578 M 244.5506439208984 177.6779327392578 L 244.5506439208984 169.2288665771484 L 225.6526336669922 169.2288665771484 L 225.6526336669922 177.6779327392578 L 244.5506439208984 177.6779327392578 M 202.754638671875 177.6779327392578 L 202.754638671875 169.2288665771484 L 183.8565673828125 169.2288665771484 L 183.8565673828125 177.6779327392578 L 202.754638671875 177.6779327392578 M 160.9586334228516 177.6779327392578 L 160.9586334228516 169.2288665771484 L 142.0606384277344 169.2288665771484 L 142.0606384277344 177.6779327392578 L 160.9586334228516 177.6779327392578 M 119.1626358032227 177.6779327392578 L 119.1626358032227 169.2288665771484 L 100.2646408081055 169.2288665771484 L 100.2646408081055 177.6779327392578 L 119.1626358032227 177.6779327392578 M 227.8997039794922 105.420539855957 L 227.8997039794922 76.32360076904297 L 227.8997039794922 75.32360076904297 L 228.8997039794922 75.32360076904297 L 246.1013031005859 75.32360076904297 L 246.1013031005859 66.87460327148438 L 219.4506988525391 66.87460327148438 L 219.4506988525391 105.420539855957 L 227.8997039794922 105.420539855957 M 83.91857147216797 79.03253936767578 L 83.91857147216797 41.79600143432617 L 83.91857147216797 40.79600143432617 L 84.91857147216797 40.79600143432617 L 104.938102722168 40.79600143432617 L 104.938102722168 32.34700393676758 L 75.46963500976563 32.34700393676758 L 75.46963500976563 79.03253936767578 L 83.91857147216797 79.03253936767578 M 269.5238342285156 75.32540130615234 L 269.5238342285156 66.87640380859375 L 257.1300964355469 66.87640380859375 L 257.1300964355469 75.32540130615234 L 269.5238342285156 75.32540130615234 M 136.2203063964844 40.79600143432617 L 136.2203063964844 32.34793853759766 L 120.4624404907227 32.34793853759766 L 120.4624404907227 40.79600143432617 L 136.2203063964844 40.79600143432617 M 457.637451171875 497.476806640625 L 43.90557098388672 497.476806640625 C 19.70730400085449 497.476806640625 0.02070393040776253 477.7911376953125 0.02070393040776253 453.5946044921875 L 0.02070393040776253 98.74713897705078 C 0.01983726397156715 98.68140411376953 0.01530393026769161 98.61480712890625 0.01083726435899734 98.55633544921875 L 0.009903931058943272 98.55093383789063 C 0.00543726421892643 98.48340606689453 3.726399881998077e-05 98.41407012939453 3.726399881998077e-05 98.34393310546875 C 3.726399881998077e-05 86.708740234375 4.473037242889404 75.69180297851563 12.59463691711426 67.32360076904297 C 16.54290390014648 63.2556037902832 21.1527042388916 60.01473617553711 26.29803657531738 57.68913650512695 C 31.60983657836914 55.28880310058594 37.26990509033203 53.9703369140625 43.12263870239258 53.77140426635742 L 43.12263870239258 27.01260375976563 C 43.12263870239258 12.11760330200195 55.24023818969727 3.320312544019544e-06 70.13523864746094 3.320312544019544e-06 L 290.4515686035156 3.320312544019544e-06 C 305.3448486328125 3.320312544019544e-06 317.4615173339844 12.11760330200195 317.4615173339844 27.01260375976563 L 317.4615173339844 34.52760314941406 L 385.8444519042969 34.52760314941406 C 394.9299011230469 34.52760314941406 402.3216247558594 41.92020416259766 402.3216247558594 51.00753784179688 L 402.3216247558594 53.70840454101563 L 406.9053039550781 53.70840454101563 C 420.3864440917969 53.70840454101563 431.3538513183594 64.67760467529297 431.3538513183594 78.16046905517578 L 431.3538513183594 132.5429992675781 L 475.5564270019531 132.5429992675781 C 478.5930480957031 132.5429992675781 481.5684509277344 133.0650024414063 484.3988952636719 134.0955352783203 C 487.1331176757813 135.0899963378906 489.6684265136719 136.5327301025391 491.9355163574219 138.3849334716797 C 494.1819152832031 140.2200012207031 496.0953063964844 142.3989410400391 497.6226501464844 144.8612670898438 C 499.1787109375 147.3695983886719 500.2875061035156 150.0993347167969 500.9184265136719 152.9739379882813 L 501.5718383789063 152.9739379882813 L 501.5718383789063 453.5405883789063 C 501.5718383789063 477.7668151855469 481.8627014160156 497.476806640625 457.637451171875 497.476806640625 Z M 10.46970367431641 127.0170059204102 L 10.46970367431641 453.5946044921875 C 10.46970367431641 472.0293273925781 25.4691047668457 487.0278015136719 43.90557098388672 487.0278015136719 L 457.637451171875 487.0278015136719 C 471.3012390136719 487.0278015136719 483.4728393554688 478.8251953125 488.6451110839844 466.1297912597656 L 484.3998413085938 466.1297912597656 L 484.3998413085938 455.6808166503906 L 491.013916015625 455.6808166503906 L 491.0354919433594 455.349609375 L 491.0462951660156 455.1939392089844 C 491.0841064453125 454.6521301269531 491.1228332519531 454.0968017578125 491.1228332519531 453.5405883789063 L 491.1228332519531 376.0281372070313 L 412.1882934570313 376.0281372070313 C 378.2673034667969 376.0281372070313 350.6706237792969 348.431396484375 350.6706237792969 314.5104064941406 C 350.6706237792969 280.5876159667969 378.2673034667969 252.9900054931641 412.1882934570313 252.9900054931641 L 491.1228332519531 252.9900054931641 L 491.1228332519531 179.9387969970703 L 491.1021118164063 179.9387969970703 L 491.1021118164063 178.6788024902344 L 475.4286499023438 178.6788024902344 L 475.4286499023438 168.2297973632813 L 491.1021118164063 168.2297973632813 L 491.1021118164063 158.5386047363281 C 491.1021118164063 149.9661407470703 484.1280517578125 142.9920043945313 475.5564270019531 142.9920043945313 C 375.7662353515625 142.9929351806641 137.3166351318359 142.9947357177734 43.12263870239258 142.9947357177734 L 43.12263870239258 142.9154663085938 C 36.70923614501953 142.6977386474609 30.56037139892578 141.1506042480469 24.84630393981934 138.3191986083984 C 19.29963684082031 135.571533203125 14.46210384368896 131.7689971923828 10.46970367431641 127.0170059204102 Z M 412.1882934570313 263.4389953613281 C 384.0291137695313 263.4389953613281 361.1195678710938 286.3493957519531 361.1195678710938 314.5104064941406 C 361.1195678710938 342.6696166992188 384.0291137695313 365.5791320800781 412.1882934570313 365.5791320800781 L 491.1012268066406 365.5791320800781 L 491.1012268066406 263.4389953613281 L 470.5326232910156 263.4389953613281 L 470.5326232910156 279.112548828125 L 460.0845031738281 279.112548828125 L 460.0845031738281 263.4389953613281 L 412.1882934570313 263.4389953613281 Z M 402.3216247558594 64.15740203857422 L 402.3216247558594 132.5429992675781 L 420.9057006835938 132.5429992675781 L 420.9057006835938 78.16046905517578 C 420.9057006835938 70.43939971923828 414.6255187988281 64.15740203857422 406.9053039550781 64.15740203857422 L 402.3216247558594 64.15740203857422 Z M 203.5836334228516 44.97660446166992 C 200.2581024169922 44.97660446166992 197.5527038574219 47.68200302124023 197.5527038574219 51.00753784179688 L 197.5527038574219 132.5429992675781 L 391.8726501464844 132.5429992675781 L 391.8726501464844 51.00753784179688 C 391.8726501464844 47.68200302124023 389.1680908203125 44.97660446166992 385.8444519042969 44.97660446166992 L 203.5836334228516 44.97660446166992 Z M 70.13523864746094 10.44900321960449 C 61.00203704833984 10.44900321960449 53.57163619995117 17.87940406799316 53.57163619995117 27.01260375976563 L 53.57163619995117 132.5429992675781 L 187.1036987304688 132.5429992675781 L 187.1036987304688 51.00753784179688 C 187.1036987304688 41.92113494873047 194.4963073730469 34.52853775024414 203.5836334228516 34.52853775024414 L 307.0125122070313 34.52853775024414 L 307.0125122070313 27.01260375976563 C 307.0125122070313 17.87940406799316 299.5830383300781 10.44900321960449 290.4515686035156 10.44900321960449 L 70.13523864746094 10.44900321960449 Z M 43.12263870239258 64.21953582763672 C 24.81030464172363 65.03400421142578 10.45890426635742 80.01453399658203 10.44990348815918 98.32593536376953 L 10.46970367431641 98.32593536376953 L 10.46970367431641 98.74713897705078 C 10.68123722076416 116.8506011962891 25.02450370788574 131.661865234375 43.12263870239258 132.4656066894531 L 43.12263870239258 64.21953582763672 Z M 463.5009155273438 466.1297912597656 L 442.6029052734375 466.1297912597656 L 442.6029052734375 455.6808166503906 L 463.5009155273438 455.6808166503906 L 463.5009155273438 466.1297912597656 Z M 421.7048950195313 466.1297912597656 L 400.8069152832031 466.1297912597656 L 400.8069152832031 455.6808166503906 L 421.7048950195313 455.6808166503906 L 421.7048950195313 466.1297912597656 Z M 379.9089050292969 466.1297912597656 L 359.0108947753906 466.1297912597656 L 359.0108947753906 455.6808166503906 L 379.9089050292969 455.6808166503906 L 379.9089050292969 466.1297912597656 Z M 338.1129150390625 466.1297912597656 L 317.2149047851563 466.1297912597656 L 317.2149047851563 455.6808166503906 L 338.1129150390625 455.6808166503906 L 338.1129150390625 466.1297912597656 Z M 296.31689453125 466.1297912597656 L 275.4189147949219 466.1297912597656 L 275.4189147949219 455.6808166503906 L 296.31689453125 455.6808166503906 L 296.31689453125 466.1297912597656 Z M 254.5209045410156 466.1297912597656 L 233.6229095458984 466.1297912597656 L 233.6229095458984 455.6808166503906 L 254.5209045410156 455.6808166503906 L 254.5209045410156 466.1297912597656 Z M 212.7248992919922 466.1297912597656 L 191.826904296875 466.1297912597656 L 191.826904296875 455.6808166503906 L 212.7248992919922 455.6808166503906 L 212.7248992919922 466.1297912597656 Z M 170.9289093017578 466.1297912597656 L 150.0308990478516 466.1297912597656 L 150.0308990478516 455.6808166503906 L 170.9289093017578 455.6808166503906 L 170.9289093017578 466.1297912597656 Z M 129.1329040527344 466.1297912597656 L 108.2349014282227 466.1297912597656 L 108.2349014282227 455.6808166503906 L 129.1329040527344 455.6808166503906 L 129.1329040527344 466.1297912597656 Z M 87.33870697021484 466.1297912597656 L 67.79070281982422 466.1297912597656 C 67.26510620117188 466.1297912597656 66.7467041015625 466.1172180175781 66.23190307617188 466.0965270996094 L 66.65043640136719 455.6583251953125 L 67.79070281982422 455.6808166503906 L 87.33870697021484 455.6808166503906 L 87.33870697021484 466.1297912597656 Z M 43.96410369873047 457.2575988769531 C 37.77030563354492 451.8927307128906 33.51963806152344 444.5280151367188 32.00490570068359 436.5198059082031 L 42.27030563354492 434.5758056640625 C 43.35210418701172 440.2799987792969 46.38243865966797 445.5306091308594 50.80590438842773 449.3591918945313 L 43.96410369873047 457.2575988769531 Z M 41.81670379638672 414.6893920898438 L 31.36770439147949 414.6893920898438 L 31.36770439147949 393.7914123535156 L 41.81670379638672 393.7914123535156 L 41.81670379638672 414.6893920898438 Z M 41.81670379638672 372.8934020996094 L 31.36770439147949 372.8934020996094 L 31.36770439147949 351.9953918457031 L 41.81670379638672 351.9953918457031 L 41.81670379638672 372.8934020996094 Z M 470.5326232910156 362.7054138183594 L 460.0836486816406 362.7054138183594 L 460.0836486816406 341.8074035644531 L 470.5326232910156 341.8074035644531 L 470.5326232910156 362.7054138183594 Z M 414.7011108398438 340.6329345703125 C 400.2975158691406 340.6329345703125 388.5786437988281 328.9140014648438 388.5786437988281 314.5104064941406 C 388.5786437988281 300.1058654785156 400.2975158691406 288.387939453125 414.7011108398438 288.387939453125 C 429.1056518554688 288.387939453125 440.8236389160156 300.1058654785156 440.8236389160156 314.5104064941406 C 440.8236389160156 328.9140014648438 429.1056518554688 340.6329345703125 414.7011108398438 340.6329345703125 Z M 414.7011108398438 298.8369445800781 C 406.0584411621094 298.8369445800781 399.0276489257813 305.8677368164063 399.0276489257813 314.5104064941406 C 399.0276489257813 323.1521911621094 406.0584411621094 330.1838684082031 414.7011108398438 330.1838684082031 C 423.3438415527344 330.1838684082031 430.3746337890625 323.1521911621094 430.3746337890625 314.5104064941406 C 430.3746337890625 305.8677368164063 423.3438415527344 298.8369445800781 414.7011108398438 298.8369445800781 Z M 41.81670379638672 331.097412109375 L 31.36770439147949 331.097412109375 L 31.36770439147949 310.1994018554688 L 41.81670379638672 310.1994018554688 L 41.81670379638672 331.097412109375 Z M 470.5326232910156 320.9093933105469 L 460.0836486816406 320.9093933105469 L 460.0836486816406 300.0114135742188 L 470.5326232910156 300.0114135742188 L 470.5326232910156 320.9093933105469 Z M 41.81670379638672 289.3013916015625 L 31.36770439147949 289.3013916015625 L 31.36770439147949 268.4034118652344 L 41.81670379638672 268.4034118652344 L 41.81670379638672 289.3013916015625 Z M 41.81670379638672 247.5054016113281 L 31.36770439147949 247.5054016113281 L 31.36770439147949 226.6074066162109 L 41.81670379638672 226.6074066162109 L 41.81670379638672 247.5054016113281 Z M 41.81670379638672 205.7085418701172 L 31.36770439147949 205.7085418701172 L 31.36770439147949 199.9053344726563 C 31.36770439147949 193.8159332275391 33.10203552246094 187.9002075195313 36.37983703613281 182.7972106933594 L 45.17103576660156 188.4456024169922 C 42.97683715820313 191.8610687255859 41.81670379638672 195.8229370117188 41.81670379638672 199.9053344726563 L 41.81670379638672 205.7085418701172 Z M 58.60170364379883 179.142333984375 L 56.42283630371094 168.9228057861328 C 58.58370208740234 168.4638061523438 60.81123733520508 168.2288665771484 63.04590225219727 168.2288665771484 L 78.36656951904297 168.2288665771484 L 78.36656951904297 178.6779327392578 L 63.04590225219727 178.6779327392578 C 61.54290390014648 178.6779327392578 60.04530334472656 178.8336029052734 58.60170364379883 179.142333984375 Z M 454.5296936035156 178.6779327392578 L 433.6317138671875 178.6779327392578 L 433.6317138671875 168.2288665771484 L 454.5296936035156 168.2288665771484 L 454.5296936035156 178.6779327392578 Z M 412.7346496582031 178.6779327392578 L 391.8366394042969 178.6779327392578 L 391.8366394042969 168.2288665771484 L 412.7346496582031 168.2288665771484 L 412.7346496582031 178.6779327392578 Z M 370.9385681152344 178.6779327392578 L 350.0406494140625 178.6779327392578 L 350.0406494140625 168.2288665771484 L 370.9385681152344 168.2288665771484 L 370.9385681152344 178.6779327392578 Z M 329.1426391601563 178.6779327392578 L 308.2445678710938 178.6779327392578 L 308.2445678710938 168.2288665771484 L 329.1426391601563 168.2288665771484 L 329.1426391601563 178.6779327392578 Z M 287.3466491699219 178.6779327392578 L 266.4486389160156 178.6779327392578 L 266.4486389160156 168.2288665771484 L 287.3466491699219 168.2288665771484 L 287.3466491699219 178.6779327392578 Z M 245.5506439208984 178.6779327392578 L 224.6526336669922 178.6779327392578 L 224.6526336669922 168.2288665771484 L 245.5506439208984 168.2288665771484 L 245.5506439208984 178.6779327392578 Z M 203.754638671875 178.6779327392578 L 182.8565673828125 178.6779327392578 L 182.8565673828125 168.2288665771484 L 203.754638671875 168.2288665771484 L 203.754638671875 178.6779327392578 Z M 161.9586334228516 178.6779327392578 L 141.0606384277344 178.6779327392578 L 141.0606384277344 168.2288665771484 L 161.9586334228516 168.2288665771484 L 161.9586334228516 178.6779327392578 Z M 120.1626358032227 178.6779327392578 L 99.26464080810547 178.6779327392578 L 99.26464080810547 168.2288665771484 L 120.1626358032227 168.2288665771484 L 120.1626358032227 178.6779327392578 Z M 228.8997039794922 106.420539855957 L 218.4506988525391 106.420539855957 L 218.4506988525391 65.87460327148438 L 247.1013031005859 65.87460327148438 L 247.1013031005859 76.32360076904297 L 228.8997039794922 76.32360076904297 L 228.8997039794922 106.420539855957 Z M 84.91857147216797 80.03253936767578 L 74.46963500976563 80.03253936767578 L 74.46963500976563 31.34700393676758 L 105.938102722168 31.34700393676758 L 105.938102722168 41.79600143432617 L 84.91857147216797 41.79600143432617 L 84.91857147216797 80.03253936767578 Z M 270.5238342285156 76.32540130615234 L 256.1300964355469 76.32540130615234 L 256.1300964355469 65.87640380859375 L 270.5238342285156 65.87640380859375 L 270.5238342285156 76.32540130615234 Z M 137.2203063964844 41.79600143432617 L 119.4624404907227 41.79600143432617 L 119.4624404907227 31.34793663024902 L 137.2203063964844 31.34793663024902 L 137.2203063964844 41.79600143432617 Z" stroke="none" fill="#444e5b"/>
  </g>
</svg>
