<svg xmlns="http://www.w3.org/2000/svg" width="572.999" height="554" viewBox="0 0 572.999 554">
  <g id="map" opacity="0.507">
    <g id="Combined_Shape" data-name="Combined Shape" fill="none" stroke-miterlimit="10" opacity="0.13">
      <path d="M300.41,554v-12.08H288.337V530.249H300.41v-12.08h11.666v12.08h12.074v11.672H312.076V554ZM45.13,554v-12.08H33.058V530.249H45.13v-12.08H56.8v12.08H68.87v11.672H56.8V554Zm425.16-25.725V516.2H458.216V504.522H470.29V492.444h11.666v12.078h12.073V516.2H481.955v12.081ZM178.646,514.494v-8.77H169.88v-11.86h8.767v-8.77H190.5v8.77h8.764v11.86H190.5v8.77Zm-72.582-11.945c-.593-.842-1.2-1.689-1.777-2.508l-.07-.1c-3.458-4.869-7.033-9.9-13.036-19.315L22.038,498.934V133.7L177.316,92.687l22.97,6.062c-.008-.223-.019-.451-.029-.671v-.007c-.022-.462-.044-.939-.044-1.4a56.2,56.2,0,1,1,112.407,0c0,8.168-2.092,18.305-6.218,30.128l20.309,5.37L482.065,91.142v88.047a50.486,50.486,0,0,1,17.516-15.544A49.546,49.546,0,0,1,523,157.79a50.035,50.035,0,1,1-12.264,98.544,49.555,49.555,0,0,1-11.158-4.328,50.486,50.486,0,0,1-17.516-15.544V456.318L326.742,497.385,177.315,457.864,126.434,471.3c-8.564,14.238-13.639,21.549-18.547,28.619l-.083.119c-.578.832-1.156,1.665-1.738,2.507h0ZM332.187,321.385V483.836L470.364,447.3V221.466ZM33.739,285.558V483.725l50.982-13.5a370.8,370.8,0,0,1-23.1-44c-7.835-18.152-11.809-33.3-11.809-45.021a56.2,56.2,0,1,1,112.407,0c0,9.7-2.931,22.107-8.713,36.873A325.611,325.611,0,0,1,134.725,457l36.76-9.711V207.477L84.9,256.558l33.458,50.634-9.759,6.461-33.9-51.31ZM191.275,449.447,320.486,483.62V361.933ZM61.514,381.2c0,13.172,5.915,31.6,17.579,54.778a471.772,471.772,0,0,0,26.882,45.894,502.148,502.148,0,0,0,26.912-46.4c11.7-23.315,17.634-41.576,17.634-54.274a44.5,44.5,0,1,0-89.006,0Zm121.672,59.587,137.3-92.992V321.181l-137.3-111.459Zm149-297.952v164.1l138.177-99.916v-9.249l-102.31-64.41Zm-78.2,109.282,66.5,53.987V200.672ZM33.739,142.727V272.1l137.746-78.079V144.479l-63,35.258-19.156-51.7Zm450.968,65.1A38.3,38.3,0,1,0,523,169.5,38.354,38.354,0,0,0,484.708,207.825ZM183.186,194.644l61.464,49.9,75.837-58.663V142.635l-18.311-4.842c-9.819,23.644-24.772,49.886-45.712,80.227-5.715-8.123-11.167-16.274-16.208-24.223-5.98-9.431-11.4-18.626-16.126-27.329-11.56-21.31-19.037-39.876-22.223-55.184l-18.721-4.939Zm28.726-97.973c0,13.16,5.915,31.585,17.579,54.764a472.466,472.466,0,0,0,26.881,45.9,501.8,501.8,0,0,0,26.913-46.4c11.7-23.314,17.634-41.575,17.634-54.271a44.5,44.5,0,1,0-89.006,0Zm171.623,32.6,86.829,54.663v-77.6ZM100.7,125.038l14.006,37.8,56.784-31.778V106.337ZM372.219,407.01c-12.4-23.953-18.686-43.388-18.686-57.766a51.424,51.424,0,1,1,102.847,0c0,13.973-6.365,33.375-18.917,57.668A515.7,515.7,0,0,1,405,460.287h0C395.964,447.413,382.938,427.719,372.219,407.01Zm-7.014-57.767c0,11.758,5.228,28.187,15.538,48.833a425.859,425.859,0,0,0,24.17,41.521,452.848,452.848,0,0,0,24.206-41.974c10.345-20.768,15.591-37.045,15.591-48.38a39.752,39.752,0,1,0-79.5,0ZM78.971,378.063a27.089,27.089,0,1,1,27.087,27.1A27.126,27.126,0,0,1,78.971,378.063Zm11.73,0a15.359,15.359,0,1,0,15.358-15.368A15.379,15.379,0,0,0,90.7,378.063Zm289.463-31.24a25.252,25.252,0,1,1,25.251,25.267A25.286,25.286,0,0,1,380.164,346.823Zm11.788,0a13.464,13.464,0,1,0,13.463-13.47A13.482,13.482,0,0,0,391.952,346.823ZM229.568,93.252a27.089,27.089,0,1,1,27.089,27.1A27.126,27.126,0,0,1,229.568,93.252Zm11.731,0a15.359,15.359,0,1,0,15.359-15.367A15.38,15.38,0,0,0,241.3,93.252ZM7.949,107.492V99.541H0V87.883H7.949V79.93H19.6v7.953h7.946V99.541H19.6v7.951ZM391.684,87.28V78.51h-8.765V66.65h8.765v-8.77h11.854v8.77H412.3V78.51h-8.765V87.28ZM147.424,56.043v-8.77h-8.765V35.413h8.765v-8.77h11.854v8.77h8.766v11.86h-8.766v8.77Zm323.231-14.7V32.573h-8.766V20.714h8.766v-8.77h11.853v8.77h8.766V32.573h-8.766v8.771Zm-400.267,0V33.391H62.442V21.731h7.946V13.781H82.041v7.951H89.99V33.391H82.041v7.952ZM315.468,29.4V20.63H306.7V8.77h8.766V0h11.853V8.77h8.765V20.63h-8.765V29.4Z" stroke="none"/>
      <path d="M 310.075927734375 552.0004272460938 L 310.075927734375 541.9205932617188 L 310.075927734375 539.9205932617188 L 312.075927734375 539.9205932617188 L 322.1493835449219 539.9205932617188 L 322.1493835449219 532.24853515625 L 312.075927734375 532.24853515625 L 310.075927734375 532.24853515625 L 310.075927734375 530.24853515625 L 310.075927734375 520.168701171875 L 302.4100646972656 520.168701171875 L 302.4100646972656 530.24853515625 L 302.4100646972656 532.24853515625 L 300.4100646972656 532.24853515625 L 290.3366088867188 532.24853515625 L 290.3366088867188 539.9205932617188 L 300.4100646972656 539.9205932617188 L 302.4100646972656 539.9205932617188 L 302.4100646972656 541.9205932617188 L 302.4100646972656 552.0004272460938 L 310.075927734375 552.0004272460938 M 54.79631042480469 552.0004272460938 L 54.79631042480469 541.9205932617188 L 54.79631042480469 539.9205932617188 L 56.79631042480469 539.9205932617188 L 66.86985015869141 539.9205932617188 L 66.86985015869141 532.24853515625 L 56.79631042480469 532.24853515625 L 54.79631042480469 532.24853515625 L 54.79631042480469 530.24853515625 L 54.79631042480469 520.168701171875 L 47.12961959838867 520.168701171875 L 47.12961959838867 530.24853515625 L 47.12961959838867 532.24853515625 L 45.12961959838867 532.24853515625 L 35.05792617797852 532.24853515625 L 35.05792617797852 539.9205932617188 L 45.12961959838867 539.9205932617188 L 47.12961959838867 539.9205932617188 L 47.12961959838867 541.9205932617188 L 47.12961959838867 552.0004272460938 L 54.79631042480469 552.0004272460938 M 479.9553833007813 526.2756958007813 L 479.9553833007813 516.1950073242188 L 479.9553833007813 514.1950073242188 L 481.9553833007813 514.1950073242188 L 492.0289306640625 514.1950073242188 L 492.0289306640625 506.52197265625 L 481.9553833007813 506.52197265625 L 479.9553833007813 506.52197265625 L 479.9553833007813 504.52197265625 L 479.9553833007813 494.4439697265625 L 472.2896118164063 494.4439697265625 L 472.2896118164063 504.52197265625 L 472.2896118164063 506.52197265625 L 470.2896118164063 506.52197265625 L 460.2161560058594 506.52197265625 L 460.2161560058594 514.1950073242188 L 470.2896118164063 514.1950073242188 L 472.2896118164063 514.1950073242188 L 472.2896118164063 516.1950073242188 L 472.2896118164063 526.2756958007813 L 479.9553833007813 526.2756958007813 M 188.5003051757813 512.4940795898438 L 188.5003051757813 505.7244567871094 L 188.5003051757813 503.7244567871094 L 190.5003051757813 503.7244567871094 L 197.2645416259766 503.7244567871094 L 197.2645416259766 495.8642272949219 L 190.5003051757813 495.8642272949219 L 188.5003051757813 495.8642272949219 L 188.5003051757813 493.8642272949219 L 188.5003051757813 487.0946044921875 L 180.6463928222656 487.0946044921875 L 180.6463928222656 493.8642272949219 L 180.6463928222656 495.8642272949219 L 178.6463928222656 495.8642272949219 L 171.8795471191406 495.8642272949219 L 171.8795471191406 503.7244567871094 L 178.6463928222656 503.7244567871094 L 180.6463928222656 503.7244567871094 L 180.6463928222656 505.7244567871094 L 180.6463928222656 512.4940795898438 L 188.5003051757813 512.4940795898438 M 106.0470123291016 499.0653991699219 C 106.0855331420898 499.0098876953125 106.1240844726563 498.954345703125 106.1626205444336 498.8988342285156 L 106.2436141967773 498.7825317382813 L 106.2501525878906 498.7732238769531 C 111.138313293457 491.7308959960938 116.193000793457 484.4488220214844 124.7200012207031 470.2729797363281 L 125.1383895874023 469.5775146484375 L 125.9230804443359 469.3702087402344 L 176.8045349121094 455.9305114746094 L 177.3156127929688 455.7955322265625 L 177.8266906738281 455.9306640625 L 326.7424621582031 495.3162231445313 L 480.0652465820313 454.7781372070313 L 480.0652465820313 236.4615173339844 L 480.0652465820313 230.1209869384766 L 483.7032470703125 235.3139801025391 C 485.8722229003906 238.4099884033203 488.4038391113281 241.2513732910156 491.2283020019531 243.7595977783203 C 494.063232421875 246.2792205810547 497.1907043457031 248.4600524902344 500.5240173339844 250.2415924072266 C 503.9149169921875 252.0545959472656 507.5174560546875 253.4520568847656 511.2317810058594 254.3951416015625 C 515.05908203125 255.36767578125 519.0197143554688 255.8608245849609 523.0035400390625 255.8608245849609 C 549.4685668945313 255.8608245849609 570.9993896484375 234.3122100830078 570.9993896484375 207.8252868652344 C 570.9993896484375 181.3384399414063 549.4685668945313 159.7898254394531 523.0035400390625 159.7898254394531 C 519.0197143554688 159.7898254394531 515.05908203125 160.2829895019531 511.2313842773438 161.2556762695313 C 507.5177612304688 162.1984405517578 503.9152221679688 163.5958251953125 500.5237731933594 165.4090576171875 C 497.1929321289063 167.1894378662109 494.0653991699219 169.370361328125 491.2278442382813 171.8914489746094 C 488.4017639160156 174.4016723632813 485.8701477050781 177.2429809570313 483.7033996582031 180.3365173339844 L 480.0652465820313 185.5306701660156 L 480.0652465820313 179.1891326904297 L 480.0652465820313 93.73887634277344 L 327.2215270996094 134.1032104492188 L 326.7105407714844 134.2381439208984 L 326.1995544433594 134.1030578613281 L 305.8900756835938 128.7327575683594 L 303.8009948730469 128.1803741455078 L 304.5130920410156 126.14013671875 C 308.5650024414063 114.5314407348633 310.6195373535156 104.616828918457 310.6195373535156 96.67167663574219 C 310.6195373535156 66.75967407226563 286.3040771484375 42.42444610595703 256.4163208007813 42.42444610595703 C 226.528076171875 42.42444610595703 202.2122344970703 66.75967407226563 202.2122344970703 96.67167663574219 C 202.2122344970703 97.05814361572266 202.2310180664063 97.48130035400391 202.2502746582031 97.89395141601563 L 202.2515411376953 97.90375518798828 L 202.2552337646484 97.98736572265625 L 202.2614593505859 98.12498474121094 C 202.2696990966797 98.30751800537109 202.278076171875 98.49305725097656 202.2846984863281 98.67567443847656 L 202.3822326660156 101.3695983886719 L 199.7756958007813 100.681755065918 L 177.3165893554688 94.75505065917969 L 24.03831100463867 135.2452087402344 L 24.03831100463867 496.3353881835938 L 90.66799926757813 478.6927490234375 L 92.08039093017578 478.3187561035156 L 92.86615753173828 479.5505981445313 C 98.83815765380859 488.9136657714844 102.3966979980469 493.9245300292969 105.8380813598633 498.7703552246094 L 105.8470001220703 498.7829895019531 L 105.8498458862305 498.7868957519531 L 105.8526916503906 498.7908935546875 L 105.9229278564453 498.8908386230469 L 105.9229125976563 498.8908386230469 C 105.9637832641602 498.9483337402344 106.0051651000977 499.0065307617188 106.0470123291016 499.0653991699219 M 472.3643188476563 217.5512847900391 L 472.3643188476563 221.4656677246094 L 472.3643188476563 447.3018188476563 L 472.3643188476563 448.8417663574219 L 470.8755493164063 449.2353820800781 L 332.6985473632813 485.7690734863281 L 330.1873168945313 486.4330749511719 L 330.1873168945313 483.8355102539063 L 330.1873168945313 321.3846130371094 L 330.1873168945313 320.3627624511719 L 331.015380859375 319.763916015625 L 469.1923828125 219.8449859619141 L 472.3643188476563 217.5512847900391 M 75.33338928222656 259.6817626953125 L 76.36323547363281 261.2402038574219 L 109.1644287109375 310.8799743652344 L 115.5878601074219 306.6271057128906 L 83.2310791015625 257.6602172851563 L 82.05054473876953 255.8736724853516 L 83.91346740722656 254.8176727294922 L 170.4988555908203 205.737060546875 L 173.4850769042969 204.0442962646484 L 173.4850769042969 207.4769897460938 L 173.4850769042969 447.2936706542969 L 173.4850769042969 448.833984375 L 171.9959259033203 449.2273559570313 L 135.2354583740234 458.9383544921875 L 130.6889953613281 460.1393737792969 L 132.9774627685547 456.0313720703125 C 140.8367767333984 441.9229125976563 147.1175384521484 428.9060668945313 151.6453094482422 417.3424377441406 C 157.3353881835938 402.8097534179688 160.2205352783203 390.6492004394531 160.2205352783203 381.1986083984375 C 160.2205352783203 351.2865295410156 135.9050750732422 326.9512939453125 106.0173110961914 326.9512939453125 C 76.12908172607422 326.9512939453125 51.813232421875 351.2865295410156 51.813232421875 381.1986083984375 C 51.813232421875 392.6449890136719 55.73123168945313 407.5254516601563 63.45830917358398 425.4266662597656 C 69.21238708496094 438.7565307617188 76.94230651855469 453.480224609375 86.43338775634766 469.1888427734375 L 87.81353759765625 471.47314453125 L 85.23354339599609 472.1564331054688 L 34.2512321472168 485.658203125 L 31.73923301696777 486.3234558105469 L 31.73923301696777 483.7248229980469 L 31.73923301696777 285.5582885742188 L 31.73923301696777 284.3929748535156 L 32.75300216674805 283.818359375 L 73.70838928222656 260.6029052734375 L 75.33338928222656 259.6817626953125 M 322.4863891601563 358.1630554199219 L 322.4863891601563 361.9332275390625 L 322.4863891601563 483.6204528808594 L 322.4863891601563 486.2181396484375 L 319.9750061035156 485.5539855957031 L 190.7638549804688 451.3800659179688 L 186.5136108398438 450.2559204101563 L 190.1537017822266 447.7905883789063 L 319.3648376464844 360.2772827148438 L 322.4863891601563 358.1630554199219 M 106.0173110961914 334.6612243652344 C 131.6593170166016 334.6612243652344 152.5205383300781 355.537841796875 152.5205383300781 381.1986083984375 C 152.5205383300781 394.2108154296875 146.5162353515625 412.7729187011719 134.6743927001953 436.3692932128906 C 124.9366149902344 455.7732238769531 113.5633087158203 473.8898315429688 107.6505432128906 482.9619750976563 L 105.9883117675781 485.5123596191406 L 104.3074645996094 482.9741516113281 C 98.39430999755859 474.0447387695313 87.02354431152344 456.1819763183594 77.30638885498047 436.8753051757813 C 65.50031280517578 413.4161376953125 59.51408004760742 394.6837463378906 59.51408004760742 381.1986083984375 C 59.51408004760742 355.537841796875 80.37531280517578 334.6612243652344 106.0173110961914 334.6612243652344 M 181.1860046386719 205.5229034423828 L 184.4465484619141 208.1697540283203 L 321.7469177246094 319.6284484863281 L 322.4863891601563 320.228759765625 L 322.4863891601563 321.1812133789063 L 322.4863891601563 347.7942199707031 L 322.4863891601563 348.855224609375 L 321.6079406738281 349.4501342773438 L 184.3075408935547 442.4417419433594 L 181.1860046386719 444.5559692382813 L 181.1860046386719 440.7858276367188 L 181.1860046386719 209.7225189208984 L 181.1860046386719 205.5229034423828 M 368.3839111328125 131.2054443359375 L 369.11962890625 131.6685943603516 L 471.4298400878906 196.0789031982422 L 472.3643188476563 196.6672210693359 L 472.3643188476563 197.7714385986328 L 472.3643188476563 207.0206756591797 L 472.3643188476563 208.0426025390625 L 471.5362243652344 208.6413726806641 L 333.3592224121094 308.5575866699219 L 330.1873168945313 310.8512268066406 L 330.1873168945313 306.9369201660156 L 330.1873168945313 142.8336029052734 L 330.1873168945313 141.293212890625 L 331.6766052246094 140.89990234375 L 367.5433959960938 131.4274444580078 L 368.3839111328125 131.2054443359375 M 322.4863891601563 196.5965270996094 L 322.4863891601563 200.6721343994141 L 322.4863891601563 306.1026000976563 L 322.4863891601563 310.3022155761719 L 319.2258605957031 307.6553649902344 L 252.7221527099609 253.6679840087891 L 250.7628479003906 252.0773620605469 L 252.7590026855469 250.5332946777344 L 319.2626953125 199.0902099609375 L 322.4863891601563 196.5965270996094 M 90.57492828369141 125.6438293457031 L 91.20577239990234 127.3462905883789 L 109.5491638183594 176.8503112792969 L 170.5083160400391 142.7335968017578 L 173.4850769042969 141.0675964355469 L 173.4850769042969 144.4788360595703 L 173.4850769042969 194.0219879150391 L 173.4850769042969 195.1872863769531 L 172.4713134765625 195.7619018554688 L 34.7254638671875 273.8414306640625 L 31.73923301696777 275.5341491699219 L 31.73923301696777 272.1015319824219 L 31.73923301696777 142.7274475097656 L 31.73923301696777 141.1872100830078 L 33.22838592529297 140.7937469482422 L 88.81954193115234 126.1075210571289 L 90.57492828369141 125.6438293457031 M 523.0035400390625 167.5005950927734 C 545.2227783203125 167.5005950927734 563.2994384765625 185.5902099609375 563.2994384765625 207.8252868652344 C 563.2994384765625 230.0609130859375 545.2227783203125 248.1509094238281 523.0035400390625 248.1509094238281 C 500.7843017578125 248.1509094238281 482.7076110839844 230.0609130859375 482.7076110839844 207.8252868652344 C 482.7076110839844 185.5902099609375 500.7843017578125 167.5005950927734 523.0035400390625 167.5005950927734 M 181.1860046386719 103.7488327026367 L 183.6962280273438 104.4110565185547 L 202.4171600341797 109.3502883911133 L 203.6129302978516 109.6658325195313 L 203.8649291992188 110.876594543457 C 207.0109252929688 125.9914474487305 214.4204711914063 144.3740539550781 225.8876190185547 165.5138244628906 C 230.5924682617188 174.1853637695313 235.9949188232422 183.3405914306641 241.9450073242188 192.7251434326172 C 246.4907379150391 199.8939666748047 251.3623657226563 207.2112731933594 256.4489135742188 214.5110321044922 C 276.4567260742188 185.2885131835938 290.821044921875 159.9203033447266 300.328857421875 137.0256805419922 L 300.9986877441406 135.4126739501953 L 302.6872253417969 135.8592071533203 L 320.9976806640625 140.7011413574219 L 322.4863891601563 141.0948333740234 L 322.4863891601563 142.6346740722656 L 322.4863891601563 185.8761291503906 L 322.4863891601563 186.8576049804688 L 321.7100830078125 187.4580535888672 L 245.8733825683594 246.1209106445313 L 244.6196899414063 247.0906677246094 L 243.38916015625 246.0917510986328 L 181.9254608154297 196.1966705322266 L 181.1860046386719 195.5963745117188 L 181.1860046386719 194.6439056396484 L 181.1860046386719 106.3449096679688 L 181.1860046386719 103.7488327026367 M 256.4153747558594 50.13336563110352 C 282.057373046875 50.13336563110352 302.9186096191406 71.00997924804688 302.9186096191406 96.67082977294922 C 302.9186096191406 109.6821365356445 296.914306640625 128.2433624267578 285.0724792480469 151.8387451171875 C 275.3320922851563 171.2479858398438 263.9596862792969 189.3611297607422 258.047607421875 198.4306793212891 L 256.385009765625 200.9812927246094 L 254.7044677734375 198.4424438476563 C 248.7913055419922 189.5094451904297 237.4206237792969 171.6406707763672 227.7044677734375 152.3339080810547 C 215.8983917236328 128.8721313476563 209.9122314453125 110.1443710327148 209.9122314453125 96.67082977294922 C 209.9122314453125 71.00997924804688 230.7734680175781 50.13336563110352 256.4153747558594 50.13336563110352 M 472.3643188476563 103.7435989379883 L 472.3643188476563 106.3403701782227 L 472.3643188476563 183.9356689453125 L 472.3643188476563 187.5581359863281 L 469.2987670898438 185.6282196044922 L 382.4694519042969 130.9649047851563 L 378.57568359375 128.5135955810547 L 383.0243225097656 127.3386764526367 L 469.8536071777344 104.4066772460938 L 472.3643188476563 103.7435989379883 M 173.4850769042969 103.7398300170898 L 173.4850769042969 106.3368301391602 L 173.4850769042969 131.0633697509766 L 173.4850769042969 132.2359771728516 L 172.4617767333984 132.8086700439453 L 115.6780776977539 164.5868225097656 L 113.6380767822266 165.7284393310547 L 112.825927734375 163.5363616943359 L 98.82015991210938 125.7327499389648 L 98.05484771728516 123.6669082641602 L 100.1847686767578 123.1042098999023 L 170.9742279052734 104.4031372070313 L 173.4850769042969 103.7398300170898 M 404.9880981445313 456.7724304199219 C 413.764404296875 443.8968811035156 425.697265625 425.3275451660156 435.6861572265625 405.9944458007813 C 441.8842468261719 393.9986877441406 446.6087036132813 383.0944519042969 449.7283020019531 373.5844421386719 C 452.8150024414063 364.1748352050781 454.3800659179688 355.9855346679688 454.3800659179688 349.244140625 C 454.3800659179688 321.90966796875 432.2080688476563 299.6714477539063 404.9550170898438 299.6714477539063 C 377.7039184570313 299.6714477539063 355.5335388183594 321.90966796875 355.5335388183594 349.244140625 C 355.5335388183594 356.1900634765625 357.079833984375 364.4922790527344 360.1296081542969 373.9203796386719 C 363.2100830078125 383.4434509277344 367.875244140625 394.2669677734375 373.9954528808594 406.0903015136719 C 384.0281982421875 425.4734497070313 396.0971069335938 443.9717407226563 404.9880981445313 456.7724304199219 M 404.9559326171875 307.3768310546875 C 427.9786071777344 307.3768310546875 446.7089233398438 326.1579895019531 446.7089233398438 349.2432250976563 C 446.7089233398438 360.8888244628906 441.3928527832031 377.466064453125 430.9083862304688 398.5145263671875 C 422.2027587890625 415.9898986816406 411.9360656738281 432.4363708496094 406.591064453125 440.6845092773438 L 404.9256286621094 443.2546691894531 L 403.2420043945313 440.6963806152344 C 397.8983764648438 432.5765991210938 387.6372985839844 416.3583679199219 378.9539184570313 398.9698181152344 C 368.5040893554688 378.0429077148438 363.2056274414063 361.3124389648438 363.2056274414063 349.2432250976563 C 363.2056274414063 326.1579895019531 381.9346923828125 307.3768310546875 404.9559326171875 307.3768310546875 M 106.0586929321289 403.163818359375 C 119.8938522338867 403.163818359375 131.1496124267578 391.9036865234375 131.1496124267578 378.0630493164063 C 131.1496124267578 364.220458984375 119.8938522338867 352.9585876464844 106.0586929321289 352.9585876464844 C 92.22554016113281 352.9585876464844 80.97138977050781 364.220458984375 80.97138977050781 378.0630493164063 C 80.97138977050781 391.9036865234375 92.22554016113281 403.163818359375 106.0586929321289 403.163818359375 M 106.0586929321289 360.6946105957031 C 115.6316986083984 360.6946105957031 123.419921875 368.4860534667969 123.419921875 378.0630493164063 C 123.419921875 387.6385192871094 115.6316986083984 395.4287414550781 106.0586929321289 395.4287414550781 C 96.48769378662109 395.4287414550781 88.70115661621094 387.6385192871094 88.70115661621094 378.0630493164063 C 88.70115661621094 368.4860534667969 96.48769378662109 360.6946105957031 106.0586929321289 360.6946105957031 M 405.4149169921875 370.0897521972656 C 418.2366943359375 370.0897521972656 428.6679992675781 359.6523742675781 428.6679992675781 346.8231506347656 C 428.6679992675781 333.995361328125 418.2366943359375 323.5592041015625 405.4149169921875 323.5592041015625 C 392.5940856933594 323.5592041015625 382.1636047363281 333.995361328125 382.1636047363281 346.8231506347656 C 382.1636047363281 359.6523742675781 392.5940856933594 370.0897521972656 405.4149169921875 370.0897521972656 M 405.4149169921875 331.3528442382813 C 413.9427795410156 331.3528442382813 420.8807067871094 338.2927551269531 420.8807067871094 346.8231506347656 C 420.8807067871094 355.3544311523438 413.9427795410156 362.2952270507813 405.4149169921875 362.2952270507813 C 396.8885498046875 362.2952270507813 389.9518432617188 355.3544311523438 389.9518432617188 346.8231506347656 C 389.9518432617188 338.2927551269531 396.8885498046875 331.3528442382813 405.4149169921875 331.3528442382813 M 256.6566162109375 118.3542938232422 C 270.4907836914063 118.3542938232422 281.7456970214844 107.0933685302734 281.7456970214844 93.25175476074219 C 281.7456970214844 79.41013336181641 270.4907836914063 68.14913940429688 256.6566162109375 68.14913940429688 C 242.8224639892578 68.14913940429688 231.5675354003906 79.41013336181641 231.5675354003906 93.25175476074219 C 231.5675354003906 107.0933685302734 242.8224639892578 118.3542938232422 256.6566162109375 118.3542938232422 M 256.657470703125 75.88513946533203 C 266.22900390625 75.88513946533203 274.0159912109375 83.67575073242188 274.0159912109375 93.25175476074219 C 274.0159912109375 102.8276748657227 266.22900390625 110.618293762207 256.657470703125 110.618293762207 C 247.0854644775391 110.618293762207 239.2980804443359 102.8276748657227 239.2980804443359 93.25175476074219 C 239.2980804443359 83.67575073242188 247.0854644775391 75.88513946533203 256.657470703125 75.88513946533203 M 17.60200309753418 105.4924468994141 L 17.60200309753418 99.54090881347656 L 17.60200309753418 97.54090881347656 L 19.60200309753418 97.54090881347656 L 25.5480785369873 97.54090881347656 L 25.5480785369873 89.88321685791016 L 19.60200309753418 89.88321685791016 L 17.60200309753418 89.88321685791016 L 17.60200309753418 87.88321685791016 L 17.60200309753418 81.92990875244141 L 9.948771476745605 81.92990875244141 L 9.948771476745605 87.88321685791016 L 9.948771476745605 89.88321685791016 L 7.948771953582764 89.88321685791016 L 2.00000262260437 89.88321685791016 L 2.00000262260437 97.54090881347656 L 7.948771953582764 97.54090881347656 L 9.948771476745605 97.54090881347656 L 9.948771476745605 99.54090881347656 L 9.948771476745605 105.4924468994141 L 17.60200309753418 105.4924468994141 M 401.5375366210938 85.28021240234375 L 401.5375366210938 78.50975036621094 L 401.5375366210938 76.50975036621094 L 403.5375366210938 76.50975036621094 L 410.3026123046875 76.50975036621094 L 410.3026123046875 68.65036773681641 L 403.5375366210938 68.65036773681641 L 401.5375366210938 68.65036773681641 L 401.5375366210938 66.65036773681641 L 401.5375366210938 59.88082885742188 L 393.6836242675781 59.88082885742188 L 393.6836242675781 66.65036773681641 L 393.6836242675781 68.65036773681641 L 391.6836242675781 68.65036773681641 L 384.9185485839844 68.65036773681641 L 384.9185485839844 76.50975036621094 L 391.6836242675781 76.50975036621094 L 393.6836242675781 76.50975036621094 L 393.6836242675781 78.50975036621094 L 393.6836242675781 85.28021240234375 L 401.5375366210938 85.28021240234375 M 157.2774658203125 54.04298400878906 L 157.2774658203125 47.27344512939453 L 157.2774658203125 45.27344512939453 L 159.2774658203125 45.27344512939453 L 166.0435485839844 45.27344512939453 L 166.0435485839844 37.41321182250977 L 159.2774658203125 37.41321182250977 L 157.2774658203125 37.41321182250977 L 157.2774658203125 35.41321182250977 L 157.2774658203125 28.64359855651855 L 149.4236145019531 28.64359855651855 L 149.4236145019531 35.41321182250977 L 149.4236145019531 37.41321182250977 L 147.4236145019531 37.41321182250977 L 140.6585388183594 37.41321182250977 L 140.6585388183594 45.27344512939453 L 147.4236145019531 45.27344512939453 L 149.4236145019531 45.27344512939453 L 149.4236145019531 47.27344512939453 L 149.4236145019531 54.04298400878906 L 157.2774658203125 54.04298400878906 M 480.5079956054688 39.34329223632813 L 480.5079956054688 32.57283020019531 L 480.5079956054688 30.57282829284668 L 482.5079956054688 30.57282829284668 L 489.2740173339844 30.57282829284668 L 489.2740173339844 22.71352195739746 L 482.5079956054688 22.71352195739746 L 480.5079956054688 22.71352195739746 L 480.5079956054688 20.71352195739746 L 480.5079956054688 13.9439058303833 L 472.6549987792969 13.9439058303833 L 472.6549987792969 20.71352195739746 L 472.6549987792969 22.71352195739746 L 470.6549987792969 22.71352195739746 L 463.8890075683594 22.71352195739746 L 463.8890075683594 30.57282829284668 L 470.6549987792969 30.57282829284668 L 472.6549987792969 30.57282829284668 L 472.6549987792969 32.57283020019531 L 472.6549987792969 39.34329223632813 L 480.5079956054688 39.34329223632813 M 80.04131317138672 39.34329223632813 L 80.04131317138672 33.39090728759766 L 80.04131317138672 31.39090538024902 L 82.04131317138672 31.39090538024902 L 87.99015808105469 31.39090538024902 L 87.99015808105469 23.7314453125 L 82.04131317138672 23.7314453125 L 80.04131317138672 23.7314453125 L 80.04131317138672 21.7314453125 L 80.04131317138672 15.78082942962646 L 72.38807678222656 15.78082942962646 L 72.38807678222656 21.7314453125 L 72.38807678222656 23.7314453125 L 70.38807678222656 23.7314453125 L 64.44200134277344 23.7314453125 L 64.44200134277344 31.39090538024902 L 70.38807678222656 31.39090538024902 L 72.38807678222656 31.39090538024902 L 72.38807678222656 33.39090728759766 L 72.38807678222656 39.34329223632813 L 80.04131317138672 39.34329223632813 M 325.3210144042969 27.39944458007813 L 325.3210144042969 20.62982940673828 L 325.3210144042969 18.62982940673828 L 327.3210144042969 18.62982940673828 L 334.0861511230469 18.62982940673828 L 334.0861511230469 10.76959800720215 L 327.3210144042969 10.76959800720215 L 325.3210144042969 10.76959800720215 L 325.3210144042969 8.769598007202148 L 325.3210144042969 1.999982833862305 L 317.468017578125 1.999982833862305 L 317.468017578125 8.769598007202148 L 317.468017578125 10.76959800720215 L 315.468017578125 10.76959800720215 L 308.7019958496094 10.76959800720215 L 308.7019958496094 18.62982940673828 L 315.468017578125 18.62982940673828 L 317.468017578125 18.62982940673828 L 317.468017578125 20.62982940673828 L 317.468017578125 27.39944458007813 L 325.3210144042969 27.39944458007813 M 312.075927734375 554.0004272460938 L 300.4100646972656 554.0004272460938 L 300.4100646972656 541.9205932617188 L 288.3366088867188 541.9205932617188 L 288.3366088867188 530.24853515625 L 300.4100646972656 530.24853515625 L 300.4100646972656 518.168701171875 L 312.075927734375 518.168701171875 L 312.075927734375 530.24853515625 L 324.1493835449219 530.24853515625 L 324.1493835449219 541.9205932617188 L 312.075927734375 541.9205932617188 L 312.075927734375 554.0004272460938 Z M 56.79631042480469 554.0004272460938 L 45.12961959838867 554.0004272460938 L 45.12961959838867 541.9205932617188 L 33.05792617797852 541.9205932617188 L 33.05792617797852 530.24853515625 L 45.12961959838867 530.24853515625 L 45.12961959838867 518.168701171875 L 56.79631042480469 518.168701171875 L 56.79631042480469 530.24853515625 L 68.86985015869141 530.24853515625 L 68.86985015869141 541.9205932617188 L 56.79631042480469 541.9205932617188 L 56.79631042480469 554.0004272460938 Z M 481.9553833007813 528.2756958007813 L 470.2896118164063 528.2756958007813 L 470.2896118164063 516.1950073242188 L 458.2161560058594 516.1950073242188 L 458.2161560058594 504.52197265625 L 470.2896118164063 504.52197265625 L 470.2896118164063 492.4439697265625 L 481.9553833007813 492.4439697265625 L 481.9553833007813 504.52197265625 L 494.0289306640625 504.52197265625 L 494.0289306640625 516.1950073242188 L 481.9553833007813 516.1950073242188 L 481.9553833007813 528.2756958007813 Z M 190.5003051757813 514.4940795898438 L 178.6463928222656 514.4940795898438 L 178.6463928222656 505.7244567871094 L 169.8795471191406 505.7244567871094 L 169.8795471191406 493.8642272949219 L 178.6463928222656 493.8642272949219 L 178.6463928222656 485.0946044921875 L 190.5003051757813 485.0946044921875 L 190.5003051757813 493.8642272949219 L 199.2645416259766 493.8642272949219 L 199.2645416259766 505.7244567871094 L 190.5003051757813 505.7244567871094 L 190.5003051757813 514.4940795898438 Z M 106.0650024414063 502.5501403808594 L 106.064079284668 502.5492248535156 C 105.4710006713867 501.7076721191406 104.8689270019531 500.8598937988281 104.28662109375 500.0408935546875 L 104.2163848876953 499.9409790039063 C 100.7586212158203 495.0720520019531 97.18384552001953 490.0392150878906 91.17992401123047 480.6261291503906 L 22.03831100463867 498.9338989257813 L 22.03831100463867 133.7049102783203 L 177.3162384033203 92.6865234375 L 200.2859954833984 98.74798583984375 C 200.2779235839844 98.52482604980469 200.2670745849609 98.29713439941406 200.2572326660156 98.07659912109375 L 200.2563171386719 98.06944274902344 C 200.2346954345703 97.60767364501953 200.2122344970703 97.13075256347656 200.2122344970703 96.67167663574219 C 200.2122344970703 65.65682983398438 225.4256896972656 40.42444610595703 256.4163208007813 40.42444610595703 C 287.4069213867188 40.42444610595703 312.6195373535156 65.65682983398438 312.6195373535156 96.67167663574219 C 312.6195373535156 104.8401336669922 310.5279235839844 114.9768295288086 306.4013977050781 126.7992172241211 L 326.7108459472656 132.1695251464844 L 482.0652465820313 91.14213562011719 L 482.0652465820313 179.1891326904297 C 484.3233032226563 175.9652862548828 486.9602966308594 173.0069885253906 489.8996887207031 170.3961334228516 C 492.8535461425781 167.7716827392578 496.1106262207031 165.5001373291016 499.5809936523438 163.6452178955078 C 503.1143798828125 161.7561340332031 506.8683166503906 160.2999114990234 510.7392272949219 159.317138671875 C 514.7271728515625 158.3037567138672 518.8536376953125 157.7898254394531 523.0035400390625 157.7898254394531 C 550.5714111328125 157.7898254394531 572.9993896484375 180.2358245849609 572.9993896484375 207.8252868652344 C 572.9993896484375 235.4148254394531 550.5714111328125 257.86083984375 523.0035400390625 257.86083984375 C 518.8536376953125 257.86083984375 514.7271728515625 257.3468933105469 510.7392272949219 256.3335266113281 C 506.8683166503906 255.3506774902344 503.1143798828125 253.8945159912109 499.5809936523438 252.00537109375 C 496.1106262207031 250.1505279541016 492.8535461425781 247.8798217773438 489.8996887207031 245.2545166015625 C 486.9576110839844 242.6418304443359 484.3224792480469 239.6835174560547 482.0652465820313 236.4615173339844 L 482.0652465820313 456.3180541992188 L 326.7423095703125 497.3849792480469 L 177.3153076171875 457.8642272949219 L 126.4338455200195 471.3038940429688 C 117.869384765625 485.5419006347656 112.7943115234375 492.8526000976563 107.8866195678711 499.9229736328125 L 107.8038482666016 500.0418395996094 C 107.2260055541992 500.8742980957031 106.6482315063477 501.7068176269531 106.0659255981445 502.5492248535156 L 106.0650024414063 502.5501403808594 Z M 470.3643188476563 221.4656677246094 L 332.1873168945313 321.3846130371094 L 332.1873168945313 483.8355102539063 L 470.3643188476563 447.3018188476563 L 470.3643188476563 221.4656677246094 Z M 74.69461822509766 262.3428344726563 L 33.73923492431641 285.5582885742188 L 33.73923492431641 483.7248229980469 L 84.72154235839844 470.2230529785156 C 75.18154144287109 454.4334411621094 67.41000366210938 439.6275329589844 61.62207794189453 426.2192993164063 C 53.78669357299805 408.0671997070313 49.813232421875 392.9202270507813 49.813232421875 381.1986083984375 C 49.813232421875 350.1837463378906 75.02669525146484 324.9512939453125 106.0173110961914 324.9512939453125 C 137.0079193115234 324.9512939453125 162.2205352783203 350.1837463378906 162.2205352783203 381.1986083984375 C 162.2205352783203 390.8997497558594 159.2892303466797 403.3052978515625 153.5076141357422 418.0715942382813 C 148.9473114013672 429.7185363769531 142.6275482177734 442.8180541992188 134.7246246337891 457.0046691894531 L 171.4850769042969 447.2936706542969 L 171.4850769042969 207.4769897460938 L 84.89969635009766 256.5575866699219 L 118.3580780029297 307.1915893554688 L 108.5993881225586 313.6526794433594 L 74.69461822509766 262.3428344726563 Z M 320.4863891601563 361.9332275390625 L 191.2752380371094 449.446533203125 L 320.4863891601563 483.6204528808594 L 320.4863891601563 361.9332275390625 Z M 106.0173110961914 336.6612243652344 C 81.47792816162109 336.6612243652344 61.51408004760742 356.6402893066406 61.51408004760742 381.1986083984375 C 61.51408004760742 394.3701477050781 67.42892456054688 412.7994384765625 79.09292602539063 435.9762268066406 C 88.76523590087891 455.1939086914063 100.0872344970703 472.9788208007813 105.9750061035156 481.8699035644531 C 111.8619232177734 472.8375244140625 123.1883850097656 454.7979125976563 132.8868560791016 435.4721984863281 C 144.5876922607422 412.1568298339844 150.5205383300781 393.8966674804688 150.5205383300781 381.1986083984375 C 150.5205383300781 356.6402893066406 130.5567016601563 336.6612243652344 106.0173110961914 336.6612243652344 Z M 183.1860046386719 209.7225189208984 L 183.1860046386719 440.7858276367188 L 320.4863891601563 347.7942199707031 L 320.4863891601563 321.1812133789063 L 183.1860046386719 209.7225189208984 Z M 368.0540771484375 133.3611297607422 L 332.1873168945313 142.8336029052734 L 332.1873168945313 306.9369201660156 L 470.3643188476563 207.0206756591797 L 470.3643188476563 197.7714385986328 L 368.0540771484375 133.3611297607422 Z M 320.4863891601563 200.6721343994141 L 253.9826965332031 252.1152191162109 L 320.4863891601563 306.1026000976563 L 320.4863891601563 200.6721343994141 Z M 89.33039093017578 128.0412139892578 L 33.73923492431641 142.7274475097656 L 33.73923492431641 272.1015319824219 L 171.4850769042969 194.0219879150391 L 171.4850769042969 144.4788360595703 L 108.4860000610352 179.7372131347656 L 89.33039093017578 128.0412139892578 Z M 523.0035400390625 169.5005950927734 C 501.8868408203125 169.5005950927734 484.7076110839844 186.6932830810547 484.7076110839844 207.8252868652344 C 484.7076110839844 228.9582061767578 501.8868408203125 246.1509094238281 523.0035400390625 246.1509094238281 C 544.1202392578125 246.1509094238281 561.2994384765625 228.9582061767578 561.2994384765625 207.8252868652344 C 561.2994384765625 186.6932830810547 544.1202392578125 169.5005950927734 523.0035400390625 169.5005950927734 Z M 183.1860046386719 106.3449096679688 L 183.1860046386719 194.6439056396484 L 244.6496887207031 244.5389862060547 L 320.4863891601563 185.8761291503906 L 320.4863891601563 142.6346740722656 L 302.1759338378906 137.7927551269531 C 292.35693359375 161.4365997314453 277.404296875 187.6788330078125 256.4639892578125 218.0195922851563 C 250.7490081787109 209.8962097167969 245.2967681884766 201.7458343505859 240.2559204101563 193.796142578125 C 234.2763061523438 184.364990234375 228.85107421875 175.169677734375 224.1296997070313 166.4676055908203 C 212.5700836181641 145.1574401855469 205.0929260253906 126.5912933349609 201.9069213867188 111.2841339111328 L 183.1860046386719 106.3449096679688 Z M 256.4153747558594 52.13336563110352 C 231.8760070800781 52.13336563110352 211.9122314453125 72.11251831054688 211.9122314453125 96.67082977294922 C 211.9122314453125 109.8305969238281 217.8269958496094 128.2554473876953 229.4909973144531 151.4349060058594 C 239.1623840332031 170.6526031494141 250.4843902587891 188.4438323974609 256.3721618652344 197.3385162353516 C 262.2582397460938 188.3088226318359 273.5837707519531 170.2728271484375 283.284912109375 150.9416809082031 C 294.9857788085938 127.6272125244141 300.9186096191406 109.3671340942383 300.9186096191406 96.67082977294922 C 300.9186096191406 72.11251831054688 280.9547729492188 52.13336563110352 256.4153747558594 52.13336563110352 Z M 470.3643188476563 106.3403701782227 L 383.5350036621094 129.2723693847656 L 470.3643188476563 183.9356689453125 L 470.3643188476563 106.3403701782227 Z M 171.4850769042969 106.3368301391602 L 100.6956176757813 125.0379028320313 L 114.7013854980469 162.8415222167969 L 171.4850769042969 131.0633697509766 L 171.4850769042969 106.3368301391602 Z M 405.0036315917969 460.2879028320313 C 395.9639892578125 447.4134521484375 382.9383239746094 427.71875 372.2192993164063 407.0096740722656 C 359.8200073242188 383.0562133789063 353.5335388183594 363.6216125488281 353.5335388183594 349.244140625 C 353.5335388183594 320.8068237304688 376.6013793945313 297.6714477539063 404.9550170898438 297.6714477539063 C 433.3113098144531 297.6714477539063 456.3800659179688 320.8068237304688 456.3800659179688 349.244140625 C 456.3800659179688 363.2165832519531 450.0153198242188 382.6188354492188 437.4630126953125 406.9125061035156 C 426.7943725585938 427.5612182617188 413.9235534667969 447.3351440429688 405.0045471191406 460.2870483398438 L 405.0036315917969 460.2879028320313 Z M 404.9559326171875 309.3768310546875 C 383.0373229980469 309.3768310546875 365.2056274414063 327.2607421875 365.2056274414063 349.2432250976563 C 365.2056274414063 361.0008239746094 370.4336853027344 377.4302978515625 380.7432250976563 398.0763549804688 C 389.3786926269531 415.368896484375 399.5927734375 431.5131225585938 404.9126892089844 439.5968933105469 C 410.2299194335938 431.3916015625 420.4476318359375 415.02783203125 429.1182250976563 397.6227416992188 C 439.4627685546875 376.855224609375 444.7089233398438 360.5778198242188 444.7089233398438 349.2432250976563 C 444.7089233398438 327.2607421875 426.8763122558594 309.3768310546875 404.9559326171875 309.3768310546875 Z M 106.0586929321289 405.163818359375 C 91.12230682373047 405.163818359375 78.97138977050781 393.006591796875 78.97138977050781 378.0630493164063 C 78.97138977050781 363.1175842285156 91.12230682373047 350.9585876464844 106.0586929321289 350.9585876464844 C 120.9960021972656 350.9585876464844 133.1496124267578 363.1175842285156 133.1496124267578 378.0630493164063 C 133.1496124267578 393.006591796875 120.9960021972656 405.163818359375 106.0586929321289 405.163818359375 Z M 106.0586929321289 362.6946105957031 C 97.59061431884766 362.6946105957031 90.70115661621094 369.5885925292969 90.70115661621094 378.0630493164063 C 90.70115661621094 386.5355834960938 97.59061431884766 393.4287414550781 106.0586929321289 393.4287414550781 C 114.5286178588867 393.4287414550781 121.419921875 386.5355834960938 121.419921875 378.0630493164063 C 121.419921875 369.5885925292969 114.5286178588867 362.6946105957031 106.0586929321289 362.6946105957031 Z M 405.4149169921875 372.0897521972656 C 391.4909973144531 372.0897521972656 380.1636047363281 360.755126953125 380.1636047363281 346.8231506347656 C 380.1636047363281 332.8919677734375 391.4909973144531 321.5592041015625 405.4149169921875 321.5592041015625 C 419.3396911621094 321.5592041015625 430.6679992675781 332.8919677734375 430.6679992675781 346.8231506347656 C 430.6679992675781 360.755126953125 419.3396911621094 372.0897521972656 405.4149169921875 372.0897521972656 Z M 405.4149169921875 333.3528442382813 C 397.9908447265625 333.3528442382813 391.9518432617188 339.3954467773438 391.9518432617188 346.8231506347656 C 391.9518432617188 354.2516784667969 397.9908447265625 360.2952270507813 405.4149169921875 360.2952270507813 C 412.8399353027344 360.2952270507813 418.8807067871094 354.2516784667969 418.8807067871094 346.8231506347656 C 418.8807067871094 339.3954467773438 412.8399353027344 333.3528442382813 405.4149169921875 333.3528442382813 Z M 256.6566162109375 120.3542938232422 C 241.7193145751953 120.3542938232422 229.5675354003906 108.1962127685547 229.5675354003906 93.25175476074219 C 229.5675354003906 78.30721282958984 241.7193145751953 66.14913940429688 256.6566162109375 66.14913940429688 C 271.593017578125 66.14913940429688 283.7456970214844 78.30721282958984 283.7456970214844 93.25175476074219 C 283.7456970214844 108.1962127685547 271.593017578125 120.3542938232422 256.6566162109375 120.3542938232422 Z M 256.657470703125 77.88513946533203 C 248.1885375976563 77.88513946533203 241.2980804443359 84.77913665771484 241.2980804443359 93.25175476074219 C 241.2980804443359 101.725212097168 248.1885375976563 108.618293762207 256.657470703125 108.618293762207 C 265.1256103515625 108.618293762207 272.0159912109375 101.725212097168 272.0159912109375 93.25175476074219 C 272.0159912109375 84.77913665771484 265.1256103515625 77.88513946533203 256.657470703125 77.88513946533203 Z M 19.60200309753418 107.4924468994141 L 7.948771953582764 107.4924468994141 L 7.948771953582764 99.54090881347656 L 2.516526365070604e-06 99.54090881347656 L 2.516526365070604e-06 87.88321685791016 L 7.948771953582764 87.88321685791016 L 7.948771953582764 79.92990875244141 L 19.60200309753418 79.92990875244141 L 19.60200309753418 87.88321685791016 L 27.5480785369873 87.88321685791016 L 27.5480785369873 99.54090881347656 L 19.60200309753418 99.54090881347656 L 19.60200309753418 107.4924468994141 Z M 403.5375366210938 87.28021240234375 L 391.6836242675781 87.28021240234375 L 391.6836242675781 78.50975036621094 L 382.9185485839844 78.50975036621094 L 382.9185485839844 66.65036773681641 L 391.6836242675781 66.65036773681641 L 391.6836242675781 57.88082885742188 L 403.5375366210938 57.88082885742188 L 403.5375366210938 66.65036773681641 L 412.3026123046875 66.65036773681641 L 412.3026123046875 78.50975036621094 L 403.5375366210938 78.50975036621094 L 403.5375366210938 87.28021240234375 Z M 159.2774658203125 56.04298400878906 L 147.4236145019531 56.04298400878906 L 147.4236145019531 47.27344512939453 L 138.6585388183594 47.27344512939453 L 138.6585388183594 35.41321182250977 L 147.4236145019531 35.41321182250977 L 147.4236145019531 26.64359855651855 L 159.2774658203125 26.64359855651855 L 159.2774658203125 35.41321182250977 L 168.0435485839844 35.41321182250977 L 168.0435485839844 47.27344512939453 L 159.2774658203125 47.27344512939453 L 159.2774658203125 56.04298400878906 Z M 482.5079956054688 41.34329223632813 L 470.6549987792969 41.34329223632813 L 470.6549987792969 32.57283020019531 L 461.8890075683594 32.57283020019531 L 461.8890075683594 20.71352195739746 L 470.6549987792969 20.71352195739746 L 470.6549987792969 11.9439058303833 L 482.5079956054688 11.9439058303833 L 482.5079956054688 20.71352195739746 L 491.2740173339844 20.71352195739746 L 491.2740173339844 32.57283020019531 L 482.5079956054688 32.57283020019531 L 482.5079956054688 41.34329223632813 Z M 82.04131317138672 41.34329223632813 L 70.38807678222656 41.34329223632813 L 70.38807678222656 33.39090728759766 L 62.44200134277344 33.39090728759766 L 62.44200134277344 21.7314453125 L 70.38807678222656 21.7314453125 L 70.38807678222656 13.78082942962646 L 82.04131317138672 13.78082942962646 L 82.04131317138672 21.7314453125 L 89.99015808105469 21.7314453125 L 89.99015808105469 33.39090728759766 L 82.04131317138672 33.39090728759766 L 82.04131317138672 41.34329223632813 Z M 327.3210144042969 29.39944458007813 L 315.468017578125 29.39944458007813 L 315.468017578125 20.62982940673828 L 306.7019958496094 20.62982940673828 L 306.7019958496094 8.769598007202148 L 315.468017578125 8.769598007202148 L 315.468017578125 -1.71461833815556e-05 L 327.3210144042969 -1.71461833815556e-05 L 327.3210144042969 8.769598007202148 L 336.0861511230469 8.769598007202148 L 336.0861511230469 20.62982940673828 L 327.3210144042969 20.62982940673828 L 327.3210144042969 29.39944458007813 Z" stroke="none" fill="#fff"/>
    </g>
  </g>
</svg>
