<svg width="24" height="24" viewBox="0 0 24 24" fill="none" xmlns="http://www.w3.org/2000/svg">
<path fill-rule="evenodd" clip-rule="evenodd" d="M1.15772 12.4714L10.5858 21.8995C11.3656 22.6793 12.6344 22.6793 13.4142 21.8995C14.194 21.1197 14.194 19.8509 13.4142 19.0711L6.34315 12L13.4142 4.92892C14.194 4.1491 14.194 2.88031 13.4142 2.10049C12.6344 1.32067 11.3656 1.32067 10.5858 2.10049L1.15772 11.5286C0.897388 11.7889 0.897181 12.2109 1.15772 12.4714ZM11.5286 20.9567L2.57186 12L2.57179 11.9999L11.5285 3.04321C11.7885 2.78322 12.2112 2.78309 12.4714 3.04321C12.7315 3.30333 12.7313 3.72608 12.4714 3.98606L4.92893 11.5285C4.6686 11.7888 4.66839 12.2108 4.92893 12.4713L12.4714 20.0138C12.7316 20.274 12.7314 20.6967 12.4714 20.9567C12.2114 21.2167 11.7887 21.2168 11.5286 20.9567Z" fill="#4A90E2"/>
</svg>
