<svg width="14" height="22" viewBox="0 0 14 22" fill="none" xmlns="http://www.w3.org/2000/svg">
<path fill-rule="evenodd" clip-rule="evenodd" d="M12.8423 11.4714L3.41421 20.8995C2.63439 21.6793 1.36561 21.6793 0.585786 20.8995C-0.194033 20.1197 -0.194033 18.8509 0.585786 18.0711L7.65685 11L0.585786 3.92892C-0.194034 3.1491 -0.194034 1.88031 0.585786 1.10049C1.36561 0.320673 2.63439 0.320673 3.41421 1.10049L12.8423 10.5286C13.1026 10.7889 13.1028 11.2109 12.8423 11.4714ZM2.47143 19.9567L11.4281 11L11.4282 10.9999L2.4715 2.04321C2.21151 1.78322 1.78877 1.78309 1.52864 2.04321C1.26852 2.30333 1.26866 2.72608 1.52864 2.98606L9.07107 10.5285C9.3314 10.7888 9.33161 11.2108 9.07107 11.4713L1.52857 19.0138C1.26845 19.274 1.26859 19.6967 1.52857 19.9567C1.78856 20.2167 2.2113 20.2168 2.47143 19.9567Z" fill="white"/>
</svg>
