<svg width="42" height="16" viewBox="0 0 42 16" fill="none" xmlns="http://www.w3.org/2000/svg">
<path d="M30.2347 2.27539L29.4639 4.17672H31.0135L30.2347 2.27539Z" fill="white"/>
<path d="M3.5922 2.27539L2.83008 4.17672H4.36045L3.5922 2.27539Z" fill="white"/>
<path d="M21.2797 2.54472C21.1467 2.46827 20.942 2.4585 20.7477 2.4585H19.3652V3.51716H20.7294C20.9455 3.51716 21.1275 3.51361 21.2841 3.41938C21.4285 3.34205 21.5151 3.17405 21.5151 2.96605C21.5151 2.76161 21.425 2.61405 21.2797 2.54472Z" fill="white"/>
<path d="M26.0889 10.7493C25.9524 10.6666 25.7511 10.6631 25.5534 10.6631H24.1709V11.7342H25.535C25.7538 11.7342 25.9401 11.7271 26.0915 11.6373C26.2368 11.5466 26.3234 11.384 26.3234 11.1786C26.3208 10.9733 26.2341 10.8258 26.0889 10.7493Z" fill="white"/>
<path d="M20.6251 10.6611H19.1621V11.8762H20.6111C21.0425 11.8762 21.3111 11.6594 21.3111 11.2478C21.3102 10.8282 21.0311 10.6611 20.6251 10.6611Z" fill="white"/>
<path fill-rule="evenodd" clip-rule="evenodd" d="M41.3302 11.3549C41.3381 11.3611 41.3468 11.37 41.3547 11.378C41.738 11.7806 41.9147 12.2757 41.9147 12.9406C41.9147 14.3762 40.9671 15.234 39.3772 15.234H37.1915C36.8703 15.234 36.5956 15.0357 36.4792 14.7549C36.0548 15.0606 35.4878 15.234 34.7922 15.234H32.6065C32.4822 15.234 32.372 15.1993 32.2696 15.1486C32.1672 15.1993 32.0543 15.234 31.9327 15.234H28.1868C28.0626 15.234 27.9497 15.1975 27.8447 15.1451C27.7415 15.1993 27.6277 15.234 27.5017 15.234H26.3756C25.9486 15.234 25.5995 14.882 25.5995 14.4473V13.7531C25.6012 13.6855 25.6012 13.5833 25.5977 13.498C25.5452 13.4944 25.4726 13.4909 25.3693 13.4909H24.9467V14.4473C24.9467 14.8811 24.6002 15.234 24.1706 15.234H23.0427C22.614 15.234 22.2666 14.882 22.2666 14.4473V13.234C21.8676 13.4749 21.319 13.6331 20.5603 13.6331H19.9365V14.4473C19.9365 14.8811 19.59 15.234 19.1603 15.234H16.979C16.7576 15.234 16.5458 15.1389 16.3988 14.97L15.586 14.0411L14.7293 14.9824C14.5823 15.1442 14.3767 15.2357 14.1606 15.2357H9.7147C9.28683 15.2357 8.93945 14.8837 8.93945 14.4473V9.67663C8.93945 9.24107 9.28595 8.88818 9.7147 8.88818H14.228C14.4493 8.88818 14.6585 8.98063 14.8046 9.15041L15.6201 10.0704L16.4697 9.13974C16.6176 8.97796 16.8232 8.88907 17.0393 8.88907H20.6251C21.41 8.88907 21.9621 9.06596 22.3567 9.32641C22.4845 9.06952 22.74 8.88907 23.0418 8.88907H25.6345C26.2295 8.88907 26.807 8.91129 27.3503 9.20641C27.3827 9.22591 27.4095 9.24898 27.4366 9.27235L27.4366 9.27235C27.4565 9.28945 27.4765 9.3067 27.4991 9.32285C27.6277 9.06774 27.8823 8.88907 28.1842 8.88907H31.9292C32.2197 8.88907 32.4621 9.05618 32.5968 9.30063C32.9678 9.04463 33.4552 8.88907 34.0738 8.88907H36.3226C36.6612 8.88907 36.9377 9.10952 37.0453 9.41529C37.4303 9.09885 37.9588 8.88907 38.6597 8.88907H40.9085C41.3372 8.88907 41.6846 9.24107 41.6846 9.67752V10.6935C41.6846 10.9709 41.5428 11.2144 41.3302 11.3549ZM19.1612 12.8446H20.5612C21.543 12.8473 22.516 12.5717 22.516 11.2482C22.516 9.92729 21.5141 9.67396 20.6242 9.67396H17.0385L15.6105 11.2384L14.228 9.67396H9.7147V14.4455H14.1606L15.5973 12.8669L16.9798 14.4455H19.1612V12.8446ZM26.7676 12.2304C27.0161 12.3229 27.22 12.4909 27.3145 12.6313C27.4746 12.8642 27.4956 13.0811 27.5008 13.5015V14.4473H26.3747V13.85C26.3747 13.8218 26.375 13.7923 26.3752 13.7617L26.3752 13.7611C26.3778 13.4814 26.381 13.1159 26.1918 12.9157C26.0308 12.746 25.7815 12.706 25.3702 12.706H24.1715V14.4473H23.0436V9.67663H25.6362C26.2032 9.67663 26.6162 9.70063 26.9863 9.90063C27.3398 10.1175 27.563 10.4162 27.563 10.9593C27.563 11.722 27.0616 12.1104 26.7676 12.2304ZM29.3025 10.6624H31.931V9.67663H28.186V14.4473H31.931V13.458L29.3025 13.4526V12.5051H31.8662V11.5309H29.3025V10.6624ZM34.7931 14.442H32.6073V13.4171H34.7835C34.9952 13.4171 35.1466 13.3904 35.2411 13.2989C35.3181 13.226 35.3723 13.1166 35.3723 12.9869C35.3723 12.8482 35.3146 12.7389 35.2358 12.6722C35.1483 12.5993 35.0328 12.5664 34.836 12.5664C34.7694 12.5642 34.7017 12.5624 34.6334 12.5606L34.6333 12.5606C33.6259 12.534 32.4726 12.5035 32.4726 11.0909C32.4726 10.3966 32.8996 9.67041 34.0773 9.67041H36.3261V10.6855H34.2672C34.0616 10.6855 33.9295 10.6944 33.8175 10.7726C33.6941 10.8509 33.6477 10.9655 33.6477 11.1166C33.6477 11.2971 33.7518 11.4171 33.8927 11.4722C34.0126 11.514 34.1386 11.5264 34.3302 11.5264L34.9331 11.5442C35.5412 11.5611 35.9603 11.6677 36.2132 11.9282C36.4337 12.1584 36.5501 12.45 36.5501 12.9397C36.5501 13.9682 35.921 14.4473 34.7931 14.442ZM37.1932 14.442H39.379C40.5068 14.4473 41.1377 13.9682 41.1377 12.9397C41.1377 12.45 41.0196 12.1584 40.8008 11.9282C40.548 11.6677 40.128 11.5611 39.519 11.5442L38.9161 11.5264C38.7245 11.5264 38.5993 11.514 38.4786 11.4722C38.3395 11.4171 38.2345 11.2971 38.2345 11.1166C38.2345 10.9655 38.28 10.8509 38.4033 10.7726C38.5145 10.6944 38.6475 10.6855 38.854 10.6855H40.912V9.67041H38.6632C37.4855 9.67041 37.0585 10.3966 37.0585 11.0909C37.0585 12.5035 38.2111 12.534 39.2191 12.5606C39.2875 12.5624 39.3552 12.5642 39.4218 12.5664C39.6196 12.5664 39.7351 12.5993 39.8217 12.6722C39.9005 12.7389 39.9582 12.8482 39.9582 12.9869C39.9582 13.1166 39.904 13.226 39.827 13.2989C39.7333 13.3904 39.582 13.4171 39.3702 13.4171H37.1932V14.442Z" fill="white"/>
<path fill-rule="evenodd" clip-rule="evenodd" d="M37.8314 0.677246H36.6825C36.2529 0.677246 35.9064 1.03014 35.9064 1.4648V1.95725L35.3735 1.05858C35.2318 0.823024 34.9807 0.678135 34.7103 0.678135H32.9997C32.5709 0.678135 32.2244 1.03102 32.2244 1.46569V2.13502L31.8123 1.15547C31.6907 0.866579 31.4107 0.678135 31.1009 0.678135H29.4192C29.2485 0.678135 29.0858 0.735024 28.9563 0.834579C28.8277 0.735913 28.6658 0.678135 28.4917 0.678135H27.4075C26.4853 0.678135 25.8028 0.904802 25.3005 1.34747C25.2428 0.971468 24.9357 0.678135 24.5489 0.678135H23.4027C23.0964 0.678135 22.84 0.862135 22.7123 1.12169C22.6932 1.1076 22.6759 1.09238 22.6586 1.07716C22.6323 1.05398 22.6059 1.03078 22.5732 1.01147C22.0464 0.702135 21.4925 0.678135 20.8249 0.678135H18.2437C18.0984 0.678135 17.9715 0.729691 17.8543 0.799913C17.7397 0.729691 17.611 0.678135 17.4658 0.678135H13.7173C13.5589 0.678135 13.4215 0.737691 13.299 0.819468C13.1757 0.737691 13.0383 0.678135 12.8808 0.678135H11.01C10.7003 0.678135 10.4194 0.867468 10.2978 1.15902L9.63104 2.75547L8.89692 1.13591C8.76917 0.856802 8.49354 0.678135 8.19254 0.678135H6.36029C5.93154 0.678135 5.58504 1.03102 5.58504 1.46569V2.15102L5.16417 1.15369C5.04167 0.864802 4.76167 0.677246 4.45104 0.677246H2.78504C2.47442 0.677246 2.19442 0.865691 2.07192 1.15458L0.0629165 5.92525C-0.0403335 6.16969 -0.0149585 6.44702 0.127666 6.66925C0.271166 6.88969 0.514416 7.02302 0.775166 7.02302H1.99492C2.30642 7.02302 2.58904 6.83102 2.70892 6.53769L2.94604 5.95814H4.24629L4.47992 6.53413C4.59892 6.82925 4.88242 7.02213 5.19742 7.02213H7.48029C7.90904 7.02213 8.25554 6.66925 8.25554 6.23458V6.21591L8.40254 6.55458C8.52679 6.83902 8.80504 7.02302 9.11129 7.02302L10.0974 7.0248C10.4054 7.0248 10.6819 6.8408 10.8062 6.55547L10.9549 6.21769V6.23725C10.9549 6.67191 11.3014 7.02391 11.7302 7.02391H12.8808C13.0383 7.02391 13.1757 6.96347 13.299 6.88258C13.4215 6.96347 13.5589 7.02391 13.7173 7.02391H17.4658C17.611 7.02391 17.7397 6.97236 17.8543 6.90213C17.9707 6.97236 18.0984 7.02391 18.2437 7.02391H19.3672C19.7959 7.02391 20.1424 6.67102 20.1424 6.23636V5.2888H20.5712C20.6683 5.2888 20.7374 5.29147 20.789 5.29502C20.7933 5.36074 20.793 5.43642 20.7927 5.49682L20.7925 5.53591L20.7908 5.6408L20.7952 6.24258C20.7987 6.67458 21.146 7.02391 21.5713 7.02391H22.7035C22.8304 7.02391 22.945 6.98391 23.0509 6.9288C23.1585 6.9848 23.274 7.02391 23.4018 7.02391H24.548C24.9243 7.02391 25.2218 6.74836 25.2944 6.38925C25.9305 6.93236 26.8265 7.02391 27.3253 7.02391H28.6404C28.9537 7.02391 29.2372 6.82836 29.3553 6.53058L29.5837 5.95902H30.8769L31.114 6.53858C31.2339 6.83102 31.5157 7.02302 31.8298 7.02302H34.1135C34.5423 7.02302 34.8888 6.67014 34.8888 6.23547V5.48258L35.5774 6.64258C35.7183 6.87814 35.9694 7.02302 36.2424 7.02302H37.8314C38.2602 7.02302 38.6067 6.67014 38.6067 6.23547V1.4648C38.6067 1.03014 38.2584 0.677246 37.8314 0.677246ZM12.8799 6.23458H11.7293L11.7249 2.49858L10.0974 6.23458H9.11129L7.48117 2.49502V6.23458H5.19654L4.76517 5.17058H2.42892L1.99317 6.23458H0.773416L2.78329 1.46391H4.44929L6.35942 5.98125V1.46391H8.19167L9.66079 4.70036L11.0092 1.46391H12.8799V6.23458ZM14.8382 2.45769H17.4649V1.46391H13.7164V6.23458H17.4649V5.24791H14.8382V4.29502H17.4028V3.31725H14.8382V2.45769ZM21.9598 4.02125C22.2057 4.11725 22.4157 4.28436 22.5154 4.42302C22.6747 4.66036 22.7018 4.87191 22.7018 5.29769V6.23369H21.5695L21.5643 5.63191C21.5643 5.6028 21.5646 5.57239 21.5649 5.541C21.5674 5.26368 21.5707 4.90983 21.3875 4.70302C21.2239 4.53591 20.9737 4.49947 20.5694 4.49947H19.3663V6.23458H18.2428H18.2419V1.4648H20.8232C21.3972 1.4648 21.8198 1.47991 22.182 1.69325C22.5373 1.90658 22.7499 2.21769 22.7499 2.75013C22.7499 3.51013 22.2503 3.90391 21.9598 4.02125ZM23.4027 6.23458H24.5489V1.46391H23.4027V6.23458ZM37.8314 6.23458H36.2415L34.1127 2.65413V6.23458H31.8289L31.3914 5.17058H29.0587L28.6369 6.23458H27.3227C26.7775 6.23458 26.0889 6.11191 25.6987 5.70747C25.3014 5.30213 25.0967 4.7528 25.0967 3.88613C25.0967 3.17858 25.22 2.53147 25.6978 2.01947C26.0592 1.63902 26.627 1.46391 27.4023 1.46391H28.4864V2.48614H27.4233C27.0147 2.48614 26.7828 2.54747 26.5605 2.7688C26.3689 2.96969 26.2385 3.34925 26.2385 3.84969C26.2385 4.35991 26.3383 4.72791 26.5483 4.9688C26.7224 5.15813 27.0374 5.21502 27.3305 5.21502H27.8337L29.4192 1.46391H31.1009L32.9997 5.97591V1.46391H34.7103L36.6825 4.78658V1.46391H37.8314V6.23458ZM27.327 4.42925L27.8144 3.27458L27.4294 3.27369C27.1668 3.27369 27.1391 3.30109 27.1068 3.33297L27.1065 3.33325C27.096 3.34836 27.0173 3.51991 27.0173 3.85058C27.0173 4.17769 27.0689 4.33502 27.1065 4.40614C27.1468 4.4168 27.2194 4.42925 27.327 4.42925Z" fill="white"/>
<path d="M16.3193 12.0695L18.0431 14.0143V10.1895L16.3193 12.0695Z" fill="white"/>
<path d="M13.6472 10.6631H10.835V11.5298H13.2981V12.504H10.835V13.4533H13.593L14.8748 12.0515L13.6472 10.6631Z" fill="white"/>
</svg>
