<svg width="30" height="30" viewBox="0 0 30 30" fill="none" xmlns="http://www.w3.org/2000/svg">
<path d="M14.9511 0.0458984C17.7314 0.0776253 20.2432 0.760944 22.4864 2.09586C24.7028 3.40412 26.5465 5.25912 27.8412 7.48348C29.168 9.74017 29.8472 12.2671 29.8789 15.0644C29.8001 18.8917 28.5929 22.1606 26.2574 24.8711C23.9218 27.5815 20.9306 29.2584 17.834 29.9012V19.1707H20.7616L21.4236 14.9538H16.9907V12.1919C16.966 11.6193 17.1471 11.0568 17.5011 10.6061C17.8556 10.1542 18.4799 9.91669 19.374 9.89355H22.0509V6.19968C22.0125 6.18732 21.648 6.13845 20.9575 6.05307C20.1744 5.96145 19.3869 5.91251 18.5985 5.90647C16.814 5.9147 15.4028 6.41807 14.3647 7.41655C13.3266 8.41476 12.7963 9.85896 12.7738 11.7491V14.9538H9.40032V19.1707H12.7738V29.9012C8.97171 29.2584 5.98044 27.5815 3.6449 24.8711C1.30935 22.1606 0.102245 18.8917 0.0234375 15.0644C0.0549676 12.267 0.734156 9.74004 2.061 7.48348C3.35575 5.25913 5.19949 3.40412 7.41593 2.09586C9.65903 0.761202 12.1708 0.0778824 14.9511 0.0458984V0.0458984Z" fill="white"/>
</svg>
