<svg width="30" height="31" viewBox="0 0 30 31" fill="none" xmlns="http://www.w3.org/2000/svg">
<path fill-rule="evenodd" clip-rule="evenodd" d="M29.9277 15.3454C29.9277 7.10061 23.2443 0.41748 15 0.41748C6.75561 0.41748 0.0722656 7.10064 0.0722656 15.3454C0.0722656 23.5897 6.75561 30.2728 15 30.2728C23.2443 30.2728 29.9277 23.5897 29.9277 15.3454ZM10.6137 5.79151C7.75979 5.79151 5.44622 8.06922 5.44622 10.8785V19.8118C5.44622 22.6215 7.75976 24.8988 10.6137 24.8988H19.3863C22.2402 24.8988 24.5537 22.6215 24.5537 19.8118V10.8785C24.5537 8.0692 22.2402 5.79151 19.3863 5.79151H10.6137ZM23.0376 11.551C23.0376 9.18766 21.0912 7.27153 18.6902 7.27153H11.3098C8.90874 7.27153 6.96236 9.18766 6.96236 11.551V19.1393C6.96236 21.5031 8.90877 23.4188 11.3098 23.4188H18.6902C21.0912 23.4188 23.0376 21.5031 23.0376 19.1393V11.551ZM20.4499 8.88992C19.6316 8.90273 18.9775 9.57418 18.986 10.3925C18.9946 11.2108 19.6626 11.8684 20.4809 11.8641C21.2992 11.8599 21.9604 11.1953 21.9604 10.3769C21.9538 9.54924 21.2776 8.88353 20.4499 8.88992ZM9.71332 15.3454C9.71332 12.471 12.0802 10.141 15 10.141C17.9197 10.141 20.2866 12.471 20.2866 15.3454C20.2866 18.2193 17.9197 20.5497 15 20.5497C12.0802 20.5497 9.71332 18.2193 9.71332 15.3454ZM18.7761 15.3454C18.7761 13.2921 17.0855 11.6276 15 11.6276C12.9145 11.6276 11.2238 13.2921 11.2238 15.3454C11.2238 17.3982 12.9144 19.0627 15 19.0627C17.0855 19.0627 18.7761 17.3982 18.7761 15.3454Z" fill="white"/>
</svg>
