<svg width="43" height="26" viewBox="0 0 43 26" fill="none" xmlns="http://www.w3.org/2000/svg">
<path fill-rule="evenodd" clip-rule="evenodd" d="M29.7779 0.620605C26.495 0.621473 23.5026 1.85041 21.2473 3.86887C18.9902 1.85301 15.9995 0.623206 12.7201 0.623206H12.6385C5.65494 0.668273 0 6.27907 0 13.1855C0 20.1197 5.69882 25.747 12.7192 25.747C15.9986 25.747 18.9893 24.5189 21.2455 22.5013C20.7743 22.081 20.3478 21.6156 19.945 21.1285H22.5715C22.1757 21.6078 21.744 22.0567 21.2797 22.4745H21.278C21.2716 22.4813 21.2649 22.4865 21.2583 22.4917L21.2583 22.4917L21.2583 22.4917L21.2583 22.4917L21.2583 22.4917C21.2539 22.4951 21.2497 22.4985 21.2455 22.5022C23.5034 24.5215 26.4977 25.7522 29.7823 25.7513C36.8071 25.7487 42.4998 20.1223 42.498 13.1855V13.1795C42.4989 6.24267 36.8027 0.618873 29.7779 0.620605ZM20.0907 5.16627H22.5083C22.8646 5.59267 23.1954 6.04161 23.4956 6.51134H19.1824C19.4606 6.06241 19.766 5.60047 20.0907 5.16627ZM24.2292 7.83041H18.4312C18.1758 8.30682 17.9798 8.70324 17.8595 8.94657L17.8595 8.94659L17.8595 8.94662C17.805 9.05694 17.766 9.13579 17.7441 9.17634H24.7777C24.6179 8.71527 24.4354 8.26547 24.2292 7.83041ZM5.19247 16.3853L5.96384 11.5822L4.22365 16.3853H3.29082L3.16971 11.5822L2.34569 16.3853H1.03902L2.12192 10.0153H4.09816L4.16749 13.9239L5.50224 10.0153H7.6461L6.57812 16.3853H5.19247ZM9.85753 15.8661L9.81278 16.3749H11.0054L11.5372 12.6915C11.5372 11.1289 10.1568 11.0787 9.67675 11.0787C8.74918 11.0787 8.03661 11.3733 8.03661 11.3733L7.84004 12.526C7.84004 12.526 8.42712 12.2911 9.31608 12.2911C9.82067 12.2911 10.1892 12.3466 10.1892 12.7513C10.1892 12.9975 10.1445 13.0885 10.1445 13.0885C10.1445 13.0885 9.74696 13.0555 9.56267 13.0555C8.39114 13.0555 7.16082 13.5495 7.16082 15.0393C7.16082 16.2111 7.96816 16.4806 8.46837 16.4806C9.30663 16.4806 9.72695 16.0098 9.83177 15.8924C9.84645 15.876 9.85494 15.8665 9.85753 15.8661ZM14.8526 14.7525C14.8526 16.4688 13.2268 16.4568 12.8408 16.4539L12.8043 16.4537C11.7541 16.4537 11.3746 16.3212 11.2975 16.2943L11.2889 16.2913L11.2844 16.2899L11.4652 15.1199C11.4655 15.1179 11.4873 15.1244 11.5267 15.1361C11.6903 15.1846 12.1585 15.3236 12.6683 15.3236C13.0334 15.3236 13.5073 15.2881 13.5073 14.8573C13.5073 14.6036 13.2447 14.4736 12.9262 14.3159C12.4354 14.0729 11.8118 13.7642 11.8118 12.8354C11.8118 11.4843 12.828 11.0891 13.8302 11.0891C14.6042 11.0891 15.0798 11.1939 15.0798 11.1939L14.9087 12.3743C14.9087 12.3743 14.1742 12.3145 13.9838 12.3145C13.502 12.3145 13.2396 12.4185 13.2396 12.7513C13.2393 13.0112 13.4825 13.1207 13.7802 13.2547C14.2489 13.4657 14.8526 13.7375 14.8526 14.7525ZM17.1428 15.1964C17.0788 15.2072 17.0104 15.2187 16.9464 15.2187C16.4751 15.2187 16.4234 14.9726 16.4523 14.788L16.8332 12.4679H17.5501L17.723 11.2087H17.0473L17.1851 10.4269H15.831C15.8012 10.4555 15.0316 14.8261 15.0316 15.3565C15.0316 16.1469 15.48 16.4953 16.111 16.4901C16.5419 16.4871 16.89 16.3839 17.0622 16.3328C17.0875 16.3253 17.1089 16.319 17.1263 16.3142L17.2957 15.178C17.2521 15.178 17.1992 15.1869 17.1428 15.1964ZM19.9248 11.0613C21.4114 11.0613 21.8563 12.136 21.8563 13.0174C21.8563 13.3701 21.6773 14.2368 21.6773 14.2368H18.9253C18.9253 14.2368 18.6708 15.3071 20.1249 15.3071C20.8067 15.3071 21.5632 14.9778 21.5632 14.9778L21.3245 16.2665C21.3245 16.2665 20.8875 16.4867 19.8941 16.4867C18.8173 16.4867 17.5545 16.0369 17.5545 14.1475C17.5554 12.5104 18.5628 11.0613 19.9248 11.0613ZM18.999 19.8346H23.5113C23.7843 19.403 24.0317 18.9541 24.2529 18.4895H18.2478C18.4681 18.9567 18.7243 19.4013 18.999 19.8346ZM23.2086 16.3948H21.8186L22.6636 11.2104H23.9247L23.8036 11.9618C23.8036 11.9618 24.2529 11.1445 24.8593 11.1445C25.0357 11.1445 25.1208 11.1619 25.1208 11.1619C24.9409 11.5241 24.782 11.8561 24.6171 12.7132C23.8421 12.4419 23.6567 13.6134 23.3941 15.2727L23.3941 15.2728C23.338 15.6276 23.2783 16.0047 23.2086 16.3948ZM27.3199 16.4979C27.7762 16.4979 28.5046 16.3142 28.5046 16.3142L28.7468 14.8547C28.7468 14.8547 28.0843 15.1832 27.6271 15.1832C26.6653 15.1832 26.28 14.4587 26.28 13.6813C26.28 12.1031 27.1067 11.2347 28.0281 11.2347C28.717 11.2347 29.2707 11.6169 29.2707 11.6169L29.4919 10.1999C29.4919 10.1999 28.6731 9.87227 27.9667 9.87227C26.4038 9.87227 24.883 11.2121 24.883 13.7281C24.883 15.3964 25.7035 16.4979 27.3199 16.4979ZM31.7647 16.3775L31.8103 15.8653C31.8076 15.8656 31.7987 15.8755 31.7834 15.8926C31.6765 16.0116 31.2563 16.4797 30.4212 16.4797C29.921 16.4797 29.1136 16.2102 29.1136 15.0385C29.1136 13.5487 30.344 13.0547 31.5146 13.0547C31.6989 13.0547 32.0973 13.0876 32.0973 13.0876C32.0973 13.0876 32.1429 12.9975 32.1429 12.7513C32.1429 12.3466 31.7744 12.2911 31.2689 12.2911C30.3799 12.2911 29.7937 12.526 29.7937 12.526L29.9903 11.3733C29.9903 11.3733 30.7029 11.0787 31.6313 11.0787C32.1105 11.0787 33.4917 11.1289 33.4909 12.6915L32.9591 16.3749C32.9582 16.3775 31.7647 16.3775 31.7647 16.3775ZM33.189 16.3948H34.579C34.6487 16.005 34.7083 15.628 34.7645 15.2734C35.0271 13.6138 35.2125 12.4419 35.9884 12.7132C36.1525 11.8561 36.3131 11.5241 36.4921 11.1619C36.4921 11.1619 36.4078 11.1445 36.2314 11.1445C35.6251 11.1445 35.1749 11.9618 35.1749 11.9618L35.296 11.2104H34.0341L33.189 16.3948ZM38.729 16.3809L38.7878 15.9034C38.7878 15.9034 38.3384 16.4633 37.5258 16.4633C36.3999 16.4633 35.848 15.3895 35.848 14.2923C35.848 12.5953 36.8817 11.1159 38.1226 11.1159C38.9211 11.1177 39.431 11.8136 39.431 11.8136L39.7241 10.0239L41.0817 10.0213L40.0462 16.3809H38.729ZM41.2554 16.3532C41.3204 16.3151 41.3713 16.2657 41.4072 16.2015C41.4441 16.1374 41.4617 16.0707 41.4617 16.0005C41.4617 15.9303 41.445 15.8627 41.4072 15.7977C41.3704 15.7318 41.3195 15.6824 41.2528 15.6469C41.1879 15.6113 41.1212 15.5931 41.051 15.5931C40.9825 15.5931 40.9167 15.6113 40.85 15.6469C40.7859 15.6815 40.7324 15.7335 40.6964 15.7977C40.6604 15.8618 40.642 15.9294 40.642 16.0005C40.642 16.0707 40.6596 16.1365 40.6964 16.2015C40.7324 16.2657 40.7833 16.3151 40.8482 16.3532C40.9132 16.3887 40.9808 16.4069 41.051 16.4069C41.1229 16.4069 41.1914 16.3887 41.2554 16.3532Z" fill="white"/>
<path d="M41.2987 20.0346C41.2899 20.0286 41.282 20.019 41.2679 20.0138C41.2539 20.0086 41.232 20.006 41.1977 20.006H41.1152V20.136H41.203C41.2442 20.136 41.2714 20.1326 41.2872 20.1178C41.3022 20.1057 41.3092 20.091 41.3092 20.0702C41.3092 20.0563 41.3057 20.0468 41.2987 20.0346Z" fill="white"/>
<path fill-rule="evenodd" clip-rule="evenodd" d="M41.5115 19.8144C41.5865 19.8554 41.6455 19.9104 41.6885 19.9884C41.7295 20.0614 41.7505 20.1394 41.7505 20.2204C41.7505 20.3014 41.7305 20.3794 41.6885 20.4524C41.6475 20.5264 41.5885 20.5864 41.5155 20.6274C41.4425 20.6684 41.3645 20.6894 41.2845 20.6894C41.2025 20.6894 41.1245 20.6684 41.0505 20.6274C40.9775 20.5864 40.9195 20.5264 40.8765 20.4524C40.8355 20.3794 40.8145 20.3004 40.8145 20.2204C40.8145 20.1404 40.8335 20.0624 40.8765 19.9884C40.9175 19.9124 40.9785 19.8554 41.0525 19.8144C41.1265 19.7734 41.2025 19.7524 41.2825 19.7524C41.3605 19.7524 41.4365 19.7734 41.5115 19.8144ZM41.3565 20.4014L41.4005 20.4804H41.5015L41.4395 20.3814C41.4095 20.3354 41.3855 20.3024 41.3645 20.2824C41.3535 20.2714 41.3395 20.2614 41.3215 20.2554C41.3645 20.2524 41.4005 20.2354 41.4265 20.2094C41.4515 20.1804 41.4655 20.1494 41.4655 20.1124C41.4655 20.0864 41.4585 20.0614 41.4425 20.0384C41.4285 20.0134 41.4055 19.9994 41.3785 19.9894C41.3545 19.9794 41.3115 19.9744 41.2515 19.9744H41.0775V20.4794H41.1595V20.2644H41.2065C41.2345 20.2644 41.2565 20.2724 41.2705 20.2824C41.2925 20.2984 41.3215 20.3394 41.3565 20.4014Z" fill="white"/>
<path d="M9.67199 14.0493C8.67947 14.0493 8.47852 14.4896 8.47852 14.8562C8.47852 15.0451 8.58821 15.3606 9.00856 15.3606C9.8238 15.3606 9.99317 14.305 9.96684 14.0805C9.92823 14.0727 9.90366 14.0502 9.67199 14.0493Z" fill="white"/>
<path d="M19.93 12.2583C19.192 12.2583 19.0498 13.0877 19.0498 13.1752H20.553C20.553 13.1085 20.6943 12.2583 19.93 12.2583Z" fill="white"/>
<path d="M38.3572 12.4028C37.7614 12.4028 37.2901 13.0858 37.291 14.1232C37.291 14.7558 37.5192 15.1614 38.0071 15.1614C38.7407 15.1614 39.0944 14.2159 39.0944 13.5113C39.0944 12.7339 38.8443 12.4028 38.3572 12.4028Z" fill="white"/>
<path fill-rule="evenodd" clip-rule="evenodd" d="M41.289 15.7136C41.351 15.7486 41.4 15.7966 41.435 15.8586C41.47 15.9216 41.488 15.9876 41.488 16.0536C41.488 16.1206 41.472 16.1856 41.437 16.2476C41.401 16.3106 41.353 16.3586 41.291 16.3936C41.231 16.4276 41.165 16.4476 41.098 16.4476C41.031 16.4476 40.967 16.4276 40.905 16.3936C40.843 16.3566 40.796 16.3096 40.759 16.2476C40.726 16.1866 40.708 16.1206 40.708 16.0536C40.708 15.9886 40.726 15.9216 40.761 15.8586C40.796 15.7956 40.845 15.7456 40.907 15.7136C40.969 15.6796 41.034 15.6616 41.098 15.6616C41.164 15.6616 41.227 15.6786 41.289 15.7136ZM41.173 16.2326L41.218 16.3106H41.318L41.256 16.2106C41.227 16.1626 41.203 16.1326 41.182 16.1116C41.172 16.1026 41.159 16.0936 41.139 16.0856C41.181 16.0806 41.217 16.0686 41.243 16.0396C41.269 16.0116 41.283 15.9806 41.283 15.9436C41.283 15.9166 41.277 15.8916 41.26 15.8696C41.243 15.8476 41.221 15.8306 41.196 15.8216C41.171 15.8106 41.127 15.8056 41.068 15.8056H40.893V16.3096H40.977V16.0956H41.023C41.052 16.0956 41.072 16.1016 41.089 16.1146C41.11 16.1296 41.138 16.1696 41.173 16.2326Z" fill="white"/>
<path d="M31.6261 14.0493C30.6336 14.0493 30.4326 14.4896 30.4326 14.8562C30.4326 15.0451 30.5414 15.3606 30.9627 15.3606C31.7779 15.3606 31.9464 14.305 31.9209 14.0805C31.8815 14.0727 31.8569 14.0502 31.6261 14.0493Z" fill="white"/>
<path d="M41.1255 15.8754C41.1184 15.8667 41.1088 15.8598 41.0956 15.8537C41.0807 15.8494 41.0588 15.8451 41.0237 15.8451V15.8459H40.9438V15.9777H41.0307C41.0719 15.9777 41.0991 15.9725 41.1158 15.9595C41.129 15.9465 41.1369 15.93 41.1369 15.9109C41.1369 15.8962 41.1334 15.8875 41.1255 15.8754Z" fill="white"/>
</svg>
