<svg width="31" height="28" viewBox="0 0 31 28" fill="none" xmlns="http://www.w3.org/2000/svg">
<path fill-rule="evenodd" clip-rule="evenodd" d="M9.75161 21.8616V21.026H10.3672V27.6996H9.75249V24.9469H9.73389C9.32027 25.5725 8.60815 25.8936 7.85972 25.8936C6.41778 25.8936 5.27344 24.8253 5.27344 23.3911C5.27344 21.9675 6.44435 20.9053 7.85972 20.9053C8.60815 20.9053 9.32027 21.2264 9.73389 21.8616H9.75161ZM5.88989 23.4174C5.88989 24.5278 6.73398 25.3468 7.85972 25.3468C8.95181 25.3468 9.78704 24.4683 9.78704 23.4069C9.78704 22.3455 8.95181 21.4521 7.85972 21.4521C6.71627 21.4521 5.88989 22.2974 5.88989 23.4174Z" fill="white"/>
<path d="M15.1106 21.0112L15.1088 23.533C15.1088 24.0921 15.03 24.5637 14.6057 24.9671C14.3046 25.2462 13.9875 25.3504 13.581 25.3504C12.4756 25.3504 12.1125 24.6259 12.1125 23.6397V21.0112H11.4951V23.6494C11.4951 24.1831 11.5748 24.7597 11.9194 25.1859C12.3171 25.682 12.953 25.9007 13.581 25.9007C14.2178 25.9007 14.8449 25.6304 15.1274 25.0441H15.1451V25.7861H15.7288V21.0112H15.1106Z" fill="white"/>
<path fill-rule="evenodd" clip-rule="evenodd" d="M27.6763 20.9053C29.0846 20.9053 30.2015 22.0786 30.2033 23.4515C30.2033 23.4811 30.2009 23.5091 30.1985 23.5373C30.196 23.566 30.1935 23.5948 30.1935 23.6256H25.8137C25.8562 24.5628 26.7375 25.3468 27.6781 25.3468C28.4177 25.3468 29.1378 24.9311 29.4026 24.2241H30.0509C29.6975 25.2164 28.7498 25.8936 27.6852 25.8936C26.2955 25.8936 25.1777 24.7736 25.1777 23.4069C25.1777 22.0533 26.2928 20.9053 27.6763 20.9053ZM27.6852 21.453C26.726 21.453 25.9616 22.1486 25.811 23.0779H29.5673C29.407 22.1495 28.655 21.453 27.6852 21.453Z" fill="white"/>
<path d="M2.1514 21.9371C1.06374 21.6878 0.864457 21.3509 0.864457 20.7769C0.864457 20.1495 1.48534 19.6201 2.22137 19.6201C2.97423 19.6201 3.58449 20.1338 3.58449 20.7699H4.2222C4.2222 20.2808 4.00786 19.8284 3.61991 19.4933C3.24437 19.1686 2.74837 18.9893 2.22137 18.9893C1.12309 18.9893 0.228514 19.7925 0.228514 20.7769C0.228514 21.2756 0.374657 21.6606 0.674914 21.9459C0.956571 22.2136 1.37994 22.4053 2.00703 22.5505C3.54994 22.9023 3.86703 23.352 3.86791 23.9173C3.86791 24.6715 3.14429 25.2849 2.25591 25.2849H2.2506C1.78914 25.2849 1.34806 25.1125 1.04071 24.8089C0.780314 24.5525 0.637714 24.2226 0.637714 23.8823H0C0 24.3915 0.2108 24.8771 0.590771 25.2534C1.0168 25.6725 1.62174 25.9114 2.2506 25.9114H2.2568C2.852 25.9114 3.41266 25.7101 3.83514 25.3409C4.26649 24.9611 4.50474 24.4554 4.50474 23.9138C4.50209 22.6415 3.31346 22.1996 2.1514 21.9371Z" fill="white"/>
<path d="M23.5737 21.7111V21.7129H23.5551V21.026H22.9404V25.7808H23.5551V22.9983C23.5551 22.1486 24.0839 21.6158 24.928 21.5475V20.9053C24.3035 20.949 23.835 21.1039 23.5737 21.7111Z" fill="white"/>
<path fill-rule="evenodd" clip-rule="evenodd" d="M9.59344 0.388672H20.6117C22.1254 0.388672 23.3636 1.6128 23.3636 3.10905L23.3628 13.9923C23.3628 15.4903 22.1254 16.7127 20.61 16.7127H9.59344C8.07798 16.7127 6.83887 15.4894 6.83887 13.9923V3.10905C6.83887 1.6128 8.07887 0.388672 9.59344 0.388672ZM19.4833 13.7447C19.9652 13.7447 20.3584 13.3544 20.3584 12.8784V4.22205C20.3584 3.74605 19.9643 3.35755 19.4833 3.35755H10.7201C10.2382 3.35755 9.8441 3.74605 9.8441 4.22205V12.8784C9.8441 13.3544 10.2382 13.7447 10.7201 13.7447H19.4833Z" fill="white"/>
<path fill-rule="evenodd" clip-rule="evenodd" d="M21.0973 21.8616V21.026H21.7111V25.7808H21.0973V24.9469H21.0787C20.6589 25.5725 19.9547 25.8936 19.2054 25.8936C17.7635 25.8936 16.6191 24.8253 16.6191 23.3911C16.6191 21.9675 17.7892 20.9053 19.2054 20.9053C19.9609 20.9053 20.666 21.2203 21.0787 21.8616H21.0973ZM17.2338 23.4174C17.2338 24.5278 18.0788 25.3468 19.2045 25.3468C20.2957 25.3468 21.131 24.4683 21.131 23.4069C21.131 22.3455 20.2957 21.4521 19.2045 21.4521C18.0611 21.4521 17.2338 22.2974 17.2338 23.4174Z" fill="white"/>
<path d="M16.8547 6.32471H13.3491C13.0727 6.32471 12.8486 6.54696 12.8486 6.81908V10.2815C12.8486 10.5527 13.0727 10.7758 13.3491 10.7758H16.8547C17.1293 10.7758 17.3543 10.5536 17.3543 10.2815V6.81908C17.3543 6.54783 17.1293 6.32471 16.8547 6.32471Z" fill="white"/>
</svg>
