<svg width="43" height="16" viewBox="0 0 43 16" fill="none" xmlns="http://www.w3.org/2000/svg">
<path fill-rule="evenodd" clip-rule="evenodd" d="M10.536 6.95678C10.6928 6.98438 10.8497 7.01199 11.0069 7.03374C11.1833 7.05952 11.207 7.15818 11.178 7.31285C11.1289 7.57343 11.079 7.83385 11.029 8.0942C10.8818 8.86229 10.7345 9.62988 10.6094 10.4C10.5309 10.8815 10.501 11.3712 10.4712 11.8595C10.467 11.9283 10.4628 11.997 10.4584 12.0657C10.447 12.2364 10.4075 12.3004 10.2347 12.2942C9.9161 12.2835 9.59492 12.2835 9.27636 12.2942C9.11226 12.3004 9.05785 12.2382 9.07365 12.0764C9.08938 11.9047 9.09892 11.7322 9.10869 11.5555C9.11364 11.4661 9.11865 11.3756 9.12455 11.2835C9.04298 11.3698 8.96682 11.4559 8.89262 11.5399C8.73134 11.7224 8.57936 11.8943 8.40145 12.0337C7.86263 12.4568 7.24571 12.552 6.6209 12.2622C6.0031 11.9742 5.74949 11.4169 5.72404 10.7608C5.66875 9.38218 6.14263 8.23996 7.29222 7.44529C8.01357 6.94663 8.84022 6.79374 9.69759 6.84263C9.97796 6.85856 10.2569 6.90766 10.536 6.95678ZM8.46024 10.9653C8.591 10.8542 8.71298 10.7208 8.80512 10.576C9.16998 10.0093 9.26934 9.37037 9.36999 8.72307C9.40418 8.5032 9.43852 8.28236 9.48347 8.06307C8.98502 7.92263 8.56818 8.01952 8.21804 8.31818C7.559 8.87996 7.26151 9.61329 7.31855 10.4826C7.33522 10.752 7.43526 11.0071 7.71257 11.12C7.99163 11.2328 8.24524 11.1528 8.46024 10.9653Z" fill="white"/>
<path d="M26.6809 1.55715C25.9727 0.325145 24.3483 0.640701 24.3483 0.640701C24.2193 0.670034 24.0877 0.702034 23.9569 0.726923C23.1671 0.876256 22.423 1.15092 21.7104 1.51715C20.1615 2.31181 18.775 3.33848 17.5289 4.5527C16.7005 5.35981 15.8957 6.19537 15.12 7.0567C13.758 8.57048 12.5918 10.2327 11.6598 12.0558C11.1798 12.9936 10.7515 13.9589 10.5541 15.0087C10.5172 15.2016 10.5787 15.4238 10.6401 15.6194C10.6664 15.6958 10.8068 15.7554 10.9051 15.7865C10.9314 15.7936 11.0113 15.6656 11.0464 15.59C11.2737 15.0905 11.4527 14.5625 11.7309 14.0958C12.2864 13.1598 12.8673 12.2363 13.4895 11.3456C14.4873 9.91359 15.6307 8.60159 16.854 7.3607C18.0098 6.18737 19.1927 5.04426 20.6512 4.25314C21.3208 3.88959 22 3.5367 22.7029 3.24515C23.9113 2.74026 25.1706 2.39803 26.4685 2.20248C26.6054 2.18292 26.7923 2.07181 26.8371 1.95626C26.8748 1.8567 26.6809 1.55715 26.6809 1.55715Z" fill="white"/>
<path fill-rule="evenodd" clip-rule="evenodd" d="M4.39214 5.02066C5.23284 5.23044 5.81641 5.82688 5.91557 6.52999C6.11653 7.93266 5.31094 9.05444 4.10869 9.45533C3.47686 9.66866 2.83273 9.71399 2.17808 9.65444C2.02363 9.63933 1.97712 9.6811 1.9508 9.82866C1.8139 10.5913 1.66647 11.3558 1.51729 12.1167C1.50676 12.178 1.45235 12.2767 1.41549 12.2784C1.04342 12.2878 0.670785 12.2872 0.281397 12.2867C0.188622 12.2866 0.0948958 12.2864 0 12.2864C0.0236606 12.154 0.0462248 12.0253 0.0683308 11.8993C0.111816 11.6513 0.153528 11.4134 0.198327 11.1771C0.340292 10.4224 0.482899 9.66785 0.62551 8.91327C0.85579 7.69481 1.08608 6.47629 1.31369 5.2571C1.33651 5.13266 1.37249 5.04644 1.49973 5.02688C2.46416 4.87933 3.42947 4.77977 4.39214 5.02066ZM3.08722 8.40821C3.6199 8.35044 4.05253 8.10599 4.29035 7.59133C4.56151 7.00821 4.36669 6.38955 3.85245 6.20644C3.48739 6.07399 3.11092 6.10244 2.7362 6.1531C2.69057 6.16021 2.62827 6.23044 2.61773 6.2811C2.50629 6.85377 2.3998 7.42769 2.28367 8.05364C2.26172 8.17193 2.23943 8.29208 2.21669 8.41444C2.31589 8.41444 2.4117 8.41682 2.50499 8.41913C2.70797 8.42417 2.89904 8.42892 3.08722 8.40821Z" fill="white"/>
<path d="M13.5308 4.97844C13.3904 3.76955 12.8762 2.73933 12.0583 1.86111C11.9635 1.758 11.8257 1.68244 11.6941 1.63355C11.5581 1.58377 11.4686 1.662 11.4817 1.81933C11.4932 1.95711 11.5054 2.09666 11.5291 2.23355C11.695 3.18377 11.8556 4.13577 12.0337 5.08511C12.1733 5.82644 12.326 6.566 12.4918 7.302C12.5462 7.54022 12.641 7.77489 12.7533 7.99266C12.8384 8.15889 12.9613 8.14555 13.0754 7.99355C13.1236 7.93044 13.1763 7.86555 13.2017 7.79266C13.4475 7.11089 13.5747 6.40689 13.5896 5.67977C13.5703 5.446 13.558 5.21133 13.5308 4.97844Z" fill="white"/>
<path d="M40.5107 8.02598C40.5414 7.67931 40.5669 7.33175 40.5959 6.96109C40.1729 6.96109 39.7789 6.95575 39.391 6.9682C39.3453 6.96998 39.2681 7.06687 39.2646 7.12287C39.1549 8.49975 38.8785 9.84998 38.6117 11.202C38.5441 11.5522 38.4836 11.9033 38.416 12.2891C38.9224 12.2891 39.3971 12.2926 39.8736 12.282C39.9096 12.2811 39.9623 12.1798 39.9745 12.1202C40.1237 11.3824 40.2387 10.634 40.4151 9.90153C40.6687 8.84909 41.0969 8.48464 42.1114 8.34953C42.1561 8.34331 42.2228 8.29531 42.2316 8.25798C42.3273 7.80109 42.4133 7.3442 42.5089 6.84998C41.5304 6.74687 40.9846 7.31753 40.5107 8.02598Z" fill="white"/>
<path fill-rule="evenodd" clip-rule="evenodd" d="M38.333 8.34756C38.3742 9.03378 38.0636 9.552 37.4212 9.856C36.7762 10.16 36.0821 10.2018 35.3844 10.2178C35.2891 10.2201 35.1938 10.2194 35.0959 10.2186C35.046 10.2182 34.9955 10.2178 34.9439 10.2178C34.893 10.7307 35.2563 11.1236 35.8065 11.1911C36.3208 11.2533 36.8175 11.176 37.301 10.9964C37.3817 10.9689 37.4633 10.9378 37.5704 10.896C37.5774 10.9652 37.5846 11.0337 37.5917 11.1015C37.6192 11.3639 37.6458 11.617 37.659 11.8684C37.6608 11.9307 37.5923 12.0338 37.5327 12.0578C36.6595 12.4213 35.7565 12.5458 34.8359 12.2916C34.0084 12.0622 33.5732 11.4533 33.474 10.6169C33.3459 9.54934 33.6162 8.58222 34.3515 7.792C35.1396 6.94311 36.1198 6.64 37.2396 6.95289C37.9249 7.14489 38.29 7.64445 38.333 8.34756ZM36.8982 8.36267C36.8692 8.14578 36.7218 8.04089 36.5244 7.98578C35.9118 7.816 35.1563 8.38045 35.0878 9.11022C35.1878 9.10371 35.2862 9.09885 35.3833 9.09405C35.604 9.08315 35.8182 9.07257 36.0303 9.04356C36.2365 9.016 36.4419 8.95378 36.6305 8.86845C36.835 8.78045 36.9289 8.59556 36.8982 8.36267Z" fill="white"/>
<path d="M27.6933 7.95202C27.6301 7.37424 27.2458 6.95913 26.6885 6.86313C26.0137 6.75113 25.4292 6.95024 24.9211 7.39913C24.7825 7.5209 24.6517 7.65246 24.5008 7.79557C24.5218 7.51557 24.5438 7.24535 24.5648 6.96446C24.1138 6.96446 23.6943 6.96446 23.2582 6.96446C22.9352 8.73602 22.6176 10.4925 22.292 12.2853C22.7948 12.2853 23.2485 12.2916 23.7048 12.2773C23.7557 12.2756 23.8347 12.1698 23.847 12.1022C23.9602 11.5289 24.0629 10.9502 24.1621 10.376C24.2551 9.84535 24.3472 9.31824 24.6166 8.84446C24.7983 8.5209 25.0194 8.23113 25.3915 8.11113C25.7732 7.98757 26.0611 8.17424 26.1058 8.57335C26.1199 8.6889 26.1278 8.80979 26.1093 8.92446C26.0032 9.59735 25.8882 10.2693 25.7715 10.9396C25.6951 11.3778 25.6109 11.8151 25.5302 12.248C25.5714 12.2676 25.5916 12.2836 25.6109 12.2836C26.0532 12.2871 26.4963 12.296 26.9386 12.2836C26.9895 12.2818 27.0659 12.1796 27.0808 12.1147C27.2317 11.36 27.3721 10.6062 27.5134 9.8489C27.6328 9.22402 27.7635 8.59824 27.6933 7.95202Z" fill="white"/>
<path fill-rule="evenodd" clip-rule="evenodd" d="M32.3367 9.8322C31.8549 10.074 31.3345 10.1655 30.8044 10.1966C30.5771 10.2107 30.3481 10.2071 30.1169 10.2035C30.0116 10.2019 29.9059 10.2002 29.7997 10.2002C29.7637 10.7415 30.1252 11.1255 30.6719 11.1931C31.2002 11.2598 31.7127 11.1744 32.2059 10.9824C32.23 10.9739 32.2539 10.9649 32.2778 10.9559C32.3087 10.9442 32.3397 10.9325 32.3709 10.922C32.3781 10.9192 32.3871 10.9196 32.4023 10.9202C32.4111 10.9206 32.422 10.9211 32.4358 10.9211C32.4435 11.0029 32.4518 11.0848 32.46 11.1669C32.4835 11.4016 32.5071 11.6373 32.5201 11.8731C32.5209 11.9344 32.4507 12.0375 32.3928 12.0606C31.5328 12.4171 30.6412 12.5415 29.7347 12.3042C28.8896 12.0838 28.4263 11.4695 28.3324 10.6126C28.2008 9.4002 28.5509 8.3362 29.4829 7.53265C30.2507 6.87043 31.152 6.66332 32.1287 6.95843C32.7816 7.15487 33.1466 7.6482 33.1958 8.33176C33.2414 9.00554 32.9518 9.51843 32.3367 9.8322ZM31.761 8.37087C31.7268 8.14776 31.5793 8.03487 31.3705 7.98332C30.7562 7.8322 30.0348 8.37798 29.9523 9.06865C30.3516 9.15309 31.1625 9.05443 31.4731 8.8882C31.6873 8.77532 31.7952 8.58865 31.761 8.37087Z" fill="white"/>
<path fill-rule="evenodd" clip-rule="evenodd" d="M21.2266 7.27842C21.7417 7.66597 21.9918 8.20553 22.033 8.84464C22.0716 9.51042 21.9602 10.1513 21.6495 10.7406C21.0668 11.8455 20.1384 12.3842 19.1994 12.4118C17.8357 12.4135 17.0591 11.9033 16.773 10.9824C16.3044 9.47042 17.2047 7.10953 19.4091 6.86153C20.0691 6.78775 20.6851 6.87131 21.2266 7.27842ZM19.1783 11.2331C19.4609 11.2073 19.6847 11.0571 19.8549 10.8375C20.313 10.25 20.4912 9.56819 20.4297 8.83753C20.3806 8.23842 19.933 7.91575 19.3863 8.04375C19.1204 8.10419 18.9212 8.27397 18.7615 8.49175C18.4043 8.97975 18.2604 9.54064 18.2438 10.1398C18.2438 10.1642 18.2432 10.1892 18.2427 10.2143C18.2416 10.2695 18.2404 10.3257 18.2446 10.3806C18.2859 10.9246 18.672 11.2811 19.1783 11.2331Z" fill="white"/>
</svg>
