<svg width="45" height="13" viewBox="0 0 45 13" fill="none" xmlns="http://www.w3.org/2000/svg">
<path fill-rule="evenodd" clip-rule="evenodd" d="M7.31002 1.55547C7.5959 1.73314 7.8262 1.96974 7.97179 2.25661C8.13237 2.54261 8.20385 2.90141 8.20473 3.32867C8.20473 4.30454 7.7962 5.09234 6.96767 5.68861C6.14355 6.28401 4.99649 6.58127 3.51502 6.58301H3.16826C2.90267 6.58301 2.64326 6.78841 2.58767 7.03454L2.17208 8.80254C2.11385 9.05474 1.85355 9.25494 1.59061 9.25494H0.37914C0.116198 9.25494 -0.0488015 9.04867 0.0129632 8.80254L1.71502 1.52081C1.77679 1.27121 2.03443 1.07014 2.29737 1.06667L4.82708 1.06494C5.37502 1.07014 5.84796 1.10307 6.25737 1.17587C6.65973 1.25041 7.01179 1.37607 7.31002 1.55547ZM3.82737 5.03081C4.48385 5.03081 4.99296 4.89907 5.35914 4.63561C5.72355 4.37214 5.91149 4.00034 5.90443 3.51674C5.9062 3.19867 5.78885 2.95861 5.55502 2.80781C5.31855 2.65527 4.96473 2.57641 4.50149 2.57641L4.10443 2.57901C3.84414 2.57727 3.57855 2.78267 3.52737 3.03054L3.16296 4.57667C3.10561 4.82627 3.26708 5.03081 3.5309 5.03081H3.82737Z" fill="white"/>
<path d="M42.5071 1.63528L42.4313 1.65781L42.3298 1.67168L42.2054 1.65261L42.1418 1.59194L42.1127 1.49661L42.111 1.35361V0.824078H42.516V0.660278H42.111V0.330078H41.9107V0.660278H41.7748V0.824078H41.9107V1.44028L42.0042 1.74534L42.2795 1.84241L42.3951 1.83288L42.5177 1.80948V1.63528H42.5071Z" fill="white"/>
<path d="M44.3855 0.744441L44.0961 0.627441L43.8825 0.669908L43.6655 0.813775L43.5393 0.675975L43.3346 0.628308L43.1378 0.670775L42.9516 0.788641V0.660375H42.7549V1.81737H42.9508V0.953308L43.1158 0.852775L43.2799 0.812908L43.414 0.836308L43.4802 0.903041L43.5093 1.01397L43.519 1.15697V1.81824H43.7158V1.07811L43.7122 1.01657L43.7087 0.960241L43.8764 0.855375L44.0422 0.814641L44.1719 0.838041L44.2425 0.904775L44.2672 1.01657L44.2805 1.15784V1.81911H44.4781V1.06771L44.3855 0.744441Z" fill="white"/>
<path fill-rule="evenodd" clip-rule="evenodd" d="M11.6484 2.91797C12.6349 2.91797 13.3566 3.0445 13.8137 3.29757C14.2716 3.54977 14.5055 3.9441 14.5019 4.47624L14.4808 4.7631L14.4349 5.06904L13.5516 8.8243C13.4987 9.05137 13.2719 9.24204 13.0302 9.26977L13.0143 9.2767H12.8396H11.9105H11.8893L11.8849 9.2715C11.6546 9.24897 11.5116 9.0583 11.561 8.82604V8.8243L11.5637 8.8165L11.6096 8.62584L11.6034 8.61717L11.1463 8.91357L10.6496 9.18397L10.0628 9.38244C9.88281 9.4249 9.62958 9.45004 9.30223 9.45177C8.78517 9.45177 8.35281 9.31137 8.02546 9.02364C7.69987 8.7307 7.53223 8.35197 7.53223 7.8935C7.53223 7.40644 7.64781 6.9913 7.87899 6.64897C8.11811 6.30837 8.46046 6.04057 8.92193 5.84124C9.35164 5.64797 9.8687 5.5067 10.4581 5.4261C11.0608 5.3403 11.5575 5.2779 12.2449 5.23544L12.4196 5.1297L12.4408 4.96157C12.4408 4.7033 12.319 4.52477 12.0755 4.42077C11.8284 4.3185 11.4578 4.26824 10.9734 4.26824C10.6452 4.2639 10.2313 4.32977 9.8387 4.4173C9.5536 4.4798 9.41231 4.52813 9.28541 4.57153C9.22928 4.59073 9.17597 4.60896 9.11429 4.62704C9.02076 4.6591 8.79664 4.67384 8.88046 4.29164L9.0287 3.69277C9.0287 3.69277 9.10105 3.24124 9.56164 3.14244C9.58559 3.13732 9.60738 3.13264 9.62764 3.12828C9.79622 3.09203 9.85908 3.07851 10.1828 3.02977C10.6743 2.95524 11.1605 2.91797 11.6484 2.91797ZM11.6713 7.76437L11.8602 7.51997C11.9343 7.23224 12.0896 6.59437 12.1063 6.51204L12.0225 6.3673C11.9511 6.36904 11.404 6.43057 11.1269 6.46437C10.8163 6.50684 10.5481 6.56837 10.3284 6.64117L9.81487 6.98437C9.69399 7.1317 9.63752 7.32324 9.63752 7.56504L9.87134 8.01137C10.0293 8.09804 10.2631 8.1405 10.5613 8.1405C10.7581 8.1405 10.9708 8.09544 11.1949 8.00617L11.6713 7.76437Z" fill="white"/>
<path fill-rule="evenodd" clip-rule="evenodd" d="M33.6542 2.92236C34.638 2.92236 35.3589 3.04976 35.8186 3.30283C36.2801 3.55503 36.5112 3.94763 36.5103 4.47803L36.4848 4.76576L36.438 5.07343L35.5521 8.8235C35.5018 9.05316 35.2759 9.24383 35.0368 9.27243L35.0183 9.2785H34.8471H33.9153H33.8942L33.8924 9.27416C33.6595 9.25336 33.5156 9.06096 33.5703 8.8287L33.5686 8.82523L33.573 8.82176L33.6145 8.62936L33.6065 8.61983L33.153 8.9197L32.6518 9.1901L32.0668 9.38596C31.8859 9.4319 31.6327 9.4527 31.3071 9.45616C30.7901 9.45616 30.3621 9.3123 30.033 9.02543C29.703 8.73423 29.5371 8.3555 29.5371 7.89356C29.5371 7.41083 29.6509 6.99656 29.8848 6.65423C30.1212 6.31276 30.468 6.04496 30.9277 5.84476C31.3583 5.65063 31.8771 5.51023 32.4648 5.42963C33.0612 5.34383 33.5589 5.28143 34.2533 5.2407L34.4262 5.13236L34.4448 4.9651C34.4448 4.70943 34.3248 4.52916 34.0795 4.42516C33.8333 4.3229 33.4627 4.27176 32.9801 4.27176C32.6509 4.27003 32.2336 4.33416 31.8427 4.42083C31.5649 4.48463 31.426 4.53192 31.3017 4.57422C31.2437 4.59399 31.1888 4.61266 31.1245 4.63143C31.0221 4.6609 30.8033 4.67823 30.8862 4.29603L31.0345 3.69803C31.0345 3.69803 31.1059 3.24476 31.5656 3.14683C31.5943 3.14085 31.6198 3.13546 31.6434 3.13048C31.8043 3.09649 31.8724 3.08212 32.1895 3.03676C32.6792 2.95963 33.1662 2.92236 33.6542 2.92236ZM33.6727 7.77223L33.8695 7.52523C33.9418 7.23576 34.098 6.6005 34.1103 6.51816L34.0248 6.37343C33.9542 6.3743 33.4089 6.43756 33.1336 6.47136C32.8212 6.51556 32.553 6.5745 32.3359 6.6473C32.1136 6.73223 31.9345 6.84836 31.8171 6.98963C31.7015 7.13956 31.6442 7.32936 31.6442 7.57203L31.8806 8.01663C32.0342 8.1033 32.2618 8.14663 32.5698 8.14663C32.763 8.14663 32.9765 8.1007 33.2006 8.0123L33.6727 7.77223Z" fill="white"/>
<path fill-rule="evenodd" clip-rule="evenodd" d="M29.3054 1.58011C29.593 1.76211 29.8207 1.99524 29.9724 2.28384C30.126 2.56724 30.201 2.92691 30.2054 3.35244C30.2054 4.32918 29.7916 5.11524 28.9736 5.71584C28.146 6.30951 26.9963 6.60938 25.513 6.60938H25.1663C24.9042 6.60764 24.6439 6.81478 24.5839 7.06091L24.1736 8.82978C24.1127 9.07938 23.8489 9.28218 23.5913 9.28044L22.378 9.28218C22.1204 9.28218 21.951 9.07764 22.0127 8.83064L23.7166 1.54544C23.7774 1.29844 24.0307 1.09738 24.2945 1.09304L26.8277 1.09131C27.3722 1.09218 27.8513 1.13031 28.2527 1.20051C28.6613 1.27331 29.0107 1.39984 29.3054 1.58011ZM25.8316 5.05631C26.4845 5.05631 26.9945 4.92458 27.3598 4.66631C27.7233 4.40111 27.906 4.02844 27.9033 3.54484C27.9007 3.22764 27.7886 2.98844 27.5513 2.83591C27.313 2.68338 26.9636 2.60798 26.4977 2.60538L26.1051 2.60798C25.843 2.60538 25.5801 2.81251 25.5263 3.05951L25.1592 4.60304C25.101 4.85091 25.2695 5.05891 25.5298 5.05631H25.8316Z" fill="white"/>
<path d="M40.361 1.60349C40.4165 1.35476 40.2577 1.15283 39.9974 1.15629H38.9121C38.6898 1.15629 38.4895 1.31836 38.3915 1.51769L38.3315 1.60956L38.2768 1.84529L36.7601 8.61743L36.7107 8.82543L36.7124 8.83063C36.6621 9.05336 36.8015 9.22149 37.0168 9.25356L37.0354 9.27869H38.1621C38.3827 9.27869 38.5901 9.11403 38.6845 8.91123L38.7427 8.82456L40.3645 1.60436L40.361 1.60349Z" fill="white"/>
<path d="M22.0468 3.00889C21.7601 3.01235 20.5945 3.00889 20.5945 3.00889C20.3333 3.00889 19.998 3.21602 19.8321 3.46302C19.8321 3.46302 18.0974 6.38715 17.9289 6.68095L17.7277 6.67835L17.1877 3.48295C17.1277 3.23162 16.8603 3.01669 16.5277 3.01669L15.4424 3.01842C15.1812 3.01842 15.0206 3.22295 15.0798 3.47255C15.0798 3.47255 15.9039 8.07889 16.0689 9.16309C16.1456 9.76109 16.0592 9.86769 16.0592 9.86769L14.9862 11.7033C14.8274 11.9529 14.913 12.1566 15.1733 12.1566L16.428 12.1548C16.6892 12.1548 17.0324 11.9529 17.1877 11.7024L22.0142 3.68402C22.0142 3.68489 22.4783 2.99935 22.0468 3.00889Z" fill="white"/>
</svg>
