<svg width="41" height="19" viewBox="0 0 41 19" fill="none" xmlns="http://www.w3.org/2000/svg">
<path d="M19.7969 5.35352C19.7969 8.48942 19.7969 11.609 19.7969 14.7621C20.8794 14.7621 21.942 14.7621 23.0176 14.7621C23.0176 11.6199 23.0176 8.49033 23.0176 5.35352C21.9376 5.35352 20.8777 5.35352 19.7969 5.35352Z" fill="white"/>
<path d="M18.7373 5.25753C17.721 4.97706 17.1183 5.22768 16.5207 6.21115C16.4021 5.99039 16.2765 5.7823 16.177 5.56153C16.1002 5.38963 15.9938 5.33082 15.8115 5.33353C15.111 5.3453 14.4114 5.33806 13.7118 5.33987C13.6385 5.33987 13.5643 5.35434 13.498 5.36339C13.498 8.51196 13.498 11.6352 13.498 14.7548C14.5824 14.7548 15.6414 14.7548 16.7318 14.7548C16.7318 14.6272 16.7318 14.5178 16.7318 14.4074C16.7318 12.5762 16.7318 10.7485 16.7318 8.91911C16.7318 8.22968 16.8234 8.1193 17.4977 8.02791C17.6635 8.0062 17.8336 7.99444 17.9985 8.00891C18.3212 8.04058 18.6414 8.09034 19.0034 8.13739C19.0034 7.28239 18.9955 6.44549 19.0086 5.60858C19.0112 5.38782 18.9284 5.31001 18.7373 5.25753Z" fill="white"/>
<path d="M5.26283 9.54003C4.94792 9.30298 4.58066 9.13741 4.23434 8.94741C3.96566 8.79813 3.66732 8.69317 3.43004 8.50317C3.30094 8.40184 3.198 8.15032 3.22243 7.98836C3.24423 7.85174 3.44923 7.68617 3.60189 7.64455C3.81213 7.58574 4.05377 7.60203 4.27447 7.63551C4.81794 7.72055 5.35617 7.83274 5.91709 7.93951C5.91709 7.2546 5.90836 6.56065 5.92232 5.8667C5.92668 5.66584 5.85777 5.5817 5.68155 5.52289C4.5824 5.15646 3.46232 5.05241 2.33002 5.29217C1.26664 5.51655 0.456234 6.08203 0.145681 7.23108C0.079383 7.47265 0.0479787 7.72598 0 7.97208C0 8.15665 0 8.34032 0 8.52398C0.0183191 8.59274 0.0453617 8.6597 0.0540851 8.72846C0.146553 9.46855 0.485894 10.063 1.06774 10.49C1.36347 10.7045 1.69845 10.8637 2.01772 11.0419C2.29338 11.1976 2.583 11.3324 2.84819 11.5034C3.04883 11.6336 3.15002 11.8743 3.04098 12.0896C2.96334 12.2435 2.77143 12.4072 2.61091 12.4307C2.3056 12.4769 1.98109 12.4624 1.67315 12.4117C1.17504 12.333 0.683915 12.2027 0.163128 12.0915C0.163128 12.8659 0.156149 13.6124 0.172723 14.3552C0.174468 14.4294 0.30183 14.5443 0.389936 14.5678C1.41145 14.8664 2.44604 15.0129 3.51291 14.9116C5.1564 14.7569 6.07236 13.8702 6.24334 12.1783C6.34889 11.1369 6.12819 10.1933 5.26283 9.54003Z" fill="white"/>
<path d="M11.0752 11.848C11.0638 11.7485 11.0647 11.6417 11.0647 11.5413C11.0638 10.2945 11.0638 9.04686 11.0647 7.8001C11.0647 7.70329 11.0752 7.60557 11.0813 7.48433C11.5218 7.48433 11.9327 7.48433 12.354 7.48433C12.4971 6.76414 12.6358 6.06657 12.7824 5.331C12.1961 5.331 11.6396 5.331 11.0551 5.331C11.0551 4.37195 11.0551 3.4491 11.0551 2.5C10.1723 2.71986 9.3244 2.94152 8.47125 3.14057C8.25927 3.18852 8.19297 3.29981 8.15721 3.50519C8.05165 4.115 7.92517 4.72119 7.80217 5.3509C7.39565 5.3509 7.01619 5.3509 6.63672 5.3509C6.63672 6.07924 6.63672 6.77771 6.63672 7.4979C7.03276 7.4979 7.40438 7.4979 7.8074 7.4979C7.8074 7.63271 7.8074 7.74038 7.8074 7.84986C7.80827 9.37438 7.7978 10.8953 7.81263 12.4198C7.82572 13.7145 8.3814 14.5759 9.38808 14.8265C10.5282 15.1169 11.6483 14.8663 12.7667 14.6537C12.7667 13.8394 12.7667 13.064 12.7667 12.2597C12.382 12.3049 12.0313 12.3601 11.678 12.3818C11.2723 12.4062 11.1232 12.2642 11.0752 11.848Z" fill="white"/>
<path d="M21.6119 0.805147C21.6041 0.799719 21.5971 0.797004 21.5884 0.79248C21.4706 0.79248 21.352 0.79248 21.2342 0.79248C21.215 0.797004 21.195 0.803338 21.1758 0.81148C20.3889 0.934528 19.7861 1.64024 19.7861 2.49072C19.7861 2.96934 19.9772 3.40181 20.2842 3.71124C20.4823 3.91391 20.7352 4.065 21.0257 4.141C21.1566 4.17539 21.2909 4.19258 21.4209 4.19077C21.4226 4.19077 21.4244 4.19077 21.4261 4.19077C22.3307 4.19077 23.0635 3.42986 23.0635 2.49162C23.0635 1.61853 22.4302 0.900147 21.6119 0.805147Z" fill="white"/>
<path fill-rule="evenodd" clip-rule="evenodd" d="M36.5244 11.171C36.4389 11.8369 36.7049 12.2513 37.299 12.3453C37.9973 12.4589 38.6873 12.3369 39.3751 12.2152C39.4545 12.2012 39.5339 12.1871 39.6133 12.1734C39.79 12.142 39.9667 12.1088 40.157 12.0731C40.2457 12.0565 40.3374 12.0393 40.4333 12.0214V13.7513C40.4333 14.1273 40.4333 14.3127 40.3433 14.4277C40.2552 14.5402 40.081 14.5852 39.7363 14.6751C38.5264 14.9927 37.3086 15.0479 36.0795 14.7927C34.6994 14.5068 33.8515 13.622 33.5 12.2431C33.131 10.8018 33.1292 9.34335 33.5087 7.9084C33.9745 6.14321 35.1129 5.26378 37.0164 5.17511C37.9934 5.13078 38.9294 5.27916 39.6857 6.0093C40.306 6.60644 40.6244 7.38273 40.7334 8.22235C40.8208 8.89846 40.8587 9.58088 40.8977 10.2823C40.9139 10.5749 40.9303 10.8708 40.9506 11.171H36.5244ZM36.7904 7.38363C36.6962 7.49492 36.6186 7.64692 36.6011 7.78897C36.5571 8.15069 36.5271 8.51477 36.4964 8.88699C36.4846 9.03055 36.4727 9.17532 36.4598 9.32163C36.9501 9.32163 37.3819 9.32163 37.9096 9.32254C37.8894 9.13154 37.8739 8.94237 37.8585 8.75513C37.8257 8.35432 37.7935 7.96231 37.7168 7.57997C37.6253 7.12306 37.0853 7.02625 36.7904 7.38363Z" fill="white"/>
<path fill-rule="evenodd" clip-rule="evenodd" d="M31.8232 6.53942C32.1302 7.19175 32.2611 7.89203 32.3195 8.61132C32.4277 9.88884 32.4321 11.1618 32.1198 12.4167C32.1062 12.4783 32.0895 12.5371 32.0729 12.5956C32.0702 12.605 32.0675 12.6145 32.0648 12.6239C31.5964 14.1819 30.6542 14.9311 29.0831 14.9465C28.7686 14.9483 28.454 14.9084 28.1309 14.8673C27.9837 14.8486 27.8346 14.8297 27.683 14.8144V18.1557H24.4301C24.4296 18.1476 24.4291 18.1395 24.4286 18.1314C24.4229 18.0384 24.417 17.9421 24.417 17.848V5.70432V5.34061H25.9776C26.0029 5.34061 26.0282 5.34125 26.0533 5.34189C26.1071 5.34327 26.1605 5.34463 26.214 5.3397C26.7418 5.29627 27.253 5.28361 27.492 5.93956C27.5637 5.88681 27.621 5.84598 27.6727 5.80914C27.7053 5.78595 27.7356 5.76434 27.7659 5.74232C28.6095 5.1307 29.5333 5.03208 30.5007 5.30894C31.1314 5.48899 31.5449 5.94318 31.8232 6.53942ZM27.6752 12.4692C28.3957 12.7434 28.8214 12.5353 28.9697 11.7907C29.2079 10.5991 29.1747 9.39394 29.0195 8.19784C28.961 7.72465 28.6714 7.57265 28.2256 7.70656C28.1664 7.72449 28.109 7.74677 28.0519 7.76897C28.0082 7.78598 27.9646 7.80293 27.9203 7.81784C27.7397 7.87756 27.6682 7.98523 27.6699 8.19784C27.6789 9.08756 27.6775 9.97824 27.6762 10.8692C27.6757 11.1932 27.6752 11.5173 27.6752 11.8413V12.4692Z" fill="white"/>
</svg>
