<svg width="31" height="31" viewBox="0 0 31 31" fill="none" xmlns="http://www.w3.org/2000/svg">
<path fill-rule="evenodd" clip-rule="evenodd" d="M0.572266 15.3454C0.572266 7.05205 7.2068 0.41748 15.5 0.41748C23.7931 0.41748 30.4277 7.05205 30.4277 15.3454C30.4277 23.6383 23.7931 30.2728 15.5 30.2728C7.20681 30.2728 0.572266 23.6383 0.572266 15.3454ZM24.0696 15.76C25.3136 15.76 26.2811 15.4833 26.834 14.6539C26.4193 14.7923 25.59 14.7923 24.346 14.516V14.3776C25.7282 14.2393 26.4193 13.9629 26.6957 13.2719C25.7282 13.5483 24.8989 13.5483 24.0696 13.2719C23.774 12.0673 23.1523 10.9674 22.2727 10.0928C21.4434 9.26343 20.3377 8.98711 19.2319 8.98711V8.84875C20.3377 8.71079 20.8905 8.43406 21.0287 8.15774C21.167 8.01937 21.0287 7.88142 20.8905 7.88142C20.3377 7.88142 19.7848 8.01938 19.3701 8.15774C19.923 7.88142 20.1994 7.6051 20.0612 7.46673C19.5083 7.46673 18.9554 7.74306 18.2644 8.29611C18.3077 8.23106 18.3477 8.17282 18.3837 8.12031C18.5773 7.83803 18.6573 7.72142 18.5408 7.6051C18.4429 7.70294 18.345 7.78343 18.2533 7.85887C18.0859 7.99651 17.939 8.11736 17.8497 8.29611C17.4032 8.63102 17.137 9.05591 16.9054 9.42544C16.8503 9.51346 16.7971 9.59834 16.7439 9.67812C15.9146 10.7838 15.5 11.8895 15.0853 12.9956V13.1335L15.0844 13.1327C14.532 12.5805 14.1174 12.1661 13.4267 11.8895C12.7356 11.3368 11.768 10.9222 10.8005 10.5075C9.74351 9.97285 8.63112 9.55567 7.48324 9.26341C7.48324 10.3691 8.17432 11.3369 9.28009 12.0279C9.07277 12.0279 8.86544 12.0625 8.65811 12.097C8.45078 12.1316 8.24345 12.1662 8.03612 12.1662C8.17434 13.2719 9.00366 14.1013 10.5241 14.516C9.97119 14.516 9.41832 14.6539 9.00366 15.0686C9.55653 16.0364 10.5241 16.589 11.768 16.451C11.5211 16.5596 11.3238 16.7568 11.2152 17.0037C10.9387 17.1421 10.8005 17.4184 10.9387 17.8331C11.2152 18.2477 11.768 18.5241 12.4592 18.3861V18.5241C11.2152 19.7681 9.69477 20.3212 7.75968 20.1828V20.3212C6.65393 20.1828 5.54817 19.7681 4.16598 18.6624C5.54817 20.4591 7.20681 21.8416 9.28011 22.5326C11.768 23.3619 14.256 23.3619 16.6057 22.8089H16.7439C19.0937 22.1179 21.0288 20.7359 22.6874 18.8008C23.5167 17.6951 23.9314 16.7274 24.0696 15.76Z" fill="white"/>
</svg>
