<svg width="42" height="14" viewBox="0 0 42 14" fill="none" xmlns="http://www.w3.org/2000/svg">
<path d="M16.759 0.699219L14.6318 13.182H18.0338L20.1627 0.699219H16.759Z" fill="white"/>
<path d="M11.7789 0.713074L8.44691 9.22595L8.09166 7.94057C7.43453 6.39182 5.56903 4.16757 3.37891 2.76582L6.42566 13.1757L10.0254 13.1696L15.383 0.710449L11.7789 0.713074Z" fill="white"/>
<path d="M6.8005 1.60641C6.60275 0.846035 6.02962 0.61941 5.31825 0.592285H0.04375L0 0.840785C4.10463 1.83654 6.82063 4.23579 7.94763 7.12066L6.8005 1.60641Z" fill="white"/>
<path d="M27.0581 3.09236C28.1711 3.07486 28.9778 3.31811 29.6043 3.57011L29.9115 3.71449L30.3717 1.00899C29.698 0.756113 28.6418 0.484863 27.3241 0.484863C23.9623 0.484863 21.5928 2.17799 21.5745 4.60436C21.5526 6.39724 23.2623 7.39824 24.5538 7.99586C25.8795 8.60836 26.324 8.99774 26.3178 9.54461C26.3073 10.3802 25.2608 10.7635 24.2835 10.7635C22.9211 10.7635 22.1975 10.5754 21.0801 10.1099L20.6417 9.91036L20.1631 12.7042C20.9593 13.0534 22.4285 13.3535 23.9536 13.3692C27.5297 13.3692 29.8537 11.6962 29.8782 9.10361C29.8931 7.68524 28.9857 6.60286 27.0196 5.71474C25.8296 5.13549 25.1016 4.75049 25.1086 4.16599C25.1086 3.64711 25.7263 3.09236 27.0581 3.09236Z" fill="white"/>
<path fill-rule="evenodd" clip-rule="evenodd" d="M36.4734 0.712891H39.1019L41.8546 13.1886H38.6985C38.6985 13.1886 38.3853 11.7545 38.2838 11.3188C38.0221 11.3188 36.9267 11.3173 35.8953 11.3159C34.9779 11.3147 34.1113 11.3135 33.9271 11.3135C33.795 11.6504 33.2123 13.1886 33.2123 13.1886H29.6396L34.691 1.74889C35.0498 0.935141 35.657 0.712891 36.4734 0.712891ZM36.2616 5.26989C36.2616 5.26989 35.1863 8.04189 34.9063 8.75852H37.7325L36.9441 5.15439L36.7149 4.07814C36.6289 4.30799 36.5141 4.60631 36.4215 4.84711C36.3248 5.09858 36.2523 5.28732 36.2616 5.26989Z" fill="white"/>
</svg>
