<svg width="30" height="30" viewBox="0 0 30 30" fill="none" xmlns="http://www.w3.org/2000/svg">
<path fill-rule="evenodd" clip-rule="evenodd" d="M29.9765 15.0001C29.9765 6.7554 23.2932 0.0722656 15.0488 0.0722656C6.80445 0.0722656 0.121094 6.75542 0.121094 15.0001C0.121094 23.2445 6.80445 29.9276 15.0488 29.9276C23.2932 29.9276 29.9765 23.2444 29.9765 15.0001ZM15.0392 7.556C13.9078 7.556 12.6156 7.57522 11.1628 7.61365C8.72006 7.67791 7.31867 7.7615 6.95867 7.86444C6.32861 7.98016 5.78218 8.30165 5.31938 8.8289C5.07514 9.16287 4.8437 9.79924 4.62508 10.738C4.50942 12.0109 4.45159 13.1487 4.45159 14.1515C4.45159 17.263 4.5673 19.1208 4.79874 19.7248C4.8728 20.0841 4.96941 20.4384 5.08798 20.7856C5.42231 21.3897 5.97516 21.8269 6.74652 22.0972L7.59509 22.1936C7.81366 22.2578 8.46935 22.3092 9.56217 22.3476C12.1078 22.4119 13.9656 22.444 15.1356 22.444C16.177 22.444 17.5334 22.4312 19.2049 22.4057C21.3905 22.3287 22.644 22.2515 22.9654 22.1743C23.4926 22.0973 23.9233 21.9173 24.2576 21.6344C24.6545 21.3023 24.9543 20.8692 25.1254 20.3809C25.4725 19.5321 25.6461 18.0278 25.6461 15.8679V14.1515C25.6378 13.0106 25.567 11.8711 25.434 10.738C25.2668 9.77357 24.9904 9.08572 24.6047 8.67447C24.4119 8.46857 24.2769 8.3593 24.1998 8.34668C23.8711 8.07354 23.4679 7.90552 23.0426 7.86443C22.0269 7.65895 19.3591 7.55614 15.0392 7.556ZM12.185 12.0303C12.2621 12.0558 13.8242 12.8657 16.8713 14.4599C17.5527 14.8202 17.8934 15.0066 17.8934 15.0191L12.185 17.9701V12.0303H12.185Z" fill="white"/>
</svg>
