<svg xmlns="http://www.w3.org/2000/svg" width="29.934" height="30.72" viewBox="0 0 29.934 30.72">
  <path id="Combined_Shape" data-name="Combined Shape" d="M6.392,27.871l-1.406-8.43,1.895-.316,1.406,8.43a1.489,1.489,0,0,0,2.88.226l.621-1.861H20.3A3.843,3.843,0,0,1,24,23.04h.006a3.834,3.834,0,1,1-3.71,4.8H13.172l-.184.549a3.409,3.409,0,0,1-6.6-.517ZM22.08,26.88A1.92,1.92,0,1,0,24,24.96,1.922,1.922,0,0,0,22.08,26.88ZM9.736,24,7.52,9.6H29.934L27.826,22.238l-1.893-.317,1.733-10.4H9.76l1.624,10.56H19.2V24ZM4.357,15.656l1.894-.316.316,1.894-1.894.317Zm-.633-3.794,1.894-.315.315,1.894-1.894.315ZM2.067,1.92H0V0H3.693L5.3,9.657l-1.893.316Z" fill="#444e5b"/>
</svg>
