<svg xmlns="http://www.w3.org/2000/svg" width="20" height="20" viewBox="0 0 20 20"><g><g opacity=".39"><g opacity=".39"><path fill="#fff" d="M10.775 10.672v.866a.77.77 0 0 1-1.54 0V10a.77.77 0 0 1 .77-.77c.85 0 1.541-.69 1.541-1.538a1.541 1.541 0 0 0-3.082 0 .77.77 0 0 1-1.54 0 3.083 3.083 0 0 1 6.163 0c0 1.431-.983 2.637-2.312 2.98zM10 15.375a.767.767 0 0 1-.77-.765c0-.421.345-.764.77-.764.425 0 .77.343.77.764a.767.767 0 0 1-.77.765zM10 0C4.486 0 0 4.486 0 10s4.486 10 10 10 10-4.486 10-10S15.514 0 10 0z"/></g></g></g></svg>