<svg xmlns="http://www.w3.org/2000/svg" width="177" height="51" viewBox="0 0 177 51"><g><g><g><path fill="#323438" d="M66.097 25.283c.691 0 1.137-.1 1.338-.301.2-.2.3-.658.3-1.37V17.66l4.948 6.385c.356.535.707.874 1.053 1.02.345.144.863.217 1.554.217h1.605c.713 0 1.07-.201 1.07-.602 0-.245-.134-.535-.402-.87l-5.415-6.952 5.449-5.583c.379-.379.485-.719.317-1.02-.167-.3-.562-.45-1.186-.45h-1.505c-.78 0-1.331.094-1.654.283-.323.19-.897.708-1.722 1.555l-4.112 4.212v-11.4c0-1.225-.267-2.111-.802-2.657-.535-.546-1.426-.819-2.674-.819-.401 0-.64.09-.719.267-.078.179-.117.58-.117 1.204v21.16c0 .713.1 1.17.301 1.37.2.201.657.302 1.37.302zm-12.803.2c.959 0 1.817-.061 2.574-.184a9.48 9.48 0 0 0 2.257-.668 3.698 3.698 0 0 0 1.738-1.505c.412-.68.618-1.532.618-2.557 0-1.114-.306-2.022-.919-2.724a4.882 4.882 0 0 0-2.223-1.471 22.097 22.097 0 0 0-2.624-.669c-.88-.167-1.627-.362-2.24-.585-.613-.223-.919-.535-.919-.936 0-.713.98-1.07 2.942-1.07 1.136 0 2.485.157 4.045.469.646.111 1.047.128 1.203.05.156-.078.234-.362.234-.853 0-1.36-.735-2.273-2.206-2.74-1.048-.313-2.184-.469-3.41-.469-4.613 0-6.92 1.627-6.92 4.88 0 1.07.307 1.94.92 2.608a4.806 4.806 0 0 0 2.223 1.387c.869.257 1.743.463 2.624.619.88.156 1.627.35 2.24.585.612.234.919.574.919 1.02 0 .913-1.048 1.37-3.143 1.37-1.426 0-2.975-.29-4.646-.87-.446-.155-.78-.233-1.003-.233-.2 0-.329.067-.384.2-.056.134-.084.39-.084.77 0 1.67.68 2.696 2.04 3.075 1.158.334 2.54.501 4.144.501zm-11.432-.21c.713 0 1.17-.1 1.37-.301.2-.2.301-.657.301-1.37V13.28c0-1.224-.267-2.11-.802-2.655-.535-.546-1.426-.819-2.674-.819-.402 0-.641.09-.72.267-.077.179-.116.58-.116 1.203v12.327c0 .713.106 1.17.317 1.37.212.2.663.3 1.354.3zm-.435-19.178c.758 0 1.37-.218 1.839-.652.468-.435.702-1.009.702-1.722 0-.69-.234-1.253-.702-1.688-.468-.435-1.081-.652-1.839-.652s-1.37.217-1.838.652c-.468.435-.702.997-.702 1.688 0 .713.234 1.287.702 1.722.468.434 1.08.652 1.838.652zM27.492 21.739c-1.227 0-2.209-.384-2.945-1.153-.736-.769-1.104-1.766-1.104-2.992s.368-2.234 1.104-3.025c.736-.791 1.718-1.187 2.945-1.187 1.205 0 2.17.396 2.896 1.187.725.79 1.087 1.8 1.087 3.025 0 1.226-.357 2.223-1.07 2.992-.715.769-1.685 1.153-2.913 1.153zm-.005 3.811c2.675 0 4.758-.713 6.252-2.14 1.493-1.426 2.24-3.365 2.24-5.816 0-2.451-.753-4.401-2.257-5.85-1.504-1.449-3.583-2.173-6.235-2.173-2.696 0-4.797.724-6.3 2.173-1.505 1.449-2.257 3.399-2.257 5.85 0 2.451.746 4.39 2.24 5.817 1.493 1.426 3.599 2.139 6.317 2.139zM8.2 21.562c-1.27 0-2.234-.384-2.891-1.152-.658-.768-.987-1.72-.987-2.854 0-1.136.33-2.093.987-2.872.657-.779 1.62-1.168 2.891-1.168 1.27 0 2.234.39 2.892 1.168.657.78.986 1.736.986 2.872 0 1.135-.329 2.086-.986 2.854-.658.768-1.622 1.152-2.892 1.152zm-5.215 11.41c.691 0 1.137-.101 1.337-.302.201-.2.301-.657.301-1.37v-7.321c1.137 1.025 2.697 1.538 4.68 1.538 2.385 0 4.223-.72 5.516-2.157 1.293-1.437 1.939-3.36 1.939-5.766 0-2.43-.652-4.374-1.956-5.833-1.303-1.46-3.125-2.19-5.465-2.19-2.117 0-3.789.635-5.015 1.906-.423-1.115-1.482-1.672-3.175-1.672-.401 0-.641.09-.719.268-.078.178-.117.579-.117 1.203V31.3c0 .713.1 1.17.3 1.37.201.2.658.301 1.371.301z"/></g><g opacity=".47"><path fill="#323438" d="M174.89 19.21v-1.187c-.453-.072-1.04-.108-1.76-.108-.617 0-1.064.059-1.342.177-.277.118-.416.363-.416.733 0 .679.483 1.018 1.45 1.018.813 0 1.502-.21 2.067-.632zm-4.907-.4c0-.7.227-1.204.68-1.513.453-.308 1.175-.462 2.164-.462.659 0 1.35.04 2.07.123v-.663c0-.33-.059-.6-.177-.81a1.027 1.027 0 0 0-.503-.456 2.613 2.613 0 0 0-.618-.185 4.413 4.413 0 0 0-.68-.046c-.556 0-1.185.077-1.885.231-.227.052-.368.065-.425.039-.057-.026-.085-.105-.085-.24 0-.493.216-.812.649-.956.567-.175 1.231-.262 1.993-.262.33 0 .644.026.943.077.299.052.629.154.99.309.36.154.648.409.865.763.216.355.324.795.324 1.32v4.366c0 .206-.013.337-.039.393-.025.057-.1.085-.224.085-.628 0-.994-.231-1.097-.694-.618.483-1.447.725-2.488.725-1.638 0-2.457-.715-2.457-2.145zm-7.884-.695v-3.919c0-.195.016-.324.046-.385.031-.062.108-.093.232-.093.39 0 .674.087.848.262.175.175.263.458.263.849v3.255c0 1.06.52 1.59 1.558 1.59.597 0 1.05-.155 1.358-.463.308-.309.483-.73.524-1.266v-3.749c0-.205.013-.337.039-.393.026-.057.105-.085.239-.085.39 0 .674.087.849.262.174.175.262.458.262.849v5.616c0 .206-.013.337-.039.393-.025.057-.1.085-.223.085-.381 0-.659-.077-.834-.231-.174-.155-.272-.396-.293-.725-.524.648-1.275.972-2.252.972-1.718 0-2.577-.942-2.577-2.824zm-3.532 2.67a.724.724 0 0 1-.232-.556c0-.237.077-.427.232-.571.156-.144.357-.216.606-.216.258 0 .465.072.62.216a.742.742 0 0 1 .233.57.718.718 0 0 1-.232.564c-.156.139-.363.208-.621.208-.249 0-.45-.072-.606-.216zm-12.082.076c-.236 0-.388-.033-.455-.1s-.1-.213-.1-.44v-6.125c0-.195.015-.324.046-.385.031-.062.108-.093.232-.093.668 0 1.039.288 1.11.864.494-.648 1.22-.972 2.176-.972 1.029 0 1.713.417 2.052 1.25.473-.833 1.23-1.25 2.268-1.25.823 0 1.437.234 1.844.702.406.468.61 1.134.61 1.998v4.011c0 .227-.034.373-.101.44s-.214.1-.44.1h-.324c-.226 0-.373-.033-.44-.1-.066-.067-.1-.213-.1-.44v-3.718c0-1.214-.458-1.82-1.373-1.82-.483 0-.872.156-1.165.47-.293.314-.47.712-.532 1.196v3.872c0 .227-.034.373-.1.44-.067.067-.219.1-.456.1h-.293c-.236 0-.388-.033-.455-.1s-.1-.213-.1-.44v-3.81c0-1.142-.453-1.713-1.358-1.713-1.018 0-1.584.555-1.697 1.666v3.857c0 .227-.033.373-.1.44s-.214.1-.44.1zm-4.457-1.782c.407-.447.61-1.036.61-1.766s-.206-1.324-.618-1.782c-.412-.458-.98-.687-1.701-.687-.732 0-1.304.227-1.716.68-.413.452-.619 1.048-.619 1.789 0 .73.206 1.319.619 1.766.412.448.984.672 1.716.672s1.301-.224 1.709-.672zm-4.505.918c-.66-.658-.989-1.553-.989-2.684 0-1.142.33-2.044.989-2.708.659-.663 1.591-.995 2.796-.995 1.184 0 2.109.334 2.773 1.003.664.668.997 1.568.997 2.7 0 1.131-.333 2.026-.997 2.684-.664.659-1.589.988-2.773.988-1.205 0-2.137-.33-2.796-.988zm-7.438 0c-.597-.648-.895-1.527-.895-2.638 0-1.172.309-2.09.926-2.754.617-.663 1.548-.995 2.792-.995.69 0 1.28.129 1.775.386.318.185.478.52.478 1.003 0 .154-.031.246-.093.277-.061.031-.19.016-.385-.046a3.936 3.936 0 0 0-1.636-.355c-.833 0-1.44.221-1.82.664-.381.442-.571 1.038-.571 1.79 0 1.583.833 2.375 2.5 2.375.4 0 .956-.103 1.665-.308.155-.041.26-.065.317-.07.056-.005.097.008.123.039.026.03.039.087.039.17 0 .504-.196.858-.587 1.064-.462.247-1.085.37-1.866.37-1.245 0-2.166-.324-2.762-.972z"/></g><g><g><g><path fill="#4a90e2" d="M116.649 27.147l3.686 3.686-4.368 4.367-3.686-3.686zm-.682 8.985a.385.385 0 0 0 .273-.113l4.913-4.913a.386.386 0 0 0 0-.546l-4.232-4.231a.397.397 0 0 0-.545 0l-4.913 4.913a.386.386 0 0 0 0 .545l4.232 4.232a.385.385 0 0 0 .272.113z"/></g><g><path fill="#ff9419" d="M102.987 3.912a13.89 13.89 0 0 1 9.852 4.073 13.84 13.84 0 0 1 4.08 9.852c0 3.721-1.449 7.22-4.08 9.851a13.842 13.842 0 0 1-9.852 4.081c-3.722 0-7.22-1.45-9.852-4.08-5.432-5.433-5.432-14.272 0-19.704a13.89 13.89 0 0 1 9.852-4.074zm10.397 24.322c5.733-5.733 5.733-15.061 0-20.794-5.733-5.733-15.061-5.733-20.794 0-5.733 5.733-5.733 15.061 0 20.794a14.658 14.658 0 0 0 10.397 4.3c3.765 0 7.53-1.433 10.397-4.3z"/></g><g><g transform="rotate(-22.589 103 18)"><path fill="#f2f2f3" d="M102.974 32.147c7.905 0 14.313-6.408 14.313-14.313 0-7.906-6.408-14.314-14.313-14.314-7.906 0-14.314 6.408-14.314 14.314 0 7.905 6.408 14.313 14.314 14.313z"/></g></g><g><path fill="#4a90e2" d="M102.987 3.912a13.89 13.89 0 0 1 9.852 4.073 13.84 13.84 0 0 1 4.08 9.852c0 3.721-1.449 7.22-4.08 9.851a13.842 13.842 0 0 1-9.852 4.081c-3.722 0-7.22-1.45-9.852-4.08-5.432-5.433-5.432-14.272 0-19.704a13.89 13.89 0 0 1 9.852-4.074zm10.397 24.322c5.733-5.733 5.733-15.061 0-20.794-5.733-5.733-15.061-5.733-20.794 0-5.733 5.733-5.733 15.061 0 20.794a14.658 14.658 0 0 0 10.397 4.3c3.765 0 7.53-1.433 10.397-4.3z"/></g><g><path fill="#4a90e2" d="M121.654 30.607l11.932 11.932a4.1 4.1 0 0 1 1.21 2.919c0 1.103-.43 2.14-1.21 2.919l-.064.064a4.102 4.102 0 0 1-2.92 1.21c-1.102 0-2.139-.43-2.919-1.21L115.751 36.51zm8.948 19.813c1.255 0 2.51-.478 3.465-1.433l.064-.064a4.868 4.868 0 0 0 1.435-3.465c0-1.309-.51-2.54-1.435-3.465L121.927 29.79a.397.397 0 0 0-.546 0l-6.448 6.448a.386.386 0 0 0 0 .545l12.205 12.205a4.885 4.885 0 0 0 3.464 1.433z"/></g><g><path fill="#4a90e2" d="M114.867 5.965a16.693 16.693 0 0 1 4.922 11.881c0 4.488-1.748 8.708-4.922 11.881-6.55 6.551-17.21 6.552-23.762 0-6.552-6.551-6.552-17.21 0-23.762a16.75 16.75 0 0 1 11.881-4.914c4.302 0 8.606 1.639 11.881 4.914zm.546 24.308a17.459 17.459 0 0 0 5.148-12.427c0-4.694-1.829-9.108-5.148-12.427-6.852-6.852-18.001-6.852-24.854 0-6.852 6.852-6.852 18.002 0 24.854a17.52 17.52 0 0 0 12.427 5.139c4.5 0 9-1.713 12.427-5.14z"/></g><g><path fill="#4a90e2" d="M102.979 35.027c9.493 0 17.188-7.695 17.188-17.188 0-9.493-7.695-17.189-17.188-17.189-9.493 0-17.189 7.696-17.189 17.189s7.696 17.188 17.189 17.188z"/></g></g><g><path fill="#fff" d="M110.486 23.424c.468 0 .762-.06.882-.18s.18-.42.18-.9v-1.188h1.17c.336 0 .552-.048.648-.144.096-.096.144-.306.144-.63v-.54c0-.324-.048-.534-.144-.63-.096-.096-.312-.144-.648-.144h-1.17V17.88c0-.48-.06-.78-.18-.9s-.414-.18-.882-.18h-.27c-.468 0-.768.063-.9.19-.132.125-.198.422-.198.89v1.206h-3.24l3.978-7.326c.144-.264.216-.474.216-.63 0-.3-.228-.45-.684-.45h-.756c-.276 0-.492.06-.648.18-.156.12-.324.342-.504.666l-3.942 7.272c-.336.636-.504 1.128-.504 1.476 0 .588.456.882 1.368.882h4.716v1.188c0 .48.063.78.189.9s.429.18.909.18zm-9.81 0c.336 0 .552-.048.648-.144.096-.096.144-.306.144-.63v-.54c0-.324-.048-.534-.144-.63-.096-.096-.312-.144-.648-.144h-5.58c.024-.456.159-.858.405-1.206.246-.348.552-.63.918-.846.366-.216.765-.417 1.197-.603a18.18 18.18 0 0 0 1.296-.621 6.254 6.254 0 0 0 1.17-.792c.348-.3.633-.696.855-1.188.222-.492.333-1.068.333-1.728 0-2.568-1.602-3.852-4.806-3.852-1.212 0-2.178.258-2.898.774-.576.42-.864 1.02-.864 1.8 0 .312.045.507.135.585.09.078.243.057.459-.063.396-.228.699-.393.909-.495.21-.102.528-.213.954-.333.426-.12.855-.18 1.287-.18 1.548 0 2.322.606 2.322 1.818 0 .468-.117.873-.351 1.215a2.768 2.768 0 0 1-.909.837c-.372.216-.783.423-1.233.621-.45.198-.897.438-1.341.72a6.704 6.704 0 0 0-1.224.999c-.372.384-.675.909-.909 1.575-.234.666-.351 1.443-.351 2.331 0 .264.039.45.117.558.078.108.243.162.495.162z"/></g></g></g></g></svg>